G75*
G70*
%OFA0B0*%
%FSLAX25Y25*%
%IPPOS*%
%LPD*%
%AMOC8*
5,1,8,0,0,1.08239X$1,22.5*
%
%ADD117C,0.14400*%
%ADD12C,0.13300*%
%ADD120C,0.05950*%
%ADD123C,0.11750*%
%ADD124C,0.23800*%
%ADD125R,0.02770X0.01780*%
%ADD126C,0.14200*%
%ADD131R,0.06710X0.06710*%
%ADD132C,0.08200*%
%ADD138C,0.04760*%
%ADD14R,0.02970X0.05520*%
%ADD142C,0.13400*%
%ADD146C,0.04800*%
%ADD15C,0.05600*%
%ADD151C,0.03900*%
%ADD23R,0.05130X0.04740*%
%ADD31C,0.07300*%
%ADD34R,0.07300X0.07300*%
%ADD40OC8,0.06800*%
%ADD44C,0.04600*%
%ADD49R,0.04740X0.05130*%
%ADD58OC8,0.08200*%
%ADD64C,0.20800*%
%ADD72C,0.14800*%
%ADD73C,0.12610*%
%ADD75C,0.11430*%
%ADD81C,0.06800*%
%ADD82C,0.06710*%
%ADD83R,0.08200X0.08200*%
%ADD96C,0.07490*%
%ADD99R,0.08670X0.21670*%
X0030000Y0030000D02*
G75*
%LPD*%
D12*
X0267480Y0290510D03*
D131*
X0285000Y0047500D03*
X0095000Y0047500D03*
D82*
X0095000Y0057500D03*
X0095000Y0067500D03*
X0095000Y0077500D03*
X0095000Y0087500D03*
X0095000Y0097500D03*
X0095000Y0107500D03*
X0095000Y0117500D03*
X0095000Y0127500D03*
X0095000Y0137500D03*
X0095000Y0147500D03*
X0095000Y0157500D03*
X0095000Y0167500D03*
X0095000Y0177500D03*
X0095000Y0187500D03*
X0095000Y0197500D03*
X0095000Y0207500D03*
X0095000Y0217500D03*
X0095000Y0227500D03*
X0095000Y0237500D03*
X0095000Y0247500D03*
X0095000Y0257500D03*
X0095000Y0267500D03*
X0085000Y0267500D03*
X0085000Y0257500D03*
X0085000Y0247500D03*
X0085000Y0237500D03*
X0085000Y0227500D03*
X0085000Y0217500D03*
X0085000Y0207500D03*
X0085000Y0197500D03*
X0085000Y0187500D03*
X0085000Y0177500D03*
X0085000Y0167500D03*
X0085000Y0157500D03*
X0085000Y0147500D03*
X0085000Y0137500D03*
X0085000Y0127500D03*
X0085000Y0117500D03*
X0085000Y0107500D03*
X0085000Y0097500D03*
X0085000Y0087500D03*
X0085000Y0077500D03*
X0085000Y0067500D03*
X0085000Y0057500D03*
X0085000Y0047500D03*
X0275000Y0047500D03*
X0275000Y0057500D03*
X0275000Y0067500D03*
X0275000Y0077500D03*
X0275000Y0087500D03*
X0285000Y0087500D03*
X0285000Y0077500D03*
X0285000Y0067500D03*
X0285000Y0057500D03*
X0285000Y0097500D03*
X0285000Y0107500D03*
X0285000Y0117500D03*
X0285000Y0127500D03*
X0285000Y0137500D03*
X0285000Y0147500D03*
X0285000Y0157500D03*
X0285000Y0167500D03*
X0285000Y0177500D03*
X0285000Y0187500D03*
X0285000Y0197500D03*
X0285000Y0207500D03*
X0285000Y0217500D03*
X0285000Y0227500D03*
X0285000Y0237500D03*
X0285000Y0247500D03*
X0285000Y0257500D03*
X0285000Y0267500D03*
X0275000Y0267500D03*
X0275000Y0257500D03*
X0275000Y0247500D03*
X0275000Y0237500D03*
X0275000Y0227500D03*
X0275000Y0217500D03*
X0275000Y0207500D03*
X0275000Y0197500D03*
X0275000Y0187500D03*
X0275000Y0177500D03*
X0275000Y0167500D03*
X0275000Y0157500D03*
X0275000Y0147500D03*
X0275000Y0137500D03*
X0275000Y0127500D03*
X0275000Y0117500D03*
X0275000Y0107500D03*
X0275000Y0097500D03*
D132*
X0250500Y0097500D03*
X0249500Y0107500D03*
X0250500Y0117500D03*
X0249500Y0127500D03*
X0250500Y0137500D03*
X0249500Y0147500D03*
X0250500Y0157500D03*
X0249500Y0167500D03*
X0250500Y0177500D03*
X0249500Y0187500D03*
X0250500Y0197500D03*
X0249500Y0207500D03*
X0250500Y0217500D03*
X0249500Y0227500D03*
X0250500Y0237500D03*
X0249500Y0247500D03*
X0250500Y0257500D03*
X0249500Y0267500D03*
X0250500Y0277500D03*
X0260000Y0342000D03*
X0270000Y0343000D03*
X0280000Y0342000D03*
X0290000Y0343000D03*
X0300000Y0342000D03*
X0310000Y0343000D03*
X0320000Y0342000D03*
X0330000Y0343000D03*
X0340000Y0342000D03*
X0340000Y0363500D03*
X0330000Y0362500D03*
X0320000Y0363500D03*
X0310000Y0362500D03*
X0300000Y0363500D03*
X0290000Y0362500D03*
X0280000Y0363500D03*
X0270000Y0362500D03*
X0260000Y0363500D03*
X0300500Y0277500D03*
X0299500Y0267500D03*
X0300500Y0257500D03*
X0299500Y0247500D03*
X0300500Y0237500D03*
X0299500Y0227500D03*
X0300500Y0217500D03*
X0299500Y0207500D03*
X0300500Y0197500D03*
X0299500Y0187500D03*
X0300500Y0177500D03*
X0299500Y0167500D03*
X0300500Y0157500D03*
X0299500Y0147500D03*
X0300500Y0137500D03*
X0299500Y0127500D03*
X0300500Y0117500D03*
X0299500Y0107500D03*
X0300500Y0097500D03*
X0299500Y0087500D03*
X0300500Y0077500D03*
X0299500Y0067500D03*
X0300500Y0057500D03*
X0299500Y0047500D03*
X0335000Y0097500D03*
X0340000Y0107500D03*
X0345000Y0097500D03*
X0350000Y0107500D03*
X0355000Y0097500D03*
X0360000Y0107500D03*
X0363000Y0130000D03*
X0362000Y0140000D03*
X0363000Y0150000D03*
X0362000Y0190000D03*
X0363000Y0200000D03*
X0362000Y0210000D03*
X0363000Y0260000D03*
X0362000Y0270000D03*
X0363000Y0280000D03*
X0363000Y0320000D03*
X0362000Y0330000D03*
X0363000Y0340000D03*
X0363000Y0380000D03*
X0362000Y0390000D03*
X0363000Y0400000D03*
X0262500Y0197500D03*
X0262500Y0187500D03*
X0262500Y0177500D03*
X0262500Y0167500D03*
X0262500Y0157500D03*
X0262500Y0147500D03*
X0230500Y0137500D03*
X0229500Y0127500D03*
X0230500Y0117500D03*
X0229500Y0107500D03*
X0230500Y0097500D03*
X0229500Y0087500D03*
X0210500Y0097500D03*
X0209500Y0107500D03*
X0210500Y0117500D03*
X0209500Y0127500D03*
X0210500Y0137500D03*
X0209500Y0147500D03*
X0210500Y0157500D03*
X0209500Y0167500D03*
X0210500Y0177500D03*
X0229500Y0167500D03*
X0230500Y0157500D03*
X0229500Y0147500D03*
X0230500Y0177500D03*
X0249500Y0087500D03*
X0250500Y0077500D03*
X0249500Y0067500D03*
X0250500Y0057500D03*
X0249500Y0047500D03*
X0209500Y0087500D03*
X0110500Y0087500D03*
X0109500Y0077500D03*
X0110500Y0067500D03*
X0109500Y0057500D03*
X0110500Y0047500D03*
X0109500Y0037500D03*
X0109500Y0097500D03*
X0110500Y0107500D03*
X0109500Y0117500D03*
X0110500Y0127500D03*
X0109500Y0137500D03*
X0110500Y0147500D03*
X0109500Y0157500D03*
X0110500Y0167500D03*
X0109500Y0177500D03*
X0110500Y0187500D03*
X0109500Y0197500D03*
X0110500Y0207500D03*
X0109500Y0217500D03*
X0110500Y0227500D03*
X0109500Y0237500D03*
X0110500Y0247500D03*
X0109500Y0257500D03*
X0110500Y0267500D03*
X0070500Y0267500D03*
X0069500Y0257500D03*
X0070500Y0247500D03*
X0069500Y0237500D03*
X0070500Y0227500D03*
X0069500Y0217500D03*
X0070500Y0207500D03*
X0069500Y0197500D03*
X0070500Y0187500D03*
X0069500Y0177500D03*
X0070500Y0167500D03*
X0069500Y0157500D03*
X0070500Y0147500D03*
X0069500Y0137500D03*
X0070500Y0127500D03*
X0069500Y0117500D03*
X0070500Y0107500D03*
X0069500Y0097500D03*
X0070500Y0087500D03*
X0069500Y0077500D03*
X0070500Y0067500D03*
X0069500Y0057500D03*
X0070500Y0047500D03*
X0069500Y0037500D03*
X0057000Y0352500D03*
X0057000Y0362500D03*
X0057000Y0372500D03*
X0057000Y0382500D03*
X0057000Y0392500D03*
X0057000Y0402500D03*
X0057000Y0412500D03*
X0057000Y0422500D03*
X0057000Y0432500D03*
X0057000Y0442500D03*
X0057000Y0452500D03*
X0057000Y0462500D03*
X0057000Y0472500D03*
X0057000Y0482500D03*
X0057000Y0492500D03*
X0057000Y0502500D03*
X0057000Y0512500D03*
X0035000Y0512500D03*
X0035000Y0502500D03*
X0035000Y0492500D03*
X0035000Y0482500D03*
X0035000Y0472500D03*
X0035000Y0462500D03*
X0035000Y0452500D03*
X0035000Y0442500D03*
X0035000Y0432500D03*
X0035000Y0422500D03*
X0035000Y0412500D03*
X0035000Y0402500D03*
X0035000Y0392500D03*
X0035000Y0382500D03*
X0035000Y0372500D03*
X0035000Y0362500D03*
X0035000Y0522500D03*
X0126590Y0756910D03*
X0137500Y0756910D03*
X0148400Y0756910D03*
X0153840Y0768090D03*
X0142930Y0768090D03*
X0132060Y0768090D03*
X0121160Y0768090D03*
X0159310Y0756910D03*
X0239300Y0732500D03*
X0250700Y0732500D03*
X0387500Y0733000D03*
X0397500Y0732000D03*
X0407500Y0733000D03*
X0417500Y0732000D03*
X0427500Y0733000D03*
X0432500Y0107500D03*
X0427500Y0097500D03*
X0422500Y0107500D03*
X0417500Y0097500D03*
X0412500Y0107500D03*
X0407500Y0097500D03*
X0402500Y0107500D03*
X0330000Y0107500D03*
D117*
X0210000Y0067500D03*
X0140000Y0067500D03*
X0140000Y0197500D03*
X0210000Y0197500D03*
X0260000Y0478600D03*
X0340000Y0478600D03*
D124*
X0045000Y0045000D03*
X0465000Y0045000D03*
X0465000Y0785000D03*
X0045000Y0785000D03*
D83*
X0115690Y0756910D03*
X0057000Y0522500D03*
X0035000Y0352500D03*
X0325000Y0097500D03*
X0363000Y0220000D03*
X0397500Y0097500D03*
D64*
X0186710Y0762500D03*
X0088280Y0762500D03*
D49*
X0106650Y0692500D03*
X0113340Y0692500D03*
X0129150Y0692500D03*
X0135840Y0692500D03*
X0151650Y0692500D03*
X0158340Y0692500D03*
X0174150Y0692500D03*
X0180840Y0692500D03*
D14*
X0181240Y0699880D03*
X0177500Y0699880D03*
X0173760Y0699880D03*
X0173760Y0710120D03*
X0181240Y0710120D03*
X0158740Y0710120D03*
X0151260Y0710120D03*
X0151260Y0699880D03*
X0155000Y0699880D03*
X0158740Y0699880D03*
X0136240Y0699880D03*
X0132500Y0699880D03*
X0128760Y0699880D03*
X0128760Y0710120D03*
X0136240Y0710120D03*
X0113740Y0710120D03*
X0113740Y0699880D03*
X0110000Y0699880D03*
X0106260Y0699880D03*
X0106260Y0710120D03*
D34*
X0240000Y0745000D03*
X0387500Y0745000D03*
X0375000Y0400000D03*
X0375000Y0340000D03*
X0375000Y0280000D03*
X0375000Y0220000D03*
X0375000Y0150000D03*
X0125000Y0325000D03*
X0092500Y0325000D03*
D31*
X0092500Y0315000D03*
X0092500Y0305000D03*
X0125000Y0305000D03*
X0125000Y0315000D03*
X0375000Y0320000D03*
X0375000Y0330000D03*
X0375000Y0380000D03*
X0375000Y0390000D03*
X0375000Y0270000D03*
X0375000Y0260000D03*
X0375000Y0210000D03*
X0375000Y0200000D03*
X0375000Y0190000D03*
X0375000Y0140000D03*
X0375000Y0130000D03*
X0397500Y0745000D03*
X0407500Y0745000D03*
X0417500Y0745000D03*
X0427500Y0745000D03*
X0250000Y0745000D03*
D126*
X0255500Y0779000D03*
X0234500Y0779000D03*
X0382000Y0779000D03*
X0433000Y0779000D03*
X0409000Y0405500D03*
X0409000Y0374500D03*
X0409000Y0345500D03*
X0409000Y0314500D03*
X0409000Y0285500D03*
X0409000Y0254500D03*
X0409000Y0225500D03*
X0409000Y0184500D03*
X0409000Y0155500D03*
X0409000Y0124500D03*
X0122000Y0289000D03*
X0089500Y0289000D03*
X0089500Y0341000D03*
X0122000Y0341000D03*
D40*
X0215000Y0567500D03*
X0225000Y0567500D03*
X0235000Y0567500D03*
X0245000Y0567500D03*
X0255000Y0567500D03*
X0265000Y0567500D03*
X0265000Y0577500D03*
X0255000Y0577500D03*
X0245000Y0577500D03*
X0235000Y0577500D03*
X0225000Y0577500D03*
X0215000Y0577500D03*
X0465000Y0605000D03*
X0465000Y0615000D03*
X0465000Y0625000D03*
X0465000Y0635000D03*
X0465000Y0645000D03*
X0475000Y0645000D03*
X0475000Y0635000D03*
X0475000Y0625000D03*
X0475000Y0615000D03*
X0475000Y0605000D03*
X0475000Y0655000D03*
X0475000Y0665000D03*
X0475000Y0675000D03*
X0465000Y0675000D03*
X0465000Y0665000D03*
X0465000Y0655000D03*
D73*
X0342500Y0756590D02*
X0342500Y0768410D01*
X0305000Y0768410D02*
X0305000Y0756590D01*
D72*
X0235000Y0517500D03*
X0235000Y0357500D03*
D23*
X0223340Y0712500D03*
X0216650Y0712500D03*
X0180840Y0717500D03*
X0174150Y0717500D03*
X0158340Y0717500D03*
X0151650Y0717500D03*
X0135840Y0717500D03*
X0129150Y0717500D03*
X0113340Y0717500D03*
X0106650Y0717500D03*
D142*
X0320000Y0072500D03*
X0365000Y0072500D03*
X0392500Y0072500D03*
X0437500Y0072500D03*
D58*
X0252500Y0313500D03*
X0252500Y0323500D03*
X0242500Y0323500D03*
X0242500Y0313500D03*
X0232500Y0313500D03*
X0232500Y0323500D03*
X0222500Y0323500D03*
X0222500Y0313500D03*
X0212500Y0313500D03*
X0212500Y0323500D03*
X0202500Y0323500D03*
X0202500Y0313500D03*
D125*
X0119470Y0527050D03*
X0119470Y0529020D03*
X0119470Y0530980D03*
X0119470Y0532950D03*
X0115530Y0532950D03*
X0115530Y0530980D03*
X0115530Y0529020D03*
X0115530Y0527050D03*
X0115530Y0542050D03*
X0115530Y0544020D03*
X0115530Y0545980D03*
X0115530Y0547950D03*
X0119470Y0547950D03*
X0119470Y0545980D03*
X0119470Y0544020D03*
X0119470Y0542050D03*
X0119470Y0557050D03*
X0119470Y0559020D03*
X0119470Y0560980D03*
X0119470Y0562950D03*
X0115530Y0562950D03*
X0115530Y0560980D03*
X0115530Y0559020D03*
X0115530Y0557050D03*
X0115530Y0572050D03*
X0115530Y0574020D03*
X0115530Y0575980D03*
X0115530Y0577950D03*
X0119470Y0577950D03*
X0119470Y0575980D03*
X0119470Y0574020D03*
X0119470Y0572050D03*
D81*
X0385000Y0478000D02*
X0385000Y0472000D01*
X0395000Y0472000D02*
X0395000Y0478000D01*
X0405000Y0478000D02*
X0405000Y0472000D01*
X0410000Y0587000D02*
X0410000Y0593000D01*
X0420000Y0593000D02*
X0420000Y0587000D01*
X0430000Y0587000D02*
X0430000Y0593000D01*
D99*
X0424500Y0330000D03*
X0450490Y0330000D03*
D81*
X0450000Y0362500D03*
X0447500Y0395000D03*
X0425000Y0362500D03*
X0410000Y0330000D03*
X0472500Y0450000D03*
X0447500Y0467500D03*
X0392500Y0547500D03*
X0392500Y0590000D03*
X0397500Y0645000D03*
X0427500Y0617500D03*
X0447500Y0600000D03*
X0460000Y0570000D03*
X0424000Y0707500D03*
X0401500Y0707720D03*
X0357710Y0707500D03*
X0357500Y0645000D03*
X0327500Y0500000D03*
X0327500Y0455000D03*
X0217500Y0660000D03*
X0275000Y0717500D03*
X0472500Y0120000D03*
X0460000Y0065000D03*
X0447500Y0050000D03*
D44*
X0327500Y0280000D03*
X0330000Y0392500D03*
X0255000Y0531000D03*
X0215000Y0492500D03*
X0215000Y0466650D03*
X0170000Y0497500D03*
X0170000Y0531000D03*
X0170000Y0392500D03*
X0202500Y0392500D03*
X0190000Y0725000D03*
X0167500Y0725000D03*
X0145000Y0725000D03*
X0122500Y0725000D03*
X0100000Y0725000D03*
X0077500Y0725000D03*
X0227500Y0725000D03*
X0437500Y0465000D03*
X0470000Y0590000D03*
X0030000Y0805000D02*
G75*
%LPD*%
D34*
X0115000Y0860000D03*
X0185000Y0860000D03*
X0250000Y0860000D03*
X0302500Y0860000D03*
X0355000Y0860000D03*
X0407500Y0860000D03*
D31*
X0397500Y0860000D03*
X0345000Y0860000D03*
X0292500Y0860000D03*
X0240000Y0860000D03*
X0230000Y0860000D03*
X0175000Y0860000D03*
X0165000Y0860000D03*
X0105000Y0860000D03*
X0095000Y0860000D03*
X0085000Y0860000D03*
X0075000Y0860000D03*
D126*
X0069500Y0826000D03*
X0120500Y0826000D03*
X0159500Y0826000D03*
X0190500Y0826000D03*
X0224500Y0826000D03*
X0255500Y0826000D03*
X0287000Y0826000D03*
X0308000Y0826000D03*
X0339500Y0826000D03*
X0360500Y0826000D03*
X0392000Y0826000D03*
X0413000Y0826000D03*
D120*
X0087570Y0905000D02*
X0082430Y0905000D01*
X0067570Y0905000D02*
X0062430Y0905000D01*
X0062430Y0925000D02*
X0067570Y0925000D01*
X0082430Y0925000D02*
X0087570Y0925000D01*
X0087570Y0935000D02*
X0082430Y0935000D01*
X0067570Y0935000D02*
X0062430Y0935000D01*
X0062430Y0945000D02*
X0067570Y0945000D01*
X0082430Y0945000D02*
X0087570Y0945000D01*
X0087570Y0955000D02*
X0082430Y0955000D01*
X0067570Y0955000D02*
X0062430Y0955000D01*
D96*
X0315610Y0985390D03*
X0329390Y0985390D03*
X0358110Y0985390D03*
X0371890Y0985390D03*
X0400610Y0985390D03*
X0414390Y0985390D03*
X0443110Y0985390D03*
X0456890Y0985390D03*
X0454390Y0824610D03*
X0440610Y0824610D03*
D124*
X0045000Y0820000D03*
X0045000Y0990000D03*
X0497500Y0990000D03*
X0497500Y0820000D03*
D75*
X0492500Y0920000D03*
X0450000Y0920000D03*
X0407500Y0920000D03*
X0365000Y0920000D03*
X0322500Y0920000D03*
X0280000Y0920000D03*
D123*
X0280000Y0901100D03*
X0322500Y0901100D03*
X0365000Y0901100D03*
X0407500Y0901100D03*
X0450000Y0901100D03*
X0492500Y0901100D03*
X0492500Y0938900D03*
X0450000Y0938900D03*
X0407500Y0938900D03*
X0365000Y0938900D03*
X0322500Y0938900D03*
X0280000Y0938900D03*
D138*
X0237500Y0945000D03*
X0237500Y0955000D03*
X0225000Y0955000D03*
X0217500Y0955000D03*
X0205000Y0952500D03*
X0192500Y0957500D03*
X0195000Y0962500D03*
X0195000Y0972500D03*
X0185000Y0980000D03*
X0162500Y0990000D03*
X0125000Y0972500D03*
X0115000Y0980000D03*
X0075000Y0980000D03*
X0045000Y0967500D03*
X0035000Y0972500D03*
X0045000Y0957500D03*
X0045000Y0947500D03*
X0050000Y0930000D03*
X0054500Y0922500D03*
X0071500Y0918500D03*
X0075000Y0925000D03*
X0095000Y0925000D03*
X0105000Y0925000D03*
X0112500Y0915000D03*
X0132500Y0925000D03*
X0137500Y0915000D03*
X0157500Y0925000D03*
X0175000Y0920000D03*
X0197500Y0920000D03*
X0212500Y0915000D03*
X0217500Y0905000D03*
X0237500Y0915000D03*
X0232500Y0925000D03*
X0212500Y0945000D03*
X0175000Y0945000D03*
X0152500Y0945000D03*
X0165000Y0935000D03*
X0165000Y0955000D03*
X0172500Y0957500D03*
X0100000Y0950000D03*
X0100000Y0900000D03*
X0125000Y0897500D03*
X0132500Y0897500D03*
X0180000Y0872500D03*
X0197500Y0872500D03*
X0240000Y0872500D03*
X0150000Y0867500D03*
X0135000Y0815000D03*
X0247500Y0965000D03*
X0240000Y0990000D03*
X0230000Y0990000D03*
D146*
X0290000Y0970000D03*
X0290000Y0940000D03*
D72*
X0415000Y0955000D03*
D15*
X0350000Y0910000D03*
X0302500Y0920000D03*
X0425000Y0812500D03*
D151*
X0225000Y0865000D03*
X0517500Y0030000D02*
G75*
%LPD*%
D12*
X0754980Y0290510D03*
D131*
X0772500Y0047500D03*
X0582500Y0047500D03*
D82*
X0582500Y0057500D03*
X0582500Y0067500D03*
X0582500Y0077500D03*
X0582500Y0087500D03*
X0582500Y0097500D03*
X0582500Y0107500D03*
X0582500Y0117500D03*
X0582500Y0127500D03*
X0582500Y0137500D03*
X0582500Y0147500D03*
X0582500Y0157500D03*
X0582500Y0167500D03*
X0582500Y0177500D03*
X0582500Y0187500D03*
X0582500Y0197500D03*
X0582500Y0207500D03*
X0582500Y0217500D03*
X0582500Y0227500D03*
X0582500Y0237500D03*
X0582500Y0247500D03*
X0582500Y0257500D03*
X0582500Y0267500D03*
X0572500Y0267500D03*
X0572500Y0257500D03*
X0572500Y0247500D03*
X0572500Y0237500D03*
X0572500Y0227500D03*
X0572500Y0217500D03*
X0572500Y0207500D03*
X0572500Y0197500D03*
X0572500Y0187500D03*
X0572500Y0177500D03*
X0572500Y0167500D03*
X0572500Y0157500D03*
X0572500Y0147500D03*
X0572500Y0137500D03*
X0572500Y0127500D03*
X0572500Y0117500D03*
X0572500Y0107500D03*
X0572500Y0097500D03*
X0572500Y0087500D03*
X0572500Y0077500D03*
X0572500Y0067500D03*
X0572500Y0057500D03*
X0572500Y0047500D03*
X0762500Y0047500D03*
X0762500Y0057500D03*
X0762500Y0067500D03*
X0762500Y0077500D03*
X0762500Y0087500D03*
X0772500Y0087500D03*
X0772500Y0077500D03*
X0772500Y0067500D03*
X0772500Y0057500D03*
X0772500Y0097500D03*
X0772500Y0107500D03*
X0772500Y0117500D03*
X0772500Y0127500D03*
X0772500Y0137500D03*
X0772500Y0147500D03*
X0772500Y0157500D03*
X0772500Y0167500D03*
X0772500Y0177500D03*
X0772500Y0187500D03*
X0772500Y0197500D03*
X0772500Y0207500D03*
X0772500Y0217500D03*
X0772500Y0227500D03*
X0772500Y0237500D03*
X0772500Y0247500D03*
X0772500Y0257500D03*
X0772500Y0267500D03*
X0762500Y0267500D03*
X0762500Y0257500D03*
X0762500Y0247500D03*
X0762500Y0237500D03*
X0762500Y0227500D03*
X0762500Y0217500D03*
X0762500Y0207500D03*
X0762500Y0197500D03*
X0762500Y0187500D03*
X0762500Y0177500D03*
X0762500Y0167500D03*
X0762500Y0157500D03*
X0762500Y0147500D03*
X0762500Y0137500D03*
X0762500Y0127500D03*
X0762500Y0117500D03*
X0762500Y0107500D03*
X0762500Y0097500D03*
D132*
X0738000Y0097500D03*
X0737000Y0107500D03*
X0738000Y0117500D03*
X0737000Y0127500D03*
X0738000Y0137500D03*
X0737000Y0147500D03*
X0738000Y0157500D03*
X0737000Y0167500D03*
X0738000Y0177500D03*
X0737000Y0187500D03*
X0738000Y0197500D03*
X0737000Y0207500D03*
X0738000Y0217500D03*
X0737000Y0227500D03*
X0738000Y0237500D03*
X0737000Y0247500D03*
X0738000Y0257500D03*
X0737000Y0267500D03*
X0738000Y0277500D03*
X0747500Y0342000D03*
X0757500Y0343000D03*
X0767500Y0342000D03*
X0777500Y0343000D03*
X0787500Y0342000D03*
X0797500Y0343000D03*
X0807500Y0342000D03*
X0817500Y0343000D03*
X0827500Y0342000D03*
X0827500Y0363500D03*
X0817500Y0362500D03*
X0807500Y0363500D03*
X0797500Y0362500D03*
X0787500Y0363500D03*
X0777500Y0362500D03*
X0767500Y0363500D03*
X0757500Y0362500D03*
X0747500Y0363500D03*
X0788000Y0277500D03*
X0787000Y0267500D03*
X0788000Y0257500D03*
X0787000Y0247500D03*
X0788000Y0237500D03*
X0787000Y0227500D03*
X0788000Y0217500D03*
X0787000Y0207500D03*
X0788000Y0197500D03*
X0787000Y0187500D03*
X0788000Y0177500D03*
X0787000Y0167500D03*
X0788000Y0157500D03*
X0787000Y0147500D03*
X0788000Y0137500D03*
X0787000Y0127500D03*
X0788000Y0117500D03*
X0787000Y0107500D03*
X0788000Y0097500D03*
X0787000Y0087500D03*
X0788000Y0077500D03*
X0787000Y0067500D03*
X0788000Y0057500D03*
X0787000Y0047500D03*
X0822500Y0097500D03*
X0827500Y0107500D03*
X0832500Y0097500D03*
X0837500Y0107500D03*
X0842500Y0097500D03*
X0847500Y0107500D03*
X0850500Y0130000D03*
X0849500Y0140000D03*
X0850500Y0150000D03*
X0849500Y0190000D03*
X0850500Y0200000D03*
X0849500Y0210000D03*
X0850500Y0260000D03*
X0849500Y0270000D03*
X0850500Y0280000D03*
X0850500Y0320000D03*
X0849500Y0330000D03*
X0850500Y0340000D03*
X0850500Y0380000D03*
X0849500Y0390000D03*
X0850500Y0400000D03*
X0750000Y0197500D03*
X0750000Y0187500D03*
X0750000Y0177500D03*
X0750000Y0167500D03*
X0750000Y0157500D03*
X0750000Y0147500D03*
X0718000Y0137500D03*
X0717000Y0127500D03*
X0718000Y0117500D03*
X0717000Y0107500D03*
X0718000Y0097500D03*
X0717000Y0087500D03*
X0698000Y0097500D03*
X0697000Y0107500D03*
X0698000Y0117500D03*
X0697000Y0127500D03*
X0698000Y0137500D03*
X0697000Y0147500D03*
X0698000Y0157500D03*
X0697000Y0167500D03*
X0698000Y0177500D03*
X0717000Y0167500D03*
X0718000Y0157500D03*
X0717000Y0147500D03*
X0718000Y0177500D03*
X0737000Y0087500D03*
X0738000Y0077500D03*
X0737000Y0067500D03*
X0738000Y0057500D03*
X0737000Y0047500D03*
X0697000Y0087500D03*
X0598000Y0087500D03*
X0597000Y0077500D03*
X0598000Y0067500D03*
X0597000Y0057500D03*
X0598000Y0047500D03*
X0597000Y0037500D03*
X0597000Y0097500D03*
X0598000Y0107500D03*
X0597000Y0117500D03*
X0598000Y0127500D03*
X0597000Y0137500D03*
X0598000Y0147500D03*
X0597000Y0157500D03*
X0598000Y0167500D03*
X0597000Y0177500D03*
X0598000Y0187500D03*
X0597000Y0197500D03*
X0598000Y0207500D03*
X0597000Y0217500D03*
X0598000Y0227500D03*
X0597000Y0237500D03*
X0598000Y0247500D03*
X0597000Y0257500D03*
X0598000Y0267500D03*
X0558000Y0267500D03*
X0557000Y0257500D03*
X0558000Y0247500D03*
X0557000Y0237500D03*
X0558000Y0227500D03*
X0557000Y0217500D03*
X0558000Y0207500D03*
X0557000Y0197500D03*
X0558000Y0187500D03*
X0557000Y0177500D03*
X0558000Y0167500D03*
X0557000Y0157500D03*
X0558000Y0147500D03*
X0557000Y0137500D03*
X0558000Y0127500D03*
X0557000Y0117500D03*
X0558000Y0107500D03*
X0557000Y0097500D03*
X0558000Y0087500D03*
X0557000Y0077500D03*
X0558000Y0067500D03*
X0557000Y0057500D03*
X0558000Y0047500D03*
X0557000Y0037500D03*
X0544500Y0352500D03*
X0544500Y0362500D03*
X0544500Y0372500D03*
X0544500Y0382500D03*
X0544500Y0392500D03*
X0544500Y0402500D03*
X0544500Y0412500D03*
X0544500Y0422500D03*
X0544500Y0432500D03*
X0544500Y0442500D03*
X0544500Y0452500D03*
X0544500Y0462500D03*
X0544500Y0472500D03*
X0544500Y0482500D03*
X0544500Y0492500D03*
X0544500Y0502500D03*
X0544500Y0512500D03*
X0522500Y0512500D03*
X0522500Y0502500D03*
X0522500Y0492500D03*
X0522500Y0482500D03*
X0522500Y0472500D03*
X0522500Y0462500D03*
X0522500Y0452500D03*
X0522500Y0442500D03*
X0522500Y0432500D03*
X0522500Y0422500D03*
X0522500Y0412500D03*
X0522500Y0402500D03*
X0522500Y0392500D03*
X0522500Y0382500D03*
X0522500Y0372500D03*
X0522500Y0362500D03*
X0522500Y0522500D03*
X0614090Y0756910D03*
X0625000Y0756910D03*
X0635900Y0756910D03*
X0641340Y0768090D03*
X0630430Y0768090D03*
X0619560Y0768090D03*
X0608660Y0768090D03*
X0646810Y0756910D03*
X0726800Y0732500D03*
X0738200Y0732500D03*
X0875000Y0733000D03*
X0885000Y0732000D03*
X0895000Y0733000D03*
X0905000Y0732000D03*
X0915000Y0733000D03*
X0920000Y0107500D03*
X0915000Y0097500D03*
X0910000Y0107500D03*
X0905000Y0097500D03*
X0900000Y0107500D03*
X0895000Y0097500D03*
X0890000Y0107500D03*
X0817500Y0107500D03*
D117*
X0697500Y0067500D03*
X0627500Y0067500D03*
X0627500Y0197500D03*
X0697500Y0197500D03*
X0747500Y0478600D03*
X0827500Y0478600D03*
D124*
X0532500Y0045000D03*
X0952500Y0045000D03*
X0952500Y0785000D03*
X0532500Y0785000D03*
D83*
X0603190Y0756910D03*
X0544500Y0522500D03*
X0522500Y0352500D03*
X0812500Y0097500D03*
X0850500Y0220000D03*
X0885000Y0097500D03*
D64*
X0674210Y0762500D03*
X0575780Y0762500D03*
D49*
X0594150Y0692500D03*
X0600840Y0692500D03*
X0616650Y0692500D03*
X0623340Y0692500D03*
X0639150Y0692500D03*
X0645840Y0692500D03*
X0661650Y0692500D03*
X0668340Y0692500D03*
D14*
X0668740Y0699880D03*
X0665000Y0699880D03*
X0661260Y0699880D03*
X0661260Y0710120D03*
X0668740Y0710120D03*
X0646240Y0710120D03*
X0638760Y0710120D03*
X0638760Y0699880D03*
X0642500Y0699880D03*
X0646240Y0699880D03*
X0623740Y0699880D03*
X0620000Y0699880D03*
X0616260Y0699880D03*
X0616260Y0710120D03*
X0623740Y0710120D03*
X0601240Y0710120D03*
X0601240Y0699880D03*
X0597500Y0699880D03*
X0593760Y0699880D03*
X0593760Y0710120D03*
D34*
X0727500Y0745000D03*
X0875000Y0745000D03*
X0862500Y0400000D03*
X0862500Y0340000D03*
X0862500Y0280000D03*
X0862500Y0220000D03*
X0862500Y0150000D03*
X0612500Y0325000D03*
X0580000Y0325000D03*
D31*
X0580000Y0315000D03*
X0580000Y0305000D03*
X0612500Y0305000D03*
X0612500Y0315000D03*
X0862500Y0320000D03*
X0862500Y0330000D03*
X0862500Y0380000D03*
X0862500Y0390000D03*
X0862500Y0270000D03*
X0862500Y0260000D03*
X0862500Y0210000D03*
X0862500Y0200000D03*
X0862500Y0190000D03*
X0862500Y0140000D03*
X0862500Y0130000D03*
X0885000Y0745000D03*
X0895000Y0745000D03*
X0905000Y0745000D03*
X0915000Y0745000D03*
X0737500Y0745000D03*
D126*
X0743000Y0779000D03*
X0722000Y0779000D03*
X0869500Y0779000D03*
X0920500Y0779000D03*
X0896500Y0405500D03*
X0896500Y0374500D03*
X0896500Y0345500D03*
X0896500Y0314500D03*
X0896500Y0285500D03*
X0896500Y0254500D03*
X0896500Y0225500D03*
X0896500Y0184500D03*
X0896500Y0155500D03*
X0896500Y0124500D03*
X0609500Y0289000D03*
X0577000Y0289000D03*
X0577000Y0341000D03*
X0609500Y0341000D03*
D40*
X0702500Y0567500D03*
X0712500Y0567500D03*
X0722500Y0567500D03*
X0732500Y0567500D03*
X0742500Y0567500D03*
X0752500Y0567500D03*
X0752500Y0577500D03*
X0742500Y0577500D03*
X0732500Y0577500D03*
X0722500Y0577500D03*
X0712500Y0577500D03*
X0702500Y0577500D03*
X0952500Y0605000D03*
X0952500Y0615000D03*
X0952500Y0625000D03*
X0952500Y0635000D03*
X0952500Y0645000D03*
X0962500Y0645000D03*
X0962500Y0635000D03*
X0962500Y0625000D03*
X0962500Y0615000D03*
X0962500Y0605000D03*
X0962500Y0655000D03*
X0962500Y0665000D03*
X0962500Y0675000D03*
X0952500Y0675000D03*
X0952500Y0665000D03*
X0952500Y0655000D03*
D73*
X0830000Y0756590D02*
X0830000Y0768410D01*
X0792500Y0768410D02*
X0792500Y0756590D01*
D72*
X0722500Y0517500D03*
X0722500Y0357500D03*
D23*
X0710840Y0712500D03*
X0704150Y0712500D03*
X0668340Y0717500D03*
X0661650Y0717500D03*
X0645840Y0717500D03*
X0639150Y0717500D03*
X0623340Y0717500D03*
X0616650Y0717500D03*
X0600840Y0717500D03*
X0594150Y0717500D03*
D142*
X0807500Y0072500D03*
X0852500Y0072500D03*
X0880000Y0072500D03*
X0925000Y0072500D03*
D58*
X0740000Y0313500D03*
X0740000Y0323500D03*
X0730000Y0323500D03*
X0730000Y0313500D03*
X0720000Y0313500D03*
X0720000Y0323500D03*
X0710000Y0323500D03*
X0710000Y0313500D03*
X0700000Y0313500D03*
X0700000Y0323500D03*
X0690000Y0323500D03*
X0690000Y0313500D03*
D125*
X0606970Y0527050D03*
X0606970Y0529020D03*
X0606970Y0530980D03*
X0606970Y0532950D03*
X0603030Y0532950D03*
X0603030Y0530980D03*
X0603030Y0529020D03*
X0603030Y0527050D03*
X0603030Y0542050D03*
X0603030Y0544020D03*
X0603030Y0545980D03*
X0603030Y0547950D03*
X0606970Y0547950D03*
X0606970Y0545980D03*
X0606970Y0544020D03*
X0606970Y0542050D03*
X0606970Y0557050D03*
X0606970Y0559020D03*
X0606970Y0560980D03*
X0606970Y0562950D03*
X0603030Y0562950D03*
X0603030Y0560980D03*
X0603030Y0559020D03*
X0603030Y0557050D03*
X0603030Y0572050D03*
X0603030Y0574020D03*
X0603030Y0575980D03*
X0603030Y0577950D03*
X0606970Y0577950D03*
X0606970Y0575980D03*
X0606970Y0574020D03*
X0606970Y0572050D03*
D81*
X0872500Y0478000D02*
X0872500Y0472000D01*
X0882500Y0472000D02*
X0882500Y0478000D01*
X0892500Y0478000D02*
X0892500Y0472000D01*
X0897500Y0587000D02*
X0897500Y0593000D01*
X0907500Y0593000D02*
X0907500Y0587000D01*
X0917500Y0587000D02*
X0917500Y0593000D01*
D99*
X0912000Y0330000D03*
X0937990Y0330000D03*
D81*
X0937500Y0362500D03*
X0935000Y0395000D03*
X0912500Y0362500D03*
X0897500Y0330000D03*
X0960000Y0450000D03*
X0935000Y0467500D03*
X0880000Y0547500D03*
X0880000Y0590000D03*
X0885000Y0645000D03*
X0915000Y0617500D03*
X0935000Y0600000D03*
X0947500Y0570000D03*
X0911500Y0707500D03*
X0889000Y0707720D03*
X0845210Y0707500D03*
X0845000Y0645000D03*
X0815000Y0500000D03*
X0815000Y0455000D03*
X0705000Y0660000D03*
X0762500Y0717500D03*
X0960000Y0120000D03*
X0947500Y0065000D03*
X0935000Y0050000D03*
D44*
X0815000Y0280000D03*
X0817500Y0392500D03*
X0742500Y0531000D03*
X0702500Y0492500D03*
X0702500Y0466650D03*
X0657500Y0497500D03*
X0657500Y0531000D03*
X0657500Y0392500D03*
X0690000Y0392500D03*
X0677500Y0725000D03*
X0655000Y0725000D03*
X0632500Y0725000D03*
X0610000Y0725000D03*
X0587500Y0725000D03*
X0565000Y0725000D03*
X0715000Y0725000D03*
X0925000Y0465000D03*
X0957500Y0590000D03*
X0517500Y0805000D02*
G75*
%LPD*%
D34*
X0602500Y0860000D03*
X0672500Y0860000D03*
X0737500Y0860000D03*
X0790000Y0860000D03*
X0842500Y0860000D03*
X0895000Y0860000D03*
D31*
X0885000Y0860000D03*
X0832500Y0860000D03*
X0780000Y0860000D03*
X0727500Y0860000D03*
X0717500Y0860000D03*
X0662500Y0860000D03*
X0652500Y0860000D03*
X0592500Y0860000D03*
X0582500Y0860000D03*
X0572500Y0860000D03*
X0562500Y0860000D03*
D126*
X0557000Y0826000D03*
X0608000Y0826000D03*
X0647000Y0826000D03*
X0678000Y0826000D03*
X0712000Y0826000D03*
X0743000Y0826000D03*
X0774500Y0826000D03*
X0795500Y0826000D03*
X0827000Y0826000D03*
X0848000Y0826000D03*
X0879500Y0826000D03*
X0900500Y0826000D03*
D120*
X0575070Y0905000D02*
X0569930Y0905000D01*
X0555070Y0905000D02*
X0549930Y0905000D01*
X0549930Y0925000D02*
X0555070Y0925000D01*
X0569930Y0925000D02*
X0575070Y0925000D01*
X0575070Y0935000D02*
X0569930Y0935000D01*
X0555070Y0935000D02*
X0549930Y0935000D01*
X0549930Y0945000D02*
X0555070Y0945000D01*
X0569930Y0945000D02*
X0575070Y0945000D01*
X0575070Y0955000D02*
X0569930Y0955000D01*
X0555070Y0955000D02*
X0549930Y0955000D01*
D96*
X0803110Y0985390D03*
X0816890Y0985390D03*
X0845610Y0985390D03*
X0859390Y0985390D03*
X0888110Y0985390D03*
X0901890Y0985390D03*
X0930610Y0985390D03*
X0944390Y0985390D03*
X0941890Y0824610D03*
X0928110Y0824610D03*
D124*
X0532500Y0820000D03*
X0532500Y0990000D03*
X0985000Y0990000D03*
X0985000Y0820000D03*
D75*
X0980000Y0920000D03*
X0937500Y0920000D03*
X0895000Y0920000D03*
X0852500Y0920000D03*
X0810000Y0920000D03*
X0767500Y0920000D03*
D123*
X0767500Y0901100D03*
X0810000Y0901100D03*
X0852500Y0901100D03*
X0895000Y0901100D03*
X0937500Y0901100D03*
X0980000Y0901100D03*
X0980000Y0938900D03*
X0937500Y0938900D03*
X0895000Y0938900D03*
X0852500Y0938900D03*
X0810000Y0938900D03*
X0767500Y0938900D03*
D138*
X0725000Y0945000D03*
X0725000Y0955000D03*
X0712500Y0955000D03*
X0705000Y0955000D03*
X0692500Y0952500D03*
X0680000Y0957500D03*
X0682500Y0962500D03*
X0682500Y0972500D03*
X0672500Y0980000D03*
X0650000Y0990000D03*
X0612500Y0972500D03*
X0602500Y0980000D03*
X0562500Y0980000D03*
X0532500Y0967500D03*
X0522500Y0972500D03*
X0532500Y0957500D03*
X0532500Y0947500D03*
X0537500Y0930000D03*
X0542000Y0922500D03*
X0559000Y0918500D03*
X0562500Y0925000D03*
X0582500Y0925000D03*
X0592500Y0925000D03*
X0600000Y0915000D03*
X0620000Y0925000D03*
X0625000Y0915000D03*
X0645000Y0925000D03*
X0662500Y0920000D03*
X0685000Y0920000D03*
X0700000Y0915000D03*
X0705000Y0905000D03*
X0725000Y0915000D03*
X0720000Y0925000D03*
X0700000Y0945000D03*
X0662500Y0945000D03*
X0640000Y0945000D03*
X0652500Y0935000D03*
X0652500Y0955000D03*
X0660000Y0957500D03*
X0587500Y0950000D03*
X0587500Y0900000D03*
X0612500Y0897500D03*
X0620000Y0897500D03*
X0667500Y0872500D03*
X0685000Y0872500D03*
X0727500Y0872500D03*
X0637500Y0867500D03*
X0622500Y0815000D03*
X0735000Y0965000D03*
X0727500Y0990000D03*
X0717500Y0990000D03*
D146*
X0777500Y0970000D03*
X0777500Y0940000D03*
D72*
X0902500Y0955000D03*
D15*
X0837500Y0910000D03*
X0790000Y0920000D03*
X0912500Y0812500D03*
D151*
X0712500Y0865000D03*
X1005000Y0030000D02*
G75*
%LPD*%
D12*
X1242480Y0290510D03*
D131*
X1260000Y0047500D03*
X1070000Y0047500D03*
D82*
X1070000Y0057500D03*
X1070000Y0067500D03*
X1070000Y0077500D03*
X1070000Y0087500D03*
X1070000Y0097500D03*
X1070000Y0107500D03*
X1070000Y0117500D03*
X1070000Y0127500D03*
X1070000Y0137500D03*
X1070000Y0147500D03*
X1070000Y0157500D03*
X1070000Y0167500D03*
X1070000Y0177500D03*
X1070000Y0187500D03*
X1070000Y0197500D03*
X1070000Y0207500D03*
X1070000Y0217500D03*
X1070000Y0227500D03*
X1070000Y0237500D03*
X1070000Y0247500D03*
X1070000Y0257500D03*
X1070000Y0267500D03*
X1060000Y0267500D03*
X1060000Y0257500D03*
X1060000Y0247500D03*
X1060000Y0237500D03*
X1060000Y0227500D03*
X1060000Y0217500D03*
X1060000Y0207500D03*
X1060000Y0197500D03*
X1060000Y0187500D03*
X1060000Y0177500D03*
X1060000Y0167500D03*
X1060000Y0157500D03*
X1060000Y0147500D03*
X1060000Y0137500D03*
X1060000Y0127500D03*
X1060000Y0117500D03*
X1060000Y0107500D03*
X1060000Y0097500D03*
X1060000Y0087500D03*
X1060000Y0077500D03*
X1060000Y0067500D03*
X1060000Y0057500D03*
X1060000Y0047500D03*
X1250000Y0047500D03*
X1250000Y0057500D03*
X1250000Y0067500D03*
X1250000Y0077500D03*
X1250000Y0087500D03*
X1260000Y0087500D03*
X1260000Y0077500D03*
X1260000Y0067500D03*
X1260000Y0057500D03*
X1260000Y0097500D03*
X1260000Y0107500D03*
X1260000Y0117500D03*
X1260000Y0127500D03*
X1260000Y0137500D03*
X1260000Y0147500D03*
X1260000Y0157500D03*
X1260000Y0167500D03*
X1260000Y0177500D03*
X1260000Y0187500D03*
X1260000Y0197500D03*
X1260000Y0207500D03*
X1260000Y0217500D03*
X1260000Y0227500D03*
X1260000Y0237500D03*
X1260000Y0247500D03*
X1260000Y0257500D03*
X1260000Y0267500D03*
X1250000Y0267500D03*
X1250000Y0257500D03*
X1250000Y0247500D03*
X1250000Y0237500D03*
X1250000Y0227500D03*
X1250000Y0217500D03*
X1250000Y0207500D03*
X1250000Y0197500D03*
X1250000Y0187500D03*
X1250000Y0177500D03*
X1250000Y0167500D03*
X1250000Y0157500D03*
X1250000Y0147500D03*
X1250000Y0137500D03*
X1250000Y0127500D03*
X1250000Y0117500D03*
X1250000Y0107500D03*
X1250000Y0097500D03*
D132*
X1225500Y0097500D03*
X1224500Y0107500D03*
X1225500Y0117500D03*
X1224500Y0127500D03*
X1225500Y0137500D03*
X1224500Y0147500D03*
X1225500Y0157500D03*
X1224500Y0167500D03*
X1225500Y0177500D03*
X1224500Y0187500D03*
X1225500Y0197500D03*
X1224500Y0207500D03*
X1225500Y0217500D03*
X1224500Y0227500D03*
X1225500Y0237500D03*
X1224500Y0247500D03*
X1225500Y0257500D03*
X1224500Y0267500D03*
X1225500Y0277500D03*
X1235000Y0342000D03*
X1245000Y0343000D03*
X1255000Y0342000D03*
X1265000Y0343000D03*
X1275000Y0342000D03*
X1285000Y0343000D03*
X1295000Y0342000D03*
X1305000Y0343000D03*
X1315000Y0342000D03*
X1315000Y0363500D03*
X1305000Y0362500D03*
X1295000Y0363500D03*
X1285000Y0362500D03*
X1275000Y0363500D03*
X1265000Y0362500D03*
X1255000Y0363500D03*
X1245000Y0362500D03*
X1235000Y0363500D03*
X1275500Y0277500D03*
X1274500Y0267500D03*
X1275500Y0257500D03*
X1274500Y0247500D03*
X1275500Y0237500D03*
X1274500Y0227500D03*
X1275500Y0217500D03*
X1274500Y0207500D03*
X1275500Y0197500D03*
X1274500Y0187500D03*
X1275500Y0177500D03*
X1274500Y0167500D03*
X1275500Y0157500D03*
X1274500Y0147500D03*
X1275500Y0137500D03*
X1274500Y0127500D03*
X1275500Y0117500D03*
X1274500Y0107500D03*
X1275500Y0097500D03*
X1274500Y0087500D03*
X1275500Y0077500D03*
X1274500Y0067500D03*
X1275500Y0057500D03*
X1274500Y0047500D03*
X1310000Y0097500D03*
X1315000Y0107500D03*
X1320000Y0097500D03*
X1325000Y0107500D03*
X1330000Y0097500D03*
X1335000Y0107500D03*
X1338000Y0130000D03*
X1337000Y0140000D03*
X1338000Y0150000D03*
X1337000Y0190000D03*
X1338000Y0200000D03*
X1337000Y0210000D03*
X1338000Y0260000D03*
X1337000Y0270000D03*
X1338000Y0280000D03*
X1338000Y0320000D03*
X1337000Y0330000D03*
X1338000Y0340000D03*
X1338000Y0380000D03*
X1337000Y0390000D03*
X1338000Y0400000D03*
X1237500Y0197500D03*
X1237500Y0187500D03*
X1237500Y0177500D03*
X1237500Y0167500D03*
X1237500Y0157500D03*
X1237500Y0147500D03*
X1205500Y0137500D03*
X1204500Y0127500D03*
X1205500Y0117500D03*
X1204500Y0107500D03*
X1205500Y0097500D03*
X1204500Y0087500D03*
X1185500Y0097500D03*
X1184500Y0107500D03*
X1185500Y0117500D03*
X1184500Y0127500D03*
X1185500Y0137500D03*
X1184500Y0147500D03*
X1185500Y0157500D03*
X1184500Y0167500D03*
X1185500Y0177500D03*
X1204500Y0167500D03*
X1205500Y0157500D03*
X1204500Y0147500D03*
X1205500Y0177500D03*
X1224500Y0087500D03*
X1225500Y0077500D03*
X1224500Y0067500D03*
X1225500Y0057500D03*
X1224500Y0047500D03*
X1184500Y0087500D03*
X1085500Y0087500D03*
X1084500Y0077500D03*
X1085500Y0067500D03*
X1084500Y0057500D03*
X1085500Y0047500D03*
X1084500Y0037500D03*
X1084500Y0097500D03*
X1085500Y0107500D03*
X1084500Y0117500D03*
X1085500Y0127500D03*
X1084500Y0137500D03*
X1085500Y0147500D03*
X1084500Y0157500D03*
X1085500Y0167500D03*
X1084500Y0177500D03*
X1085500Y0187500D03*
X1084500Y0197500D03*
X1085500Y0207500D03*
X1084500Y0217500D03*
X1085500Y0227500D03*
X1084500Y0237500D03*
X1085500Y0247500D03*
X1084500Y0257500D03*
X1085500Y0267500D03*
X1045500Y0267500D03*
X1044500Y0257500D03*
X1045500Y0247500D03*
X1044500Y0237500D03*
X1045500Y0227500D03*
X1044500Y0217500D03*
X1045500Y0207500D03*
X1044500Y0197500D03*
X1045500Y0187500D03*
X1044500Y0177500D03*
X1045500Y0167500D03*
X1044500Y0157500D03*
X1045500Y0147500D03*
X1044500Y0137500D03*
X1045500Y0127500D03*
X1044500Y0117500D03*
X1045500Y0107500D03*
X1044500Y0097500D03*
X1045500Y0087500D03*
X1044500Y0077500D03*
X1045500Y0067500D03*
X1044500Y0057500D03*
X1045500Y0047500D03*
X1044500Y0037500D03*
X1032000Y0352500D03*
X1032000Y0362500D03*
X1032000Y0372500D03*
X1032000Y0382500D03*
X1032000Y0392500D03*
X1032000Y0402500D03*
X1032000Y0412500D03*
X1032000Y0422500D03*
X1032000Y0432500D03*
X1032000Y0442500D03*
X1032000Y0452500D03*
X1032000Y0462500D03*
X1032000Y0472500D03*
X1032000Y0482500D03*
X1032000Y0492500D03*
X1032000Y0502500D03*
X1032000Y0512500D03*
X1010000Y0512500D03*
X1010000Y0502500D03*
X1010000Y0492500D03*
X1010000Y0482500D03*
X1010000Y0472500D03*
X1010000Y0462500D03*
X1010000Y0452500D03*
X1010000Y0442500D03*
X1010000Y0432500D03*
X1010000Y0422500D03*
X1010000Y0412500D03*
X1010000Y0402500D03*
X1010000Y0392500D03*
X1010000Y0382500D03*
X1010000Y0372500D03*
X1010000Y0362500D03*
X1010000Y0522500D03*
X1101590Y0756910D03*
X1112500Y0756910D03*
X1123400Y0756910D03*
X1128840Y0768090D03*
X1117930Y0768090D03*
X1107060Y0768090D03*
X1096160Y0768090D03*
X1134310Y0756910D03*
X1214300Y0732500D03*
X1225700Y0732500D03*
X1362500Y0733000D03*
X1372500Y0732000D03*
X1382500Y0733000D03*
X1392500Y0732000D03*
X1402500Y0733000D03*
X1407500Y0107500D03*
X1402500Y0097500D03*
X1397500Y0107500D03*
X1392500Y0097500D03*
X1387500Y0107500D03*
X1382500Y0097500D03*
X1377500Y0107500D03*
X1305000Y0107500D03*
D117*
X1185000Y0067500D03*
X1115000Y0067500D03*
X1115000Y0197500D03*
X1185000Y0197500D03*
X1235000Y0478600D03*
X1315000Y0478600D03*
D124*
X1020000Y0045000D03*
X1440000Y0045000D03*
X1440000Y0785000D03*
X1020000Y0785000D03*
D83*
X1090690Y0756910D03*
X1032000Y0522500D03*
X1010000Y0352500D03*
X1300000Y0097500D03*
X1338000Y0220000D03*
X1372500Y0097500D03*
D64*
X1161710Y0762500D03*
X1063280Y0762500D03*
D49*
X1081650Y0692500D03*
X1088340Y0692500D03*
X1104150Y0692500D03*
X1110840Y0692500D03*
X1126650Y0692500D03*
X1133340Y0692500D03*
X1149150Y0692500D03*
X1155840Y0692500D03*
D14*
X1156240Y0699880D03*
X1152500Y0699880D03*
X1148760Y0699880D03*
X1148760Y0710120D03*
X1156240Y0710120D03*
X1133740Y0710120D03*
X1126260Y0710120D03*
X1126260Y0699880D03*
X1130000Y0699880D03*
X1133740Y0699880D03*
X1111240Y0699880D03*
X1107500Y0699880D03*
X1103760Y0699880D03*
X1103760Y0710120D03*
X1111240Y0710120D03*
X1088740Y0710120D03*
X1088740Y0699880D03*
X1085000Y0699880D03*
X1081260Y0699880D03*
X1081260Y0710120D03*
D34*
X1215000Y0745000D03*
X1362500Y0745000D03*
X1350000Y0400000D03*
X1350000Y0340000D03*
X1350000Y0280000D03*
X1350000Y0220000D03*
X1350000Y0150000D03*
X1100000Y0325000D03*
X1067500Y0325000D03*
D31*
X1067500Y0315000D03*
X1067500Y0305000D03*
X1100000Y0305000D03*
X1100000Y0315000D03*
X1350000Y0320000D03*
X1350000Y0330000D03*
X1350000Y0380000D03*
X1350000Y0390000D03*
X1350000Y0270000D03*
X1350000Y0260000D03*
X1350000Y0210000D03*
X1350000Y0200000D03*
X1350000Y0190000D03*
X1350000Y0140000D03*
X1350000Y0130000D03*
X1372500Y0745000D03*
X1382500Y0745000D03*
X1392500Y0745000D03*
X1402500Y0745000D03*
X1225000Y0745000D03*
D126*
X1230500Y0779000D03*
X1209500Y0779000D03*
X1357000Y0779000D03*
X1408000Y0779000D03*
X1384000Y0405500D03*
X1384000Y0374500D03*
X1384000Y0345500D03*
X1384000Y0314500D03*
X1384000Y0285500D03*
X1384000Y0254500D03*
X1384000Y0225500D03*
X1384000Y0184500D03*
X1384000Y0155500D03*
X1384000Y0124500D03*
X1097000Y0289000D03*
X1064500Y0289000D03*
X1064500Y0341000D03*
X1097000Y0341000D03*
D40*
X1190000Y0567500D03*
X1200000Y0567500D03*
X1210000Y0567500D03*
X1220000Y0567500D03*
X1230000Y0567500D03*
X1240000Y0567500D03*
X1240000Y0577500D03*
X1230000Y0577500D03*
X1220000Y0577500D03*
X1210000Y0577500D03*
X1200000Y0577500D03*
X1190000Y0577500D03*
X1440000Y0605000D03*
X1440000Y0615000D03*
X1440000Y0625000D03*
X1440000Y0635000D03*
X1440000Y0645000D03*
X1450000Y0645000D03*
X1450000Y0635000D03*
X1450000Y0625000D03*
X1450000Y0615000D03*
X1450000Y0605000D03*
X1450000Y0655000D03*
X1450000Y0665000D03*
X1450000Y0675000D03*
X1440000Y0675000D03*
X1440000Y0665000D03*
X1440000Y0655000D03*
D73*
X1317500Y0756590D02*
X1317500Y0768410D01*
X1280000Y0768410D02*
X1280000Y0756590D01*
D72*
X1210000Y0517500D03*
X1210000Y0357500D03*
D23*
X1198340Y0712500D03*
X1191650Y0712500D03*
X1155840Y0717500D03*
X1149150Y0717500D03*
X1133340Y0717500D03*
X1126650Y0717500D03*
X1110840Y0717500D03*
X1104150Y0717500D03*
X1088340Y0717500D03*
X1081650Y0717500D03*
D142*
X1295000Y0072500D03*
X1340000Y0072500D03*
X1367500Y0072500D03*
X1412500Y0072500D03*
D58*
X1227500Y0313500D03*
X1227500Y0323500D03*
X1217500Y0323500D03*
X1217500Y0313500D03*
X1207500Y0313500D03*
X1207500Y0323500D03*
X1197500Y0323500D03*
X1197500Y0313500D03*
X1187500Y0313500D03*
X1187500Y0323500D03*
X1177500Y0323500D03*
X1177500Y0313500D03*
D125*
X1094470Y0527050D03*
X1094470Y0529020D03*
X1094470Y0530980D03*
X1094470Y0532950D03*
X1090530Y0532950D03*
X1090530Y0530980D03*
X1090530Y0529020D03*
X1090530Y0527050D03*
X1090530Y0542050D03*
X1090530Y0544020D03*
X1090530Y0545980D03*
X1090530Y0547950D03*
X1094470Y0547950D03*
X1094470Y0545980D03*
X1094470Y0544020D03*
X1094470Y0542050D03*
X1094470Y0557050D03*
X1094470Y0559020D03*
X1094470Y0560980D03*
X1094470Y0562950D03*
X1090530Y0562950D03*
X1090530Y0560980D03*
X1090530Y0559020D03*
X1090530Y0557050D03*
X1090530Y0572050D03*
X1090530Y0574020D03*
X1090530Y0575980D03*
X1090530Y0577950D03*
X1094470Y0577950D03*
X1094470Y0575980D03*
X1094470Y0574020D03*
X1094470Y0572050D03*
D81*
X1360000Y0478000D02*
X1360000Y0472000D01*
X1370000Y0472000D02*
X1370000Y0478000D01*
X1380000Y0478000D02*
X1380000Y0472000D01*
X1385000Y0587000D02*
X1385000Y0593000D01*
X1395000Y0593000D02*
X1395000Y0587000D01*
X1405000Y0587000D02*
X1405000Y0593000D01*
D99*
X1399500Y0330000D03*
X1425490Y0330000D03*
D81*
X1425000Y0362500D03*
X1422500Y0395000D03*
X1400000Y0362500D03*
X1385000Y0330000D03*
X1447500Y0450000D03*
X1422500Y0467500D03*
X1367500Y0547500D03*
X1367500Y0590000D03*
X1372500Y0645000D03*
X1402500Y0617500D03*
X1422500Y0600000D03*
X1435000Y0570000D03*
X1399000Y0707500D03*
X1376500Y0707720D03*
X1332710Y0707500D03*
X1332500Y0645000D03*
X1302500Y0500000D03*
X1302500Y0455000D03*
X1192500Y0660000D03*
X1250000Y0717500D03*
X1447500Y0120000D03*
X1435000Y0065000D03*
X1422500Y0050000D03*
D44*
X1302500Y0280000D03*
X1305000Y0392500D03*
X1230000Y0531000D03*
X1190000Y0492500D03*
X1190000Y0466650D03*
X1145000Y0497500D03*
X1145000Y0531000D03*
X1145000Y0392500D03*
X1177500Y0392500D03*
X1165000Y0725000D03*
X1142500Y0725000D03*
X1120000Y0725000D03*
X1097500Y0725000D03*
X1075000Y0725000D03*
X1052500Y0725000D03*
X1202500Y0725000D03*
X1412500Y0465000D03*
X1445000Y0590000D03*
X1005000Y0805000D02*
G75*
%LPD*%
D34*
X1090000Y0860000D03*
X1160000Y0860000D03*
X1225000Y0860000D03*
X1277500Y0860000D03*
X1330000Y0860000D03*
X1382500Y0860000D03*
D31*
X1372500Y0860000D03*
X1320000Y0860000D03*
X1267500Y0860000D03*
X1215000Y0860000D03*
X1205000Y0860000D03*
X1150000Y0860000D03*
X1140000Y0860000D03*
X1080000Y0860000D03*
X1070000Y0860000D03*
X1060000Y0860000D03*
X1050000Y0860000D03*
D126*
X1044500Y0826000D03*
X1095500Y0826000D03*
X1134500Y0826000D03*
X1165500Y0826000D03*
X1199500Y0826000D03*
X1230500Y0826000D03*
X1262000Y0826000D03*
X1283000Y0826000D03*
X1314500Y0826000D03*
X1335500Y0826000D03*
X1367000Y0826000D03*
X1388000Y0826000D03*
D120*
X1062570Y0905000D02*
X1057430Y0905000D01*
X1042570Y0905000D02*
X1037430Y0905000D01*
X1037430Y0925000D02*
X1042570Y0925000D01*
X1057430Y0925000D02*
X1062570Y0925000D01*
X1062570Y0935000D02*
X1057430Y0935000D01*
X1042570Y0935000D02*
X1037430Y0935000D01*
X1037430Y0945000D02*
X1042570Y0945000D01*
X1057430Y0945000D02*
X1062570Y0945000D01*
X1062570Y0955000D02*
X1057430Y0955000D01*
X1042570Y0955000D02*
X1037430Y0955000D01*
D96*
X1290610Y0985390D03*
X1304390Y0985390D03*
X1333110Y0985390D03*
X1346890Y0985390D03*
X1375610Y0985390D03*
X1389390Y0985390D03*
X1418110Y0985390D03*
X1431890Y0985390D03*
X1429390Y0824610D03*
X1415610Y0824610D03*
D124*
X1020000Y0820000D03*
X1020000Y0990000D03*
X1472500Y0990000D03*
X1472500Y0820000D03*
D75*
X1467500Y0920000D03*
X1425000Y0920000D03*
X1382500Y0920000D03*
X1340000Y0920000D03*
X1297500Y0920000D03*
X1255000Y0920000D03*
D123*
X1255000Y0901100D03*
X1297500Y0901100D03*
X1340000Y0901100D03*
X1382500Y0901100D03*
X1425000Y0901100D03*
X1467500Y0901100D03*
X1467500Y0938900D03*
X1425000Y0938900D03*
X1382500Y0938900D03*
X1340000Y0938900D03*
X1297500Y0938900D03*
X1255000Y0938900D03*
D138*
X1212500Y0945000D03*
X1212500Y0955000D03*
X1200000Y0955000D03*
X1192500Y0955000D03*
X1180000Y0952500D03*
X1167500Y0957500D03*
X1170000Y0962500D03*
X1170000Y0972500D03*
X1160000Y0980000D03*
X1137500Y0990000D03*
X1100000Y0972500D03*
X1090000Y0980000D03*
X1050000Y0980000D03*
X1020000Y0967500D03*
X1010000Y0972500D03*
X1020000Y0957500D03*
X1020000Y0947500D03*
X1025000Y0930000D03*
X1029500Y0922500D03*
X1046500Y0918500D03*
X1050000Y0925000D03*
X1070000Y0925000D03*
X1080000Y0925000D03*
X1087500Y0915000D03*
X1107500Y0925000D03*
X1112500Y0915000D03*
X1132500Y0925000D03*
X1150000Y0920000D03*
X1172500Y0920000D03*
X1187500Y0915000D03*
X1192500Y0905000D03*
X1212500Y0915000D03*
X1207500Y0925000D03*
X1187500Y0945000D03*
X1150000Y0945000D03*
X1127500Y0945000D03*
X1140000Y0935000D03*
X1140000Y0955000D03*
X1147500Y0957500D03*
X1075000Y0950000D03*
X1075000Y0900000D03*
X1100000Y0897500D03*
X1107500Y0897500D03*
X1155000Y0872500D03*
X1172500Y0872500D03*
X1215000Y0872500D03*
X1125000Y0867500D03*
X1110000Y0815000D03*
X1222500Y0965000D03*
X1215000Y0990000D03*
X1205000Y0990000D03*
D146*
X1265000Y0970000D03*
X1265000Y0940000D03*
D72*
X1390000Y0955000D03*
D15*
X1325000Y0910000D03*
X1277500Y0920000D03*
X1400000Y0812500D03*
D151*
X1200000Y0865000D03*
M02*
