%
T01C0.014500
X36750Y69750
X37250Y69250
X34750Y70000
X33250Y71750
X34750Y74750
X39250Y74750
X39500Y74250
X40000Y72000
X40500Y70250
X40000Y69250
X40500Y68250
X42000Y70000
X44000Y68500
X44500Y68500
X44500Y66750
X44000Y66750
X44250Y65250
X44250Y63750
X46500Y63750
X47250Y63500
X48250Y64250
X48750Y64500
X47250Y65250
X46500Y65250
X46750Y66750
X46250Y66750
X46250Y68500
X46750Y68500
X48250Y69750
X48750Y68250
X49000Y72750
X48100Y73900
X47750Y73500
X47500Y75250
X49250Y75000
X47500Y77500
X43250Y75000
X42500Y73250
X42000Y64500
X40250Y62800
X40000Y62500
X39250Y62800
X39000Y62250
X39250Y61750
X38800Y61450
X39250Y60750
X38500Y62750
X37250Y63750
X38100Y61150
X34750Y56750
X34500Y56750
X34250Y56750
X34000Y56750
X33750Y56750
X33750Y56250
X34000Y56250
X34250Y56250
X34500Y56250
X34750Y56250
X34750Y56000
X34750Y55750
X34750Y55500
X34750Y55250
X34750Y55000
X34500Y54750
X34250Y54750
X34000Y54750
X33750Y54750
X33750Y55000
X33750Y55250
X33750Y55500
X33750Y55750
X33750Y56000
X33750Y54250
X34000Y54250
X34250Y54250
X34500Y54250
X34750Y54250
X30700Y55750
X30500Y56750
X29750Y56750
X29500Y57250
X29000Y57500
X28000Y58500
X27500Y57500
X26000Y58000
X25500Y58150
X25000Y57900
X23500Y59100
X23900Y59500
X23250Y60750
X22750Y62250
X23250Y63250
X23500Y64250
X23750Y64750
X24250Y64750
X24750Y64000
X25250Y63750
X24750Y61750
X25250Y61500
X27000Y63250
X27000Y65250
X27250Y66750
X26750Y66750
X25750Y66250
X25650Y68200
X26750Y68500
X27250Y68500
X28250Y69250
X28500Y70050
X29250Y70950
X30000Y70000
X29500Y68250
X28500Y65750
X29950Y63450
X30250Y62250
X30750Y62000
X30800Y61500
X31750Y63000
X32750Y62750
X33250Y63000
X33050Y61050
X33500Y61000
X33250Y65665
X32750Y66500
X31750Y66500
X29850Y72550
X29500Y73000
X26500Y71750
X25000Y73500
X24150Y72700
X24100Y71600
X23250Y70000
X22750Y70000
X22750Y68250
X23250Y68250
X23000Y66750
X22600Y66250
X22250Y65750
X21500Y64500
X20750Y62500
X19300Y63100
X19000Y62800
X18500Y62500
X18000Y63800
X17850Y62900
X17450Y62900
X17050Y62900
X16650Y62900
X16250Y62900
X15900Y61950
X15500Y60750
X15850Y60000
X14750Y59750
X14750Y58250
X13900Y57700
X13550Y57400
X13550Y58050
X13600Y58650
X13600Y59050
X13600Y59450
X13600Y60050
X13600Y60450
X13650Y60850
X13950Y61350
X13600Y61650
X13250Y61500
X12900Y61650
X12750Y62000
X12500Y62300
X11000Y63500
X10500Y63150
X10050Y63150
X9550Y62250
X9850Y62000
X9500Y61750
X9000Y61500
X9250Y61000
X9250Y60000
X9250Y59500
X9250Y58500
X9250Y57500
X10000Y57750
X10250Y58250
X10250Y60750
X10750Y62000
X10000Y64250
X9500Y65000
X10000Y65750
X10700Y66000
X10400Y66400
X11000Y66750
X11750Y66750
X12100Y66500
X12250Y66150
X12500Y65750
X12650Y65300
X12950Y64700
X12450Y64250
X12500Y66750
X12000Y68250
X11500Y68250
X10500Y69000
X11000Y69750
X11500Y70000
X12000Y70000
X12800Y71650
X13000Y72750
X14000Y73500
X14000Y74000
X14900Y75050
X14000Y76500
X12600Y75050
X11250Y76000
X10750Y76500
X10250Y75750
X9800Y74500
X10750Y74250
X9000Y72500
X8700Y74250
X10150Y77750
X9850Y78500
X9500Y79250
X10500Y81000
X10150Y82000
X9850Y82300
X9500Y82600
X14500Y82600
X16750Y82300
X18250Y81000
X19000Y82000
X18500Y76000
X19350Y75050
X18500Y74000
X18500Y73500
X17500Y72750
X17000Y73500
X16250Y74000
X17150Y75000
X15250Y72750
X15050Y71650
X14250Y70000
X13750Y70000
X13750Y68250
X14250Y68250
X14750Y66750
X14750Y66000
X16000Y68250
X16500Y68250
X17000Y66750
X18250Y68250
X18750Y68250
X18500Y66750
X19250Y66750
X19250Y66000
X19350Y65600
X19000Y64000
X18500Y61000
X20000Y60250
X21200Y60650
X21750Y59750
X22250Y58750
X19250Y53500
X18650Y55650
X18750Y56100
X18450Y56500
X18000Y58750
X15750Y55000
X14750Y55250
X13750Y56050
X13550Y56450
X14000Y56750
X14750Y56750
X15750Y51750
X14500Y42000
X14300Y41400
X14250Y41000
X14000Y40500
X14850Y38800
X14600Y38400
X13000Y34000
X14000Y31000
X14250Y30500
X13750Y30300
X13450Y30650
X10750Y30300
X9500Y30650
X9250Y34000
X11250Y40500
X11250Y41000
X10250Y41500
X10000Y42000
X18400Y31250
X18750Y30500
X18950Y30800
X20350Y30600
X20750Y29500
X22000Y28500
X22750Y28500
X22500Y27700
X22750Y27050
X23750Y27500
X24350Y27150
X23750Y26250
X24250Y24000
X26000Y24000
X26000Y21750
X22550Y19750
X22250Y18750
X22750Y17750
X22750Y17250
X22750Y16500
X21750Y15750
X20000Y16750
X19750Y17250
X19050Y16500
X18750Y16250
X18300Y16250
X19500Y18250
X19250Y19250
X16250Y15750
X16250Y14750
X16000Y13750
X15750Y12750
X15500Y11750
X15500Y10750
X15250Y9750
X8000Y13750
X8000Y14750
X7000Y12750
X6750Y11750
X7500Y10750
X7000Y9750
X6500Y9500
X6500Y20750
X6500Y21750
X6500Y22750
X6600Y23250
X7250Y23750
X6500Y24750
X6550Y25250
X6720Y25750
X7330Y26750
X17500Y26250
X18000Y26750
X18400Y28500
X17500Y28500
X20350Y32500
X20750Y33000
X22250Y32500
X22750Y33700
X22250Y34100
X23350Y33400
X23800Y33100
X24100Y32800
X24500Y32500
X25000Y32200
X24500Y31150
X24000Y30000
X23800Y31150
X23350Y31150
X22750Y30750
X22250Y30250
X24750Y33700
X25250Y33400
X25750Y33100
X26250Y32800
X26750Y32500
X27250Y32200
X28000Y31900
X28000Y33500
X26100Y31900
X26100Y31000
X25000Y29750
X26500Y27750
X27250Y28250
X29750Y27250
X31000Y26250
X33500Y31250
X35000Y30250
X35500Y29750
X36500Y30000
X37500Y29250
X37500Y27500
X34750Y23000
X34300Y22250
X34750Y21250
X36250Y21500
X36500Y20750
X37000Y20000
X37000Y19000
X37000Y17750
X36500Y17250
X35750Y15750
X34000Y13750
X33750Y12750
X29750Y14250
X28750Y12750
X29250Y11250
X29250Y8750
X37500Y21500
X38000Y20750
X34300Y24000
X34500Y33500
X32000Y35750
X29250Y35750
X24250Y38750
X23750Y38250
X29750Y53750
X33250Y47000
X33250Y46500
X33250Y46000
X39000Y44500
X40000Y44000
X41750Y46000
X42200Y46300
X42700Y46550
X46000Y48500
X48250Y51000
X48250Y52250
X46000Y52100
X43300Y53400
X42500Y53750
X42250Y54100
X40750Y54100
X40000Y53250
X40500Y52750
X42500Y52100
X49000Y48500
X40000Y38000
X39250Y38750
X49000Y20000
X47000Y16750
X47000Y11500
X42800Y17350
X42250Y16250
X41750Y15000
X17000Y65000
X16500Y65000
X19650Y68350
X20500Y68250
X21000Y68250
X20750Y66750
X21500Y66750
X22250Y66750
X23750Y66750
X21000Y70000
X20500Y70000
X19550Y71650
X19750Y72750
X20750Y73500
X20750Y74000
X21650Y75050
X22750Y73000
X21800Y71650
X23900Y75050
X24000Y74300
X18750Y70000
X18250Y70000
X17300Y71650
X16500Y70000
X16000Y70000
X10400Y67500
X10000Y68250
X9500Y66750
X8500Y65500
X8500Y64500
X7750Y61000
X8100Y60550
X7750Y58250
X8050Y57850
X36750Y70750
X25500Y91500
X87500Y69750
X88000Y69250
X85500Y70000
X84000Y71750
X85500Y74750
X90000Y74750
X90250Y74250
X90750Y72000
X91250Y70250
X90750Y69250
X91250Y68250
X92750Y70000
X94750Y68500
X95250Y68500
X95250Y66750
X94750Y66750
X95000Y65250
X95000Y63750
X97250Y63750
X98000Y63500
X99000Y64250
X99500Y64500
X98000Y65250
X97250Y65250
X97500Y66750
X97000Y66750
X97000Y68500
X97500Y68500
X99000Y69750
X99500Y68250
X99750Y72750
X98850Y73900
X98500Y73500
X98250Y75250
X100000Y75000
X98250Y77500
X94000Y75000
X93250Y73250
X92750Y64500
X91000Y62800
X90750Y62500
X90000Y62800
X89750Y62250
X90000Y61750
X89550Y61450
X90000Y60750
X89250Y62750
X88000Y63750
X88850Y61150
X85500Y56750
X85250Y56750
X85000Y56750
X84750Y56750
X84500Y56750
X84500Y56250
X84750Y56250
X85000Y56250
X85250Y56250
X85500Y56250
X85500Y56000
X85500Y55750
X85500Y55500
X85500Y55250
X85500Y55000
X85250Y54750
X85000Y54750
X84750Y54750
X84500Y54750
X84500Y55000
X84500Y55250
X84500Y55500
X84500Y55750
X84500Y56000
X84500Y54250
X84750Y54250
X85000Y54250
X85250Y54250
X85500Y54250
X81450Y55750
X81250Y56750
X80500Y56750
X80250Y57250
X79750Y57500
X78750Y58500
X78250Y57500
X76750Y58000
X76250Y58150
X75750Y57900
X74250Y59100
X74650Y59500
X74000Y60750
X73500Y62250
X74000Y63250
X74250Y64250
X74500Y64750
X75000Y64750
X75500Y64000
X76000Y63750
X75500Y61750
X76000Y61500
X77750Y63250
X77750Y65250
X78000Y66750
X77500Y66750
X76500Y66250
X76400Y68200
X77500Y68500
X78000Y68500
X79000Y69250
X79250Y70050
X80000Y70950
X80750Y70000
X80250Y68250
X79250Y65750
X80700Y63450
X81000Y62250
X81500Y62000
X81550Y61500
X82500Y63000
X83500Y62750
X84000Y63000
X83800Y61050
X84250Y61000
X84000Y65665
X83500Y66500
X82500Y66500
X80600Y72550
X80250Y73000
X77250Y71750
X75750Y73500
X74900Y72700
X74850Y71600
X74000Y70000
X73500Y70000
X73500Y68250
X74000Y68250
X73750Y66750
X73350Y66250
X73000Y65750
X72250Y64500
X71500Y62500
X70050Y63100
X69750Y62800
X69250Y62500
X68750Y63800
X68600Y62900
X68200Y62900
X67800Y62900
X67400Y62900
X67000Y62900
X66650Y61950
X66250Y60750
X66600Y60000
X65500Y59750
X65500Y58250
X64650Y57700
X64300Y57400
X64300Y58050
X64350Y58650
X64350Y59050
X64350Y59450
X64350Y60050
X64350Y60450
X64400Y60850
X64700Y61350
X64350Y61650
X64000Y61500
X63650Y61650
X63500Y62000
X63250Y62300
X61750Y63500
X61250Y63150
X60800Y63150
X60300Y62250
X60600Y62000
X60250Y61750
X59750Y61500
X60000Y61000
X60000Y60000
X60000Y59500
X60000Y58500
X60000Y57500
X60750Y57750
X61000Y58250
X61000Y60750
X61500Y62000
X60750Y64250
X60250Y65000
X60750Y65750
X61450Y66000
X61150Y66400
X61750Y66750
X62500Y66750
X62850Y66500
X63000Y66150
X63250Y65750
X63400Y65300
X63700Y64700
X63200Y64250
X63250Y66750
X62750Y68250
X62250Y68250
X61250Y69000
X61750Y69750
X62250Y70000
X62750Y70000
X63550Y71650
X63750Y72750
X64750Y73500
X64750Y74000
X65650Y75050
X64750Y76500
X63350Y75050
X62000Y76000
X61500Y76500
X61000Y75750
X60550Y74500
X61500Y74250
X59750Y72500
X59450Y74250
X60900Y77750
X60600Y78500
X60250Y79250
X61250Y81000
X60900Y82000
X60600Y82300
X60250Y82600
X65250Y82600
X67500Y82300
X69000Y81000
X69750Y82000
X69250Y76000
X70100Y75050
X69250Y74000
X69250Y73500
X68250Y72750
X67750Y73500
X67000Y74000
X67900Y75000
X66000Y72750
X65800Y71650
X65000Y70000
X64500Y70000
X64500Y68250
X65000Y68250
X65500Y66750
X65500Y66000
X66750Y68250
X67250Y68250
X67750Y66750
X69000Y68250
X69500Y68250
X69250Y66750
X70000Y66750
X70000Y66000
X70100Y65600
X69750Y64000
X69250Y61000
X70750Y60250
X71950Y60650
X72500Y59750
X73000Y58750
X70000Y53500
X69400Y55650
X69500Y56100
X69200Y56500
X68750Y58750
X66500Y55000
X65500Y55250
X64500Y56050
X64300Y56450
X64750Y56750
X65500Y56750
X66500Y51750
X65250Y42000
X65050Y41400
X65000Y41000
X64750Y40500
X65600Y38800
X65350Y38400
X63750Y34000
X64750Y31000
X65000Y30500
X64500Y30300
X64200Y30650
X61500Y30300
X60250Y30650
X60000Y34000
X62000Y40500
X62000Y41000
X61000Y41500
X60750Y42000
X69150Y31250
X69500Y30500
X69700Y30800
X71100Y30600
X71500Y29500
X72750Y28500
X73500Y28500
X73250Y27700
X73500Y27050
X74500Y27500
X75100Y27150
X74500Y26250
X75000Y24000
X76750Y24000
X76750Y21750
X73300Y19750
X73000Y18750
X73500Y17750
X73500Y17250
X73500Y16500
X72500Y15750
X70750Y16750
X70500Y17250
X69800Y16500
X69500Y16250
X69050Y16250
X70250Y18250
X70000Y19250
X67000Y15750
X67000Y14750
X66750Y13750
X66500Y12750
X66250Y11750
X66250Y10750
X66000Y9750
X58750Y13750
X58750Y14750
X57750Y12750
X57500Y11750
X58250Y10750
X57750Y9750
X57250Y9500
X57250Y20750
X57250Y21750
X57250Y22750
X57350Y23250
X58000Y23750
X57250Y24750
X57300Y25250
X57470Y25750
X58080Y26750
X68250Y26250
X68750Y26750
X69150Y28500
X68250Y28500
X71100Y32500
X71500Y33000
X73000Y32500
X73500Y33700
X73000Y34100
X74100Y33400
X74550Y33100
X74850Y32800
X75250Y32500
X75750Y32200
X75250Y31150
X74750Y30000
X74550Y31150
X74100Y31150
X73500Y30750
X73000Y30250
X75500Y33700
X76000Y33400
X76500Y33100
X77000Y32800
X77500Y32500
X78000Y32200
X78750Y31900
X78750Y33500
X76850Y31900
X76850Y31000
X75750Y29750
X77250Y27750
X78000Y28250
X80500Y27250
X81750Y26250
X84250Y31250
X85750Y30250
X86250Y29750
X87250Y30000
X88250Y29250
X88250Y27500
X85500Y23000
X85050Y22250
X85500Y21250
X87000Y21500
X87250Y20750
X87750Y20000
X87750Y19000
X87750Y17750
X87250Y17250
X86500Y15750
X84750Y13750
X84500Y12750
X80500Y14250
X79500Y12750
X80000Y11250
X80000Y8750
X88250Y21500
X88750Y20750
X85050Y24000
X85250Y33500
X82750Y35750
X80000Y35750
X75000Y38750
X74500Y38250
X80500Y53750
X84000Y47000
X84000Y46500
X84000Y46000
X89750Y44500
X90750Y44000
X92500Y46000
X92950Y46300
X93450Y46550
X96750Y48500
X99000Y51000
X99000Y52250
X96750Y52100
X94050Y53400
X93250Y53750
X93000Y54100
X91500Y54100
X90750Y53250
X91250Y52750
X93250Y52100
X99750Y48500
X90750Y38000
X90000Y38750
X99750Y20000
X97750Y16750
X97750Y11500
X93550Y17350
X93000Y16250
X92500Y15000
X67750Y65000
X67250Y65000
X70400Y68350
X71250Y68250
X71750Y68250
X71500Y66750
X72250Y66750
X73000Y66750
X74500Y66750
X71750Y70000
X71250Y70000
X70300Y71650
X70500Y72750
X71500Y73500
X71500Y74000
X72400Y75050
X73500Y73000
X72550Y71650
X74650Y75050
X74750Y74300
X69500Y70000
X69000Y70000
X68050Y71650
X67250Y70000
X66750Y70000
X61150Y67500
X60750Y68250
X60250Y66750
X59250Y65500
X59250Y64500
X58500Y61000
X58850Y60550
X58500Y58250
X58800Y57850
X87500Y70750
X76250Y91500
X138250Y69750
X138750Y69250
X136250Y70000
X134750Y71750
X136250Y74750
X140750Y74750
X141000Y74250
X141500Y72000
X142000Y70250
X141500Y69250
X142000Y68250
X143500Y70000
X145500Y68500
X146000Y68500
X146000Y66750
X145500Y66750
X145750Y65250
X145750Y63750
X148000Y63750
X148750Y63500
X149750Y64250
X150250Y64500
X148750Y65250
X148000Y65250
X148250Y66750
X147750Y66750
X147750Y68500
X148250Y68500
X149750Y69750
X150250Y68250
X150500Y72750
X149600Y73900
X149250Y73500
X149000Y75250
X150750Y75000
X149000Y77500
X144750Y75000
X144000Y73250
X143500Y64500
X141750Y62800
X141500Y62500
X140750Y62800
X140500Y62250
X140750Y61750
X140300Y61450
X140750Y60750
X140000Y62750
X138750Y63750
X139600Y61150
X136250Y56750
X136000Y56750
X135750Y56750
X135500Y56750
X135250Y56750
X135250Y56250
X135500Y56250
X135750Y56250
X136000Y56250
X136250Y56250
X136250Y56000
X136250Y55750
X136250Y55500
X136250Y55250
X136250Y55000
X136000Y54750
X135750Y54750
X135500Y54750
X135250Y54750
X135250Y55000
X135250Y55250
X135250Y55500
X135250Y55750
X135250Y56000
X135250Y54250
X135500Y54250
X135750Y54250
X136000Y54250
X136250Y54250
X132200Y55750
X132000Y56750
X131250Y56750
X131000Y57250
X130500Y57500
X129500Y58500
X129000Y57500
X127500Y58000
X127000Y58150
X126500Y57900
X125000Y59100
X125400Y59500
X124750Y60750
X124250Y62250
X124750Y63250
X125000Y64250
X125250Y64750
X125750Y64750
X126250Y64000
X126750Y63750
X126250Y61750
X126750Y61500
X128500Y63250
X128500Y65250
X128750Y66750
X128250Y66750
X127250Y66250
X127150Y68200
X128250Y68500
X128750Y68500
X129750Y69250
X130000Y70050
X130750Y70950
X131500Y70000
X131000Y68250
X130000Y65750
X131450Y63450
X131750Y62250
X132250Y62000
X132300Y61500
X133250Y63000
X134250Y62750
X134750Y63000
X134550Y61050
X135000Y61000
X134750Y65665
X134250Y66500
X133250Y66500
X131350Y72550
X131000Y73000
X128000Y71750
X126500Y73500
X125650Y72700
X125600Y71600
X124750Y70000
X124250Y70000
X124250Y68250
X124750Y68250
X124500Y66750
X124100Y66250
X123750Y65750
X123000Y64500
X122250Y62500
X120800Y63100
X120500Y62800
X120000Y62500
X119500Y63800
X119350Y62900
X118950Y62900
X118550Y62900
X118150Y62900
X117750Y62900
X117400Y61950
X117000Y60750
X117350Y60000
X116250Y59750
X116250Y58250
X115400Y57700
X115050Y57400
X115050Y58050
X115100Y58650
X115100Y59050
X115100Y59450
X115100Y60050
X115100Y60450
X115150Y60850
X115450Y61350
X115100Y61650
X114750Y61500
X114400Y61650
X114250Y62000
X114000Y62300
X112500Y63500
X112000Y63150
X111550Y63150
X111050Y62250
X111350Y62000
X111000Y61750
X110500Y61500
X110750Y61000
X110750Y60000
X110750Y59500
X110750Y58500
X110750Y57500
X111500Y57750
X111750Y58250
X111750Y60750
X112250Y62000
X111500Y64250
X111000Y65000
X111500Y65750
X112200Y66000
X111900Y66400
X112500Y66750
X113250Y66750
X113600Y66500
X113750Y66150
X114000Y65750
X114150Y65300
X114450Y64700
X113950Y64250
X114000Y66750
X113500Y68250
X113000Y68250
X112000Y69000
X112500Y69750
X113000Y70000
X113500Y70000
X114300Y71650
X114500Y72750
X115500Y73500
X115500Y74000
X116400Y75050
X115500Y76500
X114100Y75050
X112750Y76000
X112250Y76500
X111750Y75750
X111300Y74500
X112250Y74250
X110500Y72500
X110200Y74250
X111650Y77750
X111350Y78500
X111000Y79250
X112000Y81000
X111650Y82000
X111350Y82300
X111000Y82600
X116000Y82600
X118250Y82300
X119750Y81000
X120500Y82000
X120000Y76000
X120850Y75050
X120000Y74000
X120000Y73500
X119000Y72750
X118500Y73500
X117750Y74000
X118650Y75000
X116750Y72750
X116550Y71650
X115750Y70000
X115250Y70000
X115250Y68250
X115750Y68250
X116250Y66750
X116250Y66000
X117500Y68250
X118000Y68250
X118500Y66750
X119750Y68250
X120250Y68250
X120000Y66750
X120750Y66750
X120750Y66000
X120850Y65600
X120500Y64000
X120000Y61000
X121500Y60250
X122700Y60650
X123250Y59750
X123750Y58750
X120750Y53500
X120150Y55650
X120250Y56100
X119950Y56500
X119500Y58750
X117250Y55000
X116250Y55250
X115250Y56050
X115050Y56450
X115500Y56750
X116250Y56750
X117250Y51750
X116000Y42000
X115800Y41400
X115750Y41000
X115500Y40500
X116350Y38800
X116100Y38400
X114500Y34000
X115500Y31000
X115750Y30500
X115250Y30300
X114950Y30650
X112250Y30300
X111000Y30650
X110750Y34000
X112750Y40500
X112750Y41000
X111750Y41500
X111500Y42000
X119900Y31250
X120250Y30500
X120450Y30800
X121850Y30600
X122250Y29500
X123500Y28500
X124250Y28500
X124000Y27700
X124250Y27050
X125250Y27500
X125850Y27150
X125250Y26250
X125750Y24000
X127500Y24000
X127500Y21750
X124050Y19750
X123750Y18750
X124250Y17750
X124250Y17250
X124250Y16500
X123250Y15750
X121500Y16750
X121250Y17250
X120550Y16500
X120250Y16250
X119800Y16250
X121000Y18250
X120750Y19250
X117750Y15750
X117750Y14750
X117500Y13750
X117250Y12750
X117000Y11750
X117000Y10750
X116750Y9750
X109500Y13750
X109500Y14750
X108500Y12750
X108250Y11750
X109000Y10750
X108500Y9750
X108000Y9500
X108000Y20750
X108000Y21750
X108000Y22750
X108100Y23250
X108750Y23750
X108000Y24750
X108050Y25250
X108220Y25750
X108830Y26750
X119000Y26250
X119500Y26750
X119900Y28500
X119000Y28500
X121850Y32500
X122250Y33000
X123750Y32500
X124250Y33700
X123750Y34100
X124850Y33400
X125300Y33100
X125600Y32800
X126000Y32500
X126500Y32200
X126000Y31150
X125500Y30000
X125300Y31150
X124850Y31150
X124250Y30750
X123750Y30250
X126250Y33700
X126750Y33400
X127250Y33100
X127750Y32800
X128250Y32500
X128750Y32200
X129500Y31900
X129500Y33500
X127600Y31900
X127600Y31000
X126500Y29750
X128000Y27750
X128750Y28250
X131250Y27250
X132500Y26250
X135000Y31250
X136500Y30250
X137000Y29750
X138000Y30000
X139000Y29250
X139000Y27500
X136250Y23000
X135800Y22250
X136250Y21250
X137750Y21500
X138000Y20750
X138500Y20000
X138500Y19000
X138500Y17750
X138000Y17250
X137250Y15750
X135500Y13750
X135250Y12750
X131250Y14250
X130250Y12750
X130750Y11250
X130750Y8750
X139000Y21500
X139500Y20750
X135800Y24000
X136000Y33500
X133500Y35750
X130750Y35750
X125750Y38750
X125250Y38250
X131250Y53750
X134750Y47000
X134750Y46500
X134750Y46000
X140500Y44500
X141500Y44000
X143250Y46000
X143700Y46300
X144200Y46550
X147500Y48500
X149750Y51000
X149750Y52250
X147500Y52100
X144800Y53400
X144000Y53750
X143750Y54100
X142250Y54100
X141500Y53250
X142000Y52750
X144000Y52100
X150500Y48500
X141500Y38000
X140750Y38750
X150500Y20000
X148500Y16750
X148500Y11500
X144300Y17350
X143750Y16250
X143250Y15000
X118500Y65000
X118000Y65000
X121150Y68350
X122000Y68250
X122500Y68250
X122250Y66750
X123000Y66750
X123750Y66750
X125250Y66750
X122500Y70000
X122000Y70000
X121050Y71650
X121250Y72750
X122250Y73500
X122250Y74000
X123150Y75050
X124250Y73000
X123300Y71650
X125400Y75050
X125500Y74300
X120250Y70000
X119750Y70000
X118800Y71650
X118000Y70000
X117500Y70000
X111900Y67500
X111500Y68250
X111000Y66750
X110000Y65500
X110000Y64500
X109250Y61000
X109600Y60550
X109250Y58250
X109550Y57850
X138250Y70750
X127000Y91500
T02C0.023800
X10750Y75500
X13000Y75500
X15250Y75500
X17500Y75500
X19750Y75500
X22000Y75500
X25750Y75500
X28500Y56100
X24500Y52250
X24500Y49665
X20000Y52750
X20000Y56100
X20000Y42250
X23250Y42250
X36000Y42250
X35750Y31000
X46750Y49500
X50000Y62000
X32000Y99000
X32000Y102000
X27000Y92250
X22750Y92250
X21000Y92250
X18000Y91750
X16250Y94750
X15500Y94750
X13000Y95000
X14250Y96500
X13500Y97500
X12500Y97500
X10500Y97500
X10150Y96850
X8450Y97250
X8000Y98000
X7500Y99750
X7500Y100750
X7500Y101750
X6500Y102250
X10500Y103000
X14500Y103000
X15500Y102250
X19500Y100500
X20250Y100750
X22250Y100750
X22500Y101250
X23500Y100250
X24750Y100500
X25500Y100500
X26750Y100500
X26750Y99500
X24250Y99500
X20500Y99500
X18250Y99500
X19500Y98500
X18750Y97500
X20500Y97000
X22750Y97000
X24250Y96500
X24750Y95500
X26750Y96500
X26250Y97500
X16750Y96500
X16250Y97500
X13000Y100000
X21500Y103000
X22500Y102250
X19250Y104000
X26000Y104000
X27000Y104000
X27750Y101500
X16500Y86500
X61500Y75500
X63750Y75500
X66000Y75500
X68250Y75500
X70500Y75500
X72750Y75500
X76500Y75500
X79250Y56100
X75250Y52250
X75250Y49665
X70750Y52750
X70750Y56100
X70750Y42250
X74000Y42250
X86750Y42250
X86500Y31000
X97500Y49500
X100750Y62000
X82750Y99000
X82750Y102000
X77750Y92250
X73500Y92250
X71750Y92250
X68750Y91750
X67000Y94750
X66250Y94750
X63750Y95000
X65000Y96500
X64250Y97500
X63250Y97500
X61250Y97500
X60900Y96850
X59200Y97250
X58750Y98000
X58250Y99750
X58250Y100750
X58250Y101750
X57250Y102250
X61250Y103000
X65250Y103000
X66250Y102250
X70250Y100500
X71000Y100750
X73000Y100750
X73250Y101250
X74250Y100250
X75500Y100500
X76250Y100500
X77500Y100500
X77500Y99500
X75000Y99500
X71250Y99500
X69000Y99500
X70250Y98500
X69500Y97500
X71250Y97000
X73500Y97000
X75000Y96500
X75500Y95500
X77500Y96500
X77000Y97500
X67500Y96500
X67000Y97500
X63750Y100000
X72250Y103000
X73250Y102250
X70000Y104000
X76750Y104000
X77750Y104000
X78500Y101500
X67250Y86500
X112250Y75500
X114500Y75500
X116750Y75500
X119000Y75500
X121250Y75500
X123500Y75500
X127250Y75500
X130000Y56100
X126000Y52250
X126000Y49665
X121500Y52750
X121500Y56100
X121500Y42250
X124750Y42250
X137500Y42250
X137250Y31000
X148250Y49500
X151500Y62000
X133500Y99000
X133500Y102000
X128500Y92250
X124250Y92250
X122500Y92250
X119500Y91750
X117750Y94750
X117000Y94750
X114500Y95000
X115750Y96500
X115000Y97500
X114000Y97500
X112000Y97500
X111650Y96850
X109950Y97250
X109500Y98000
X109000Y99750
X109000Y100750
X109000Y101750
X108000Y102250
X112000Y103000
X116000Y103000
X117000Y102250
X121000Y100500
X121750Y100750
X123750Y100750
X124000Y101250
X125000Y100250
X126250Y100500
X127000Y100500
X128250Y100500
X128250Y99500
X125750Y99500
X122000Y99500
X119750Y99500
X121000Y98500
X120250Y97500
X122000Y97000
X124250Y97000
X125750Y96500
X126250Y95500
X128250Y96500
X127750Y97500
X118250Y96500
X117750Y97500
X114500Y100000
X123000Y103000
X124000Y102250
X120750Y104000
X127500Y104000
X128500Y104000
X129250Y101500
X118000Y86500
T03C0.031750
X33250Y97000
X38000Y96000
X45500Y86250
X11500Y100500
X9500Y100500
X9500Y99500
X11500Y99500
X11500Y98500
X9500Y98500
X9500Y97500
X11500Y97500
X11500Y95500
X9500Y95500
X84000Y97000
X88750Y96000
X96250Y86250
X62250Y100500
X60250Y100500
X60250Y99500
X62250Y99500
X62250Y98500
X60250Y98500
X60250Y97500
X62250Y97500
X62250Y95500
X60250Y95500
X134750Y97000
X139500Y96000
X147000Y86250
X113000Y100500
X111000Y100500
X111000Y99500
X113000Y99500
X113000Y98500
X111000Y98500
X111000Y97500
X113000Y97500
X113000Y95500
X111000Y95500
T04C0.041350
X27000Y77500
X28000Y77500
X41750Y77500
X42750Y77500
X43750Y77500
X44750Y77500
X45750Y77500
X40500Y43000
X40500Y42000
X40500Y41000
X40500Y37000
X40500Y36000
X40500Y35000
X40500Y31000
X40500Y30000
X40500Y29000
X40500Y25000
X40500Y24000
X40500Y23000
X40500Y22000
X40500Y18000
X40500Y17000
X40500Y16000
X15500Y33500
X15500Y34500
X15500Y35500
X12250Y35500
X12250Y34500
X12250Y33500
X9950Y18750
X10050Y19750
X9950Y20750
X10050Y21750
X9950Y22750
X10050Y23750
X9950Y24750
X10050Y25750
X9950Y26750
X10050Y27750
X9950Y28750
X10050Y29750
X14050Y29750
X13950Y28750
X14050Y27750
X13950Y26750
X14050Y25750
X13950Y24750
X14050Y23750
X13950Y22750
X14050Y21750
X13950Y20750
X14050Y19750
X13950Y18750
X14050Y17750
X13950Y16750
X14050Y15750
X13950Y14750
X14050Y13750
X13950Y12750
X14050Y11750
X13950Y10750
X14050Y9750
X13950Y8750
X14050Y7750
X13950Y6750
X9950Y6750
X10050Y7750
X9950Y8750
X10050Y9750
X9950Y10750
X10050Y11750
X9950Y12750
X10050Y13750
X9950Y14750
X10050Y15750
X9950Y16750
X10050Y17750
X8700Y38250
X8700Y39250
X8700Y40250
X8700Y41250
X8700Y42250
X8700Y43250
X8700Y44250
X8700Y45250
X8700Y46250
X8700Y47250
X8700Y48250
X8700Y49250
X8700Y50250
X8700Y51250
X8700Y52250
X8700Y53250
X8700Y54250
X8700Y55250
X6500Y55250
X6500Y54250
X6500Y53250
X6500Y52250
X6500Y51250
X6500Y50250
X6500Y49250
X6500Y48250
X6500Y47250
X6500Y46250
X6500Y45250
X6500Y44250
X6500Y43250
X6500Y42250
X6500Y41250
X6500Y40250
X6500Y39250
X6500Y38250
X23250Y35350
X23250Y34350
X24250Y34350
X24250Y35350
X25250Y35350
X25250Y34350
X26250Y34350
X26250Y35350
X27250Y35350
X27250Y34350
X28250Y34350
X28250Y35350
X29000Y37200
X30000Y37300
X31000Y37200
X32000Y37300
X33000Y37200
X34000Y37300
X35000Y37200
X36000Y37300
X37000Y37200
X37000Y39350
X36000Y39250
X35000Y39350
X34000Y39250
X33000Y39350
X32000Y39250
X31000Y39350
X30000Y39250
X29000Y39350
X28050Y30750
X27950Y29750
X28050Y28750
X27950Y27750
X28050Y26750
X27950Y25750
X28050Y24750
X27950Y23750
X28050Y22750
X27950Y21750
X28050Y20750
X27950Y19750
X28050Y18750
X27950Y17750
X28050Y16750
X27950Y15750
X28050Y14750
X27950Y13750
X28050Y12750
X27950Y11750
X28050Y10750
X27950Y9750
X28050Y8750
X27950Y7750
X25950Y11750
X26050Y12750
X25950Y13750
X26050Y14750
X25950Y15750
X26050Y16750
X25950Y17750
X26050Y18750
X25950Y19750
X26050Y20750
X24050Y20750
X23950Y19750
X24050Y18750
X23950Y17750
X24050Y16750
X23950Y15750
X24050Y14750
X23950Y13750
X24050Y12750
X23950Y11750
X29250Y17750
X29250Y18750
X29250Y19750
X29250Y20750
X29250Y21750
X29250Y22750
X33050Y22750
X32950Y21750
X33050Y20750
X32950Y19750
X33050Y18750
X32950Y17750
X33050Y16750
X32950Y15750
X33050Y14750
X32950Y13750
X33050Y12750
X32950Y11750
X33050Y10750
X32950Y9750
X33050Y8750
X32950Y7750
X39300Y16000
X39200Y17000
X39300Y18000
X39200Y22000
X39300Y23000
X39200Y24000
X39300Y25000
X39300Y29000
X39200Y30000
X39300Y31000
X39300Y35000
X39200Y36000
X39300Y37000
X39300Y41000
X39200Y42000
X39300Y43000
X35750Y48500
X35750Y53000
X41500Y50500
X42500Y50500
X43500Y50500
X47750Y49750
X50250Y48000
X47750Y42500
X48000Y39250
X45500Y39250
X44000Y36000
X33050Y30750
X32950Y29750
X33050Y28750
X32950Y27750
X33050Y26750
X32950Y25750
X33050Y24750
X32950Y23750
X47750Y8000
X49000Y9500
X50250Y15000
X42250Y57750
X42250Y62000
X44000Y62000
X45000Y62000
X46000Y62000
X47750Y63000
X45750Y64750
X42750Y67500
X38750Y67500
X38771Y73750
X41750Y76300
X42750Y76200
X43750Y76300
X44750Y76200
X45750Y76300
X45400Y73750
X43150Y73772
X49500Y70500
X49500Y69500
X49500Y68500
X50500Y68500
X50500Y69500
X50500Y70500
X50500Y67500
X50500Y66500
X50500Y65500
X50500Y64500
X50500Y63500
X49500Y63500
X49500Y64500
X49500Y65500
X49500Y66500
X49500Y67500
X49000Y60000
X30500Y74750
X28070Y76250
X26930Y76250
X24750Y69000
X24500Y60750
X25500Y60750
X26500Y60750
X27500Y60750
X28500Y60750
X29500Y60750
X29500Y59750
X28500Y59750
X27500Y59750
X26500Y59750
X25500Y59750
X24500Y59750
X18931Y78691
X18384Y79809
X17293Y79809
X16206Y79809
X15116Y79809
X15659Y78691
X14569Y78691
X16750Y78691
X17840Y78691
X31500Y29750
X31500Y28750
X31500Y27750
X31500Y26750
X31500Y25750
X31500Y24750
X31500Y23750
X31500Y22750
X31500Y21750
X31500Y20750
X31500Y19750
X31500Y18750
X31500Y17750
X31500Y16750
X31500Y15750
X31500Y14750
X31500Y13750
X31500Y12750
X31500Y11750
X31500Y10750
X31500Y9750
X31500Y8750
X31500Y7750
X30500Y7750
X30500Y8750
X30500Y9750
X30500Y10750
X30500Y11750
X30500Y12750
X30500Y13750
X30500Y14750
X30500Y15750
X30500Y16750
X30500Y17750
X30500Y18750
X30500Y19750
X30500Y20750
X30500Y21750
X30500Y22750
X30500Y23750
X30500Y24750
X30500Y25750
X30500Y26750
X30500Y27750
X30500Y28750
X30500Y29750
X36000Y13750
X36500Y12750
X37000Y13750
X37500Y12750
X38000Y13750
X38500Y12750
X39000Y13750
X35500Y12750
X42750Y12750
X43250Y13750
X43750Y12750
X44250Y13750
X44750Y12750
X45250Y13750
X45750Y12750
X46250Y13750
X12500Y13750
X12500Y12750
X12500Y11750
X12500Y10750
X12500Y9750
X12500Y8750
X12500Y7750
X11500Y7750
X11500Y8750
X11500Y9750
X11500Y10750
X11500Y11750
X11500Y12750
X11500Y13750
X11500Y14750
X11500Y15750
X11500Y16750
X11500Y17750
X12500Y17750
X12500Y16750
X12500Y15750
X12500Y14750
X12500Y18750
X12500Y19750
X12500Y20750
X12500Y21750
X12500Y22750
X12500Y23750
X12500Y24750
X12500Y25750
X12500Y26750
X12500Y27750
X12500Y28750
X12500Y29750
X11500Y29750
X11500Y28750
X11500Y27750
X11500Y26750
X11500Y25750
X11500Y24750
X11500Y23750
X11500Y22750
X11500Y21750
X11500Y20750
X11500Y19750
X11500Y18750
X47061Y87461
X48439Y87461
X43750Y91000
X42750Y91000
X38500Y91000
X37500Y91000
X33250Y91000
X32250Y91000
X28000Y91000
X27000Y91000
X26000Y91000
X21500Y91000
X20500Y91000
X19500Y91000
X14500Y91000
X13500Y91000
X12500Y91000
X11500Y91000
X10500Y91000
X34561Y103539
X35939Y103539
X38811Y103539
X40189Y103539
X43061Y103539
X44439Y103539
X47311Y103539
X48689Y103539
X77750Y77500
X78750Y77500
X92500Y77500
X93500Y77500
X94500Y77500
X95500Y77500
X96500Y77500
X91250Y43000
X91250Y42000
X91250Y41000
X91250Y37000
X91250Y36000
X91250Y35000
X91250Y31000
X91250Y30000
X91250Y29000
X91250Y25000
X91250Y24000
X91250Y23000
X91250Y22000
X91250Y18000
X91250Y17000
X91250Y16000
X66250Y33500
X66250Y34500
X66250Y35500
X63000Y35500
X63000Y34500
X63000Y33500
X60700Y18750
X60800Y19750
X60700Y20750
X60800Y21750
X60700Y22750
X60800Y23750
X60700Y24750
X60800Y25750
X60700Y26750
X60800Y27750
X60700Y28750
X60800Y29750
X64800Y29750
X64700Y28750
X64800Y27750
X64700Y26750
X64800Y25750
X64700Y24750
X64800Y23750
X64700Y22750
X64800Y21750
X64700Y20750
X64800Y19750
X64700Y18750
X64800Y17750
X64700Y16750
X64800Y15750
X64700Y14750
X64800Y13750
X64700Y12750
X64800Y11750
X64700Y10750
X64800Y9750
X64700Y8750
X64800Y7750
X64700Y6750
X60700Y6750
X60800Y7750
X60700Y8750
X60800Y9750
X60700Y10750
X60800Y11750
X60700Y12750
X60800Y13750
X60700Y14750
X60800Y15750
X60700Y16750
X60800Y17750
X59450Y38250
X59450Y39250
X59450Y40250
X59450Y41250
X59450Y42250
X59450Y43250
X59450Y44250
X59450Y45250
X59450Y46250
X59450Y47250
X59450Y48250
X59450Y49250
X59450Y50250
X59450Y51250
X59450Y52250
X59450Y53250
X59450Y54250
X59450Y55250
X57250Y55250
X57250Y54250
X57250Y53250
X57250Y52250
X57250Y51250
X57250Y50250
X57250Y49250
X57250Y48250
X57250Y47250
X57250Y46250
X57250Y45250
X57250Y44250
X57250Y43250
X57250Y42250
X57250Y41250
X57250Y40250
X57250Y39250
X57250Y38250
X74000Y35350
X74000Y34350
X75000Y34350
X75000Y35350
X76000Y35350
X76000Y34350
X77000Y34350
X77000Y35350
X78000Y35350
X78000Y34350
X79000Y34350
X79000Y35350
X79750Y37200
X80750Y37300
X81750Y37200
X82750Y37300
X83750Y37200
X84750Y37300
X85750Y37200
X86750Y37300
X87750Y37200
X87750Y39350
X86750Y39250
X85750Y39350
X84750Y39250
X83750Y39350
X82750Y39250
X81750Y39350
X80750Y39250
X79750Y39350
X78800Y30750
X78700Y29750
X78800Y28750
X78700Y27750
X78800Y26750
X78700Y25750
X78800Y24750
X78700Y23750
X78800Y22750
X78700Y21750
X78800Y20750
X78700Y19750
X78800Y18750
X78700Y17750
X78800Y16750
X78700Y15750
X78800Y14750
X78700Y13750
X78800Y12750
X78700Y11750
X78800Y10750
X78700Y9750
X78800Y8750
X78700Y7750
X76700Y11750
X76800Y12750
X76700Y13750
X76800Y14750
X76700Y15750
X76800Y16750
X76700Y17750
X76800Y18750
X76700Y19750
X76800Y20750
X74800Y20750
X74700Y19750
X74800Y18750
X74700Y17750
X74800Y16750
X74700Y15750
X74800Y14750
X74700Y13750
X74800Y12750
X74700Y11750
X80000Y17750
X80000Y18750
X80000Y19750
X80000Y20750
X80000Y21750
X80000Y22750
X83800Y22750
X83700Y21750
X83800Y20750
X83700Y19750
X83800Y18750
X83700Y17750
X83800Y16750
X83700Y15750
X83800Y14750
X83700Y13750
X83800Y12750
X83700Y11750
X83800Y10750
X83700Y9750
X83800Y8750
X83700Y7750
X90050Y16000
X89950Y17000
X90050Y18000
X89950Y22000
X90050Y23000
X89950Y24000
X90050Y25000
X90050Y29000
X89950Y30000
X90050Y31000
X90050Y35000
X89950Y36000
X90050Y37000
X90050Y41000
X89950Y42000
X90050Y43000
X86500Y48500
X86500Y53000
X92250Y50500
X93250Y50500
X94250Y50500
X98500Y49750
X101000Y48000
X98500Y42500
X98750Y39250
X96250Y39250
X94750Y36000
X83800Y30750
X83700Y29750
X83800Y28750
X83700Y27750
X83800Y26750
X83700Y25750
X83800Y24750
X83700Y23750
X98500Y8000
X99750Y9500
X101000Y15000
X93000Y57750
X93000Y62000
X94750Y62000
X95750Y62000
X96750Y62000
X98500Y63000
X96500Y64750
X93500Y67500
X89500Y67500
X89521Y73750
X92500Y76300
X93500Y76200
X94500Y76300
X95500Y76200
X96500Y76300
X96150Y73750
X93900Y73772
X100250Y70500
X100250Y69500
X100250Y68500
X101250Y68500
X101250Y69500
X101250Y70500
X101250Y67500
X101250Y66500
X101250Y65500
X101250Y64500
X101250Y63500
X100250Y63500
X100250Y64500
X100250Y65500
X100250Y66500
X100250Y67500
X99750Y60000
X81250Y74750
X78820Y76250
X77680Y76250
X75500Y69000
X75250Y60750
X76250Y60750
X77250Y60750
X78250Y60750
X79250Y60750
X80250Y60750
X80250Y59750
X79250Y59750
X78250Y59750
X77250Y59750
X76250Y59750
X75250Y59750
X69681Y78691
X69134Y79809
X68043Y79809
X66956Y79809
X65866Y79809
X66409Y78691
X65319Y78691
X67500Y78691
X68590Y78691
X82250Y29750
X82250Y28750
X82250Y27750
X82250Y26750
X82250Y25750
X82250Y24750
X82250Y23750
X82250Y22750
X82250Y21750
X82250Y20750
X82250Y19750
X82250Y18750
X82250Y17750
X82250Y16750
X82250Y15750
X82250Y14750
X82250Y13750
X82250Y12750
X82250Y11750
X82250Y10750
X82250Y9750
X82250Y8750
X82250Y7750
X81250Y7750
X81250Y8750
X81250Y9750
X81250Y10750
X81250Y11750
X81250Y12750
X81250Y13750
X81250Y14750
X81250Y15750
X81250Y16750
X81250Y17750
X81250Y18750
X81250Y19750
X81250Y20750
X81250Y21750
X81250Y22750
X81250Y23750
X81250Y24750
X81250Y25750
X81250Y26750
X81250Y27750
X81250Y28750
X81250Y29750
X86750Y13750
X87250Y12750
X87750Y13750
X88250Y12750
X88750Y13750
X89250Y12750
X89750Y13750
X86250Y12750
X93500Y12750
X94000Y13750
X94500Y12750
X95000Y13750
X95500Y12750
X96000Y13750
X96500Y12750
X97000Y13750
X63250Y13750
X63250Y12750
X63250Y11750
X63250Y10750
X63250Y9750
X63250Y8750
X63250Y7750
X62250Y7750
X62250Y8750
X62250Y9750
X62250Y10750
X62250Y11750
X62250Y12750
X62250Y13750
X62250Y14750
X62250Y15750
X62250Y16750
X62250Y17750
X63250Y17750
X63250Y16750
X63250Y15750
X63250Y14750
X63250Y18750
X63250Y19750
X63250Y20750
X63250Y21750
X63250Y22750
X63250Y23750
X63250Y24750
X63250Y25750
X63250Y26750
X63250Y27750
X63250Y28750
X63250Y29750
X62250Y29750
X62250Y28750
X62250Y27750
X62250Y26750
X62250Y25750
X62250Y24750
X62250Y23750
X62250Y22750
X62250Y21750
X62250Y20750
X62250Y19750
X62250Y18750
X97811Y87461
X99189Y87461
X94500Y91000
X93500Y91000
X89250Y91000
X88250Y91000
X84000Y91000
X83000Y91000
X78750Y91000
X77750Y91000
X76750Y91000
X72250Y91000
X71250Y91000
X70250Y91000
X65250Y91000
X64250Y91000
X63250Y91000
X62250Y91000
X61250Y91000
X85311Y103539
X86689Y103539
X89561Y103539
X90939Y103539
X93811Y103539
X95189Y103539
X98061Y103539
X99439Y103539
X128500Y77500
X129500Y77500
X143250Y77500
X144250Y77500
X145250Y77500
X146250Y77500
X147250Y77500
X142000Y43000
X142000Y42000
X142000Y41000
X142000Y37000
X142000Y36000
X142000Y35000
X142000Y31000
X142000Y30000
X142000Y29000
X142000Y25000
X142000Y24000
X142000Y23000
X142000Y22000
X142000Y18000
X142000Y17000
X142000Y16000
X117000Y33500
X117000Y34500
X117000Y35500
X113750Y35500
X113750Y34500
X113750Y33500
X111450Y18750
X111550Y19750
X111450Y20750
X111550Y21750
X111450Y22750
X111550Y23750
X111450Y24750
X111550Y25750
X111450Y26750
X111550Y27750
X111450Y28750
X111550Y29750
X115550Y29750
X115450Y28750
X115550Y27750
X115450Y26750
X115550Y25750
X115450Y24750
X115550Y23750
X115450Y22750
X115550Y21750
X115450Y20750
X115550Y19750
X115450Y18750
X115550Y17750
X115450Y16750
X115550Y15750
X115450Y14750
X115550Y13750
X115450Y12750
X115550Y11750
X115450Y10750
X115550Y9750
X115450Y8750
X115550Y7750
X115450Y6750
X111450Y6750
X111550Y7750
X111450Y8750
X111550Y9750
X111450Y10750
X111550Y11750
X111450Y12750
X111550Y13750
X111450Y14750
X111550Y15750
X111450Y16750
X111550Y17750
X110200Y38250
X110200Y39250
X110200Y40250
X110200Y41250
X110200Y42250
X110200Y43250
X110200Y44250
X110200Y45250
X110200Y46250
X110200Y47250
X110200Y48250
X110200Y49250
X110200Y50250
X110200Y51250
X110200Y52250
X110200Y53250
X110200Y54250
X110200Y55250
X108000Y55250
X108000Y54250
X108000Y53250
X108000Y52250
X108000Y51250
X108000Y50250
X108000Y49250
X108000Y48250
X108000Y47250
X108000Y46250
X108000Y45250
X108000Y44250
X108000Y43250
X108000Y42250
X108000Y41250
X108000Y40250
X108000Y39250
X108000Y38250
X124750Y35350
X124750Y34350
X125750Y34350
X125750Y35350
X126750Y35350
X126750Y34350
X127750Y34350
X127750Y35350
X128750Y35350
X128750Y34350
X129750Y34350
X129750Y35350
X130500Y37200
X131500Y37300
X132500Y37200
X133500Y37300
X134500Y37200
X135500Y37300
X136500Y37200
X137500Y37300
X138500Y37200
X138500Y39350
X137500Y39250
X136500Y39350
X135500Y39250
X134500Y39350
X133500Y39250
X132500Y39350
X131500Y39250
X130500Y39350
X129550Y30750
X129450Y29750
X129550Y28750
X129450Y27750
X129550Y26750
X129450Y25750
X129550Y24750
X129450Y23750
X129550Y22750
X129450Y21750
X129550Y20750
X129450Y19750
X129550Y18750
X129450Y17750
X129550Y16750
X129450Y15750
X129550Y14750
X129450Y13750
X129550Y12750
X129450Y11750
X129550Y10750
X129450Y9750
X129550Y8750
X129450Y7750
X127450Y11750
X127550Y12750
X127450Y13750
X127550Y14750
X127450Y15750
X127550Y16750
X127450Y17750
X127550Y18750
X127450Y19750
X127550Y20750
X125550Y20750
X125450Y19750
X125550Y18750
X125450Y17750
X125550Y16750
X125450Y15750
X125550Y14750
X125450Y13750
X125550Y12750
X125450Y11750
X130750Y17750
X130750Y18750
X130750Y19750
X130750Y20750
X130750Y21750
X130750Y22750
X134550Y22750
X134450Y21750
X134550Y20750
X134450Y19750
X134550Y18750
X134450Y17750
X134550Y16750
X134450Y15750
X134550Y14750
X134450Y13750
X134550Y12750
X134450Y11750
X134550Y10750
X134450Y9750
X134550Y8750
X134450Y7750
X140800Y16000
X140700Y17000
X140800Y18000
X140700Y22000
X140800Y23000
X140700Y24000
X140800Y25000
X140800Y29000
X140700Y30000
X140800Y31000
X140800Y35000
X140700Y36000
X140800Y37000
X140800Y41000
X140700Y42000
X140800Y43000
X137250Y48500
X137250Y53000
X143000Y50500
X144000Y50500
X145000Y50500
X149250Y49750
X151750Y48000
X149250Y42500
X149500Y39250
X147000Y39250
X145500Y36000
X134550Y30750
X134450Y29750
X134550Y28750
X134450Y27750
X134550Y26750
X134450Y25750
X134550Y24750
X134450Y23750
X149250Y8000
X150500Y9500
X151750Y15000
X143750Y57750
X143750Y62000
X145500Y62000
X146500Y62000
X147500Y62000
X149250Y63000
X147250Y64750
X144250Y67500
X140250Y67500
X140271Y73750
X143250Y76300
X144250Y76200
X145250Y76300
X146250Y76200
X147250Y76300
X146900Y73750
X144650Y73772
X151000Y70500
X151000Y69500
X151000Y68500
X152000Y68500
X152000Y69500
X152000Y70500
X152000Y67500
X152000Y66500
X152000Y65500
X152000Y64500
X152000Y63500
X151000Y63500
X151000Y64500
X151000Y65500
X151000Y66500
X151000Y67500
X150500Y60000
X132000Y74750
X129570Y76250
X128430Y76250
X126250Y69000
X126000Y60750
X127000Y60750
X128000Y60750
X129000Y60750
X130000Y60750
X131000Y60750
X131000Y59750
X130000Y59750
X129000Y59750
X128000Y59750
X127000Y59750
X126000Y59750
X120431Y78691
X119884Y79809
X118793Y79809
X117706Y79809
X116616Y79809
X117159Y78691
X116069Y78691
X118250Y78691
X119340Y78691
X133000Y29750
X133000Y28750
X133000Y27750
X133000Y26750
X133000Y25750
X133000Y24750
X133000Y23750
X133000Y22750
X133000Y21750
X133000Y20750
X133000Y19750
X133000Y18750
X133000Y17750
X133000Y16750
X133000Y15750
X133000Y14750
X133000Y13750
X133000Y12750
X133000Y11750
X133000Y10750
X133000Y9750
X133000Y8750
X133000Y7750
X132000Y7750
X132000Y8750
X132000Y9750
X132000Y10750
X132000Y11750
X132000Y12750
X132000Y13750
X132000Y14750
X132000Y15750
X132000Y16750
X132000Y17750
X132000Y18750
X132000Y19750
X132000Y20750
X132000Y21750
X132000Y22750
X132000Y23750
X132000Y24750
X132000Y25750
X132000Y26750
X132000Y27750
X132000Y28750
X132000Y29750
X137500Y13750
X138000Y12750
X138500Y13750
X139000Y12750
X139500Y13750
X140000Y12750
X140500Y13750
X137000Y12750
X144250Y12750
X144750Y13750
X145250Y12750
X145750Y13750
X146250Y12750
X146750Y13750
X147250Y12750
X147750Y13750
X114000Y13750
X114000Y12750
X114000Y11750
X114000Y10750
X114000Y9750
X114000Y8750
X114000Y7750
X113000Y7750
X113000Y8750
X113000Y9750
X113000Y10750
X113000Y11750
X113000Y12750
X113000Y13750
X113000Y14750
X113000Y15750
X113000Y16750
X113000Y17750
X114000Y17750
X114000Y16750
X114000Y15750
X114000Y14750
X114000Y18750
X114000Y19750
X114000Y20750
X114000Y21750
X114000Y22750
X114000Y23750
X114000Y24750
X114000Y25750
X114000Y26750
X114000Y27750
X114000Y28750
X114000Y29750
X113000Y29750
X113000Y28750
X113000Y27750
X113000Y26750
X113000Y25750
X113000Y24750
X113000Y23750
X113000Y22750
X113000Y21750
X113000Y20750
X113000Y19750
X113000Y18750
X148561Y87461
X149939Y87461
X145250Y91000
X144250Y91000
X140000Y91000
X139000Y91000
X134750Y91000
X133750Y91000
X129500Y91000
X128500Y91000
X127500Y91000
X123000Y91000
X122000Y91000
X121000Y91000
X116000Y91000
X115000Y91000
X114000Y91000
X113000Y91000
X112000Y91000
X136061Y103539
X137439Y103539
X140311Y103539
X141689Y103539
X144561Y103539
X145939Y103539
X148811Y103539
X150189Y103539
T05C0.071950
X48000Y97000
X43750Y97000
X39500Y97000
X35250Y97000
X31000Y97000
X52250Y97000
X52250Y95110
X48000Y95110
X43750Y95110
X39500Y95110
X35250Y95110
X31000Y95110
X31000Y98890
X35250Y98890
X39500Y98890
X43750Y98890
X48000Y98890
X52250Y98890
X98750Y97000
X94500Y97000
X90250Y97000
X86000Y97000
X81750Y97000
X103000Y97000
X103000Y95110
X98750Y95110
X94500Y95110
X90250Y95110
X86000Y95110
X81750Y95110
X81750Y98890
X86000Y98890
X90250Y98890
X94500Y98890
X98750Y98890
X103000Y98890
X149500Y97000
X145250Y97000
X141000Y97000
X136750Y97000
X132500Y97000
X153750Y97000
X153750Y95110
X149500Y95110
X145250Y95110
X141000Y95110
X136750Y95110
X132500Y95110
X132500Y98890
X136750Y98890
X141000Y98890
X145250Y98890
X149500Y98890
X153750Y98890
T06C0.078700
X33500Y79250
X37250Y79250
X84250Y79250
X88000Y79250
X135000Y79250
X138750Y79250
T07C0.098000
X26500Y38750
X26500Y54750
X37000Y50860
X29000Y50860
X24000Y22750
X17000Y22750
X17000Y9750
X24000Y9750
X44500Y100500
X77250Y38750
X77250Y54750
X87750Y50860
X79750Y50860
X74750Y22750
X67750Y22750
X67750Y9750
X74750Y9750
X95250Y100500
X128000Y38750
X128000Y54750
X138500Y50860
X130500Y50860
X125500Y22750
X118500Y22750
X118500Y9750
X125500Y9750
X146000Y100500
T08C0.125500
X7500Y7500
X35000Y10250
X39500Y10250
X42250Y10250
X46750Y10250
X49500Y7500
X49500Y81500
X7500Y81500
X29748Y32051
X7500Y87000
X7500Y104000
X52750Y104000
X52750Y87000
X58250Y7500
X85750Y10250
X90250Y10250
X93000Y10250
X97500Y10250
X100250Y7500
X100250Y81500
X58250Y81500
X80498Y32051
X58250Y87000
X58250Y104000
X103500Y104000
X103500Y87000
X109000Y7500
X136500Y10250
X141000Y10250
X143750Y10250
X148250Y10250
X151000Y7500
X151000Y81500
X109000Y81500
X131248Y32051
X109000Y87000
X109000Y104000
X154250Y104000
X154250Y87000
T09C0.132000
X11828Y79250
X21671Y79250
X26450Y80900
X28550Y80900
X41200Y80900
X46300Y80900
X43900Y43550
X43900Y40450
X43900Y37550
X43900Y34450
X43900Y31550
X43900Y28450
X43900Y25550
X43900Y21450
X43900Y18550
X43900Y15450
X15200Y31900
X11950Y31900
X11950Y37100
X15200Y37100
X44300Y87600
X42200Y87600
X39050Y87600
X36950Y87600
X33800Y87600
X31700Y87600
X28550Y87600
X25450Y87600
X22050Y87600
X18950Y87600
X15050Y87600
X9950Y87600
X62578Y79250
X72421Y79250
X77200Y80900
X79300Y80900
X91950Y80900
X97050Y80900
X94650Y43550
X94650Y40450
X94650Y37550
X94650Y34450
X94650Y31550
X94650Y28450
X94650Y25550
X94650Y21450
X94650Y18550
X94650Y15450
X65950Y31900
X62700Y31900
X62700Y37100
X65950Y37100
X95050Y87600
X92950Y87600
X89800Y87600
X87700Y87600
X84550Y87600
X82450Y87600
X79300Y87600
X76200Y87600
X72800Y87600
X69700Y87600
X65800Y87600
X60700Y87600
X113328Y79250
X123171Y79250
X127950Y80900
X130050Y80900
X142700Y80900
X147800Y80900
X145400Y43550
X145400Y40450
X145400Y37550
X145400Y34450
X145400Y31550
X145400Y28450
X145400Y25550
X145400Y21450
X145400Y18550
X145400Y15450
X116700Y31900
X113450Y31900
X113450Y37100
X116700Y37100
X145800Y87600
X143700Y87600
X140550Y87600
X138450Y87600
X135300Y87600
X133200Y87600
X130050Y87600
X126950Y87600
X123550Y87600
X120450Y87600
X116550Y87600
X111450Y87600
M30
