G75*
G70*
%OFA0B0*%
%FSLAX25Y25*%
%IPPOS*%
%LPD*%
%AMOC8*
5,1,8,0,0,1.08239X$1,22.5*
%
%ADD10R,0.07200X0.00600*%
%ADD101R,0.04340X0.02770*%
%ADD102R,0.03360X0.01780*%
%ADD111R,0.07100X0.05400*%
%ADD115R,0.02000X0.04700*%
%ADD117C,0.14400*%
%ADD119R,0.09460X0.03160*%
%ADD12C,0.13300*%
%ADD120C,0.05950*%
%ADD123C,0.11750*%
%ADD124C,0.23800*%
%ADD126C,0.14200*%
%ADD13R,0.14970X0.09460*%
%ADD131R,0.06710X0.06710*%
%ADD132C,0.08200*%
%ADD133R,0.03200X0.09500*%
%ADD137R,0.13400X0.07890*%
%ADD138C,0.04760*%
%ADD14R,0.02970X0.05520*%
%ADD140R,0.05600X0.09600*%
%ADD141R,0.06590X0.05800*%
%ADD142C,0.13400*%
%ADD143R,0.07100X0.23240*%
%ADD146C,0.04800*%
%ADD15C,0.05600*%
%ADD151C,0.03900*%
%ADD16R,0.11430X0.07100*%
%ADD20R,0.00600X0.07200*%
%ADD23R,0.05130X0.04740*%
%ADD25R,0.07100X0.11430*%
%ADD31C,0.07300*%
%ADD33R,0.03160X0.09460*%
%ADD34R,0.07300X0.07300*%
%ADD37R,0.09500X0.03200*%
%ADD39R,0.07100X0.01980*%
%ADD40OC8,0.06800*%
%ADD42R,0.05520X0.05520*%
%ADD43R,0.03520X0.04700*%
%ADD44C,0.04600*%
%ADD47R,0.04700X0.03520*%
%ADD49R,0.04740X0.05130*%
%ADD53R,0.07890X0.07100*%
%ADD55R,0.05400X0.07100*%
%ADD56R,0.05800X0.06590*%
%ADD58OC8,0.08200*%
%ADD60R,0.04700X0.02000*%
%ADD64C,0.20800*%
%ADD71R,0.05520X0.03560*%
%ADD72C,0.14800*%
%ADD73C,0.12610*%
%ADD74R,0.21670X0.08670*%
%ADD75C,0.11430*%
%ADD81C,0.06800*%
%ADD82C,0.06710*%
%ADD83R,0.08200X0.08200*%
%ADD84R,0.03560X0.05520*%
%ADD85R,0.09690X0.09060*%
%ADD92R,0.33080X0.11040*%
%ADD96C,0.07490*%
X0030000Y0030000D02*
G75*
%LPD*%
D12*
X0267480Y0290510D03*
D131*
X0285000Y0047500D03*
X0095000Y0047500D03*
D82*
X0095000Y0057500D03*
X0095000Y0067500D03*
X0095000Y0077500D03*
X0095000Y0087500D03*
X0095000Y0097500D03*
X0095000Y0107500D03*
X0095000Y0117500D03*
X0095000Y0127500D03*
X0095000Y0137500D03*
X0095000Y0147500D03*
X0095000Y0157500D03*
X0095000Y0167500D03*
X0095000Y0177500D03*
X0095000Y0187500D03*
X0095000Y0197500D03*
X0095000Y0207500D03*
X0095000Y0217500D03*
X0095000Y0227500D03*
X0095000Y0237500D03*
X0095000Y0247500D03*
X0095000Y0257500D03*
X0095000Y0267500D03*
X0085000Y0267500D03*
X0085000Y0257500D03*
X0085000Y0247500D03*
X0085000Y0237500D03*
X0085000Y0227500D03*
X0085000Y0217500D03*
X0085000Y0207500D03*
X0085000Y0197500D03*
X0085000Y0187500D03*
X0085000Y0177500D03*
X0085000Y0167500D03*
X0085000Y0157500D03*
X0085000Y0147500D03*
X0085000Y0137500D03*
X0085000Y0127500D03*
X0085000Y0117500D03*
X0085000Y0107500D03*
X0085000Y0097500D03*
X0085000Y0087500D03*
X0085000Y0077500D03*
X0085000Y0067500D03*
X0085000Y0057500D03*
X0085000Y0047500D03*
X0275000Y0047500D03*
X0275000Y0057500D03*
X0275000Y0067500D03*
X0275000Y0077500D03*
X0275000Y0087500D03*
X0285000Y0087500D03*
X0285000Y0077500D03*
X0285000Y0067500D03*
X0285000Y0057500D03*
X0285000Y0097500D03*
X0285000Y0107500D03*
X0285000Y0117500D03*
X0285000Y0127500D03*
X0285000Y0137500D03*
X0285000Y0147500D03*
X0285000Y0157500D03*
X0285000Y0167500D03*
X0285000Y0177500D03*
X0285000Y0187500D03*
X0285000Y0197500D03*
X0285000Y0207500D03*
X0285000Y0217500D03*
X0285000Y0227500D03*
X0285000Y0237500D03*
X0285000Y0247500D03*
X0285000Y0257500D03*
X0285000Y0267500D03*
X0275000Y0267500D03*
X0275000Y0257500D03*
X0275000Y0247500D03*
X0275000Y0237500D03*
X0275000Y0227500D03*
X0275000Y0217500D03*
X0275000Y0207500D03*
X0275000Y0197500D03*
X0275000Y0187500D03*
X0275000Y0177500D03*
X0275000Y0167500D03*
X0275000Y0157500D03*
X0275000Y0147500D03*
X0275000Y0137500D03*
X0275000Y0127500D03*
X0275000Y0117500D03*
X0275000Y0107500D03*
X0275000Y0097500D03*
D132*
X0250500Y0097500D03*
X0249500Y0107500D03*
X0250500Y0117500D03*
X0249500Y0127500D03*
X0250500Y0137500D03*
X0249500Y0147500D03*
X0250500Y0157500D03*
X0249500Y0167500D03*
X0250500Y0177500D03*
X0249500Y0187500D03*
X0250500Y0197500D03*
X0249500Y0207500D03*
X0250500Y0217500D03*
X0249500Y0227500D03*
X0250500Y0237500D03*
X0249500Y0247500D03*
X0250500Y0257500D03*
X0249500Y0267500D03*
X0250500Y0277500D03*
X0260000Y0342000D03*
X0270000Y0343000D03*
X0280000Y0342000D03*
X0290000Y0343000D03*
X0300000Y0342000D03*
X0310000Y0343000D03*
X0320000Y0342000D03*
X0330000Y0343000D03*
X0340000Y0342000D03*
X0340000Y0363500D03*
X0330000Y0362500D03*
X0320000Y0363500D03*
X0310000Y0362500D03*
X0300000Y0363500D03*
X0290000Y0362500D03*
X0280000Y0363500D03*
X0270000Y0362500D03*
X0260000Y0363500D03*
X0300500Y0277500D03*
X0299500Y0267500D03*
X0300500Y0257500D03*
X0299500Y0247500D03*
X0300500Y0237500D03*
X0299500Y0227500D03*
X0300500Y0217500D03*
X0299500Y0207500D03*
X0300500Y0197500D03*
X0299500Y0187500D03*
X0300500Y0177500D03*
X0299500Y0167500D03*
X0300500Y0157500D03*
X0299500Y0147500D03*
X0300500Y0137500D03*
X0299500Y0127500D03*
X0300500Y0117500D03*
X0299500Y0107500D03*
X0300500Y0097500D03*
X0299500Y0087500D03*
X0300500Y0077500D03*
X0299500Y0067500D03*
X0300500Y0057500D03*
X0299500Y0047500D03*
X0335000Y0097500D03*
X0340000Y0107500D03*
X0345000Y0097500D03*
X0350000Y0107500D03*
X0355000Y0097500D03*
X0360000Y0107500D03*
X0363000Y0130000D03*
X0362000Y0140000D03*
X0363000Y0150000D03*
X0362000Y0190000D03*
X0363000Y0200000D03*
X0362000Y0210000D03*
X0363000Y0260000D03*
X0362000Y0270000D03*
X0363000Y0280000D03*
X0363000Y0320000D03*
X0362000Y0330000D03*
X0363000Y0340000D03*
X0363000Y0380000D03*
X0362000Y0390000D03*
X0363000Y0400000D03*
X0262500Y0197500D03*
X0262500Y0187500D03*
X0262500Y0177500D03*
X0262500Y0167500D03*
X0262500Y0157500D03*
X0262500Y0147500D03*
X0230500Y0137500D03*
X0229500Y0127500D03*
X0230500Y0117500D03*
X0229500Y0107500D03*
X0230500Y0097500D03*
X0229500Y0087500D03*
X0210500Y0097500D03*
X0209500Y0107500D03*
X0210500Y0117500D03*
X0209500Y0127500D03*
X0210500Y0137500D03*
X0209500Y0147500D03*
X0210500Y0157500D03*
X0209500Y0167500D03*
X0210500Y0177500D03*
X0229500Y0167500D03*
X0230500Y0157500D03*
X0229500Y0147500D03*
X0230500Y0177500D03*
X0249500Y0087500D03*
X0250500Y0077500D03*
X0249500Y0067500D03*
X0250500Y0057500D03*
X0249500Y0047500D03*
X0209500Y0087500D03*
X0110500Y0087500D03*
X0109500Y0077500D03*
X0110500Y0067500D03*
X0109500Y0057500D03*
X0110500Y0047500D03*
X0109500Y0037500D03*
X0109500Y0097500D03*
X0110500Y0107500D03*
X0109500Y0117500D03*
X0110500Y0127500D03*
X0109500Y0137500D03*
X0110500Y0147500D03*
X0109500Y0157500D03*
X0110500Y0167500D03*
X0109500Y0177500D03*
X0110500Y0187500D03*
X0109500Y0197500D03*
X0110500Y0207500D03*
X0109500Y0217500D03*
X0110500Y0227500D03*
X0109500Y0237500D03*
X0110500Y0247500D03*
X0109500Y0257500D03*
X0110500Y0267500D03*
X0070500Y0267500D03*
X0069500Y0257500D03*
X0070500Y0247500D03*
X0069500Y0237500D03*
X0070500Y0227500D03*
X0069500Y0217500D03*
X0070500Y0207500D03*
X0069500Y0197500D03*
X0070500Y0187500D03*
X0069500Y0177500D03*
X0070500Y0167500D03*
X0069500Y0157500D03*
X0070500Y0147500D03*
X0069500Y0137500D03*
X0070500Y0127500D03*
X0069500Y0117500D03*
X0070500Y0107500D03*
X0069500Y0097500D03*
X0070500Y0087500D03*
X0069500Y0077500D03*
X0070500Y0067500D03*
X0069500Y0057500D03*
X0070500Y0047500D03*
X0069500Y0037500D03*
X0057000Y0352500D03*
X0057000Y0362500D03*
X0057000Y0372500D03*
X0057000Y0382500D03*
X0057000Y0392500D03*
X0057000Y0402500D03*
X0057000Y0412500D03*
X0057000Y0422500D03*
X0057000Y0432500D03*
X0057000Y0442500D03*
X0057000Y0452500D03*
X0057000Y0462500D03*
X0057000Y0472500D03*
X0057000Y0482500D03*
X0057000Y0492500D03*
X0057000Y0502500D03*
X0057000Y0512500D03*
X0035000Y0512500D03*
X0035000Y0502500D03*
X0035000Y0492500D03*
X0035000Y0482500D03*
X0035000Y0472500D03*
X0035000Y0462500D03*
X0035000Y0452500D03*
X0035000Y0442500D03*
X0035000Y0432500D03*
X0035000Y0422500D03*
X0035000Y0412500D03*
X0035000Y0402500D03*
X0035000Y0392500D03*
X0035000Y0382500D03*
X0035000Y0372500D03*
X0035000Y0362500D03*
X0035000Y0522500D03*
X0126590Y0756910D03*
X0137500Y0756910D03*
X0148400Y0756910D03*
X0153840Y0768090D03*
X0142930Y0768090D03*
X0132060Y0768090D03*
X0121160Y0768090D03*
X0159310Y0756910D03*
X0239300Y0732500D03*
X0250700Y0732500D03*
X0387500Y0733000D03*
X0397500Y0732000D03*
X0407500Y0733000D03*
X0417500Y0732000D03*
X0427500Y0733000D03*
X0432500Y0107500D03*
X0427500Y0097500D03*
X0422500Y0107500D03*
X0417500Y0097500D03*
X0412500Y0107500D03*
X0407500Y0097500D03*
X0402500Y0107500D03*
X0330000Y0107500D03*
D117*
X0210000Y0067500D03*
X0140000Y0067500D03*
X0140000Y0197500D03*
X0210000Y0197500D03*
X0260000Y0478600D03*
X0340000Y0478600D03*
D124*
X0045000Y0045000D03*
X0465000Y0045000D03*
X0465000Y0785000D03*
X0045000Y0785000D03*
D16*
X0347500Y0558010D03*
X0347500Y0546990D03*
X0380000Y0579490D03*
X0380000Y0590510D03*
X0365000Y0480510D03*
X0365000Y0469490D03*
X0425000Y0469490D03*
X0425000Y0480510D03*
X0460000Y0579490D03*
X0460000Y0590510D03*
D119*
X0422730Y0540000D03*
X0422730Y0535000D03*
X0422730Y0530000D03*
X0422730Y0525000D03*
X0402260Y0525000D03*
X0402260Y0530000D03*
X0402260Y0535000D03*
X0402260Y0540000D03*
D23*
X0409150Y0547500D03*
X0415840Y0547500D03*
X0417500Y0515850D03*
X0417500Y0509150D03*
X0432500Y0509150D03*
X0432500Y0515850D03*
X0440000Y0515850D03*
X0440000Y0509150D03*
X0456650Y0462500D03*
X0463340Y0462500D03*
X0388340Y0507500D03*
X0388340Y0515000D03*
X0381650Y0515000D03*
X0381650Y0507500D03*
X0370000Y0509150D03*
X0370000Y0515850D03*
X0335840Y0572500D03*
X0329150Y0572500D03*
X0315840Y0542500D03*
X0309150Y0542500D03*
X0293340Y0542500D03*
X0286650Y0542500D03*
X0329150Y0607500D03*
X0335840Y0607500D03*
X0337500Y0656650D03*
X0337500Y0663350D03*
X0327500Y0663350D03*
X0327500Y0656650D03*
X0317500Y0656650D03*
X0317500Y0663350D03*
X0297500Y0663350D03*
X0297500Y0656650D03*
X0287500Y0656650D03*
X0287500Y0663350D03*
X0287500Y0684150D03*
X0287500Y0690850D03*
X0295000Y0690850D03*
X0295000Y0684150D03*
X0280000Y0684150D03*
X0280000Y0690850D03*
X0275000Y0744150D03*
X0275000Y0750850D03*
X0230000Y0689850D03*
X0230000Y0683150D03*
X0210000Y0701650D03*
X0210000Y0708350D03*
X0190000Y0708350D03*
X0190000Y0701650D03*
X0167500Y0701650D03*
X0167500Y0708350D03*
X0145000Y0708350D03*
X0145000Y0701650D03*
X0122500Y0701650D03*
X0122500Y0708350D03*
X0100000Y0708350D03*
X0100000Y0701650D03*
X0077500Y0701650D03*
X0077500Y0708350D03*
X0070840Y0720000D03*
X0064150Y0720000D03*
X0057500Y0708350D03*
X0057500Y0701650D03*
X0080000Y0648350D03*
X0080000Y0641650D03*
X0087500Y0641650D03*
X0087500Y0648350D03*
X0095000Y0648350D03*
X0095000Y0641650D03*
X0102500Y0641650D03*
X0102500Y0648350D03*
X0110000Y0648350D03*
X0110000Y0641650D03*
X0117500Y0641650D03*
X0117500Y0648350D03*
X0125000Y0648350D03*
X0125000Y0641650D03*
X0132500Y0641650D03*
X0132500Y0648350D03*
X0140000Y0648350D03*
X0140000Y0641650D03*
X0147500Y0641650D03*
X0147500Y0648350D03*
X0155000Y0648350D03*
X0155000Y0641650D03*
X0162500Y0641650D03*
X0162500Y0648350D03*
X0170000Y0648350D03*
X0170000Y0641650D03*
X0177500Y0641650D03*
X0177500Y0648350D03*
X0185000Y0648350D03*
X0185000Y0641650D03*
X0192500Y0641650D03*
X0192500Y0648350D03*
X0200000Y0648350D03*
X0200000Y0641650D03*
X0207500Y0641650D03*
X0207500Y0648350D03*
X0232500Y0633350D03*
X0232500Y0626650D03*
X0240000Y0626650D03*
X0240000Y0633350D03*
X0247500Y0633350D03*
X0247500Y0626650D03*
X0169340Y0605500D03*
X0162650Y0605500D03*
X0088340Y0595000D03*
X0081650Y0595000D03*
X0053340Y0595000D03*
X0046650Y0595000D03*
X0048340Y0570000D03*
X0041650Y0570000D03*
X0041650Y0542500D03*
X0048340Y0542500D03*
X0187500Y0268350D03*
X0187500Y0261650D03*
X0331650Y0257500D03*
X0338340Y0257500D03*
X0340840Y0155000D03*
X0334150Y0155000D03*
X0405000Y0626650D03*
X0405000Y0633350D03*
X0412500Y0633350D03*
X0412500Y0626650D03*
X0420000Y0626650D03*
X0420000Y0633350D03*
X0427500Y0633350D03*
X0427500Y0626650D03*
X0435000Y0626650D03*
X0435000Y0633350D03*
X0442500Y0633350D03*
X0442500Y0626650D03*
X0425000Y0684150D03*
X0425000Y0690850D03*
X0402500Y0690850D03*
X0402500Y0684150D03*
X0397500Y0716650D03*
X0397500Y0723350D03*
X0387500Y0723350D03*
X0387500Y0716650D03*
D49*
X0382500Y0690850D03*
X0382500Y0684150D03*
X0389150Y0675000D03*
X0395840Y0675000D03*
X0446650Y0675000D03*
X0453340Y0675000D03*
X0460000Y0684150D03*
X0460000Y0690850D03*
X0458340Y0715000D03*
X0458340Y0725000D03*
X0458340Y0735000D03*
X0458340Y0745000D03*
X0451650Y0745000D03*
X0451650Y0735000D03*
X0451650Y0725000D03*
X0451650Y0715000D03*
X0425000Y0515850D03*
X0425000Y0509150D03*
X0410000Y0509150D03*
X0410000Y0515850D03*
X0402500Y0515850D03*
X0402500Y0509150D03*
X0370840Y0497500D03*
X0364150Y0497500D03*
X0366650Y0415000D03*
X0373340Y0415000D03*
X0365840Y0350000D03*
X0359150Y0350000D03*
X0353340Y0270000D03*
X0346650Y0270000D03*
X0345840Y0210000D03*
X0339150Y0210000D03*
X0339150Y0200000D03*
X0345840Y0200000D03*
X0265840Y0087500D03*
X0259150Y0087500D03*
X0200840Y0117500D03*
X0200840Y0127500D03*
X0194150Y0127500D03*
X0194150Y0117500D03*
X0195000Y0261650D03*
X0195000Y0268350D03*
X0167500Y0268350D03*
X0167500Y0261650D03*
X0155840Y0295000D03*
X0149150Y0295000D03*
X0230000Y0268350D03*
X0230000Y0261650D03*
X0286650Y0512500D03*
X0293340Y0512500D03*
X0293340Y0520000D03*
X0286650Y0520000D03*
X0286650Y0527500D03*
X0293340Y0527500D03*
X0293340Y0535000D03*
X0286650Y0535000D03*
X0258340Y0675000D03*
X0251650Y0675000D03*
X0265000Y0684150D03*
X0265000Y0690850D03*
X0127500Y0623350D03*
X0127500Y0616650D03*
X0088340Y0600000D03*
X0088340Y0590000D03*
X0081650Y0590000D03*
X0081650Y0600000D03*
X0053340Y0600000D03*
X0053340Y0590000D03*
X0046650Y0590000D03*
X0046650Y0600000D03*
X0043340Y0630000D03*
X0043340Y0637500D03*
X0043340Y0645000D03*
X0043340Y0652500D03*
X0043340Y0660000D03*
X0043340Y0667500D03*
X0036650Y0667500D03*
X0036650Y0660000D03*
X0036650Y0652500D03*
X0036650Y0645000D03*
X0036650Y0637500D03*
X0036650Y0630000D03*
X0051650Y0725000D03*
X0051650Y0732500D03*
X0051650Y0740000D03*
X0051650Y0747500D03*
X0051650Y0755000D03*
X0051650Y0762500D03*
X0058340Y0762500D03*
X0058340Y0755000D03*
X0058340Y0747500D03*
X0058340Y0740000D03*
X0058340Y0732500D03*
X0058340Y0725000D03*
X0456650Y0487500D03*
X0463340Y0487500D03*
D141*
X0437500Y0524040D03*
X0437500Y0540960D03*
D25*
X0454480Y0512500D03*
X0454480Y0500000D03*
X0465510Y0500000D03*
X0465510Y0512500D03*
X0390510Y0525000D03*
X0379480Y0525000D03*
X0379480Y0537500D03*
X0390510Y0537500D03*
X0318010Y0500000D03*
X0306980Y0500000D03*
D143*
X0450740Y0532500D03*
X0469250Y0532500D03*
D42*
X0465860Y0715000D03*
X0465860Y0725000D03*
X0465860Y0735000D03*
X0465860Y0745000D03*
X0474130Y0745000D03*
X0474130Y0735000D03*
X0474130Y0725000D03*
X0474130Y0715000D03*
X0337500Y0649130D03*
X0337500Y0640870D03*
X0327500Y0640870D03*
X0327500Y0649130D03*
X0317500Y0649130D03*
X0317500Y0640870D03*
X0307500Y0640870D03*
X0307500Y0649130D03*
X0297500Y0649130D03*
X0297500Y0640870D03*
X0287500Y0640870D03*
X0287500Y0649130D03*
X0275000Y0758370D03*
X0275000Y0766630D03*
X0059130Y0667500D03*
X0059130Y0660000D03*
X0059130Y0652500D03*
X0059130Y0645000D03*
X0059130Y0637500D03*
X0059130Y0630000D03*
X0050860Y0630000D03*
X0050860Y0637500D03*
X0050860Y0645000D03*
X0050860Y0652500D03*
X0050860Y0660000D03*
X0050860Y0667500D03*
X0044130Y0725000D03*
X0044130Y0732500D03*
X0044130Y0740000D03*
X0044130Y0747500D03*
X0044130Y0755000D03*
X0044130Y0762500D03*
X0035860Y0762500D03*
X0035860Y0755000D03*
X0035860Y0747500D03*
X0035860Y0740000D03*
X0035860Y0732500D03*
X0035860Y0725000D03*
D33*
X0080000Y0680240D03*
X0085000Y0680240D03*
X0090000Y0680240D03*
X0095000Y0680240D03*
X0102500Y0680240D03*
X0107500Y0680240D03*
X0112500Y0680240D03*
X0117500Y0680240D03*
X0125000Y0680240D03*
X0130000Y0680240D03*
X0135000Y0680240D03*
X0140000Y0680240D03*
X0147500Y0680240D03*
X0152500Y0680240D03*
X0157500Y0680240D03*
X0162500Y0680240D03*
X0170000Y0680240D03*
X0175000Y0680240D03*
X0180000Y0680240D03*
X0185000Y0680240D03*
X0192500Y0680240D03*
X0197500Y0680240D03*
X0202500Y0680240D03*
X0207500Y0680240D03*
X0207500Y0659760D03*
X0202500Y0659760D03*
X0197500Y0659760D03*
X0192500Y0659760D03*
X0185000Y0659760D03*
X0180000Y0659760D03*
X0175000Y0659760D03*
X0170000Y0659760D03*
X0162500Y0659760D03*
X0157500Y0659760D03*
X0152500Y0659760D03*
X0147500Y0659760D03*
X0140000Y0659760D03*
X0135000Y0659760D03*
X0130000Y0659760D03*
X0125000Y0659760D03*
X0117500Y0659760D03*
X0112500Y0659760D03*
X0107500Y0659760D03*
X0102500Y0659760D03*
X0095000Y0659760D03*
X0090000Y0659760D03*
X0085000Y0659760D03*
X0080000Y0659760D03*
X0232500Y0665240D03*
X0237500Y0665240D03*
X0242500Y0665240D03*
X0247500Y0665240D03*
X0247500Y0644760D03*
X0242500Y0644760D03*
X0237500Y0644760D03*
X0232500Y0644760D03*
X0405000Y0644760D03*
X0410000Y0644760D03*
X0415000Y0644760D03*
X0420000Y0644760D03*
X0427500Y0644760D03*
X0432500Y0644760D03*
X0437500Y0644760D03*
X0442500Y0644760D03*
X0442500Y0665240D03*
X0437500Y0665240D03*
X0432500Y0665240D03*
X0427500Y0665240D03*
X0420000Y0665240D03*
X0415000Y0665240D03*
X0410000Y0665240D03*
X0405000Y0665240D03*
D83*
X0363000Y0220000D03*
X0397500Y0097500D03*
X0325000Y0097500D03*
X0057000Y0522500D03*
X0035000Y0352500D03*
X0115690Y0756910D03*
D64*
X0088280Y0762500D03*
X0186710Y0762500D03*
D137*
X0177500Y0716020D03*
X0177500Y0693980D03*
X0155000Y0693980D03*
X0155000Y0716020D03*
X0132500Y0716020D03*
X0132500Y0693980D03*
X0110000Y0693980D03*
X0110000Y0716020D03*
X0087500Y0716020D03*
X0087500Y0693980D03*
X0200000Y0693980D03*
X0200000Y0716020D03*
X0240000Y0698520D03*
X0240000Y0676480D03*
X0412500Y0676480D03*
X0412500Y0698520D03*
X0435000Y0698520D03*
X0435000Y0676480D03*
X0440000Y0498520D03*
X0440000Y0476480D03*
D14*
X0456260Y0480120D03*
X0460000Y0480120D03*
X0463740Y0480120D03*
X0463740Y0469880D03*
X0456260Y0469880D03*
X0453740Y0682380D03*
X0450000Y0682380D03*
X0446260Y0682380D03*
X0446260Y0692620D03*
X0453740Y0692620D03*
X0396240Y0692620D03*
X0388760Y0692620D03*
X0388760Y0682380D03*
X0392500Y0682380D03*
X0396240Y0682380D03*
X0258740Y0682380D03*
X0255000Y0682380D03*
X0251260Y0682380D03*
X0251260Y0692620D03*
X0258740Y0692620D03*
X0223740Y0699880D03*
X0220000Y0699880D03*
X0216260Y0699880D03*
X0216260Y0710120D03*
X0223740Y0710120D03*
X0071240Y0710120D03*
X0063760Y0710120D03*
X0063760Y0699880D03*
X0067500Y0699880D03*
X0071240Y0699880D03*
D115*
X0133480Y0626490D03*
X0136040Y0626490D03*
X0138600Y0626490D03*
X0141160Y0626490D03*
X0143720Y0626490D03*
X0146280Y0626490D03*
X0148840Y0626490D03*
X0151390Y0626490D03*
X0153950Y0626490D03*
X0156510Y0626490D03*
X0156510Y0603510D03*
X0153950Y0603510D03*
X0151390Y0603510D03*
X0148840Y0603510D03*
X0146280Y0603510D03*
X0143720Y0603510D03*
X0141160Y0603510D03*
X0138600Y0603510D03*
X0136040Y0603510D03*
X0133480Y0603510D03*
X0200980Y0276490D03*
X0203540Y0276490D03*
X0206100Y0276490D03*
X0208660Y0276490D03*
X0211220Y0276490D03*
X0213780Y0276490D03*
X0216340Y0276490D03*
X0218890Y0276490D03*
X0221450Y0276490D03*
X0224010Y0276490D03*
X0224010Y0253510D03*
X0221450Y0253510D03*
X0218890Y0253510D03*
X0216340Y0253510D03*
X0213780Y0253510D03*
X0211220Y0253510D03*
X0208660Y0253510D03*
X0206100Y0253510D03*
X0203540Y0253510D03*
X0200980Y0253510D03*
D60*
X0078980Y0536040D03*
X0078980Y0538600D03*
X0078980Y0541160D03*
X0078980Y0543720D03*
X0078980Y0546280D03*
X0078980Y0548840D03*
X0078980Y0551400D03*
X0078980Y0553960D03*
X0078980Y0563540D03*
X0078980Y0566100D03*
X0078980Y0568660D03*
X0078980Y0571220D03*
X0078980Y0573780D03*
X0078980Y0576340D03*
X0078980Y0578900D03*
X0078980Y0581460D03*
X0056010Y0581460D03*
X0056010Y0578900D03*
X0056010Y0576340D03*
X0056010Y0573780D03*
X0056010Y0571220D03*
X0056010Y0568660D03*
X0056010Y0566100D03*
X0056010Y0563540D03*
X0056010Y0553960D03*
X0056010Y0551400D03*
X0056010Y0548840D03*
X0056010Y0546280D03*
X0056010Y0543720D03*
X0056010Y0541160D03*
X0056010Y0538600D03*
X0056010Y0536040D03*
X0321010Y0578480D03*
X0321010Y0581040D03*
X0321010Y0583600D03*
X0321010Y0586160D03*
X0321010Y0588720D03*
X0321010Y0591280D03*
X0321010Y0593840D03*
X0321010Y0596400D03*
X0321010Y0598960D03*
X0321010Y0601520D03*
X0343980Y0601520D03*
X0343980Y0598960D03*
X0343980Y0596400D03*
X0343980Y0593840D03*
X0343980Y0591280D03*
X0343980Y0588720D03*
X0343980Y0586160D03*
X0343980Y0583600D03*
X0343980Y0581040D03*
X0343980Y0578480D03*
D34*
X0387500Y0745000D03*
X0240000Y0745000D03*
X0375000Y0400000D03*
X0375000Y0340000D03*
X0375000Y0280000D03*
X0375000Y0220000D03*
X0375000Y0150000D03*
X0125000Y0325000D03*
X0092500Y0325000D03*
D31*
X0092500Y0315000D03*
X0092500Y0305000D03*
X0125000Y0305000D03*
X0125000Y0315000D03*
X0375000Y0320000D03*
X0375000Y0330000D03*
X0375000Y0380000D03*
X0375000Y0390000D03*
X0375000Y0270000D03*
X0375000Y0260000D03*
X0375000Y0210000D03*
X0375000Y0200000D03*
X0375000Y0190000D03*
X0375000Y0140000D03*
X0375000Y0130000D03*
X0397500Y0745000D03*
X0407500Y0745000D03*
X0417500Y0745000D03*
X0427500Y0745000D03*
X0250000Y0745000D03*
D126*
X0255500Y0779000D03*
X0234500Y0779000D03*
X0382000Y0779000D03*
X0433000Y0779000D03*
X0409000Y0405500D03*
X0409000Y0374500D03*
X0409000Y0345500D03*
X0409000Y0314500D03*
X0409000Y0285500D03*
X0409000Y0254500D03*
X0409000Y0225500D03*
X0409000Y0184500D03*
X0409000Y0155500D03*
X0409000Y0124500D03*
X0122000Y0289000D03*
X0089500Y0289000D03*
X0089500Y0341000D03*
X0122000Y0341000D03*
D40*
X0215000Y0567500D03*
X0225000Y0567500D03*
X0235000Y0567500D03*
X0245000Y0567500D03*
X0255000Y0567500D03*
X0265000Y0567500D03*
X0265000Y0577500D03*
X0255000Y0577500D03*
X0245000Y0577500D03*
X0235000Y0577500D03*
X0225000Y0577500D03*
X0215000Y0577500D03*
X0465000Y0605000D03*
X0465000Y0615000D03*
X0465000Y0625000D03*
X0465000Y0635000D03*
X0465000Y0645000D03*
X0475000Y0645000D03*
X0475000Y0635000D03*
X0475000Y0625000D03*
X0475000Y0615000D03*
X0475000Y0605000D03*
X0475000Y0655000D03*
X0475000Y0665000D03*
X0475000Y0675000D03*
X0465000Y0675000D03*
X0465000Y0665000D03*
X0465000Y0655000D03*
D73*
X0342500Y0756590D02*
X0342500Y0768410D01*
X0305000Y0768410D02*
X0305000Y0756590D01*
D72*
X0235000Y0517500D03*
X0235000Y0357500D03*
D84*
X0272500Y0680220D03*
X0272500Y0694780D03*
X0245000Y0707720D03*
X0245000Y0722280D03*
X0235000Y0722280D03*
X0235000Y0707720D03*
X0205000Y0725220D03*
X0205000Y0739780D03*
X0195000Y0739780D03*
X0195000Y0725220D03*
X0182500Y0725220D03*
X0182500Y0739780D03*
X0172500Y0739780D03*
X0172500Y0725220D03*
X0160000Y0725220D03*
X0160000Y0739780D03*
X0150000Y0739780D03*
X0150000Y0725220D03*
X0137500Y0725220D03*
X0137500Y0739780D03*
X0127500Y0739780D03*
X0127500Y0725220D03*
X0115000Y0725220D03*
X0115000Y0739780D03*
X0105000Y0739780D03*
X0105000Y0725220D03*
X0092500Y0725220D03*
X0092500Y0739780D03*
X0082500Y0739780D03*
X0082500Y0725220D03*
X0370000Y0714780D03*
X0380000Y0714780D03*
X0380000Y0700220D03*
X0370000Y0700220D03*
X0407500Y0707720D03*
X0407500Y0722280D03*
X0417500Y0722280D03*
X0417500Y0707720D03*
X0430000Y0707720D03*
X0430000Y0722280D03*
X0440000Y0722280D03*
X0440000Y0707720D03*
D102*
X0073210Y0597950D03*
X0073210Y0595980D03*
X0073210Y0594020D03*
X0073210Y0592050D03*
X0061790Y0592050D03*
X0061790Y0594020D03*
X0061790Y0595980D03*
X0061790Y0597950D03*
D47*
X0329880Y0273740D03*
X0329880Y0266260D03*
X0340080Y0266260D03*
X0340080Y0270000D03*
X0340080Y0273740D03*
X0379920Y0493760D03*
X0379920Y0497500D03*
X0379920Y0501240D03*
X0390110Y0501240D03*
X0390110Y0493760D03*
D142*
X0392500Y0072500D03*
X0365000Y0072500D03*
X0320000Y0072500D03*
X0437500Y0072500D03*
D39*
X0323520Y0517320D03*
X0323520Y0519880D03*
X0323520Y0522440D03*
X0323520Y0525000D03*
X0323520Y0527560D03*
X0323520Y0530120D03*
X0323520Y0532680D03*
X0301470Y0532680D03*
X0301470Y0530120D03*
X0301470Y0527560D03*
X0301470Y0525000D03*
X0301470Y0522440D03*
X0301470Y0519880D03*
X0301470Y0517320D03*
D85*
X0312500Y0525000D03*
D56*
X0339030Y0500000D03*
X0355960Y0500000D03*
D92*
X0347500Y0513980D03*
X0347500Y0536020D03*
D58*
X0252500Y0323500D03*
X0252500Y0313500D03*
X0242500Y0313500D03*
X0242500Y0323500D03*
X0232500Y0323500D03*
X0232500Y0313500D03*
X0222500Y0313500D03*
X0222500Y0323500D03*
X0212500Y0323500D03*
X0212500Y0313500D03*
X0202500Y0313500D03*
X0202500Y0323500D03*
D37*
X0327200Y0147500D03*
X0327200Y0142500D03*
X0327200Y0137500D03*
X0327200Y0132500D03*
X0347800Y0132500D03*
X0347800Y0137500D03*
X0347800Y0142500D03*
X0347800Y0147500D03*
D43*
X0181240Y0259920D03*
X0177500Y0259920D03*
X0173760Y0259920D03*
X0173760Y0270120D03*
X0181240Y0270120D03*
D55*
X0183500Y0285000D03*
X0177500Y0285000D03*
X0171500Y0285000D03*
X0437000Y0732500D03*
X0443000Y0732500D03*
D71*
X0349780Y0415000D03*
X0335210Y0415000D03*
X0355210Y0357500D03*
X0369780Y0357500D03*
X0342280Y0250000D03*
X0327710Y0250000D03*
X0335210Y0217500D03*
X0349780Y0217500D03*
X0349780Y0192500D03*
X0335210Y0192500D03*
X0159780Y0287500D03*
X0145210Y0287500D03*
D111*
X0332500Y0547000D03*
X0332500Y0553000D03*
D10*
X0332500Y0550000D03*
D20*
X0440000Y0732500D03*
D133*
X0322500Y0707800D03*
X0317500Y0707800D03*
X0312500Y0707800D03*
X0307500Y0707800D03*
X0307500Y0687200D03*
X0312500Y0687200D03*
X0317500Y0687200D03*
X0322500Y0687200D03*
D74*
X0340000Y0684510D03*
X0340000Y0710490D03*
D101*
X0120650Y0579720D03*
X0120650Y0576570D03*
X0120650Y0573430D03*
X0120650Y0570280D03*
X0120650Y0564720D03*
X0120650Y0561570D03*
X0120650Y0558430D03*
X0120650Y0555280D03*
X0120650Y0549720D03*
X0120650Y0546570D03*
X0120650Y0543430D03*
X0120650Y0540280D03*
X0120650Y0534720D03*
X0120650Y0531570D03*
X0120650Y0528430D03*
X0120650Y0525280D03*
X0114350Y0525280D03*
X0114350Y0528430D03*
X0114350Y0531570D03*
X0114350Y0534720D03*
X0114350Y0540280D03*
X0114350Y0543430D03*
X0114350Y0546570D03*
X0114350Y0549720D03*
X0114350Y0555280D03*
X0114350Y0558430D03*
X0114350Y0561570D03*
X0114350Y0564720D03*
X0114350Y0570280D03*
X0114350Y0573430D03*
X0114350Y0576570D03*
X0114350Y0579720D03*
D81*
X0385000Y0478000D02*
X0385000Y0472000D01*
X0395000Y0472000D02*
X0395000Y0478000D01*
X0405000Y0478000D02*
X0405000Y0472000D01*
X0410000Y0587000D02*
X0410000Y0593000D01*
X0420000Y0593000D02*
X0420000Y0587000D01*
X0430000Y0587000D02*
X0430000Y0593000D01*
D81*
X0447500Y0600000D03*
X0427500Y0617500D03*
X0397500Y0645000D03*
X0392500Y0590000D03*
X0392500Y0547500D03*
X0447500Y0467500D03*
X0472500Y0450000D03*
X0447500Y0395000D03*
X0450000Y0362500D03*
X0425000Y0362500D03*
X0410000Y0330000D03*
X0327500Y0455000D03*
X0327500Y0500000D03*
X0357500Y0645000D03*
X0357710Y0707500D03*
X0401500Y0707720D03*
X0424000Y0707500D03*
X0460000Y0570000D03*
X0275000Y0717500D03*
X0217500Y0660000D03*
X0472500Y0120000D03*
X0460000Y0065000D03*
X0447500Y0050000D03*
D44*
X0327500Y0280000D03*
X0330000Y0392500D03*
X0255000Y0531000D03*
X0215000Y0492500D03*
X0215000Y0466650D03*
X0170000Y0497500D03*
X0170000Y0531000D03*
X0170000Y0392500D03*
X0202500Y0392500D03*
X0190000Y0725000D03*
X0167500Y0725000D03*
X0145000Y0725000D03*
X0122500Y0725000D03*
X0100000Y0725000D03*
X0077500Y0725000D03*
X0227500Y0725000D03*
X0437500Y0465000D03*
X0470000Y0590000D03*
X0030000Y0805000D02*
G75*
%LPD*%
D119*
X0184760Y0910000D03*
X0184760Y0915000D03*
X0184760Y0920000D03*
X0184760Y0925000D03*
X0184760Y0930000D03*
X0184760Y0935000D03*
X0184760Y0940000D03*
X0205240Y0940000D03*
X0205240Y0935000D03*
X0205240Y0930000D03*
X0205240Y0925000D03*
X0205240Y0920000D03*
X0205240Y0915000D03*
X0205240Y0910000D03*
X0205240Y0957500D03*
X0205240Y0962500D03*
X0205240Y0967500D03*
X0205240Y0972500D03*
X0184760Y0972500D03*
X0184760Y0967500D03*
X0184760Y0962500D03*
X0184760Y0957500D03*
X0135240Y0957500D03*
X0135240Y0962500D03*
X0135240Y0967500D03*
X0135240Y0972500D03*
X0114760Y0972500D03*
X0114760Y0967500D03*
X0114760Y0962500D03*
X0114760Y0957500D03*
D47*
X0159880Y0961260D03*
X0170080Y0961260D03*
X0170080Y0965000D03*
X0170080Y0968740D03*
X0159880Y0968740D03*
X0219920Y0968740D03*
X0219920Y0965000D03*
X0219920Y0961260D03*
X0230120Y0961260D03*
X0230120Y0968740D03*
D49*
X0228350Y0940000D03*
X0221650Y0940000D03*
X0221650Y0920000D03*
X0228350Y0920000D03*
X0228350Y0910000D03*
X0221650Y0910000D03*
X0168350Y0910000D03*
X0161650Y0910000D03*
X0161650Y0920000D03*
X0168350Y0920000D03*
X0168350Y0940000D03*
X0161650Y0940000D03*
X0108350Y0940000D03*
X0101650Y0940000D03*
X0101650Y0930000D03*
X0108350Y0930000D03*
X0108350Y0920000D03*
X0101650Y0920000D03*
X0101650Y0910000D03*
X0108350Y0910000D03*
X0276650Y0872500D03*
X0283350Y0872500D03*
X0319150Y0872500D03*
X0325850Y0872500D03*
X0361650Y0872500D03*
X0368350Y0872500D03*
X0404150Y0872500D03*
X0410850Y0872500D03*
X0446650Y0872500D03*
X0453350Y0872500D03*
X0489150Y0872500D03*
X0495850Y0872500D03*
D23*
X0240000Y0961650D03*
X0240000Y0968350D03*
X0228350Y0980000D03*
X0221650Y0980000D03*
X0168350Y0980000D03*
X0161650Y0980000D03*
X0150000Y0968350D03*
X0150000Y0961650D03*
X0161650Y0950000D03*
X0168350Y0950000D03*
X0168350Y0930000D03*
X0161650Y0930000D03*
X0221650Y0930000D03*
X0228350Y0930000D03*
X0228350Y0950000D03*
X0221650Y0950000D03*
X0221650Y0900000D03*
X0228350Y0900000D03*
X0225000Y0883350D03*
X0225000Y0876650D03*
X0168350Y0900000D03*
X0161650Y0900000D03*
X0165000Y0883350D03*
X0165000Y0876650D03*
X0135000Y0876650D03*
X0125000Y0876650D03*
X0125000Y0883350D03*
X0135000Y0883350D03*
D34*
X0115000Y0860000D03*
X0185000Y0860000D03*
X0250000Y0860000D03*
X0302500Y0860000D03*
X0355000Y0860000D03*
X0407500Y0860000D03*
D31*
X0397500Y0860000D03*
X0345000Y0860000D03*
X0292500Y0860000D03*
X0240000Y0860000D03*
X0230000Y0860000D03*
X0175000Y0860000D03*
X0165000Y0860000D03*
X0105000Y0860000D03*
X0095000Y0860000D03*
X0085000Y0860000D03*
X0075000Y0860000D03*
D126*
X0069500Y0826000D03*
X0120500Y0826000D03*
X0159500Y0826000D03*
X0190500Y0826000D03*
X0224500Y0826000D03*
X0255500Y0826000D03*
X0287000Y0826000D03*
X0308000Y0826000D03*
X0339500Y0826000D03*
X0360500Y0826000D03*
X0392000Y0826000D03*
X0413000Y0826000D03*
D84*
X0235000Y0872720D03*
X0215000Y0872720D03*
X0215000Y0887280D03*
X0235000Y0887280D03*
X0175000Y0887280D03*
X0155000Y0887280D03*
X0145000Y0887280D03*
X0115000Y0887280D03*
X0115000Y0872720D03*
X0145000Y0872720D03*
X0155000Y0872720D03*
X0175000Y0872720D03*
X0050000Y0907720D03*
X0040000Y0907720D03*
X0040000Y0922280D03*
X0050000Y0922280D03*
X0050000Y0937720D03*
X0040000Y0937720D03*
X0040000Y0952280D03*
X0050000Y0952280D03*
D120*
X0062430Y0955000D02*
X0067570Y0955000D01*
X0082430Y0955000D02*
X0087570Y0955000D01*
X0087570Y0945000D02*
X0082430Y0945000D01*
X0067570Y0945000D02*
X0062430Y0945000D01*
X0062430Y0935000D02*
X0067570Y0935000D01*
X0082430Y0935000D02*
X0087570Y0935000D01*
X0087570Y0925000D02*
X0082430Y0925000D01*
X0067570Y0925000D02*
X0062430Y0925000D01*
X0062430Y0905000D02*
X0067570Y0905000D01*
X0082430Y0905000D02*
X0087570Y0905000D01*
D71*
X0082280Y0895000D03*
X0067720Y0895000D03*
X0067720Y0965000D03*
X0082280Y0965000D03*
D42*
X0115870Y0940000D03*
X0124130Y0940000D03*
X0124130Y0930000D03*
X0115870Y0930000D03*
X0115870Y0920000D03*
X0124130Y0920000D03*
X0124130Y0910000D03*
X0115870Y0910000D03*
X0275870Y0882500D03*
X0284130Y0882500D03*
X0318370Y0882500D03*
X0326630Y0882500D03*
X0360870Y0882500D03*
X0369130Y0882500D03*
X0403370Y0882500D03*
X0411630Y0882500D03*
X0445870Y0882500D03*
X0454130Y0882500D03*
X0488370Y0882500D03*
X0496630Y0882500D03*
D140*
X0279100Y0972800D03*
X0270000Y0972800D03*
X0260900Y0972800D03*
D13*
X0270000Y0997200D03*
D53*
X0250000Y0990510D03*
X0250000Y0979490D03*
X0290000Y0979490D03*
X0290000Y0990510D03*
D96*
X0315610Y0985390D03*
X0329390Y0985390D03*
X0358110Y0985390D03*
X0371890Y0985390D03*
X0400610Y0985390D03*
X0414390Y0985390D03*
X0443110Y0985390D03*
X0456890Y0985390D03*
X0454390Y0824610D03*
X0440610Y0824610D03*
D124*
X0045000Y0820000D03*
X0045000Y0990000D03*
X0497500Y0990000D03*
X0497500Y0820000D03*
D75*
X0492500Y0920000D03*
X0450000Y0920000D03*
X0407500Y0920000D03*
X0365000Y0920000D03*
X0322500Y0920000D03*
X0280000Y0920000D03*
D123*
X0280000Y0901100D03*
X0322500Y0901100D03*
X0365000Y0901100D03*
X0407500Y0901100D03*
X0450000Y0901100D03*
X0492500Y0901100D03*
X0492500Y0938900D03*
X0450000Y0938900D03*
X0407500Y0938900D03*
X0365000Y0938900D03*
X0322500Y0938900D03*
X0280000Y0938900D03*
D138*
X0237500Y0945000D03*
X0237500Y0955000D03*
X0225000Y0955000D03*
X0217500Y0955000D03*
X0205000Y0952500D03*
X0192500Y0957500D03*
X0195000Y0962500D03*
X0195000Y0972500D03*
X0185000Y0980000D03*
X0162500Y0990000D03*
X0125000Y0972500D03*
X0115000Y0980000D03*
X0075000Y0980000D03*
X0045000Y0967500D03*
X0035000Y0972500D03*
X0045000Y0957500D03*
X0045000Y0947500D03*
X0050000Y0930000D03*
X0054500Y0922500D03*
X0071500Y0918500D03*
X0075000Y0925000D03*
X0095000Y0925000D03*
X0105000Y0925000D03*
X0112500Y0915000D03*
X0132500Y0925000D03*
X0137500Y0915000D03*
X0157500Y0925000D03*
X0175000Y0920000D03*
X0197500Y0920000D03*
X0212500Y0915000D03*
X0217500Y0905000D03*
X0237500Y0915000D03*
X0232500Y0925000D03*
X0212500Y0945000D03*
X0175000Y0945000D03*
X0152500Y0945000D03*
X0165000Y0935000D03*
X0165000Y0955000D03*
X0172500Y0957500D03*
X0100000Y0950000D03*
X0100000Y0900000D03*
X0125000Y0897500D03*
X0132500Y0897500D03*
X0180000Y0872500D03*
X0197500Y0872500D03*
X0240000Y0872500D03*
X0150000Y0867500D03*
X0135000Y0815000D03*
X0247500Y0965000D03*
X0240000Y0990000D03*
X0230000Y0990000D03*
D146*
X0290000Y0970000D03*
X0290000Y0940000D03*
D72*
X0415000Y0955000D03*
D15*
X0350000Y0910000D03*
X0302500Y0920000D03*
X0425000Y0812500D03*
D151*
X0225000Y0865000D03*
X0517500Y0030000D02*
G75*
%LPD*%
D12*
X0754980Y0290510D03*
D131*
X0772500Y0047500D03*
X0582500Y0047500D03*
D82*
X0582500Y0057500D03*
X0582500Y0067500D03*
X0582500Y0077500D03*
X0582500Y0087500D03*
X0582500Y0097500D03*
X0582500Y0107500D03*
X0582500Y0117500D03*
X0582500Y0127500D03*
X0582500Y0137500D03*
X0582500Y0147500D03*
X0582500Y0157500D03*
X0582500Y0167500D03*
X0582500Y0177500D03*
X0582500Y0187500D03*
X0582500Y0197500D03*
X0582500Y0207500D03*
X0582500Y0217500D03*
X0582500Y0227500D03*
X0582500Y0237500D03*
X0582500Y0247500D03*
X0582500Y0257500D03*
X0582500Y0267500D03*
X0572500Y0267500D03*
X0572500Y0257500D03*
X0572500Y0247500D03*
X0572500Y0237500D03*
X0572500Y0227500D03*
X0572500Y0217500D03*
X0572500Y0207500D03*
X0572500Y0197500D03*
X0572500Y0187500D03*
X0572500Y0177500D03*
X0572500Y0167500D03*
X0572500Y0157500D03*
X0572500Y0147500D03*
X0572500Y0137500D03*
X0572500Y0127500D03*
X0572500Y0117500D03*
X0572500Y0107500D03*
X0572500Y0097500D03*
X0572500Y0087500D03*
X0572500Y0077500D03*
X0572500Y0067500D03*
X0572500Y0057500D03*
X0572500Y0047500D03*
X0762500Y0047500D03*
X0762500Y0057500D03*
X0762500Y0067500D03*
X0762500Y0077500D03*
X0762500Y0087500D03*
X0772500Y0087500D03*
X0772500Y0077500D03*
X0772500Y0067500D03*
X0772500Y0057500D03*
X0772500Y0097500D03*
X0772500Y0107500D03*
X0772500Y0117500D03*
X0772500Y0127500D03*
X0772500Y0137500D03*
X0772500Y0147500D03*
X0772500Y0157500D03*
X0772500Y0167500D03*
X0772500Y0177500D03*
X0772500Y0187500D03*
X0772500Y0197500D03*
X0772500Y0207500D03*
X0772500Y0217500D03*
X0772500Y0227500D03*
X0772500Y0237500D03*
X0772500Y0247500D03*
X0772500Y0257500D03*
X0772500Y0267500D03*
X0762500Y0267500D03*
X0762500Y0257500D03*
X0762500Y0247500D03*
X0762500Y0237500D03*
X0762500Y0227500D03*
X0762500Y0217500D03*
X0762500Y0207500D03*
X0762500Y0197500D03*
X0762500Y0187500D03*
X0762500Y0177500D03*
X0762500Y0167500D03*
X0762500Y0157500D03*
X0762500Y0147500D03*
X0762500Y0137500D03*
X0762500Y0127500D03*
X0762500Y0117500D03*
X0762500Y0107500D03*
X0762500Y0097500D03*
D132*
X0738000Y0097500D03*
X0737000Y0107500D03*
X0738000Y0117500D03*
X0737000Y0127500D03*
X0738000Y0137500D03*
X0737000Y0147500D03*
X0738000Y0157500D03*
X0737000Y0167500D03*
X0738000Y0177500D03*
X0737000Y0187500D03*
X0738000Y0197500D03*
X0737000Y0207500D03*
X0738000Y0217500D03*
X0737000Y0227500D03*
X0738000Y0237500D03*
X0737000Y0247500D03*
X0738000Y0257500D03*
X0737000Y0267500D03*
X0738000Y0277500D03*
X0747500Y0342000D03*
X0757500Y0343000D03*
X0767500Y0342000D03*
X0777500Y0343000D03*
X0787500Y0342000D03*
X0797500Y0343000D03*
X0807500Y0342000D03*
X0817500Y0343000D03*
X0827500Y0342000D03*
X0827500Y0363500D03*
X0817500Y0362500D03*
X0807500Y0363500D03*
X0797500Y0362500D03*
X0787500Y0363500D03*
X0777500Y0362500D03*
X0767500Y0363500D03*
X0757500Y0362500D03*
X0747500Y0363500D03*
X0788000Y0277500D03*
X0787000Y0267500D03*
X0788000Y0257500D03*
X0787000Y0247500D03*
X0788000Y0237500D03*
X0787000Y0227500D03*
X0788000Y0217500D03*
X0787000Y0207500D03*
X0788000Y0197500D03*
X0787000Y0187500D03*
X0788000Y0177500D03*
X0787000Y0167500D03*
X0788000Y0157500D03*
X0787000Y0147500D03*
X0788000Y0137500D03*
X0787000Y0127500D03*
X0788000Y0117500D03*
X0787000Y0107500D03*
X0788000Y0097500D03*
X0787000Y0087500D03*
X0788000Y0077500D03*
X0787000Y0067500D03*
X0788000Y0057500D03*
X0787000Y0047500D03*
X0822500Y0097500D03*
X0827500Y0107500D03*
X0832500Y0097500D03*
X0837500Y0107500D03*
X0842500Y0097500D03*
X0847500Y0107500D03*
X0850500Y0130000D03*
X0849500Y0140000D03*
X0850500Y0150000D03*
X0849500Y0190000D03*
X0850500Y0200000D03*
X0849500Y0210000D03*
X0850500Y0260000D03*
X0849500Y0270000D03*
X0850500Y0280000D03*
X0850500Y0320000D03*
X0849500Y0330000D03*
X0850500Y0340000D03*
X0850500Y0380000D03*
X0849500Y0390000D03*
X0850500Y0400000D03*
X0750000Y0197500D03*
X0750000Y0187500D03*
X0750000Y0177500D03*
X0750000Y0167500D03*
X0750000Y0157500D03*
X0750000Y0147500D03*
X0718000Y0137500D03*
X0717000Y0127500D03*
X0718000Y0117500D03*
X0717000Y0107500D03*
X0718000Y0097500D03*
X0717000Y0087500D03*
X0698000Y0097500D03*
X0697000Y0107500D03*
X0698000Y0117500D03*
X0697000Y0127500D03*
X0698000Y0137500D03*
X0697000Y0147500D03*
X0698000Y0157500D03*
X0697000Y0167500D03*
X0698000Y0177500D03*
X0717000Y0167500D03*
X0718000Y0157500D03*
X0717000Y0147500D03*
X0718000Y0177500D03*
X0737000Y0087500D03*
X0738000Y0077500D03*
X0737000Y0067500D03*
X0738000Y0057500D03*
X0737000Y0047500D03*
X0697000Y0087500D03*
X0598000Y0087500D03*
X0597000Y0077500D03*
X0598000Y0067500D03*
X0597000Y0057500D03*
X0598000Y0047500D03*
X0597000Y0037500D03*
X0597000Y0097500D03*
X0598000Y0107500D03*
X0597000Y0117500D03*
X0598000Y0127500D03*
X0597000Y0137500D03*
X0598000Y0147500D03*
X0597000Y0157500D03*
X0598000Y0167500D03*
X0597000Y0177500D03*
X0598000Y0187500D03*
X0597000Y0197500D03*
X0598000Y0207500D03*
X0597000Y0217500D03*
X0598000Y0227500D03*
X0597000Y0237500D03*
X0598000Y0247500D03*
X0597000Y0257500D03*
X0598000Y0267500D03*
X0558000Y0267500D03*
X0557000Y0257500D03*
X0558000Y0247500D03*
X0557000Y0237500D03*
X0558000Y0227500D03*
X0557000Y0217500D03*
X0558000Y0207500D03*
X0557000Y0197500D03*
X0558000Y0187500D03*
X0557000Y0177500D03*
X0558000Y0167500D03*
X0557000Y0157500D03*
X0558000Y0147500D03*
X0557000Y0137500D03*
X0558000Y0127500D03*
X0557000Y0117500D03*
X0558000Y0107500D03*
X0557000Y0097500D03*
X0558000Y0087500D03*
X0557000Y0077500D03*
X0558000Y0067500D03*
X0557000Y0057500D03*
X0558000Y0047500D03*
X0557000Y0037500D03*
X0544500Y0352500D03*
X0544500Y0362500D03*
X0544500Y0372500D03*
X0544500Y0382500D03*
X0544500Y0392500D03*
X0544500Y0402500D03*
X0544500Y0412500D03*
X0544500Y0422500D03*
X0544500Y0432500D03*
X0544500Y0442500D03*
X0544500Y0452500D03*
X0544500Y0462500D03*
X0544500Y0472500D03*
X0544500Y0482500D03*
X0544500Y0492500D03*
X0544500Y0502500D03*
X0544500Y0512500D03*
X0522500Y0512500D03*
X0522500Y0502500D03*
X0522500Y0492500D03*
X0522500Y0482500D03*
X0522500Y0472500D03*
X0522500Y0462500D03*
X0522500Y0452500D03*
X0522500Y0442500D03*
X0522500Y0432500D03*
X0522500Y0422500D03*
X0522500Y0412500D03*
X0522500Y0402500D03*
X0522500Y0392500D03*
X0522500Y0382500D03*
X0522500Y0372500D03*
X0522500Y0362500D03*
X0522500Y0522500D03*
X0614090Y0756910D03*
X0625000Y0756910D03*
X0635900Y0756910D03*
X0641340Y0768090D03*
X0630430Y0768090D03*
X0619560Y0768090D03*
X0608660Y0768090D03*
X0646810Y0756910D03*
X0726800Y0732500D03*
X0738200Y0732500D03*
X0875000Y0733000D03*
X0885000Y0732000D03*
X0895000Y0733000D03*
X0905000Y0732000D03*
X0915000Y0733000D03*
X0920000Y0107500D03*
X0915000Y0097500D03*
X0910000Y0107500D03*
X0905000Y0097500D03*
X0900000Y0107500D03*
X0895000Y0097500D03*
X0890000Y0107500D03*
X0817500Y0107500D03*
D117*
X0697500Y0067500D03*
X0627500Y0067500D03*
X0627500Y0197500D03*
X0697500Y0197500D03*
X0747500Y0478600D03*
X0827500Y0478600D03*
D124*
X0532500Y0045000D03*
X0952500Y0045000D03*
X0952500Y0785000D03*
X0532500Y0785000D03*
D16*
X0835000Y0558010D03*
X0835000Y0546990D03*
X0867500Y0579490D03*
X0867500Y0590510D03*
X0852500Y0480510D03*
X0852500Y0469490D03*
X0912500Y0469490D03*
X0912500Y0480510D03*
X0947500Y0579490D03*
X0947500Y0590510D03*
D119*
X0910230Y0540000D03*
X0910230Y0535000D03*
X0910230Y0530000D03*
X0910230Y0525000D03*
X0889760Y0525000D03*
X0889760Y0530000D03*
X0889760Y0535000D03*
X0889760Y0540000D03*
D23*
X0896650Y0547500D03*
X0903340Y0547500D03*
X0905000Y0515850D03*
X0905000Y0509150D03*
X0920000Y0509150D03*
X0920000Y0515850D03*
X0927500Y0515850D03*
X0927500Y0509150D03*
X0944150Y0462500D03*
X0950840Y0462500D03*
X0875840Y0507500D03*
X0875840Y0515000D03*
X0869150Y0515000D03*
X0869150Y0507500D03*
X0857500Y0509150D03*
X0857500Y0515850D03*
X0823340Y0572500D03*
X0816650Y0572500D03*
X0803340Y0542500D03*
X0796650Y0542500D03*
X0780840Y0542500D03*
X0774150Y0542500D03*
X0816650Y0607500D03*
X0823340Y0607500D03*
X0825000Y0656650D03*
X0825000Y0663350D03*
X0815000Y0663350D03*
X0815000Y0656650D03*
X0805000Y0656650D03*
X0805000Y0663350D03*
X0785000Y0663350D03*
X0785000Y0656650D03*
X0775000Y0656650D03*
X0775000Y0663350D03*
X0775000Y0684150D03*
X0775000Y0690850D03*
X0782500Y0690850D03*
X0782500Y0684150D03*
X0767500Y0684150D03*
X0767500Y0690850D03*
X0762500Y0744150D03*
X0762500Y0750850D03*
X0717500Y0689850D03*
X0717500Y0683150D03*
X0697500Y0701650D03*
X0697500Y0708350D03*
X0677500Y0708350D03*
X0677500Y0701650D03*
X0655000Y0701650D03*
X0655000Y0708350D03*
X0632500Y0708350D03*
X0632500Y0701650D03*
X0610000Y0701650D03*
X0610000Y0708350D03*
X0587500Y0708350D03*
X0587500Y0701650D03*
X0565000Y0701650D03*
X0565000Y0708350D03*
X0558340Y0720000D03*
X0551650Y0720000D03*
X0545000Y0708350D03*
X0545000Y0701650D03*
X0567500Y0648350D03*
X0567500Y0641650D03*
X0575000Y0641650D03*
X0575000Y0648350D03*
X0582500Y0648350D03*
X0582500Y0641650D03*
X0590000Y0641650D03*
X0590000Y0648350D03*
X0597500Y0648350D03*
X0597500Y0641650D03*
X0605000Y0641650D03*
X0605000Y0648350D03*
X0612500Y0648350D03*
X0612500Y0641650D03*
X0620000Y0641650D03*
X0620000Y0648350D03*
X0627500Y0648350D03*
X0627500Y0641650D03*
X0635000Y0641650D03*
X0635000Y0648350D03*
X0642500Y0648350D03*
X0642500Y0641650D03*
X0650000Y0641650D03*
X0650000Y0648350D03*
X0657500Y0648350D03*
X0657500Y0641650D03*
X0665000Y0641650D03*
X0665000Y0648350D03*
X0672500Y0648350D03*
X0672500Y0641650D03*
X0680000Y0641650D03*
X0680000Y0648350D03*
X0687500Y0648350D03*
X0687500Y0641650D03*
X0695000Y0641650D03*
X0695000Y0648350D03*
X0720000Y0633350D03*
X0720000Y0626650D03*
X0727500Y0626650D03*
X0727500Y0633350D03*
X0735000Y0633350D03*
X0735000Y0626650D03*
X0656840Y0605500D03*
X0650150Y0605500D03*
X0575840Y0595000D03*
X0569150Y0595000D03*
X0540840Y0595000D03*
X0534150Y0595000D03*
X0535840Y0570000D03*
X0529150Y0570000D03*
X0529150Y0542500D03*
X0535840Y0542500D03*
X0675000Y0268350D03*
X0675000Y0261650D03*
X0819150Y0257500D03*
X0825840Y0257500D03*
X0828340Y0155000D03*
X0821650Y0155000D03*
X0892500Y0626650D03*
X0892500Y0633350D03*
X0900000Y0633350D03*
X0900000Y0626650D03*
X0907500Y0626650D03*
X0907500Y0633350D03*
X0915000Y0633350D03*
X0915000Y0626650D03*
X0922500Y0626650D03*
X0922500Y0633350D03*
X0930000Y0633350D03*
X0930000Y0626650D03*
X0912500Y0684150D03*
X0912500Y0690850D03*
X0890000Y0690850D03*
X0890000Y0684150D03*
X0885000Y0716650D03*
X0885000Y0723350D03*
X0875000Y0723350D03*
X0875000Y0716650D03*
D49*
X0870000Y0690850D03*
X0870000Y0684150D03*
X0876650Y0675000D03*
X0883340Y0675000D03*
X0934150Y0675000D03*
X0940840Y0675000D03*
X0947500Y0684150D03*
X0947500Y0690850D03*
X0945840Y0715000D03*
X0945840Y0725000D03*
X0945840Y0735000D03*
X0945840Y0745000D03*
X0939150Y0745000D03*
X0939150Y0735000D03*
X0939150Y0725000D03*
X0939150Y0715000D03*
X0912500Y0515850D03*
X0912500Y0509150D03*
X0897500Y0509150D03*
X0897500Y0515850D03*
X0890000Y0515850D03*
X0890000Y0509150D03*
X0858340Y0497500D03*
X0851650Y0497500D03*
X0854150Y0415000D03*
X0860840Y0415000D03*
X0853340Y0350000D03*
X0846650Y0350000D03*
X0840840Y0270000D03*
X0834150Y0270000D03*
X0833340Y0210000D03*
X0826650Y0210000D03*
X0826650Y0200000D03*
X0833340Y0200000D03*
X0753340Y0087500D03*
X0746650Y0087500D03*
X0688340Y0117500D03*
X0688340Y0127500D03*
X0681650Y0127500D03*
X0681650Y0117500D03*
X0682500Y0261650D03*
X0682500Y0268350D03*
X0655000Y0268350D03*
X0655000Y0261650D03*
X0643340Y0295000D03*
X0636650Y0295000D03*
X0717500Y0268350D03*
X0717500Y0261650D03*
X0774150Y0512500D03*
X0780840Y0512500D03*
X0780840Y0520000D03*
X0774150Y0520000D03*
X0774150Y0527500D03*
X0780840Y0527500D03*
X0780840Y0535000D03*
X0774150Y0535000D03*
X0745840Y0675000D03*
X0739150Y0675000D03*
X0752500Y0684150D03*
X0752500Y0690850D03*
X0615000Y0623350D03*
X0615000Y0616650D03*
X0575840Y0600000D03*
X0575840Y0590000D03*
X0569150Y0590000D03*
X0569150Y0600000D03*
X0540840Y0600000D03*
X0540840Y0590000D03*
X0534150Y0590000D03*
X0534150Y0600000D03*
X0530840Y0630000D03*
X0530840Y0637500D03*
X0530840Y0645000D03*
X0530840Y0652500D03*
X0530840Y0660000D03*
X0530840Y0667500D03*
X0524150Y0667500D03*
X0524150Y0660000D03*
X0524150Y0652500D03*
X0524150Y0645000D03*
X0524150Y0637500D03*
X0524150Y0630000D03*
X0539150Y0725000D03*
X0539150Y0732500D03*
X0539150Y0740000D03*
X0539150Y0747500D03*
X0539150Y0755000D03*
X0539150Y0762500D03*
X0545840Y0762500D03*
X0545840Y0755000D03*
X0545840Y0747500D03*
X0545840Y0740000D03*
X0545840Y0732500D03*
X0545840Y0725000D03*
X0944150Y0487500D03*
X0950840Y0487500D03*
D141*
X0925000Y0524040D03*
X0925000Y0540960D03*
D25*
X0941980Y0512500D03*
X0941980Y0500000D03*
X0953010Y0500000D03*
X0953010Y0512500D03*
X0878010Y0525000D03*
X0866980Y0525000D03*
X0866980Y0537500D03*
X0878010Y0537500D03*
X0805510Y0500000D03*
X0794480Y0500000D03*
D143*
X0938240Y0532500D03*
X0956750Y0532500D03*
D42*
X0953360Y0715000D03*
X0953360Y0725000D03*
X0953360Y0735000D03*
X0953360Y0745000D03*
X0961630Y0745000D03*
X0961630Y0735000D03*
X0961630Y0725000D03*
X0961630Y0715000D03*
X0825000Y0649130D03*
X0825000Y0640870D03*
X0815000Y0640870D03*
X0815000Y0649130D03*
X0805000Y0649130D03*
X0805000Y0640870D03*
X0795000Y0640870D03*
X0795000Y0649130D03*
X0785000Y0649130D03*
X0785000Y0640870D03*
X0775000Y0640870D03*
X0775000Y0649130D03*
X0762500Y0758370D03*
X0762500Y0766630D03*
X0546630Y0667500D03*
X0546630Y0660000D03*
X0546630Y0652500D03*
X0546630Y0645000D03*
X0546630Y0637500D03*
X0546630Y0630000D03*
X0538360Y0630000D03*
X0538360Y0637500D03*
X0538360Y0645000D03*
X0538360Y0652500D03*
X0538360Y0660000D03*
X0538360Y0667500D03*
X0531630Y0725000D03*
X0531630Y0732500D03*
X0531630Y0740000D03*
X0531630Y0747500D03*
X0531630Y0755000D03*
X0531630Y0762500D03*
X0523360Y0762500D03*
X0523360Y0755000D03*
X0523360Y0747500D03*
X0523360Y0740000D03*
X0523360Y0732500D03*
X0523360Y0725000D03*
D33*
X0567500Y0680240D03*
X0572500Y0680240D03*
X0577500Y0680240D03*
X0582500Y0680240D03*
X0590000Y0680240D03*
X0595000Y0680240D03*
X0600000Y0680240D03*
X0605000Y0680240D03*
X0612500Y0680240D03*
X0617500Y0680240D03*
X0622500Y0680240D03*
X0627500Y0680240D03*
X0635000Y0680240D03*
X0640000Y0680240D03*
X0645000Y0680240D03*
X0650000Y0680240D03*
X0657500Y0680240D03*
X0662500Y0680240D03*
X0667500Y0680240D03*
X0672500Y0680240D03*
X0680000Y0680240D03*
X0685000Y0680240D03*
X0690000Y0680240D03*
X0695000Y0680240D03*
X0695000Y0659760D03*
X0690000Y0659760D03*
X0685000Y0659760D03*
X0680000Y0659760D03*
X0672500Y0659760D03*
X0667500Y0659760D03*
X0662500Y0659760D03*
X0657500Y0659760D03*
X0650000Y0659760D03*
X0645000Y0659760D03*
X0640000Y0659760D03*
X0635000Y0659760D03*
X0627500Y0659760D03*
X0622500Y0659760D03*
X0617500Y0659760D03*
X0612500Y0659760D03*
X0605000Y0659760D03*
X0600000Y0659760D03*
X0595000Y0659760D03*
X0590000Y0659760D03*
X0582500Y0659760D03*
X0577500Y0659760D03*
X0572500Y0659760D03*
X0567500Y0659760D03*
X0720000Y0665240D03*
X0725000Y0665240D03*
X0730000Y0665240D03*
X0735000Y0665240D03*
X0735000Y0644760D03*
X0730000Y0644760D03*
X0725000Y0644760D03*
X0720000Y0644760D03*
X0892500Y0644760D03*
X0897500Y0644760D03*
X0902500Y0644760D03*
X0907500Y0644760D03*
X0915000Y0644760D03*
X0920000Y0644760D03*
X0925000Y0644760D03*
X0930000Y0644760D03*
X0930000Y0665240D03*
X0925000Y0665240D03*
X0920000Y0665240D03*
X0915000Y0665240D03*
X0907500Y0665240D03*
X0902500Y0665240D03*
X0897500Y0665240D03*
X0892500Y0665240D03*
D83*
X0850500Y0220000D03*
X0885000Y0097500D03*
X0812500Y0097500D03*
X0544500Y0522500D03*
X0522500Y0352500D03*
X0603190Y0756910D03*
D64*
X0575780Y0762500D03*
X0674210Y0762500D03*
D137*
X0665000Y0716020D03*
X0665000Y0693980D03*
X0642500Y0693980D03*
X0642500Y0716020D03*
X0620000Y0716020D03*
X0620000Y0693980D03*
X0597500Y0693980D03*
X0597500Y0716020D03*
X0575000Y0716020D03*
X0575000Y0693980D03*
X0687500Y0693980D03*
X0687500Y0716020D03*
X0727500Y0698520D03*
X0727500Y0676480D03*
X0900000Y0676480D03*
X0900000Y0698520D03*
X0922500Y0698520D03*
X0922500Y0676480D03*
X0927500Y0498520D03*
X0927500Y0476480D03*
D14*
X0943760Y0480120D03*
X0947500Y0480120D03*
X0951240Y0480120D03*
X0951240Y0469880D03*
X0943760Y0469880D03*
X0941240Y0682380D03*
X0937500Y0682380D03*
X0933760Y0682380D03*
X0933760Y0692620D03*
X0941240Y0692620D03*
X0883740Y0692620D03*
X0876260Y0692620D03*
X0876260Y0682380D03*
X0880000Y0682380D03*
X0883740Y0682380D03*
X0746240Y0682380D03*
X0742500Y0682380D03*
X0738760Y0682380D03*
X0738760Y0692620D03*
X0746240Y0692620D03*
X0711240Y0699880D03*
X0707500Y0699880D03*
X0703760Y0699880D03*
X0703760Y0710120D03*
X0711240Y0710120D03*
X0558740Y0710120D03*
X0551260Y0710120D03*
X0551260Y0699880D03*
X0555000Y0699880D03*
X0558740Y0699880D03*
D115*
X0620980Y0626490D03*
X0623540Y0626490D03*
X0626100Y0626490D03*
X0628660Y0626490D03*
X0631220Y0626490D03*
X0633780Y0626490D03*
X0636340Y0626490D03*
X0638890Y0626490D03*
X0641450Y0626490D03*
X0644010Y0626490D03*
X0644010Y0603510D03*
X0641450Y0603510D03*
X0638890Y0603510D03*
X0636340Y0603510D03*
X0633780Y0603510D03*
X0631220Y0603510D03*
X0628660Y0603510D03*
X0626100Y0603510D03*
X0623540Y0603510D03*
X0620980Y0603510D03*
X0688480Y0276490D03*
X0691040Y0276490D03*
X0693600Y0276490D03*
X0696160Y0276490D03*
X0698720Y0276490D03*
X0701280Y0276490D03*
X0703840Y0276490D03*
X0706390Y0276490D03*
X0708950Y0276490D03*
X0711510Y0276490D03*
X0711510Y0253510D03*
X0708950Y0253510D03*
X0706390Y0253510D03*
X0703840Y0253510D03*
X0701280Y0253510D03*
X0698720Y0253510D03*
X0696160Y0253510D03*
X0693600Y0253510D03*
X0691040Y0253510D03*
X0688480Y0253510D03*
D60*
X0566480Y0536040D03*
X0566480Y0538600D03*
X0566480Y0541160D03*
X0566480Y0543720D03*
X0566480Y0546280D03*
X0566480Y0548840D03*
X0566480Y0551400D03*
X0566480Y0553960D03*
X0566480Y0563540D03*
X0566480Y0566100D03*
X0566480Y0568660D03*
X0566480Y0571220D03*
X0566480Y0573780D03*
X0566480Y0576340D03*
X0566480Y0578900D03*
X0566480Y0581460D03*
X0543510Y0581460D03*
X0543510Y0578900D03*
X0543510Y0576340D03*
X0543510Y0573780D03*
X0543510Y0571220D03*
X0543510Y0568660D03*
X0543510Y0566100D03*
X0543510Y0563540D03*
X0543510Y0553960D03*
X0543510Y0551400D03*
X0543510Y0548840D03*
X0543510Y0546280D03*
X0543510Y0543720D03*
X0543510Y0541160D03*
X0543510Y0538600D03*
X0543510Y0536040D03*
X0808510Y0578480D03*
X0808510Y0581040D03*
X0808510Y0583600D03*
X0808510Y0586160D03*
X0808510Y0588720D03*
X0808510Y0591280D03*
X0808510Y0593840D03*
X0808510Y0596400D03*
X0808510Y0598960D03*
X0808510Y0601520D03*
X0831480Y0601520D03*
X0831480Y0598960D03*
X0831480Y0596400D03*
X0831480Y0593840D03*
X0831480Y0591280D03*
X0831480Y0588720D03*
X0831480Y0586160D03*
X0831480Y0583600D03*
X0831480Y0581040D03*
X0831480Y0578480D03*
D34*
X0875000Y0745000D03*
X0727500Y0745000D03*
X0862500Y0400000D03*
X0862500Y0340000D03*
X0862500Y0280000D03*
X0862500Y0220000D03*
X0862500Y0150000D03*
X0612500Y0325000D03*
X0580000Y0325000D03*
D31*
X0580000Y0315000D03*
X0580000Y0305000D03*
X0612500Y0305000D03*
X0612500Y0315000D03*
X0862500Y0320000D03*
X0862500Y0330000D03*
X0862500Y0380000D03*
X0862500Y0390000D03*
X0862500Y0270000D03*
X0862500Y0260000D03*
X0862500Y0210000D03*
X0862500Y0200000D03*
X0862500Y0190000D03*
X0862500Y0140000D03*
X0862500Y0130000D03*
X0885000Y0745000D03*
X0895000Y0745000D03*
X0905000Y0745000D03*
X0915000Y0745000D03*
X0737500Y0745000D03*
D126*
X0743000Y0779000D03*
X0722000Y0779000D03*
X0869500Y0779000D03*
X0920500Y0779000D03*
X0896500Y0405500D03*
X0896500Y0374500D03*
X0896500Y0345500D03*
X0896500Y0314500D03*
X0896500Y0285500D03*
X0896500Y0254500D03*
X0896500Y0225500D03*
X0896500Y0184500D03*
X0896500Y0155500D03*
X0896500Y0124500D03*
X0609500Y0289000D03*
X0577000Y0289000D03*
X0577000Y0341000D03*
X0609500Y0341000D03*
D40*
X0702500Y0567500D03*
X0712500Y0567500D03*
X0722500Y0567500D03*
X0732500Y0567500D03*
X0742500Y0567500D03*
X0752500Y0567500D03*
X0752500Y0577500D03*
X0742500Y0577500D03*
X0732500Y0577500D03*
X0722500Y0577500D03*
X0712500Y0577500D03*
X0702500Y0577500D03*
X0952500Y0605000D03*
X0952500Y0615000D03*
X0952500Y0625000D03*
X0952500Y0635000D03*
X0952500Y0645000D03*
X0962500Y0645000D03*
X0962500Y0635000D03*
X0962500Y0625000D03*
X0962500Y0615000D03*
X0962500Y0605000D03*
X0962500Y0655000D03*
X0962500Y0665000D03*
X0962500Y0675000D03*
X0952500Y0675000D03*
X0952500Y0665000D03*
X0952500Y0655000D03*
D73*
X0830000Y0756590D02*
X0830000Y0768410D01*
X0792500Y0768410D02*
X0792500Y0756590D01*
D72*
X0722500Y0517500D03*
X0722500Y0357500D03*
D84*
X0760000Y0680220D03*
X0760000Y0694780D03*
X0732500Y0707720D03*
X0732500Y0722280D03*
X0722500Y0722280D03*
X0722500Y0707720D03*
X0692500Y0725220D03*
X0692500Y0739780D03*
X0682500Y0739780D03*
X0682500Y0725220D03*
X0670000Y0725220D03*
X0670000Y0739780D03*
X0660000Y0739780D03*
X0660000Y0725220D03*
X0647500Y0725220D03*
X0647500Y0739780D03*
X0637500Y0739780D03*
X0637500Y0725220D03*
X0625000Y0725220D03*
X0625000Y0739780D03*
X0615000Y0739780D03*
X0615000Y0725220D03*
X0602500Y0725220D03*
X0602500Y0739780D03*
X0592500Y0739780D03*
X0592500Y0725220D03*
X0580000Y0725220D03*
X0580000Y0739780D03*
X0570000Y0739780D03*
X0570000Y0725220D03*
X0857500Y0714780D03*
X0867500Y0714780D03*
X0867500Y0700220D03*
X0857500Y0700220D03*
X0895000Y0707720D03*
X0895000Y0722280D03*
X0905000Y0722280D03*
X0905000Y0707720D03*
X0917500Y0707720D03*
X0917500Y0722280D03*
X0927500Y0722280D03*
X0927500Y0707720D03*
D102*
X0560710Y0597950D03*
X0560710Y0595980D03*
X0560710Y0594020D03*
X0560710Y0592050D03*
X0549290Y0592050D03*
X0549290Y0594020D03*
X0549290Y0595980D03*
X0549290Y0597950D03*
D47*
X0817380Y0273740D03*
X0817380Y0266260D03*
X0827580Y0266260D03*
X0827580Y0270000D03*
X0827580Y0273740D03*
X0867420Y0493760D03*
X0867420Y0497500D03*
X0867420Y0501240D03*
X0877610Y0501240D03*
X0877610Y0493760D03*
D142*
X0880000Y0072500D03*
X0852500Y0072500D03*
X0807500Y0072500D03*
X0925000Y0072500D03*
D39*
X0811020Y0517320D03*
X0811020Y0519880D03*
X0811020Y0522440D03*
X0811020Y0525000D03*
X0811020Y0527560D03*
X0811020Y0530120D03*
X0811020Y0532680D03*
X0788970Y0532680D03*
X0788970Y0530120D03*
X0788970Y0527560D03*
X0788970Y0525000D03*
X0788970Y0522440D03*
X0788970Y0519880D03*
X0788970Y0517320D03*
D85*
X0800000Y0525000D03*
D56*
X0826530Y0500000D03*
X0843460Y0500000D03*
D92*
X0835000Y0513980D03*
X0835000Y0536020D03*
D58*
X0740000Y0323500D03*
X0740000Y0313500D03*
X0730000Y0313500D03*
X0730000Y0323500D03*
X0720000Y0323500D03*
X0720000Y0313500D03*
X0710000Y0313500D03*
X0710000Y0323500D03*
X0700000Y0323500D03*
X0700000Y0313500D03*
X0690000Y0313500D03*
X0690000Y0323500D03*
D37*
X0814700Y0147500D03*
X0814700Y0142500D03*
X0814700Y0137500D03*
X0814700Y0132500D03*
X0835300Y0132500D03*
X0835300Y0137500D03*
X0835300Y0142500D03*
X0835300Y0147500D03*
D43*
X0668740Y0259920D03*
X0665000Y0259920D03*
X0661260Y0259920D03*
X0661260Y0270120D03*
X0668740Y0270120D03*
D55*
X0671000Y0285000D03*
X0665000Y0285000D03*
X0659000Y0285000D03*
X0924500Y0732500D03*
X0930500Y0732500D03*
D71*
X0837280Y0415000D03*
X0822710Y0415000D03*
X0842710Y0357500D03*
X0857280Y0357500D03*
X0829780Y0250000D03*
X0815210Y0250000D03*
X0822710Y0217500D03*
X0837280Y0217500D03*
X0837280Y0192500D03*
X0822710Y0192500D03*
X0647280Y0287500D03*
X0632710Y0287500D03*
D111*
X0820000Y0547000D03*
X0820000Y0553000D03*
D10*
X0820000Y0550000D03*
D20*
X0927500Y0732500D03*
D133*
X0810000Y0707800D03*
X0805000Y0707800D03*
X0800000Y0707800D03*
X0795000Y0707800D03*
X0795000Y0687200D03*
X0800000Y0687200D03*
X0805000Y0687200D03*
X0810000Y0687200D03*
D74*
X0827500Y0684510D03*
X0827500Y0710490D03*
D101*
X0608150Y0579720D03*
X0608150Y0576570D03*
X0608150Y0573430D03*
X0608150Y0570280D03*
X0608150Y0564720D03*
X0608150Y0561570D03*
X0608150Y0558430D03*
X0608150Y0555280D03*
X0608150Y0549720D03*
X0608150Y0546570D03*
X0608150Y0543430D03*
X0608150Y0540280D03*
X0608150Y0534720D03*
X0608150Y0531570D03*
X0608150Y0528430D03*
X0608150Y0525280D03*
X0601850Y0525280D03*
X0601850Y0528430D03*
X0601850Y0531570D03*
X0601850Y0534720D03*
X0601850Y0540280D03*
X0601850Y0543430D03*
X0601850Y0546570D03*
X0601850Y0549720D03*
X0601850Y0555280D03*
X0601850Y0558430D03*
X0601850Y0561570D03*
X0601850Y0564720D03*
X0601850Y0570280D03*
X0601850Y0573430D03*
X0601850Y0576570D03*
X0601850Y0579720D03*
D81*
X0872500Y0478000D02*
X0872500Y0472000D01*
X0882500Y0472000D02*
X0882500Y0478000D01*
X0892500Y0478000D02*
X0892500Y0472000D01*
X0897500Y0587000D02*
X0897500Y0593000D01*
X0907500Y0593000D02*
X0907500Y0587000D01*
X0917500Y0587000D02*
X0917500Y0593000D01*
D81*
X0935000Y0600000D03*
X0915000Y0617500D03*
X0885000Y0645000D03*
X0880000Y0590000D03*
X0880000Y0547500D03*
X0935000Y0467500D03*
X0960000Y0450000D03*
X0935000Y0395000D03*
X0937500Y0362500D03*
X0912500Y0362500D03*
X0897500Y0330000D03*
X0815000Y0455000D03*
X0815000Y0500000D03*
X0845000Y0645000D03*
X0845210Y0707500D03*
X0889000Y0707720D03*
X0911500Y0707500D03*
X0947500Y0570000D03*
X0762500Y0717500D03*
X0705000Y0660000D03*
X0960000Y0120000D03*
X0947500Y0065000D03*
X0935000Y0050000D03*
D44*
X0815000Y0280000D03*
X0817500Y0392500D03*
X0742500Y0531000D03*
X0702500Y0492500D03*
X0702500Y0466650D03*
X0657500Y0497500D03*
X0657500Y0531000D03*
X0657500Y0392500D03*
X0690000Y0392500D03*
X0677500Y0725000D03*
X0655000Y0725000D03*
X0632500Y0725000D03*
X0610000Y0725000D03*
X0587500Y0725000D03*
X0565000Y0725000D03*
X0715000Y0725000D03*
X0925000Y0465000D03*
X0957500Y0590000D03*
X0517500Y0805000D02*
G75*
%LPD*%
D119*
X0672260Y0910000D03*
X0672260Y0915000D03*
X0672260Y0920000D03*
X0672260Y0925000D03*
X0672260Y0930000D03*
X0672260Y0935000D03*
X0672260Y0940000D03*
X0692740Y0940000D03*
X0692740Y0935000D03*
X0692740Y0930000D03*
X0692740Y0925000D03*
X0692740Y0920000D03*
X0692740Y0915000D03*
X0692740Y0910000D03*
X0692740Y0957500D03*
X0692740Y0962500D03*
X0692740Y0967500D03*
X0692740Y0972500D03*
X0672260Y0972500D03*
X0672260Y0967500D03*
X0672260Y0962500D03*
X0672260Y0957500D03*
X0622740Y0957500D03*
X0622740Y0962500D03*
X0622740Y0967500D03*
X0622740Y0972500D03*
X0602260Y0972500D03*
X0602260Y0967500D03*
X0602260Y0962500D03*
X0602260Y0957500D03*
D47*
X0647380Y0961260D03*
X0657580Y0961260D03*
X0657580Y0965000D03*
X0657580Y0968740D03*
X0647380Y0968740D03*
X0707420Y0968740D03*
X0707420Y0965000D03*
X0707420Y0961260D03*
X0717620Y0961260D03*
X0717620Y0968740D03*
D49*
X0715850Y0940000D03*
X0709150Y0940000D03*
X0709150Y0920000D03*
X0715850Y0920000D03*
X0715850Y0910000D03*
X0709150Y0910000D03*
X0655850Y0910000D03*
X0649150Y0910000D03*
X0649150Y0920000D03*
X0655850Y0920000D03*
X0655850Y0940000D03*
X0649150Y0940000D03*
X0595850Y0940000D03*
X0589150Y0940000D03*
X0589150Y0930000D03*
X0595850Y0930000D03*
X0595850Y0920000D03*
X0589150Y0920000D03*
X0589150Y0910000D03*
X0595850Y0910000D03*
X0764150Y0872500D03*
X0770850Y0872500D03*
X0806650Y0872500D03*
X0813350Y0872500D03*
X0849150Y0872500D03*
X0855850Y0872500D03*
X0891650Y0872500D03*
X0898350Y0872500D03*
X0934150Y0872500D03*
X0940850Y0872500D03*
X0976650Y0872500D03*
X0983350Y0872500D03*
D23*
X0727500Y0961650D03*
X0727500Y0968350D03*
X0715850Y0980000D03*
X0709150Y0980000D03*
X0655850Y0980000D03*
X0649150Y0980000D03*
X0637500Y0968350D03*
X0637500Y0961650D03*
X0649150Y0950000D03*
X0655850Y0950000D03*
X0655850Y0930000D03*
X0649150Y0930000D03*
X0709150Y0930000D03*
X0715850Y0930000D03*
X0715850Y0950000D03*
X0709150Y0950000D03*
X0709150Y0900000D03*
X0715850Y0900000D03*
X0712500Y0883350D03*
X0712500Y0876650D03*
X0655850Y0900000D03*
X0649150Y0900000D03*
X0652500Y0883350D03*
X0652500Y0876650D03*
X0622500Y0876650D03*
X0612500Y0876650D03*
X0612500Y0883350D03*
X0622500Y0883350D03*
D34*
X0602500Y0860000D03*
X0672500Y0860000D03*
X0737500Y0860000D03*
X0790000Y0860000D03*
X0842500Y0860000D03*
X0895000Y0860000D03*
D31*
X0885000Y0860000D03*
X0832500Y0860000D03*
X0780000Y0860000D03*
X0727500Y0860000D03*
X0717500Y0860000D03*
X0662500Y0860000D03*
X0652500Y0860000D03*
X0592500Y0860000D03*
X0582500Y0860000D03*
X0572500Y0860000D03*
X0562500Y0860000D03*
D126*
X0557000Y0826000D03*
X0608000Y0826000D03*
X0647000Y0826000D03*
X0678000Y0826000D03*
X0712000Y0826000D03*
X0743000Y0826000D03*
X0774500Y0826000D03*
X0795500Y0826000D03*
X0827000Y0826000D03*
X0848000Y0826000D03*
X0879500Y0826000D03*
X0900500Y0826000D03*
D84*
X0722500Y0872720D03*
X0702500Y0872720D03*
X0702500Y0887280D03*
X0722500Y0887280D03*
X0662500Y0887280D03*
X0642500Y0887280D03*
X0632500Y0887280D03*
X0602500Y0887280D03*
X0602500Y0872720D03*
X0632500Y0872720D03*
X0642500Y0872720D03*
X0662500Y0872720D03*
X0537500Y0907720D03*
X0527500Y0907720D03*
X0527500Y0922280D03*
X0537500Y0922280D03*
X0537500Y0937720D03*
X0527500Y0937720D03*
X0527500Y0952280D03*
X0537500Y0952280D03*
D120*
X0549930Y0955000D02*
X0555070Y0955000D01*
X0569930Y0955000D02*
X0575070Y0955000D01*
X0575070Y0945000D02*
X0569930Y0945000D01*
X0555070Y0945000D02*
X0549930Y0945000D01*
X0549930Y0935000D02*
X0555070Y0935000D01*
X0569930Y0935000D02*
X0575070Y0935000D01*
X0575070Y0925000D02*
X0569930Y0925000D01*
X0555070Y0925000D02*
X0549930Y0925000D01*
X0549930Y0905000D02*
X0555070Y0905000D01*
X0569930Y0905000D02*
X0575070Y0905000D01*
D71*
X0569780Y0895000D03*
X0555220Y0895000D03*
X0555220Y0965000D03*
X0569780Y0965000D03*
D42*
X0603370Y0940000D03*
X0611630Y0940000D03*
X0611630Y0930000D03*
X0603370Y0930000D03*
X0603370Y0920000D03*
X0611630Y0920000D03*
X0611630Y0910000D03*
X0603370Y0910000D03*
X0763370Y0882500D03*
X0771630Y0882500D03*
X0805870Y0882500D03*
X0814130Y0882500D03*
X0848370Y0882500D03*
X0856630Y0882500D03*
X0890870Y0882500D03*
X0899130Y0882500D03*
X0933370Y0882500D03*
X0941630Y0882500D03*
X0975870Y0882500D03*
X0984130Y0882500D03*
D140*
X0766600Y0972800D03*
X0757500Y0972800D03*
X0748400Y0972800D03*
D13*
X0757500Y0997200D03*
D53*
X0737500Y0990510D03*
X0737500Y0979490D03*
X0777500Y0979490D03*
X0777500Y0990510D03*
D96*
X0803110Y0985390D03*
X0816890Y0985390D03*
X0845610Y0985390D03*
X0859390Y0985390D03*
X0888110Y0985390D03*
X0901890Y0985390D03*
X0930610Y0985390D03*
X0944390Y0985390D03*
X0941890Y0824610D03*
X0928110Y0824610D03*
D124*
X0532500Y0820000D03*
X0532500Y0990000D03*
X0985000Y0990000D03*
X0985000Y0820000D03*
D75*
X0980000Y0920000D03*
X0937500Y0920000D03*
X0895000Y0920000D03*
X0852500Y0920000D03*
X0810000Y0920000D03*
X0767500Y0920000D03*
D123*
X0767500Y0901100D03*
X0810000Y0901100D03*
X0852500Y0901100D03*
X0895000Y0901100D03*
X0937500Y0901100D03*
X0980000Y0901100D03*
X0980000Y0938900D03*
X0937500Y0938900D03*
X0895000Y0938900D03*
X0852500Y0938900D03*
X0810000Y0938900D03*
X0767500Y0938900D03*
D138*
X0725000Y0945000D03*
X0725000Y0955000D03*
X0712500Y0955000D03*
X0705000Y0955000D03*
X0692500Y0952500D03*
X0680000Y0957500D03*
X0682500Y0962500D03*
X0682500Y0972500D03*
X0672500Y0980000D03*
X0650000Y0990000D03*
X0612500Y0972500D03*
X0602500Y0980000D03*
X0562500Y0980000D03*
X0532500Y0967500D03*
X0522500Y0972500D03*
X0532500Y0957500D03*
X0532500Y0947500D03*
X0537500Y0930000D03*
X0542000Y0922500D03*
X0559000Y0918500D03*
X0562500Y0925000D03*
X0582500Y0925000D03*
X0592500Y0925000D03*
X0600000Y0915000D03*
X0620000Y0925000D03*
X0625000Y0915000D03*
X0645000Y0925000D03*
X0662500Y0920000D03*
X0685000Y0920000D03*
X0700000Y0915000D03*
X0705000Y0905000D03*
X0725000Y0915000D03*
X0720000Y0925000D03*
X0700000Y0945000D03*
X0662500Y0945000D03*
X0640000Y0945000D03*
X0652500Y0935000D03*
X0652500Y0955000D03*
X0660000Y0957500D03*
X0587500Y0950000D03*
X0587500Y0900000D03*
X0612500Y0897500D03*
X0620000Y0897500D03*
X0667500Y0872500D03*
X0685000Y0872500D03*
X0727500Y0872500D03*
X0637500Y0867500D03*
X0622500Y0815000D03*
X0735000Y0965000D03*
X0727500Y0990000D03*
X0717500Y0990000D03*
D146*
X0777500Y0970000D03*
X0777500Y0940000D03*
D72*
X0902500Y0955000D03*
D15*
X0837500Y0910000D03*
X0790000Y0920000D03*
X0912500Y0812500D03*
D151*
X0712500Y0865000D03*
X1005000Y0030000D02*
G75*
%LPD*%
D12*
X1242480Y0290510D03*
D131*
X1260000Y0047500D03*
X1070000Y0047500D03*
D82*
X1070000Y0057500D03*
X1070000Y0067500D03*
X1070000Y0077500D03*
X1070000Y0087500D03*
X1070000Y0097500D03*
X1070000Y0107500D03*
X1070000Y0117500D03*
X1070000Y0127500D03*
X1070000Y0137500D03*
X1070000Y0147500D03*
X1070000Y0157500D03*
X1070000Y0167500D03*
X1070000Y0177500D03*
X1070000Y0187500D03*
X1070000Y0197500D03*
X1070000Y0207500D03*
X1070000Y0217500D03*
X1070000Y0227500D03*
X1070000Y0237500D03*
X1070000Y0247500D03*
X1070000Y0257500D03*
X1070000Y0267500D03*
X1060000Y0267500D03*
X1060000Y0257500D03*
X1060000Y0247500D03*
X1060000Y0237500D03*
X1060000Y0227500D03*
X1060000Y0217500D03*
X1060000Y0207500D03*
X1060000Y0197500D03*
X1060000Y0187500D03*
X1060000Y0177500D03*
X1060000Y0167500D03*
X1060000Y0157500D03*
X1060000Y0147500D03*
X1060000Y0137500D03*
X1060000Y0127500D03*
X1060000Y0117500D03*
X1060000Y0107500D03*
X1060000Y0097500D03*
X1060000Y0087500D03*
X1060000Y0077500D03*
X1060000Y0067500D03*
X1060000Y0057500D03*
X1060000Y0047500D03*
X1250000Y0047500D03*
X1250000Y0057500D03*
X1250000Y0067500D03*
X1250000Y0077500D03*
X1250000Y0087500D03*
X1260000Y0087500D03*
X1260000Y0077500D03*
X1260000Y0067500D03*
X1260000Y0057500D03*
X1260000Y0097500D03*
X1260000Y0107500D03*
X1260000Y0117500D03*
X1260000Y0127500D03*
X1260000Y0137500D03*
X1260000Y0147500D03*
X1260000Y0157500D03*
X1260000Y0167500D03*
X1260000Y0177500D03*
X1260000Y0187500D03*
X1260000Y0197500D03*
X1260000Y0207500D03*
X1260000Y0217500D03*
X1260000Y0227500D03*
X1260000Y0237500D03*
X1260000Y0247500D03*
X1260000Y0257500D03*
X1260000Y0267500D03*
X1250000Y0267500D03*
X1250000Y0257500D03*
X1250000Y0247500D03*
X1250000Y0237500D03*
X1250000Y0227500D03*
X1250000Y0217500D03*
X1250000Y0207500D03*
X1250000Y0197500D03*
X1250000Y0187500D03*
X1250000Y0177500D03*
X1250000Y0167500D03*
X1250000Y0157500D03*
X1250000Y0147500D03*
X1250000Y0137500D03*
X1250000Y0127500D03*
X1250000Y0117500D03*
X1250000Y0107500D03*
X1250000Y0097500D03*
D132*
X1225500Y0097500D03*
X1224500Y0107500D03*
X1225500Y0117500D03*
X1224500Y0127500D03*
X1225500Y0137500D03*
X1224500Y0147500D03*
X1225500Y0157500D03*
X1224500Y0167500D03*
X1225500Y0177500D03*
X1224500Y0187500D03*
X1225500Y0197500D03*
X1224500Y0207500D03*
X1225500Y0217500D03*
X1224500Y0227500D03*
X1225500Y0237500D03*
X1224500Y0247500D03*
X1225500Y0257500D03*
X1224500Y0267500D03*
X1225500Y0277500D03*
X1235000Y0342000D03*
X1245000Y0343000D03*
X1255000Y0342000D03*
X1265000Y0343000D03*
X1275000Y0342000D03*
X1285000Y0343000D03*
X1295000Y0342000D03*
X1305000Y0343000D03*
X1315000Y0342000D03*
X1315000Y0363500D03*
X1305000Y0362500D03*
X1295000Y0363500D03*
X1285000Y0362500D03*
X1275000Y0363500D03*
X1265000Y0362500D03*
X1255000Y0363500D03*
X1245000Y0362500D03*
X1235000Y0363500D03*
X1275500Y0277500D03*
X1274500Y0267500D03*
X1275500Y0257500D03*
X1274500Y0247500D03*
X1275500Y0237500D03*
X1274500Y0227500D03*
X1275500Y0217500D03*
X1274500Y0207500D03*
X1275500Y0197500D03*
X1274500Y0187500D03*
X1275500Y0177500D03*
X1274500Y0167500D03*
X1275500Y0157500D03*
X1274500Y0147500D03*
X1275500Y0137500D03*
X1274500Y0127500D03*
X1275500Y0117500D03*
X1274500Y0107500D03*
X1275500Y0097500D03*
X1274500Y0087500D03*
X1275500Y0077500D03*
X1274500Y0067500D03*
X1275500Y0057500D03*
X1274500Y0047500D03*
X1310000Y0097500D03*
X1315000Y0107500D03*
X1320000Y0097500D03*
X1325000Y0107500D03*
X1330000Y0097500D03*
X1335000Y0107500D03*
X1338000Y0130000D03*
X1337000Y0140000D03*
X1338000Y0150000D03*
X1337000Y0190000D03*
X1338000Y0200000D03*
X1337000Y0210000D03*
X1338000Y0260000D03*
X1337000Y0270000D03*
X1338000Y0280000D03*
X1338000Y0320000D03*
X1337000Y0330000D03*
X1338000Y0340000D03*
X1338000Y0380000D03*
X1337000Y0390000D03*
X1338000Y0400000D03*
X1237500Y0197500D03*
X1237500Y0187500D03*
X1237500Y0177500D03*
X1237500Y0167500D03*
X1237500Y0157500D03*
X1237500Y0147500D03*
X1205500Y0137500D03*
X1204500Y0127500D03*
X1205500Y0117500D03*
X1204500Y0107500D03*
X1205500Y0097500D03*
X1204500Y0087500D03*
X1185500Y0097500D03*
X1184500Y0107500D03*
X1185500Y0117500D03*
X1184500Y0127500D03*
X1185500Y0137500D03*
X1184500Y0147500D03*
X1185500Y0157500D03*
X1184500Y0167500D03*
X1185500Y0177500D03*
X1204500Y0167500D03*
X1205500Y0157500D03*
X1204500Y0147500D03*
X1205500Y0177500D03*
X1224500Y0087500D03*
X1225500Y0077500D03*
X1224500Y0067500D03*
X1225500Y0057500D03*
X1224500Y0047500D03*
X1184500Y0087500D03*
X1085500Y0087500D03*
X1084500Y0077500D03*
X1085500Y0067500D03*
X1084500Y0057500D03*
X1085500Y0047500D03*
X1084500Y0037500D03*
X1084500Y0097500D03*
X1085500Y0107500D03*
X1084500Y0117500D03*
X1085500Y0127500D03*
X1084500Y0137500D03*
X1085500Y0147500D03*
X1084500Y0157500D03*
X1085500Y0167500D03*
X1084500Y0177500D03*
X1085500Y0187500D03*
X1084500Y0197500D03*
X1085500Y0207500D03*
X1084500Y0217500D03*
X1085500Y0227500D03*
X1084500Y0237500D03*
X1085500Y0247500D03*
X1084500Y0257500D03*
X1085500Y0267500D03*
X1045500Y0267500D03*
X1044500Y0257500D03*
X1045500Y0247500D03*
X1044500Y0237500D03*
X1045500Y0227500D03*
X1044500Y0217500D03*
X1045500Y0207500D03*
X1044500Y0197500D03*
X1045500Y0187500D03*
X1044500Y0177500D03*
X1045500Y0167500D03*
X1044500Y0157500D03*
X1045500Y0147500D03*
X1044500Y0137500D03*
X1045500Y0127500D03*
X1044500Y0117500D03*
X1045500Y0107500D03*
X1044500Y0097500D03*
X1045500Y0087500D03*
X1044500Y0077500D03*
X1045500Y0067500D03*
X1044500Y0057500D03*
X1045500Y0047500D03*
X1044500Y0037500D03*
X1032000Y0352500D03*
X1032000Y0362500D03*
X1032000Y0372500D03*
X1032000Y0382500D03*
X1032000Y0392500D03*
X1032000Y0402500D03*
X1032000Y0412500D03*
X1032000Y0422500D03*
X1032000Y0432500D03*
X1032000Y0442500D03*
X1032000Y0452500D03*
X1032000Y0462500D03*
X1032000Y0472500D03*
X1032000Y0482500D03*
X1032000Y0492500D03*
X1032000Y0502500D03*
X1032000Y0512500D03*
X1010000Y0512500D03*
X1010000Y0502500D03*
X1010000Y0492500D03*
X1010000Y0482500D03*
X1010000Y0472500D03*
X1010000Y0462500D03*
X1010000Y0452500D03*
X1010000Y0442500D03*
X1010000Y0432500D03*
X1010000Y0422500D03*
X1010000Y0412500D03*
X1010000Y0402500D03*
X1010000Y0392500D03*
X1010000Y0382500D03*
X1010000Y0372500D03*
X1010000Y0362500D03*
X1010000Y0522500D03*
X1101590Y0756910D03*
X1112500Y0756910D03*
X1123400Y0756910D03*
X1128840Y0768090D03*
X1117930Y0768090D03*
X1107060Y0768090D03*
X1096160Y0768090D03*
X1134310Y0756910D03*
X1214300Y0732500D03*
X1225700Y0732500D03*
X1362500Y0733000D03*
X1372500Y0732000D03*
X1382500Y0733000D03*
X1392500Y0732000D03*
X1402500Y0733000D03*
X1407500Y0107500D03*
X1402500Y0097500D03*
X1397500Y0107500D03*
X1392500Y0097500D03*
X1387500Y0107500D03*
X1382500Y0097500D03*
X1377500Y0107500D03*
X1305000Y0107500D03*
D117*
X1185000Y0067500D03*
X1115000Y0067500D03*
X1115000Y0197500D03*
X1185000Y0197500D03*
X1235000Y0478600D03*
X1315000Y0478600D03*
D124*
X1020000Y0045000D03*
X1440000Y0045000D03*
X1440000Y0785000D03*
X1020000Y0785000D03*
D16*
X1322500Y0558010D03*
X1322500Y0546990D03*
X1355000Y0579490D03*
X1355000Y0590510D03*
X1340000Y0480510D03*
X1340000Y0469490D03*
X1400000Y0469490D03*
X1400000Y0480510D03*
X1435000Y0579490D03*
X1435000Y0590510D03*
D119*
X1397730Y0540000D03*
X1397730Y0535000D03*
X1397730Y0530000D03*
X1397730Y0525000D03*
X1377260Y0525000D03*
X1377260Y0530000D03*
X1377260Y0535000D03*
X1377260Y0540000D03*
D23*
X1384150Y0547500D03*
X1390840Y0547500D03*
X1392500Y0515850D03*
X1392500Y0509150D03*
X1407500Y0509150D03*
X1407500Y0515850D03*
X1415000Y0515850D03*
X1415000Y0509150D03*
X1431650Y0462500D03*
X1438340Y0462500D03*
X1363340Y0507500D03*
X1363340Y0515000D03*
X1356650Y0515000D03*
X1356650Y0507500D03*
X1345000Y0509150D03*
X1345000Y0515850D03*
X1310840Y0572500D03*
X1304150Y0572500D03*
X1290840Y0542500D03*
X1284150Y0542500D03*
X1268340Y0542500D03*
X1261650Y0542500D03*
X1304150Y0607500D03*
X1310840Y0607500D03*
X1312500Y0656650D03*
X1312500Y0663350D03*
X1302500Y0663350D03*
X1302500Y0656650D03*
X1292500Y0656650D03*
X1292500Y0663350D03*
X1272500Y0663350D03*
X1272500Y0656650D03*
X1262500Y0656650D03*
X1262500Y0663350D03*
X1262500Y0684150D03*
X1262500Y0690850D03*
X1270000Y0690850D03*
X1270000Y0684150D03*
X1255000Y0684150D03*
X1255000Y0690850D03*
X1250000Y0744150D03*
X1250000Y0750850D03*
X1205000Y0689850D03*
X1205000Y0683150D03*
X1185000Y0701650D03*
X1185000Y0708350D03*
X1165000Y0708350D03*
X1165000Y0701650D03*
X1142500Y0701650D03*
X1142500Y0708350D03*
X1120000Y0708350D03*
X1120000Y0701650D03*
X1097500Y0701650D03*
X1097500Y0708350D03*
X1075000Y0708350D03*
X1075000Y0701650D03*
X1052500Y0701650D03*
X1052500Y0708350D03*
X1045840Y0720000D03*
X1039150Y0720000D03*
X1032500Y0708350D03*
X1032500Y0701650D03*
X1055000Y0648350D03*
X1055000Y0641650D03*
X1062500Y0641650D03*
X1062500Y0648350D03*
X1070000Y0648350D03*
X1070000Y0641650D03*
X1077500Y0641650D03*
X1077500Y0648350D03*
X1085000Y0648350D03*
X1085000Y0641650D03*
X1092500Y0641650D03*
X1092500Y0648350D03*
X1100000Y0648350D03*
X1100000Y0641650D03*
X1107500Y0641650D03*
X1107500Y0648350D03*
X1115000Y0648350D03*
X1115000Y0641650D03*
X1122500Y0641650D03*
X1122500Y0648350D03*
X1130000Y0648350D03*
X1130000Y0641650D03*
X1137500Y0641650D03*
X1137500Y0648350D03*
X1145000Y0648350D03*
X1145000Y0641650D03*
X1152500Y0641650D03*
X1152500Y0648350D03*
X1160000Y0648350D03*
X1160000Y0641650D03*
X1167500Y0641650D03*
X1167500Y0648350D03*
X1175000Y0648350D03*
X1175000Y0641650D03*
X1182500Y0641650D03*
X1182500Y0648350D03*
X1207500Y0633350D03*
X1207500Y0626650D03*
X1215000Y0626650D03*
X1215000Y0633350D03*
X1222500Y0633350D03*
X1222500Y0626650D03*
X1144340Y0605500D03*
X1137650Y0605500D03*
X1063340Y0595000D03*
X1056650Y0595000D03*
X1028340Y0595000D03*
X1021650Y0595000D03*
X1023340Y0570000D03*
X1016650Y0570000D03*
X1016650Y0542500D03*
X1023340Y0542500D03*
X1162500Y0268350D03*
X1162500Y0261650D03*
X1306650Y0257500D03*
X1313340Y0257500D03*
X1315840Y0155000D03*
X1309150Y0155000D03*
X1380000Y0626650D03*
X1380000Y0633350D03*
X1387500Y0633350D03*
X1387500Y0626650D03*
X1395000Y0626650D03*
X1395000Y0633350D03*
X1402500Y0633350D03*
X1402500Y0626650D03*
X1410000Y0626650D03*
X1410000Y0633350D03*
X1417500Y0633350D03*
X1417500Y0626650D03*
X1400000Y0684150D03*
X1400000Y0690850D03*
X1377500Y0690850D03*
X1377500Y0684150D03*
X1372500Y0716650D03*
X1372500Y0723350D03*
X1362500Y0723350D03*
X1362500Y0716650D03*
D49*
X1357500Y0690850D03*
X1357500Y0684150D03*
X1364150Y0675000D03*
X1370840Y0675000D03*
X1421650Y0675000D03*
X1428340Y0675000D03*
X1435000Y0684150D03*
X1435000Y0690850D03*
X1433340Y0715000D03*
X1433340Y0725000D03*
X1433340Y0735000D03*
X1433340Y0745000D03*
X1426650Y0745000D03*
X1426650Y0735000D03*
X1426650Y0725000D03*
X1426650Y0715000D03*
X1400000Y0515850D03*
X1400000Y0509150D03*
X1385000Y0509150D03*
X1385000Y0515850D03*
X1377500Y0515850D03*
X1377500Y0509150D03*
X1345840Y0497500D03*
X1339150Y0497500D03*
X1341650Y0415000D03*
X1348340Y0415000D03*
X1340840Y0350000D03*
X1334150Y0350000D03*
X1328340Y0270000D03*
X1321650Y0270000D03*
X1320840Y0210000D03*
X1314150Y0210000D03*
X1314150Y0200000D03*
X1320840Y0200000D03*
X1240840Y0087500D03*
X1234150Y0087500D03*
X1175840Y0117500D03*
X1175840Y0127500D03*
X1169150Y0127500D03*
X1169150Y0117500D03*
X1170000Y0261650D03*
X1170000Y0268350D03*
X1142500Y0268350D03*
X1142500Y0261650D03*
X1130840Y0295000D03*
X1124150Y0295000D03*
X1205000Y0268350D03*
X1205000Y0261650D03*
X1261650Y0512500D03*
X1268340Y0512500D03*
X1268340Y0520000D03*
X1261650Y0520000D03*
X1261650Y0527500D03*
X1268340Y0527500D03*
X1268340Y0535000D03*
X1261650Y0535000D03*
X1233340Y0675000D03*
X1226650Y0675000D03*
X1240000Y0684150D03*
X1240000Y0690850D03*
X1102500Y0623350D03*
X1102500Y0616650D03*
X1063340Y0600000D03*
X1063340Y0590000D03*
X1056650Y0590000D03*
X1056650Y0600000D03*
X1028340Y0600000D03*
X1028340Y0590000D03*
X1021650Y0590000D03*
X1021650Y0600000D03*
X1018340Y0630000D03*
X1018340Y0637500D03*
X1018340Y0645000D03*
X1018340Y0652500D03*
X1018340Y0660000D03*
X1018340Y0667500D03*
X1011650Y0667500D03*
X1011650Y0660000D03*
X1011650Y0652500D03*
X1011650Y0645000D03*
X1011650Y0637500D03*
X1011650Y0630000D03*
X1026650Y0725000D03*
X1026650Y0732500D03*
X1026650Y0740000D03*
X1026650Y0747500D03*
X1026650Y0755000D03*
X1026650Y0762500D03*
X1033340Y0762500D03*
X1033340Y0755000D03*
X1033340Y0747500D03*
X1033340Y0740000D03*
X1033340Y0732500D03*
X1033340Y0725000D03*
X1431650Y0487500D03*
X1438340Y0487500D03*
D141*
X1412500Y0524040D03*
X1412500Y0540960D03*
D25*
X1429480Y0512500D03*
X1429480Y0500000D03*
X1440510Y0500000D03*
X1440510Y0512500D03*
X1365510Y0525000D03*
X1354480Y0525000D03*
X1354480Y0537500D03*
X1365510Y0537500D03*
X1293010Y0500000D03*
X1281980Y0500000D03*
D143*
X1425740Y0532500D03*
X1444250Y0532500D03*
D42*
X1440860Y0715000D03*
X1440860Y0725000D03*
X1440860Y0735000D03*
X1440860Y0745000D03*
X1449130Y0745000D03*
X1449130Y0735000D03*
X1449130Y0725000D03*
X1449130Y0715000D03*
X1312500Y0649130D03*
X1312500Y0640870D03*
X1302500Y0640870D03*
X1302500Y0649130D03*
X1292500Y0649130D03*
X1292500Y0640870D03*
X1282500Y0640870D03*
X1282500Y0649130D03*
X1272500Y0649130D03*
X1272500Y0640870D03*
X1262500Y0640870D03*
X1262500Y0649130D03*
X1250000Y0758370D03*
X1250000Y0766630D03*
X1034130Y0667500D03*
X1034130Y0660000D03*
X1034130Y0652500D03*
X1034130Y0645000D03*
X1034130Y0637500D03*
X1034130Y0630000D03*
X1025860Y0630000D03*
X1025860Y0637500D03*
X1025860Y0645000D03*
X1025860Y0652500D03*
X1025860Y0660000D03*
X1025860Y0667500D03*
X1019130Y0725000D03*
X1019130Y0732500D03*
X1019130Y0740000D03*
X1019130Y0747500D03*
X1019130Y0755000D03*
X1019130Y0762500D03*
X1010860Y0762500D03*
X1010860Y0755000D03*
X1010860Y0747500D03*
X1010860Y0740000D03*
X1010860Y0732500D03*
X1010860Y0725000D03*
D33*
X1055000Y0680240D03*
X1060000Y0680240D03*
X1065000Y0680240D03*
X1070000Y0680240D03*
X1077500Y0680240D03*
X1082500Y0680240D03*
X1087500Y0680240D03*
X1092500Y0680240D03*
X1100000Y0680240D03*
X1105000Y0680240D03*
X1110000Y0680240D03*
X1115000Y0680240D03*
X1122500Y0680240D03*
X1127500Y0680240D03*
X1132500Y0680240D03*
X1137500Y0680240D03*
X1145000Y0680240D03*
X1150000Y0680240D03*
X1155000Y0680240D03*
X1160000Y0680240D03*
X1167500Y0680240D03*
X1172500Y0680240D03*
X1177500Y0680240D03*
X1182500Y0680240D03*
X1182500Y0659760D03*
X1177500Y0659760D03*
X1172500Y0659760D03*
X1167500Y0659760D03*
X1160000Y0659760D03*
X1155000Y0659760D03*
X1150000Y0659760D03*
X1145000Y0659760D03*
X1137500Y0659760D03*
X1132500Y0659760D03*
X1127500Y0659760D03*
X1122500Y0659760D03*
X1115000Y0659760D03*
X1110000Y0659760D03*
X1105000Y0659760D03*
X1100000Y0659760D03*
X1092500Y0659760D03*
X1087500Y0659760D03*
X1082500Y0659760D03*
X1077500Y0659760D03*
X1070000Y0659760D03*
X1065000Y0659760D03*
X1060000Y0659760D03*
X1055000Y0659760D03*
X1207500Y0665240D03*
X1212500Y0665240D03*
X1217500Y0665240D03*
X1222500Y0665240D03*
X1222500Y0644760D03*
X1217500Y0644760D03*
X1212500Y0644760D03*
X1207500Y0644760D03*
X1380000Y0644760D03*
X1385000Y0644760D03*
X1390000Y0644760D03*
X1395000Y0644760D03*
X1402500Y0644760D03*
X1407500Y0644760D03*
X1412500Y0644760D03*
X1417500Y0644760D03*
X1417500Y0665240D03*
X1412500Y0665240D03*
X1407500Y0665240D03*
X1402500Y0665240D03*
X1395000Y0665240D03*
X1390000Y0665240D03*
X1385000Y0665240D03*
X1380000Y0665240D03*
D83*
X1338000Y0220000D03*
X1372500Y0097500D03*
X1300000Y0097500D03*
X1032000Y0522500D03*
X1010000Y0352500D03*
X1090690Y0756910D03*
D64*
X1063280Y0762500D03*
X1161710Y0762500D03*
D137*
X1152500Y0716020D03*
X1152500Y0693980D03*
X1130000Y0693980D03*
X1130000Y0716020D03*
X1107500Y0716020D03*
X1107500Y0693980D03*
X1085000Y0693980D03*
X1085000Y0716020D03*
X1062500Y0716020D03*
X1062500Y0693980D03*
X1175000Y0693980D03*
X1175000Y0716020D03*
X1215000Y0698520D03*
X1215000Y0676480D03*
X1387500Y0676480D03*
X1387500Y0698520D03*
X1410000Y0698520D03*
X1410000Y0676480D03*
X1415000Y0498520D03*
X1415000Y0476480D03*
D14*
X1431260Y0480120D03*
X1435000Y0480120D03*
X1438740Y0480120D03*
X1438740Y0469880D03*
X1431260Y0469880D03*
X1428740Y0682380D03*
X1425000Y0682380D03*
X1421260Y0682380D03*
X1421260Y0692620D03*
X1428740Y0692620D03*
X1371240Y0692620D03*
X1363760Y0692620D03*
X1363760Y0682380D03*
X1367500Y0682380D03*
X1371240Y0682380D03*
X1233740Y0682380D03*
X1230000Y0682380D03*
X1226260Y0682380D03*
X1226260Y0692620D03*
X1233740Y0692620D03*
X1198740Y0699880D03*
X1195000Y0699880D03*
X1191260Y0699880D03*
X1191260Y0710120D03*
X1198740Y0710120D03*
X1046240Y0710120D03*
X1038760Y0710120D03*
X1038760Y0699880D03*
X1042500Y0699880D03*
X1046240Y0699880D03*
D115*
X1108480Y0626490D03*
X1111040Y0626490D03*
X1113600Y0626490D03*
X1116160Y0626490D03*
X1118720Y0626490D03*
X1121280Y0626490D03*
X1123840Y0626490D03*
X1126390Y0626490D03*
X1128950Y0626490D03*
X1131510Y0626490D03*
X1131510Y0603510D03*
X1128950Y0603510D03*
X1126390Y0603510D03*
X1123840Y0603510D03*
X1121280Y0603510D03*
X1118720Y0603510D03*
X1116160Y0603510D03*
X1113600Y0603510D03*
X1111040Y0603510D03*
X1108480Y0603510D03*
X1175980Y0276490D03*
X1178540Y0276490D03*
X1181100Y0276490D03*
X1183660Y0276490D03*
X1186220Y0276490D03*
X1188780Y0276490D03*
X1191340Y0276490D03*
X1193890Y0276490D03*
X1196450Y0276490D03*
X1199010Y0276490D03*
X1199010Y0253510D03*
X1196450Y0253510D03*
X1193890Y0253510D03*
X1191340Y0253510D03*
X1188780Y0253510D03*
X1186220Y0253510D03*
X1183660Y0253510D03*
X1181100Y0253510D03*
X1178540Y0253510D03*
X1175980Y0253510D03*
D60*
X1053980Y0536040D03*
X1053980Y0538600D03*
X1053980Y0541160D03*
X1053980Y0543720D03*
X1053980Y0546280D03*
X1053980Y0548840D03*
X1053980Y0551400D03*
X1053980Y0553960D03*
X1053980Y0563540D03*
X1053980Y0566100D03*
X1053980Y0568660D03*
X1053980Y0571220D03*
X1053980Y0573780D03*
X1053980Y0576340D03*
X1053980Y0578900D03*
X1053980Y0581460D03*
X1031010Y0581460D03*
X1031010Y0578900D03*
X1031010Y0576340D03*
X1031010Y0573780D03*
X1031010Y0571220D03*
X1031010Y0568660D03*
X1031010Y0566100D03*
X1031010Y0563540D03*
X1031010Y0553960D03*
X1031010Y0551400D03*
X1031010Y0548840D03*
X1031010Y0546280D03*
X1031010Y0543720D03*
X1031010Y0541160D03*
X1031010Y0538600D03*
X1031010Y0536040D03*
X1296010Y0578480D03*
X1296010Y0581040D03*
X1296010Y0583600D03*
X1296010Y0586160D03*
X1296010Y0588720D03*
X1296010Y0591280D03*
X1296010Y0593840D03*
X1296010Y0596400D03*
X1296010Y0598960D03*
X1296010Y0601520D03*
X1318980Y0601520D03*
X1318980Y0598960D03*
X1318980Y0596400D03*
X1318980Y0593840D03*
X1318980Y0591280D03*
X1318980Y0588720D03*
X1318980Y0586160D03*
X1318980Y0583600D03*
X1318980Y0581040D03*
X1318980Y0578480D03*
D34*
X1362500Y0745000D03*
X1215000Y0745000D03*
X1350000Y0400000D03*
X1350000Y0340000D03*
X1350000Y0280000D03*
X1350000Y0220000D03*
X1350000Y0150000D03*
X1100000Y0325000D03*
X1067500Y0325000D03*
D31*
X1067500Y0315000D03*
X1067500Y0305000D03*
X1100000Y0305000D03*
X1100000Y0315000D03*
X1350000Y0320000D03*
X1350000Y0330000D03*
X1350000Y0380000D03*
X1350000Y0390000D03*
X1350000Y0270000D03*
X1350000Y0260000D03*
X1350000Y0210000D03*
X1350000Y0200000D03*
X1350000Y0190000D03*
X1350000Y0140000D03*
X1350000Y0130000D03*
X1372500Y0745000D03*
X1382500Y0745000D03*
X1392500Y0745000D03*
X1402500Y0745000D03*
X1225000Y0745000D03*
D126*
X1230500Y0779000D03*
X1209500Y0779000D03*
X1357000Y0779000D03*
X1408000Y0779000D03*
X1384000Y0405500D03*
X1384000Y0374500D03*
X1384000Y0345500D03*
X1384000Y0314500D03*
X1384000Y0285500D03*
X1384000Y0254500D03*
X1384000Y0225500D03*
X1384000Y0184500D03*
X1384000Y0155500D03*
X1384000Y0124500D03*
X1097000Y0289000D03*
X1064500Y0289000D03*
X1064500Y0341000D03*
X1097000Y0341000D03*
D40*
X1190000Y0567500D03*
X1200000Y0567500D03*
X1210000Y0567500D03*
X1220000Y0567500D03*
X1230000Y0567500D03*
X1240000Y0567500D03*
X1240000Y0577500D03*
X1230000Y0577500D03*
X1220000Y0577500D03*
X1210000Y0577500D03*
X1200000Y0577500D03*
X1190000Y0577500D03*
X1440000Y0605000D03*
X1440000Y0615000D03*
X1440000Y0625000D03*
X1440000Y0635000D03*
X1440000Y0645000D03*
X1450000Y0645000D03*
X1450000Y0635000D03*
X1450000Y0625000D03*
X1450000Y0615000D03*
X1450000Y0605000D03*
X1450000Y0655000D03*
X1450000Y0665000D03*
X1450000Y0675000D03*
X1440000Y0675000D03*
X1440000Y0665000D03*
X1440000Y0655000D03*
D73*
X1317500Y0756590D02*
X1317500Y0768410D01*
X1280000Y0768410D02*
X1280000Y0756590D01*
D72*
X1210000Y0517500D03*
X1210000Y0357500D03*
D84*
X1247500Y0680220D03*
X1247500Y0694780D03*
X1220000Y0707720D03*
X1220000Y0722280D03*
X1210000Y0722280D03*
X1210000Y0707720D03*
X1180000Y0725220D03*
X1180000Y0739780D03*
X1170000Y0739780D03*
X1170000Y0725220D03*
X1157500Y0725220D03*
X1157500Y0739780D03*
X1147500Y0739780D03*
X1147500Y0725220D03*
X1135000Y0725220D03*
X1135000Y0739780D03*
X1125000Y0739780D03*
X1125000Y0725220D03*
X1112500Y0725220D03*
X1112500Y0739780D03*
X1102500Y0739780D03*
X1102500Y0725220D03*
X1090000Y0725220D03*
X1090000Y0739780D03*
X1080000Y0739780D03*
X1080000Y0725220D03*
X1067500Y0725220D03*
X1067500Y0739780D03*
X1057500Y0739780D03*
X1057500Y0725220D03*
X1345000Y0714780D03*
X1355000Y0714780D03*
X1355000Y0700220D03*
X1345000Y0700220D03*
X1382500Y0707720D03*
X1382500Y0722280D03*
X1392500Y0722280D03*
X1392500Y0707720D03*
X1405000Y0707720D03*
X1405000Y0722280D03*
X1415000Y0722280D03*
X1415000Y0707720D03*
D102*
X1048210Y0597950D03*
X1048210Y0595980D03*
X1048210Y0594020D03*
X1048210Y0592050D03*
X1036790Y0592050D03*
X1036790Y0594020D03*
X1036790Y0595980D03*
X1036790Y0597950D03*
D47*
X1304880Y0273740D03*
X1304880Y0266260D03*
X1315080Y0266260D03*
X1315080Y0270000D03*
X1315080Y0273740D03*
X1354920Y0493760D03*
X1354920Y0497500D03*
X1354920Y0501240D03*
X1365110Y0501240D03*
X1365110Y0493760D03*
D142*
X1367500Y0072500D03*
X1340000Y0072500D03*
X1295000Y0072500D03*
X1412500Y0072500D03*
D39*
X1298520Y0517320D03*
X1298520Y0519880D03*
X1298520Y0522440D03*
X1298520Y0525000D03*
X1298520Y0527560D03*
X1298520Y0530120D03*
X1298520Y0532680D03*
X1276470Y0532680D03*
X1276470Y0530120D03*
X1276470Y0527560D03*
X1276470Y0525000D03*
X1276470Y0522440D03*
X1276470Y0519880D03*
X1276470Y0517320D03*
D85*
X1287500Y0525000D03*
D56*
X1314030Y0500000D03*
X1330960Y0500000D03*
D92*
X1322500Y0513980D03*
X1322500Y0536020D03*
D58*
X1227500Y0323500D03*
X1227500Y0313500D03*
X1217500Y0313500D03*
X1217500Y0323500D03*
X1207500Y0323500D03*
X1207500Y0313500D03*
X1197500Y0313500D03*
X1197500Y0323500D03*
X1187500Y0323500D03*
X1187500Y0313500D03*
X1177500Y0313500D03*
X1177500Y0323500D03*
D37*
X1302200Y0147500D03*
X1302200Y0142500D03*
X1302200Y0137500D03*
X1302200Y0132500D03*
X1322800Y0132500D03*
X1322800Y0137500D03*
X1322800Y0142500D03*
X1322800Y0147500D03*
D43*
X1156240Y0259920D03*
X1152500Y0259920D03*
X1148760Y0259920D03*
X1148760Y0270120D03*
X1156240Y0270120D03*
D55*
X1158500Y0285000D03*
X1152500Y0285000D03*
X1146500Y0285000D03*
X1412000Y0732500D03*
X1418000Y0732500D03*
D71*
X1324780Y0415000D03*
X1310210Y0415000D03*
X1330210Y0357500D03*
X1344780Y0357500D03*
X1317280Y0250000D03*
X1302710Y0250000D03*
X1310210Y0217500D03*
X1324780Y0217500D03*
X1324780Y0192500D03*
X1310210Y0192500D03*
X1134780Y0287500D03*
X1120210Y0287500D03*
D111*
X1307500Y0547000D03*
X1307500Y0553000D03*
D10*
X1307500Y0550000D03*
D20*
X1415000Y0732500D03*
D133*
X1297500Y0707800D03*
X1292500Y0707800D03*
X1287500Y0707800D03*
X1282500Y0707800D03*
X1282500Y0687200D03*
X1287500Y0687200D03*
X1292500Y0687200D03*
X1297500Y0687200D03*
D74*
X1315000Y0684510D03*
X1315000Y0710490D03*
D101*
X1095650Y0579720D03*
X1095650Y0576570D03*
X1095650Y0573430D03*
X1095650Y0570280D03*
X1095650Y0564720D03*
X1095650Y0561570D03*
X1095650Y0558430D03*
X1095650Y0555280D03*
X1095650Y0549720D03*
X1095650Y0546570D03*
X1095650Y0543430D03*
X1095650Y0540280D03*
X1095650Y0534720D03*
X1095650Y0531570D03*
X1095650Y0528430D03*
X1095650Y0525280D03*
X1089350Y0525280D03*
X1089350Y0528430D03*
X1089350Y0531570D03*
X1089350Y0534720D03*
X1089350Y0540280D03*
X1089350Y0543430D03*
X1089350Y0546570D03*
X1089350Y0549720D03*
X1089350Y0555280D03*
X1089350Y0558430D03*
X1089350Y0561570D03*
X1089350Y0564720D03*
X1089350Y0570280D03*
X1089350Y0573430D03*
X1089350Y0576570D03*
X1089350Y0579720D03*
D81*
X1360000Y0478000D02*
X1360000Y0472000D01*
X1370000Y0472000D02*
X1370000Y0478000D01*
X1380000Y0478000D02*
X1380000Y0472000D01*
X1385000Y0587000D02*
X1385000Y0593000D01*
X1395000Y0593000D02*
X1395000Y0587000D01*
X1405000Y0587000D02*
X1405000Y0593000D01*
D81*
X1422500Y0600000D03*
X1402500Y0617500D03*
X1372500Y0645000D03*
X1367500Y0590000D03*
X1367500Y0547500D03*
X1422500Y0467500D03*
X1447500Y0450000D03*
X1422500Y0395000D03*
X1425000Y0362500D03*
X1400000Y0362500D03*
X1385000Y0330000D03*
X1302500Y0455000D03*
X1302500Y0500000D03*
X1332500Y0645000D03*
X1332710Y0707500D03*
X1376500Y0707720D03*
X1399000Y0707500D03*
X1435000Y0570000D03*
X1250000Y0717500D03*
X1192500Y0660000D03*
X1447500Y0120000D03*
X1435000Y0065000D03*
X1422500Y0050000D03*
D44*
X1302500Y0280000D03*
X1305000Y0392500D03*
X1230000Y0531000D03*
X1190000Y0492500D03*
X1190000Y0466650D03*
X1145000Y0497500D03*
X1145000Y0531000D03*
X1145000Y0392500D03*
X1177500Y0392500D03*
X1165000Y0725000D03*
X1142500Y0725000D03*
X1120000Y0725000D03*
X1097500Y0725000D03*
X1075000Y0725000D03*
X1052500Y0725000D03*
X1202500Y0725000D03*
X1412500Y0465000D03*
X1445000Y0590000D03*
X1005000Y0805000D02*
G75*
%LPD*%
D119*
X1159760Y0910000D03*
X1159760Y0915000D03*
X1159760Y0920000D03*
X1159760Y0925000D03*
X1159760Y0930000D03*
X1159760Y0935000D03*
X1159760Y0940000D03*
X1180240Y0940000D03*
X1180240Y0935000D03*
X1180240Y0930000D03*
X1180240Y0925000D03*
X1180240Y0920000D03*
X1180240Y0915000D03*
X1180240Y0910000D03*
X1180240Y0957500D03*
X1180240Y0962500D03*
X1180240Y0967500D03*
X1180240Y0972500D03*
X1159760Y0972500D03*
X1159760Y0967500D03*
X1159760Y0962500D03*
X1159760Y0957500D03*
X1110240Y0957500D03*
X1110240Y0962500D03*
X1110240Y0967500D03*
X1110240Y0972500D03*
X1089760Y0972500D03*
X1089760Y0967500D03*
X1089760Y0962500D03*
X1089760Y0957500D03*
D47*
X1134880Y0961260D03*
X1145080Y0961260D03*
X1145080Y0965000D03*
X1145080Y0968740D03*
X1134880Y0968740D03*
X1194920Y0968740D03*
X1194920Y0965000D03*
X1194920Y0961260D03*
X1205120Y0961260D03*
X1205120Y0968740D03*
D49*
X1203350Y0940000D03*
X1196650Y0940000D03*
X1196650Y0920000D03*
X1203350Y0920000D03*
X1203350Y0910000D03*
X1196650Y0910000D03*
X1143350Y0910000D03*
X1136650Y0910000D03*
X1136650Y0920000D03*
X1143350Y0920000D03*
X1143350Y0940000D03*
X1136650Y0940000D03*
X1083350Y0940000D03*
X1076650Y0940000D03*
X1076650Y0930000D03*
X1083350Y0930000D03*
X1083350Y0920000D03*
X1076650Y0920000D03*
X1076650Y0910000D03*
X1083350Y0910000D03*
X1251650Y0872500D03*
X1258350Y0872500D03*
X1294150Y0872500D03*
X1300850Y0872500D03*
X1336650Y0872500D03*
X1343350Y0872500D03*
X1379150Y0872500D03*
X1385850Y0872500D03*
X1421650Y0872500D03*
X1428350Y0872500D03*
X1464150Y0872500D03*
X1470850Y0872500D03*
D23*
X1215000Y0961650D03*
X1215000Y0968350D03*
X1203350Y0980000D03*
X1196650Y0980000D03*
X1143350Y0980000D03*
X1136650Y0980000D03*
X1125000Y0968350D03*
X1125000Y0961650D03*
X1136650Y0950000D03*
X1143350Y0950000D03*
X1143350Y0930000D03*
X1136650Y0930000D03*
X1196650Y0930000D03*
X1203350Y0930000D03*
X1203350Y0950000D03*
X1196650Y0950000D03*
X1196650Y0900000D03*
X1203350Y0900000D03*
X1200000Y0883350D03*
X1200000Y0876650D03*
X1143350Y0900000D03*
X1136650Y0900000D03*
X1140000Y0883350D03*
X1140000Y0876650D03*
X1110000Y0876650D03*
X1100000Y0876650D03*
X1100000Y0883350D03*
X1110000Y0883350D03*
D34*
X1090000Y0860000D03*
X1160000Y0860000D03*
X1225000Y0860000D03*
X1277500Y0860000D03*
X1330000Y0860000D03*
X1382500Y0860000D03*
D31*
X1372500Y0860000D03*
X1320000Y0860000D03*
X1267500Y0860000D03*
X1215000Y0860000D03*
X1205000Y0860000D03*
X1150000Y0860000D03*
X1140000Y0860000D03*
X1080000Y0860000D03*
X1070000Y0860000D03*
X1060000Y0860000D03*
X1050000Y0860000D03*
D126*
X1044500Y0826000D03*
X1095500Y0826000D03*
X1134500Y0826000D03*
X1165500Y0826000D03*
X1199500Y0826000D03*
X1230500Y0826000D03*
X1262000Y0826000D03*
X1283000Y0826000D03*
X1314500Y0826000D03*
X1335500Y0826000D03*
X1367000Y0826000D03*
X1388000Y0826000D03*
D84*
X1210000Y0872720D03*
X1190000Y0872720D03*
X1190000Y0887280D03*
X1210000Y0887280D03*
X1150000Y0887280D03*
X1130000Y0887280D03*
X1120000Y0887280D03*
X1090000Y0887280D03*
X1090000Y0872720D03*
X1120000Y0872720D03*
X1130000Y0872720D03*
X1150000Y0872720D03*
X1025000Y0907720D03*
X1015000Y0907720D03*
X1015000Y0922280D03*
X1025000Y0922280D03*
X1025000Y0937720D03*
X1015000Y0937720D03*
X1015000Y0952280D03*
X1025000Y0952280D03*
D120*
X1037430Y0955000D02*
X1042570Y0955000D01*
X1057430Y0955000D02*
X1062570Y0955000D01*
X1062570Y0945000D02*
X1057430Y0945000D01*
X1042570Y0945000D02*
X1037430Y0945000D01*
X1037430Y0935000D02*
X1042570Y0935000D01*
X1057430Y0935000D02*
X1062570Y0935000D01*
X1062570Y0925000D02*
X1057430Y0925000D01*
X1042570Y0925000D02*
X1037430Y0925000D01*
X1037430Y0905000D02*
X1042570Y0905000D01*
X1057430Y0905000D02*
X1062570Y0905000D01*
D71*
X1057280Y0895000D03*
X1042720Y0895000D03*
X1042720Y0965000D03*
X1057280Y0965000D03*
D42*
X1090870Y0940000D03*
X1099130Y0940000D03*
X1099130Y0930000D03*
X1090870Y0930000D03*
X1090870Y0920000D03*
X1099130Y0920000D03*
X1099130Y0910000D03*
X1090870Y0910000D03*
X1250870Y0882500D03*
X1259130Y0882500D03*
X1293370Y0882500D03*
X1301630Y0882500D03*
X1335870Y0882500D03*
X1344130Y0882500D03*
X1378370Y0882500D03*
X1386630Y0882500D03*
X1420870Y0882500D03*
X1429130Y0882500D03*
X1463370Y0882500D03*
X1471630Y0882500D03*
D140*
X1254100Y0972800D03*
X1245000Y0972800D03*
X1235900Y0972800D03*
D13*
X1245000Y0997200D03*
D53*
X1225000Y0990510D03*
X1225000Y0979490D03*
X1265000Y0979490D03*
X1265000Y0990510D03*
D96*
X1290610Y0985390D03*
X1304390Y0985390D03*
X1333110Y0985390D03*
X1346890Y0985390D03*
X1375610Y0985390D03*
X1389390Y0985390D03*
X1418110Y0985390D03*
X1431890Y0985390D03*
X1429390Y0824610D03*
X1415610Y0824610D03*
D124*
X1020000Y0820000D03*
X1020000Y0990000D03*
X1472500Y0990000D03*
X1472500Y0820000D03*
D75*
X1467500Y0920000D03*
X1425000Y0920000D03*
X1382500Y0920000D03*
X1340000Y0920000D03*
X1297500Y0920000D03*
X1255000Y0920000D03*
D123*
X1255000Y0901100D03*
X1297500Y0901100D03*
X1340000Y0901100D03*
X1382500Y0901100D03*
X1425000Y0901100D03*
X1467500Y0901100D03*
X1467500Y0938900D03*
X1425000Y0938900D03*
X1382500Y0938900D03*
X1340000Y0938900D03*
X1297500Y0938900D03*
X1255000Y0938900D03*
D138*
X1212500Y0945000D03*
X1212500Y0955000D03*
X1200000Y0955000D03*
X1192500Y0955000D03*
X1180000Y0952500D03*
X1167500Y0957500D03*
X1170000Y0962500D03*
X1170000Y0972500D03*
X1160000Y0980000D03*
X1137500Y0990000D03*
X1100000Y0972500D03*
X1090000Y0980000D03*
X1050000Y0980000D03*
X1020000Y0967500D03*
X1010000Y0972500D03*
X1020000Y0957500D03*
X1020000Y0947500D03*
X1025000Y0930000D03*
X1029500Y0922500D03*
X1046500Y0918500D03*
X1050000Y0925000D03*
X1070000Y0925000D03*
X1080000Y0925000D03*
X1087500Y0915000D03*
X1107500Y0925000D03*
X1112500Y0915000D03*
X1132500Y0925000D03*
X1150000Y0920000D03*
X1172500Y0920000D03*
X1187500Y0915000D03*
X1192500Y0905000D03*
X1212500Y0915000D03*
X1207500Y0925000D03*
X1187500Y0945000D03*
X1150000Y0945000D03*
X1127500Y0945000D03*
X1140000Y0935000D03*
X1140000Y0955000D03*
X1147500Y0957500D03*
X1075000Y0950000D03*
X1075000Y0900000D03*
X1100000Y0897500D03*
X1107500Y0897500D03*
X1155000Y0872500D03*
X1172500Y0872500D03*
X1215000Y0872500D03*
X1125000Y0867500D03*
X1110000Y0815000D03*
X1222500Y0965000D03*
X1215000Y0990000D03*
X1205000Y0990000D03*
D146*
X1265000Y0970000D03*
X1265000Y0940000D03*
D72*
X1390000Y0955000D03*
D15*
X1325000Y0910000D03*
X1277500Y0920000D03*
X1400000Y0812500D03*
D151*
X1200000Y0865000D03*
M02*
