%
T01C0.014500
X33750Y66750
X34250Y66250
X31750Y67000
X30250Y68750
X31750Y71750
X36250Y71750
X36500Y71250
X37000Y69000
X37500Y67250
X37000Y66250
X37500Y65250
X39000Y67000
X41000Y65500
X41500Y65500
X41500Y63750
X41000Y63750
X41250Y62250
X41250Y60750
X43500Y60750
X44250Y60500
X45250Y61250
X45750Y61500
X44250Y62250
X43500Y62250
X43750Y63750
X43250Y63750
X43250Y65500
X43750Y65500
X45250Y66750
X45750Y65250
X46000Y69750
X45100Y70900
X44750Y70500
X44500Y72250
X46250Y72000
X44500Y74500
X40250Y72000
X39500Y70250
X39000Y61500
X37250Y59800
X37000Y59500
X36250Y59800
X36000Y59250
X36250Y58750
X35800Y58450
X36250Y57750
X35500Y59750
X34250Y60750
X35100Y58150
X31750Y53750
X31500Y53750
X31250Y53750
X31000Y53750
X30750Y53750
X30750Y53250
X31000Y53250
X31250Y53250
X31500Y53250
X31750Y53250
X31750Y53000
X31750Y52750
X31750Y52500
X31750Y52250
X31750Y52000
X31500Y51750
X31250Y51750
X31000Y51750
X30750Y51750
X30750Y52000
X30750Y52250
X30750Y52500
X30750Y52750
X30750Y53000
X30750Y51250
X31000Y51250
X31250Y51250
X31500Y51250
X31750Y51250
X27700Y52750
X27500Y53750
X26750Y53750
X26500Y54250
X26000Y54500
X25000Y55500
X24500Y54500
X23000Y55000
X22500Y55150
X22000Y54900
X20500Y56100
X20900Y56500
X20250Y57750
X19750Y59250
X20250Y60250
X20500Y61250
X20750Y61750
X21250Y61750
X21750Y61000
X22250Y60750
X21750Y58750
X22250Y58500
X24000Y60250
X24000Y62250
X24250Y63750
X23750Y63750
X22750Y63250
X22650Y65200
X23750Y65500
X24250Y65500
X25250Y66250
X25500Y67050
X26250Y67950
X27000Y67000
X26500Y65250
X25500Y62750
X26950Y60450
X27250Y59250
X27750Y59000
X27800Y58500
X28750Y60000
X29750Y59750
X30250Y60000
X30050Y58050
X30500Y58000
X30250Y62665
X29750Y63500
X28750Y63500
X26850Y69550
X26500Y70000
X23500Y68750
X22000Y70500
X21150Y69700
X21100Y68600
X20250Y67000
X19750Y67000
X19750Y65250
X20250Y65250
X20000Y63750
X19600Y63250
X19250Y62750
X18500Y61500
X17750Y59500
X16300Y60100
X16000Y59800
X15500Y59500
X15000Y60800
X14850Y59900
X14450Y59900
X14050Y59900
X13650Y59900
X13250Y59900
X12900Y58950
X12500Y57750
X12850Y57000
X11750Y56750
X11750Y55250
X10900Y54700
X10550Y54400
X10550Y55050
X10600Y55650
X10600Y56050
X10600Y56450
X10600Y57050
X10600Y57450
X10650Y57850
X10950Y58350
X10600Y58650
X10250Y58500
X9900Y58650
X9750Y59000
X9500Y59300
X8000Y60500
X7500Y60150
X7050Y60150
X6550Y59250
X6850Y59000
X6500Y58750
X6000Y58500
X6250Y58000
X6250Y57000
X6250Y56500
X6250Y55500
X6250Y54500
X7000Y54750
X7250Y55250
X7250Y57750
X7750Y59000
X7000Y61250
X6500Y62000
X7000Y62750
X7700Y63000
X7400Y63400
X8000Y63750
X8750Y63750
X9100Y63500
X9250Y63150
X9500Y62750
X9650Y62300
X9950Y61700
X9450Y61250
X9500Y63750
X9000Y65250
X8500Y65250
X7500Y66000
X8000Y66750
X8500Y67000
X9000Y67000
X9800Y68650
X10000Y69750
X11000Y70500
X11000Y71000
X11900Y72050
X11000Y73500
X9600Y72050
X8250Y73000
X7750Y73500
X7250Y72750
X6800Y71500
X7750Y71250
X6000Y69500
X5700Y71250
X7150Y74750
X6850Y75500
X6500Y76250
X7500Y78000
X7150Y79000
X6850Y79300
X6500Y79600
X11500Y79600
X13750Y79300
X15250Y78000
X16000Y79000
X15500Y73000
X16350Y72050
X15500Y71000
X15500Y70500
X14500Y69750
X14000Y70500
X13250Y71000
X14150Y72000
X12250Y69750
X12050Y68650
X11250Y67000
X10750Y67000
X10750Y65250
X11250Y65250
X11750Y63750
X11750Y63000
X13000Y65250
X13500Y65250
X14000Y63750
X15250Y65250
X15750Y65250
X15500Y63750
X16250Y63750
X16250Y63000
X16350Y62600
X16000Y61000
X15500Y58000
X17000Y57250
X18200Y57650
X18750Y56750
X19250Y55750
X16250Y50500
X15650Y52650
X15750Y53100
X15450Y53500
X15000Y55750
X12750Y52000
X11750Y52250
X10750Y53050
X10550Y53450
X11000Y53750
X11750Y53750
X12750Y48750
X11500Y39000
X11300Y38400
X11250Y38000
X11000Y37500
X11850Y35800
X11600Y35400
X10000Y31000
X11000Y28000
X11250Y27500
X10750Y27300
X10450Y27650
X7750Y27300
X6500Y27650
X6250Y31000
X8250Y37500
X8250Y38000
X7250Y38500
X7000Y39000
X15400Y28250
X15750Y27500
X15950Y27800
X17350Y27600
X17750Y26500
X19000Y25500
X19750Y25500
X19500Y24700
X19750Y24050
X20750Y24500
X21350Y24150
X20750Y23250
X21250Y21000
X23000Y21000
X23000Y18750
X19550Y16750
X19250Y15750
X19750Y14750
X19750Y14250
X19750Y13500
X18750Y12750
X17000Y13750
X16750Y14250
X16050Y13500
X15750Y13250
X15300Y13250
X16500Y15250
X16250Y16250
X13250Y12750
X13250Y11750
X13000Y10750
X12750Y9750
X12500Y8750
X12500Y7750
X12250Y6750
X5000Y10750
X5000Y11750
X4000Y9750
X3750Y8750
X4500Y7750
X4000Y6750
X3500Y6500
X3500Y17750
X3500Y18750
X3500Y19750
X3600Y20250
X4250Y20750
X3500Y21750
X3550Y22250
X3720Y22750
X4330Y23750
X14500Y23250
X15000Y23750
X15400Y25500
X14500Y25500
X17350Y29500
X17750Y30000
X19250Y29500
X19750Y30700
X19250Y31100
X20350Y30400
X20800Y30100
X21100Y29800
X21500Y29500
X22000Y29200
X21500Y28150
X21000Y27000
X20800Y28150
X20350Y28150
X19750Y27750
X19250Y27250
X21750Y30700
X22250Y30400
X22750Y30100
X23250Y29800
X23750Y29500
X24250Y29200
X25000Y28900
X25000Y30500
X23100Y28900
X23100Y28000
X22000Y26750
X23500Y24750
X24250Y25250
X26750Y24250
X28000Y23250
X30500Y28250
X32000Y27250
X32500Y26750
X33500Y27000
X34500Y26250
X34500Y24500
X31750Y20000
X31300Y19250
X31750Y18250
X33250Y18500
X33500Y17750
X34000Y17000
X34000Y16000
X34000Y14750
X33500Y14250
X32750Y12750
X31000Y10750
X30750Y9750
X26750Y11250
X25750Y9750
X26250Y8250
X26250Y5750
X34500Y18500
X35000Y17750
X31300Y21000
X31500Y30500
X29000Y32750
X26250Y32750
X21250Y35750
X20750Y35250
X26750Y50750
X30250Y44000
X30250Y43500
X30250Y43000
X36000Y41500
X37000Y41000
X38750Y43000
X39200Y43300
X39700Y43550
X43000Y45500
X45250Y48000
X45250Y49250
X43000Y49100
X40300Y50400
X39500Y50750
X39250Y51100
X37750Y51100
X37000Y50250
X37500Y49750
X39500Y49100
X46000Y45500
X37000Y35000
X36250Y35750
X46000Y17000
X44000Y13750
X44000Y8500
X39800Y14350
X39250Y13250
X38750Y12000
X14000Y62000
X13500Y62000
X16650Y65350
X17500Y65250
X18000Y65250
X17750Y63750
X18500Y63750
X19250Y63750
X20750Y63750
X18000Y67000
X17500Y67000
X16550Y68650
X16750Y69750
X17750Y70500
X17750Y71000
X18650Y72050
X19750Y70000
X18800Y68650
X20900Y72050
X21000Y71300
X15750Y67000
X15250Y67000
X14300Y68650
X13500Y67000
X13000Y67000
X7400Y64500
X7000Y65250
X6500Y63750
X5500Y62500
X5500Y61500
X4750Y58000
X5100Y57550
X4750Y55250
X5050Y54850
X33750Y67750
X22500Y86500
X82500Y66750
X83000Y66250
X80500Y67000
X79000Y68750
X80500Y71750
X85000Y71750
X85250Y71250
X85750Y69000
X86250Y67250
X85750Y66250
X86250Y65250
X87750Y67000
X89750Y65500
X90250Y65500
X90250Y63750
X89750Y63750
X90000Y62250
X90000Y60750
X92250Y60750
X93000Y60500
X94000Y61250
X94500Y61500
X93000Y62250
X92250Y62250
X92500Y63750
X92000Y63750
X92000Y65500
X92500Y65500
X94000Y66750
X94500Y65250
X94750Y69750
X93850Y70900
X93500Y70500
X93250Y72250
X95000Y72000
X93250Y74500
X89000Y72000
X88250Y70250
X87750Y61500
X86000Y59800
X85750Y59500
X85000Y59800
X84750Y59250
X85000Y58750
X84550Y58450
X85000Y57750
X84250Y59750
X83000Y60750
X83850Y58150
X80500Y53750
X80250Y53750
X80000Y53750
X79750Y53750
X79500Y53750
X79500Y53250
X79750Y53250
X80000Y53250
X80250Y53250
X80500Y53250
X80500Y53000
X80500Y52750
X80500Y52500
X80500Y52250
X80500Y52000
X80250Y51750
X80000Y51750
X79750Y51750
X79500Y51750
X79500Y52000
X79500Y52250
X79500Y52500
X79500Y52750
X79500Y53000
X79500Y51250
X79750Y51250
X80000Y51250
X80250Y51250
X80500Y51250
X76450Y52750
X76250Y53750
X75500Y53750
X75250Y54250
X74750Y54500
X73750Y55500
X73250Y54500
X71750Y55000
X71250Y55150
X70750Y54900
X69250Y56100
X69650Y56500
X69000Y57750
X68500Y59250
X69000Y60250
X69250Y61250
X69500Y61750
X70000Y61750
X70500Y61000
X71000Y60750
X70500Y58750
X71000Y58500
X72750Y60250
X72750Y62250
X73000Y63750
X72500Y63750
X71500Y63250
X71400Y65200
X72500Y65500
X73000Y65500
X74000Y66250
X74250Y67050
X75000Y67950
X75750Y67000
X75250Y65250
X74250Y62750
X75700Y60450
X76000Y59250
X76500Y59000
X76550Y58500
X77500Y60000
X78500Y59750
X79000Y60000
X78800Y58050
X79250Y58000
X79000Y62665
X78500Y63500
X77500Y63500
X75600Y69550
X75250Y70000
X72250Y68750
X70750Y70500
X69900Y69700
X69850Y68600
X69000Y67000
X68500Y67000
X68500Y65250
X69000Y65250
X68750Y63750
X68350Y63250
X68000Y62750
X67250Y61500
X66500Y59500
X65050Y60100
X64750Y59800
X64250Y59500
X63750Y60800
X63600Y59900
X63200Y59900
X62800Y59900
X62400Y59900
X62000Y59900
X61650Y58950
X61250Y57750
X61600Y57000
X60500Y56750
X60500Y55250
X59650Y54700
X59300Y54400
X59300Y55050
X59350Y55650
X59350Y56050
X59350Y56450
X59350Y57050
X59350Y57450
X59400Y57850
X59700Y58350
X59350Y58650
X59000Y58500
X58650Y58650
X58500Y59000
X58250Y59300
X56750Y60500
X56250Y60150
X55800Y60150
X55300Y59250
X55600Y59000
X55250Y58750
X54750Y58500
X55000Y58000
X55000Y57000
X55000Y56500
X55000Y55500
X55000Y54500
X55750Y54750
X56000Y55250
X56000Y57750
X56500Y59000
X55750Y61250
X55250Y62000
X55750Y62750
X56450Y63000
X56150Y63400
X56750Y63750
X57500Y63750
X57850Y63500
X58000Y63150
X58250Y62750
X58400Y62300
X58700Y61700
X58200Y61250
X58250Y63750
X57750Y65250
X57250Y65250
X56250Y66000
X56750Y66750
X57250Y67000
X57750Y67000
X58550Y68650
X58750Y69750
X59750Y70500
X59750Y71000
X60650Y72050
X59750Y73500
X58350Y72050
X57000Y73000
X56500Y73500
X56000Y72750
X55550Y71500
X56500Y71250
X54750Y69500
X54450Y71250
X55900Y74750
X55600Y75500
X55250Y76250
X56250Y78000
X55900Y79000
X55600Y79300
X55250Y79600
X60250Y79600
X62500Y79300
X64000Y78000
X64750Y79000
X64250Y73000
X65100Y72050
X64250Y71000
X64250Y70500
X63250Y69750
X62750Y70500
X62000Y71000
X62900Y72000
X61000Y69750
X60800Y68650
X60000Y67000
X59500Y67000
X59500Y65250
X60000Y65250
X60500Y63750
X60500Y63000
X61750Y65250
X62250Y65250
X62750Y63750
X64000Y65250
X64500Y65250
X64250Y63750
X65000Y63750
X65000Y63000
X65100Y62600
X64750Y61000
X64250Y58000
X65750Y57250
X66950Y57650
X67500Y56750
X68000Y55750
X65000Y50500
X64400Y52650
X64500Y53100
X64200Y53500
X63750Y55750
X61500Y52000
X60500Y52250
X59500Y53050
X59300Y53450
X59750Y53750
X60500Y53750
X61500Y48750
X60250Y39000
X60050Y38400
X60000Y38000
X59750Y37500
X60600Y35800
X60350Y35400
X58750Y31000
X59750Y28000
X60000Y27500
X59500Y27300
X59200Y27650
X56500Y27300
X55250Y27650
X55000Y31000
X57000Y37500
X57000Y38000
X56000Y38500
X55750Y39000
X64150Y28250
X64500Y27500
X64700Y27800
X66100Y27600
X66500Y26500
X67750Y25500
X68500Y25500
X68250Y24700
X68500Y24050
X69500Y24500
X70100Y24150
X69500Y23250
X70000Y21000
X71750Y21000
X71750Y18750
X68300Y16750
X68000Y15750
X68500Y14750
X68500Y14250
X68500Y13500
X67500Y12750
X65750Y13750
X65500Y14250
X64800Y13500
X64500Y13250
X64050Y13250
X65250Y15250
X65000Y16250
X62000Y12750
X62000Y11750
X61750Y10750
X61500Y9750
X61250Y8750
X61250Y7750
X61000Y6750
X53750Y10750
X53750Y11750
X52750Y9750
X52500Y8750
X53250Y7750
X52750Y6750
X52250Y6500
X52250Y17750
X52250Y18750
X52250Y19750
X52350Y20250
X53000Y20750
X52250Y21750
X52300Y22250
X52470Y22750
X53080Y23750
X63250Y23250
X63750Y23750
X64150Y25500
X63250Y25500
X66100Y29500
X66500Y30000
X68000Y29500
X68500Y30700
X68000Y31100
X69100Y30400
X69550Y30100
X69850Y29800
X70250Y29500
X70750Y29200
X70250Y28150
X69750Y27000
X69550Y28150
X69100Y28150
X68500Y27750
X68000Y27250
X70500Y30700
X71000Y30400
X71500Y30100
X72000Y29800
X72500Y29500
X73000Y29200
X73750Y28900
X73750Y30500
X71850Y28900
X71850Y28000
X70750Y26750
X72250Y24750
X73000Y25250
X75500Y24250
X76750Y23250
X79250Y28250
X80750Y27250
X81250Y26750
X82250Y27000
X83250Y26250
X83250Y24500
X80500Y20000
X80050Y19250
X80500Y18250
X82000Y18500
X82250Y17750
X82750Y17000
X82750Y16000
X82750Y14750
X82250Y14250
X81500Y12750
X79750Y10750
X79500Y9750
X75500Y11250
X74500Y9750
X75000Y8250
X75000Y5750
X83250Y18500
X83750Y17750
X80050Y21000
X80250Y30500
X77750Y32750
X75000Y32750
X70000Y35750
X69500Y35250
X75500Y50750
X79000Y44000
X79000Y43500
X79000Y43000
X84750Y41500
X85750Y41000
X87500Y43000
X87950Y43300
X88450Y43550
X91750Y45500
X94000Y48000
X94000Y49250
X91750Y49100
X89050Y50400
X88250Y50750
X88000Y51100
X86500Y51100
X85750Y50250
X86250Y49750
X88250Y49100
X94750Y45500
X85750Y35000
X85000Y35750
X94750Y17000
X92750Y13750
X92750Y8500
X88550Y14350
X88000Y13250
X87500Y12000
X62750Y62000
X62250Y62000
X65400Y65350
X66250Y65250
X66750Y65250
X66500Y63750
X67250Y63750
X68000Y63750
X69500Y63750
X66750Y67000
X66250Y67000
X65300Y68650
X65500Y69750
X66500Y70500
X66500Y71000
X67400Y72050
X68500Y70000
X67550Y68650
X69650Y72050
X69750Y71300
X64500Y67000
X64000Y67000
X63050Y68650
X62250Y67000
X61750Y67000
X56150Y64500
X55750Y65250
X55250Y63750
X54250Y62500
X54250Y61500
X53500Y58000
X53850Y57550
X53500Y55250
X53800Y54850
X82500Y67750
X71250Y86500
X131250Y66750
X131750Y66250
X129250Y67000
X127750Y68750
X129250Y71750
X133750Y71750
X134000Y71250
X134500Y69000
X135000Y67250
X134500Y66250
X135000Y65250
X136500Y67000
X138500Y65500
X139000Y65500
X139000Y63750
X138500Y63750
X138750Y62250
X138750Y60750
X141000Y60750
X141750Y60500
X142750Y61250
X143250Y61500
X141750Y62250
X141000Y62250
X141250Y63750
X140750Y63750
X140750Y65500
X141250Y65500
X142750Y66750
X143250Y65250
X143500Y69750
X142600Y70900
X142250Y70500
X142000Y72250
X143750Y72000
X142000Y74500
X137750Y72000
X137000Y70250
X136500Y61500
X134750Y59800
X134500Y59500
X133750Y59800
X133500Y59250
X133750Y58750
X133300Y58450
X133750Y57750
X133000Y59750
X131750Y60750
X132600Y58150
X129250Y53750
X129000Y53750
X128750Y53750
X128500Y53750
X128250Y53750
X128250Y53250
X128500Y53250
X128750Y53250
X129000Y53250
X129250Y53250
X129250Y53000
X129250Y52750
X129250Y52500
X129250Y52250
X129250Y52000
X129000Y51750
X128750Y51750
X128500Y51750
X128250Y51750
X128250Y52000
X128250Y52250
X128250Y52500
X128250Y52750
X128250Y53000
X128250Y51250
X128500Y51250
X128750Y51250
X129000Y51250
X129250Y51250
X125200Y52750
X125000Y53750
X124250Y53750
X124000Y54250
X123500Y54500
X122500Y55500
X122000Y54500
X120500Y55000
X120000Y55150
X119500Y54900
X118000Y56100
X118400Y56500
X117750Y57750
X117250Y59250
X117750Y60250
X118000Y61250
X118250Y61750
X118750Y61750
X119250Y61000
X119750Y60750
X119250Y58750
X119750Y58500
X121500Y60250
X121500Y62250
X121750Y63750
X121250Y63750
X120250Y63250
X120150Y65200
X121250Y65500
X121750Y65500
X122750Y66250
X123000Y67050
X123750Y67950
X124500Y67000
X124000Y65250
X123000Y62750
X124450Y60450
X124750Y59250
X125250Y59000
X125300Y58500
X126250Y60000
X127250Y59750
X127750Y60000
X127550Y58050
X128000Y58000
X127750Y62665
X127250Y63500
X126250Y63500
X124350Y69550
X124000Y70000
X121000Y68750
X119500Y70500
X118650Y69700
X118600Y68600
X117750Y67000
X117250Y67000
X117250Y65250
X117750Y65250
X117500Y63750
X117100Y63250
X116750Y62750
X116000Y61500
X115250Y59500
X113800Y60100
X113500Y59800
X113000Y59500
X112500Y60800
X112350Y59900
X111950Y59900
X111550Y59900
X111150Y59900
X110750Y59900
X110400Y58950
X110000Y57750
X110350Y57000
X109250Y56750
X109250Y55250
X108400Y54700
X108050Y54400
X108050Y55050
X108100Y55650
X108100Y56050
X108100Y56450
X108100Y57050
X108100Y57450
X108150Y57850
X108450Y58350
X108100Y58650
X107750Y58500
X107400Y58650
X107250Y59000
X107000Y59300
X105500Y60500
X105000Y60150
X104550Y60150
X104050Y59250
X104350Y59000
X104000Y58750
X103500Y58500
X103750Y58000
X103750Y57000
X103750Y56500
X103750Y55500
X103750Y54500
X104500Y54750
X104750Y55250
X104750Y57750
X105250Y59000
X104500Y61250
X104000Y62000
X104500Y62750
X105200Y63000
X104900Y63400
X105500Y63750
X106250Y63750
X106600Y63500
X106750Y63150
X107000Y62750
X107150Y62300
X107450Y61700
X106950Y61250
X107000Y63750
X106500Y65250
X106000Y65250
X105000Y66000
X105500Y66750
X106000Y67000
X106500Y67000
X107300Y68650
X107500Y69750
X108500Y70500
X108500Y71000
X109400Y72050
X108500Y73500
X107100Y72050
X105750Y73000
X105250Y73500
X104750Y72750
X104300Y71500
X105250Y71250
X103500Y69500
X103200Y71250
X104650Y74750
X104350Y75500
X104000Y76250
X105000Y78000
X104650Y79000
X104350Y79300
X104000Y79600
X109000Y79600
X111250Y79300
X112750Y78000
X113500Y79000
X113000Y73000
X113850Y72050
X113000Y71000
X113000Y70500
X112000Y69750
X111500Y70500
X110750Y71000
X111650Y72000
X109750Y69750
X109550Y68650
X108750Y67000
X108250Y67000
X108250Y65250
X108750Y65250
X109250Y63750
X109250Y63000
X110500Y65250
X111000Y65250
X111500Y63750
X112750Y65250
X113250Y65250
X113000Y63750
X113750Y63750
X113750Y63000
X113850Y62600
X113500Y61000
X113000Y58000
X114500Y57250
X115700Y57650
X116250Y56750
X116750Y55750
X113750Y50500
X113150Y52650
X113250Y53100
X112950Y53500
X112500Y55750
X110250Y52000
X109250Y52250
X108250Y53050
X108050Y53450
X108500Y53750
X109250Y53750
X110250Y48750
X109000Y39000
X108800Y38400
X108750Y38000
X108500Y37500
X109350Y35800
X109100Y35400
X107500Y31000
X108500Y28000
X108750Y27500
X108250Y27300
X107950Y27650
X105250Y27300
X104000Y27650
X103750Y31000
X105750Y37500
X105750Y38000
X104750Y38500
X104500Y39000
X112900Y28250
X113250Y27500
X113450Y27800
X114850Y27600
X115250Y26500
X116500Y25500
X117250Y25500
X117000Y24700
X117250Y24050
X118250Y24500
X118850Y24150
X118250Y23250
X118750Y21000
X120500Y21000
X120500Y18750
X117050Y16750
X116750Y15750
X117250Y14750
X117250Y14250
X117250Y13500
X116250Y12750
X114500Y13750
X114250Y14250
X113550Y13500
X113250Y13250
X112800Y13250
X114000Y15250
X113750Y16250
X110750Y12750
X110750Y11750
X110500Y10750
X110250Y9750
X110000Y8750
X110000Y7750
X109750Y6750
X102500Y10750
X102500Y11750
X101500Y9750
X101250Y8750
X102000Y7750
X101500Y6750
X101000Y6500
X101000Y17750
X101000Y18750
X101000Y19750
X101100Y20250
X101750Y20750
X101000Y21750
X101050Y22250
X101220Y22750
X101830Y23750
X112000Y23250
X112500Y23750
X112900Y25500
X112000Y25500
X114850Y29500
X115250Y30000
X116750Y29500
X117250Y30700
X116750Y31100
X117850Y30400
X118300Y30100
X118600Y29800
X119000Y29500
X119500Y29200
X119000Y28150
X118500Y27000
X118300Y28150
X117850Y28150
X117250Y27750
X116750Y27250
X119250Y30700
X119750Y30400
X120250Y30100
X120750Y29800
X121250Y29500
X121750Y29200
X122500Y28900
X122500Y30500
X120600Y28900
X120600Y28000
X119500Y26750
X121000Y24750
X121750Y25250
X124250Y24250
X125500Y23250
X128000Y28250
X129500Y27250
X130000Y26750
X131000Y27000
X132000Y26250
X132000Y24500
X129250Y20000
X128800Y19250
X129250Y18250
X130750Y18500
X131000Y17750
X131500Y17000
X131500Y16000
X131500Y14750
X131000Y14250
X130250Y12750
X128500Y10750
X128250Y9750
X124250Y11250
X123250Y9750
X123750Y8250
X123750Y5750
X132000Y18500
X132500Y17750
X128800Y21000
X129000Y30500
X126500Y32750
X123750Y32750
X118750Y35750
X118250Y35250
X124250Y50750
X127750Y44000
X127750Y43500
X127750Y43000
X133500Y41500
X134500Y41000
X136250Y43000
X136700Y43300
X137200Y43550
X140500Y45500
X142750Y48000
X142750Y49250
X140500Y49100
X137800Y50400
X137000Y50750
X136750Y51100
X135250Y51100
X134500Y50250
X135000Y49750
X137000Y49100
X143500Y45500
X134500Y35000
X133750Y35750
X143500Y17000
X141500Y13750
X141500Y8500
X137300Y14350
X136750Y13250
X136250Y12000
X111500Y62000
X111000Y62000
X114150Y65350
X115000Y65250
X115500Y65250
X115250Y63750
X116000Y63750
X116750Y63750
X118250Y63750
X115500Y67000
X115000Y67000
X114050Y68650
X114250Y69750
X115250Y70500
X115250Y71000
X116150Y72050
X117250Y70000
X116300Y68650
X118400Y72050
X118500Y71300
X113250Y67000
X112750Y67000
X111800Y68650
X111000Y67000
X110500Y67000
X104900Y64500
X104500Y65250
X104000Y63750
X103000Y62500
X103000Y61500
X102250Y58000
X102600Y57550
X102250Y55250
X102550Y54850
X131250Y67750
X120000Y86500
T02C0.023800
X7750Y72500
X10000Y72500
X12250Y72500
X14500Y72500
X16750Y72500
X19000Y72500
X22750Y72500
X25500Y53100
X21500Y49250
X21500Y46665
X17000Y49750
X17000Y53100
X17000Y39250
X20250Y39250
X33000Y39250
X32750Y28000
X43750Y46500
X47000Y59000
X29000Y94000
X29000Y97000
X24000Y87250
X19750Y87250
X18000Y87250
X15000Y86750
X13250Y89750
X12500Y89750
X10000Y90000
X11250Y91500
X10500Y92500
X9500Y92500
X7500Y92500
X7150Y91850
X5450Y92250
X5000Y93000
X4500Y94750
X4500Y95750
X4500Y96750
X3500Y97250
X7500Y98000
X11500Y98000
X12500Y97250
X16500Y95500
X17250Y95750
X19250Y95750
X19500Y96250
X20500Y95250
X21750Y95500
X22500Y95500
X23750Y95500
X23750Y94500
X21250Y94500
X17500Y94500
X15250Y94500
X16500Y93500
X15750Y92500
X17500Y92000
X19750Y92000
X21250Y91500
X21750Y90500
X23750Y91500
X23250Y92500
X13750Y91500
X13250Y92500
X10000Y95000
X18500Y98000
X19500Y97250
X16250Y99000
X23000Y99000
X24000Y99000
X24750Y96500
X13500Y81500
X56500Y72500
X58750Y72500
X61000Y72500
X63250Y72500
X65500Y72500
X67750Y72500
X71500Y72500
X74250Y53100
X70250Y49250
X70250Y46665
X65750Y49750
X65750Y53100
X65750Y39250
X69000Y39250
X81750Y39250
X81500Y28000
X92500Y46500
X95750Y59000
X77750Y94000
X77750Y97000
X72750Y87250
X68500Y87250
X66750Y87250
X63750Y86750
X62000Y89750
X61250Y89750
X58750Y90000
X60000Y91500
X59250Y92500
X58250Y92500
X56250Y92500
X55900Y91850
X54200Y92250
X53750Y93000
X53250Y94750
X53250Y95750
X53250Y96750
X52250Y97250
X56250Y98000
X60250Y98000
X61250Y97250
X65250Y95500
X66000Y95750
X68000Y95750
X68250Y96250
X69250Y95250
X70500Y95500
X71250Y95500
X72500Y95500
X72500Y94500
X70000Y94500
X66250Y94500
X64000Y94500
X65250Y93500
X64500Y92500
X66250Y92000
X68500Y92000
X70000Y91500
X70500Y90500
X72500Y91500
X72000Y92500
X62500Y91500
X62000Y92500
X58750Y95000
X67250Y98000
X68250Y97250
X65000Y99000
X71750Y99000
X72750Y99000
X73500Y96500
X62250Y81500
X105250Y72500
X107500Y72500
X109750Y72500
X112000Y72500
X114250Y72500
X116500Y72500
X120250Y72500
X123000Y53100
X119000Y49250
X119000Y46665
X114500Y49750
X114500Y53100
X114500Y39250
X117750Y39250
X130500Y39250
X130250Y28000
X141250Y46500
X144500Y59000
X126500Y94000
X126500Y97000
X121500Y87250
X117250Y87250
X115500Y87250
X112500Y86750
X110750Y89750
X110000Y89750
X107500Y90000
X108750Y91500
X108000Y92500
X107000Y92500
X105000Y92500
X104650Y91850
X102950Y92250
X102500Y93000
X102000Y94750
X102000Y95750
X102000Y96750
X101000Y97250
X105000Y98000
X109000Y98000
X110000Y97250
X114000Y95500
X114750Y95750
X116750Y95750
X117000Y96250
X118000Y95250
X119250Y95500
X120000Y95500
X121250Y95500
X121250Y94500
X118750Y94500
X115000Y94500
X112750Y94500
X114000Y93500
X113250Y92500
X115000Y92000
X117250Y92000
X118750Y91500
X119250Y90500
X121250Y91500
X120750Y92500
X111250Y91500
X110750Y92500
X107500Y95000
X116000Y98000
X117000Y97250
X113750Y99000
X120500Y99000
X121500Y99000
X122250Y96500
X111000Y81500
T03C0.031750
X30250Y92000
X35000Y91000
X42500Y81250
X8500Y95500
X6500Y95500
X6500Y94500
X8500Y94500
X8500Y93500
X6500Y93500
X6500Y92500
X8500Y92500
X8500Y90500
X6500Y90500
X79000Y92000
X83750Y91000
X91250Y81250
X57250Y95500
X55250Y95500
X55250Y94500
X57250Y94500
X57250Y93500
X55250Y93500
X55250Y92500
X57250Y92500
X57250Y90500
X55250Y90500
X127750Y92000
X132500Y91000
X140000Y81250
X106000Y95500
X104000Y95500
X104000Y94500
X106000Y94500
X106000Y93500
X104000Y93500
X104000Y92500
X106000Y92500
X106000Y90500
X104000Y90500
T04C0.041350
X24000Y74500
X25000Y74500
X38750Y74500
X39750Y74500
X40750Y74500
X41750Y74500
X42750Y74500
X37500Y40000
X37500Y39000
X37500Y38000
X37500Y34000
X37500Y33000
X37500Y32000
X37500Y28000
X37500Y27000
X37500Y26000
X37500Y22000
X37500Y21000
X37500Y20000
X37500Y19000
X37500Y15000
X37500Y14000
X37500Y13000
X12500Y30500
X12500Y31500
X12500Y32500
X9250Y32500
X9250Y31500
X9250Y30500
X6950Y15750
X7050Y16750
X6950Y17750
X7050Y18750
X6950Y19750
X7050Y20750
X6950Y21750
X7050Y22750
X6950Y23750
X7050Y24750
X6950Y25750
X7050Y26750
X11050Y26750
X10950Y25750
X11050Y24750
X10950Y23750
X11050Y22750
X10950Y21750
X11050Y20750
X10950Y19750
X11050Y18750
X10950Y17750
X11050Y16750
X10950Y15750
X11050Y14750
X10950Y13750
X11050Y12750
X10950Y11750
X11050Y10750
X10950Y9750
X11050Y8750
X10950Y7750
X11050Y6750
X10950Y5750
X11050Y4750
X10950Y3750
X6950Y3750
X7050Y4750
X6950Y5750
X7050Y6750
X6950Y7750
X7050Y8750
X6950Y9750
X7050Y10750
X6950Y11750
X7050Y12750
X6950Y13750
X7050Y14750
X5700Y35250
X5700Y36250
X5700Y37250
X5700Y38250
X5700Y39250
X5700Y40250
X5700Y41250
X5700Y42250
X5700Y43250
X5700Y44250
X5700Y45250
X5700Y46250
X5700Y47250
X5700Y48250
X5700Y49250
X5700Y50250
X5700Y51250
X5700Y52250
X3500Y52250
X3500Y51250
X3500Y50250
X3500Y49250
X3500Y48250
X3500Y47250
X3500Y46250
X3500Y45250
X3500Y44250
X3500Y43250
X3500Y42250
X3500Y41250
X3500Y40250
X3500Y39250
X3500Y38250
X3500Y37250
X3500Y36250
X3500Y35250
X20250Y32350
X20250Y31350
X21250Y31350
X21250Y32350
X22250Y32350
X22250Y31350
X23250Y31350
X23250Y32350
X24250Y32350
X24250Y31350
X25250Y31350
X25250Y32350
X26000Y34200
X27000Y34300
X28000Y34200
X29000Y34300
X30000Y34200
X31000Y34300
X32000Y34200
X33000Y34300
X34000Y34200
X34000Y36350
X33000Y36250
X32000Y36350
X31000Y36250
X30000Y36350
X29000Y36250
X28000Y36350
X27000Y36250
X26000Y36350
X25050Y27750
X24950Y26750
X25050Y25750
X24950Y24750
X25050Y23750
X24950Y22750
X25050Y21750
X24950Y20750
X25050Y19750
X24950Y18750
X25050Y17750
X24950Y16750
X25050Y15750
X24950Y14750
X25050Y13750
X24950Y12750
X25050Y11750
X24950Y10750
X25050Y9750
X24950Y8750
X25050Y7750
X24950Y6750
X25050Y5750
X24950Y4750
X22950Y8750
X23050Y9750
X22950Y10750
X23050Y11750
X22950Y12750
X23050Y13750
X22950Y14750
X23050Y15750
X22950Y16750
X23050Y17750
X21050Y17750
X20950Y16750
X21050Y15750
X20950Y14750
X21050Y13750
X20950Y12750
X21050Y11750
X20950Y10750
X21050Y9750
X20950Y8750
X26250Y14750
X26250Y15750
X26250Y16750
X26250Y17750
X26250Y18750
X26250Y19750
X30050Y19750
X29950Y18750
X30050Y17750
X29950Y16750
X30050Y15750
X29950Y14750
X30050Y13750
X29950Y12750
X30050Y11750
X29950Y10750
X30050Y9750
X29950Y8750
X30050Y7750
X29950Y6750
X30050Y5750
X29950Y4750
X36300Y13000
X36200Y14000
X36300Y15000
X36200Y19000
X36300Y20000
X36200Y21000
X36300Y22000
X36300Y26000
X36200Y27000
X36300Y28000
X36300Y32000
X36200Y33000
X36300Y34000
X36300Y38000
X36200Y39000
X36300Y40000
X32750Y45500
X32750Y50000
X38500Y47500
X39500Y47500
X40500Y47500
X44750Y46750
X47250Y45000
X44750Y39500
X45000Y36250
X42500Y36250
X41000Y33000
X30050Y27750
X29950Y26750
X30050Y25750
X29950Y24750
X30050Y23750
X29950Y22750
X30050Y21750
X29950Y20750
X44750Y5000
X46000Y6500
X47250Y12000
X39250Y54750
X39250Y59000
X41000Y59000
X42000Y59000
X43000Y59000
X44750Y60000
X42750Y61750
X39750Y64500
X35750Y64500
X35771Y70750
X38750Y73300
X39750Y73200
X40750Y73300
X41750Y73200
X42750Y73300
X42400Y70750
X40150Y70772
X46500Y67500
X46500Y66500
X46500Y65500
X47500Y65500
X47500Y66500
X47500Y67500
X47500Y64500
X47500Y63500
X47500Y62500
X47500Y61500
X47500Y60500
X46500Y60500
X46500Y61500
X46500Y62500
X46500Y63500
X46500Y64500
X46000Y57000
X27500Y71750
X25070Y73250
X23930Y73250
X21750Y66000
X21500Y57750
X22500Y57750
X23500Y57750
X24500Y57750
X25500Y57750
X26500Y57750
X26500Y56750
X25500Y56750
X24500Y56750
X23500Y56750
X22500Y56750
X21500Y56750
X15931Y75691
X15384Y76809
X14293Y76809
X13206Y76809
X12116Y76809
X12659Y75691
X11569Y75691
X13750Y75691
X14840Y75691
X28500Y26750
X28500Y25750
X28500Y24750
X28500Y23750
X28500Y22750
X28500Y21750
X28500Y20750
X28500Y19750
X28500Y18750
X28500Y17750
X28500Y16750
X28500Y15750
X28500Y14750
X28500Y13750
X28500Y12750
X28500Y11750
X28500Y10750
X28500Y9750
X28500Y8750
X28500Y7750
X28500Y6750
X28500Y5750
X28500Y4750
X27500Y4750
X27500Y5750
X27500Y6750
X27500Y7750
X27500Y8750
X27500Y9750
X27500Y10750
X27500Y11750
X27500Y12750
X27500Y13750
X27500Y14750
X27500Y15750
X27500Y16750
X27500Y17750
X27500Y18750
X27500Y19750
X27500Y20750
X27500Y21750
X27500Y22750
X27500Y23750
X27500Y24750
X27500Y25750
X27500Y26750
X33000Y10750
X33500Y9750
X34000Y10750
X34500Y9750
X35000Y10750
X35500Y9750
X36000Y10750
X32500Y9750
X39750Y9750
X40250Y10750
X40750Y9750
X41250Y10750
X41750Y9750
X42250Y10750
X42750Y9750
X43250Y10750
X9500Y10750
X9500Y9750
X9500Y8750
X9500Y7750
X9500Y6750
X9500Y5750
X9500Y4750
X8500Y4750
X8500Y5750
X8500Y6750
X8500Y7750
X8500Y8750
X8500Y9750
X8500Y10750
X8500Y11750
X8500Y12750
X8500Y13750
X8500Y14750
X9500Y14750
X9500Y13750
X9500Y12750
X9500Y11750
X9500Y15750
X9500Y16750
X9500Y17750
X9500Y18750
X9500Y19750
X9500Y20750
X9500Y21750
X9500Y22750
X9500Y23750
X9500Y24750
X9500Y25750
X9500Y26750
X8500Y26750
X8500Y25750
X8500Y24750
X8500Y23750
X8500Y22750
X8500Y21750
X8500Y20750
X8500Y19750
X8500Y18750
X8500Y17750
X8500Y16750
X8500Y15750
X44061Y82461
X45439Y82461
X40750Y86000
X39750Y86000
X35500Y86000
X34500Y86000
X30250Y86000
X29250Y86000
X25000Y86000
X24000Y86000
X23000Y86000
X18500Y86000
X17500Y86000
X16500Y86000
X11500Y86000
X10500Y86000
X9500Y86000
X8500Y86000
X7500Y86000
X31561Y98539
X32939Y98539
X35811Y98539
X37189Y98539
X40061Y98539
X41439Y98539
X44311Y98539
X45689Y98539
X72750Y74500
X73750Y74500
X87500Y74500
X88500Y74500
X89500Y74500
X90500Y74500
X91500Y74500
X86250Y40000
X86250Y39000
X86250Y38000
X86250Y34000
X86250Y33000
X86250Y32000
X86250Y28000
X86250Y27000
X86250Y26000
X86250Y22000
X86250Y21000
X86250Y20000
X86250Y19000
X86250Y15000
X86250Y14000
X86250Y13000
X61250Y30500
X61250Y31500
X61250Y32500
X58000Y32500
X58000Y31500
X58000Y30500
X55700Y15750
X55800Y16750
X55700Y17750
X55800Y18750
X55700Y19750
X55800Y20750
X55700Y21750
X55800Y22750
X55700Y23750
X55800Y24750
X55700Y25750
X55800Y26750
X59800Y26750
X59700Y25750
X59800Y24750
X59700Y23750
X59800Y22750
X59700Y21750
X59800Y20750
X59700Y19750
X59800Y18750
X59700Y17750
X59800Y16750
X59700Y15750
X59800Y14750
X59700Y13750
X59800Y12750
X59700Y11750
X59800Y10750
X59700Y9750
X59800Y8750
X59700Y7750
X59800Y6750
X59700Y5750
X59800Y4750
X59700Y3750
X55700Y3750
X55800Y4750
X55700Y5750
X55800Y6750
X55700Y7750
X55800Y8750
X55700Y9750
X55800Y10750
X55700Y11750
X55800Y12750
X55700Y13750
X55800Y14750
X54450Y35250
X54450Y36250
X54450Y37250
X54450Y38250
X54450Y39250
X54450Y40250
X54450Y41250
X54450Y42250
X54450Y43250
X54450Y44250
X54450Y45250
X54450Y46250
X54450Y47250
X54450Y48250
X54450Y49250
X54450Y50250
X54450Y51250
X54450Y52250
X52250Y52250
X52250Y51250
X52250Y50250
X52250Y49250
X52250Y48250
X52250Y47250
X52250Y46250
X52250Y45250
X52250Y44250
X52250Y43250
X52250Y42250
X52250Y41250
X52250Y40250
X52250Y39250
X52250Y38250
X52250Y37250
X52250Y36250
X52250Y35250
X69000Y32350
X69000Y31350
X70000Y31350
X70000Y32350
X71000Y32350
X71000Y31350
X72000Y31350
X72000Y32350
X73000Y32350
X73000Y31350
X74000Y31350
X74000Y32350
X74750Y34200
X75750Y34300
X76750Y34200
X77750Y34300
X78750Y34200
X79750Y34300
X80750Y34200
X81750Y34300
X82750Y34200
X82750Y36350
X81750Y36250
X80750Y36350
X79750Y36250
X78750Y36350
X77750Y36250
X76750Y36350
X75750Y36250
X74750Y36350
X73800Y27750
X73700Y26750
X73800Y25750
X73700Y24750
X73800Y23750
X73700Y22750
X73800Y21750
X73700Y20750
X73800Y19750
X73700Y18750
X73800Y17750
X73700Y16750
X73800Y15750
X73700Y14750
X73800Y13750
X73700Y12750
X73800Y11750
X73700Y10750
X73800Y9750
X73700Y8750
X73800Y7750
X73700Y6750
X73800Y5750
X73700Y4750
X71700Y8750
X71800Y9750
X71700Y10750
X71800Y11750
X71700Y12750
X71800Y13750
X71700Y14750
X71800Y15750
X71700Y16750
X71800Y17750
X69800Y17750
X69700Y16750
X69800Y15750
X69700Y14750
X69800Y13750
X69700Y12750
X69800Y11750
X69700Y10750
X69800Y9750
X69700Y8750
X75000Y14750
X75000Y15750
X75000Y16750
X75000Y17750
X75000Y18750
X75000Y19750
X78800Y19750
X78700Y18750
X78800Y17750
X78700Y16750
X78800Y15750
X78700Y14750
X78800Y13750
X78700Y12750
X78800Y11750
X78700Y10750
X78800Y9750
X78700Y8750
X78800Y7750
X78700Y6750
X78800Y5750
X78700Y4750
X85050Y13000
X84950Y14000
X85050Y15000
X84950Y19000
X85050Y20000
X84950Y21000
X85050Y22000
X85050Y26000
X84950Y27000
X85050Y28000
X85050Y32000
X84950Y33000
X85050Y34000
X85050Y38000
X84950Y39000
X85050Y40000
X81500Y45500
X81500Y50000
X87250Y47500
X88250Y47500
X89250Y47500
X93500Y46750
X96000Y45000
X93500Y39500
X93750Y36250
X91250Y36250
X89750Y33000
X78800Y27750
X78700Y26750
X78800Y25750
X78700Y24750
X78800Y23750
X78700Y22750
X78800Y21750
X78700Y20750
X93500Y5000
X94750Y6500
X96000Y12000
X88000Y54750
X88000Y59000
X89750Y59000
X90750Y59000
X91750Y59000
X93500Y60000
X91500Y61750
X88500Y64500
X84500Y64500
X84521Y70750
X87500Y73300
X88500Y73200
X89500Y73300
X90500Y73200
X91500Y73300
X91150Y70750
X88900Y70772
X95250Y67500
X95250Y66500
X95250Y65500
X96250Y65500
X96250Y66500
X96250Y67500
X96250Y64500
X96250Y63500
X96250Y62500
X96250Y61500
X96250Y60500
X95250Y60500
X95250Y61500
X95250Y62500
X95250Y63500
X95250Y64500
X94750Y57000
X76250Y71750
X73820Y73250
X72680Y73250
X70500Y66000
X70250Y57750
X71250Y57750
X72250Y57750
X73250Y57750
X74250Y57750
X75250Y57750
X75250Y56750
X74250Y56750
X73250Y56750
X72250Y56750
X71250Y56750
X70250Y56750
X64681Y75691
X64134Y76809
X63043Y76809
X61956Y76809
X60866Y76809
X61409Y75691
X60319Y75691
X62500Y75691
X63590Y75691
X77250Y26750
X77250Y25750
X77250Y24750
X77250Y23750
X77250Y22750
X77250Y21750
X77250Y20750
X77250Y19750
X77250Y18750
X77250Y17750
X77250Y16750
X77250Y15750
X77250Y14750
X77250Y13750
X77250Y12750
X77250Y11750
X77250Y10750
X77250Y9750
X77250Y8750
X77250Y7750
X77250Y6750
X77250Y5750
X77250Y4750
X76250Y4750
X76250Y5750
X76250Y6750
X76250Y7750
X76250Y8750
X76250Y9750
X76250Y10750
X76250Y11750
X76250Y12750
X76250Y13750
X76250Y14750
X76250Y15750
X76250Y16750
X76250Y17750
X76250Y18750
X76250Y19750
X76250Y20750
X76250Y21750
X76250Y22750
X76250Y23750
X76250Y24750
X76250Y25750
X76250Y26750
X81750Y10750
X82250Y9750
X82750Y10750
X83250Y9750
X83750Y10750
X84250Y9750
X84750Y10750
X81250Y9750
X88500Y9750
X89000Y10750
X89500Y9750
X90000Y10750
X90500Y9750
X91000Y10750
X91500Y9750
X92000Y10750
X58250Y10750
X58250Y9750
X58250Y8750
X58250Y7750
X58250Y6750
X58250Y5750
X58250Y4750
X57250Y4750
X57250Y5750
X57250Y6750
X57250Y7750
X57250Y8750
X57250Y9750
X57250Y10750
X57250Y11750
X57250Y12750
X57250Y13750
X57250Y14750
X58250Y14750
X58250Y13750
X58250Y12750
X58250Y11750
X58250Y15750
X58250Y16750
X58250Y17750
X58250Y18750
X58250Y19750
X58250Y20750
X58250Y21750
X58250Y22750
X58250Y23750
X58250Y24750
X58250Y25750
X58250Y26750
X57250Y26750
X57250Y25750
X57250Y24750
X57250Y23750
X57250Y22750
X57250Y21750
X57250Y20750
X57250Y19750
X57250Y18750
X57250Y17750
X57250Y16750
X57250Y15750
X92811Y82461
X94189Y82461
X89500Y86000
X88500Y86000
X84250Y86000
X83250Y86000
X79000Y86000
X78000Y86000
X73750Y86000
X72750Y86000
X71750Y86000
X67250Y86000
X66250Y86000
X65250Y86000
X60250Y86000
X59250Y86000
X58250Y86000
X57250Y86000
X56250Y86000
X80311Y98539
X81689Y98539
X84561Y98539
X85939Y98539
X88811Y98539
X90189Y98539
X93061Y98539
X94439Y98539
X121500Y74500
X122500Y74500
X136250Y74500
X137250Y74500
X138250Y74500
X139250Y74500
X140250Y74500
X135000Y40000
X135000Y39000
X135000Y38000
X135000Y34000
X135000Y33000
X135000Y32000
X135000Y28000
X135000Y27000
X135000Y26000
X135000Y22000
X135000Y21000
X135000Y20000
X135000Y19000
X135000Y15000
X135000Y14000
X135000Y13000
X110000Y30500
X110000Y31500
X110000Y32500
X106750Y32500
X106750Y31500
X106750Y30500
X104450Y15750
X104550Y16750
X104450Y17750
X104550Y18750
X104450Y19750
X104550Y20750
X104450Y21750
X104550Y22750
X104450Y23750
X104550Y24750
X104450Y25750
X104550Y26750
X108550Y26750
X108450Y25750
X108550Y24750
X108450Y23750
X108550Y22750
X108450Y21750
X108550Y20750
X108450Y19750
X108550Y18750
X108450Y17750
X108550Y16750
X108450Y15750
X108550Y14750
X108450Y13750
X108550Y12750
X108450Y11750
X108550Y10750
X108450Y9750
X108550Y8750
X108450Y7750
X108550Y6750
X108450Y5750
X108550Y4750
X108450Y3750
X104450Y3750
X104550Y4750
X104450Y5750
X104550Y6750
X104450Y7750
X104550Y8750
X104450Y9750
X104550Y10750
X104450Y11750
X104550Y12750
X104450Y13750
X104550Y14750
X103200Y35250
X103200Y36250
X103200Y37250
X103200Y38250
X103200Y39250
X103200Y40250
X103200Y41250
X103200Y42250
X103200Y43250
X103200Y44250
X103200Y45250
X103200Y46250
X103200Y47250
X103200Y48250
X103200Y49250
X103200Y50250
X103200Y51250
X103200Y52250
X101000Y52250
X101000Y51250
X101000Y50250
X101000Y49250
X101000Y48250
X101000Y47250
X101000Y46250
X101000Y45250
X101000Y44250
X101000Y43250
X101000Y42250
X101000Y41250
X101000Y40250
X101000Y39250
X101000Y38250
X101000Y37250
X101000Y36250
X101000Y35250
X117750Y32350
X117750Y31350
X118750Y31350
X118750Y32350
X119750Y32350
X119750Y31350
X120750Y31350
X120750Y32350
X121750Y32350
X121750Y31350
X122750Y31350
X122750Y32350
X123500Y34200
X124500Y34300
X125500Y34200
X126500Y34300
X127500Y34200
X128500Y34300
X129500Y34200
X130500Y34300
X131500Y34200
X131500Y36350
X130500Y36250
X129500Y36350
X128500Y36250
X127500Y36350
X126500Y36250
X125500Y36350
X124500Y36250
X123500Y36350
X122550Y27750
X122450Y26750
X122550Y25750
X122450Y24750
X122550Y23750
X122450Y22750
X122550Y21750
X122450Y20750
X122550Y19750
X122450Y18750
X122550Y17750
X122450Y16750
X122550Y15750
X122450Y14750
X122550Y13750
X122450Y12750
X122550Y11750
X122450Y10750
X122550Y9750
X122450Y8750
X122550Y7750
X122450Y6750
X122550Y5750
X122450Y4750
X120450Y8750
X120550Y9750
X120450Y10750
X120550Y11750
X120450Y12750
X120550Y13750
X120450Y14750
X120550Y15750
X120450Y16750
X120550Y17750
X118550Y17750
X118450Y16750
X118550Y15750
X118450Y14750
X118550Y13750
X118450Y12750
X118550Y11750
X118450Y10750
X118550Y9750
X118450Y8750
X123750Y14750
X123750Y15750
X123750Y16750
X123750Y17750
X123750Y18750
X123750Y19750
X127550Y19750
X127450Y18750
X127550Y17750
X127450Y16750
X127550Y15750
X127450Y14750
X127550Y13750
X127450Y12750
X127550Y11750
X127450Y10750
X127550Y9750
X127450Y8750
X127550Y7750
X127450Y6750
X127550Y5750
X127450Y4750
X133800Y13000
X133700Y14000
X133800Y15000
X133700Y19000
X133800Y20000
X133700Y21000
X133800Y22000
X133800Y26000
X133700Y27000
X133800Y28000
X133800Y32000
X133700Y33000
X133800Y34000
X133800Y38000
X133700Y39000
X133800Y40000
X130250Y45500
X130250Y50000
X136000Y47500
X137000Y47500
X138000Y47500
X142250Y46750
X144750Y45000
X142250Y39500
X142500Y36250
X140000Y36250
X138500Y33000
X127550Y27750
X127450Y26750
X127550Y25750
X127450Y24750
X127550Y23750
X127450Y22750
X127550Y21750
X127450Y20750
X142250Y5000
X143500Y6500
X144750Y12000
X136750Y54750
X136750Y59000
X138500Y59000
X139500Y59000
X140500Y59000
X142250Y60000
X140250Y61750
X137250Y64500
X133250Y64500
X133271Y70750
X136250Y73300
X137250Y73200
X138250Y73300
X139250Y73200
X140250Y73300
X139900Y70750
X137650Y70772
X144000Y67500
X144000Y66500
X144000Y65500
X145000Y65500
X145000Y66500
X145000Y67500
X145000Y64500
X145000Y63500
X145000Y62500
X145000Y61500
X145000Y60500
X144000Y60500
X144000Y61500
X144000Y62500
X144000Y63500
X144000Y64500
X143500Y57000
X125000Y71750
X122570Y73250
X121430Y73250
X119250Y66000
X119000Y57750
X120000Y57750
X121000Y57750
X122000Y57750
X123000Y57750
X124000Y57750
X124000Y56750
X123000Y56750
X122000Y56750
X121000Y56750
X120000Y56750
X119000Y56750
X113431Y75691
X112884Y76809
X111793Y76809
X110706Y76809
X109616Y76809
X110159Y75691
X109069Y75691
X111250Y75691
X112340Y75691
X126000Y26750
X126000Y25750
X126000Y24750
X126000Y23750
X126000Y22750
X126000Y21750
X126000Y20750
X126000Y19750
X126000Y18750
X126000Y17750
X126000Y16750
X126000Y15750
X126000Y14750
X126000Y13750
X126000Y12750
X126000Y11750
X126000Y10750
X126000Y9750
X126000Y8750
X126000Y7750
X126000Y6750
X126000Y5750
X126000Y4750
X125000Y4750
X125000Y5750
X125000Y6750
X125000Y7750
X125000Y8750
X125000Y9750
X125000Y10750
X125000Y11750
X125000Y12750
X125000Y13750
X125000Y14750
X125000Y15750
X125000Y16750
X125000Y17750
X125000Y18750
X125000Y19750
X125000Y20750
X125000Y21750
X125000Y22750
X125000Y23750
X125000Y24750
X125000Y25750
X125000Y26750
X130500Y10750
X131000Y9750
X131500Y10750
X132000Y9750
X132500Y10750
X133000Y9750
X133500Y10750
X130000Y9750
X137250Y9750
X137750Y10750
X138250Y9750
X138750Y10750
X139250Y9750
X139750Y10750
X140250Y9750
X140750Y10750
X107000Y10750
X107000Y9750
X107000Y8750
X107000Y7750
X107000Y6750
X107000Y5750
X107000Y4750
X106000Y4750
X106000Y5750
X106000Y6750
X106000Y7750
X106000Y8750
X106000Y9750
X106000Y10750
X106000Y11750
X106000Y12750
X106000Y13750
X106000Y14750
X107000Y14750
X107000Y13750
X107000Y12750
X107000Y11750
X107000Y15750
X107000Y16750
X107000Y17750
X107000Y18750
X107000Y19750
X107000Y20750
X107000Y21750
X107000Y22750
X107000Y23750
X107000Y24750
X107000Y25750
X107000Y26750
X106000Y26750
X106000Y25750
X106000Y24750
X106000Y23750
X106000Y22750
X106000Y21750
X106000Y20750
X106000Y19750
X106000Y18750
X106000Y17750
X106000Y16750
X106000Y15750
X141561Y82461
X142939Y82461
X138250Y86000
X137250Y86000
X133000Y86000
X132000Y86000
X127750Y86000
X126750Y86000
X122500Y86000
X121500Y86000
X120500Y86000
X116000Y86000
X115000Y86000
X114000Y86000
X109000Y86000
X108000Y86000
X107000Y86000
X106000Y86000
X105000Y86000
X129061Y98539
X130439Y98539
X133311Y98539
X134689Y98539
X137561Y98539
X138939Y98539
X141811Y98539
X143189Y98539
T05C0.071950
X45000Y92000
X40750Y92000
X36500Y92000
X32250Y92000
X28000Y92000
X49250Y92000
X49250Y90110
X45000Y90110
X40750Y90110
X36500Y90110
X32250Y90110
X28000Y90110
X28000Y93890
X32250Y93890
X36500Y93890
X40750Y93890
X45000Y93890
X49250Y93890
X93750Y92000
X89500Y92000
X85250Y92000
X81000Y92000
X76750Y92000
X98000Y92000
X98000Y90110
X93750Y90110
X89500Y90110
X85250Y90110
X81000Y90110
X76750Y90110
X76750Y93890
X81000Y93890
X85250Y93890
X89500Y93890
X93750Y93890
X98000Y93890
X142500Y92000
X138250Y92000
X134000Y92000
X129750Y92000
X125500Y92000
X146750Y92000
X146750Y90110
X142500Y90110
X138250Y90110
X134000Y90110
X129750Y90110
X125500Y90110
X125500Y93890
X129750Y93890
X134000Y93890
X138250Y93890
X142500Y93890
X146750Y93890
T06C0.078700
X30500Y76250
X34250Y76250
X79250Y76250
X83000Y76250
X128000Y76250
X131750Y76250
T07C0.098000
X23500Y35750
X23500Y51750
X34000Y47860
X26000Y47860
X21000Y19750
X14000Y19750
X14000Y6750
X21000Y6750
X41500Y95500
X72250Y35750
X72250Y51750
X82750Y47860
X74750Y47860
X69750Y19750
X62750Y19750
X62750Y6750
X69750Y6750
X90250Y95500
X121000Y35750
X121000Y51750
X131500Y47860
X123500Y47860
X118500Y19750
X111500Y19750
X111500Y6750
X118500Y6750
X139000Y95500
T08C0.125500
X4500Y4500
X32000Y7250
X36500Y7250
X39250Y7250
X43750Y7250
X46500Y4500
X46500Y78500
X4500Y78500
X26748Y29051
X4500Y82000
X4500Y99000
X49750Y99000
X49750Y82000
X53250Y4500
X80750Y7250
X85250Y7250
X88000Y7250
X92500Y7250
X95250Y4500
X95250Y78500
X53250Y78500
X75498Y29051
X53250Y82000
X53250Y99000
X98500Y99000
X98500Y82000
X102000Y4500
X129500Y7250
X134000Y7250
X136750Y7250
X141250Y7250
X144000Y4500
X144000Y78500
X102000Y78500
X124248Y29051
X102000Y82000
X102000Y99000
X147250Y99000
X147250Y82000
T09C0.132000
X8828Y76250
X18671Y76250
X23450Y77900
X25550Y77900
X38200Y77900
X43300Y77900
X40900Y40550
X40900Y37450
X40900Y34550
X40900Y31450
X40900Y28550
X40900Y25450
X40900Y22550
X40900Y18450
X40900Y15550
X40900Y12450
X12200Y28900
X8950Y28900
X8950Y34100
X12200Y34100
X41300Y82600
X39200Y82600
X36050Y82600
X33950Y82600
X30800Y82600
X28700Y82600
X25550Y82600
X22450Y82600
X19050Y82600
X15950Y82600
X12050Y82600
X6950Y82600
X57578Y76250
X67421Y76250
X72200Y77900
X74300Y77900
X86950Y77900
X92050Y77900
X89650Y40550
X89650Y37450
X89650Y34550
X89650Y31450
X89650Y28550
X89650Y25450
X89650Y22550
X89650Y18450
X89650Y15550
X89650Y12450
X60950Y28900
X57700Y28900
X57700Y34100
X60950Y34100
X90050Y82600
X87950Y82600
X84800Y82600
X82700Y82600
X79550Y82600
X77450Y82600
X74300Y82600
X71200Y82600
X67800Y82600
X64700Y82600
X60800Y82600
X55700Y82600
X106328Y76250
X116171Y76250
X120950Y77900
X123050Y77900
X135700Y77900
X140800Y77900
X138400Y40550
X138400Y37450
X138400Y34550
X138400Y31450
X138400Y28550
X138400Y25450
X138400Y22550
X138400Y18450
X138400Y15550
X138400Y12450
X109700Y28900
X106450Y28900
X106450Y34100
X109700Y34100
X138800Y82600
X136700Y82600
X133550Y82600
X131450Y82600
X128300Y82600
X126200Y82600
X123050Y82600
X119950Y82600
X116550Y82600
X113450Y82600
X109550Y82600
X104450Y82600
M30
