G75*
G70*
%OFA0B0*%
%FSLAX25Y25*%
%IPPOS*%
%LPD*%
%AMOC8*
5,1,8,0,0,1.08239X$1,22.5*
%
%ADD10R,0.07200X0.00600*%
%ADD101R,0.04340X0.02770*%
%ADD102R,0.03360X0.01780*%
%ADD111R,0.07100X0.05400*%
%ADD115R,0.02000X0.04700*%
%ADD117C,0.14400*%
%ADD119R,0.09460X0.03160*%
%ADD12C,0.13300*%
%ADD120C,0.05950*%
%ADD123C,0.11750*%
%ADD124C,0.23800*%
%ADD126C,0.14200*%
%ADD13R,0.14970X0.09460*%
%ADD131R,0.06710X0.06710*%
%ADD132C,0.08200*%
%ADD133R,0.03200X0.09500*%
%ADD137R,0.13400X0.07890*%
%ADD138C,0.04760*%
%ADD14R,0.02970X0.05520*%
%ADD140R,0.05600X0.09600*%
%ADD141R,0.06590X0.05800*%
%ADD142C,0.13400*%
%ADD143R,0.07100X0.23240*%
%ADD146C,0.04800*%
%ADD15C,0.05600*%
%ADD151C,0.03900*%
%ADD16R,0.11430X0.07100*%
%ADD20R,0.00600X0.07200*%
%ADD23R,0.05130X0.04740*%
%ADD25R,0.07100X0.11430*%
%ADD31C,0.07300*%
%ADD33R,0.03160X0.09460*%
%ADD34R,0.07300X0.07300*%
%ADD37R,0.09500X0.03200*%
%ADD39R,0.07100X0.01980*%
%ADD40OC8,0.06800*%
%ADD42R,0.05520X0.05520*%
%ADD43R,0.03520X0.04700*%
%ADD44C,0.04600*%
%ADD47R,0.04700X0.03520*%
%ADD49R,0.04740X0.05130*%
%ADD53R,0.07890X0.07100*%
%ADD55R,0.05400X0.07100*%
%ADD56R,0.05800X0.06590*%
%ADD58OC8,0.08200*%
%ADD60R,0.04700X0.02000*%
%ADD64C,0.20800*%
%ADD71R,0.05520X0.03560*%
%ADD72C,0.14800*%
%ADD73C,0.12610*%
%ADD74R,0.21670X0.08670*%
%ADD75C,0.11430*%
%ADD81C,0.06800*%
%ADD82C,0.06710*%
%ADD83R,0.08200X0.08200*%
%ADD84R,0.03560X0.05520*%
%ADD85R,0.09690X0.09060*%
%ADD92R,0.33080X0.11040*%
%ADD96C,0.07490*%
X0060000Y0060000D02*
G75*
%LPD*%
D12*
X0297480Y0320510D03*
D131*
X0315000Y0077500D03*
X0125000Y0077500D03*
D82*
X0125000Y0087500D03*
X0125000Y0097500D03*
X0125000Y0107500D03*
X0125000Y0117500D03*
X0125000Y0127500D03*
X0125000Y0137500D03*
X0125000Y0147500D03*
X0125000Y0157500D03*
X0125000Y0167500D03*
X0125000Y0177500D03*
X0125000Y0187500D03*
X0125000Y0197500D03*
X0125000Y0207500D03*
X0125000Y0217500D03*
X0125000Y0227500D03*
X0125000Y0237500D03*
X0125000Y0247500D03*
X0125000Y0257500D03*
X0125000Y0267500D03*
X0125000Y0277500D03*
X0125000Y0287500D03*
X0125000Y0297500D03*
X0115000Y0297500D03*
X0115000Y0287500D03*
X0115000Y0277500D03*
X0115000Y0267500D03*
X0115000Y0257500D03*
X0115000Y0247500D03*
X0115000Y0237500D03*
X0115000Y0227500D03*
X0115000Y0217500D03*
X0115000Y0207500D03*
X0115000Y0197500D03*
X0115000Y0187500D03*
X0115000Y0177500D03*
X0115000Y0167500D03*
X0115000Y0157500D03*
X0115000Y0147500D03*
X0115000Y0137500D03*
X0115000Y0127500D03*
X0115000Y0117500D03*
X0115000Y0107500D03*
X0115000Y0097500D03*
X0115000Y0087500D03*
X0115000Y0077500D03*
X0305000Y0077500D03*
X0305000Y0087500D03*
X0305000Y0097500D03*
X0305000Y0107500D03*
X0305000Y0117500D03*
X0315000Y0117500D03*
X0315000Y0107500D03*
X0315000Y0097500D03*
X0315000Y0087500D03*
X0315000Y0127500D03*
X0315000Y0137500D03*
X0315000Y0147500D03*
X0315000Y0157500D03*
X0315000Y0167500D03*
X0315000Y0177500D03*
X0315000Y0187500D03*
X0315000Y0197500D03*
X0315000Y0207500D03*
X0315000Y0217500D03*
X0315000Y0227500D03*
X0315000Y0237500D03*
X0315000Y0247500D03*
X0315000Y0257500D03*
X0315000Y0267500D03*
X0315000Y0277500D03*
X0315000Y0287500D03*
X0315000Y0297500D03*
X0305000Y0297500D03*
X0305000Y0287500D03*
X0305000Y0277500D03*
X0305000Y0267500D03*
X0305000Y0257500D03*
X0305000Y0247500D03*
X0305000Y0237500D03*
X0305000Y0227500D03*
X0305000Y0217500D03*
X0305000Y0207500D03*
X0305000Y0197500D03*
X0305000Y0187500D03*
X0305000Y0177500D03*
X0305000Y0167500D03*
X0305000Y0157500D03*
X0305000Y0147500D03*
X0305000Y0137500D03*
X0305000Y0127500D03*
D132*
X0280500Y0127500D03*
X0279500Y0137500D03*
X0280500Y0147500D03*
X0279500Y0157500D03*
X0280500Y0167500D03*
X0279500Y0177500D03*
X0280500Y0187500D03*
X0279500Y0197500D03*
X0280500Y0207500D03*
X0279500Y0217500D03*
X0280500Y0227500D03*
X0279500Y0237500D03*
X0280500Y0247500D03*
X0279500Y0257500D03*
X0280500Y0267500D03*
X0279500Y0277500D03*
X0280500Y0287500D03*
X0279500Y0297500D03*
X0280500Y0307500D03*
X0290000Y0372000D03*
X0300000Y0373000D03*
X0310000Y0372000D03*
X0320000Y0373000D03*
X0330000Y0372000D03*
X0340000Y0373000D03*
X0350000Y0372000D03*
X0360000Y0373000D03*
X0370000Y0372000D03*
X0370000Y0393500D03*
X0360000Y0392500D03*
X0350000Y0393500D03*
X0340000Y0392500D03*
X0330000Y0393500D03*
X0320000Y0392500D03*
X0310000Y0393500D03*
X0300000Y0392500D03*
X0290000Y0393500D03*
X0330500Y0307500D03*
X0329500Y0297500D03*
X0330500Y0287500D03*
X0329500Y0277500D03*
X0330500Y0267500D03*
X0329500Y0257500D03*
X0330500Y0247500D03*
X0329500Y0237500D03*
X0330500Y0227500D03*
X0329500Y0217500D03*
X0330500Y0207500D03*
X0329500Y0197500D03*
X0330500Y0187500D03*
X0329500Y0177500D03*
X0330500Y0167500D03*
X0329500Y0157500D03*
X0330500Y0147500D03*
X0329500Y0137500D03*
X0330500Y0127500D03*
X0329500Y0117500D03*
X0330500Y0107500D03*
X0329500Y0097500D03*
X0330500Y0087500D03*
X0329500Y0077500D03*
X0365000Y0127500D03*
X0370000Y0137500D03*
X0375000Y0127500D03*
X0380000Y0137500D03*
X0385000Y0127500D03*
X0390000Y0137500D03*
X0393000Y0160000D03*
X0392000Y0170000D03*
X0393000Y0180000D03*
X0392000Y0220000D03*
X0393000Y0230000D03*
X0392000Y0240000D03*
X0393000Y0290000D03*
X0392000Y0300000D03*
X0393000Y0310000D03*
X0393000Y0350000D03*
X0392000Y0360000D03*
X0393000Y0370000D03*
X0393000Y0410000D03*
X0392000Y0420000D03*
X0393000Y0430000D03*
X0292500Y0227500D03*
X0292500Y0217500D03*
X0292500Y0207500D03*
X0292500Y0197500D03*
X0292500Y0187500D03*
X0292500Y0177500D03*
X0260500Y0167500D03*
X0259500Y0157500D03*
X0260500Y0147500D03*
X0259500Y0137500D03*
X0260500Y0127500D03*
X0259500Y0117500D03*
X0240500Y0127500D03*
X0239500Y0137500D03*
X0240500Y0147500D03*
X0239500Y0157500D03*
X0240500Y0167500D03*
X0239500Y0177500D03*
X0240500Y0187500D03*
X0239500Y0197500D03*
X0240500Y0207500D03*
X0259500Y0197500D03*
X0260500Y0187500D03*
X0259500Y0177500D03*
X0260500Y0207500D03*
X0279500Y0117500D03*
X0280500Y0107500D03*
X0279500Y0097500D03*
X0280500Y0087500D03*
X0279500Y0077500D03*
X0239500Y0117500D03*
X0140500Y0117500D03*
X0139500Y0107500D03*
X0140500Y0097500D03*
X0139500Y0087500D03*
X0140500Y0077500D03*
X0139500Y0067500D03*
X0139500Y0127500D03*
X0140500Y0137500D03*
X0139500Y0147500D03*
X0140500Y0157500D03*
X0139500Y0167500D03*
X0140500Y0177500D03*
X0139500Y0187500D03*
X0140500Y0197500D03*
X0139500Y0207500D03*
X0140500Y0217500D03*
X0139500Y0227500D03*
X0140500Y0237500D03*
X0139500Y0247500D03*
X0140500Y0257500D03*
X0139500Y0267500D03*
X0140500Y0277500D03*
X0139500Y0287500D03*
X0140500Y0297500D03*
X0100500Y0297500D03*
X0099500Y0287500D03*
X0100500Y0277500D03*
X0099500Y0267500D03*
X0100500Y0257500D03*
X0099500Y0247500D03*
X0100500Y0237500D03*
X0099500Y0227500D03*
X0100500Y0217500D03*
X0099500Y0207500D03*
X0100500Y0197500D03*
X0099500Y0187500D03*
X0100500Y0177500D03*
X0099500Y0167500D03*
X0100500Y0157500D03*
X0099500Y0147500D03*
X0100500Y0137500D03*
X0099500Y0127500D03*
X0100500Y0117500D03*
X0099500Y0107500D03*
X0100500Y0097500D03*
X0099500Y0087500D03*
X0100500Y0077500D03*
X0099500Y0067500D03*
X0087000Y0382500D03*
X0087000Y0392500D03*
X0087000Y0402500D03*
X0087000Y0412500D03*
X0087000Y0422500D03*
X0087000Y0432500D03*
X0087000Y0442500D03*
X0087000Y0452500D03*
X0087000Y0462500D03*
X0087000Y0472500D03*
X0087000Y0482500D03*
X0087000Y0492500D03*
X0087000Y0502500D03*
X0087000Y0512500D03*
X0087000Y0522500D03*
X0087000Y0532500D03*
X0087000Y0542500D03*
X0065000Y0542500D03*
X0065000Y0532500D03*
X0065000Y0522500D03*
X0065000Y0512500D03*
X0065000Y0502500D03*
X0065000Y0492500D03*
X0065000Y0482500D03*
X0065000Y0472500D03*
X0065000Y0462500D03*
X0065000Y0452500D03*
X0065000Y0442500D03*
X0065000Y0432500D03*
X0065000Y0422500D03*
X0065000Y0412500D03*
X0065000Y0402500D03*
X0065000Y0392500D03*
X0065000Y0552500D03*
X0156590Y0786910D03*
X0167500Y0786910D03*
X0178400Y0786910D03*
X0183840Y0798090D03*
X0172930Y0798090D03*
X0162060Y0798090D03*
X0151160Y0798090D03*
X0189310Y0786910D03*
X0269300Y0762500D03*
X0280700Y0762500D03*
X0417500Y0763000D03*
X0427500Y0762000D03*
X0437500Y0763000D03*
X0447500Y0762000D03*
X0457500Y0763000D03*
X0462500Y0137500D03*
X0457500Y0127500D03*
X0452500Y0137500D03*
X0447500Y0127500D03*
X0442500Y0137500D03*
X0437500Y0127500D03*
X0432500Y0137500D03*
X0360000Y0137500D03*
D117*
X0240000Y0097500D03*
X0170000Y0097500D03*
X0170000Y0227500D03*
X0240000Y0227500D03*
X0290000Y0508600D03*
X0370000Y0508600D03*
D124*
X0075000Y0075000D03*
X0495000Y0075000D03*
X0495000Y0815000D03*
X0075000Y0815000D03*
D16*
X0377500Y0588010D03*
X0377500Y0576990D03*
X0410000Y0609490D03*
X0410000Y0620510D03*
X0395000Y0510510D03*
X0395000Y0499490D03*
X0455000Y0499490D03*
X0455000Y0510510D03*
X0490000Y0609490D03*
X0490000Y0620510D03*
D119*
X0452730Y0570000D03*
X0452730Y0565000D03*
X0452730Y0560000D03*
X0452730Y0555000D03*
X0432260Y0555000D03*
X0432260Y0560000D03*
X0432260Y0565000D03*
X0432260Y0570000D03*
D23*
X0439150Y0577500D03*
X0445840Y0577500D03*
X0447500Y0545850D03*
X0447500Y0539150D03*
X0462500Y0539150D03*
X0462500Y0545850D03*
X0470000Y0545850D03*
X0470000Y0539150D03*
X0486650Y0492500D03*
X0493340Y0492500D03*
X0418340Y0537500D03*
X0418340Y0545000D03*
X0411650Y0545000D03*
X0411650Y0537500D03*
X0400000Y0539150D03*
X0400000Y0545850D03*
X0365840Y0602500D03*
X0359150Y0602500D03*
X0345840Y0572500D03*
X0339150Y0572500D03*
X0323340Y0572500D03*
X0316650Y0572500D03*
X0359150Y0637500D03*
X0365840Y0637500D03*
X0367500Y0686650D03*
X0367500Y0693350D03*
X0357500Y0693350D03*
X0357500Y0686650D03*
X0347500Y0686650D03*
X0347500Y0693350D03*
X0327500Y0693350D03*
X0327500Y0686650D03*
X0317500Y0686650D03*
X0317500Y0693350D03*
X0317500Y0714150D03*
X0317500Y0720850D03*
X0325000Y0720850D03*
X0325000Y0714150D03*
X0310000Y0714150D03*
X0310000Y0720850D03*
X0305000Y0774150D03*
X0305000Y0780850D03*
X0260000Y0719850D03*
X0260000Y0713150D03*
X0240000Y0731650D03*
X0240000Y0738350D03*
X0220000Y0738350D03*
X0220000Y0731650D03*
X0197500Y0731650D03*
X0197500Y0738350D03*
X0175000Y0738350D03*
X0175000Y0731650D03*
X0152500Y0731650D03*
X0152500Y0738350D03*
X0130000Y0738350D03*
X0130000Y0731650D03*
X0107500Y0731650D03*
X0107500Y0738350D03*
X0100840Y0750000D03*
X0094150Y0750000D03*
X0087500Y0738350D03*
X0087500Y0731650D03*
X0110000Y0678350D03*
X0110000Y0671650D03*
X0117500Y0671650D03*
X0117500Y0678350D03*
X0125000Y0678350D03*
X0125000Y0671650D03*
X0132500Y0671650D03*
X0132500Y0678350D03*
X0140000Y0678350D03*
X0140000Y0671650D03*
X0147500Y0671650D03*
X0147500Y0678350D03*
X0155000Y0678350D03*
X0155000Y0671650D03*
X0162500Y0671650D03*
X0162500Y0678350D03*
X0170000Y0678350D03*
X0170000Y0671650D03*
X0177500Y0671650D03*
X0177500Y0678350D03*
X0185000Y0678350D03*
X0185000Y0671650D03*
X0192500Y0671650D03*
X0192500Y0678350D03*
X0200000Y0678350D03*
X0200000Y0671650D03*
X0207500Y0671650D03*
X0207500Y0678350D03*
X0215000Y0678350D03*
X0215000Y0671650D03*
X0222500Y0671650D03*
X0222500Y0678350D03*
X0230000Y0678350D03*
X0230000Y0671650D03*
X0237500Y0671650D03*
X0237500Y0678350D03*
X0262500Y0663350D03*
X0262500Y0656650D03*
X0270000Y0656650D03*
X0270000Y0663350D03*
X0277500Y0663350D03*
X0277500Y0656650D03*
X0199340Y0635500D03*
X0192650Y0635500D03*
X0118340Y0625000D03*
X0111650Y0625000D03*
X0083340Y0625000D03*
X0076650Y0625000D03*
X0078340Y0600000D03*
X0071650Y0600000D03*
X0071650Y0572500D03*
X0078340Y0572500D03*
X0217500Y0298350D03*
X0217500Y0291650D03*
X0361650Y0287500D03*
X0368340Y0287500D03*
X0370840Y0185000D03*
X0364150Y0185000D03*
X0435000Y0656650D03*
X0435000Y0663350D03*
X0442500Y0663350D03*
X0442500Y0656650D03*
X0450000Y0656650D03*
X0450000Y0663350D03*
X0457500Y0663350D03*
X0457500Y0656650D03*
X0465000Y0656650D03*
X0465000Y0663350D03*
X0472500Y0663350D03*
X0472500Y0656650D03*
X0455000Y0714150D03*
X0455000Y0720850D03*
X0432500Y0720850D03*
X0432500Y0714150D03*
X0427500Y0746650D03*
X0427500Y0753350D03*
X0417500Y0753350D03*
X0417500Y0746650D03*
D49*
X0412500Y0720850D03*
X0412500Y0714150D03*
X0419150Y0705000D03*
X0425840Y0705000D03*
X0476650Y0705000D03*
X0483340Y0705000D03*
X0490000Y0714150D03*
X0490000Y0720850D03*
X0488340Y0745000D03*
X0488340Y0755000D03*
X0488340Y0765000D03*
X0488340Y0775000D03*
X0481650Y0775000D03*
X0481650Y0765000D03*
X0481650Y0755000D03*
X0481650Y0745000D03*
X0455000Y0545850D03*
X0455000Y0539150D03*
X0440000Y0539150D03*
X0440000Y0545850D03*
X0432500Y0545850D03*
X0432500Y0539150D03*
X0400840Y0527500D03*
X0394150Y0527500D03*
X0396650Y0445000D03*
X0403340Y0445000D03*
X0395840Y0380000D03*
X0389150Y0380000D03*
X0383340Y0300000D03*
X0376650Y0300000D03*
X0375840Y0240000D03*
X0369150Y0240000D03*
X0369150Y0230000D03*
X0375840Y0230000D03*
X0295840Y0117500D03*
X0289150Y0117500D03*
X0230840Y0147500D03*
X0230840Y0157500D03*
X0224150Y0157500D03*
X0224150Y0147500D03*
X0225000Y0291650D03*
X0225000Y0298350D03*
X0197500Y0298350D03*
X0197500Y0291650D03*
X0185840Y0325000D03*
X0179150Y0325000D03*
X0260000Y0298350D03*
X0260000Y0291650D03*
X0316650Y0542500D03*
X0323340Y0542500D03*
X0323340Y0550000D03*
X0316650Y0550000D03*
X0316650Y0557500D03*
X0323340Y0557500D03*
X0323340Y0565000D03*
X0316650Y0565000D03*
X0288340Y0705000D03*
X0281650Y0705000D03*
X0295000Y0714150D03*
X0295000Y0720850D03*
X0157500Y0653350D03*
X0157500Y0646650D03*
X0118340Y0630000D03*
X0118340Y0620000D03*
X0111650Y0620000D03*
X0111650Y0630000D03*
X0083340Y0630000D03*
X0083340Y0620000D03*
X0076650Y0620000D03*
X0076650Y0630000D03*
X0073340Y0660000D03*
X0073340Y0667500D03*
X0073340Y0675000D03*
X0073340Y0682500D03*
X0073340Y0690000D03*
X0073340Y0697500D03*
X0066650Y0697500D03*
X0066650Y0690000D03*
X0066650Y0682500D03*
X0066650Y0675000D03*
X0066650Y0667500D03*
X0066650Y0660000D03*
X0081650Y0755000D03*
X0081650Y0762500D03*
X0081650Y0770000D03*
X0081650Y0777500D03*
X0081650Y0785000D03*
X0081650Y0792500D03*
X0088340Y0792500D03*
X0088340Y0785000D03*
X0088340Y0777500D03*
X0088340Y0770000D03*
X0088340Y0762500D03*
X0088340Y0755000D03*
X0486650Y0517500D03*
X0493340Y0517500D03*
D141*
X0467500Y0554040D03*
X0467500Y0570960D03*
D25*
X0484480Y0542500D03*
X0484480Y0530000D03*
X0495510Y0530000D03*
X0495510Y0542500D03*
X0420510Y0555000D03*
X0409480Y0555000D03*
X0409480Y0567500D03*
X0420510Y0567500D03*
X0348010Y0530000D03*
X0336980Y0530000D03*
D143*
X0480740Y0562500D03*
X0499250Y0562500D03*
D42*
X0495860Y0745000D03*
X0495860Y0755000D03*
X0495860Y0765000D03*
X0495860Y0775000D03*
X0504130Y0775000D03*
X0504130Y0765000D03*
X0504130Y0755000D03*
X0504130Y0745000D03*
X0367500Y0679130D03*
X0367500Y0670870D03*
X0357500Y0670870D03*
X0357500Y0679130D03*
X0347500Y0679130D03*
X0347500Y0670870D03*
X0337500Y0670870D03*
X0337500Y0679130D03*
X0327500Y0679130D03*
X0327500Y0670870D03*
X0317500Y0670870D03*
X0317500Y0679130D03*
X0305000Y0788370D03*
X0305000Y0796630D03*
X0089130Y0697500D03*
X0089130Y0690000D03*
X0089130Y0682500D03*
X0089130Y0675000D03*
X0089130Y0667500D03*
X0089130Y0660000D03*
X0080860Y0660000D03*
X0080860Y0667500D03*
X0080860Y0675000D03*
X0080860Y0682500D03*
X0080860Y0690000D03*
X0080860Y0697500D03*
X0074130Y0755000D03*
X0074130Y0762500D03*
X0074130Y0770000D03*
X0074130Y0777500D03*
X0074130Y0785000D03*
X0074130Y0792500D03*
X0065860Y0792500D03*
X0065860Y0785000D03*
X0065860Y0777500D03*
X0065860Y0770000D03*
X0065860Y0762500D03*
X0065860Y0755000D03*
D33*
X0110000Y0710240D03*
X0115000Y0710240D03*
X0120000Y0710240D03*
X0125000Y0710240D03*
X0132500Y0710240D03*
X0137500Y0710240D03*
X0142500Y0710240D03*
X0147500Y0710240D03*
X0155000Y0710240D03*
X0160000Y0710240D03*
X0165000Y0710240D03*
X0170000Y0710240D03*
X0177500Y0710240D03*
X0182500Y0710240D03*
X0187500Y0710240D03*
X0192500Y0710240D03*
X0200000Y0710240D03*
X0205000Y0710240D03*
X0210000Y0710240D03*
X0215000Y0710240D03*
X0222500Y0710240D03*
X0227500Y0710240D03*
X0232500Y0710240D03*
X0237500Y0710240D03*
X0237500Y0689760D03*
X0232500Y0689760D03*
X0227500Y0689760D03*
X0222500Y0689760D03*
X0215000Y0689760D03*
X0210000Y0689760D03*
X0205000Y0689760D03*
X0200000Y0689760D03*
X0192500Y0689760D03*
X0187500Y0689760D03*
X0182500Y0689760D03*
X0177500Y0689760D03*
X0170000Y0689760D03*
X0165000Y0689760D03*
X0160000Y0689760D03*
X0155000Y0689760D03*
X0147500Y0689760D03*
X0142500Y0689760D03*
X0137500Y0689760D03*
X0132500Y0689760D03*
X0125000Y0689760D03*
X0120000Y0689760D03*
X0115000Y0689760D03*
X0110000Y0689760D03*
X0262500Y0695240D03*
X0267500Y0695240D03*
X0272500Y0695240D03*
X0277500Y0695240D03*
X0277500Y0674760D03*
X0272500Y0674760D03*
X0267500Y0674760D03*
X0262500Y0674760D03*
X0435000Y0674760D03*
X0440000Y0674760D03*
X0445000Y0674760D03*
X0450000Y0674760D03*
X0457500Y0674760D03*
X0462500Y0674760D03*
X0467500Y0674760D03*
X0472500Y0674760D03*
X0472500Y0695240D03*
X0467500Y0695240D03*
X0462500Y0695240D03*
X0457500Y0695240D03*
X0450000Y0695240D03*
X0445000Y0695240D03*
X0440000Y0695240D03*
X0435000Y0695240D03*
D83*
X0393000Y0250000D03*
X0427500Y0127500D03*
X0355000Y0127500D03*
X0087000Y0552500D03*
X0065000Y0382500D03*
X0145690Y0786910D03*
D64*
X0118280Y0792500D03*
X0216710Y0792500D03*
D137*
X0207500Y0746020D03*
X0207500Y0723980D03*
X0185000Y0723980D03*
X0185000Y0746020D03*
X0162500Y0746020D03*
X0162500Y0723980D03*
X0140000Y0723980D03*
X0140000Y0746020D03*
X0117500Y0746020D03*
X0117500Y0723980D03*
X0230000Y0723980D03*
X0230000Y0746020D03*
X0270000Y0728520D03*
X0270000Y0706480D03*
X0442500Y0706480D03*
X0442500Y0728520D03*
X0465000Y0728520D03*
X0465000Y0706480D03*
X0470000Y0528520D03*
X0470000Y0506480D03*
D14*
X0486260Y0510120D03*
X0490000Y0510120D03*
X0493740Y0510120D03*
X0493740Y0499880D03*
X0486260Y0499880D03*
X0483740Y0712380D03*
X0480000Y0712380D03*
X0476260Y0712380D03*
X0476260Y0722620D03*
X0483740Y0722620D03*
X0426240Y0722620D03*
X0418760Y0722620D03*
X0418760Y0712380D03*
X0422500Y0712380D03*
X0426240Y0712380D03*
X0288740Y0712380D03*
X0285000Y0712380D03*
X0281260Y0712380D03*
X0281260Y0722620D03*
X0288740Y0722620D03*
X0253740Y0729880D03*
X0250000Y0729880D03*
X0246260Y0729880D03*
X0246260Y0740120D03*
X0253740Y0740120D03*
X0101240Y0740120D03*
X0093760Y0740120D03*
X0093760Y0729880D03*
X0097500Y0729880D03*
X0101240Y0729880D03*
D115*
X0163480Y0656490D03*
X0166040Y0656490D03*
X0168600Y0656490D03*
X0171160Y0656490D03*
X0173720Y0656490D03*
X0176280Y0656490D03*
X0178840Y0656490D03*
X0181390Y0656490D03*
X0183950Y0656490D03*
X0186510Y0656490D03*
X0186510Y0633510D03*
X0183950Y0633510D03*
X0181390Y0633510D03*
X0178840Y0633510D03*
X0176280Y0633510D03*
X0173720Y0633510D03*
X0171160Y0633510D03*
X0168600Y0633510D03*
X0166040Y0633510D03*
X0163480Y0633510D03*
X0230980Y0306490D03*
X0233540Y0306490D03*
X0236100Y0306490D03*
X0238660Y0306490D03*
X0241220Y0306490D03*
X0243780Y0306490D03*
X0246340Y0306490D03*
X0248890Y0306490D03*
X0251450Y0306490D03*
X0254010Y0306490D03*
X0254010Y0283510D03*
X0251450Y0283510D03*
X0248890Y0283510D03*
X0246340Y0283510D03*
X0243780Y0283510D03*
X0241220Y0283510D03*
X0238660Y0283510D03*
X0236100Y0283510D03*
X0233540Y0283510D03*
X0230980Y0283510D03*
D60*
X0108980Y0566040D03*
X0108980Y0568600D03*
X0108980Y0571160D03*
X0108980Y0573720D03*
X0108980Y0576280D03*
X0108980Y0578840D03*
X0108980Y0581400D03*
X0108980Y0583960D03*
X0108980Y0593540D03*
X0108980Y0596100D03*
X0108980Y0598660D03*
X0108980Y0601220D03*
X0108980Y0603780D03*
X0108980Y0606340D03*
X0108980Y0608900D03*
X0108980Y0611460D03*
X0086010Y0611460D03*
X0086010Y0608900D03*
X0086010Y0606340D03*
X0086010Y0603780D03*
X0086010Y0601220D03*
X0086010Y0598660D03*
X0086010Y0596100D03*
X0086010Y0593540D03*
X0086010Y0583960D03*
X0086010Y0581400D03*
X0086010Y0578840D03*
X0086010Y0576280D03*
X0086010Y0573720D03*
X0086010Y0571160D03*
X0086010Y0568600D03*
X0086010Y0566040D03*
X0351010Y0608480D03*
X0351010Y0611040D03*
X0351010Y0613600D03*
X0351010Y0616160D03*
X0351010Y0618720D03*
X0351010Y0621280D03*
X0351010Y0623840D03*
X0351010Y0626400D03*
X0351010Y0628960D03*
X0351010Y0631520D03*
X0373980Y0631520D03*
X0373980Y0628960D03*
X0373980Y0626400D03*
X0373980Y0623840D03*
X0373980Y0621280D03*
X0373980Y0618720D03*
X0373980Y0616160D03*
X0373980Y0613600D03*
X0373980Y0611040D03*
X0373980Y0608480D03*
D34*
X0417500Y0775000D03*
X0270000Y0775000D03*
X0405000Y0430000D03*
X0405000Y0370000D03*
X0405000Y0310000D03*
X0405000Y0250000D03*
X0405000Y0180000D03*
X0155000Y0355000D03*
X0122500Y0355000D03*
D31*
X0122500Y0345000D03*
X0122500Y0335000D03*
X0155000Y0335000D03*
X0155000Y0345000D03*
X0405000Y0350000D03*
X0405000Y0360000D03*
X0405000Y0410000D03*
X0405000Y0420000D03*
X0405000Y0300000D03*
X0405000Y0290000D03*
X0405000Y0240000D03*
X0405000Y0230000D03*
X0405000Y0220000D03*
X0405000Y0170000D03*
X0405000Y0160000D03*
X0427500Y0775000D03*
X0437500Y0775000D03*
X0447500Y0775000D03*
X0457500Y0775000D03*
X0280000Y0775000D03*
D126*
X0285500Y0809000D03*
X0264500Y0809000D03*
X0412000Y0809000D03*
X0463000Y0809000D03*
X0439000Y0435500D03*
X0439000Y0404500D03*
X0439000Y0375500D03*
X0439000Y0344500D03*
X0439000Y0315500D03*
X0439000Y0284500D03*
X0439000Y0255500D03*
X0439000Y0214500D03*
X0439000Y0185500D03*
X0439000Y0154500D03*
X0152000Y0319000D03*
X0119500Y0319000D03*
X0119500Y0371000D03*
X0152000Y0371000D03*
D40*
X0245000Y0597500D03*
X0255000Y0597500D03*
X0265000Y0597500D03*
X0275000Y0597500D03*
X0285000Y0597500D03*
X0295000Y0597500D03*
X0295000Y0607500D03*
X0285000Y0607500D03*
X0275000Y0607500D03*
X0265000Y0607500D03*
X0255000Y0607500D03*
X0245000Y0607500D03*
X0495000Y0635000D03*
X0495000Y0645000D03*
X0495000Y0655000D03*
X0495000Y0665000D03*
X0495000Y0675000D03*
X0505000Y0675000D03*
X0505000Y0665000D03*
X0505000Y0655000D03*
X0505000Y0645000D03*
X0505000Y0635000D03*
X0505000Y0685000D03*
X0505000Y0695000D03*
X0505000Y0705000D03*
X0495000Y0705000D03*
X0495000Y0695000D03*
X0495000Y0685000D03*
D73*
X0372500Y0786590D02*
X0372500Y0798410D01*
X0335000Y0798410D02*
X0335000Y0786590D01*
D72*
X0265000Y0547500D03*
X0265000Y0387500D03*
D84*
X0302500Y0710220D03*
X0302500Y0724780D03*
X0275000Y0737720D03*
X0275000Y0752280D03*
X0265000Y0752280D03*
X0265000Y0737720D03*
X0235000Y0755220D03*
X0235000Y0769780D03*
X0225000Y0769780D03*
X0225000Y0755220D03*
X0212500Y0755220D03*
X0212500Y0769780D03*
X0202500Y0769780D03*
X0202500Y0755220D03*
X0190000Y0755220D03*
X0190000Y0769780D03*
X0180000Y0769780D03*
X0180000Y0755220D03*
X0167500Y0755220D03*
X0167500Y0769780D03*
X0157500Y0769780D03*
X0157500Y0755220D03*
X0145000Y0755220D03*
X0145000Y0769780D03*
X0135000Y0769780D03*
X0135000Y0755220D03*
X0122500Y0755220D03*
X0122500Y0769780D03*
X0112500Y0769780D03*
X0112500Y0755220D03*
X0400000Y0744780D03*
X0410000Y0744780D03*
X0410000Y0730220D03*
X0400000Y0730220D03*
X0437500Y0737720D03*
X0437500Y0752280D03*
X0447500Y0752280D03*
X0447500Y0737720D03*
X0460000Y0737720D03*
X0460000Y0752280D03*
X0470000Y0752280D03*
X0470000Y0737720D03*
D102*
X0103210Y0627950D03*
X0103210Y0625980D03*
X0103210Y0624020D03*
X0103210Y0622050D03*
X0091790Y0622050D03*
X0091790Y0624020D03*
X0091790Y0625980D03*
X0091790Y0627950D03*
D47*
X0359880Y0303740D03*
X0359880Y0296260D03*
X0370080Y0296260D03*
X0370080Y0300000D03*
X0370080Y0303740D03*
X0409920Y0523760D03*
X0409920Y0527500D03*
X0409920Y0531240D03*
X0420110Y0531240D03*
X0420110Y0523760D03*
D142*
X0422500Y0102500D03*
X0395000Y0102500D03*
X0350000Y0102500D03*
X0467500Y0102500D03*
D39*
X0353520Y0547320D03*
X0353520Y0549880D03*
X0353520Y0552440D03*
X0353520Y0555000D03*
X0353520Y0557560D03*
X0353520Y0560120D03*
X0353520Y0562680D03*
X0331470Y0562680D03*
X0331470Y0560120D03*
X0331470Y0557560D03*
X0331470Y0555000D03*
X0331470Y0552440D03*
X0331470Y0549880D03*
X0331470Y0547320D03*
D85*
X0342500Y0555000D03*
D56*
X0369030Y0530000D03*
X0385960Y0530000D03*
D92*
X0377500Y0543980D03*
X0377500Y0566020D03*
D58*
X0282500Y0353500D03*
X0282500Y0343500D03*
X0272500Y0343500D03*
X0272500Y0353500D03*
X0262500Y0353500D03*
X0262500Y0343500D03*
X0252500Y0343500D03*
X0252500Y0353500D03*
X0242500Y0353500D03*
X0242500Y0343500D03*
X0232500Y0343500D03*
X0232500Y0353500D03*
D37*
X0357200Y0177500D03*
X0357200Y0172500D03*
X0357200Y0167500D03*
X0357200Y0162500D03*
X0377800Y0162500D03*
X0377800Y0167500D03*
X0377800Y0172500D03*
X0377800Y0177500D03*
D43*
X0211240Y0289920D03*
X0207500Y0289920D03*
X0203760Y0289920D03*
X0203760Y0300120D03*
X0211240Y0300120D03*
D55*
X0213500Y0315000D03*
X0207500Y0315000D03*
X0201500Y0315000D03*
X0467000Y0762500D03*
X0473000Y0762500D03*
D71*
X0379780Y0445000D03*
X0365210Y0445000D03*
X0385210Y0387500D03*
X0399780Y0387500D03*
X0372280Y0280000D03*
X0357710Y0280000D03*
X0365210Y0247500D03*
X0379780Y0247500D03*
X0379780Y0222500D03*
X0365210Y0222500D03*
X0189780Y0317500D03*
X0175210Y0317500D03*
D111*
X0362500Y0577000D03*
X0362500Y0583000D03*
D10*
X0362500Y0580000D03*
D20*
X0470000Y0762500D03*
D133*
X0352500Y0737800D03*
X0347500Y0737800D03*
X0342500Y0737800D03*
X0337500Y0737800D03*
X0337500Y0717200D03*
X0342500Y0717200D03*
X0347500Y0717200D03*
X0352500Y0717200D03*
D74*
X0370000Y0714510D03*
X0370000Y0740490D03*
D101*
X0150650Y0609720D03*
X0150650Y0606570D03*
X0150650Y0603430D03*
X0150650Y0600280D03*
X0150650Y0594720D03*
X0150650Y0591570D03*
X0150650Y0588430D03*
X0150650Y0585280D03*
X0150650Y0579720D03*
X0150650Y0576570D03*
X0150650Y0573430D03*
X0150650Y0570280D03*
X0150650Y0564720D03*
X0150650Y0561570D03*
X0150650Y0558430D03*
X0150650Y0555280D03*
X0144350Y0555280D03*
X0144350Y0558430D03*
X0144350Y0561570D03*
X0144350Y0564720D03*
X0144350Y0570280D03*
X0144350Y0573430D03*
X0144350Y0576570D03*
X0144350Y0579720D03*
X0144350Y0585280D03*
X0144350Y0588430D03*
X0144350Y0591570D03*
X0144350Y0594720D03*
X0144350Y0600280D03*
X0144350Y0603430D03*
X0144350Y0606570D03*
X0144350Y0609720D03*
D81*
X0415000Y0508000D02*
X0415000Y0502000D01*
X0425000Y0502000D02*
X0425000Y0508000D01*
X0435000Y0508000D02*
X0435000Y0502000D01*
X0440000Y0617000D02*
X0440000Y0623000D01*
X0450000Y0623000D02*
X0450000Y0617000D01*
X0460000Y0617000D02*
X0460000Y0623000D01*
D81*
X0477500Y0630000D03*
X0457500Y0647500D03*
X0427500Y0675000D03*
X0422500Y0620000D03*
X0422500Y0577500D03*
X0477500Y0497500D03*
X0502500Y0480000D03*
X0477500Y0425000D03*
X0480000Y0392500D03*
X0455000Y0392500D03*
X0440000Y0360000D03*
X0357500Y0485000D03*
X0357500Y0530000D03*
X0387500Y0675000D03*
X0387710Y0737500D03*
X0431500Y0737720D03*
X0454000Y0737500D03*
X0490000Y0600000D03*
X0305000Y0747500D03*
X0247500Y0690000D03*
X0502500Y0150000D03*
X0490000Y0095000D03*
X0477500Y0080000D03*
D44*
X0357500Y0310000D03*
X0360000Y0422500D03*
X0285000Y0561000D03*
X0245000Y0522500D03*
X0245000Y0496650D03*
X0200000Y0527500D03*
X0200000Y0561000D03*
X0200000Y0422500D03*
X0232500Y0422500D03*
X0220000Y0755000D03*
X0197500Y0755000D03*
X0175000Y0755000D03*
X0152500Y0755000D03*
X0130000Y0755000D03*
X0107500Y0755000D03*
X0257500Y0755000D03*
X0467500Y0495000D03*
X0500000Y0620000D03*
X0060000Y0855000D02*
G75*
%LPD*%
D119*
X0214760Y0960000D03*
X0214760Y0965000D03*
X0214760Y0970000D03*
X0214760Y0975000D03*
X0214760Y0980000D03*
X0214760Y0985000D03*
X0214760Y0990000D03*
X0235240Y0990000D03*
X0235240Y0985000D03*
X0235240Y0980000D03*
X0235240Y0975000D03*
X0235240Y0970000D03*
X0235240Y0965000D03*
X0235240Y0960000D03*
X0235240Y1007500D03*
X0235240Y1012500D03*
X0235240Y1017500D03*
X0235240Y1022500D03*
X0214760Y1022500D03*
X0214760Y1017500D03*
X0214760Y1012500D03*
X0214760Y1007500D03*
X0165240Y1007500D03*
X0165240Y1012500D03*
X0165240Y1017500D03*
X0165240Y1022500D03*
X0144760Y1022500D03*
X0144760Y1017500D03*
X0144760Y1012500D03*
X0144760Y1007500D03*
D47*
X0189880Y1011260D03*
X0200080Y1011260D03*
X0200080Y1015000D03*
X0200080Y1018740D03*
X0189880Y1018740D03*
X0249920Y1018740D03*
X0249920Y1015000D03*
X0249920Y1011260D03*
X0260120Y1011260D03*
X0260120Y1018740D03*
D49*
X0258350Y0990000D03*
X0251650Y0990000D03*
X0251650Y0970000D03*
X0258350Y0970000D03*
X0258350Y0960000D03*
X0251650Y0960000D03*
X0198350Y0960000D03*
X0191650Y0960000D03*
X0191650Y0970000D03*
X0198350Y0970000D03*
X0198350Y0990000D03*
X0191650Y0990000D03*
X0138350Y0990000D03*
X0131650Y0990000D03*
X0131650Y0980000D03*
X0138350Y0980000D03*
X0138350Y0970000D03*
X0131650Y0970000D03*
X0131650Y0960000D03*
X0138350Y0960000D03*
X0306650Y0922500D03*
X0313350Y0922500D03*
X0349150Y0922500D03*
X0355850Y0922500D03*
X0391650Y0922500D03*
X0398350Y0922500D03*
X0434150Y0922500D03*
X0440850Y0922500D03*
X0476650Y0922500D03*
X0483350Y0922500D03*
X0519150Y0922500D03*
X0525850Y0922500D03*
D23*
X0270000Y1011650D03*
X0270000Y1018350D03*
X0258350Y1030000D03*
X0251650Y1030000D03*
X0198350Y1030000D03*
X0191650Y1030000D03*
X0180000Y1018350D03*
X0180000Y1011650D03*
X0191650Y1000000D03*
X0198350Y1000000D03*
X0198350Y0980000D03*
X0191650Y0980000D03*
X0251650Y0980000D03*
X0258350Y0980000D03*
X0258350Y1000000D03*
X0251650Y1000000D03*
X0251650Y0950000D03*
X0258350Y0950000D03*
X0255000Y0933350D03*
X0255000Y0926650D03*
X0198350Y0950000D03*
X0191650Y0950000D03*
X0195000Y0933350D03*
X0195000Y0926650D03*
X0165000Y0926650D03*
X0155000Y0926650D03*
X0155000Y0933350D03*
X0165000Y0933350D03*
D34*
X0145000Y0910000D03*
X0215000Y0910000D03*
X0280000Y0910000D03*
X0332500Y0910000D03*
X0385000Y0910000D03*
X0437500Y0910000D03*
D31*
X0427500Y0910000D03*
X0375000Y0910000D03*
X0322500Y0910000D03*
X0270000Y0910000D03*
X0260000Y0910000D03*
X0205000Y0910000D03*
X0195000Y0910000D03*
X0135000Y0910000D03*
X0125000Y0910000D03*
X0115000Y0910000D03*
X0105000Y0910000D03*
D126*
X0099500Y0876000D03*
X0150500Y0876000D03*
X0189500Y0876000D03*
X0220500Y0876000D03*
X0254500Y0876000D03*
X0285500Y0876000D03*
X0317000Y0876000D03*
X0338000Y0876000D03*
X0369500Y0876000D03*
X0390500Y0876000D03*
X0422000Y0876000D03*
X0443000Y0876000D03*
D84*
X0265000Y0922720D03*
X0245000Y0922720D03*
X0245000Y0937280D03*
X0265000Y0937280D03*
X0205000Y0937280D03*
X0185000Y0937280D03*
X0175000Y0937280D03*
X0145000Y0937280D03*
X0145000Y0922720D03*
X0175000Y0922720D03*
X0185000Y0922720D03*
X0205000Y0922720D03*
X0080000Y0957720D03*
X0070000Y0957720D03*
X0070000Y0972280D03*
X0080000Y0972280D03*
X0080000Y0987720D03*
X0070000Y0987720D03*
X0070000Y1002280D03*
X0080000Y1002280D03*
D120*
X0092430Y1005000D02*
X0097570Y1005000D01*
X0112430Y1005000D02*
X0117570Y1005000D01*
X0117570Y0995000D02*
X0112430Y0995000D01*
X0097570Y0995000D02*
X0092430Y0995000D01*
X0092430Y0985000D02*
X0097570Y0985000D01*
X0112430Y0985000D02*
X0117570Y0985000D01*
X0117570Y0975000D02*
X0112430Y0975000D01*
X0097570Y0975000D02*
X0092430Y0975000D01*
X0092430Y0955000D02*
X0097570Y0955000D01*
X0112430Y0955000D02*
X0117570Y0955000D01*
D71*
X0112280Y0945000D03*
X0097720Y0945000D03*
X0097720Y1015000D03*
X0112280Y1015000D03*
D42*
X0145870Y0990000D03*
X0154130Y0990000D03*
X0154130Y0980000D03*
X0145870Y0980000D03*
X0145870Y0970000D03*
X0154130Y0970000D03*
X0154130Y0960000D03*
X0145870Y0960000D03*
X0305870Y0932500D03*
X0314130Y0932500D03*
X0348370Y0932500D03*
X0356630Y0932500D03*
X0390870Y0932500D03*
X0399130Y0932500D03*
X0433370Y0932500D03*
X0441630Y0932500D03*
X0475870Y0932500D03*
X0484130Y0932500D03*
X0518370Y0932500D03*
X0526630Y0932500D03*
D140*
X0309100Y1022800D03*
X0300000Y1022800D03*
X0290900Y1022800D03*
D13*
X0300000Y1047200D03*
D53*
X0280000Y1040510D03*
X0280000Y1029490D03*
X0320000Y1029490D03*
X0320000Y1040510D03*
D96*
X0345610Y1035390D03*
X0359390Y1035390D03*
X0388110Y1035390D03*
X0401890Y1035390D03*
X0430610Y1035390D03*
X0444390Y1035390D03*
X0473110Y1035390D03*
X0486890Y1035390D03*
X0484390Y0874610D03*
X0470610Y0874610D03*
D124*
X0075000Y0870000D03*
X0075000Y1040000D03*
X0527500Y1040000D03*
X0527500Y0870000D03*
D75*
X0522500Y0970000D03*
X0480000Y0970000D03*
X0437500Y0970000D03*
X0395000Y0970000D03*
X0352500Y0970000D03*
X0310000Y0970000D03*
D123*
X0310000Y0951100D03*
X0352500Y0951100D03*
X0395000Y0951100D03*
X0437500Y0951100D03*
X0480000Y0951100D03*
X0522500Y0951100D03*
X0522500Y0988900D03*
X0480000Y0988900D03*
X0437500Y0988900D03*
X0395000Y0988900D03*
X0352500Y0988900D03*
X0310000Y0988900D03*
D138*
X0267500Y0995000D03*
X0267500Y1005000D03*
X0255000Y1005000D03*
X0247500Y1005000D03*
X0235000Y1002500D03*
X0222500Y1007500D03*
X0225000Y1012500D03*
X0225000Y1022500D03*
X0215000Y1030000D03*
X0192500Y1040000D03*
X0155000Y1022500D03*
X0145000Y1030000D03*
X0105000Y1030000D03*
X0075000Y1017500D03*
X0065000Y1022500D03*
X0075000Y1007500D03*
X0075000Y0997500D03*
X0080000Y0980000D03*
X0084500Y0972500D03*
X0101500Y0968500D03*
X0105000Y0975000D03*
X0125000Y0975000D03*
X0135000Y0975000D03*
X0142500Y0965000D03*
X0162500Y0975000D03*
X0167500Y0965000D03*
X0187500Y0975000D03*
X0205000Y0970000D03*
X0227500Y0970000D03*
X0242500Y0965000D03*
X0247500Y0955000D03*
X0267500Y0965000D03*
X0262500Y0975000D03*
X0242500Y0995000D03*
X0205000Y0995000D03*
X0182500Y0995000D03*
X0195000Y0985000D03*
X0195000Y1005000D03*
X0202500Y1007500D03*
X0130000Y1000000D03*
X0130000Y0950000D03*
X0155000Y0947500D03*
X0162500Y0947500D03*
X0210000Y0922500D03*
X0227500Y0922500D03*
X0270000Y0922500D03*
X0180000Y0917500D03*
X0165000Y0865000D03*
X0277500Y1015000D03*
X0270000Y1040000D03*
X0260000Y1040000D03*
D146*
X0320000Y1020000D03*
X0320000Y0990000D03*
D72*
X0445000Y1005000D03*
D15*
X0380000Y0960000D03*
X0332500Y0970000D03*
X0455000Y0862500D03*
D151*
X0255000Y0915000D03*
X0567500Y0060000D02*
G75*
%LPD*%
D12*
X0804980Y0320510D03*
D131*
X0822500Y0077500D03*
X0632500Y0077500D03*
D82*
X0632500Y0087500D03*
X0632500Y0097500D03*
X0632500Y0107500D03*
X0632500Y0117500D03*
X0632500Y0127500D03*
X0632500Y0137500D03*
X0632500Y0147500D03*
X0632500Y0157500D03*
X0632500Y0167500D03*
X0632500Y0177500D03*
X0632500Y0187500D03*
X0632500Y0197500D03*
X0632500Y0207500D03*
X0632500Y0217500D03*
X0632500Y0227500D03*
X0632500Y0237500D03*
X0632500Y0247500D03*
X0632500Y0257500D03*
X0632500Y0267500D03*
X0632500Y0277500D03*
X0632500Y0287500D03*
X0632500Y0297500D03*
X0622500Y0297500D03*
X0622500Y0287500D03*
X0622500Y0277500D03*
X0622500Y0267500D03*
X0622500Y0257500D03*
X0622500Y0247500D03*
X0622500Y0237500D03*
X0622500Y0227500D03*
X0622500Y0217500D03*
X0622500Y0207500D03*
X0622500Y0197500D03*
X0622500Y0187500D03*
X0622500Y0177500D03*
X0622500Y0167500D03*
X0622500Y0157500D03*
X0622500Y0147500D03*
X0622500Y0137500D03*
X0622500Y0127500D03*
X0622500Y0117500D03*
X0622500Y0107500D03*
X0622500Y0097500D03*
X0622500Y0087500D03*
X0622500Y0077500D03*
X0812500Y0077500D03*
X0812500Y0087500D03*
X0812500Y0097500D03*
X0812500Y0107500D03*
X0812500Y0117500D03*
X0822500Y0117500D03*
X0822500Y0107500D03*
X0822500Y0097500D03*
X0822500Y0087500D03*
X0822500Y0127500D03*
X0822500Y0137500D03*
X0822500Y0147500D03*
X0822500Y0157500D03*
X0822500Y0167500D03*
X0822500Y0177500D03*
X0822500Y0187500D03*
X0822500Y0197500D03*
X0822500Y0207500D03*
X0822500Y0217500D03*
X0822500Y0227500D03*
X0822500Y0237500D03*
X0822500Y0247500D03*
X0822500Y0257500D03*
X0822500Y0267500D03*
X0822500Y0277500D03*
X0822500Y0287500D03*
X0822500Y0297500D03*
X0812500Y0297500D03*
X0812500Y0287500D03*
X0812500Y0277500D03*
X0812500Y0267500D03*
X0812500Y0257500D03*
X0812500Y0247500D03*
X0812500Y0237500D03*
X0812500Y0227500D03*
X0812500Y0217500D03*
X0812500Y0207500D03*
X0812500Y0197500D03*
X0812500Y0187500D03*
X0812500Y0177500D03*
X0812500Y0167500D03*
X0812500Y0157500D03*
X0812500Y0147500D03*
X0812500Y0137500D03*
X0812500Y0127500D03*
D132*
X0788000Y0127500D03*
X0787000Y0137500D03*
X0788000Y0147500D03*
X0787000Y0157500D03*
X0788000Y0167500D03*
X0787000Y0177500D03*
X0788000Y0187500D03*
X0787000Y0197500D03*
X0788000Y0207500D03*
X0787000Y0217500D03*
X0788000Y0227500D03*
X0787000Y0237500D03*
X0788000Y0247500D03*
X0787000Y0257500D03*
X0788000Y0267500D03*
X0787000Y0277500D03*
X0788000Y0287500D03*
X0787000Y0297500D03*
X0788000Y0307500D03*
X0797500Y0372000D03*
X0807500Y0373000D03*
X0817500Y0372000D03*
X0827500Y0373000D03*
X0837500Y0372000D03*
X0847500Y0373000D03*
X0857500Y0372000D03*
X0867500Y0373000D03*
X0877500Y0372000D03*
X0877500Y0393500D03*
X0867500Y0392500D03*
X0857500Y0393500D03*
X0847500Y0392500D03*
X0837500Y0393500D03*
X0827500Y0392500D03*
X0817500Y0393500D03*
X0807500Y0392500D03*
X0797500Y0393500D03*
X0838000Y0307500D03*
X0837000Y0297500D03*
X0838000Y0287500D03*
X0837000Y0277500D03*
X0838000Y0267500D03*
X0837000Y0257500D03*
X0838000Y0247500D03*
X0837000Y0237500D03*
X0838000Y0227500D03*
X0837000Y0217500D03*
X0838000Y0207500D03*
X0837000Y0197500D03*
X0838000Y0187500D03*
X0837000Y0177500D03*
X0838000Y0167500D03*
X0837000Y0157500D03*
X0838000Y0147500D03*
X0837000Y0137500D03*
X0838000Y0127500D03*
X0837000Y0117500D03*
X0838000Y0107500D03*
X0837000Y0097500D03*
X0838000Y0087500D03*
X0837000Y0077500D03*
X0872500Y0127500D03*
X0877500Y0137500D03*
X0882500Y0127500D03*
X0887500Y0137500D03*
X0892500Y0127500D03*
X0897500Y0137500D03*
X0900500Y0160000D03*
X0899500Y0170000D03*
X0900500Y0180000D03*
X0899500Y0220000D03*
X0900500Y0230000D03*
X0899500Y0240000D03*
X0900500Y0290000D03*
X0899500Y0300000D03*
X0900500Y0310000D03*
X0900500Y0350000D03*
X0899500Y0360000D03*
X0900500Y0370000D03*
X0900500Y0410000D03*
X0899500Y0420000D03*
X0900500Y0430000D03*
X0800000Y0227500D03*
X0800000Y0217500D03*
X0800000Y0207500D03*
X0800000Y0197500D03*
X0800000Y0187500D03*
X0800000Y0177500D03*
X0768000Y0167500D03*
X0767000Y0157500D03*
X0768000Y0147500D03*
X0767000Y0137500D03*
X0768000Y0127500D03*
X0767000Y0117500D03*
X0748000Y0127500D03*
X0747000Y0137500D03*
X0748000Y0147500D03*
X0747000Y0157500D03*
X0748000Y0167500D03*
X0747000Y0177500D03*
X0748000Y0187500D03*
X0747000Y0197500D03*
X0748000Y0207500D03*
X0767000Y0197500D03*
X0768000Y0187500D03*
X0767000Y0177500D03*
X0768000Y0207500D03*
X0787000Y0117500D03*
X0788000Y0107500D03*
X0787000Y0097500D03*
X0788000Y0087500D03*
X0787000Y0077500D03*
X0747000Y0117500D03*
X0648000Y0117500D03*
X0647000Y0107500D03*
X0648000Y0097500D03*
X0647000Y0087500D03*
X0648000Y0077500D03*
X0647000Y0067500D03*
X0647000Y0127500D03*
X0648000Y0137500D03*
X0647000Y0147500D03*
X0648000Y0157500D03*
X0647000Y0167500D03*
X0648000Y0177500D03*
X0647000Y0187500D03*
X0648000Y0197500D03*
X0647000Y0207500D03*
X0648000Y0217500D03*
X0647000Y0227500D03*
X0648000Y0237500D03*
X0647000Y0247500D03*
X0648000Y0257500D03*
X0647000Y0267500D03*
X0648000Y0277500D03*
X0647000Y0287500D03*
X0648000Y0297500D03*
X0608000Y0297500D03*
X0607000Y0287500D03*
X0608000Y0277500D03*
X0607000Y0267500D03*
X0608000Y0257500D03*
X0607000Y0247500D03*
X0608000Y0237500D03*
X0607000Y0227500D03*
X0608000Y0217500D03*
X0607000Y0207500D03*
X0608000Y0197500D03*
X0607000Y0187500D03*
X0608000Y0177500D03*
X0607000Y0167500D03*
X0608000Y0157500D03*
X0607000Y0147500D03*
X0608000Y0137500D03*
X0607000Y0127500D03*
X0608000Y0117500D03*
X0607000Y0107500D03*
X0608000Y0097500D03*
X0607000Y0087500D03*
X0608000Y0077500D03*
X0607000Y0067500D03*
X0594500Y0382500D03*
X0594500Y0392500D03*
X0594500Y0402500D03*
X0594500Y0412500D03*
X0594500Y0422500D03*
X0594500Y0432500D03*
X0594500Y0442500D03*
X0594500Y0452500D03*
X0594500Y0462500D03*
X0594500Y0472500D03*
X0594500Y0482500D03*
X0594500Y0492500D03*
X0594500Y0502500D03*
X0594500Y0512500D03*
X0594500Y0522500D03*
X0594500Y0532500D03*
X0594500Y0542500D03*
X0572500Y0542500D03*
X0572500Y0532500D03*
X0572500Y0522500D03*
X0572500Y0512500D03*
X0572500Y0502500D03*
X0572500Y0492500D03*
X0572500Y0482500D03*
X0572500Y0472500D03*
X0572500Y0462500D03*
X0572500Y0452500D03*
X0572500Y0442500D03*
X0572500Y0432500D03*
X0572500Y0422500D03*
X0572500Y0412500D03*
X0572500Y0402500D03*
X0572500Y0392500D03*
X0572500Y0552500D03*
X0664090Y0786910D03*
X0675000Y0786910D03*
X0685900Y0786910D03*
X0691340Y0798090D03*
X0680430Y0798090D03*
X0669560Y0798090D03*
X0658660Y0798090D03*
X0696810Y0786910D03*
X0776800Y0762500D03*
X0788200Y0762500D03*
X0925000Y0763000D03*
X0935000Y0762000D03*
X0945000Y0763000D03*
X0955000Y0762000D03*
X0965000Y0763000D03*
X0970000Y0137500D03*
X0965000Y0127500D03*
X0960000Y0137500D03*
X0955000Y0127500D03*
X0950000Y0137500D03*
X0945000Y0127500D03*
X0940000Y0137500D03*
X0867500Y0137500D03*
D117*
X0747500Y0097500D03*
X0677500Y0097500D03*
X0677500Y0227500D03*
X0747500Y0227500D03*
X0797500Y0508600D03*
X0877500Y0508600D03*
D124*
X0582500Y0075000D03*
X1002500Y0075000D03*
X1002500Y0815000D03*
X0582500Y0815000D03*
D16*
X0885000Y0588010D03*
X0885000Y0576990D03*
X0917500Y0609490D03*
X0917500Y0620510D03*
X0902500Y0510510D03*
X0902500Y0499490D03*
X0962500Y0499490D03*
X0962500Y0510510D03*
X0997500Y0609490D03*
X0997500Y0620510D03*
D119*
X0960230Y0570000D03*
X0960230Y0565000D03*
X0960230Y0560000D03*
X0960230Y0555000D03*
X0939760Y0555000D03*
X0939760Y0560000D03*
X0939760Y0565000D03*
X0939760Y0570000D03*
D23*
X0946650Y0577500D03*
X0953340Y0577500D03*
X0955000Y0545850D03*
X0955000Y0539150D03*
X0970000Y0539150D03*
X0970000Y0545850D03*
X0977500Y0545850D03*
X0977500Y0539150D03*
X0994150Y0492500D03*
X1000840Y0492500D03*
X0925840Y0537500D03*
X0925840Y0545000D03*
X0919150Y0545000D03*
X0919150Y0537500D03*
X0907500Y0539150D03*
X0907500Y0545850D03*
X0873340Y0602500D03*
X0866650Y0602500D03*
X0853340Y0572500D03*
X0846650Y0572500D03*
X0830840Y0572500D03*
X0824150Y0572500D03*
X0866650Y0637500D03*
X0873340Y0637500D03*
X0875000Y0686650D03*
X0875000Y0693350D03*
X0865000Y0693350D03*
X0865000Y0686650D03*
X0855000Y0686650D03*
X0855000Y0693350D03*
X0835000Y0693350D03*
X0835000Y0686650D03*
X0825000Y0686650D03*
X0825000Y0693350D03*
X0825000Y0714150D03*
X0825000Y0720850D03*
X0832500Y0720850D03*
X0832500Y0714150D03*
X0817500Y0714150D03*
X0817500Y0720850D03*
X0812500Y0774150D03*
X0812500Y0780850D03*
X0767500Y0719850D03*
X0767500Y0713150D03*
X0747500Y0731650D03*
X0747500Y0738350D03*
X0727500Y0738350D03*
X0727500Y0731650D03*
X0705000Y0731650D03*
X0705000Y0738350D03*
X0682500Y0738350D03*
X0682500Y0731650D03*
X0660000Y0731650D03*
X0660000Y0738350D03*
X0637500Y0738350D03*
X0637500Y0731650D03*
X0615000Y0731650D03*
X0615000Y0738350D03*
X0608340Y0750000D03*
X0601650Y0750000D03*
X0595000Y0738350D03*
X0595000Y0731650D03*
X0617500Y0678350D03*
X0617500Y0671650D03*
X0625000Y0671650D03*
X0625000Y0678350D03*
X0632500Y0678350D03*
X0632500Y0671650D03*
X0640000Y0671650D03*
X0640000Y0678350D03*
X0647500Y0678350D03*
X0647500Y0671650D03*
X0655000Y0671650D03*
X0655000Y0678350D03*
X0662500Y0678350D03*
X0662500Y0671650D03*
X0670000Y0671650D03*
X0670000Y0678350D03*
X0677500Y0678350D03*
X0677500Y0671650D03*
X0685000Y0671650D03*
X0685000Y0678350D03*
X0692500Y0678350D03*
X0692500Y0671650D03*
X0700000Y0671650D03*
X0700000Y0678350D03*
X0707500Y0678350D03*
X0707500Y0671650D03*
X0715000Y0671650D03*
X0715000Y0678350D03*
X0722500Y0678350D03*
X0722500Y0671650D03*
X0730000Y0671650D03*
X0730000Y0678350D03*
X0737500Y0678350D03*
X0737500Y0671650D03*
X0745000Y0671650D03*
X0745000Y0678350D03*
X0770000Y0663350D03*
X0770000Y0656650D03*
X0777500Y0656650D03*
X0777500Y0663350D03*
X0785000Y0663350D03*
X0785000Y0656650D03*
X0706840Y0635500D03*
X0700150Y0635500D03*
X0625840Y0625000D03*
X0619150Y0625000D03*
X0590840Y0625000D03*
X0584150Y0625000D03*
X0585840Y0600000D03*
X0579150Y0600000D03*
X0579150Y0572500D03*
X0585840Y0572500D03*
X0725000Y0298350D03*
X0725000Y0291650D03*
X0869150Y0287500D03*
X0875840Y0287500D03*
X0878340Y0185000D03*
X0871650Y0185000D03*
X0942500Y0656650D03*
X0942500Y0663350D03*
X0950000Y0663350D03*
X0950000Y0656650D03*
X0957500Y0656650D03*
X0957500Y0663350D03*
X0965000Y0663350D03*
X0965000Y0656650D03*
X0972500Y0656650D03*
X0972500Y0663350D03*
X0980000Y0663350D03*
X0980000Y0656650D03*
X0962500Y0714150D03*
X0962500Y0720850D03*
X0940000Y0720850D03*
X0940000Y0714150D03*
X0935000Y0746650D03*
X0935000Y0753350D03*
X0925000Y0753350D03*
X0925000Y0746650D03*
D49*
X0920000Y0720850D03*
X0920000Y0714150D03*
X0926650Y0705000D03*
X0933340Y0705000D03*
X0984150Y0705000D03*
X0990840Y0705000D03*
X0997500Y0714150D03*
X0997500Y0720850D03*
X0995840Y0745000D03*
X0995840Y0755000D03*
X0995840Y0765000D03*
X0995840Y0775000D03*
X0989150Y0775000D03*
X0989150Y0765000D03*
X0989150Y0755000D03*
X0989150Y0745000D03*
X0962500Y0545850D03*
X0962500Y0539150D03*
X0947500Y0539150D03*
X0947500Y0545850D03*
X0940000Y0545850D03*
X0940000Y0539150D03*
X0908340Y0527500D03*
X0901650Y0527500D03*
X0904150Y0445000D03*
X0910840Y0445000D03*
X0903340Y0380000D03*
X0896650Y0380000D03*
X0890840Y0300000D03*
X0884150Y0300000D03*
X0883340Y0240000D03*
X0876650Y0240000D03*
X0876650Y0230000D03*
X0883340Y0230000D03*
X0803340Y0117500D03*
X0796650Y0117500D03*
X0738340Y0147500D03*
X0738340Y0157500D03*
X0731650Y0157500D03*
X0731650Y0147500D03*
X0732500Y0291650D03*
X0732500Y0298350D03*
X0705000Y0298350D03*
X0705000Y0291650D03*
X0693340Y0325000D03*
X0686650Y0325000D03*
X0767500Y0298350D03*
X0767500Y0291650D03*
X0824150Y0542500D03*
X0830840Y0542500D03*
X0830840Y0550000D03*
X0824150Y0550000D03*
X0824150Y0557500D03*
X0830840Y0557500D03*
X0830840Y0565000D03*
X0824150Y0565000D03*
X0795840Y0705000D03*
X0789150Y0705000D03*
X0802500Y0714150D03*
X0802500Y0720850D03*
X0665000Y0653350D03*
X0665000Y0646650D03*
X0625840Y0630000D03*
X0625840Y0620000D03*
X0619150Y0620000D03*
X0619150Y0630000D03*
X0590840Y0630000D03*
X0590840Y0620000D03*
X0584150Y0620000D03*
X0584150Y0630000D03*
X0580840Y0660000D03*
X0580840Y0667500D03*
X0580840Y0675000D03*
X0580840Y0682500D03*
X0580840Y0690000D03*
X0580840Y0697500D03*
X0574150Y0697500D03*
X0574150Y0690000D03*
X0574150Y0682500D03*
X0574150Y0675000D03*
X0574150Y0667500D03*
X0574150Y0660000D03*
X0589150Y0755000D03*
X0589150Y0762500D03*
X0589150Y0770000D03*
X0589150Y0777500D03*
X0589150Y0785000D03*
X0589150Y0792500D03*
X0595840Y0792500D03*
X0595840Y0785000D03*
X0595840Y0777500D03*
X0595840Y0770000D03*
X0595840Y0762500D03*
X0595840Y0755000D03*
X0994150Y0517500D03*
X1000840Y0517500D03*
D141*
X0975000Y0554040D03*
X0975000Y0570960D03*
D25*
X0991980Y0542500D03*
X0991980Y0530000D03*
X1003010Y0530000D03*
X1003010Y0542500D03*
X0928010Y0555000D03*
X0916980Y0555000D03*
X0916980Y0567500D03*
X0928010Y0567500D03*
X0855510Y0530000D03*
X0844480Y0530000D03*
D143*
X0988240Y0562500D03*
X1006750Y0562500D03*
D42*
X1003360Y0745000D03*
X1003360Y0755000D03*
X1003360Y0765000D03*
X1003360Y0775000D03*
X1011630Y0775000D03*
X1011630Y0765000D03*
X1011630Y0755000D03*
X1011630Y0745000D03*
X0875000Y0679130D03*
X0875000Y0670870D03*
X0865000Y0670870D03*
X0865000Y0679130D03*
X0855000Y0679130D03*
X0855000Y0670870D03*
X0845000Y0670870D03*
X0845000Y0679130D03*
X0835000Y0679130D03*
X0835000Y0670870D03*
X0825000Y0670870D03*
X0825000Y0679130D03*
X0812500Y0788370D03*
X0812500Y0796630D03*
X0596630Y0697500D03*
X0596630Y0690000D03*
X0596630Y0682500D03*
X0596630Y0675000D03*
X0596630Y0667500D03*
X0596630Y0660000D03*
X0588360Y0660000D03*
X0588360Y0667500D03*
X0588360Y0675000D03*
X0588360Y0682500D03*
X0588360Y0690000D03*
X0588360Y0697500D03*
X0581630Y0755000D03*
X0581630Y0762500D03*
X0581630Y0770000D03*
X0581630Y0777500D03*
X0581630Y0785000D03*
X0581630Y0792500D03*
X0573360Y0792500D03*
X0573360Y0785000D03*
X0573360Y0777500D03*
X0573360Y0770000D03*
X0573360Y0762500D03*
X0573360Y0755000D03*
D33*
X0617500Y0710240D03*
X0622500Y0710240D03*
X0627500Y0710240D03*
X0632500Y0710240D03*
X0640000Y0710240D03*
X0645000Y0710240D03*
X0650000Y0710240D03*
X0655000Y0710240D03*
X0662500Y0710240D03*
X0667500Y0710240D03*
X0672500Y0710240D03*
X0677500Y0710240D03*
X0685000Y0710240D03*
X0690000Y0710240D03*
X0695000Y0710240D03*
X0700000Y0710240D03*
X0707500Y0710240D03*
X0712500Y0710240D03*
X0717500Y0710240D03*
X0722500Y0710240D03*
X0730000Y0710240D03*
X0735000Y0710240D03*
X0740000Y0710240D03*
X0745000Y0710240D03*
X0745000Y0689760D03*
X0740000Y0689760D03*
X0735000Y0689760D03*
X0730000Y0689760D03*
X0722500Y0689760D03*
X0717500Y0689760D03*
X0712500Y0689760D03*
X0707500Y0689760D03*
X0700000Y0689760D03*
X0695000Y0689760D03*
X0690000Y0689760D03*
X0685000Y0689760D03*
X0677500Y0689760D03*
X0672500Y0689760D03*
X0667500Y0689760D03*
X0662500Y0689760D03*
X0655000Y0689760D03*
X0650000Y0689760D03*
X0645000Y0689760D03*
X0640000Y0689760D03*
X0632500Y0689760D03*
X0627500Y0689760D03*
X0622500Y0689760D03*
X0617500Y0689760D03*
X0770000Y0695240D03*
X0775000Y0695240D03*
X0780000Y0695240D03*
X0785000Y0695240D03*
X0785000Y0674760D03*
X0780000Y0674760D03*
X0775000Y0674760D03*
X0770000Y0674760D03*
X0942500Y0674760D03*
X0947500Y0674760D03*
X0952500Y0674760D03*
X0957500Y0674760D03*
X0965000Y0674760D03*
X0970000Y0674760D03*
X0975000Y0674760D03*
X0980000Y0674760D03*
X0980000Y0695240D03*
X0975000Y0695240D03*
X0970000Y0695240D03*
X0965000Y0695240D03*
X0957500Y0695240D03*
X0952500Y0695240D03*
X0947500Y0695240D03*
X0942500Y0695240D03*
D83*
X0900500Y0250000D03*
X0935000Y0127500D03*
X0862500Y0127500D03*
X0594500Y0552500D03*
X0572500Y0382500D03*
X0653190Y0786910D03*
D64*
X0625780Y0792500D03*
X0724210Y0792500D03*
D137*
X0715000Y0746020D03*
X0715000Y0723980D03*
X0692500Y0723980D03*
X0692500Y0746020D03*
X0670000Y0746020D03*
X0670000Y0723980D03*
X0647500Y0723980D03*
X0647500Y0746020D03*
X0625000Y0746020D03*
X0625000Y0723980D03*
X0737500Y0723980D03*
X0737500Y0746020D03*
X0777500Y0728520D03*
X0777500Y0706480D03*
X0950000Y0706480D03*
X0950000Y0728520D03*
X0972500Y0728520D03*
X0972500Y0706480D03*
X0977500Y0528520D03*
X0977500Y0506480D03*
D14*
X0993760Y0510120D03*
X0997500Y0510120D03*
X1001240Y0510120D03*
X1001240Y0499880D03*
X0993760Y0499880D03*
X0991240Y0712380D03*
X0987500Y0712380D03*
X0983760Y0712380D03*
X0983760Y0722620D03*
X0991240Y0722620D03*
X0933740Y0722620D03*
X0926260Y0722620D03*
X0926260Y0712380D03*
X0930000Y0712380D03*
X0933740Y0712380D03*
X0796240Y0712380D03*
X0792500Y0712380D03*
X0788760Y0712380D03*
X0788760Y0722620D03*
X0796240Y0722620D03*
X0761240Y0729880D03*
X0757500Y0729880D03*
X0753760Y0729880D03*
X0753760Y0740120D03*
X0761240Y0740120D03*
X0608740Y0740120D03*
X0601260Y0740120D03*
X0601260Y0729880D03*
X0605000Y0729880D03*
X0608740Y0729880D03*
D115*
X0670980Y0656490D03*
X0673540Y0656490D03*
X0676100Y0656490D03*
X0678660Y0656490D03*
X0681220Y0656490D03*
X0683780Y0656490D03*
X0686340Y0656490D03*
X0688890Y0656490D03*
X0691450Y0656490D03*
X0694010Y0656490D03*
X0694010Y0633510D03*
X0691450Y0633510D03*
X0688890Y0633510D03*
X0686340Y0633510D03*
X0683780Y0633510D03*
X0681220Y0633510D03*
X0678660Y0633510D03*
X0676100Y0633510D03*
X0673540Y0633510D03*
X0670980Y0633510D03*
X0738480Y0306490D03*
X0741040Y0306490D03*
X0743600Y0306490D03*
X0746160Y0306490D03*
X0748720Y0306490D03*
X0751280Y0306490D03*
X0753840Y0306490D03*
X0756390Y0306490D03*
X0758950Y0306490D03*
X0761510Y0306490D03*
X0761510Y0283510D03*
X0758950Y0283510D03*
X0756390Y0283510D03*
X0753840Y0283510D03*
X0751280Y0283510D03*
X0748720Y0283510D03*
X0746160Y0283510D03*
X0743600Y0283510D03*
X0741040Y0283510D03*
X0738480Y0283510D03*
D60*
X0616480Y0566040D03*
X0616480Y0568600D03*
X0616480Y0571160D03*
X0616480Y0573720D03*
X0616480Y0576280D03*
X0616480Y0578840D03*
X0616480Y0581400D03*
X0616480Y0583960D03*
X0616480Y0593540D03*
X0616480Y0596100D03*
X0616480Y0598660D03*
X0616480Y0601220D03*
X0616480Y0603780D03*
X0616480Y0606340D03*
X0616480Y0608900D03*
X0616480Y0611460D03*
X0593510Y0611460D03*
X0593510Y0608900D03*
X0593510Y0606340D03*
X0593510Y0603780D03*
X0593510Y0601220D03*
X0593510Y0598660D03*
X0593510Y0596100D03*
X0593510Y0593540D03*
X0593510Y0583960D03*
X0593510Y0581400D03*
X0593510Y0578840D03*
X0593510Y0576280D03*
X0593510Y0573720D03*
X0593510Y0571160D03*
X0593510Y0568600D03*
X0593510Y0566040D03*
X0858510Y0608480D03*
X0858510Y0611040D03*
X0858510Y0613600D03*
X0858510Y0616160D03*
X0858510Y0618720D03*
X0858510Y0621280D03*
X0858510Y0623840D03*
X0858510Y0626400D03*
X0858510Y0628960D03*
X0858510Y0631520D03*
X0881480Y0631520D03*
X0881480Y0628960D03*
X0881480Y0626400D03*
X0881480Y0623840D03*
X0881480Y0621280D03*
X0881480Y0618720D03*
X0881480Y0616160D03*
X0881480Y0613600D03*
X0881480Y0611040D03*
X0881480Y0608480D03*
D34*
X0925000Y0775000D03*
X0777500Y0775000D03*
X0912500Y0430000D03*
X0912500Y0370000D03*
X0912500Y0310000D03*
X0912500Y0250000D03*
X0912500Y0180000D03*
X0662500Y0355000D03*
X0630000Y0355000D03*
D31*
X0630000Y0345000D03*
X0630000Y0335000D03*
X0662500Y0335000D03*
X0662500Y0345000D03*
X0912500Y0350000D03*
X0912500Y0360000D03*
X0912500Y0410000D03*
X0912500Y0420000D03*
X0912500Y0300000D03*
X0912500Y0290000D03*
X0912500Y0240000D03*
X0912500Y0230000D03*
X0912500Y0220000D03*
X0912500Y0170000D03*
X0912500Y0160000D03*
X0935000Y0775000D03*
X0945000Y0775000D03*
X0955000Y0775000D03*
X0965000Y0775000D03*
X0787500Y0775000D03*
D126*
X0793000Y0809000D03*
X0772000Y0809000D03*
X0919500Y0809000D03*
X0970500Y0809000D03*
X0946500Y0435500D03*
X0946500Y0404500D03*
X0946500Y0375500D03*
X0946500Y0344500D03*
X0946500Y0315500D03*
X0946500Y0284500D03*
X0946500Y0255500D03*
X0946500Y0214500D03*
X0946500Y0185500D03*
X0946500Y0154500D03*
X0659500Y0319000D03*
X0627000Y0319000D03*
X0627000Y0371000D03*
X0659500Y0371000D03*
D40*
X0752500Y0597500D03*
X0762500Y0597500D03*
X0772500Y0597500D03*
X0782500Y0597500D03*
X0792500Y0597500D03*
X0802500Y0597500D03*
X0802500Y0607500D03*
X0792500Y0607500D03*
X0782500Y0607500D03*
X0772500Y0607500D03*
X0762500Y0607500D03*
X0752500Y0607500D03*
X1002500Y0635000D03*
X1002500Y0645000D03*
X1002500Y0655000D03*
X1002500Y0665000D03*
X1002500Y0675000D03*
X1012500Y0675000D03*
X1012500Y0665000D03*
X1012500Y0655000D03*
X1012500Y0645000D03*
X1012500Y0635000D03*
X1012500Y0685000D03*
X1012500Y0695000D03*
X1012500Y0705000D03*
X1002500Y0705000D03*
X1002500Y0695000D03*
X1002500Y0685000D03*
D73*
X0880000Y0786590D02*
X0880000Y0798410D01*
X0842500Y0798410D02*
X0842500Y0786590D01*
D72*
X0772500Y0547500D03*
X0772500Y0387500D03*
D84*
X0810000Y0710220D03*
X0810000Y0724780D03*
X0782500Y0737720D03*
X0782500Y0752280D03*
X0772500Y0752280D03*
X0772500Y0737720D03*
X0742500Y0755220D03*
X0742500Y0769780D03*
X0732500Y0769780D03*
X0732500Y0755220D03*
X0720000Y0755220D03*
X0720000Y0769780D03*
X0710000Y0769780D03*
X0710000Y0755220D03*
X0697500Y0755220D03*
X0697500Y0769780D03*
X0687500Y0769780D03*
X0687500Y0755220D03*
X0675000Y0755220D03*
X0675000Y0769780D03*
X0665000Y0769780D03*
X0665000Y0755220D03*
X0652500Y0755220D03*
X0652500Y0769780D03*
X0642500Y0769780D03*
X0642500Y0755220D03*
X0630000Y0755220D03*
X0630000Y0769780D03*
X0620000Y0769780D03*
X0620000Y0755220D03*
X0907500Y0744780D03*
X0917500Y0744780D03*
X0917500Y0730220D03*
X0907500Y0730220D03*
X0945000Y0737720D03*
X0945000Y0752280D03*
X0955000Y0752280D03*
X0955000Y0737720D03*
X0967500Y0737720D03*
X0967500Y0752280D03*
X0977500Y0752280D03*
X0977500Y0737720D03*
D102*
X0610710Y0627950D03*
X0610710Y0625980D03*
X0610710Y0624020D03*
X0610710Y0622050D03*
X0599290Y0622050D03*
X0599290Y0624020D03*
X0599290Y0625980D03*
X0599290Y0627950D03*
D47*
X0867380Y0303740D03*
X0867380Y0296260D03*
X0877580Y0296260D03*
X0877580Y0300000D03*
X0877580Y0303740D03*
X0917420Y0523760D03*
X0917420Y0527500D03*
X0917420Y0531240D03*
X0927610Y0531240D03*
X0927610Y0523760D03*
D142*
X0930000Y0102500D03*
X0902500Y0102500D03*
X0857500Y0102500D03*
X0975000Y0102500D03*
D39*
X0861020Y0547320D03*
X0861020Y0549880D03*
X0861020Y0552440D03*
X0861020Y0555000D03*
X0861020Y0557560D03*
X0861020Y0560120D03*
X0861020Y0562680D03*
X0838970Y0562680D03*
X0838970Y0560120D03*
X0838970Y0557560D03*
X0838970Y0555000D03*
X0838970Y0552440D03*
X0838970Y0549880D03*
X0838970Y0547320D03*
D85*
X0850000Y0555000D03*
D56*
X0876530Y0530000D03*
X0893460Y0530000D03*
D92*
X0885000Y0543980D03*
X0885000Y0566020D03*
D58*
X0790000Y0353500D03*
X0790000Y0343500D03*
X0780000Y0343500D03*
X0780000Y0353500D03*
X0770000Y0353500D03*
X0770000Y0343500D03*
X0760000Y0343500D03*
X0760000Y0353500D03*
X0750000Y0353500D03*
X0750000Y0343500D03*
X0740000Y0343500D03*
X0740000Y0353500D03*
D37*
X0864700Y0177500D03*
X0864700Y0172500D03*
X0864700Y0167500D03*
X0864700Y0162500D03*
X0885300Y0162500D03*
X0885300Y0167500D03*
X0885300Y0172500D03*
X0885300Y0177500D03*
D43*
X0718740Y0289920D03*
X0715000Y0289920D03*
X0711260Y0289920D03*
X0711260Y0300120D03*
X0718740Y0300120D03*
D55*
X0721000Y0315000D03*
X0715000Y0315000D03*
X0709000Y0315000D03*
X0974500Y0762500D03*
X0980500Y0762500D03*
D71*
X0887280Y0445000D03*
X0872710Y0445000D03*
X0892710Y0387500D03*
X0907280Y0387500D03*
X0879780Y0280000D03*
X0865210Y0280000D03*
X0872710Y0247500D03*
X0887280Y0247500D03*
X0887280Y0222500D03*
X0872710Y0222500D03*
X0697280Y0317500D03*
X0682710Y0317500D03*
D111*
X0870000Y0577000D03*
X0870000Y0583000D03*
D10*
X0870000Y0580000D03*
D20*
X0977500Y0762500D03*
D133*
X0860000Y0737800D03*
X0855000Y0737800D03*
X0850000Y0737800D03*
X0845000Y0737800D03*
X0845000Y0717200D03*
X0850000Y0717200D03*
X0855000Y0717200D03*
X0860000Y0717200D03*
D74*
X0877500Y0714510D03*
X0877500Y0740490D03*
D101*
X0658150Y0609720D03*
X0658150Y0606570D03*
X0658150Y0603430D03*
X0658150Y0600280D03*
X0658150Y0594720D03*
X0658150Y0591570D03*
X0658150Y0588430D03*
X0658150Y0585280D03*
X0658150Y0579720D03*
X0658150Y0576570D03*
X0658150Y0573430D03*
X0658150Y0570280D03*
X0658150Y0564720D03*
X0658150Y0561570D03*
X0658150Y0558430D03*
X0658150Y0555280D03*
X0651850Y0555280D03*
X0651850Y0558430D03*
X0651850Y0561570D03*
X0651850Y0564720D03*
X0651850Y0570280D03*
X0651850Y0573430D03*
X0651850Y0576570D03*
X0651850Y0579720D03*
X0651850Y0585280D03*
X0651850Y0588430D03*
X0651850Y0591570D03*
X0651850Y0594720D03*
X0651850Y0600280D03*
X0651850Y0603430D03*
X0651850Y0606570D03*
X0651850Y0609720D03*
D81*
X0922500Y0508000D02*
X0922500Y0502000D01*
X0932500Y0502000D02*
X0932500Y0508000D01*
X0942500Y0508000D02*
X0942500Y0502000D01*
X0947500Y0617000D02*
X0947500Y0623000D01*
X0957500Y0623000D02*
X0957500Y0617000D01*
X0967500Y0617000D02*
X0967500Y0623000D01*
D81*
X0985000Y0630000D03*
X0965000Y0647500D03*
X0935000Y0675000D03*
X0930000Y0620000D03*
X0930000Y0577500D03*
X0985000Y0497500D03*
X1010000Y0480000D03*
X0985000Y0425000D03*
X0987500Y0392500D03*
X0962500Y0392500D03*
X0947500Y0360000D03*
X0865000Y0485000D03*
X0865000Y0530000D03*
X0895000Y0675000D03*
X0895210Y0737500D03*
X0939000Y0737720D03*
X0961500Y0737500D03*
X0997500Y0600000D03*
X0812500Y0747500D03*
X0755000Y0690000D03*
X1010000Y0150000D03*
X0997500Y0095000D03*
X0985000Y0080000D03*
D44*
X0865000Y0310000D03*
X0867500Y0422500D03*
X0792500Y0561000D03*
X0752500Y0522500D03*
X0752500Y0496650D03*
X0707500Y0527500D03*
X0707500Y0561000D03*
X0707500Y0422500D03*
X0740000Y0422500D03*
X0727500Y0755000D03*
X0705000Y0755000D03*
X0682500Y0755000D03*
X0660000Y0755000D03*
X0637500Y0755000D03*
X0615000Y0755000D03*
X0765000Y0755000D03*
X0975000Y0495000D03*
X1007500Y0620000D03*
X0567500Y0855000D02*
G75*
%LPD*%
D119*
X0722260Y0960000D03*
X0722260Y0965000D03*
X0722260Y0970000D03*
X0722260Y0975000D03*
X0722260Y0980000D03*
X0722260Y0985000D03*
X0722260Y0990000D03*
X0742740Y0990000D03*
X0742740Y0985000D03*
X0742740Y0980000D03*
X0742740Y0975000D03*
X0742740Y0970000D03*
X0742740Y0965000D03*
X0742740Y0960000D03*
X0742740Y1007500D03*
X0742740Y1012500D03*
X0742740Y1017500D03*
X0742740Y1022500D03*
X0722260Y1022500D03*
X0722260Y1017500D03*
X0722260Y1012500D03*
X0722260Y1007500D03*
X0672740Y1007500D03*
X0672740Y1012500D03*
X0672740Y1017500D03*
X0672740Y1022500D03*
X0652260Y1022500D03*
X0652260Y1017500D03*
X0652260Y1012500D03*
X0652260Y1007500D03*
D47*
X0697380Y1011260D03*
X0707580Y1011260D03*
X0707580Y1015000D03*
X0707580Y1018740D03*
X0697380Y1018740D03*
X0757420Y1018740D03*
X0757420Y1015000D03*
X0757420Y1011260D03*
X0767620Y1011260D03*
X0767620Y1018740D03*
D49*
X0765850Y0990000D03*
X0759150Y0990000D03*
X0759150Y0970000D03*
X0765850Y0970000D03*
X0765850Y0960000D03*
X0759150Y0960000D03*
X0705850Y0960000D03*
X0699150Y0960000D03*
X0699150Y0970000D03*
X0705850Y0970000D03*
X0705850Y0990000D03*
X0699150Y0990000D03*
X0645850Y0990000D03*
X0639150Y0990000D03*
X0639150Y0980000D03*
X0645850Y0980000D03*
X0645850Y0970000D03*
X0639150Y0970000D03*
X0639150Y0960000D03*
X0645850Y0960000D03*
X0814150Y0922500D03*
X0820850Y0922500D03*
X0856650Y0922500D03*
X0863350Y0922500D03*
X0899150Y0922500D03*
X0905850Y0922500D03*
X0941650Y0922500D03*
X0948350Y0922500D03*
X0984150Y0922500D03*
X0990850Y0922500D03*
X1026650Y0922500D03*
X1033350Y0922500D03*
D23*
X0777500Y1011650D03*
X0777500Y1018350D03*
X0765850Y1030000D03*
X0759150Y1030000D03*
X0705850Y1030000D03*
X0699150Y1030000D03*
X0687500Y1018350D03*
X0687500Y1011650D03*
X0699150Y1000000D03*
X0705850Y1000000D03*
X0705850Y0980000D03*
X0699150Y0980000D03*
X0759150Y0980000D03*
X0765850Y0980000D03*
X0765850Y1000000D03*
X0759150Y1000000D03*
X0759150Y0950000D03*
X0765850Y0950000D03*
X0762500Y0933350D03*
X0762500Y0926650D03*
X0705850Y0950000D03*
X0699150Y0950000D03*
X0702500Y0933350D03*
X0702500Y0926650D03*
X0672500Y0926650D03*
X0662500Y0926650D03*
X0662500Y0933350D03*
X0672500Y0933350D03*
D34*
X0652500Y0910000D03*
X0722500Y0910000D03*
X0787500Y0910000D03*
X0840000Y0910000D03*
X0892500Y0910000D03*
X0945000Y0910000D03*
D31*
X0935000Y0910000D03*
X0882500Y0910000D03*
X0830000Y0910000D03*
X0777500Y0910000D03*
X0767500Y0910000D03*
X0712500Y0910000D03*
X0702500Y0910000D03*
X0642500Y0910000D03*
X0632500Y0910000D03*
X0622500Y0910000D03*
X0612500Y0910000D03*
D126*
X0607000Y0876000D03*
X0658000Y0876000D03*
X0697000Y0876000D03*
X0728000Y0876000D03*
X0762000Y0876000D03*
X0793000Y0876000D03*
X0824500Y0876000D03*
X0845500Y0876000D03*
X0877000Y0876000D03*
X0898000Y0876000D03*
X0929500Y0876000D03*
X0950500Y0876000D03*
D84*
X0772500Y0922720D03*
X0752500Y0922720D03*
X0752500Y0937280D03*
X0772500Y0937280D03*
X0712500Y0937280D03*
X0692500Y0937280D03*
X0682500Y0937280D03*
X0652500Y0937280D03*
X0652500Y0922720D03*
X0682500Y0922720D03*
X0692500Y0922720D03*
X0712500Y0922720D03*
X0587500Y0957720D03*
X0577500Y0957720D03*
X0577500Y0972280D03*
X0587500Y0972280D03*
X0587500Y0987720D03*
X0577500Y0987720D03*
X0577500Y1002280D03*
X0587500Y1002280D03*
D120*
X0599930Y1005000D02*
X0605070Y1005000D01*
X0619930Y1005000D02*
X0625070Y1005000D01*
X0625070Y0995000D02*
X0619930Y0995000D01*
X0605070Y0995000D02*
X0599930Y0995000D01*
X0599930Y0985000D02*
X0605070Y0985000D01*
X0619930Y0985000D02*
X0625070Y0985000D01*
X0625070Y0975000D02*
X0619930Y0975000D01*
X0605070Y0975000D02*
X0599930Y0975000D01*
X0599930Y0955000D02*
X0605070Y0955000D01*
X0619930Y0955000D02*
X0625070Y0955000D01*
D71*
X0619780Y0945000D03*
X0605220Y0945000D03*
X0605220Y1015000D03*
X0619780Y1015000D03*
D42*
X0653370Y0990000D03*
X0661630Y0990000D03*
X0661630Y0980000D03*
X0653370Y0980000D03*
X0653370Y0970000D03*
X0661630Y0970000D03*
X0661630Y0960000D03*
X0653370Y0960000D03*
X0813370Y0932500D03*
X0821630Y0932500D03*
X0855870Y0932500D03*
X0864130Y0932500D03*
X0898370Y0932500D03*
X0906630Y0932500D03*
X0940870Y0932500D03*
X0949130Y0932500D03*
X0983370Y0932500D03*
X0991630Y0932500D03*
X1025870Y0932500D03*
X1034130Y0932500D03*
D140*
X0816600Y1022800D03*
X0807500Y1022800D03*
X0798400Y1022800D03*
D13*
X0807500Y1047200D03*
D53*
X0787500Y1040510D03*
X0787500Y1029490D03*
X0827500Y1029490D03*
X0827500Y1040510D03*
D96*
X0853110Y1035390D03*
X0866890Y1035390D03*
X0895610Y1035390D03*
X0909390Y1035390D03*
X0938110Y1035390D03*
X0951890Y1035390D03*
X0980610Y1035390D03*
X0994390Y1035390D03*
X0991890Y0874610D03*
X0978110Y0874610D03*
D124*
X0582500Y0870000D03*
X0582500Y1040000D03*
X1035000Y1040000D03*
X1035000Y0870000D03*
D75*
X1030000Y0970000D03*
X0987500Y0970000D03*
X0945000Y0970000D03*
X0902500Y0970000D03*
X0860000Y0970000D03*
X0817500Y0970000D03*
D123*
X0817500Y0951100D03*
X0860000Y0951100D03*
X0902500Y0951100D03*
X0945000Y0951100D03*
X0987500Y0951100D03*
X1030000Y0951100D03*
X1030000Y0988900D03*
X0987500Y0988900D03*
X0945000Y0988900D03*
X0902500Y0988900D03*
X0860000Y0988900D03*
X0817500Y0988900D03*
D138*
X0775000Y0995000D03*
X0775000Y1005000D03*
X0762500Y1005000D03*
X0755000Y1005000D03*
X0742500Y1002500D03*
X0730000Y1007500D03*
X0732500Y1012500D03*
X0732500Y1022500D03*
X0722500Y1030000D03*
X0700000Y1040000D03*
X0662500Y1022500D03*
X0652500Y1030000D03*
X0612500Y1030000D03*
X0582500Y1017500D03*
X0572500Y1022500D03*
X0582500Y1007500D03*
X0582500Y0997500D03*
X0587500Y0980000D03*
X0592000Y0972500D03*
X0609000Y0968500D03*
X0612500Y0975000D03*
X0632500Y0975000D03*
X0642500Y0975000D03*
X0650000Y0965000D03*
X0670000Y0975000D03*
X0675000Y0965000D03*
X0695000Y0975000D03*
X0712500Y0970000D03*
X0735000Y0970000D03*
X0750000Y0965000D03*
X0755000Y0955000D03*
X0775000Y0965000D03*
X0770000Y0975000D03*
X0750000Y0995000D03*
X0712500Y0995000D03*
X0690000Y0995000D03*
X0702500Y0985000D03*
X0702500Y1005000D03*
X0710000Y1007500D03*
X0637500Y1000000D03*
X0637500Y0950000D03*
X0662500Y0947500D03*
X0670000Y0947500D03*
X0717500Y0922500D03*
X0735000Y0922500D03*
X0777500Y0922500D03*
X0687500Y0917500D03*
X0672500Y0865000D03*
X0785000Y1015000D03*
X0777500Y1040000D03*
X0767500Y1040000D03*
D146*
X0827500Y1020000D03*
X0827500Y0990000D03*
D72*
X0952500Y1005000D03*
D15*
X0887500Y0960000D03*
X0840000Y0970000D03*
X0962500Y0862500D03*
D151*
X0762500Y0915000D03*
X1075000Y0060000D02*
G75*
%LPD*%
D12*
X1312480Y0320510D03*
D131*
X1330000Y0077500D03*
X1140000Y0077500D03*
D82*
X1140000Y0087500D03*
X1140000Y0097500D03*
X1140000Y0107500D03*
X1140000Y0117500D03*
X1140000Y0127500D03*
X1140000Y0137500D03*
X1140000Y0147500D03*
X1140000Y0157500D03*
X1140000Y0167500D03*
X1140000Y0177500D03*
X1140000Y0187500D03*
X1140000Y0197500D03*
X1140000Y0207500D03*
X1140000Y0217500D03*
X1140000Y0227500D03*
X1140000Y0237500D03*
X1140000Y0247500D03*
X1140000Y0257500D03*
X1140000Y0267500D03*
X1140000Y0277500D03*
X1140000Y0287500D03*
X1140000Y0297500D03*
X1130000Y0297500D03*
X1130000Y0287500D03*
X1130000Y0277500D03*
X1130000Y0267500D03*
X1130000Y0257500D03*
X1130000Y0247500D03*
X1130000Y0237500D03*
X1130000Y0227500D03*
X1130000Y0217500D03*
X1130000Y0207500D03*
X1130000Y0197500D03*
X1130000Y0187500D03*
X1130000Y0177500D03*
X1130000Y0167500D03*
X1130000Y0157500D03*
X1130000Y0147500D03*
X1130000Y0137500D03*
X1130000Y0127500D03*
X1130000Y0117500D03*
X1130000Y0107500D03*
X1130000Y0097500D03*
X1130000Y0087500D03*
X1130000Y0077500D03*
X1320000Y0077500D03*
X1320000Y0087500D03*
X1320000Y0097500D03*
X1320000Y0107500D03*
X1320000Y0117500D03*
X1330000Y0117500D03*
X1330000Y0107500D03*
X1330000Y0097500D03*
X1330000Y0087500D03*
X1330000Y0127500D03*
X1330000Y0137500D03*
X1330000Y0147500D03*
X1330000Y0157500D03*
X1330000Y0167500D03*
X1330000Y0177500D03*
X1330000Y0187500D03*
X1330000Y0197500D03*
X1330000Y0207500D03*
X1330000Y0217500D03*
X1330000Y0227500D03*
X1330000Y0237500D03*
X1330000Y0247500D03*
X1330000Y0257500D03*
X1330000Y0267500D03*
X1330000Y0277500D03*
X1330000Y0287500D03*
X1330000Y0297500D03*
X1320000Y0297500D03*
X1320000Y0287500D03*
X1320000Y0277500D03*
X1320000Y0267500D03*
X1320000Y0257500D03*
X1320000Y0247500D03*
X1320000Y0237500D03*
X1320000Y0227500D03*
X1320000Y0217500D03*
X1320000Y0207500D03*
X1320000Y0197500D03*
X1320000Y0187500D03*
X1320000Y0177500D03*
X1320000Y0167500D03*
X1320000Y0157500D03*
X1320000Y0147500D03*
X1320000Y0137500D03*
X1320000Y0127500D03*
D132*
X1295500Y0127500D03*
X1294500Y0137500D03*
X1295500Y0147500D03*
X1294500Y0157500D03*
X1295500Y0167500D03*
X1294500Y0177500D03*
X1295500Y0187500D03*
X1294500Y0197500D03*
X1295500Y0207500D03*
X1294500Y0217500D03*
X1295500Y0227500D03*
X1294500Y0237500D03*
X1295500Y0247500D03*
X1294500Y0257500D03*
X1295500Y0267500D03*
X1294500Y0277500D03*
X1295500Y0287500D03*
X1294500Y0297500D03*
X1295500Y0307500D03*
X1305000Y0372000D03*
X1315000Y0373000D03*
X1325000Y0372000D03*
X1335000Y0373000D03*
X1345000Y0372000D03*
X1355000Y0373000D03*
X1365000Y0372000D03*
X1375000Y0373000D03*
X1385000Y0372000D03*
X1385000Y0393500D03*
X1375000Y0392500D03*
X1365000Y0393500D03*
X1355000Y0392500D03*
X1345000Y0393500D03*
X1335000Y0392500D03*
X1325000Y0393500D03*
X1315000Y0392500D03*
X1305000Y0393500D03*
X1345500Y0307500D03*
X1344500Y0297500D03*
X1345500Y0287500D03*
X1344500Y0277500D03*
X1345500Y0267500D03*
X1344500Y0257500D03*
X1345500Y0247500D03*
X1344500Y0237500D03*
X1345500Y0227500D03*
X1344500Y0217500D03*
X1345500Y0207500D03*
X1344500Y0197500D03*
X1345500Y0187500D03*
X1344500Y0177500D03*
X1345500Y0167500D03*
X1344500Y0157500D03*
X1345500Y0147500D03*
X1344500Y0137500D03*
X1345500Y0127500D03*
X1344500Y0117500D03*
X1345500Y0107500D03*
X1344500Y0097500D03*
X1345500Y0087500D03*
X1344500Y0077500D03*
X1380000Y0127500D03*
X1385000Y0137500D03*
X1390000Y0127500D03*
X1395000Y0137500D03*
X1400000Y0127500D03*
X1405000Y0137500D03*
X1408000Y0160000D03*
X1407000Y0170000D03*
X1408000Y0180000D03*
X1407000Y0220000D03*
X1408000Y0230000D03*
X1407000Y0240000D03*
X1408000Y0290000D03*
X1407000Y0300000D03*
X1408000Y0310000D03*
X1408000Y0350000D03*
X1407000Y0360000D03*
X1408000Y0370000D03*
X1408000Y0410000D03*
X1407000Y0420000D03*
X1408000Y0430000D03*
X1307500Y0227500D03*
X1307500Y0217500D03*
X1307500Y0207500D03*
X1307500Y0197500D03*
X1307500Y0187500D03*
X1307500Y0177500D03*
X1275500Y0167500D03*
X1274500Y0157500D03*
X1275500Y0147500D03*
X1274500Y0137500D03*
X1275500Y0127500D03*
X1274500Y0117500D03*
X1255500Y0127500D03*
X1254500Y0137500D03*
X1255500Y0147500D03*
X1254500Y0157500D03*
X1255500Y0167500D03*
X1254500Y0177500D03*
X1255500Y0187500D03*
X1254500Y0197500D03*
X1255500Y0207500D03*
X1274500Y0197500D03*
X1275500Y0187500D03*
X1274500Y0177500D03*
X1275500Y0207500D03*
X1294500Y0117500D03*
X1295500Y0107500D03*
X1294500Y0097500D03*
X1295500Y0087500D03*
X1294500Y0077500D03*
X1254500Y0117500D03*
X1155500Y0117500D03*
X1154500Y0107500D03*
X1155500Y0097500D03*
X1154500Y0087500D03*
X1155500Y0077500D03*
X1154500Y0067500D03*
X1154500Y0127500D03*
X1155500Y0137500D03*
X1154500Y0147500D03*
X1155500Y0157500D03*
X1154500Y0167500D03*
X1155500Y0177500D03*
X1154500Y0187500D03*
X1155500Y0197500D03*
X1154500Y0207500D03*
X1155500Y0217500D03*
X1154500Y0227500D03*
X1155500Y0237500D03*
X1154500Y0247500D03*
X1155500Y0257500D03*
X1154500Y0267500D03*
X1155500Y0277500D03*
X1154500Y0287500D03*
X1155500Y0297500D03*
X1115500Y0297500D03*
X1114500Y0287500D03*
X1115500Y0277500D03*
X1114500Y0267500D03*
X1115500Y0257500D03*
X1114500Y0247500D03*
X1115500Y0237500D03*
X1114500Y0227500D03*
X1115500Y0217500D03*
X1114500Y0207500D03*
X1115500Y0197500D03*
X1114500Y0187500D03*
X1115500Y0177500D03*
X1114500Y0167500D03*
X1115500Y0157500D03*
X1114500Y0147500D03*
X1115500Y0137500D03*
X1114500Y0127500D03*
X1115500Y0117500D03*
X1114500Y0107500D03*
X1115500Y0097500D03*
X1114500Y0087500D03*
X1115500Y0077500D03*
X1114500Y0067500D03*
X1102000Y0382500D03*
X1102000Y0392500D03*
X1102000Y0402500D03*
X1102000Y0412500D03*
X1102000Y0422500D03*
X1102000Y0432500D03*
X1102000Y0442500D03*
X1102000Y0452500D03*
X1102000Y0462500D03*
X1102000Y0472500D03*
X1102000Y0482500D03*
X1102000Y0492500D03*
X1102000Y0502500D03*
X1102000Y0512500D03*
X1102000Y0522500D03*
X1102000Y0532500D03*
X1102000Y0542500D03*
X1080000Y0542500D03*
X1080000Y0532500D03*
X1080000Y0522500D03*
X1080000Y0512500D03*
X1080000Y0502500D03*
X1080000Y0492500D03*
X1080000Y0482500D03*
X1080000Y0472500D03*
X1080000Y0462500D03*
X1080000Y0452500D03*
X1080000Y0442500D03*
X1080000Y0432500D03*
X1080000Y0422500D03*
X1080000Y0412500D03*
X1080000Y0402500D03*
X1080000Y0392500D03*
X1080000Y0552500D03*
X1171590Y0786910D03*
X1182500Y0786910D03*
X1193400Y0786910D03*
X1198840Y0798090D03*
X1187930Y0798090D03*
X1177060Y0798090D03*
X1166160Y0798090D03*
X1204310Y0786910D03*
X1284300Y0762500D03*
X1295700Y0762500D03*
X1432500Y0763000D03*
X1442500Y0762000D03*
X1452500Y0763000D03*
X1462500Y0762000D03*
X1472500Y0763000D03*
X1477500Y0137500D03*
X1472500Y0127500D03*
X1467500Y0137500D03*
X1462500Y0127500D03*
X1457500Y0137500D03*
X1452500Y0127500D03*
X1447500Y0137500D03*
X1375000Y0137500D03*
D117*
X1255000Y0097500D03*
X1185000Y0097500D03*
X1185000Y0227500D03*
X1255000Y0227500D03*
X1305000Y0508600D03*
X1385000Y0508600D03*
D124*
X1090000Y0075000D03*
X1510000Y0075000D03*
X1510000Y0815000D03*
X1090000Y0815000D03*
D16*
X1392500Y0588010D03*
X1392500Y0576990D03*
X1425000Y0609490D03*
X1425000Y0620510D03*
X1410000Y0510510D03*
X1410000Y0499490D03*
X1470000Y0499490D03*
X1470000Y0510510D03*
X1505000Y0609490D03*
X1505000Y0620510D03*
D119*
X1467730Y0570000D03*
X1467730Y0565000D03*
X1467730Y0560000D03*
X1467730Y0555000D03*
X1447260Y0555000D03*
X1447260Y0560000D03*
X1447260Y0565000D03*
X1447260Y0570000D03*
D23*
X1454150Y0577500D03*
X1460840Y0577500D03*
X1462500Y0545850D03*
X1462500Y0539150D03*
X1477500Y0539150D03*
X1477500Y0545850D03*
X1485000Y0545850D03*
X1485000Y0539150D03*
X1501650Y0492500D03*
X1508340Y0492500D03*
X1433340Y0537500D03*
X1433340Y0545000D03*
X1426650Y0545000D03*
X1426650Y0537500D03*
X1415000Y0539150D03*
X1415000Y0545850D03*
X1380840Y0602500D03*
X1374150Y0602500D03*
X1360840Y0572500D03*
X1354150Y0572500D03*
X1338340Y0572500D03*
X1331650Y0572500D03*
X1374150Y0637500D03*
X1380840Y0637500D03*
X1382500Y0686650D03*
X1382500Y0693350D03*
X1372500Y0693350D03*
X1372500Y0686650D03*
X1362500Y0686650D03*
X1362500Y0693350D03*
X1342500Y0693350D03*
X1342500Y0686650D03*
X1332500Y0686650D03*
X1332500Y0693350D03*
X1332500Y0714150D03*
X1332500Y0720850D03*
X1340000Y0720850D03*
X1340000Y0714150D03*
X1325000Y0714150D03*
X1325000Y0720850D03*
X1320000Y0774150D03*
X1320000Y0780850D03*
X1275000Y0719850D03*
X1275000Y0713150D03*
X1255000Y0731650D03*
X1255000Y0738350D03*
X1235000Y0738350D03*
X1235000Y0731650D03*
X1212500Y0731650D03*
X1212500Y0738350D03*
X1190000Y0738350D03*
X1190000Y0731650D03*
X1167500Y0731650D03*
X1167500Y0738350D03*
X1145000Y0738350D03*
X1145000Y0731650D03*
X1122500Y0731650D03*
X1122500Y0738350D03*
X1115840Y0750000D03*
X1109150Y0750000D03*
X1102500Y0738350D03*
X1102500Y0731650D03*
X1125000Y0678350D03*
X1125000Y0671650D03*
X1132500Y0671650D03*
X1132500Y0678350D03*
X1140000Y0678350D03*
X1140000Y0671650D03*
X1147500Y0671650D03*
X1147500Y0678350D03*
X1155000Y0678350D03*
X1155000Y0671650D03*
X1162500Y0671650D03*
X1162500Y0678350D03*
X1170000Y0678350D03*
X1170000Y0671650D03*
X1177500Y0671650D03*
X1177500Y0678350D03*
X1185000Y0678350D03*
X1185000Y0671650D03*
X1192500Y0671650D03*
X1192500Y0678350D03*
X1200000Y0678350D03*
X1200000Y0671650D03*
X1207500Y0671650D03*
X1207500Y0678350D03*
X1215000Y0678350D03*
X1215000Y0671650D03*
X1222500Y0671650D03*
X1222500Y0678350D03*
X1230000Y0678350D03*
X1230000Y0671650D03*
X1237500Y0671650D03*
X1237500Y0678350D03*
X1245000Y0678350D03*
X1245000Y0671650D03*
X1252500Y0671650D03*
X1252500Y0678350D03*
X1277500Y0663350D03*
X1277500Y0656650D03*
X1285000Y0656650D03*
X1285000Y0663350D03*
X1292500Y0663350D03*
X1292500Y0656650D03*
X1214340Y0635500D03*
X1207650Y0635500D03*
X1133340Y0625000D03*
X1126650Y0625000D03*
X1098340Y0625000D03*
X1091650Y0625000D03*
X1093340Y0600000D03*
X1086650Y0600000D03*
X1086650Y0572500D03*
X1093340Y0572500D03*
X1232500Y0298350D03*
X1232500Y0291650D03*
X1376650Y0287500D03*
X1383340Y0287500D03*
X1385840Y0185000D03*
X1379150Y0185000D03*
X1450000Y0656650D03*
X1450000Y0663350D03*
X1457500Y0663350D03*
X1457500Y0656650D03*
X1465000Y0656650D03*
X1465000Y0663350D03*
X1472500Y0663350D03*
X1472500Y0656650D03*
X1480000Y0656650D03*
X1480000Y0663350D03*
X1487500Y0663350D03*
X1487500Y0656650D03*
X1470000Y0714150D03*
X1470000Y0720850D03*
X1447500Y0720850D03*
X1447500Y0714150D03*
X1442500Y0746650D03*
X1442500Y0753350D03*
X1432500Y0753350D03*
X1432500Y0746650D03*
D49*
X1427500Y0720850D03*
X1427500Y0714150D03*
X1434150Y0705000D03*
X1440840Y0705000D03*
X1491650Y0705000D03*
X1498340Y0705000D03*
X1505000Y0714150D03*
X1505000Y0720850D03*
X1503340Y0745000D03*
X1503340Y0755000D03*
X1503340Y0765000D03*
X1503340Y0775000D03*
X1496650Y0775000D03*
X1496650Y0765000D03*
X1496650Y0755000D03*
X1496650Y0745000D03*
X1470000Y0545850D03*
X1470000Y0539150D03*
X1455000Y0539150D03*
X1455000Y0545850D03*
X1447500Y0545850D03*
X1447500Y0539150D03*
X1415840Y0527500D03*
X1409150Y0527500D03*
X1411650Y0445000D03*
X1418340Y0445000D03*
X1410840Y0380000D03*
X1404150Y0380000D03*
X1398340Y0300000D03*
X1391650Y0300000D03*
X1390840Y0240000D03*
X1384150Y0240000D03*
X1384150Y0230000D03*
X1390840Y0230000D03*
X1310840Y0117500D03*
X1304150Y0117500D03*
X1245840Y0147500D03*
X1245840Y0157500D03*
X1239150Y0157500D03*
X1239150Y0147500D03*
X1240000Y0291650D03*
X1240000Y0298350D03*
X1212500Y0298350D03*
X1212500Y0291650D03*
X1200840Y0325000D03*
X1194150Y0325000D03*
X1275000Y0298350D03*
X1275000Y0291650D03*
X1331650Y0542500D03*
X1338340Y0542500D03*
X1338340Y0550000D03*
X1331650Y0550000D03*
X1331650Y0557500D03*
X1338340Y0557500D03*
X1338340Y0565000D03*
X1331650Y0565000D03*
X1303340Y0705000D03*
X1296650Y0705000D03*
X1310000Y0714150D03*
X1310000Y0720850D03*
X1172500Y0653350D03*
X1172500Y0646650D03*
X1133340Y0630000D03*
X1133340Y0620000D03*
X1126650Y0620000D03*
X1126650Y0630000D03*
X1098340Y0630000D03*
X1098340Y0620000D03*
X1091650Y0620000D03*
X1091650Y0630000D03*
X1088340Y0660000D03*
X1088340Y0667500D03*
X1088340Y0675000D03*
X1088340Y0682500D03*
X1088340Y0690000D03*
X1088340Y0697500D03*
X1081650Y0697500D03*
X1081650Y0690000D03*
X1081650Y0682500D03*
X1081650Y0675000D03*
X1081650Y0667500D03*
X1081650Y0660000D03*
X1096650Y0755000D03*
X1096650Y0762500D03*
X1096650Y0770000D03*
X1096650Y0777500D03*
X1096650Y0785000D03*
X1096650Y0792500D03*
X1103340Y0792500D03*
X1103340Y0785000D03*
X1103340Y0777500D03*
X1103340Y0770000D03*
X1103340Y0762500D03*
X1103340Y0755000D03*
X1501650Y0517500D03*
X1508340Y0517500D03*
D141*
X1482500Y0554040D03*
X1482500Y0570960D03*
D25*
X1499480Y0542500D03*
X1499480Y0530000D03*
X1510510Y0530000D03*
X1510510Y0542500D03*
X1435510Y0555000D03*
X1424480Y0555000D03*
X1424480Y0567500D03*
X1435510Y0567500D03*
X1363010Y0530000D03*
X1351980Y0530000D03*
D143*
X1495740Y0562500D03*
X1514250Y0562500D03*
D42*
X1510860Y0745000D03*
X1510860Y0755000D03*
X1510860Y0765000D03*
X1510860Y0775000D03*
X1519130Y0775000D03*
X1519130Y0765000D03*
X1519130Y0755000D03*
X1519130Y0745000D03*
X1382500Y0679130D03*
X1382500Y0670870D03*
X1372500Y0670870D03*
X1372500Y0679130D03*
X1362500Y0679130D03*
X1362500Y0670870D03*
X1352500Y0670870D03*
X1352500Y0679130D03*
X1342500Y0679130D03*
X1342500Y0670870D03*
X1332500Y0670870D03*
X1332500Y0679130D03*
X1320000Y0788370D03*
X1320000Y0796630D03*
X1104130Y0697500D03*
X1104130Y0690000D03*
X1104130Y0682500D03*
X1104130Y0675000D03*
X1104130Y0667500D03*
X1104130Y0660000D03*
X1095860Y0660000D03*
X1095860Y0667500D03*
X1095860Y0675000D03*
X1095860Y0682500D03*
X1095860Y0690000D03*
X1095860Y0697500D03*
X1089130Y0755000D03*
X1089130Y0762500D03*
X1089130Y0770000D03*
X1089130Y0777500D03*
X1089130Y0785000D03*
X1089130Y0792500D03*
X1080860Y0792500D03*
X1080860Y0785000D03*
X1080860Y0777500D03*
X1080860Y0770000D03*
X1080860Y0762500D03*
X1080860Y0755000D03*
D33*
X1125000Y0710240D03*
X1130000Y0710240D03*
X1135000Y0710240D03*
X1140000Y0710240D03*
X1147500Y0710240D03*
X1152500Y0710240D03*
X1157500Y0710240D03*
X1162500Y0710240D03*
X1170000Y0710240D03*
X1175000Y0710240D03*
X1180000Y0710240D03*
X1185000Y0710240D03*
X1192500Y0710240D03*
X1197500Y0710240D03*
X1202500Y0710240D03*
X1207500Y0710240D03*
X1215000Y0710240D03*
X1220000Y0710240D03*
X1225000Y0710240D03*
X1230000Y0710240D03*
X1237500Y0710240D03*
X1242500Y0710240D03*
X1247500Y0710240D03*
X1252500Y0710240D03*
X1252500Y0689760D03*
X1247500Y0689760D03*
X1242500Y0689760D03*
X1237500Y0689760D03*
X1230000Y0689760D03*
X1225000Y0689760D03*
X1220000Y0689760D03*
X1215000Y0689760D03*
X1207500Y0689760D03*
X1202500Y0689760D03*
X1197500Y0689760D03*
X1192500Y0689760D03*
X1185000Y0689760D03*
X1180000Y0689760D03*
X1175000Y0689760D03*
X1170000Y0689760D03*
X1162500Y0689760D03*
X1157500Y0689760D03*
X1152500Y0689760D03*
X1147500Y0689760D03*
X1140000Y0689760D03*
X1135000Y0689760D03*
X1130000Y0689760D03*
X1125000Y0689760D03*
X1277500Y0695240D03*
X1282500Y0695240D03*
X1287500Y0695240D03*
X1292500Y0695240D03*
X1292500Y0674760D03*
X1287500Y0674760D03*
X1282500Y0674760D03*
X1277500Y0674760D03*
X1450000Y0674760D03*
X1455000Y0674760D03*
X1460000Y0674760D03*
X1465000Y0674760D03*
X1472500Y0674760D03*
X1477500Y0674760D03*
X1482500Y0674760D03*
X1487500Y0674760D03*
X1487500Y0695240D03*
X1482500Y0695240D03*
X1477500Y0695240D03*
X1472500Y0695240D03*
X1465000Y0695240D03*
X1460000Y0695240D03*
X1455000Y0695240D03*
X1450000Y0695240D03*
D83*
X1408000Y0250000D03*
X1442500Y0127500D03*
X1370000Y0127500D03*
X1102000Y0552500D03*
X1080000Y0382500D03*
X1160690Y0786910D03*
D64*
X1133280Y0792500D03*
X1231710Y0792500D03*
D137*
X1222500Y0746020D03*
X1222500Y0723980D03*
X1200000Y0723980D03*
X1200000Y0746020D03*
X1177500Y0746020D03*
X1177500Y0723980D03*
X1155000Y0723980D03*
X1155000Y0746020D03*
X1132500Y0746020D03*
X1132500Y0723980D03*
X1245000Y0723980D03*
X1245000Y0746020D03*
X1285000Y0728520D03*
X1285000Y0706480D03*
X1457500Y0706480D03*
X1457500Y0728520D03*
X1480000Y0728520D03*
X1480000Y0706480D03*
X1485000Y0528520D03*
X1485000Y0506480D03*
D14*
X1501260Y0510120D03*
X1505000Y0510120D03*
X1508740Y0510120D03*
X1508740Y0499880D03*
X1501260Y0499880D03*
X1498740Y0712380D03*
X1495000Y0712380D03*
X1491260Y0712380D03*
X1491260Y0722620D03*
X1498740Y0722620D03*
X1441240Y0722620D03*
X1433760Y0722620D03*
X1433760Y0712380D03*
X1437500Y0712380D03*
X1441240Y0712380D03*
X1303740Y0712380D03*
X1300000Y0712380D03*
X1296260Y0712380D03*
X1296260Y0722620D03*
X1303740Y0722620D03*
X1268740Y0729880D03*
X1265000Y0729880D03*
X1261260Y0729880D03*
X1261260Y0740120D03*
X1268740Y0740120D03*
X1116240Y0740120D03*
X1108760Y0740120D03*
X1108760Y0729880D03*
X1112500Y0729880D03*
X1116240Y0729880D03*
D115*
X1178480Y0656490D03*
X1181040Y0656490D03*
X1183600Y0656490D03*
X1186160Y0656490D03*
X1188720Y0656490D03*
X1191280Y0656490D03*
X1193840Y0656490D03*
X1196390Y0656490D03*
X1198950Y0656490D03*
X1201510Y0656490D03*
X1201510Y0633510D03*
X1198950Y0633510D03*
X1196390Y0633510D03*
X1193840Y0633510D03*
X1191280Y0633510D03*
X1188720Y0633510D03*
X1186160Y0633510D03*
X1183600Y0633510D03*
X1181040Y0633510D03*
X1178480Y0633510D03*
X1245980Y0306490D03*
X1248540Y0306490D03*
X1251100Y0306490D03*
X1253660Y0306490D03*
X1256220Y0306490D03*
X1258780Y0306490D03*
X1261340Y0306490D03*
X1263890Y0306490D03*
X1266450Y0306490D03*
X1269010Y0306490D03*
X1269010Y0283510D03*
X1266450Y0283510D03*
X1263890Y0283510D03*
X1261340Y0283510D03*
X1258780Y0283510D03*
X1256220Y0283510D03*
X1253660Y0283510D03*
X1251100Y0283510D03*
X1248540Y0283510D03*
X1245980Y0283510D03*
D60*
X1123980Y0566040D03*
X1123980Y0568600D03*
X1123980Y0571160D03*
X1123980Y0573720D03*
X1123980Y0576280D03*
X1123980Y0578840D03*
X1123980Y0581400D03*
X1123980Y0583960D03*
X1123980Y0593540D03*
X1123980Y0596100D03*
X1123980Y0598660D03*
X1123980Y0601220D03*
X1123980Y0603780D03*
X1123980Y0606340D03*
X1123980Y0608900D03*
X1123980Y0611460D03*
X1101010Y0611460D03*
X1101010Y0608900D03*
X1101010Y0606340D03*
X1101010Y0603780D03*
X1101010Y0601220D03*
X1101010Y0598660D03*
X1101010Y0596100D03*
X1101010Y0593540D03*
X1101010Y0583960D03*
X1101010Y0581400D03*
X1101010Y0578840D03*
X1101010Y0576280D03*
X1101010Y0573720D03*
X1101010Y0571160D03*
X1101010Y0568600D03*
X1101010Y0566040D03*
X1366010Y0608480D03*
X1366010Y0611040D03*
X1366010Y0613600D03*
X1366010Y0616160D03*
X1366010Y0618720D03*
X1366010Y0621280D03*
X1366010Y0623840D03*
X1366010Y0626400D03*
X1366010Y0628960D03*
X1366010Y0631520D03*
X1388980Y0631520D03*
X1388980Y0628960D03*
X1388980Y0626400D03*
X1388980Y0623840D03*
X1388980Y0621280D03*
X1388980Y0618720D03*
X1388980Y0616160D03*
X1388980Y0613600D03*
X1388980Y0611040D03*
X1388980Y0608480D03*
D34*
X1432500Y0775000D03*
X1285000Y0775000D03*
X1420000Y0430000D03*
X1420000Y0370000D03*
X1420000Y0310000D03*
X1420000Y0250000D03*
X1420000Y0180000D03*
X1170000Y0355000D03*
X1137500Y0355000D03*
D31*
X1137500Y0345000D03*
X1137500Y0335000D03*
X1170000Y0335000D03*
X1170000Y0345000D03*
X1420000Y0350000D03*
X1420000Y0360000D03*
X1420000Y0410000D03*
X1420000Y0420000D03*
X1420000Y0300000D03*
X1420000Y0290000D03*
X1420000Y0240000D03*
X1420000Y0230000D03*
X1420000Y0220000D03*
X1420000Y0170000D03*
X1420000Y0160000D03*
X1442500Y0775000D03*
X1452500Y0775000D03*
X1462500Y0775000D03*
X1472500Y0775000D03*
X1295000Y0775000D03*
D126*
X1300500Y0809000D03*
X1279500Y0809000D03*
X1427000Y0809000D03*
X1478000Y0809000D03*
X1454000Y0435500D03*
X1454000Y0404500D03*
X1454000Y0375500D03*
X1454000Y0344500D03*
X1454000Y0315500D03*
X1454000Y0284500D03*
X1454000Y0255500D03*
X1454000Y0214500D03*
X1454000Y0185500D03*
X1454000Y0154500D03*
X1167000Y0319000D03*
X1134500Y0319000D03*
X1134500Y0371000D03*
X1167000Y0371000D03*
D40*
X1260000Y0597500D03*
X1270000Y0597500D03*
X1280000Y0597500D03*
X1290000Y0597500D03*
X1300000Y0597500D03*
X1310000Y0597500D03*
X1310000Y0607500D03*
X1300000Y0607500D03*
X1290000Y0607500D03*
X1280000Y0607500D03*
X1270000Y0607500D03*
X1260000Y0607500D03*
X1510000Y0635000D03*
X1510000Y0645000D03*
X1510000Y0655000D03*
X1510000Y0665000D03*
X1510000Y0675000D03*
X1520000Y0675000D03*
X1520000Y0665000D03*
X1520000Y0655000D03*
X1520000Y0645000D03*
X1520000Y0635000D03*
X1520000Y0685000D03*
X1520000Y0695000D03*
X1520000Y0705000D03*
X1510000Y0705000D03*
X1510000Y0695000D03*
X1510000Y0685000D03*
D73*
X1387500Y0786590D02*
X1387500Y0798410D01*
X1350000Y0798410D02*
X1350000Y0786590D01*
D72*
X1280000Y0547500D03*
X1280000Y0387500D03*
D84*
X1317500Y0710220D03*
X1317500Y0724780D03*
X1290000Y0737720D03*
X1290000Y0752280D03*
X1280000Y0752280D03*
X1280000Y0737720D03*
X1250000Y0755220D03*
X1250000Y0769780D03*
X1240000Y0769780D03*
X1240000Y0755220D03*
X1227500Y0755220D03*
X1227500Y0769780D03*
X1217500Y0769780D03*
X1217500Y0755220D03*
X1205000Y0755220D03*
X1205000Y0769780D03*
X1195000Y0769780D03*
X1195000Y0755220D03*
X1182500Y0755220D03*
X1182500Y0769780D03*
X1172500Y0769780D03*
X1172500Y0755220D03*
X1160000Y0755220D03*
X1160000Y0769780D03*
X1150000Y0769780D03*
X1150000Y0755220D03*
X1137500Y0755220D03*
X1137500Y0769780D03*
X1127500Y0769780D03*
X1127500Y0755220D03*
X1415000Y0744780D03*
X1425000Y0744780D03*
X1425000Y0730220D03*
X1415000Y0730220D03*
X1452500Y0737720D03*
X1452500Y0752280D03*
X1462500Y0752280D03*
X1462500Y0737720D03*
X1475000Y0737720D03*
X1475000Y0752280D03*
X1485000Y0752280D03*
X1485000Y0737720D03*
D102*
X1118210Y0627950D03*
X1118210Y0625980D03*
X1118210Y0624020D03*
X1118210Y0622050D03*
X1106790Y0622050D03*
X1106790Y0624020D03*
X1106790Y0625980D03*
X1106790Y0627950D03*
D47*
X1374880Y0303740D03*
X1374880Y0296260D03*
X1385080Y0296260D03*
X1385080Y0300000D03*
X1385080Y0303740D03*
X1424920Y0523760D03*
X1424920Y0527500D03*
X1424920Y0531240D03*
X1435110Y0531240D03*
X1435110Y0523760D03*
D142*
X1437500Y0102500D03*
X1410000Y0102500D03*
X1365000Y0102500D03*
X1482500Y0102500D03*
D39*
X1368520Y0547320D03*
X1368520Y0549880D03*
X1368520Y0552440D03*
X1368520Y0555000D03*
X1368520Y0557560D03*
X1368520Y0560120D03*
X1368520Y0562680D03*
X1346470Y0562680D03*
X1346470Y0560120D03*
X1346470Y0557560D03*
X1346470Y0555000D03*
X1346470Y0552440D03*
X1346470Y0549880D03*
X1346470Y0547320D03*
D85*
X1357500Y0555000D03*
D56*
X1384030Y0530000D03*
X1400960Y0530000D03*
D92*
X1392500Y0543980D03*
X1392500Y0566020D03*
D58*
X1297500Y0353500D03*
X1297500Y0343500D03*
X1287500Y0343500D03*
X1287500Y0353500D03*
X1277500Y0353500D03*
X1277500Y0343500D03*
X1267500Y0343500D03*
X1267500Y0353500D03*
X1257500Y0353500D03*
X1257500Y0343500D03*
X1247500Y0343500D03*
X1247500Y0353500D03*
D37*
X1372200Y0177500D03*
X1372200Y0172500D03*
X1372200Y0167500D03*
X1372200Y0162500D03*
X1392800Y0162500D03*
X1392800Y0167500D03*
X1392800Y0172500D03*
X1392800Y0177500D03*
D43*
X1226240Y0289920D03*
X1222500Y0289920D03*
X1218760Y0289920D03*
X1218760Y0300120D03*
X1226240Y0300120D03*
D55*
X1228500Y0315000D03*
X1222500Y0315000D03*
X1216500Y0315000D03*
X1482000Y0762500D03*
X1488000Y0762500D03*
D71*
X1394780Y0445000D03*
X1380210Y0445000D03*
X1400210Y0387500D03*
X1414780Y0387500D03*
X1387280Y0280000D03*
X1372710Y0280000D03*
X1380210Y0247500D03*
X1394780Y0247500D03*
X1394780Y0222500D03*
X1380210Y0222500D03*
X1204780Y0317500D03*
X1190210Y0317500D03*
D111*
X1377500Y0577000D03*
X1377500Y0583000D03*
D10*
X1377500Y0580000D03*
D20*
X1485000Y0762500D03*
D133*
X1367500Y0737800D03*
X1362500Y0737800D03*
X1357500Y0737800D03*
X1352500Y0737800D03*
X1352500Y0717200D03*
X1357500Y0717200D03*
X1362500Y0717200D03*
X1367500Y0717200D03*
D74*
X1385000Y0714510D03*
X1385000Y0740490D03*
D101*
X1165650Y0609720D03*
X1165650Y0606570D03*
X1165650Y0603430D03*
X1165650Y0600280D03*
X1165650Y0594720D03*
X1165650Y0591570D03*
X1165650Y0588430D03*
X1165650Y0585280D03*
X1165650Y0579720D03*
X1165650Y0576570D03*
X1165650Y0573430D03*
X1165650Y0570280D03*
X1165650Y0564720D03*
X1165650Y0561570D03*
X1165650Y0558430D03*
X1165650Y0555280D03*
X1159350Y0555280D03*
X1159350Y0558430D03*
X1159350Y0561570D03*
X1159350Y0564720D03*
X1159350Y0570280D03*
X1159350Y0573430D03*
X1159350Y0576570D03*
X1159350Y0579720D03*
X1159350Y0585280D03*
X1159350Y0588430D03*
X1159350Y0591570D03*
X1159350Y0594720D03*
X1159350Y0600280D03*
X1159350Y0603430D03*
X1159350Y0606570D03*
X1159350Y0609720D03*
D81*
X1430000Y0508000D02*
X1430000Y0502000D01*
X1440000Y0502000D02*
X1440000Y0508000D01*
X1450000Y0508000D02*
X1450000Y0502000D01*
X1455000Y0617000D02*
X1455000Y0623000D01*
X1465000Y0623000D02*
X1465000Y0617000D01*
X1475000Y0617000D02*
X1475000Y0623000D01*
D81*
X1492500Y0630000D03*
X1472500Y0647500D03*
X1442500Y0675000D03*
X1437500Y0620000D03*
X1437500Y0577500D03*
X1492500Y0497500D03*
X1517500Y0480000D03*
X1492500Y0425000D03*
X1495000Y0392500D03*
X1470000Y0392500D03*
X1455000Y0360000D03*
X1372500Y0485000D03*
X1372500Y0530000D03*
X1402500Y0675000D03*
X1402710Y0737500D03*
X1446500Y0737720D03*
X1469000Y0737500D03*
X1505000Y0600000D03*
X1320000Y0747500D03*
X1262500Y0690000D03*
X1517500Y0150000D03*
X1505000Y0095000D03*
X1492500Y0080000D03*
D44*
X1372500Y0310000D03*
X1375000Y0422500D03*
X1300000Y0561000D03*
X1260000Y0522500D03*
X1260000Y0496650D03*
X1215000Y0527500D03*
X1215000Y0561000D03*
X1215000Y0422500D03*
X1247500Y0422500D03*
X1235000Y0755000D03*
X1212500Y0755000D03*
X1190000Y0755000D03*
X1167500Y0755000D03*
X1145000Y0755000D03*
X1122500Y0755000D03*
X1272500Y0755000D03*
X1482500Y0495000D03*
X1515000Y0620000D03*
X1075000Y0855000D02*
G75*
%LPD*%
D119*
X1229760Y0960000D03*
X1229760Y0965000D03*
X1229760Y0970000D03*
X1229760Y0975000D03*
X1229760Y0980000D03*
X1229760Y0985000D03*
X1229760Y0990000D03*
X1250240Y0990000D03*
X1250240Y0985000D03*
X1250240Y0980000D03*
X1250240Y0975000D03*
X1250240Y0970000D03*
X1250240Y0965000D03*
X1250240Y0960000D03*
X1250240Y1007500D03*
X1250240Y1012500D03*
X1250240Y1017500D03*
X1250240Y1022500D03*
X1229760Y1022500D03*
X1229760Y1017500D03*
X1229760Y1012500D03*
X1229760Y1007500D03*
X1180240Y1007500D03*
X1180240Y1012500D03*
X1180240Y1017500D03*
X1180240Y1022500D03*
X1159760Y1022500D03*
X1159760Y1017500D03*
X1159760Y1012500D03*
X1159760Y1007500D03*
D47*
X1204880Y1011260D03*
X1215080Y1011260D03*
X1215080Y1015000D03*
X1215080Y1018740D03*
X1204880Y1018740D03*
X1264920Y1018740D03*
X1264920Y1015000D03*
X1264920Y1011260D03*
X1275120Y1011260D03*
X1275120Y1018740D03*
D49*
X1273350Y0990000D03*
X1266650Y0990000D03*
X1266650Y0970000D03*
X1273350Y0970000D03*
X1273350Y0960000D03*
X1266650Y0960000D03*
X1213350Y0960000D03*
X1206650Y0960000D03*
X1206650Y0970000D03*
X1213350Y0970000D03*
X1213350Y0990000D03*
X1206650Y0990000D03*
X1153350Y0990000D03*
X1146650Y0990000D03*
X1146650Y0980000D03*
X1153350Y0980000D03*
X1153350Y0970000D03*
X1146650Y0970000D03*
X1146650Y0960000D03*
X1153350Y0960000D03*
X1321650Y0922500D03*
X1328350Y0922500D03*
X1364150Y0922500D03*
X1370850Y0922500D03*
X1406650Y0922500D03*
X1413350Y0922500D03*
X1449150Y0922500D03*
X1455850Y0922500D03*
X1491650Y0922500D03*
X1498350Y0922500D03*
X1534150Y0922500D03*
X1540850Y0922500D03*
D23*
X1285000Y1011650D03*
X1285000Y1018350D03*
X1273350Y1030000D03*
X1266650Y1030000D03*
X1213350Y1030000D03*
X1206650Y1030000D03*
X1195000Y1018350D03*
X1195000Y1011650D03*
X1206650Y1000000D03*
X1213350Y1000000D03*
X1213350Y0980000D03*
X1206650Y0980000D03*
X1266650Y0980000D03*
X1273350Y0980000D03*
X1273350Y1000000D03*
X1266650Y1000000D03*
X1266650Y0950000D03*
X1273350Y0950000D03*
X1270000Y0933350D03*
X1270000Y0926650D03*
X1213350Y0950000D03*
X1206650Y0950000D03*
X1210000Y0933350D03*
X1210000Y0926650D03*
X1180000Y0926650D03*
X1170000Y0926650D03*
X1170000Y0933350D03*
X1180000Y0933350D03*
D34*
X1160000Y0910000D03*
X1230000Y0910000D03*
X1295000Y0910000D03*
X1347500Y0910000D03*
X1400000Y0910000D03*
X1452500Y0910000D03*
D31*
X1442500Y0910000D03*
X1390000Y0910000D03*
X1337500Y0910000D03*
X1285000Y0910000D03*
X1275000Y0910000D03*
X1220000Y0910000D03*
X1210000Y0910000D03*
X1150000Y0910000D03*
X1140000Y0910000D03*
X1130000Y0910000D03*
X1120000Y0910000D03*
D126*
X1114500Y0876000D03*
X1165500Y0876000D03*
X1204500Y0876000D03*
X1235500Y0876000D03*
X1269500Y0876000D03*
X1300500Y0876000D03*
X1332000Y0876000D03*
X1353000Y0876000D03*
X1384500Y0876000D03*
X1405500Y0876000D03*
X1437000Y0876000D03*
X1458000Y0876000D03*
D84*
X1280000Y0922720D03*
X1260000Y0922720D03*
X1260000Y0937280D03*
X1280000Y0937280D03*
X1220000Y0937280D03*
X1200000Y0937280D03*
X1190000Y0937280D03*
X1160000Y0937280D03*
X1160000Y0922720D03*
X1190000Y0922720D03*
X1200000Y0922720D03*
X1220000Y0922720D03*
X1095000Y0957720D03*
X1085000Y0957720D03*
X1085000Y0972280D03*
X1095000Y0972280D03*
X1095000Y0987720D03*
X1085000Y0987720D03*
X1085000Y1002280D03*
X1095000Y1002280D03*
D120*
X1107430Y1005000D02*
X1112570Y1005000D01*
X1127430Y1005000D02*
X1132570Y1005000D01*
X1132570Y0995000D02*
X1127430Y0995000D01*
X1112570Y0995000D02*
X1107430Y0995000D01*
X1107430Y0985000D02*
X1112570Y0985000D01*
X1127430Y0985000D02*
X1132570Y0985000D01*
X1132570Y0975000D02*
X1127430Y0975000D01*
X1112570Y0975000D02*
X1107430Y0975000D01*
X1107430Y0955000D02*
X1112570Y0955000D01*
X1127430Y0955000D02*
X1132570Y0955000D01*
D71*
X1127280Y0945000D03*
X1112720Y0945000D03*
X1112720Y1015000D03*
X1127280Y1015000D03*
D42*
X1160870Y0990000D03*
X1169130Y0990000D03*
X1169130Y0980000D03*
X1160870Y0980000D03*
X1160870Y0970000D03*
X1169130Y0970000D03*
X1169130Y0960000D03*
X1160870Y0960000D03*
X1320870Y0932500D03*
X1329130Y0932500D03*
X1363370Y0932500D03*
X1371630Y0932500D03*
X1405870Y0932500D03*
X1414130Y0932500D03*
X1448370Y0932500D03*
X1456630Y0932500D03*
X1490870Y0932500D03*
X1499130Y0932500D03*
X1533370Y0932500D03*
X1541630Y0932500D03*
D140*
X1324100Y1022800D03*
X1315000Y1022800D03*
X1305900Y1022800D03*
D13*
X1315000Y1047200D03*
D53*
X1295000Y1040510D03*
X1295000Y1029490D03*
X1335000Y1029490D03*
X1335000Y1040510D03*
D96*
X1360610Y1035390D03*
X1374390Y1035390D03*
X1403110Y1035390D03*
X1416890Y1035390D03*
X1445610Y1035390D03*
X1459390Y1035390D03*
X1488110Y1035390D03*
X1501890Y1035390D03*
X1499390Y0874610D03*
X1485610Y0874610D03*
D124*
X1090000Y0870000D03*
X1090000Y1040000D03*
X1542500Y1040000D03*
X1542500Y0870000D03*
D75*
X1537500Y0970000D03*
X1495000Y0970000D03*
X1452500Y0970000D03*
X1410000Y0970000D03*
X1367500Y0970000D03*
X1325000Y0970000D03*
D123*
X1325000Y0951100D03*
X1367500Y0951100D03*
X1410000Y0951100D03*
X1452500Y0951100D03*
X1495000Y0951100D03*
X1537500Y0951100D03*
X1537500Y0988900D03*
X1495000Y0988900D03*
X1452500Y0988900D03*
X1410000Y0988900D03*
X1367500Y0988900D03*
X1325000Y0988900D03*
D138*
X1282500Y0995000D03*
X1282500Y1005000D03*
X1270000Y1005000D03*
X1262500Y1005000D03*
X1250000Y1002500D03*
X1237500Y1007500D03*
X1240000Y1012500D03*
X1240000Y1022500D03*
X1230000Y1030000D03*
X1207500Y1040000D03*
X1170000Y1022500D03*
X1160000Y1030000D03*
X1120000Y1030000D03*
X1090000Y1017500D03*
X1080000Y1022500D03*
X1090000Y1007500D03*
X1090000Y0997500D03*
X1095000Y0980000D03*
X1099500Y0972500D03*
X1116500Y0968500D03*
X1120000Y0975000D03*
X1140000Y0975000D03*
X1150000Y0975000D03*
X1157500Y0965000D03*
X1177500Y0975000D03*
X1182500Y0965000D03*
X1202500Y0975000D03*
X1220000Y0970000D03*
X1242500Y0970000D03*
X1257500Y0965000D03*
X1262500Y0955000D03*
X1282500Y0965000D03*
X1277500Y0975000D03*
X1257500Y0995000D03*
X1220000Y0995000D03*
X1197500Y0995000D03*
X1210000Y0985000D03*
X1210000Y1005000D03*
X1217500Y1007500D03*
X1145000Y1000000D03*
X1145000Y0950000D03*
X1170000Y0947500D03*
X1177500Y0947500D03*
X1225000Y0922500D03*
X1242500Y0922500D03*
X1285000Y0922500D03*
X1195000Y0917500D03*
X1180000Y0865000D03*
X1292500Y1015000D03*
X1285000Y1040000D03*
X1275000Y1040000D03*
D146*
X1335000Y1020000D03*
X1335000Y0990000D03*
D72*
X1460000Y1005000D03*
D15*
X1395000Y0960000D03*
X1347500Y0970000D03*
X1470000Y0862500D03*
D151*
X1270000Y0915000D03*
M02*
