G75*
%MOIN*%
%OFA0B0*%
%FSLAX25Y25*%
%IPPOS*%
%LPD*%
%AMOC8*
5,1,8,0,0,1.08239X$1,22.5*
%
%ADD10C,0.00300*%
D10*
X0011750Y0016367D02*
X0012367Y0015750D01*
X0011750Y0016367D02*
X0011750Y0017602D01*
X0012367Y0018219D01*
X0012984Y0018219D01*
X0013602Y0017602D01*
X0013602Y0016367D01*
X0014219Y0015750D01*
X0014836Y0015750D01*
X0015453Y0016367D01*
X0015453Y0017602D01*
X0014836Y0018219D01*
X0015453Y0019433D02*
X0015453Y0021285D01*
X0014836Y0021902D01*
X0012367Y0021902D01*
X0011750Y0021285D01*
X0011750Y0019433D01*
X0015453Y0019433D01*
X0014219Y0023116D02*
X0011750Y0023116D01*
X0013602Y0023116D02*
X0013602Y0025585D01*
X0014219Y0025585D02*
X0011750Y0025585D01*
X0014219Y0025585D02*
X0015453Y0024351D01*
X0014219Y0023116D01*
X0021750Y0023116D02*
X0021750Y0025585D01*
X0021750Y0023116D02*
X0025453Y0023116D01*
X0024836Y0021902D02*
X0025453Y0021285D01*
X0025453Y0020050D01*
X0024836Y0019433D01*
X0022367Y0019433D01*
X0021750Y0020050D01*
X0021750Y0021285D01*
X0022367Y0021902D01*
X0022367Y0018219D02*
X0021750Y0017602D01*
X0021750Y0016367D01*
X0022367Y0015750D01*
X0023602Y0016367D02*
X0023602Y0017602D01*
X0022984Y0018219D01*
X0022367Y0018219D01*
X0023602Y0016367D02*
X0024219Y0015750D01*
X0024836Y0015750D01*
X0025453Y0016367D01*
X0025453Y0017602D01*
X0024836Y0018219D01*
X0031750Y0017602D02*
X0031750Y0016367D01*
X0032367Y0015750D01*
X0034836Y0015750D01*
X0035453Y0016367D01*
X0035453Y0017602D01*
X0034836Y0018219D01*
X0033602Y0018219D02*
X0033602Y0016984D01*
X0033602Y0018219D02*
X0032367Y0018219D01*
X0031750Y0017602D01*
X0031750Y0019433D02*
X0035453Y0019433D01*
X0031750Y0021902D01*
X0035453Y0021902D01*
X0035453Y0023116D02*
X0035453Y0024968D01*
X0034836Y0025585D01*
X0032367Y0025585D01*
X0031750Y0024968D01*
X0031750Y0023116D01*
X0035453Y0023116D01*
X0041750Y0023733D02*
X0041750Y0024968D01*
X0042367Y0025585D01*
X0041750Y0023733D02*
X0042367Y0023116D01*
X0044836Y0023116D01*
X0045453Y0023733D01*
X0045453Y0024968D01*
X0044836Y0025585D01*
X0044836Y0021902D02*
X0045453Y0021285D01*
X0045453Y0020050D01*
X0044836Y0019433D01*
X0042367Y0019433D01*
X0041750Y0020050D01*
X0041750Y0021285D01*
X0042367Y0021902D01*
X0042984Y0018219D02*
X0045453Y0018219D01*
X0042984Y0018219D02*
X0041750Y0016984D01*
X0042984Y0015750D01*
X0045453Y0015750D01*
M02*
