G75*
%MOIN*%
%OFA0B0*%
%FSLAX25Y25*%
%IPPOS*%
%LPD*%
%AMOC8*
5,1,8,0,0,1.08239X$1,22.5*
%
%ADD10C,0.00500*%
%ADD11C,0.00600*%
%ADD12C,0.00100*%
D10*
X0009072Y0016550D02*
X0009823Y0016550D01*
X0010574Y0017301D01*
X0010574Y0021054D01*
X0011324Y0021054D02*
X0009823Y0021054D01*
X0012926Y0021054D02*
X0015177Y0021054D01*
X0015928Y0020303D01*
X0015928Y0018802D01*
X0015177Y0018051D01*
X0012926Y0018051D01*
X0012926Y0016550D02*
X0012926Y0021054D01*
X0017530Y0019553D02*
X0019031Y0021054D01*
X0019031Y0016550D01*
X0017530Y0016550D02*
X0020532Y0016550D01*
X0025222Y0024966D02*
X0031521Y0024966D01*
X0031521Y0036777D01*
X0025222Y0036777D01*
X0025222Y0024966D01*
X0019348Y0028912D02*
X0017447Y0028912D01*
X0017447Y0029863D01*
X0017764Y0030180D01*
X0018398Y0030180D01*
X0018715Y0029863D01*
X0018715Y0028912D01*
X0018715Y0029546D02*
X0019348Y0030180D01*
X0019348Y0031122D02*
X0019348Y0032389D01*
X0019348Y0031756D02*
X0017447Y0031756D01*
X0018081Y0031122D01*
X0026412Y0039424D02*
X0026729Y0039107D01*
X0027363Y0039107D01*
X0027680Y0039424D01*
X0027680Y0040692D02*
X0027363Y0041009D01*
X0026729Y0041009D01*
X0026412Y0040692D01*
X0026412Y0039424D01*
X0028622Y0039107D02*
X0029889Y0039107D01*
X0029256Y0039107D02*
X0029256Y0041009D01*
X0028622Y0040375D01*
X0045006Y0032072D02*
X0045006Y0031439D01*
X0045323Y0031122D01*
X0045006Y0032072D02*
X0045323Y0032389D01*
X0045640Y0032389D01*
X0046907Y0031122D01*
X0046907Y0032389D01*
X0046907Y0030180D02*
X0046274Y0029546D01*
X0046274Y0029863D02*
X0046274Y0028912D01*
X0046907Y0028912D02*
X0045006Y0028912D01*
X0045006Y0029863D01*
X0045323Y0030180D01*
X0045957Y0030180D01*
X0046274Y0029863D01*
X0009072Y0016550D02*
X0008322Y0017301D01*
D11*
X0008372Y0006600D02*
X0010872Y0004100D01*
X0015872Y0004100D01*
X0018372Y0006600D01*
X0020872Y0004100D01*
X0025872Y0004100D01*
X0028372Y0006600D01*
X0028372Y0011600D01*
X0025872Y0014100D01*
X0020872Y0014100D01*
X0018372Y0011600D01*
X0018372Y0006600D01*
X0018372Y0011600D02*
X0015872Y0014100D01*
X0010872Y0014100D01*
X0008372Y0011600D01*
X0008372Y0006600D01*
X0028372Y0006600D02*
X0030872Y0004100D01*
X0035872Y0004100D01*
X0038372Y0006600D01*
X0040872Y0004100D01*
X0045872Y0004100D01*
X0048372Y0006600D01*
X0048372Y0011600D01*
X0045872Y0014100D01*
X0040872Y0014100D01*
X0038372Y0011600D01*
X0038372Y0006600D01*
X0038372Y0011600D02*
X0035872Y0014100D01*
X0030872Y0014100D01*
X0028372Y0011600D01*
D12*
X0029662Y0021448D02*
X0030163Y0021448D01*
X0030413Y0021698D01*
X0030413Y0022949D01*
X0030885Y0022448D02*
X0031386Y0022949D01*
X0031386Y0021448D01*
X0031886Y0021448D02*
X0030885Y0021448D01*
X0029662Y0021448D02*
X0029412Y0021698D01*
X0029412Y0022949D01*
M02*
