G75*
%MOIN*%
%OFA0B0*%
%FSLAX25Y25*%
%IPPOS*%
%LPD*%
%AMOC8*
5,1,8,0,0,1.08239X$1,22.5*
%
%ADD10R,0.04331X0.03937*%
%ADD11C,0.06000*%
%ADD12R,0.03937X0.04331*%
%ADD13R,0.01969X0.01969*%
%ADD14C,0.01200*%
%ADD15C,0.02778*%
D10*
X0025025Y0044257D03*
X0031718Y0044257D03*
D11*
X0033372Y0012100D02*
X0033372Y0006100D01*
X0043372Y0006100D02*
X0043372Y0012100D01*
X0023372Y0012100D02*
X0023372Y0006100D01*
X0013372Y0006100D02*
X0013372Y0012100D01*
D12*
X0014198Y0027525D03*
X0014198Y0034218D03*
X0041757Y0034218D03*
X0041757Y0027525D03*
D13*
X0033096Y0027131D03*
X0033096Y0030872D03*
X0033096Y0034612D03*
X0023647Y0034612D03*
X0023647Y0030872D03*
X0023647Y0027131D03*
D14*
X0003700Y0006200D02*
X0003700Y0055543D01*
X0053043Y0055543D01*
X0053043Y0006200D01*
X0047572Y0006200D01*
X0047572Y0010754D01*
X0047900Y0011083D01*
X0047900Y0033346D01*
X0046846Y0034400D01*
X0045227Y0036018D01*
X0044926Y0036018D01*
X0044926Y0036881D01*
X0044223Y0037583D01*
X0043557Y0037583D01*
X0043557Y0038188D01*
X0041900Y0039846D01*
X0040846Y0040900D01*
X0034678Y0040900D01*
X0034866Y0041009D01*
X0035164Y0041307D01*
X0035374Y0041671D01*
X0035483Y0042078D01*
X0035483Y0043873D01*
X0032102Y0043873D01*
X0032102Y0044642D01*
X0031334Y0044642D01*
X0031334Y0047826D01*
X0029342Y0047826D01*
X0028935Y0047717D01*
X0028570Y0047506D01*
X0028272Y0047208D01*
X0028138Y0046976D01*
X0027688Y0047426D01*
X0022363Y0047426D01*
X0021660Y0046723D01*
X0021660Y0041792D01*
X0022363Y0041089D01*
X0023225Y0041089D01*
X0023225Y0036796D01*
X0022166Y0036796D01*
X0021463Y0036093D01*
X0021463Y0036018D01*
X0017367Y0036018D01*
X0017367Y0036881D01*
X0016664Y0037583D01*
X0011733Y0037583D01*
X0011030Y0036881D01*
X0011030Y0031556D01*
X0011714Y0030872D01*
X0011030Y0030188D01*
X0011030Y0024863D01*
X0011572Y0024321D01*
X0011572Y0015900D01*
X0010993Y0015661D01*
X0009811Y0014479D01*
X0009172Y0012935D01*
X0009172Y0006200D01*
X0003700Y0006200D01*
X0003700Y0006497D02*
X0009172Y0006497D01*
X0009172Y0007696D02*
X0003700Y0007696D01*
X0003700Y0008894D02*
X0009172Y0008894D01*
X0009172Y0010093D02*
X0003700Y0010093D01*
X0003700Y0011291D02*
X0009172Y0011291D01*
X0009172Y0012490D02*
X0003700Y0012490D01*
X0003700Y0013688D02*
X0009483Y0013688D01*
X0010219Y0014887D02*
X0003700Y0014887D01*
X0003700Y0016085D02*
X0011572Y0016085D01*
X0011572Y0017284D02*
X0003700Y0017284D01*
X0003700Y0018482D02*
X0011572Y0018482D01*
X0011572Y0019681D02*
X0003700Y0019681D01*
X0003700Y0020879D02*
X0011572Y0020879D01*
X0011572Y0022078D02*
X0003700Y0022078D01*
X0003700Y0023276D02*
X0011572Y0023276D01*
X0011418Y0024475D02*
X0003700Y0024475D01*
X0003700Y0025673D02*
X0011030Y0025673D01*
X0011030Y0026872D02*
X0003700Y0026872D01*
X0003700Y0028070D02*
X0011030Y0028070D01*
X0011030Y0029269D02*
X0003700Y0029269D01*
X0003700Y0030467D02*
X0011310Y0030467D01*
X0011030Y0031666D02*
X0003700Y0031666D01*
X0003700Y0032864D02*
X0011030Y0032864D01*
X0011030Y0034063D02*
X0003700Y0034063D01*
X0003700Y0035261D02*
X0011030Y0035261D01*
X0011030Y0036460D02*
X0003700Y0036460D01*
X0003700Y0037658D02*
X0023225Y0037658D01*
X0023225Y0038857D02*
X0003700Y0038857D01*
X0003700Y0040055D02*
X0023225Y0040055D01*
X0022198Y0041254D02*
X0003700Y0041254D01*
X0003700Y0042452D02*
X0021660Y0042452D01*
X0021660Y0043651D02*
X0003700Y0043651D01*
X0003700Y0044849D02*
X0021660Y0044849D01*
X0021660Y0046048D02*
X0003700Y0046048D01*
X0003700Y0047246D02*
X0022183Y0047246D01*
X0025025Y0044257D02*
X0025025Y0037600D01*
X0026525Y0039100D01*
X0040100Y0039100D01*
X0041757Y0037443D01*
X0041757Y0034218D01*
X0044482Y0034218D01*
X0046100Y0032600D01*
X0046100Y0011828D01*
X0043372Y0009100D01*
X0047572Y0008894D02*
X0053043Y0008894D01*
X0053043Y0007696D02*
X0047572Y0007696D01*
X0047572Y0006497D02*
X0053043Y0006497D01*
X0053043Y0010093D02*
X0047572Y0010093D01*
X0047900Y0011291D02*
X0053043Y0011291D01*
X0053043Y0012490D02*
X0047900Y0012490D01*
X0047900Y0013688D02*
X0053043Y0013688D01*
X0053043Y0014887D02*
X0047900Y0014887D01*
X0047900Y0016085D02*
X0053043Y0016085D01*
X0053043Y0017284D02*
X0047900Y0017284D01*
X0047900Y0018482D02*
X0053043Y0018482D01*
X0053043Y0019681D02*
X0047900Y0019681D01*
X0047900Y0020879D02*
X0053043Y0020879D01*
X0053043Y0022078D02*
X0047900Y0022078D01*
X0047900Y0023276D02*
X0053043Y0023276D01*
X0053043Y0024475D02*
X0047900Y0024475D01*
X0047900Y0025673D02*
X0053043Y0025673D01*
X0053043Y0026872D02*
X0047900Y0026872D01*
X0047900Y0028070D02*
X0053043Y0028070D01*
X0053043Y0029269D02*
X0047900Y0029269D01*
X0047900Y0030467D02*
X0053043Y0030467D01*
X0053043Y0031666D02*
X0047900Y0031666D01*
X0047900Y0032864D02*
X0053043Y0032864D01*
X0053043Y0034063D02*
X0047183Y0034063D01*
X0045984Y0035261D02*
X0053043Y0035261D01*
X0053043Y0036460D02*
X0044926Y0036460D01*
X0043557Y0037658D02*
X0053043Y0037658D01*
X0053043Y0038857D02*
X0042889Y0038857D01*
X0041690Y0040055D02*
X0053043Y0040055D01*
X0053043Y0041254D02*
X0035111Y0041254D01*
X0035483Y0042452D02*
X0053043Y0042452D01*
X0053043Y0043651D02*
X0035483Y0043651D01*
X0035483Y0044642D02*
X0035483Y0046437D01*
X0035374Y0046844D01*
X0035164Y0047208D01*
X0034866Y0047506D01*
X0034501Y0047717D01*
X0034094Y0047826D01*
X0032102Y0047826D01*
X0032102Y0044642D01*
X0035483Y0044642D01*
X0035483Y0044849D02*
X0053043Y0044849D01*
X0053043Y0046048D02*
X0035483Y0046048D01*
X0035126Y0047246D02*
X0053043Y0047246D01*
X0053043Y0048445D02*
X0003700Y0048445D01*
X0003700Y0049643D02*
X0053043Y0049643D01*
X0053043Y0050842D02*
X0003700Y0050842D01*
X0003700Y0052040D02*
X0053043Y0052040D01*
X0053043Y0053239D02*
X0003700Y0053239D01*
X0003700Y0054437D02*
X0053043Y0054437D01*
X0039008Y0037300D02*
X0038589Y0036881D01*
X0038589Y0031556D01*
X0039273Y0030872D01*
X0038589Y0030188D01*
X0038589Y0028931D01*
X0035376Y0028931D01*
X0035571Y0029270D01*
X0035680Y0029677D01*
X0035680Y0030872D01*
X0035680Y0032067D01*
X0035571Y0032473D01*
X0035416Y0032742D01*
X0035571Y0033010D01*
X0035680Y0033417D01*
X0035680Y0034612D01*
X0035680Y0035807D01*
X0035571Y0036214D01*
X0035361Y0036578D01*
X0035063Y0036876D01*
X0034698Y0037087D01*
X0034291Y0037196D01*
X0033096Y0037196D01*
X0031901Y0037196D01*
X0031494Y0037087D01*
X0031129Y0036876D01*
X0030831Y0036578D01*
X0030621Y0036214D01*
X0030512Y0035807D01*
X0030512Y0034612D01*
X0033096Y0034612D01*
X0033096Y0037196D01*
X0033096Y0034612D01*
X0033096Y0034612D01*
X0033096Y0034612D01*
X0035680Y0034612D01*
X0033096Y0034612D01*
X0033096Y0034612D01*
X0030512Y0034612D01*
X0030512Y0033417D01*
X0030621Y0033010D01*
X0030776Y0032742D01*
X0030621Y0032473D01*
X0030512Y0032067D01*
X0030512Y0030872D01*
X0033096Y0030872D01*
X0033096Y0034612D01*
X0033096Y0034612D01*
X0033096Y0032028D01*
X0033096Y0030872D01*
X0033096Y0030872D01*
X0033096Y0030872D01*
X0035680Y0030872D01*
X0033096Y0030872D01*
X0033096Y0030872D01*
X0030512Y0030872D01*
X0030512Y0029677D01*
X0030621Y0029270D01*
X0030816Y0028931D01*
X0030386Y0028931D01*
X0027854Y0026400D01*
X0026800Y0025346D01*
X0026800Y0022461D01*
X0026405Y0022067D01*
X0026011Y0021115D01*
X0026011Y0020085D01*
X0026405Y0019133D01*
X0027133Y0018405D01*
X0028085Y0018011D01*
X0029115Y0018011D01*
X0030067Y0018405D01*
X0030795Y0019133D01*
X0031189Y0020085D01*
X0031189Y0021115D01*
X0030795Y0022067D01*
X0030400Y0022461D01*
X0030400Y0023854D01*
X0031554Y0025008D01*
X0031615Y0024947D01*
X0034577Y0024947D01*
X0034962Y0025331D01*
X0038589Y0025331D01*
X0038589Y0024863D01*
X0039292Y0024160D01*
X0044223Y0024160D01*
X0044300Y0024237D01*
X0044300Y0016261D01*
X0044207Y0016300D01*
X0042536Y0016300D01*
X0040993Y0015661D01*
X0039811Y0014479D01*
X0039172Y0012935D01*
X0039172Y0006200D01*
X0037972Y0006200D01*
X0037972Y0008700D01*
X0033772Y0008700D01*
X0033772Y0009500D01*
X0037972Y0009500D01*
X0037972Y0012462D01*
X0037858Y0013177D01*
X0037635Y0013866D01*
X0037306Y0014511D01*
X0036880Y0015097D01*
X0036368Y0015609D01*
X0035783Y0016034D01*
X0035137Y0016363D01*
X0034449Y0016587D01*
X0033772Y0016694D01*
X0033772Y0009500D01*
X0032972Y0009500D01*
X0032972Y0016694D01*
X0032294Y0016587D01*
X0031606Y0016363D01*
X0030961Y0016034D01*
X0030375Y0015609D01*
X0029863Y0015097D01*
X0029437Y0014511D01*
X0029109Y0013866D01*
X0028885Y0013177D01*
X0028772Y0012462D01*
X0028772Y0009500D01*
X0032972Y0009500D01*
X0032972Y0008700D01*
X0028772Y0008700D01*
X0028772Y0006200D01*
X0027572Y0006200D01*
X0027572Y0012935D01*
X0026932Y0014479D01*
X0025751Y0015661D01*
X0024207Y0016300D01*
X0022536Y0016300D01*
X0020993Y0015661D01*
X0019811Y0014479D01*
X0019172Y0012935D01*
X0019172Y0006200D01*
X0017572Y0006200D01*
X0017572Y0012935D01*
X0016932Y0014479D01*
X0015751Y0015661D01*
X0015172Y0015900D01*
X0015172Y0024160D01*
X0016664Y0024160D01*
X0017367Y0024863D01*
X0017367Y0025331D01*
X0021782Y0025331D01*
X0022166Y0024947D01*
X0025129Y0024947D01*
X0025831Y0025650D01*
X0025831Y0028613D01*
X0025726Y0028719D01*
X0025912Y0028905D01*
X0026122Y0029270D01*
X0026231Y0029677D01*
X0026231Y0030872D01*
X0026231Y0032067D01*
X0026122Y0032473D01*
X0025912Y0032838D01*
X0025726Y0033025D01*
X0025831Y0033130D01*
X0025831Y0034250D01*
X0026825Y0035244D01*
X0026825Y0036854D01*
X0027271Y0037300D01*
X0039008Y0037300D01*
X0038589Y0036460D02*
X0035429Y0036460D01*
X0035680Y0035261D02*
X0038589Y0035261D01*
X0038589Y0034063D02*
X0035680Y0034063D01*
X0035487Y0032864D02*
X0038589Y0032864D01*
X0038589Y0031666D02*
X0035680Y0031666D01*
X0035680Y0030467D02*
X0038869Y0030467D01*
X0038589Y0029269D02*
X0035571Y0029269D01*
X0033096Y0027131D02*
X0031131Y0027131D01*
X0028600Y0024600D01*
X0028600Y0020600D01*
X0030144Y0018482D02*
X0044300Y0018482D01*
X0044300Y0019681D02*
X0031021Y0019681D01*
X0031189Y0020879D02*
X0044300Y0020879D01*
X0044300Y0022078D02*
X0030784Y0022078D01*
X0030400Y0023276D02*
X0044300Y0023276D01*
X0041364Y0027131D02*
X0041757Y0027525D01*
X0041364Y0027131D02*
X0033096Y0027131D01*
X0030621Y0029269D02*
X0026122Y0029269D01*
X0026231Y0030467D02*
X0030512Y0030467D01*
X0030512Y0031666D02*
X0026231Y0031666D01*
X0026231Y0030872D02*
X0023647Y0030872D01*
X0023647Y0030872D01*
X0021063Y0030872D01*
X0021063Y0032067D01*
X0021157Y0032418D01*
X0017367Y0032418D01*
X0017367Y0031556D01*
X0016683Y0030872D01*
X0017367Y0030188D01*
X0017367Y0028931D01*
X0021367Y0028931D01*
X0021172Y0029270D01*
X0021063Y0029677D01*
X0021063Y0030872D01*
X0023647Y0030872D01*
X0023647Y0030872D01*
X0026231Y0030872D01*
X0025886Y0032864D02*
X0030705Y0032864D01*
X0030512Y0034063D02*
X0025831Y0034063D01*
X0026825Y0035261D02*
X0030512Y0035261D01*
X0030763Y0036460D02*
X0026825Y0036460D01*
X0025025Y0035990D02*
X0023647Y0034612D01*
X0023254Y0034218D01*
X0014198Y0034218D01*
X0017367Y0036460D02*
X0021830Y0036460D01*
X0025025Y0035990D02*
X0025025Y0037600D01*
X0021063Y0031666D02*
X0017367Y0031666D01*
X0017087Y0030467D02*
X0021063Y0030467D01*
X0021173Y0029269D02*
X0017367Y0029269D01*
X0014592Y0027131D02*
X0014198Y0027525D01*
X0013372Y0026698D01*
X0013372Y0009100D01*
X0017572Y0008894D02*
X0019172Y0008894D01*
X0019172Y0007696D02*
X0017572Y0007696D01*
X0017572Y0006497D02*
X0019172Y0006497D01*
X0019172Y0010093D02*
X0017572Y0010093D01*
X0017572Y0011291D02*
X0019172Y0011291D01*
X0019172Y0012490D02*
X0017572Y0012490D01*
X0017260Y0013688D02*
X0019483Y0013688D01*
X0020219Y0014887D02*
X0016525Y0014887D01*
X0015172Y0016085D02*
X0022017Y0016085D01*
X0024726Y0016085D02*
X0031061Y0016085D01*
X0029710Y0014887D02*
X0026525Y0014887D01*
X0027260Y0013688D02*
X0029051Y0013688D01*
X0028776Y0012490D02*
X0027572Y0012490D01*
X0027572Y0011291D02*
X0028772Y0011291D01*
X0028772Y0010093D02*
X0027572Y0010093D01*
X0027572Y0008894D02*
X0032972Y0008894D01*
X0033772Y0008894D02*
X0039172Y0008894D01*
X0039172Y0007696D02*
X0037972Y0007696D01*
X0037972Y0006497D02*
X0039172Y0006497D01*
X0039172Y0010093D02*
X0037972Y0010093D01*
X0037972Y0011291D02*
X0039172Y0011291D01*
X0039172Y0012490D02*
X0037967Y0012490D01*
X0037692Y0013688D02*
X0039483Y0013688D01*
X0040219Y0014887D02*
X0037033Y0014887D01*
X0035683Y0016085D02*
X0042017Y0016085D01*
X0044300Y0017284D02*
X0015172Y0017284D01*
X0015172Y0018482D02*
X0027056Y0018482D01*
X0026179Y0019681D02*
X0015172Y0019681D01*
X0015172Y0020879D02*
X0026011Y0020879D01*
X0026416Y0022078D02*
X0015172Y0022078D01*
X0015172Y0023276D02*
X0026800Y0023276D01*
X0026800Y0024475D02*
X0016979Y0024475D01*
X0014592Y0027131D02*
X0023647Y0027131D01*
X0025831Y0026872D02*
X0028326Y0026872D01*
X0029525Y0028070D02*
X0025831Y0028070D01*
X0025831Y0025673D02*
X0027128Y0025673D01*
X0031020Y0024475D02*
X0038977Y0024475D01*
X0033096Y0031666D02*
X0033096Y0031666D01*
X0033096Y0032864D02*
X0033096Y0032864D01*
X0033096Y0034063D02*
X0033096Y0034063D01*
X0033096Y0035261D02*
X0033096Y0035261D01*
X0033096Y0036460D02*
X0033096Y0036460D01*
X0032102Y0044849D02*
X0031334Y0044849D01*
X0031334Y0046048D02*
X0032102Y0046048D01*
X0032102Y0047246D02*
X0031334Y0047246D01*
X0028310Y0047246D02*
X0027867Y0047246D01*
X0032972Y0016085D02*
X0033772Y0016085D01*
X0033772Y0014887D02*
X0032972Y0014887D01*
X0032972Y0013688D02*
X0033772Y0013688D01*
X0033772Y0012490D02*
X0032972Y0012490D01*
X0032972Y0011291D02*
X0033772Y0011291D01*
X0033772Y0010093D02*
X0032972Y0010093D01*
X0028772Y0007696D02*
X0027572Y0007696D01*
X0027572Y0006497D02*
X0028772Y0006497D01*
D15*
X0028600Y0020600D03*
X0028372Y0030872D03*
M02*
