G75*
%MOIN*%
%OFA0B0*%
%FSLAX24Y24*%
%IPPOS*%
%LPD*%
%AMOC8*
5,1,8,0,0,1.08239X$1,22.5*
%
%ADD10C,0.0030*%
%ADD11C,0.0060*%
%ADD12C,0.0120*%
%ADD13C,0.0080*%
%ADD14C,0.0050*%
D10*
X008846Y055775D02*
X008798Y055823D01*
X008798Y055920D01*
X008846Y055968D01*
X008846Y056069D02*
X008798Y056118D01*
X008798Y056215D01*
X008846Y056263D01*
X008943Y056263D01*
X008991Y056215D01*
X008991Y056166D01*
X008943Y056069D01*
X009088Y056069D01*
X009088Y056263D01*
X009040Y056364D02*
X009088Y056412D01*
X009088Y056509D01*
X009040Y056558D01*
X008846Y056364D01*
X008798Y056412D01*
X008798Y056509D01*
X008846Y056558D01*
X009040Y056558D01*
X009040Y056364D02*
X008846Y056364D01*
X009040Y055968D02*
X009088Y055920D01*
X009088Y055823D01*
X009040Y055775D01*
X008846Y055775D01*
X008846Y057275D02*
X008798Y057323D01*
X008798Y057420D01*
X008846Y057468D01*
X008943Y057569D02*
X008943Y057763D01*
X008991Y057864D02*
X008943Y057912D01*
X008943Y058058D01*
X008846Y058058D02*
X009040Y058058D01*
X009088Y058009D01*
X009088Y057912D01*
X009040Y057864D01*
X008991Y057864D01*
X008846Y057864D02*
X008798Y057912D01*
X008798Y058009D01*
X008846Y058058D01*
X008798Y057715D02*
X009088Y057715D01*
X008943Y057569D01*
X009040Y057468D02*
X009088Y057420D01*
X009088Y057323D01*
X009040Y057275D01*
X008846Y057275D01*
X008846Y058775D02*
X008798Y058823D01*
X008798Y058920D01*
X008846Y058968D01*
X008943Y059069D02*
X008943Y059263D01*
X009040Y059364D02*
X009088Y059412D01*
X009088Y059509D01*
X009040Y059558D01*
X008991Y059558D01*
X008798Y059364D01*
X008798Y059558D01*
X008798Y059215D02*
X009088Y059215D01*
X008943Y059069D01*
X009040Y058968D02*
X009088Y058920D01*
X009088Y058823D01*
X009040Y058775D01*
X008846Y058775D01*
X008846Y060275D02*
X008798Y060323D01*
X008798Y060420D01*
X008846Y060468D01*
X008943Y060569D02*
X008943Y060763D01*
X008991Y060864D02*
X009088Y060961D01*
X008798Y060961D01*
X008798Y060864D02*
X008798Y061058D01*
X008798Y060715D02*
X009088Y060715D01*
X008943Y060569D01*
X009040Y060468D02*
X009088Y060420D01*
X009088Y060323D01*
X009040Y060275D01*
X008846Y060275D01*
X008826Y071845D02*
X008923Y071845D01*
X008971Y071893D01*
X009072Y071845D02*
X009169Y071942D01*
X009120Y071942D02*
X009266Y071942D01*
X009266Y071845D02*
X009266Y072135D01*
X009120Y072135D01*
X009072Y072087D01*
X009072Y071990D01*
X009120Y071942D01*
X008971Y072087D02*
X008923Y072135D01*
X008826Y072135D01*
X008777Y072087D01*
X008777Y072038D01*
X008826Y071990D01*
X008777Y071942D01*
X008777Y071893D01*
X008826Y071845D01*
X008826Y071990D02*
X008874Y071990D01*
X008676Y071893D02*
X008628Y071845D01*
X008531Y071845D01*
X008483Y071893D01*
X008483Y071942D01*
X008531Y071990D01*
X008580Y071990D01*
X008531Y071990D02*
X008483Y072038D01*
X008483Y072087D01*
X008531Y072135D01*
X008628Y072135D01*
X008676Y072087D01*
X008628Y074395D02*
X008531Y074395D01*
X008483Y074443D01*
X008483Y074492D01*
X008531Y074540D01*
X008676Y074540D01*
X008676Y074443D01*
X008628Y074395D01*
X008676Y074540D02*
X008580Y074637D01*
X008483Y074685D01*
X008777Y074637D02*
X008777Y074588D01*
X008826Y074540D01*
X008777Y074492D01*
X008777Y074443D01*
X008826Y074395D01*
X008923Y074395D01*
X008971Y074443D01*
X009072Y074443D02*
X009120Y074395D01*
X009217Y074395D01*
X009266Y074443D01*
X009266Y074637D01*
X009217Y074685D01*
X009120Y074685D01*
X009072Y074637D01*
X008971Y074637D02*
X008923Y074685D01*
X008826Y074685D01*
X008777Y074637D01*
X008826Y074540D02*
X008874Y074540D01*
X008994Y074757D02*
X009187Y074563D01*
X009187Y074515D01*
X009288Y074563D02*
X009288Y074805D01*
X009187Y074805D02*
X008994Y074805D01*
X008994Y074757D01*
X009288Y074563D02*
X009337Y074515D01*
X009433Y074515D01*
X009482Y074563D01*
X009482Y074805D01*
X010733Y074540D02*
X010926Y074540D01*
X010781Y074685D01*
X010781Y074395D01*
X011027Y074395D02*
X011221Y074395D01*
X011124Y074395D02*
X011124Y074685D01*
X011221Y074588D01*
X011244Y074612D02*
X011244Y074563D01*
X011292Y074515D01*
X011389Y074515D01*
X011437Y074563D01*
X011538Y074563D02*
X011538Y074805D01*
X011437Y074757D02*
X011389Y074805D01*
X011292Y074805D01*
X011244Y074757D01*
X011244Y074708D01*
X011292Y074660D01*
X011244Y074612D01*
X011292Y074660D02*
X011340Y074660D01*
X011322Y074637D02*
X011370Y074685D01*
X011467Y074685D01*
X011516Y074637D01*
X011516Y074443D01*
X011467Y074395D01*
X011370Y074395D01*
X011322Y074443D01*
X011538Y074563D02*
X011587Y074515D01*
X011683Y074515D01*
X011732Y074563D01*
X011732Y074805D01*
X012983Y074685D02*
X013176Y074685D01*
X013176Y074540D01*
X013080Y074588D01*
X013031Y074588D01*
X012983Y074540D01*
X012983Y074443D01*
X013031Y074395D01*
X013128Y074395D01*
X013176Y074443D01*
X013247Y074515D02*
X013344Y074515D01*
X013392Y074563D01*
X013199Y074757D01*
X013199Y074563D01*
X013247Y074515D01*
X013277Y074492D02*
X013277Y074443D01*
X013326Y074395D01*
X013423Y074395D01*
X013471Y074443D01*
X013494Y074515D02*
X013687Y074515D01*
X013590Y074515D02*
X013590Y074805D01*
X013687Y074708D01*
X013717Y074685D02*
X013620Y074685D01*
X013572Y074637D01*
X013471Y074637D02*
X013423Y074685D01*
X013326Y074685D01*
X013277Y074637D01*
X013277Y074588D01*
X013326Y074540D01*
X013277Y074492D01*
X013326Y074540D02*
X013374Y074540D01*
X013392Y074563D02*
X013392Y074757D01*
X013344Y074805D01*
X013247Y074805D01*
X013199Y074757D01*
X013572Y074443D02*
X013620Y074395D01*
X013717Y074395D01*
X013766Y074443D01*
X013766Y074637D01*
X013717Y074685D01*
X013788Y074805D02*
X013788Y074563D01*
X013837Y074515D01*
X013933Y074515D01*
X013982Y074563D01*
X013982Y074805D01*
X015233Y074685D02*
X015426Y074685D01*
X015426Y074540D01*
X015330Y074588D01*
X015281Y074588D01*
X015233Y074540D01*
X015233Y074443D01*
X015281Y074395D01*
X015378Y074395D01*
X015426Y074443D01*
X015527Y074395D02*
X015721Y074395D01*
X015624Y074395D02*
X015624Y074685D01*
X015721Y074588D01*
X015744Y074563D02*
X015792Y074515D01*
X015889Y074515D01*
X015937Y074563D01*
X015937Y074660D02*
X015840Y074708D01*
X015792Y074708D01*
X015744Y074660D01*
X015744Y074563D01*
X015822Y074637D02*
X015870Y074685D01*
X015967Y074685D01*
X016016Y074637D01*
X016016Y074443D01*
X015967Y074395D01*
X015870Y074395D01*
X015822Y074443D01*
X015937Y074660D02*
X015937Y074805D01*
X015744Y074805D01*
X016038Y074805D02*
X016038Y074563D01*
X016087Y074515D01*
X016183Y074515D01*
X016232Y074563D01*
X016232Y074805D01*
X016016Y072135D02*
X015870Y072135D01*
X015822Y072087D01*
X015822Y071990D01*
X015870Y071942D01*
X016016Y071942D01*
X016016Y071845D02*
X016016Y072135D01*
X015919Y071942D02*
X015822Y071845D01*
X015721Y071845D02*
X015527Y071845D01*
X015624Y071845D02*
X015624Y072135D01*
X015721Y072038D01*
X015426Y072038D02*
X015426Y072087D01*
X015378Y072135D01*
X015281Y072135D01*
X015233Y072087D01*
X015233Y072038D01*
X015281Y071990D01*
X015378Y071990D01*
X015426Y072038D01*
X015378Y071990D02*
X015426Y071942D01*
X015426Y071893D01*
X015378Y071845D01*
X015281Y071845D01*
X015233Y071893D01*
X015233Y071942D01*
X015281Y071990D01*
X013766Y071942D02*
X013620Y071942D01*
X013572Y071990D01*
X013572Y072087D01*
X013620Y072135D01*
X013766Y072135D01*
X013766Y071845D01*
X013669Y071942D02*
X013572Y071845D01*
X013471Y071990D02*
X013277Y071990D01*
X013176Y072038D02*
X013080Y072135D01*
X013080Y071845D01*
X013176Y071845D02*
X012983Y071845D01*
X013326Y071845D02*
X013326Y072135D01*
X013471Y071990D01*
X011516Y071942D02*
X011370Y071942D01*
X011322Y071990D01*
X011322Y072087D01*
X011370Y072135D01*
X011516Y072135D01*
X011516Y071845D01*
X011419Y071942D02*
X011322Y071845D01*
X011221Y071845D02*
X011027Y071845D01*
X011124Y071845D02*
X011124Y072135D01*
X011221Y072038D01*
X010926Y072087D02*
X010878Y072135D01*
X010781Y072135D01*
X010733Y072087D01*
X010733Y072038D01*
X010926Y071845D01*
X010733Y071845D01*
X019299Y074863D02*
X019299Y074912D01*
X019347Y074960D01*
X019492Y074960D01*
X019492Y074863D01*
X019444Y074815D01*
X019347Y074815D01*
X019299Y074863D01*
X019396Y075057D02*
X019492Y074960D01*
X019396Y075057D02*
X019299Y075105D01*
X019690Y075105D02*
X019690Y074815D01*
X019594Y074815D02*
X019787Y074815D01*
X019888Y074863D02*
X019937Y074815D01*
X020033Y074815D01*
X020082Y074863D01*
X020082Y075057D01*
X020033Y075105D01*
X019937Y075105D01*
X019888Y075057D01*
X019787Y075008D02*
X019690Y075105D01*
D11*
X016057Y074069D02*
X016057Y073431D01*
X016020Y073431D01*
X015702Y073431D02*
X015665Y073431D01*
X015328Y073431D02*
X015291Y073431D01*
X014974Y073431D02*
X014937Y073431D01*
X014937Y074069D01*
X014974Y074069D01*
X015291Y074069D02*
X015702Y074069D01*
X016020Y074069D02*
X016057Y074069D01*
X013807Y074069D02*
X013807Y073431D01*
X013770Y073431D01*
X013452Y073431D02*
X013415Y073431D01*
X013078Y073431D02*
X013041Y073431D01*
X012724Y073431D02*
X012687Y073431D01*
X012687Y074069D01*
X012724Y074069D01*
X013041Y074069D02*
X013452Y074069D01*
X013770Y074069D02*
X013807Y074069D01*
X011557Y074069D02*
X011557Y073431D01*
X011520Y073431D01*
X011202Y073431D02*
X011165Y073431D01*
X010828Y073431D02*
X010791Y073431D01*
X010474Y073431D02*
X010437Y073431D01*
X010437Y074069D01*
X010474Y074069D01*
X010791Y074069D02*
X011202Y074069D01*
X011520Y074069D02*
X011557Y074069D01*
X009307Y074069D02*
X009307Y073431D01*
X009270Y073431D01*
X008952Y073431D02*
X008915Y073431D01*
X008578Y073431D02*
X008541Y073431D01*
X008224Y073431D02*
X008187Y073431D01*
X008187Y074069D01*
X008224Y074069D01*
X008541Y074069D02*
X008952Y074069D01*
X009270Y074069D02*
X009307Y074069D01*
D12*
X005997Y038050D02*
X005997Y036750D01*
X005997Y038050D02*
X006147Y038050D01*
X006347Y038050D01*
X007467Y038050D01*
X007467Y036750D01*
X009247Y036750D02*
X009247Y038050D01*
X009397Y038050D01*
X009597Y038050D01*
X010717Y038050D01*
X010717Y036750D01*
X035847Y034050D02*
X035847Y033800D01*
X040347Y033800D01*
X040347Y034050D01*
X040347Y039800D02*
X035847Y039800D01*
X035847Y040050D01*
X040347Y040050D02*
X040347Y039800D01*
X040347Y028050D02*
X040347Y027800D01*
X035847Y027800D01*
X035847Y028050D01*
X035847Y021050D02*
X035847Y020800D01*
X035847Y015050D02*
X035847Y014800D01*
X040347Y014800D01*
X040347Y015050D01*
X040347Y020800D02*
X040347Y021050D01*
X041697Y078350D02*
X041947Y078350D01*
X041947Y082850D01*
X041697Y082850D01*
X024197Y082850D02*
X024197Y078350D01*
X023947Y078350D01*
X023947Y082850D02*
X024197Y082850D01*
D13*
X010567Y038050D02*
X010567Y036750D01*
X010297Y036730D02*
X010297Y038030D01*
X009597Y038050D02*
X009597Y036750D01*
X009397Y036750D02*
X009397Y038050D01*
X007317Y038050D02*
X007317Y036750D01*
X007047Y036730D02*
X007047Y038030D01*
X006347Y038050D02*
X006347Y036750D01*
X006147Y036750D02*
X006147Y038050D01*
D14*
X009251Y055856D02*
X009251Y056644D01*
X009743Y056644D01*
X009743Y055856D01*
X009251Y055856D01*
X009251Y057356D02*
X009251Y058144D01*
X009743Y058144D01*
X009743Y057356D01*
X009251Y057356D01*
X009251Y058856D02*
X009251Y059644D01*
X009743Y059644D01*
X009743Y058856D01*
X009251Y058856D01*
X009251Y060356D02*
X009251Y061144D01*
X009743Y061144D01*
X009743Y060356D01*
X009251Y060356D01*
X039922Y037333D02*
X039922Y036959D01*
X040225Y036959D01*
X040225Y035541D01*
X039922Y035541D01*
X039922Y035167D01*
X043071Y035167D01*
X043071Y035541D01*
X042768Y035541D01*
X042768Y036959D01*
X043071Y036959D01*
X043071Y037333D01*
X039922Y037333D01*
X039922Y036959D02*
X039922Y035541D01*
X043071Y035541D02*
X043071Y036959D01*
M02*
