%
M48
M72
T01C0.0140
T02C0.0150
T03C0.0240
T04C0.0394
T05C0.0400
T06C0.0433
T07C0.0787
T08C0.0960
T09C0.1000
T10C0.1250
T11C0.1260
T12C0.1300
T13C0.1340
%
T01
X31497Y71000
T02
X31497Y70000
X31997Y69500
X29497Y70250
X27997Y72000
X29497Y75000
X33997Y75000
X34247Y74500
X34747Y72250
X35247Y70500
X34747Y69500
X35247Y68500
X36747Y70250
X38747Y68750
X39247Y68750
X39247Y67000
X38747Y67000
X38997Y65500
X38997Y64000
X41247Y64000
X41997Y63750
X42997Y64500
X43497Y64750
X41997Y65500
X41247Y65500
X41497Y67000
X40997Y67000
X40997Y68750
X41497Y68750
X42997Y70000
X43497Y68500
X43747Y73000
X42847Y74150
X42497Y73750
X42247Y75500
X43997Y75250
X42247Y77750
X37997Y75250
X37247Y73500
X36747Y64750
X34997Y63050
X34747Y62750
X33997Y63050
X33747Y62500
X33997Y62000
X33547Y61700
X33997Y61000
X33247Y63000
X31997Y64000
X32847Y61400
X29497Y57000
X29247Y57000
X28997Y57000
X28747Y57000
X28497Y57000
X28497Y56500
X28747Y56500
X28997Y56500
X29247Y56500
X29497Y56500
X29497Y56250
X29497Y56000
X29497Y55750
X29497Y55500
X29497Y55250
X29247Y55000
X28997Y55000
X28747Y55000
X28497Y55000
X28497Y55250
X28497Y55500
X28497Y55750
X28497Y56000
X28497Y56250
X28497Y54500
X28747Y54500
X28997Y54500
X29247Y54500
X29497Y54500
X25447Y56000
X25247Y57000
X24497Y57000
X24247Y57500
X23747Y57750
X22747Y58750
X22247Y57750
X20747Y58250
X20247Y58400
X19747Y58150
X18247Y59350
X18647Y59750
X17997Y61000
X17497Y62500
X17997Y63500
X18247Y64500
X18497Y65000
X18997Y65000
X19497Y64250
X19997Y64000
X19497Y62000
X19997Y61750
X21747Y63500
X21747Y65500
X21997Y67000
X21497Y67000
X20497Y66500
X20397Y68450
X21497Y68750
X21997Y68750
X22997Y69500
X23247Y70300
X23997Y71200
X24747Y70250
X24247Y68500
X23247Y66000
X24697Y63700
X24997Y62500
X25497Y62250
X25547Y61750
X26497Y63250
X27497Y63000
X27997Y63250
X27797Y61300
X28247Y61250
X27997Y65915
X27497Y66750
X26497Y66750
X24597Y72800
X24247Y73250
X21247Y72000
X19747Y73750
X18897Y72950
X18847Y71850
X17997Y70250
X17497Y70250
X17497Y68500
X17997Y68500
X17747Y67000
X17347Y66500
X16997Y66000
X16247Y64750
X15497Y62750
X14047Y63350
X13747Y63050
X13247Y62750
X12747Y64050
X12597Y63150
X12197Y63150
X11797Y63150
X11397Y63150
X10997Y63150
X10647Y62200
X10247Y61000
X10597Y60250
X9497Y60000
X9497Y58500
X8647Y57950
X8297Y57650
X8297Y58300
X8347Y58900
X8347Y59300
X8347Y59700
X8347Y60300
X8347Y60700
X8397Y61100
X8697Y61600
X8347Y61900
X7997Y61750
X7647Y61900
X7497Y62250
X7247Y62550
X5747Y63750
X5247Y63400
X4797Y63400
X4297Y62500
X4597Y62250
X4247Y62000
X3747Y61750
X3997Y61250
X3997Y60250
X3997Y59750
X3997Y58750
X3997Y57750
X4747Y58000
X4997Y58500
X4997Y61000
X5497Y62250
X4747Y64500
X4247Y65250
X4747Y66000
X5447Y66250
X5147Y66650
X5747Y67000
X6497Y67000
X6847Y66750
X6997Y66400
X7247Y66000
X7397Y65550
X7697Y64950
X7197Y64500
X7247Y67000
X6747Y68500
X6247Y68500
X5247Y69250
X5747Y70000
X6247Y70250
X6747Y70250
X7547Y71900
X7747Y73000
X8747Y73750
X8747Y74250
X9647Y75300
X8747Y76750
X7347Y75300
X5997Y76250
X5497Y76750
X4997Y76000
X4547Y74750
X5497Y74500
X3747Y72750
X3447Y74500
X4897Y78000
X4597Y78750
X4247Y79500
X5247Y81250
X4897Y82250
X4597Y82550
X4247Y82850
X9247Y82850
X11497Y82550
X12997Y81250
X13747Y82250
X13247Y76250
X14097Y75300
X13247Y74250
X13247Y73750
X12247Y73000
X11747Y73750
X10997Y74250
X11897Y75250
X9997Y73000
X9797Y71900
X8997Y70250
X8497Y70250
X8497Y68500
X8997Y68500
X9497Y67000
X9497Y66250
X10747Y68500
X11247Y68500
X11747Y67000
X12997Y68500
X13497Y68500
X13247Y67000
X13997Y67000
X13997Y66250
X14097Y65850
X13747Y64250
X13247Y61250
X14747Y60500
X15947Y60900
X16497Y60000
X16997Y59000
X13997Y53750
X13397Y55900
X13497Y56350
X13197Y56750
X12747Y59000
X10497Y55250
X9497Y55500
X8497Y56300
X8297Y56700
X8747Y57000
X9497Y57000
X10497Y52000
X9247Y42250
X9047Y41650
X8997Y41250
X8747Y40750
X9597Y39050
X9347Y38650
X7747Y34250
X8747Y31250
X8997Y30750
X8497Y30550
X8197Y30900
X5497Y30550
X4247Y30900
X3997Y34250
X5997Y40750
X5997Y41250
X4997Y41750
X4747Y42250
X13147Y31500
X13497Y30750
X13697Y31050
X15097Y30850
X15497Y29750
X16747Y28750
X17497Y28750
X17247Y27950
X17497Y27300
X18497Y27750
X19097Y27400
X18497Y26500
X18997Y24250
X20747Y24250
X20747Y22000
X17297Y20000
X16997Y19000
X17497Y18000
X17497Y17500
X17497Y16750
X16497Y16000
X14747Y17000
X14497Y17500
X13797Y16750
X13497Y16500
X13047Y16500
X14247Y18500
X13997Y19500
X10997Y16000
X10997Y15000
X10747Y14000
X10497Y13000
X10247Y12000
X10247Y11000
X9997Y10000
X2747Y14000
X2747Y15000
X1747Y13000
X1497Y12000
X2247Y11000
X1747Y10000
X1247Y9750
X1247Y21000
X1247Y22000
X1247Y23000
X1347Y23500
X1997Y24000
X1247Y25000
X1297Y25500
X1467Y26000
X2077Y27000
X12247Y26500
X12747Y27000
X13147Y28750
X12247Y28750
X15097Y32750
X15497Y33250
X16997Y32750
X17497Y33950
X16997Y34350
X18097Y33650
X18547Y33350
X18847Y33050
X19247Y32750
X19747Y32450
X19247Y31400
X18747Y30250
X18547Y31400
X18097Y31400
X17497Y31000
X16997Y30500
X19497Y33950
X19997Y33650
X20497Y33350
X20997Y33050
X21497Y32750
X21997Y32450
X22747Y32150
X22747Y33750
X20847Y32150
X20847Y31250
X19747Y30000
X21247Y28000
X21997Y28500
X24497Y27500
X25747Y26500
X28247Y31500
X29747Y30500
X30247Y30000
X31247Y30250
X32247Y29500
X32247Y27750
X29497Y23250
X29047Y22500
X29497Y21500
X30997Y21750
X31247Y21000
X31747Y20250
X31747Y19250
X31747Y18000
X31247Y17500
X30497Y16000
X28747Y14000
X28497Y13000
X24497Y14500
X23497Y13000
X23997Y11500
X23997Y9000
X32247Y21750
X32747Y21000
X29047Y24250
X29247Y33750
X26747Y36000
X23997Y36000
X18997Y39000
X18497Y38500
X24497Y54000
X27997Y47250
X27997Y46750
X27997Y46250
X33747Y44750
X34747Y44250
X36497Y46250
X36947Y46550
X37447Y46800
X40747Y48750
X42997Y51250
X42997Y52500
X40747Y52350
X38047Y53650
X37247Y54000
X36997Y54350
X35497Y54350
X34747Y53500
X35247Y53000
X37247Y52350
X43747Y48750
X34747Y38250
X33997Y39000
X43747Y20250
X41747Y17000
X41747Y11750
X37547Y17600
X36997Y16500
X36497Y15250
X11747Y65250
X11247Y65250
X14397Y68600
X15247Y68500
X15747Y68500
X15497Y67000
X16247Y67000
X16997Y67000
X18497Y67000
X15747Y70250
X15247Y70250
X14297Y71900
X14497Y73000
X15497Y73750
X15497Y74250
X16397Y75300
X17497Y73250
X16547Y71900
X18647Y75300
X18747Y74550
X13497Y70250
X12997Y70250
X12047Y71900
X11247Y70250
X10747Y70250
X5147Y67750
X4747Y68500
X4247Y67000
X3247Y65750
X3247Y64750
X2497Y61250
X2847Y60800
X2497Y58500
X2797Y58100
T03
X5497Y75750
X7747Y75750
X9997Y75750
X12247Y75750
X14497Y75750
X16747Y75750
X20497Y75750
X23247Y56350
X19247Y52500
X19247Y49915
X14747Y53000
X14747Y56350
X14747Y42500
X17997Y42500
X30747Y42500
X30497Y31250
X41497Y49750
X44747Y62250
T04
X26247Y30000
X26247Y29000
X26247Y28000
X26247Y27000
X26247Y26000
X26247Y25000
X26247Y24000
X26247Y23000
X26247Y22000
X26247Y21000
X26247Y20000
X26247Y19000
X26247Y18000
X26247Y17000
X26247Y16000
X26247Y15000
X26247Y14000
X26247Y13000
X26247Y12000
X26247Y11000
X26247Y10000
X26247Y9000
X26247Y8000
X25247Y8000
X25247Y9000
X25247Y10000
X25247Y11000
X25247Y12000
X25247Y13000
X25247Y14000
X25247Y15000
X25247Y16000
X25247Y17000
X25247Y18000
X25247Y19000
X25247Y20000
X25247Y21000
X25247Y22000
X25247Y23000
X25247Y24000
X25247Y25000
X25247Y26000
X25247Y27000
X25247Y28000
X25247Y29000
X25247Y30000
X30747Y14000
X31247Y13000
X31747Y14000
X32247Y13000
X32747Y14000
X33247Y13000
X33747Y14000
X30247Y13000
X37497Y13000
X37997Y14000
X38497Y13000
X38997Y14000
X39497Y13000
X39997Y14000
X40497Y13000
X40997Y14000
X7247Y14000
X7247Y13000
X7247Y12000
X7247Y11000
X7247Y10000
X7247Y9000
X7247Y8000
X6247Y8000
X6247Y9000
X6247Y10000
X6247Y11000
X6247Y12000
X6247Y13000
X6247Y14000
X6247Y15000
X6247Y16000
X6247Y17000
X6247Y18000
X7247Y18000
X7247Y17000
X7247Y16000
X7247Y15000
X7247Y19000
X7247Y20000
X7247Y21000
X7247Y22000
X7247Y23000
X7247Y24000
X7247Y25000
X7247Y26000
X7247Y27000
X7247Y28000
X7247Y29000
X7247Y30000
X6247Y30000
X6247Y29000
X6247Y28000
X6247Y27000
X6247Y26000
X6247Y25000
X6247Y24000
X6247Y23000
X6247Y22000
X6247Y21000
X6247Y20000
X6247Y19000
T05
X4697Y19000
X4797Y20000
X4697Y21000
X4797Y22000
X4697Y23000
X4797Y24000
X4697Y25000
X4797Y26000
X4697Y27000
X4797Y28000
X4697Y29000
X4797Y30000
X8797Y30000
X8697Y29000
X8797Y28000
X8697Y27000
X8797Y26000
X8697Y25000
X8797Y24000
X8697Y23000
X8797Y22000
X8697Y21000
X8797Y20000
X8697Y19000
X8797Y18000
X8697Y17000
X8797Y16000
X8697Y15000
X8797Y14000
X8697Y13000
X8797Y12000
X8697Y11000
X8797Y10000
X8697Y9000
X8797Y8000
X8697Y7000
X4697Y7000
X4797Y8000
X4697Y9000
X4797Y10000
X4697Y11000
X4797Y12000
X4697Y13000
X4797Y14000
X4697Y15000
X4797Y16000
X4697Y17000
X4797Y18000
X3447Y38500
X3447Y39500
X3447Y40500
X3447Y41500
X3447Y42500
X3447Y43500
X3447Y44500
X3447Y45500
X3447Y46500
X3447Y47500
X3447Y48500
X3447Y49500
X3447Y50500
X3447Y51500
X3447Y52500
X3447Y53500
X3447Y54500
X3447Y55500
X1247Y55500
X1247Y54500
X1247Y53500
X1247Y52500
X1247Y51500
X1247Y50500
X1247Y49500
X1247Y48500
X1247Y47500
X1247Y46500
X1247Y45500
X1247Y44500
X1247Y43500
X1247Y42500
X1247Y41500
X1247Y40500
X1247Y39500
X1247Y38500
X17997Y35600
X17997Y34600
X18997Y34600
X18997Y35600
X19997Y35600
X19997Y34600
X20997Y34600
X20997Y35600
X21997Y35600
X21997Y34600
X22997Y34600
X22997Y35600
X23747Y37450
X24747Y37550
X25747Y37450
X26747Y37550
X27747Y37450
X28747Y37550
X29747Y37450
X30747Y37550
X31747Y37450
X31747Y39600
X30747Y39500
X29747Y39600
X28747Y39500
X27747Y39600
X26747Y39500
X25747Y39600
X24747Y39500
X23747Y39600
X22797Y31000
X22697Y30000
X22797Y29000
X22697Y28000
X22797Y27000
X22697Y26000
X22797Y25000
X22697Y24000
X22797Y23000
X22697Y22000
X22797Y21000
X22697Y20000
X22797Y19000
X22697Y18000
X22797Y17000
X22697Y16000
X22797Y15000
X22697Y14000
X22797Y13000
X22697Y12000
X22797Y11000
X22697Y10000
X22797Y9000
X22697Y8000
X20697Y12000
X20797Y13000
X20697Y14000
X20797Y15000
X20697Y16000
X20797Y17000
X20697Y18000
X20797Y19000
X20697Y20000
X20797Y21000
X18797Y21000
X18697Y20000
X18797Y19000
X18697Y18000
X18797Y17000
X18697Y16000
X18797Y15000
X18697Y14000
X18797Y13000
X18697Y12000
X23997Y18000
X23997Y19000
X23997Y20000
X23997Y21000
X23997Y22000
X23997Y23000
X27797Y23000
X27697Y22000
X27797Y21000
X27697Y20000
X27797Y19000
X27697Y18000
X27797Y17000
X27697Y16000
X27797Y15000
X27697Y14000
X27797Y13000
X27697Y12000
X27797Y11000
X27697Y10000
X27797Y9000
X27697Y8000
X34047Y16250
X33947Y17250
X34047Y18250
X33947Y22250
X34047Y23250
X33947Y24250
X34047Y25250
X34047Y29250
X33947Y30250
X34047Y31250
X34047Y35250
X33947Y36250
X34047Y37250
X34047Y41250
X33947Y42250
X34047Y43250
X30497Y48750
X30497Y53250
X36247Y50750
X37247Y50750
X38247Y50750
X42497Y50000
X44997Y48250
X42497Y42750
X42747Y39500
X40247Y39500
X38747Y36250
X27797Y31000
X27697Y30000
X27797Y29000
X27697Y28000
X27797Y27000
X27697Y26000
X27797Y25000
X27697Y24000
X42497Y8250
X43747Y9750
X44997Y15250
X36997Y58000
X36997Y62250
X38747Y62250
X39747Y62250
X40747Y62250
X42497Y63250
X40497Y65000
X37497Y67750
X33497Y67750
X33518Y74000
X36497Y76550
X37497Y76450
X38497Y76550
X39497Y76450
X40497Y76550
X40147Y74000
X37897Y74022
X44247Y70750
X44247Y69750
X44247Y68750
X45247Y68750
X45247Y69750
X45247Y70750
X45247Y67750
X45247Y66750
X45247Y65750
X45247Y64750
X45247Y63750
X44247Y63750
X44247Y64750
X44247Y65750
X44247Y66750
X44247Y67750
X43747Y60250
X25247Y75000
X22817Y76500
X21677Y76500
X19497Y69250
X19247Y61000
X20247Y61000
X21247Y61000
X22247Y61000
X23247Y61000
X24247Y61000
X24247Y60000
X23247Y60000
X22247Y60000
X21247Y60000
X20247Y60000
X19247Y60000
X13678Y78941
X13131Y80059
X12040Y80059
X10953Y80059
X9863Y80059
X10406Y78941
X9316Y78941
X11497Y78941
X12587Y78941
T06
X21747Y77750
X22747Y77750
X36497Y77750
X37497Y77750
X38497Y77750
X39497Y77750
X40497Y77750
X35247Y43250
X35247Y42250
X35247Y41250
X35247Y37250
X35247Y36250
X35247Y35250
X35247Y31250
X35247Y30250
X35247Y29250
X35247Y25250
X35247Y24250
X35247Y23250
X35247Y22250
X35247Y18250
X35247Y17250
X35247Y16250
X10247Y33750
X10247Y34750
X10247Y35750
X6997Y35750
X6997Y34750
X6997Y33750
T07
X28247Y79500
X31997Y79500
T08
X31747Y51110
X23747Y51110
X18747Y23000
X11747Y23000
X11747Y10000
X18747Y10000
T09
X21247Y39000
X21247Y55000
T10
X24495Y32301
T11
X2247Y7750
X29747Y10500
X34247Y10500
X36997Y10500
X41497Y10500
X44247Y7750
X44247Y81750
X2247Y81750
T12
X6575Y79500
X16418Y79500
T13
X21197Y81150
X23297Y81150
X35947Y81150
X41047Y81150
X38647Y43800
X38647Y40700
X38647Y37800
X38647Y34700
X38647Y31800
X38647Y28700
X38647Y25800
X38647Y21700
X38647Y18800
X38647Y15700
X9947Y32150
X6697Y32150
X6697Y37350
X9947Y37350
M30
