G75*
%MOIN*%
%OFA0B0*%
%FSLAX24Y24*%
%IPPOS*%
%LPD*%
%AMOC8*
5,1,8,0,0,1.08239X$1,22.5*
%
%ADD10C,0.1330*%
%ADD11R,0.0671X0.0671*%
%ADD12C,0.0671*%
%ADD13C,0.0820*%
%ADD14C,0.1440*%
%ADD15C,0.2380*%
%ADD16R,0.1143X0.0710*%
%ADD17R,0.0946X0.0316*%
%ADD18R,0.0513X0.0474*%
%ADD19R,0.0474X0.0513*%
%ADD20R,0.0659X0.0580*%
%ADD21R,0.0710X0.1143*%
%ADD22R,0.0710X0.2324*%
%ADD23R,0.0552X0.0552*%
%ADD24R,0.0316X0.0946*%
%ADD25R,0.0820X0.0820*%
%ADD26C,0.2080*%
%ADD27R,0.1340X0.0789*%
%ADD28R,0.0297X0.0552*%
%ADD29R,0.0200X0.0470*%
%ADD30R,0.0470X0.0200*%
%ADD31R,0.0730X0.0730*%
%ADD32C,0.0730*%
%ADD33C,0.1420*%
%ADD34OC8,0.0680*%
%ADD35C,0.1261*%
%ADD36C,0.1480*%
%ADD37R,0.0356X0.0552*%
%ADD38R,0.0336X0.0178*%
%ADD39R,0.0470X0.0352*%
%ADD40C,0.1340*%
%ADD41R,0.0710X0.0198*%
%ADD42R,0.0969X0.0906*%
%ADD43R,0.0580X0.0659*%
%ADD44R,0.3308X0.1104*%
%ADD45OC8,0.0820*%
%ADD46R,0.0950X0.0320*%
%ADD47R,0.0352X0.0470*%
%ADD48R,0.0540X0.0710*%
%ADD49R,0.0552X0.0356*%
%ADD50R,0.0710X0.0540*%
%ADD51R,0.0720X0.0060*%
%ADD52R,0.0060X0.0720*%
%ADD53R,0.0320X0.0950*%
%ADD54R,0.2167X0.0867*%
%ADD55R,0.0434X0.0277*%
%ADD56C,0.0680*%
%ADD57C,0.0680*%
%ADD58C,0.0460*%
D10*
X024495Y032301D03*
D11*
X026247Y008000D03*
X007247Y008000D03*
D12*
X007247Y009000D03*
X007247Y010000D03*
X007247Y011000D03*
X007247Y012000D03*
X007247Y013000D03*
X007247Y014000D03*
X007247Y015000D03*
X007247Y016000D03*
X007247Y017000D03*
X007247Y018000D03*
X007247Y019000D03*
X007247Y020000D03*
X007247Y021000D03*
X007247Y022000D03*
X007247Y023000D03*
X007247Y024000D03*
X007247Y025000D03*
X007247Y026000D03*
X007247Y027000D03*
X007247Y028000D03*
X007247Y029000D03*
X007247Y030000D03*
X006247Y030000D03*
X006247Y029000D03*
X006247Y028000D03*
X006247Y027000D03*
X006247Y026000D03*
X006247Y025000D03*
X006247Y024000D03*
X006247Y023000D03*
X006247Y022000D03*
X006247Y021000D03*
X006247Y020000D03*
X006247Y019000D03*
X006247Y018000D03*
X006247Y017000D03*
X006247Y016000D03*
X006247Y015000D03*
X006247Y014000D03*
X006247Y013000D03*
X006247Y012000D03*
X006247Y011000D03*
X006247Y010000D03*
X006247Y009000D03*
X006247Y008000D03*
X025247Y008000D03*
X025247Y009000D03*
X025247Y010000D03*
X025247Y011000D03*
X025247Y012000D03*
X026247Y012000D03*
X026247Y011000D03*
X026247Y010000D03*
X026247Y009000D03*
X026247Y013000D03*
X026247Y014000D03*
X026247Y015000D03*
X026247Y016000D03*
X026247Y017000D03*
X026247Y018000D03*
X026247Y019000D03*
X026247Y020000D03*
X026247Y021000D03*
X026247Y022000D03*
X026247Y023000D03*
X026247Y024000D03*
X026247Y025000D03*
X026247Y026000D03*
X026247Y027000D03*
X026247Y028000D03*
X026247Y029000D03*
X026247Y030000D03*
X025247Y030000D03*
X025247Y029000D03*
X025247Y028000D03*
X025247Y027000D03*
X025247Y026000D03*
X025247Y025000D03*
X025247Y024000D03*
X025247Y023000D03*
X025247Y022000D03*
X025247Y021000D03*
X025247Y020000D03*
X025247Y019000D03*
X025247Y018000D03*
X025247Y017000D03*
X025247Y016000D03*
X025247Y015000D03*
X025247Y014000D03*
X025247Y013000D03*
D13*
X022797Y013000D03*
X022697Y014000D03*
X022797Y015000D03*
X022697Y016000D03*
X022797Y017000D03*
X022697Y018000D03*
X022797Y019000D03*
X022697Y020000D03*
X022797Y021000D03*
X022697Y022000D03*
X022797Y023000D03*
X022697Y024000D03*
X022797Y025000D03*
X022697Y026000D03*
X022797Y027000D03*
X022697Y028000D03*
X022797Y029000D03*
X022697Y030000D03*
X022797Y031000D03*
X023747Y037450D03*
X024747Y037550D03*
X025747Y037450D03*
X026747Y037550D03*
X027747Y037450D03*
X028747Y037550D03*
X029747Y037450D03*
X030747Y037550D03*
X031747Y037450D03*
X031747Y039600D03*
X030747Y039500D03*
X029747Y039600D03*
X028747Y039500D03*
X027747Y039600D03*
X026747Y039500D03*
X025747Y039600D03*
X024747Y039500D03*
X023747Y039600D03*
X027797Y031000D03*
X027697Y030000D03*
X027797Y029000D03*
X027697Y028000D03*
X027797Y027000D03*
X027697Y026000D03*
X027797Y025000D03*
X027697Y024000D03*
X027797Y023000D03*
X027697Y022000D03*
X027797Y021000D03*
X027697Y020000D03*
X027797Y019000D03*
X027697Y018000D03*
X027797Y017000D03*
X027697Y016000D03*
X027797Y015000D03*
X027697Y014000D03*
X027797Y013000D03*
X027697Y012000D03*
X027797Y011000D03*
X027697Y010000D03*
X027797Y009000D03*
X027697Y008000D03*
X031247Y013000D03*
X031747Y014000D03*
X032247Y013000D03*
X032747Y014000D03*
X033247Y013000D03*
X033747Y014000D03*
X034047Y016250D03*
X033947Y017250D03*
X034047Y018250D03*
X033947Y022250D03*
X034047Y023250D03*
X033947Y024250D03*
X034047Y029250D03*
X033947Y030250D03*
X034047Y031250D03*
X034047Y035250D03*
X033947Y036250D03*
X034047Y037250D03*
X034047Y041250D03*
X033947Y042250D03*
X034047Y043250D03*
X023997Y023000D03*
X023997Y022000D03*
X023997Y021000D03*
X023997Y020000D03*
X023997Y019000D03*
X023997Y018000D03*
X020797Y017000D03*
X020697Y016000D03*
X020797Y015000D03*
X020697Y014000D03*
X020797Y013000D03*
X020697Y012000D03*
X018797Y013000D03*
X018697Y014000D03*
X018797Y015000D03*
X018697Y016000D03*
X018797Y017000D03*
X018697Y018000D03*
X018797Y019000D03*
X018697Y020000D03*
X018797Y021000D03*
X020697Y020000D03*
X020797Y019000D03*
X020697Y018000D03*
X020797Y021000D03*
X022697Y012000D03*
X022797Y011000D03*
X022697Y010000D03*
X022797Y009000D03*
X022697Y008000D03*
X018697Y012000D03*
X008797Y012000D03*
X008697Y011000D03*
X008797Y010000D03*
X008697Y009000D03*
X008797Y008000D03*
X008697Y007000D03*
X008697Y013000D03*
X008797Y014000D03*
X008697Y015000D03*
X008797Y016000D03*
X008697Y017000D03*
X008797Y018000D03*
X008697Y019000D03*
X008797Y020000D03*
X008697Y021000D03*
X008797Y022000D03*
X008697Y023000D03*
X008797Y024000D03*
X008697Y025000D03*
X008797Y026000D03*
X008697Y027000D03*
X008797Y028000D03*
X008697Y029000D03*
X008797Y030000D03*
X004797Y030000D03*
X004697Y029000D03*
X004797Y028000D03*
X004697Y027000D03*
X004797Y026000D03*
X004697Y025000D03*
X004797Y024000D03*
X004697Y023000D03*
X004797Y022000D03*
X004697Y021000D03*
X004797Y020000D03*
X004697Y019000D03*
X004797Y018000D03*
X004697Y017000D03*
X004797Y016000D03*
X004697Y015000D03*
X004797Y014000D03*
X004697Y013000D03*
X004797Y012000D03*
X004697Y011000D03*
X004797Y010000D03*
X004697Y009000D03*
X004797Y008000D03*
X004697Y007000D03*
X003447Y038500D03*
X003447Y039500D03*
X003447Y040500D03*
X003447Y041500D03*
X003447Y042500D03*
X003447Y043500D03*
X003447Y044500D03*
X003447Y045500D03*
X003447Y046500D03*
X003447Y047500D03*
X003447Y048500D03*
X003447Y049500D03*
X003447Y050500D03*
X003447Y051500D03*
X003447Y052500D03*
X003447Y053500D03*
X003447Y054500D03*
X001247Y054500D03*
X001247Y053500D03*
X001247Y052500D03*
X001247Y051500D03*
X001247Y050500D03*
X001247Y049500D03*
X001247Y048500D03*
X001247Y047500D03*
X001247Y046500D03*
X001247Y045500D03*
X001247Y044500D03*
X001247Y043500D03*
X001247Y042500D03*
X001247Y041500D03*
X001247Y040500D03*
X001247Y039500D03*
X001247Y055500D03*
X010406Y078941D03*
X011497Y078941D03*
X012587Y078941D03*
X013131Y080059D03*
X012040Y080059D03*
X010953Y080059D03*
X009863Y080059D03*
X013678Y078941D03*
X021677Y076500D03*
X022817Y076500D03*
X036497Y076550D03*
X037497Y076450D03*
X038497Y076550D03*
X039497Y076450D03*
X040497Y076550D03*
X040997Y014000D03*
X040497Y013000D03*
X039997Y014000D03*
X039497Y013000D03*
X038997Y014000D03*
X038497Y013000D03*
X037997Y014000D03*
X030747Y014000D03*
D14*
X018747Y010000D03*
X011747Y010000D03*
X011747Y023000D03*
X018747Y023000D03*
X023747Y051110D03*
X031747Y051110D03*
D15*
X002247Y007750D03*
X044247Y007750D03*
X044247Y081750D03*
X002247Y081750D03*
D16*
X032497Y059051D03*
X032497Y057949D03*
X035747Y061199D03*
X035747Y062301D03*
X034247Y051301D03*
X034247Y050199D03*
X040247Y050199D03*
X040247Y051301D03*
X043747Y061199D03*
X043747Y062301D03*
D17*
X040020Y057250D03*
X040020Y056750D03*
X040020Y056250D03*
X040020Y055750D03*
X037973Y055750D03*
X037973Y056250D03*
X037973Y056750D03*
X037973Y057250D03*
D18*
X038662Y058000D03*
X039331Y058000D03*
X039497Y054835D03*
X039497Y054165D03*
X040997Y054165D03*
X040997Y054835D03*
X041747Y054835D03*
X041747Y054165D03*
X043412Y049500D03*
X044081Y049500D03*
X036581Y054000D03*
X036581Y054750D03*
X035912Y054750D03*
X035912Y054000D03*
X034747Y054165D03*
X034747Y054835D03*
X031331Y060500D03*
X030662Y060500D03*
X029331Y057500D03*
X028662Y057500D03*
X027081Y057500D03*
X026412Y057500D03*
X030662Y064000D03*
X031331Y064000D03*
X031497Y068915D03*
X031497Y069585D03*
X030497Y069585D03*
X030497Y068915D03*
X029497Y068915D03*
X029497Y069585D03*
X027497Y069585D03*
X027497Y068915D03*
X026497Y068915D03*
X026497Y069585D03*
X026497Y071665D03*
X026497Y072335D03*
X027247Y072335D03*
X027247Y071665D03*
X025747Y071665D03*
X025747Y072335D03*
X025247Y077665D03*
X025247Y078335D03*
X020747Y072235D03*
X020747Y071565D03*
X018747Y073415D03*
X018747Y074085D03*
X016747Y074085D03*
X016747Y073415D03*
X014497Y073415D03*
X014497Y074085D03*
X012247Y074085D03*
X012247Y073415D03*
X009997Y073415D03*
X009997Y074085D03*
X007747Y074085D03*
X007747Y073415D03*
X005497Y073415D03*
X005497Y074085D03*
X004831Y075250D03*
X004162Y075250D03*
X003497Y074085D03*
X003497Y073415D03*
X005747Y068085D03*
X005747Y067415D03*
X006497Y067415D03*
X006497Y068085D03*
X007247Y068085D03*
X007247Y067415D03*
X007997Y067415D03*
X007997Y068085D03*
X008747Y068085D03*
X008747Y067415D03*
X009497Y067415D03*
X009497Y068085D03*
X010247Y068085D03*
X010247Y067415D03*
X010997Y067415D03*
X010997Y068085D03*
X011747Y068085D03*
X011747Y067415D03*
X012497Y067415D03*
X012497Y068085D03*
X013247Y068085D03*
X013247Y067415D03*
X013997Y067415D03*
X013997Y068085D03*
X014747Y068085D03*
X014747Y067415D03*
X015497Y067415D03*
X015497Y068085D03*
X016247Y068085D03*
X016247Y067415D03*
X016997Y067415D03*
X016997Y068085D03*
X017747Y068085D03*
X017747Y067415D03*
X018497Y067415D03*
X018497Y068085D03*
X020997Y066585D03*
X020997Y065915D03*
X021747Y065915D03*
X021747Y066585D03*
X022497Y066585D03*
X022497Y065915D03*
X014681Y063800D03*
X014012Y063800D03*
X006581Y062750D03*
X005912Y062750D03*
X003081Y062750D03*
X002412Y062750D03*
X002581Y060250D03*
X001912Y060250D03*
X001912Y057500D03*
X002581Y057500D03*
X016497Y030085D03*
X016497Y029415D03*
X030912Y029000D03*
X031581Y029000D03*
X031831Y018750D03*
X031162Y018750D03*
X038247Y065915D03*
X038247Y066585D03*
X038997Y066585D03*
X038997Y065915D03*
X039747Y065915D03*
X039747Y066585D03*
X040497Y066585D03*
X040497Y065915D03*
X041247Y065915D03*
X041247Y066585D03*
X041997Y066585D03*
X041997Y065915D03*
X040247Y071665D03*
X040247Y072335D03*
X037997Y072335D03*
X037997Y071665D03*
X037497Y074915D03*
X037497Y075585D03*
X036497Y075585D03*
X036497Y074915D03*
D19*
X035997Y072335D03*
X035997Y071665D03*
X036662Y070750D03*
X037331Y070750D03*
X042412Y070750D03*
X043081Y070750D03*
X043747Y071665D03*
X043747Y072335D03*
X043581Y074750D03*
X043581Y075750D03*
X043581Y076750D03*
X043581Y077750D03*
X042912Y077750D03*
X042912Y076750D03*
X042912Y075750D03*
X042912Y074750D03*
X040247Y054835D03*
X040247Y054165D03*
X038747Y054165D03*
X038747Y054835D03*
X037997Y054835D03*
X037997Y054165D03*
X034831Y053000D03*
X034162Y053000D03*
X034412Y044750D03*
X035081Y044750D03*
X034331Y038250D03*
X033662Y038250D03*
X033081Y030250D03*
X032412Y030250D03*
X032331Y024250D03*
X031662Y024250D03*
X031662Y023250D03*
X032331Y023250D03*
X024331Y012000D03*
X023662Y012000D03*
X017831Y015000D03*
X017831Y016000D03*
X017162Y016000D03*
X017162Y015000D03*
X017247Y029415D03*
X017247Y030085D03*
X014497Y030085D03*
X014497Y029415D03*
X013331Y032750D03*
X012662Y032750D03*
X020747Y030085D03*
X020747Y029415D03*
X026412Y054500D03*
X027081Y054500D03*
X027081Y055250D03*
X026412Y055250D03*
X026412Y056000D03*
X027081Y056000D03*
X027081Y056750D03*
X026412Y056750D03*
X023581Y070750D03*
X022912Y070750D03*
X024247Y071665D03*
X024247Y072335D03*
X010497Y065585D03*
X010497Y064915D03*
X006581Y063250D03*
X006581Y062250D03*
X005912Y062250D03*
X005912Y063250D03*
X003081Y063250D03*
X003081Y062250D03*
X002412Y062250D03*
X002412Y063250D03*
X002081Y066250D03*
X002081Y067000D03*
X002081Y067750D03*
X002081Y068500D03*
X002081Y069250D03*
X002081Y070000D03*
X001412Y070000D03*
X001412Y069250D03*
X001412Y068500D03*
X001412Y067750D03*
X001412Y067000D03*
X001412Y066250D03*
X002912Y075750D03*
X002912Y076500D03*
X002912Y077250D03*
X002912Y078000D03*
X002912Y078750D03*
X002912Y079500D03*
X003581Y079500D03*
X003581Y078750D03*
X003581Y078000D03*
X003581Y077250D03*
X003581Y076500D03*
X003581Y075750D03*
X043412Y052000D03*
X044081Y052000D03*
D20*
X041497Y055654D03*
X041497Y057346D03*
D21*
X043195Y054500D03*
X043195Y053250D03*
X044298Y053250D03*
X044298Y054500D03*
X036798Y055750D03*
X035695Y055750D03*
X035695Y057000D03*
X036798Y057000D03*
X029548Y053250D03*
X028445Y053250D03*
D22*
X042821Y056500D03*
X044672Y056500D03*
D23*
X044333Y074750D03*
X044333Y075750D03*
X044333Y076750D03*
X044333Y077750D03*
X045160Y077750D03*
X045160Y076750D03*
X045160Y075750D03*
X045160Y074750D03*
X031497Y068163D03*
X031497Y067337D03*
X030497Y067337D03*
X030497Y068163D03*
X029497Y068163D03*
X029497Y067337D03*
X028497Y067337D03*
X028497Y068163D03*
X027497Y068163D03*
X027497Y067337D03*
X026497Y067337D03*
X026497Y068163D03*
X025247Y079087D03*
X025247Y079913D03*
X003660Y070000D03*
X003660Y069250D03*
X003660Y068500D03*
X003660Y067750D03*
X003660Y067000D03*
X003660Y066250D03*
X002833Y066250D03*
X002833Y067000D03*
X002833Y067750D03*
X002833Y068500D03*
X002833Y069250D03*
X002833Y070000D03*
X002160Y075750D03*
X002160Y076500D03*
X002160Y077250D03*
X002160Y078000D03*
X002160Y078750D03*
X002160Y079500D03*
X001333Y079500D03*
X001333Y078750D03*
X001333Y078000D03*
X001333Y077250D03*
X001333Y076500D03*
X001333Y075750D03*
D24*
X005747Y071274D03*
X006247Y071274D03*
X006747Y071274D03*
X007247Y071274D03*
X007997Y071274D03*
X008497Y071274D03*
X008997Y071274D03*
X009497Y071274D03*
X010247Y071274D03*
X010747Y071274D03*
X011247Y071274D03*
X011747Y071274D03*
X012497Y071274D03*
X012997Y071274D03*
X013497Y071274D03*
X013997Y071274D03*
X014747Y071274D03*
X015247Y071274D03*
X015747Y071274D03*
X016247Y071274D03*
X016997Y071274D03*
X017497Y071274D03*
X017997Y071274D03*
X018497Y071274D03*
X018497Y069226D03*
X017997Y069226D03*
X017497Y069226D03*
X016997Y069226D03*
X016247Y069226D03*
X015747Y069226D03*
X015247Y069226D03*
X014747Y069226D03*
X013997Y069226D03*
X013497Y069226D03*
X012997Y069226D03*
X012497Y069226D03*
X011747Y069226D03*
X011247Y069226D03*
X010747Y069226D03*
X010247Y069226D03*
X009497Y069226D03*
X008997Y069226D03*
X008497Y069226D03*
X007997Y069226D03*
X007247Y069226D03*
X006747Y069226D03*
X006247Y069226D03*
X005747Y069226D03*
X020997Y069774D03*
X021497Y069774D03*
X021997Y069774D03*
X022497Y069774D03*
X022497Y067726D03*
X021997Y067726D03*
X021497Y067726D03*
X020997Y067726D03*
X038247Y067726D03*
X038747Y067726D03*
X039247Y067726D03*
X039747Y067726D03*
X040497Y067726D03*
X040997Y067726D03*
X041497Y067726D03*
X041997Y067726D03*
X041997Y069774D03*
X041497Y069774D03*
X040997Y069774D03*
X040497Y069774D03*
X039747Y069774D03*
X039247Y069774D03*
X038747Y069774D03*
X038247Y069774D03*
D25*
X034047Y025250D03*
X037497Y013000D03*
X030247Y013000D03*
X003447Y055500D03*
X001247Y038500D03*
X009316Y078941D03*
D26*
X006575Y079500D03*
X016418Y079500D03*
D27*
X015497Y074852D03*
X015497Y072648D03*
X013247Y072648D03*
X013247Y074852D03*
X010997Y074852D03*
X010997Y072648D03*
X008747Y072648D03*
X008747Y074852D03*
X006497Y074852D03*
X006497Y072648D03*
X017747Y072648D03*
X017747Y074852D03*
X021747Y073102D03*
X021747Y070898D03*
X038997Y070898D03*
X038997Y073102D03*
X041247Y073102D03*
X041247Y070898D03*
X041747Y053102D03*
X041747Y050898D03*
D28*
X043373Y051262D03*
X043747Y051262D03*
X044121Y051262D03*
X044121Y050238D03*
X043373Y050238D03*
X043121Y071488D03*
X042747Y071488D03*
X042373Y071488D03*
X042373Y072512D03*
X043121Y072512D03*
X037371Y072512D03*
X036623Y072512D03*
X036623Y071488D03*
X036997Y071488D03*
X037371Y071488D03*
X023621Y071488D03*
X023247Y071488D03*
X022873Y071488D03*
X022873Y072512D03*
X023621Y072512D03*
X020121Y073238D03*
X019747Y073238D03*
X019373Y073238D03*
X019373Y074262D03*
X020121Y074262D03*
X004871Y074262D03*
X004123Y074262D03*
X004123Y073238D03*
X004497Y073238D03*
X004871Y073238D03*
D29*
X011095Y065899D03*
X011351Y065899D03*
X011607Y065899D03*
X011863Y065899D03*
X012119Y065899D03*
X012375Y065899D03*
X012631Y065899D03*
X012886Y065899D03*
X013142Y065899D03*
X013398Y065899D03*
X013398Y063601D03*
X013142Y063601D03*
X012886Y063601D03*
X012631Y063601D03*
X012375Y063601D03*
X012119Y063601D03*
X011863Y063601D03*
X011607Y063601D03*
X011351Y063601D03*
X011095Y063601D03*
X017845Y030899D03*
X018101Y030899D03*
X018357Y030899D03*
X018613Y030899D03*
X018869Y030899D03*
X019125Y030899D03*
X019381Y030899D03*
X019636Y030899D03*
X019892Y030899D03*
X020148Y030899D03*
X020148Y028601D03*
X019892Y028601D03*
X019636Y028601D03*
X019381Y028601D03*
X019125Y028601D03*
X018869Y028601D03*
X018613Y028601D03*
X018357Y028601D03*
X018101Y028601D03*
X017845Y028601D03*
D30*
X005645Y056854D03*
X005645Y057110D03*
X005645Y057366D03*
X005645Y057622D03*
X005645Y057878D03*
X005645Y058134D03*
X005645Y058390D03*
X005645Y058646D03*
X005645Y059604D03*
X005645Y059860D03*
X005645Y060116D03*
X005645Y060372D03*
X005645Y060628D03*
X005645Y060884D03*
X005645Y061140D03*
X005645Y061396D03*
X003348Y061396D03*
X003348Y061140D03*
X003348Y060884D03*
X003348Y060628D03*
X003348Y060372D03*
X003348Y060116D03*
X003348Y059860D03*
X003348Y059604D03*
X003348Y058646D03*
X003348Y058390D03*
X003348Y058134D03*
X003348Y057878D03*
X003348Y057622D03*
X003348Y057366D03*
X003348Y057110D03*
X003348Y056854D03*
X029848Y061098D03*
X029848Y061354D03*
X029848Y061610D03*
X029848Y061866D03*
X029848Y062122D03*
X029848Y062378D03*
X029848Y062634D03*
X029848Y062890D03*
X029848Y063146D03*
X029848Y063402D03*
X032145Y063402D03*
X032145Y063146D03*
X032145Y062890D03*
X032145Y062634D03*
X032145Y062378D03*
X032145Y062122D03*
X032145Y061866D03*
X032145Y061610D03*
X032145Y061354D03*
X032145Y061098D03*
D31*
X036497Y077750D03*
X021747Y077750D03*
X035247Y043250D03*
X035247Y037250D03*
X035247Y031250D03*
X035247Y025250D03*
X035247Y018250D03*
X010247Y035750D03*
X006997Y035750D03*
D32*
X006997Y034750D03*
X006997Y033750D03*
X010247Y033750D03*
X010247Y034750D03*
X035247Y035250D03*
X035247Y036250D03*
X035247Y041250D03*
X035247Y042250D03*
X035247Y030250D03*
X035247Y029250D03*
X035247Y024250D03*
X035247Y023250D03*
X035247Y022250D03*
X035247Y017250D03*
X035247Y016250D03*
X037497Y077750D03*
X038497Y077750D03*
X039497Y077750D03*
X040497Y077750D03*
X022747Y077750D03*
D33*
X023297Y081150D03*
X021197Y081150D03*
X035947Y081150D03*
X041047Y081150D03*
X038647Y043800D03*
X038647Y040700D03*
X038647Y037800D03*
X038647Y034700D03*
X038647Y031800D03*
X038647Y028700D03*
X038647Y025800D03*
X038647Y021700D03*
X038647Y018800D03*
X038647Y015700D03*
X009947Y032150D03*
X006697Y032150D03*
X006697Y037350D03*
X009947Y037350D03*
D34*
X019247Y060000D03*
X020247Y060000D03*
X021247Y060000D03*
X022247Y060000D03*
X023247Y060000D03*
X024247Y060000D03*
X024247Y061000D03*
X023247Y061000D03*
X022247Y061000D03*
X021247Y061000D03*
X020247Y061000D03*
X019247Y061000D03*
X044247Y063750D03*
X044247Y064750D03*
X044247Y065750D03*
X044247Y066750D03*
X044247Y067750D03*
X045247Y067750D03*
X045247Y066750D03*
X045247Y065750D03*
X045247Y064750D03*
X045247Y063750D03*
X045247Y068750D03*
X045247Y069750D03*
X045247Y070750D03*
X044247Y070750D03*
X044247Y069750D03*
X044247Y068750D03*
D35*
X031997Y078909D02*
X031997Y080091D01*
X028247Y080091D02*
X028247Y078909D01*
D36*
X021247Y055000D03*
X021247Y039000D03*
D37*
X024997Y071272D03*
X024997Y072728D03*
X022247Y074022D03*
X022247Y075478D03*
X021247Y075478D03*
X021247Y074022D03*
X018247Y075772D03*
X018247Y077228D03*
X017247Y077228D03*
X017247Y075772D03*
X015997Y075772D03*
X015997Y077228D03*
X014997Y077228D03*
X014997Y075772D03*
X013747Y075772D03*
X013747Y077228D03*
X012747Y077228D03*
X012747Y075772D03*
X011497Y075772D03*
X011497Y077228D03*
X010497Y077228D03*
X010497Y075772D03*
X009247Y075772D03*
X009247Y077228D03*
X008247Y077228D03*
X008247Y075772D03*
X006997Y075772D03*
X006997Y077228D03*
X005997Y077228D03*
X005997Y075772D03*
X034747Y074728D03*
X035747Y074728D03*
X035747Y073272D03*
X034747Y073272D03*
X038497Y074022D03*
X038497Y075478D03*
X039497Y075478D03*
X039497Y074022D03*
X040747Y074022D03*
X040747Y075478D03*
X041747Y075478D03*
X041747Y074022D03*
D38*
X005068Y063045D03*
X005068Y062848D03*
X005068Y062652D03*
X005068Y062455D03*
X003926Y062455D03*
X003926Y062652D03*
X003926Y062848D03*
X003926Y063045D03*
D39*
X030735Y030624D03*
X030735Y029876D03*
X031755Y029876D03*
X031755Y030250D03*
X031755Y030624D03*
X035739Y052626D03*
X035739Y053000D03*
X035739Y053374D03*
X036758Y053374D03*
X036758Y052626D03*
D40*
X036997Y010500D03*
X034247Y010500D03*
X029747Y010500D03*
X041497Y010500D03*
D41*
X030099Y054982D03*
X030099Y055238D03*
X030099Y055494D03*
X030099Y055750D03*
X030099Y056006D03*
X030099Y056262D03*
X030099Y056518D03*
X027894Y056518D03*
X027894Y056262D03*
X027894Y056006D03*
X027894Y055750D03*
X027894Y055494D03*
X027894Y055238D03*
X027894Y054982D03*
D42*
X028997Y055750D03*
D43*
X031650Y053250D03*
X033343Y053250D03*
D44*
X032497Y054648D03*
X032497Y056852D03*
D45*
X022997Y035600D03*
X022997Y034600D03*
X021997Y034600D03*
X021997Y035600D03*
X020997Y035600D03*
X020997Y034600D03*
X019997Y034600D03*
X019997Y035600D03*
X018997Y035600D03*
X018997Y034600D03*
X017997Y034600D03*
X017997Y035600D03*
D46*
X030467Y018000D03*
X030467Y017500D03*
X030467Y017000D03*
X030467Y016500D03*
X032527Y016500D03*
X032527Y017000D03*
X032527Y017500D03*
X032527Y018000D03*
D47*
X015871Y029242D03*
X015497Y029242D03*
X015123Y029242D03*
X015123Y030262D03*
X015871Y030262D03*
D48*
X016097Y031750D03*
X015497Y031750D03*
X014897Y031750D03*
X041447Y076500D03*
X042047Y076500D03*
D49*
X032725Y044750D03*
X031268Y044750D03*
X033268Y039000D03*
X034725Y039000D03*
X031975Y028250D03*
X030518Y028250D03*
X031268Y025000D03*
X032725Y025000D03*
X032725Y022500D03*
X031268Y022500D03*
X013725Y032000D03*
X012268Y032000D03*
D50*
X030997Y057950D03*
X030997Y058550D03*
D51*
X030997Y058250D03*
D52*
X041747Y076500D03*
D53*
X029997Y074030D03*
X029497Y074030D03*
X028997Y074030D03*
X028497Y074030D03*
X028497Y071970D03*
X028997Y071970D03*
X029497Y071970D03*
X029997Y071970D03*
D54*
X031747Y071701D03*
X031747Y074299D03*
D55*
X009812Y061222D03*
X009812Y060907D03*
X009812Y060593D03*
X009812Y060278D03*
X009812Y059722D03*
X009812Y059407D03*
X009812Y059093D03*
X009812Y058778D03*
X009812Y058222D03*
X009812Y057907D03*
X009812Y057593D03*
X009812Y057278D03*
X009812Y056722D03*
X009812Y056407D03*
X009812Y056093D03*
X009812Y055778D03*
X009182Y055778D03*
X009182Y056093D03*
X009182Y056407D03*
X009182Y056722D03*
X009182Y057278D03*
X009182Y057593D03*
X009182Y057907D03*
X009182Y058222D03*
X009182Y058778D03*
X009182Y059093D03*
X009182Y059407D03*
X009182Y059722D03*
X009182Y060278D03*
X009182Y060593D03*
X009182Y060907D03*
X009182Y061222D03*
D56*
X036247Y051050D02*
X036247Y050450D01*
X037247Y050450D02*
X037247Y051050D01*
X038247Y051050D02*
X038247Y050450D01*
X038747Y061950D02*
X038747Y062550D01*
X039747Y062550D02*
X039747Y061950D01*
X040747Y061950D02*
X040747Y062550D01*
D57*
X042497Y063250D03*
X040497Y065000D03*
X037497Y067750D03*
X036997Y062250D03*
X036997Y058000D03*
X042497Y050000D03*
X044997Y048250D03*
X042497Y042750D03*
X042747Y039500D03*
X040247Y039500D03*
X038747Y036250D03*
X030497Y048750D03*
X030497Y053250D03*
X033497Y067750D03*
X033518Y074000D03*
X037897Y074022D03*
X040147Y074000D03*
X043747Y060250D03*
X025247Y075000D03*
X019497Y069250D03*
X044997Y015250D03*
X043747Y009750D03*
X042497Y008250D03*
D58*
X030497Y031250D03*
X030747Y042500D03*
X023247Y056350D03*
X019247Y052500D03*
X019247Y049915D03*
X014747Y053000D03*
X014747Y056350D03*
X014747Y042500D03*
X017997Y042500D03*
X016747Y075750D03*
X014497Y075750D03*
X012247Y075750D03*
X009997Y075750D03*
X007747Y075750D03*
X005497Y075750D03*
X020497Y075750D03*
X041497Y049750D03*
X044747Y062250D03*
M02*
