G75*
%MOIN*%
%OFA0B0*%
%FSLAX24Y24*%
%IPPOS*%
%LPD*%
%AMOC8*
5,1,8,0,0,1.08239X$1,22.5*
%
%ADD10R,0.0946X0.0316*%
%ADD11R,0.0470X0.0352*%
%ADD12R,0.0474X0.0513*%
%ADD13R,0.0513X0.0474*%
%ADD14R,0.0730X0.0730*%
%ADD15C,0.0730*%
%ADD16C,0.1420*%
%ADD17R,0.0356X0.0552*%
%ADD18C,0.0595*%
%ADD19R,0.0552X0.0356*%
%ADD20R,0.0552X0.0552*%
%ADD21R,0.0560X0.0960*%
%ADD22R,0.1497X0.0946*%
%ADD23R,0.0789X0.0710*%
%ADD24C,0.0749*%
%ADD25C,0.2380*%
%ADD26C,0.1143*%
%ADD27C,0.1175*%
%ADD28C,0.0476*%
%ADD29C,0.0480*%
%ADD30C,0.1480*%
%ADD31C,0.0560*%
%ADD32C,0.0390*%
D10*
X015776Y010800D03*
X015776Y011300D03*
X015776Y011800D03*
X015776Y012300D03*
X015776Y012800D03*
X015776Y013300D03*
X015776Y013800D03*
X017824Y013800D03*
X017824Y013300D03*
X017824Y012800D03*
X017824Y012300D03*
X017824Y011800D03*
X017824Y011300D03*
X017824Y010800D03*
X017824Y015550D03*
X017824Y016050D03*
X017824Y016550D03*
X017824Y017050D03*
X015776Y017050D03*
X015776Y016550D03*
X015776Y016050D03*
X015776Y015550D03*
X010824Y015550D03*
X010824Y016050D03*
X010824Y016550D03*
X010824Y017050D03*
X008776Y017050D03*
X008776Y016550D03*
X008776Y016050D03*
X008776Y015550D03*
D11*
X013288Y015926D03*
X014308Y015926D03*
X014308Y016300D03*
X014308Y016674D03*
X013288Y016674D03*
X019292Y016674D03*
X019292Y016300D03*
X019292Y015926D03*
X020312Y015926D03*
X020312Y016674D03*
D12*
X020135Y013800D03*
X019465Y013800D03*
X019465Y011800D03*
X020135Y011800D03*
X020135Y010800D03*
X019465Y010800D03*
X014135Y010800D03*
X013465Y010800D03*
X013465Y011800D03*
X014135Y011800D03*
X014135Y013800D03*
X013465Y013800D03*
X008135Y013800D03*
X007465Y013800D03*
X007465Y012800D03*
X008135Y012800D03*
X008135Y011800D03*
X007465Y011800D03*
X007465Y010800D03*
X008135Y010800D03*
X024965Y007050D03*
X025635Y007050D03*
X029215Y007050D03*
X029885Y007050D03*
X033465Y007050D03*
X034135Y007050D03*
X037715Y007050D03*
X038385Y007050D03*
X041965Y007050D03*
X042635Y007050D03*
X046215Y007050D03*
X046885Y007050D03*
D13*
X021300Y015965D03*
X021300Y016635D03*
X020135Y017800D03*
X019465Y017800D03*
X014135Y017800D03*
X013465Y017800D03*
X012300Y016635D03*
X012300Y015965D03*
X013465Y014800D03*
X014135Y014800D03*
X014135Y012800D03*
X013465Y012800D03*
X019465Y012800D03*
X020135Y012800D03*
X020135Y014800D03*
X019465Y014800D03*
X019465Y009800D03*
X020135Y009800D03*
X019800Y008135D03*
X019800Y007465D03*
X014135Y009800D03*
X013465Y009800D03*
X013800Y008135D03*
X013800Y007465D03*
X010800Y007465D03*
X009800Y007465D03*
X009800Y008135D03*
X010800Y008135D03*
D14*
X008800Y005800D03*
X015800Y005800D03*
X022300Y005800D03*
X027550Y005800D03*
X032800Y005800D03*
X038050Y005800D03*
D15*
X037050Y005800D03*
X031800Y005800D03*
X026550Y005800D03*
X021300Y005800D03*
X020300Y005800D03*
X014800Y005800D03*
X013800Y005800D03*
X007800Y005800D03*
X006800Y005800D03*
X005800Y005800D03*
X004800Y005800D03*
D16*
X004250Y002400D03*
X009350Y002400D03*
X013250Y002400D03*
X016350Y002400D03*
X019750Y002400D03*
X022850Y002400D03*
X026000Y002400D03*
X028100Y002400D03*
X031250Y002400D03*
X033350Y002400D03*
X036500Y002400D03*
X038600Y002400D03*
D17*
X020800Y007072D03*
X018800Y007072D03*
X018800Y008528D03*
X020800Y008528D03*
X014800Y008528D03*
X012800Y008528D03*
X011800Y008528D03*
X008800Y008528D03*
X008800Y007072D03*
X011800Y007072D03*
X012800Y007072D03*
X014800Y007072D03*
X002300Y010572D03*
X001300Y010572D03*
X001300Y012028D03*
X002300Y012028D03*
X002300Y013572D03*
X001300Y013572D03*
X001300Y015028D03*
X002300Y015028D03*
D18*
X003543Y015300D02*
X004057Y015300D01*
X005543Y015300D02*
X006057Y015300D01*
X006057Y014300D02*
X005543Y014300D01*
X004057Y014300D02*
X003543Y014300D01*
X003543Y013300D02*
X004057Y013300D01*
X005543Y013300D02*
X006057Y013300D01*
X006057Y012300D02*
X005543Y012300D01*
X004057Y012300D02*
X003543Y012300D01*
X003543Y010300D02*
X004057Y010300D01*
X005543Y010300D02*
X006057Y010300D01*
D19*
X005528Y009300D03*
X004072Y009300D03*
X004072Y016300D03*
X005528Y016300D03*
D20*
X008887Y013800D03*
X009713Y013800D03*
X009713Y012800D03*
X008887Y012800D03*
X008887Y011800D03*
X009713Y011800D03*
X009713Y010800D03*
X008887Y010800D03*
X024887Y008050D03*
X025713Y008050D03*
X029137Y008050D03*
X029963Y008050D03*
X033387Y008050D03*
X034213Y008050D03*
X037637Y008050D03*
X038463Y008050D03*
X041887Y008050D03*
X042713Y008050D03*
X046137Y008050D03*
X046963Y008050D03*
D21*
X025210Y017080D03*
X024300Y017080D03*
X023390Y017080D03*
D22*
X024300Y019520D03*
D23*
X022300Y018851D03*
X022300Y017749D03*
X026300Y017749D03*
X026300Y018851D03*
D24*
X028861Y018339D03*
X030239Y018339D03*
X033111Y018339D03*
X034489Y018339D03*
X037361Y018339D03*
X038739Y018339D03*
X041611Y018339D03*
X042989Y018339D03*
X042739Y002261D03*
X041361Y002261D03*
D25*
X001800Y001800D03*
X001800Y018800D03*
X047050Y018800D03*
X047050Y001800D03*
D26*
X046550Y011800D03*
X042300Y011800D03*
X038050Y011800D03*
X033800Y011800D03*
X029550Y011800D03*
X025300Y011800D03*
D27*
X025300Y009910D03*
X029550Y009910D03*
X033800Y009910D03*
X038050Y009910D03*
X042300Y009910D03*
X046550Y009910D03*
X046550Y013690D03*
X042300Y013690D03*
X038050Y013690D03*
X033800Y013690D03*
X029550Y013690D03*
X025300Y013690D03*
D28*
X021050Y014300D03*
X021050Y015300D03*
X019800Y015300D03*
X019050Y015300D03*
X017800Y015050D03*
X016550Y015550D03*
X016800Y016050D03*
X016800Y017050D03*
X015800Y017800D03*
X013550Y018800D03*
X009800Y017050D03*
X008800Y017800D03*
X004800Y017800D03*
X001800Y016550D03*
X000800Y017050D03*
X001800Y015550D03*
X001800Y014550D03*
X002300Y012800D03*
X002750Y012050D03*
X004450Y011650D03*
X004800Y012300D03*
X006800Y012300D03*
X007800Y012300D03*
X008550Y011300D03*
X010550Y012300D03*
X011050Y011300D03*
X013050Y012300D03*
X014800Y011800D03*
X017050Y011800D03*
X018550Y011300D03*
X019050Y010300D03*
X021050Y011300D03*
X020550Y012300D03*
X018550Y014300D03*
X014800Y014300D03*
X012550Y014300D03*
X013800Y013300D03*
X013800Y015300D03*
X014550Y015550D03*
X007300Y014800D03*
X007300Y009800D03*
X009800Y009550D03*
X010550Y009550D03*
X015300Y007050D03*
X017050Y007050D03*
X021300Y007050D03*
X012300Y006550D03*
X010800Y001300D03*
X022050Y016300D03*
X021300Y018800D03*
X020300Y018800D03*
D29*
X026300Y016800D03*
X026300Y013800D03*
D30*
X038800Y015300D03*
D31*
X032300Y010800D03*
X027550Y011800D03*
X039800Y001050D03*
D32*
X019800Y006300D03*
M02*
