%
M48
M72
T01C0.0150
T02C0.0236
T03C0.0240
T04C0.0315
T05C0.0320
T06C0.0433
T07C0.0709
T08C0.0730
T09C0.1000
T10C0.1260
T11C0.1340
%
T01
X19800Y6300
T02
X21300Y7050
X17050Y7050
X15300Y7050
X12300Y6550
X10550Y9550
X9800Y9550
X7300Y9800
X8550Y11300
X7800Y12300
X6800Y12300
X4800Y12300
X4450Y11650
X2750Y12050
X2300Y12800
X1800Y14550
X1800Y15550
X1800Y16550
X800Y17050
X4800Y17800
X8800Y17800
X9800Y17050
X13800Y15300
X14550Y15550
X16550Y15550
X16800Y16050
X17800Y15050
X19050Y15300
X19800Y15300
X21050Y15300
X21050Y14300
X18550Y14300
X14800Y14300
X12550Y14300
X13800Y13300
X13050Y12300
X14800Y11800
X17050Y11800
X18550Y11300
X19050Y10300
X21050Y11300
X20550Y12300
X11050Y11300
X10550Y12300
X7300Y14800
X15800Y17800
X16800Y17050
X13550Y18800
X20300Y18800
X21300Y18800
X22050Y16300
X10800Y1300
T03
X26300Y13800
X26300Y16800
T04
X5800Y15300
X3800Y15300
X3800Y14300
X5800Y14300
X5800Y13300
X3800Y13300
X3800Y12300
X5800Y12300
X5800Y10300
X3800Y10300
T05
X27550Y11800
X32300Y10800
X39800Y1050
T06
X41361Y2261
X42739Y2261
X38050Y5800
X37050Y5800
X32800Y5800
X31800Y5800
X27550Y5800
X26550Y5800
X22300Y5800
X21300Y5800
X20300Y5800
X15800Y5800
X14800Y5800
X13800Y5800
X8800Y5800
X7800Y5800
X6800Y5800
X5800Y5800
X4800Y5800
X28861Y18339
X30239Y18339
X33111Y18339
X34489Y18339
X37361Y18339
X38739Y18339
X41611Y18339
X42989Y18339
T07
X42300Y11800
X38050Y11800
X33800Y11800
X29550Y11800
X25300Y11800
X46550Y11800
T08
X46550Y9910
X42300Y9910
X38050Y9910
X33800Y9910
X29550Y9910
X25300Y9910
X25300Y13690
X29550Y13690
X33800Y13690
X38050Y13690
X42300Y13690
X46550Y13690
T09
X38800Y15300
T10
X1800Y1800
X1800Y18800
X47050Y18800
X47050Y1800
T11
X38600Y2400
X36500Y2400
X33350Y2400
X31250Y2400
X28100Y2400
X26000Y2400
X22850Y2400
X19750Y2400
X16350Y2400
X13250Y2400
X9350Y2400
X4250Y2400
M30
