G75*
%MOIN*%
%OFA0B0*%
%FSLAX24Y24*%
%IPPOS*%
%LPD*%
%AMOC8*
5,1,8,0,0,1.08239X$1,22.5*
%
%ADD10R,0.0650X0.0650*%
%ADD11C,0.0650*%
%ADD12C,0.0515*%
%ADD13C,0.0669*%
%ADD14C,0.2300*%
%ADD15C,0.1063*%
%ADD16C,0.1095*%
%ADD17C,0.0160*%
%ADD18C,0.0396*%
%ADD19C,0.0240*%
%ADD20C,0.0120*%
%ADD21C,0.0400*%
%ADD22C,0.1000*%
%ADD23C,0.1400*%
%ADD24C,0.0320*%
%ADD25C,0.0480*%
%ADD26C,0.0100*%
%ADD27C,0.0310*%
D10*
X008800Y005800D03*
X015800Y005800D03*
X022300Y005800D03*
X027550Y005800D03*
X032800Y005800D03*
X038050Y005800D03*
D11*
X037050Y005800D03*
X031800Y005800D03*
X026550Y005800D03*
X021300Y005800D03*
X020300Y005800D03*
X014800Y005800D03*
X013800Y005800D03*
X007800Y005800D03*
X006800Y005800D03*
X005800Y005800D03*
X004800Y005800D03*
D12*
X004057Y010300D02*
X003543Y010300D01*
X005543Y010300D02*
X006057Y010300D01*
X006057Y012300D02*
X005543Y012300D01*
X004057Y012300D02*
X003543Y012300D01*
X003543Y013300D02*
X004057Y013300D01*
X005543Y013300D02*
X006057Y013300D01*
X006057Y014300D02*
X005543Y014300D01*
X004057Y014300D02*
X003543Y014300D01*
X003543Y015300D02*
X004057Y015300D01*
X005543Y015300D02*
X006057Y015300D01*
D13*
X028861Y018339D03*
X030239Y018339D03*
X033111Y018339D03*
X034489Y018339D03*
X037361Y018339D03*
X038739Y018339D03*
X041611Y018339D03*
X042989Y018339D03*
X042739Y002261D03*
X041361Y002261D03*
D14*
X047050Y001800D03*
X047050Y018800D03*
X001800Y018800D03*
X001800Y001800D03*
D15*
X025300Y011800D03*
X029550Y011800D03*
X033800Y011800D03*
X038050Y011800D03*
X042300Y011800D03*
X046550Y011800D03*
D16*
X046550Y009910D03*
X042300Y009910D03*
X038050Y009910D03*
X033800Y009910D03*
X029550Y009910D03*
X025300Y009910D03*
X025300Y013690D03*
X029550Y013690D03*
X033800Y013690D03*
X038050Y013690D03*
X042300Y013690D03*
X046550Y013690D03*
D17*
X002694Y000813D02*
X002654Y000780D01*
X010867Y000780D01*
X010689Y000958D01*
X010597Y000996D01*
X010496Y001097D01*
X010442Y001229D01*
X010442Y001371D01*
X010496Y001503D01*
X010597Y001604D01*
X010729Y001658D01*
X010871Y001658D01*
X011003Y001604D01*
X011104Y001503D01*
X011142Y001411D01*
X011433Y001120D01*
X039400Y001120D01*
X039400Y001130D01*
X039461Y001277D01*
X039573Y001389D01*
X039720Y001450D01*
X039880Y001450D01*
X040027Y001389D01*
X040139Y001277D01*
X040200Y001130D01*
X040200Y000970D01*
X040139Y000823D01*
X040096Y000780D01*
X046196Y000780D01*
X046156Y000813D01*
X046063Y000906D01*
X045980Y001007D01*
X045908Y001115D01*
X045846Y001231D01*
X045796Y001351D01*
X045758Y001476D01*
X045733Y001605D01*
X045721Y001720D01*
X046970Y001720D01*
X046970Y001880D01*
X046970Y003129D01*
X046855Y003117D01*
X046726Y003092D01*
X046601Y003054D01*
X046481Y003004D01*
X046365Y002942D01*
X046257Y002870D01*
X046156Y002787D01*
X046063Y002694D01*
X045980Y002593D01*
X045908Y002485D01*
X045846Y002369D01*
X045796Y002249D01*
X045758Y002124D01*
X045733Y001995D01*
X045721Y001880D01*
X046970Y001880D01*
X047130Y001880D01*
X047130Y003129D01*
X047245Y003117D01*
X047374Y003092D01*
X047499Y003054D01*
X047619Y003004D01*
X047735Y002942D01*
X047843Y002870D01*
X047944Y002787D01*
X048037Y002694D01*
X048070Y002654D01*
X048070Y017946D01*
X048037Y017906D01*
X047944Y017813D01*
X047843Y017730D01*
X047735Y017658D01*
X047619Y017596D01*
X047499Y017546D01*
X047374Y017508D01*
X047245Y017483D01*
X047130Y017471D01*
X047130Y018720D01*
X046970Y018720D01*
X046970Y017471D01*
X046855Y017483D01*
X046726Y017508D01*
X046601Y017546D01*
X046481Y017596D01*
X046365Y017658D01*
X046257Y017730D01*
X046156Y017813D01*
X046063Y017906D01*
X045980Y018007D01*
X045908Y018115D01*
X045846Y018231D01*
X045796Y018351D01*
X045758Y018476D01*
X045733Y018605D01*
X045721Y018720D01*
X046970Y018720D01*
X046970Y018880D01*
X045721Y018880D01*
X045733Y018995D01*
X045758Y019124D01*
X045796Y019249D01*
X045846Y019369D01*
X045908Y019485D01*
X045980Y019593D01*
X046063Y019694D01*
X046156Y019787D01*
X046196Y019820D01*
X002654Y019820D01*
X002694Y019787D01*
X002787Y019694D01*
X002870Y019593D01*
X002942Y019485D01*
X003004Y019369D01*
X003054Y019249D01*
X003092Y019124D01*
X003117Y018995D01*
X003129Y018880D01*
X001880Y018880D01*
X001880Y018720D01*
X003129Y018720D01*
X003117Y018605D01*
X003092Y018476D01*
X003054Y018351D01*
X003004Y018231D01*
X002942Y018115D01*
X002870Y018007D01*
X002787Y017906D01*
X002694Y017813D01*
X002593Y017730D01*
X002485Y017658D01*
X002369Y017596D01*
X002249Y017546D01*
X002124Y017508D01*
X001995Y017483D01*
X001880Y017471D01*
X001880Y018720D01*
X001720Y018720D01*
X001720Y017471D01*
X001605Y017483D01*
X001476Y017508D01*
X001351Y017546D01*
X001231Y017596D01*
X001115Y017658D01*
X001007Y017730D01*
X000906Y017813D01*
X000813Y017906D01*
X000780Y017946D01*
X000780Y017408D01*
X000871Y017408D01*
X001003Y017354D01*
X001086Y017270D01*
X009514Y017270D01*
X009597Y017354D01*
X009729Y017408D01*
X009871Y017408D01*
X010003Y017354D01*
X010104Y017253D01*
X010158Y017121D01*
X010158Y016979D01*
X010151Y016962D01*
X010209Y017020D01*
X016442Y017020D01*
X016442Y017121D01*
X016496Y017253D01*
X016597Y017354D01*
X016729Y017408D01*
X016871Y017408D01*
X017003Y017354D01*
X017104Y017253D01*
X017158Y017121D01*
X017158Y016979D01*
X017104Y016847D01*
X017003Y016746D01*
X016871Y016692D01*
X016753Y016692D01*
X016641Y016580D01*
X010391Y016580D01*
X010241Y016430D01*
X009559Y016430D01*
X009430Y016559D01*
X009409Y016580D01*
X002158Y016580D01*
X002158Y016479D01*
X002104Y016347D01*
X002003Y016246D01*
X001871Y016192D01*
X001729Y016192D01*
X001597Y016246D01*
X001496Y016347D01*
X001442Y016479D01*
X001442Y016621D01*
X001496Y016753D01*
X001574Y016830D01*
X001086Y016830D01*
X001003Y016746D01*
X000871Y016692D01*
X000780Y016692D01*
X000780Y002654D01*
X000813Y002694D01*
X000906Y002787D01*
X001007Y002870D01*
X001115Y002942D01*
X001231Y003004D01*
X001351Y003054D01*
X001476Y003092D01*
X001605Y003117D01*
X001720Y003129D01*
X001720Y001880D01*
X001880Y001880D01*
X001880Y003129D01*
X001995Y003117D01*
X002124Y003092D01*
X002249Y003054D01*
X002369Y003004D01*
X002485Y002942D01*
X002593Y002870D01*
X002694Y002787D01*
X002787Y002694D01*
X002870Y002593D01*
X002942Y002485D01*
X003004Y002369D01*
X003054Y002249D01*
X003092Y002124D01*
X003117Y001995D01*
X003129Y001880D01*
X001880Y001880D01*
X001880Y001720D01*
X003129Y001720D01*
X003117Y001605D01*
X003092Y001476D01*
X003054Y001351D01*
X003004Y001231D01*
X002942Y001115D01*
X002870Y001007D01*
X002787Y000906D01*
X002694Y000813D01*
X002810Y000934D02*
X010713Y000934D01*
X010501Y001093D02*
X002927Y001093D01*
X003012Y001251D02*
X004095Y001251D01*
X004099Y001250D02*
X004401Y001250D01*
X004694Y001328D01*
X004956Y001480D01*
X005170Y001694D01*
X005322Y001956D01*
X005400Y002249D01*
X005400Y002551D01*
X005322Y002844D01*
X005170Y003106D01*
X004956Y003320D01*
X004694Y003472D01*
X004401Y003550D01*
X004099Y003550D01*
X003806Y003472D01*
X003544Y003320D01*
X003330Y003106D01*
X003178Y002844D01*
X003100Y002551D01*
X003100Y002249D01*
X003178Y001956D01*
X003330Y001694D01*
X003544Y001480D01*
X003806Y001328D01*
X004099Y001250D01*
X004405Y001251D02*
X009195Y001251D01*
X009199Y001250D02*
X009501Y001250D01*
X009794Y001328D01*
X010056Y001480D01*
X010270Y001694D01*
X010422Y001956D01*
X010500Y002249D01*
X010500Y002551D01*
X010422Y002844D01*
X010270Y003106D01*
X010056Y003320D01*
X009794Y003472D01*
X009501Y003550D01*
X009199Y003550D01*
X008906Y003472D01*
X008644Y003320D01*
X008430Y003106D01*
X008278Y002844D01*
X008200Y002551D01*
X008200Y002249D01*
X008278Y001956D01*
X008430Y001694D01*
X008644Y001480D01*
X008906Y001328D01*
X009199Y001250D01*
X009505Y001251D02*
X010442Y001251D01*
X010458Y001410D02*
X009934Y001410D01*
X010144Y001568D02*
X010562Y001568D01*
X010289Y001727D02*
X012311Y001727D01*
X012330Y001694D02*
X012544Y001480D01*
X012806Y001328D01*
X013099Y001250D01*
X013401Y001250D01*
X013694Y001328D01*
X013956Y001480D01*
X014170Y001694D01*
X014322Y001956D01*
X014400Y002249D01*
X014400Y002551D01*
X014322Y002844D01*
X014170Y003106D01*
X013956Y003320D01*
X013694Y003472D01*
X013401Y003550D01*
X013099Y003550D01*
X012806Y003472D01*
X012544Y003320D01*
X012330Y003106D01*
X012178Y002844D01*
X012100Y002551D01*
X012100Y002249D01*
X012178Y001956D01*
X012330Y001694D01*
X012456Y001568D02*
X011038Y001568D01*
X011143Y001410D02*
X012666Y001410D01*
X013095Y001251D02*
X011302Y001251D01*
X012219Y001885D02*
X010381Y001885D01*
X010445Y002044D02*
X012155Y002044D01*
X012112Y002202D02*
X010488Y002202D01*
X010500Y002361D02*
X012100Y002361D01*
X012100Y002519D02*
X010500Y002519D01*
X010466Y002678D02*
X012134Y002678D01*
X012176Y002836D02*
X010424Y002836D01*
X010335Y002995D02*
X012265Y002995D01*
X012377Y003153D02*
X010223Y003153D01*
X010065Y003312D02*
X012535Y003312D01*
X012803Y003470D02*
X009797Y003470D01*
X008903Y003470D02*
X004697Y003470D01*
X004965Y003312D02*
X008635Y003312D01*
X008477Y003153D02*
X005123Y003153D01*
X005235Y002995D02*
X008365Y002995D01*
X008276Y002836D02*
X005324Y002836D01*
X005366Y002678D02*
X008234Y002678D01*
X008200Y002519D02*
X005400Y002519D01*
X005400Y002361D02*
X008200Y002361D01*
X008212Y002202D02*
X005388Y002202D01*
X005345Y002044D02*
X008255Y002044D01*
X008319Y001885D02*
X005281Y001885D01*
X005189Y001727D02*
X008411Y001727D01*
X008556Y001568D02*
X005044Y001568D01*
X004834Y001410D02*
X008766Y001410D01*
X013405Y001251D02*
X016195Y001251D01*
X016199Y001250D02*
X016501Y001250D01*
X016794Y001328D01*
X017056Y001480D01*
X017270Y001694D01*
X017422Y001956D01*
X017500Y002249D01*
X017500Y002551D01*
X017422Y002844D01*
X017270Y003106D01*
X017056Y003320D01*
X016794Y003472D01*
X016501Y003550D01*
X016199Y003550D01*
X015906Y003472D01*
X015644Y003320D01*
X015430Y003106D01*
X015278Y002844D01*
X015200Y002551D01*
X015200Y002249D01*
X015278Y001956D01*
X015430Y001694D01*
X015644Y001480D01*
X015906Y001328D01*
X016199Y001250D01*
X016505Y001251D02*
X019595Y001251D01*
X019599Y001250D02*
X019901Y001250D01*
X020194Y001328D01*
X020456Y001480D01*
X020670Y001694D01*
X020822Y001956D01*
X020900Y002249D01*
X020900Y002551D01*
X020822Y002844D01*
X020670Y003106D01*
X020456Y003320D01*
X020194Y003472D01*
X019901Y003550D01*
X019599Y003550D01*
X019306Y003472D01*
X019044Y003320D01*
X018830Y003106D01*
X018678Y002844D01*
X018600Y002551D01*
X018600Y002249D01*
X018678Y001956D01*
X018830Y001694D01*
X019044Y001480D01*
X019306Y001328D01*
X019599Y001250D01*
X019905Y001251D02*
X022695Y001251D01*
X022699Y001250D02*
X023001Y001250D01*
X023294Y001328D01*
X023556Y001480D01*
X023770Y001694D01*
X023922Y001956D01*
X024000Y002249D01*
X024000Y002551D01*
X023922Y002844D01*
X023770Y003106D01*
X023556Y003320D01*
X023294Y003472D01*
X023001Y003550D01*
X022699Y003550D01*
X022406Y003472D01*
X022144Y003320D01*
X021930Y003106D01*
X021778Y002844D01*
X021700Y002551D01*
X021700Y002249D01*
X021778Y001956D01*
X021930Y001694D01*
X022144Y001480D01*
X022406Y001328D01*
X022699Y001250D01*
X023005Y001251D02*
X025845Y001251D01*
X025849Y001250D02*
X026151Y001250D01*
X026444Y001328D01*
X026706Y001480D01*
X026920Y001694D01*
X027050Y001919D01*
X027180Y001694D01*
X027394Y001480D01*
X027656Y001328D01*
X027949Y001250D01*
X028251Y001250D01*
X028544Y001328D01*
X028806Y001480D01*
X029020Y001694D01*
X029172Y001956D01*
X029250Y002249D01*
X029250Y002551D01*
X029172Y002844D01*
X029020Y003106D01*
X028806Y003320D01*
X028544Y003472D01*
X028251Y003550D01*
X027949Y003550D01*
X027656Y003472D01*
X027394Y003320D01*
X027180Y003106D01*
X027050Y002881D01*
X026920Y003106D01*
X026706Y003320D01*
X026444Y003472D01*
X026151Y003550D01*
X025849Y003550D01*
X025556Y003472D01*
X025294Y003320D01*
X025080Y003106D01*
X024928Y002844D01*
X024850Y002551D01*
X024850Y002249D01*
X024928Y001956D01*
X025080Y001694D01*
X025294Y001480D01*
X025556Y001328D01*
X025849Y001250D01*
X026155Y001251D02*
X027945Y001251D01*
X028255Y001251D02*
X031095Y001251D01*
X031099Y001250D02*
X031401Y001250D01*
X031694Y001328D01*
X031956Y001480D01*
X032170Y001694D01*
X032300Y001919D01*
X032430Y001694D01*
X032644Y001480D01*
X032906Y001328D01*
X033199Y001250D01*
X033501Y001250D01*
X033794Y001328D01*
X034056Y001480D01*
X034270Y001694D01*
X034422Y001956D01*
X034500Y002249D01*
X034500Y002551D01*
X034422Y002844D01*
X034270Y003106D01*
X034056Y003320D01*
X033794Y003472D01*
X033501Y003550D01*
X033199Y003550D01*
X032906Y003472D01*
X032644Y003320D01*
X032430Y003106D01*
X032300Y002881D01*
X032170Y003106D01*
X031956Y003320D01*
X031694Y003472D01*
X031401Y003550D01*
X031099Y003550D01*
X030806Y003472D01*
X030544Y003320D01*
X030330Y003106D01*
X030178Y002844D01*
X030100Y002551D01*
X030100Y002249D01*
X030178Y001956D01*
X030330Y001694D01*
X030544Y001480D01*
X030806Y001328D01*
X031099Y001250D01*
X031405Y001251D02*
X033195Y001251D01*
X033505Y001251D02*
X036345Y001251D01*
X036349Y001250D02*
X036651Y001250D01*
X036944Y001328D01*
X037206Y001480D01*
X037420Y001694D01*
X037550Y001919D01*
X037680Y001694D01*
X037894Y001480D01*
X038156Y001328D01*
X038449Y001250D01*
X038751Y001250D01*
X039044Y001328D01*
X039306Y001480D01*
X039520Y001694D01*
X039672Y001956D01*
X039750Y002249D01*
X039750Y002551D01*
X039672Y002844D01*
X039520Y003106D01*
X039306Y003320D01*
X039044Y003472D01*
X038751Y003550D01*
X038449Y003550D01*
X038156Y003472D01*
X037894Y003320D01*
X037680Y003106D01*
X037550Y002881D01*
X037420Y003106D01*
X037206Y003320D01*
X036944Y003472D01*
X036651Y003550D01*
X036349Y003550D01*
X036056Y003472D01*
X035794Y003320D01*
X035580Y003106D01*
X035428Y002844D01*
X035350Y002551D01*
X035350Y002249D01*
X035428Y001956D01*
X035580Y001694D01*
X035794Y001480D01*
X036056Y001328D01*
X036349Y001250D01*
X036655Y001251D02*
X038445Y001251D01*
X038755Y001251D02*
X039450Y001251D01*
X039623Y001410D02*
X039184Y001410D01*
X039394Y001568D02*
X045740Y001568D01*
X045779Y001410D02*
X039977Y001410D01*
X040150Y001251D02*
X045838Y001251D01*
X045923Y001093D02*
X040200Y001093D01*
X040185Y000934D02*
X046040Y000934D01*
X046970Y001727D02*
X039539Y001727D01*
X039631Y001885D02*
X041037Y001885D01*
X041081Y001841D02*
X041263Y001766D01*
X041459Y001766D01*
X041641Y001841D01*
X041780Y001980D01*
X041856Y002162D01*
X041856Y002359D01*
X041780Y002541D01*
X041641Y002680D01*
X041459Y002755D01*
X041263Y002755D01*
X041081Y002680D01*
X040942Y002541D01*
X040866Y002359D01*
X040866Y002162D01*
X040942Y001980D01*
X041081Y001841D01*
X040916Y002044D02*
X039695Y002044D01*
X039738Y002202D02*
X040866Y002202D01*
X040867Y002361D02*
X039750Y002361D01*
X039750Y002519D02*
X040933Y002519D01*
X041078Y002678D02*
X039716Y002678D01*
X039674Y002836D02*
X046216Y002836D01*
X046050Y002678D02*
X043041Y002678D01*
X043009Y002701D02*
X042937Y002738D01*
X042859Y002763D01*
X042779Y002775D01*
X042767Y002775D01*
X042767Y002289D01*
X042711Y002289D01*
X042711Y002775D01*
X042698Y002775D01*
X042618Y002763D01*
X042541Y002738D01*
X042469Y002701D01*
X042404Y002653D01*
X042346Y002596D01*
X042299Y002530D01*
X042262Y002458D01*
X042237Y002381D01*
X042224Y002301D01*
X042224Y002289D01*
X042711Y002289D01*
X042711Y002232D01*
X042767Y002232D01*
X042767Y001746D01*
X042779Y001746D01*
X042859Y001759D01*
X042937Y001784D01*
X043009Y001820D01*
X043074Y001868D01*
X043132Y001925D01*
X043179Y001991D01*
X043216Y002063D01*
X043241Y002140D01*
X043254Y002220D01*
X043254Y002232D01*
X042767Y002232D01*
X042767Y002289D01*
X043254Y002289D01*
X043254Y002301D01*
X043241Y002381D01*
X043216Y002458D01*
X043179Y002530D01*
X043132Y002596D01*
X043074Y002653D01*
X043009Y002701D01*
X042767Y002678D02*
X042711Y002678D01*
X042711Y002519D02*
X042767Y002519D01*
X042767Y002361D02*
X042711Y002361D01*
X042711Y002232D02*
X042224Y002232D01*
X042224Y002220D01*
X042237Y002140D01*
X042262Y002063D01*
X042299Y001991D01*
X042346Y001925D01*
X042404Y001868D01*
X042469Y001820D01*
X042541Y001784D01*
X042618Y001759D01*
X042698Y001746D01*
X042711Y001746D01*
X042711Y002232D01*
X042711Y002202D02*
X042767Y002202D01*
X042767Y002044D02*
X042711Y002044D01*
X042711Y001885D02*
X042767Y001885D01*
X043091Y001885D02*
X045722Y001885D01*
X045742Y002044D02*
X043206Y002044D01*
X043251Y002202D02*
X045782Y002202D01*
X045843Y002361D02*
X043244Y002361D01*
X043185Y002519D02*
X045931Y002519D01*
X046463Y002995D02*
X039585Y002995D01*
X039473Y003153D02*
X048070Y003153D01*
X048070Y002995D02*
X047637Y002995D01*
X047884Y002836D02*
X048070Y002836D01*
X048070Y002678D02*
X048050Y002678D01*
X047130Y002678D02*
X046970Y002678D01*
X046970Y002836D02*
X047130Y002836D01*
X047130Y002995D02*
X046970Y002995D01*
X046970Y002519D02*
X047130Y002519D01*
X047130Y002361D02*
X046970Y002361D01*
X046970Y002202D02*
X047130Y002202D01*
X047130Y002044D02*
X046970Y002044D01*
X046970Y001885D02*
X047130Y001885D01*
X048070Y003312D02*
X039315Y003312D01*
X039047Y003470D02*
X048070Y003470D01*
X048070Y003629D02*
X000780Y003629D01*
X000780Y003787D02*
X048070Y003787D01*
X048070Y003946D02*
X000780Y003946D01*
X000780Y004104D02*
X048070Y004104D01*
X048070Y004263D02*
X000780Y004263D01*
X000780Y004421D02*
X048070Y004421D01*
X048070Y004580D02*
X000780Y004580D01*
X000780Y004738D02*
X048070Y004738D01*
X048070Y004897D02*
X000780Y004897D01*
X000780Y005055D02*
X048070Y005055D01*
X048070Y005214D02*
X000780Y005214D01*
X000780Y005372D02*
X004566Y005372D01*
X004525Y005389D02*
X004704Y005315D01*
X004896Y005315D01*
X005075Y005389D01*
X005211Y005525D01*
X005285Y005704D01*
X005285Y005896D01*
X005211Y006075D01*
X005075Y006211D01*
X004896Y006285D01*
X004704Y006285D01*
X004525Y006211D01*
X004389Y006075D01*
X004315Y005896D01*
X004315Y005704D01*
X004389Y005525D01*
X004525Y005389D01*
X004387Y005531D02*
X000780Y005531D01*
X000780Y005689D02*
X004321Y005689D01*
X004315Y005848D02*
X000780Y005848D01*
X000780Y006006D02*
X004361Y006006D01*
X004479Y006165D02*
X000780Y006165D01*
X000780Y006323D02*
X011762Y006323D01*
X011920Y006482D02*
X000780Y006482D01*
X000780Y006640D02*
X011950Y006640D01*
X011942Y006621D02*
X011942Y006503D01*
X011459Y006020D01*
X009285Y006020D01*
X009285Y006191D01*
X009191Y006285D01*
X008409Y006285D01*
X008315Y006191D01*
X008315Y005409D01*
X008409Y005315D01*
X009191Y005315D01*
X009285Y005409D01*
X009285Y005580D01*
X011641Y005580D01*
X012253Y006192D01*
X012371Y006192D01*
X012503Y006246D01*
X012604Y006347D01*
X012658Y006479D01*
X012658Y006621D01*
X012604Y006753D01*
X012503Y006854D01*
X012371Y006908D01*
X012229Y006908D01*
X012097Y006854D01*
X011996Y006753D01*
X011942Y006621D01*
X012042Y006799D02*
X000780Y006799D01*
X000780Y006957D02*
X014951Y006957D01*
X014942Y006979D02*
X014996Y006847D01*
X015097Y006746D01*
X015229Y006692D01*
X015371Y006692D01*
X015503Y006746D01*
X015586Y006830D01*
X016764Y006830D01*
X016847Y006746D01*
X016979Y006692D01*
X017121Y006692D01*
X017253Y006746D01*
X017336Y006830D01*
X021014Y006830D01*
X021097Y006746D01*
X021229Y006692D01*
X021371Y006692D01*
X021503Y006746D01*
X021604Y006847D01*
X021658Y006979D01*
X021658Y007121D01*
X021604Y007253D01*
X021503Y007354D01*
X021371Y007408D01*
X021229Y007408D01*
X021097Y007354D01*
X021014Y007270D01*
X017336Y007270D01*
X017253Y007354D01*
X017121Y007408D01*
X016979Y007408D01*
X016847Y007354D01*
X016764Y007270D01*
X015586Y007270D01*
X015503Y007354D01*
X015371Y007408D01*
X015229Y007408D01*
X015097Y007354D01*
X014996Y007253D01*
X014942Y007121D01*
X014942Y006979D01*
X014942Y007116D02*
X000780Y007116D01*
X000780Y007274D02*
X015018Y007274D01*
X015582Y007274D02*
X016768Y007274D01*
X016795Y006799D02*
X015555Y006799D01*
X015045Y006799D02*
X012558Y006799D01*
X012650Y006640D02*
X038437Y006640D01*
X038279Y006482D02*
X020915Y006482D01*
X020887Y006510D02*
X020035Y006510D01*
X019978Y006567D01*
X019863Y006615D01*
X019737Y006615D01*
X019622Y006567D01*
X019533Y006478D01*
X019485Y006363D01*
X019485Y006237D01*
X019533Y006122D01*
X019622Y006033D01*
X019737Y005985D01*
X019829Y005985D01*
X019808Y005918D01*
X019795Y005840D01*
X019795Y005828D01*
X020272Y005828D01*
X020272Y005772D01*
X020328Y005772D01*
X020328Y005828D01*
X020805Y005828D01*
X020805Y005840D01*
X020792Y005918D01*
X020768Y005994D01*
X020732Y006065D01*
X020714Y006089D01*
X020842Y005961D01*
X020815Y005896D01*
X020815Y005704D01*
X020889Y005525D01*
X021025Y005389D01*
X021204Y005315D01*
X021396Y005315D01*
X021575Y005389D01*
X021711Y005525D01*
X021785Y005704D01*
X021785Y005896D01*
X021711Y006075D01*
X021575Y006211D01*
X021396Y006285D01*
X021204Y006285D01*
X021139Y006258D01*
X021010Y006387D01*
X020887Y006510D01*
X021074Y006323D02*
X038120Y006323D01*
X038082Y006285D02*
X037659Y006285D01*
X037565Y006191D01*
X037565Y005409D01*
X037659Y005315D01*
X038441Y005315D01*
X038535Y005409D01*
X038535Y005832D01*
X039571Y006869D01*
X039620Y006986D01*
X039620Y011114D01*
X039571Y011231D01*
X039481Y011321D01*
X038731Y012071D01*
X038677Y012094D01*
X038636Y012192D01*
X038442Y012386D01*
X038188Y012491D01*
X037912Y012491D01*
X037658Y012386D01*
X037464Y012192D01*
X037359Y011938D01*
X037359Y011662D01*
X037464Y011408D01*
X037658Y011214D01*
X037912Y011109D01*
X038188Y011109D01*
X038442Y011214D01*
X038563Y011335D01*
X038980Y010917D01*
X038980Y007183D01*
X038082Y006285D01*
X037565Y006165D02*
X037399Y006165D01*
X037379Y006185D02*
X037435Y006129D01*
X037482Y006065D01*
X037518Y005994D01*
X037542Y005918D01*
X037555Y005840D01*
X037555Y005828D01*
X037078Y005828D01*
X037078Y005772D01*
X037555Y005772D01*
X037555Y005760D01*
X037542Y005682D01*
X037518Y005606D01*
X037482Y005535D01*
X037435Y005471D01*
X037379Y005415D01*
X037315Y005368D01*
X037244Y005332D01*
X037168Y005308D01*
X037090Y005295D01*
X037078Y005295D01*
X037078Y005772D01*
X037022Y005772D01*
X037022Y005295D01*
X037010Y005295D01*
X036932Y005308D01*
X036856Y005332D01*
X036785Y005368D01*
X036721Y005415D01*
X036665Y005471D01*
X036618Y005535D01*
X036582Y005606D01*
X036558Y005682D01*
X036545Y005760D01*
X036545Y005772D01*
X037022Y005772D01*
X037022Y005828D01*
X036545Y005828D01*
X036545Y005840D01*
X036558Y005918D01*
X036582Y005994D01*
X036618Y006065D01*
X036665Y006129D01*
X036721Y006185D01*
X036785Y006232D01*
X036856Y006268D01*
X036932Y006292D01*
X037010Y006305D01*
X037022Y006305D01*
X037022Y005828D01*
X037078Y005828D01*
X037078Y006305D01*
X037090Y006305D01*
X037168Y006292D01*
X037244Y006268D01*
X037315Y006232D01*
X037379Y006185D01*
X037512Y006006D02*
X037565Y006006D01*
X037554Y005848D02*
X037565Y005848D01*
X037565Y005689D02*
X037544Y005689D01*
X037565Y005531D02*
X037478Y005531D01*
X037602Y005372D02*
X037320Y005372D01*
X037078Y005372D02*
X037022Y005372D01*
X037022Y005531D02*
X037078Y005531D01*
X037078Y005689D02*
X037022Y005689D01*
X037022Y005848D02*
X037078Y005848D01*
X037078Y006006D02*
X037022Y006006D01*
X037022Y006165D02*
X037078Y006165D01*
X036701Y006165D02*
X033285Y006165D01*
X033285Y006191D02*
X033191Y006285D01*
X032409Y006285D01*
X032315Y006191D01*
X032315Y005409D01*
X032409Y005315D01*
X033191Y005315D01*
X033285Y005409D01*
X033285Y006191D01*
X033285Y006006D02*
X036588Y006006D01*
X036546Y005848D02*
X033285Y005848D01*
X033285Y005689D02*
X036556Y005689D01*
X036622Y005531D02*
X033285Y005531D01*
X033248Y005372D02*
X036780Y005372D01*
X038498Y005372D02*
X048070Y005372D01*
X048070Y005531D02*
X038535Y005531D01*
X038535Y005689D02*
X048070Y005689D01*
X048070Y005848D02*
X038550Y005848D01*
X038709Y006006D02*
X048070Y006006D01*
X048070Y006165D02*
X038867Y006165D01*
X039026Y006323D02*
X048070Y006323D01*
X048070Y006482D02*
X039184Y006482D01*
X039343Y006640D02*
X048070Y006640D01*
X048070Y006799D02*
X039501Y006799D01*
X039608Y006957D02*
X048070Y006957D01*
X048070Y007116D02*
X039620Y007116D01*
X039620Y007274D02*
X048070Y007274D01*
X048070Y007433D02*
X039620Y007433D01*
X039620Y007591D02*
X048070Y007591D01*
X048070Y007750D02*
X039620Y007750D01*
X039620Y007908D02*
X048070Y007908D01*
X048070Y008067D02*
X039620Y008067D01*
X039620Y008225D02*
X048070Y008225D01*
X048070Y008384D02*
X039620Y008384D01*
X039620Y008542D02*
X048070Y008542D01*
X048070Y008701D02*
X039620Y008701D01*
X039620Y008859D02*
X048070Y008859D01*
X048070Y009018D02*
X039620Y009018D01*
X039620Y009176D02*
X048070Y009176D01*
X048070Y009335D02*
X046995Y009335D01*
X047031Y009362D02*
X047098Y009429D01*
X047156Y009505D01*
X047204Y009588D01*
X047240Y009676D01*
X047265Y009768D01*
X047273Y009830D01*
X046630Y009830D01*
X046630Y009990D01*
X046470Y009990D01*
X046470Y010633D01*
X046408Y010625D01*
X046316Y010600D01*
X046228Y010564D01*
X046145Y010516D01*
X046069Y010458D01*
X046002Y010391D01*
X045944Y010315D01*
X045896Y010232D01*
X045860Y010144D01*
X045835Y010052D01*
X045827Y009990D01*
X046470Y009990D01*
X046470Y009830D01*
X045827Y009830D01*
X045835Y009768D01*
X045860Y009676D01*
X045896Y009588D01*
X045944Y009505D01*
X046002Y009429D01*
X046069Y009362D01*
X046145Y009304D01*
X046228Y009256D01*
X046316Y009220D01*
X046408Y009195D01*
X046470Y009187D01*
X046470Y009830D01*
X046630Y009830D01*
X046630Y009187D01*
X046692Y009195D01*
X046784Y009220D01*
X046872Y009256D01*
X046955Y009304D01*
X047031Y009362D01*
X047147Y009493D02*
X048070Y009493D01*
X048070Y009652D02*
X047230Y009652D01*
X047271Y009810D02*
X048070Y009810D01*
X048070Y009969D02*
X046630Y009969D01*
X046630Y009990D02*
X047273Y009990D01*
X047265Y010052D01*
X047240Y010144D01*
X047204Y010232D01*
X047156Y010315D01*
X047098Y010391D01*
X047031Y010458D01*
X046955Y010516D01*
X046872Y010564D01*
X046784Y010600D01*
X046692Y010625D01*
X046630Y010633D01*
X046630Y009990D01*
X046630Y010127D02*
X046470Y010127D01*
X046470Y009969D02*
X042380Y009969D01*
X042380Y009990D02*
X043023Y009990D01*
X043015Y010052D01*
X042990Y010144D01*
X042954Y010232D01*
X042906Y010315D01*
X042848Y010391D01*
X042781Y010458D01*
X042705Y010516D01*
X042622Y010564D01*
X042534Y010600D01*
X042442Y010625D01*
X042380Y010633D01*
X042380Y009990D01*
X042220Y009990D01*
X042220Y010633D01*
X042158Y010625D01*
X042066Y010600D01*
X041978Y010564D01*
X041895Y010516D01*
X041819Y010458D01*
X041752Y010391D01*
X041694Y010315D01*
X041646Y010232D01*
X041610Y010144D01*
X041585Y010052D01*
X041577Y009990D01*
X042220Y009990D01*
X042220Y009830D01*
X041577Y009830D01*
X041585Y009768D01*
X041610Y009676D01*
X041646Y009588D01*
X041694Y009505D01*
X041752Y009429D01*
X041819Y009362D01*
X041895Y009304D01*
X041978Y009256D01*
X042066Y009220D01*
X042158Y009195D01*
X042220Y009187D01*
X042220Y009830D01*
X042380Y009830D01*
X042380Y009990D01*
X042380Y010127D02*
X042220Y010127D01*
X042220Y009969D02*
X039620Y009969D01*
X039620Y010127D02*
X041605Y010127D01*
X041677Y010286D02*
X039620Y010286D01*
X039620Y010444D02*
X041805Y010444D01*
X042074Y010603D02*
X039620Y010603D01*
X039620Y010761D02*
X048070Y010761D01*
X048070Y010603D02*
X046776Y010603D01*
X046630Y010603D02*
X046470Y010603D01*
X046324Y010603D02*
X042526Y010603D01*
X042380Y010603D02*
X042220Y010603D01*
X042220Y010444D02*
X042380Y010444D01*
X042380Y010286D02*
X042220Y010286D01*
X042795Y010444D02*
X046055Y010444D01*
X045927Y010286D02*
X042923Y010286D01*
X042995Y010127D02*
X045855Y010127D01*
X045829Y009810D02*
X043021Y009810D01*
X043023Y009830D02*
X042380Y009830D01*
X042380Y009187D01*
X042442Y009195D01*
X042534Y009220D01*
X042622Y009256D01*
X042705Y009304D01*
X042781Y009362D01*
X042848Y009429D01*
X042906Y009505D01*
X042954Y009588D01*
X042990Y009676D01*
X043015Y009768D01*
X043023Y009830D01*
X042980Y009652D02*
X045870Y009652D01*
X045953Y009493D02*
X042897Y009493D01*
X042745Y009335D02*
X046105Y009335D01*
X046470Y009335D02*
X046630Y009335D01*
X046630Y009493D02*
X046470Y009493D01*
X046470Y009652D02*
X046630Y009652D01*
X046630Y009810D02*
X046470Y009810D01*
X046470Y010286D02*
X046630Y010286D01*
X046630Y010444D02*
X046470Y010444D01*
X047045Y010444D02*
X048070Y010444D01*
X048070Y010286D02*
X047173Y010286D01*
X047245Y010127D02*
X048070Y010127D01*
X048070Y010920D02*
X039620Y010920D01*
X039620Y011078D02*
X048070Y011078D01*
X048070Y011237D02*
X046964Y011237D01*
X046942Y011214D02*
X047136Y011408D01*
X047241Y011662D01*
X047241Y011938D01*
X047136Y012192D01*
X046942Y012386D01*
X046688Y012491D01*
X046412Y012491D01*
X046158Y012386D01*
X045964Y012192D01*
X045859Y011938D01*
X045859Y011662D01*
X045964Y011408D01*
X046158Y011214D01*
X046412Y011109D01*
X046688Y011109D01*
X046942Y011214D01*
X047123Y011395D02*
X048070Y011395D01*
X048070Y011554D02*
X047196Y011554D01*
X047241Y011712D02*
X048070Y011712D01*
X048070Y011871D02*
X047241Y011871D01*
X047204Y012029D02*
X048070Y012029D01*
X048070Y012188D02*
X047138Y012188D01*
X046982Y012346D02*
X048070Y012346D01*
X048070Y012505D02*
X014407Y012505D01*
X014391Y012520D02*
X013336Y012520D01*
X013253Y012604D01*
X013121Y012658D01*
X012979Y012658D01*
X012847Y012604D01*
X012746Y012503D01*
X012692Y012371D01*
X012692Y012229D01*
X012746Y012097D01*
X012847Y011996D01*
X012979Y011942D01*
X013121Y011942D01*
X013253Y011996D01*
X013336Y012080D01*
X014209Y012080D01*
X014442Y011847D01*
X014442Y011729D01*
X014496Y011597D01*
X014597Y011496D01*
X014729Y011442D01*
X014871Y011442D01*
X015003Y011496D01*
X015086Y011580D01*
X016764Y011580D01*
X016847Y011496D01*
X016979Y011442D01*
X017121Y011442D01*
X017253Y011496D01*
X017354Y011597D01*
X017408Y011729D01*
X017408Y011871D01*
X017354Y012003D01*
X017253Y012104D01*
X017121Y012158D01*
X016979Y012158D01*
X016847Y012104D01*
X016764Y012020D01*
X015086Y012020D01*
X015003Y012104D01*
X014871Y012158D01*
X014753Y012158D01*
X014391Y012520D01*
X014565Y012346D02*
X024868Y012346D01*
X024908Y012386D02*
X024714Y012192D01*
X024609Y011938D01*
X024609Y011662D01*
X024714Y011408D01*
X024908Y011214D01*
X025162Y011109D01*
X025438Y011109D01*
X025692Y011214D01*
X025886Y011408D01*
X025916Y011480D01*
X027304Y011480D01*
X027323Y011461D01*
X027470Y011400D01*
X027630Y011400D01*
X027777Y011461D01*
X027889Y011573D01*
X027950Y011720D01*
X027950Y011880D01*
X027889Y012027D01*
X027777Y012139D01*
X027630Y012200D01*
X027470Y012200D01*
X027323Y012139D01*
X027304Y012120D01*
X025916Y012120D01*
X025886Y012192D01*
X025692Y012386D01*
X025438Y012491D01*
X025162Y012491D01*
X024908Y012386D01*
X024712Y012188D02*
X014724Y012188D01*
X015077Y012029D02*
X016773Y012029D01*
X016790Y011554D02*
X015060Y011554D01*
X014540Y011554D02*
X011303Y011554D01*
X011253Y011604D02*
X011121Y011658D01*
X010979Y011658D01*
X010887Y011620D01*
X008713Y011620D01*
X008621Y011658D01*
X008479Y011658D01*
X008347Y011604D01*
X008246Y011503D01*
X008192Y011371D01*
X008192Y011229D01*
X008246Y011097D01*
X008347Y010996D01*
X008479Y010942D01*
X008621Y010942D01*
X008713Y010980D01*
X010887Y010980D01*
X010979Y010942D01*
X011121Y010942D01*
X011253Y010996D01*
X011354Y011097D01*
X011408Y011229D01*
X011408Y011371D01*
X011354Y011503D01*
X011253Y011604D01*
X011398Y011395D02*
X018202Y011395D01*
X018192Y011371D02*
X018192Y011229D01*
X018246Y011097D01*
X018347Y010996D01*
X018479Y010942D01*
X018621Y010942D01*
X018753Y010996D01*
X018836Y011080D01*
X020764Y011080D01*
X020847Y010996D01*
X020979Y010942D01*
X021121Y010942D01*
X021253Y010996D01*
X021354Y011097D01*
X021408Y011229D01*
X021408Y011371D01*
X021354Y011503D01*
X021253Y011604D01*
X021121Y011658D01*
X020979Y011658D01*
X020847Y011604D01*
X020764Y011520D01*
X018836Y011520D01*
X018753Y011604D01*
X018621Y011658D01*
X018479Y011658D01*
X018347Y011604D01*
X018246Y011503D01*
X018192Y011371D01*
X018192Y011237D02*
X011408Y011237D01*
X011334Y011078D02*
X018266Y011078D01*
X018834Y011078D02*
X020766Y011078D01*
X021334Y011078D02*
X026025Y011078D01*
X026009Y011071D02*
X025521Y010584D01*
X025441Y010617D01*
X025159Y010617D01*
X024899Y010510D01*
X024700Y010311D01*
X024593Y010051D01*
X024593Y009769D01*
X024700Y009509D01*
X024899Y009310D01*
X025159Y009203D01*
X025441Y009203D01*
X025701Y009310D01*
X025900Y009509D01*
X026007Y009769D01*
X026007Y010051D01*
X025974Y010131D01*
X026323Y010480D01*
X029098Y010480D01*
X029069Y010458D01*
X029002Y010391D01*
X028944Y010315D01*
X028896Y010232D01*
X028860Y010144D01*
X028835Y010052D01*
X028827Y009990D01*
X029470Y009990D01*
X029470Y009830D01*
X029630Y009830D01*
X029630Y009990D01*
X030273Y009990D01*
X030265Y010052D01*
X030240Y010144D01*
X030204Y010232D01*
X030156Y010315D01*
X030098Y010391D01*
X030031Y010458D01*
X030002Y010480D01*
X032054Y010480D01*
X032073Y010461D01*
X032220Y010400D01*
X032380Y010400D01*
X032527Y010461D01*
X032639Y010573D01*
X032700Y010720D01*
X032700Y010880D01*
X032639Y011027D01*
X032527Y011139D01*
X032380Y011200D01*
X032220Y011200D01*
X032073Y011139D01*
X032054Y011120D01*
X029715Y011120D01*
X029942Y011214D01*
X030136Y011408D01*
X030241Y011662D01*
X030241Y011938D01*
X030136Y012192D01*
X029942Y012386D01*
X029688Y012491D01*
X029412Y012491D01*
X029158Y012386D01*
X028964Y012192D01*
X028859Y011938D01*
X028859Y011662D01*
X028964Y011408D01*
X029158Y011214D01*
X029385Y011120D01*
X026126Y011120D01*
X026009Y011071D01*
X025857Y010920D02*
X000780Y010920D01*
X000780Y011078D02*
X008266Y011078D01*
X008192Y011237D02*
X000780Y011237D01*
X000780Y011395D02*
X004199Y011395D01*
X004164Y011430D02*
X004247Y011346D01*
X004379Y011292D01*
X004521Y011292D01*
X004653Y011346D01*
X004754Y011447D01*
X004808Y011579D01*
X004808Y011721D01*
X004754Y011853D01*
X004653Y011954D01*
X004521Y012008D01*
X004384Y012008D01*
X004391Y012015D01*
X004432Y012071D01*
X004463Y012132D01*
X004471Y012158D01*
X004496Y012097D01*
X004597Y011996D01*
X004729Y011942D01*
X004871Y011942D01*
X005003Y011996D01*
X005104Y012097D01*
X005139Y012183D01*
X005189Y012064D01*
X005306Y011946D01*
X005459Y011883D01*
X006141Y011883D01*
X006294Y011946D01*
X006411Y012064D01*
X006461Y012183D01*
X006496Y012097D01*
X006597Y011996D01*
X006729Y011942D01*
X006871Y011942D01*
X007003Y011996D01*
X007104Y012097D01*
X007158Y012229D01*
X007158Y012371D01*
X007104Y012503D01*
X007003Y012604D01*
X006911Y012642D01*
X006481Y013071D01*
X006424Y013095D01*
X006475Y013217D01*
X006475Y013383D01*
X006411Y013536D01*
X006294Y013654D01*
X006141Y013717D01*
X005459Y013717D01*
X005306Y013654D01*
X005189Y013536D01*
X005125Y013383D01*
X005125Y013217D01*
X005153Y013150D01*
X004731Y013571D01*
X004614Y013620D01*
X004328Y013620D01*
X004294Y013654D01*
X004141Y013717D01*
X003459Y013717D01*
X003306Y013654D01*
X003189Y013536D01*
X003125Y013383D01*
X003125Y013217D01*
X003189Y013064D01*
X003232Y013020D01*
X002586Y013020D01*
X002503Y013104D01*
X002371Y013158D01*
X002229Y013158D01*
X002097Y013104D01*
X001996Y013003D01*
X001942Y012871D01*
X001942Y012729D01*
X001996Y012597D01*
X002097Y012496D01*
X002229Y012442D01*
X002371Y012442D01*
X002503Y012496D01*
X002586Y012580D01*
X003205Y012580D01*
X003168Y012529D01*
X003137Y012468D01*
X003116Y012402D01*
X003105Y012334D01*
X003105Y012300D01*
X003800Y012300D01*
X003800Y012300D01*
X003105Y012300D01*
X003105Y012266D01*
X003116Y012198D01*
X003137Y012132D01*
X003168Y012071D01*
X003209Y012015D01*
X003258Y011966D01*
X003313Y011926D01*
X003375Y011895D01*
X003440Y011873D01*
X003461Y011870D01*
X003241Y011870D01*
X003108Y012003D01*
X003108Y012121D01*
X003054Y012253D01*
X002953Y012354D01*
X002821Y012408D01*
X002679Y012408D01*
X002547Y012354D01*
X002446Y012253D01*
X002392Y012121D01*
X002392Y011979D01*
X002446Y011847D01*
X002547Y011746D01*
X002679Y011692D01*
X002797Y011692D01*
X003059Y011430D01*
X004164Y011430D01*
X004701Y011395D02*
X008202Y011395D01*
X008297Y011554D02*
X004798Y011554D01*
X004808Y011712D02*
X014449Y011712D01*
X014418Y011871D02*
X004736Y011871D01*
X004565Y012029D02*
X004401Y012029D01*
X003458Y011871D02*
X003241Y011871D01*
X003199Y012029D02*
X003108Y012029D01*
X003119Y012188D02*
X003081Y012188D01*
X003107Y012346D02*
X002960Y012346D01*
X003156Y012505D02*
X002511Y012505D01*
X002540Y012346D02*
X000780Y012346D01*
X000780Y012188D02*
X002419Y012188D01*
X002392Y012029D02*
X000780Y012029D01*
X000780Y011871D02*
X002437Y011871D01*
X002630Y011712D02*
X000780Y011712D01*
X000780Y011554D02*
X002935Y011554D01*
X003306Y010654D02*
X003459Y010717D01*
X004141Y010717D01*
X004294Y010654D01*
X004411Y010536D01*
X004475Y010383D01*
X004475Y010217D01*
X004411Y010064D01*
X004380Y010032D01*
X004391Y010020D01*
X005205Y010020D01*
X005168Y010071D01*
X005137Y010132D01*
X005116Y010198D01*
X005105Y010266D01*
X005105Y010300D01*
X005800Y010300D01*
X005800Y010300D01*
X005800Y010737D01*
X005508Y010737D01*
X005440Y010727D01*
X005375Y010705D01*
X005313Y010674D01*
X005258Y010634D01*
X005209Y010585D01*
X005168Y010529D01*
X005137Y010468D01*
X005116Y010402D01*
X005105Y010334D01*
X005105Y010300D01*
X005800Y010300D01*
X006495Y010300D01*
X006495Y010334D01*
X006484Y010402D01*
X006463Y010468D01*
X006432Y010529D01*
X006391Y010585D01*
X006342Y010634D01*
X006287Y010674D01*
X006225Y010705D01*
X006160Y010727D01*
X006092Y010737D01*
X005800Y010737D01*
X005800Y010300D01*
X005800Y010300D01*
X005800Y010300D01*
X006495Y010300D01*
X006495Y010266D01*
X006484Y010198D01*
X006463Y010132D01*
X006432Y010071D01*
X006395Y010020D01*
X007014Y010020D01*
X007097Y010104D01*
X007229Y010158D01*
X007371Y010158D01*
X007503Y010104D01*
X007604Y010003D01*
X007658Y009871D01*
X007658Y009729D01*
X007604Y009597D01*
X007503Y009496D01*
X007371Y009442D01*
X007229Y009442D01*
X007097Y009496D01*
X007014Y009580D01*
X004209Y009580D01*
X003906Y009883D01*
X003459Y009883D01*
X003306Y009946D01*
X003189Y010064D01*
X003125Y010217D01*
X003125Y010383D01*
X003189Y010536D01*
X003306Y010654D01*
X003255Y010603D02*
X000780Y010603D01*
X000780Y010761D02*
X025698Y010761D01*
X025540Y010603D02*
X025477Y010603D01*
X025123Y010603D02*
X006374Y010603D01*
X006471Y010444D02*
X024833Y010444D01*
X024690Y010286D02*
X006495Y010286D01*
X006460Y010127D02*
X007154Y010127D01*
X007446Y010127D02*
X024624Y010127D01*
X024593Y009969D02*
X007618Y009969D01*
X007658Y009810D02*
X009554Y009810D01*
X009597Y009854D02*
X009496Y009753D01*
X009442Y009621D01*
X009442Y009479D01*
X009496Y009347D01*
X009597Y009246D01*
X009729Y009192D01*
X009871Y009192D01*
X010003Y009246D01*
X010086Y009330D01*
X010264Y009330D01*
X010347Y009246D01*
X010479Y009192D01*
X010621Y009192D01*
X010753Y009246D01*
X010854Y009347D01*
X010908Y009479D01*
X010908Y009621D01*
X010854Y009753D01*
X010753Y009854D01*
X010621Y009908D01*
X010479Y009908D01*
X010347Y009854D01*
X010264Y009770D01*
X010086Y009770D01*
X010003Y009854D01*
X009871Y009908D01*
X009729Y009908D01*
X009597Y009854D01*
X009454Y009652D02*
X007626Y009652D01*
X007495Y009493D02*
X009442Y009493D01*
X009509Y009335D02*
X000780Y009335D01*
X000780Y009493D02*
X007105Y009493D01*
X005800Y010444D02*
X005800Y010444D01*
X005800Y010603D02*
X005800Y010603D01*
X005226Y010603D02*
X004345Y010603D01*
X004450Y010444D02*
X005129Y010444D01*
X005105Y010286D02*
X004475Y010286D01*
X004438Y010127D02*
X005140Y010127D01*
X003979Y009810D02*
X000780Y009810D01*
X000780Y009652D02*
X004137Y009652D01*
X003284Y009969D02*
X000780Y009969D01*
X000780Y010127D02*
X003162Y010127D01*
X003125Y010286D02*
X000780Y010286D01*
X000780Y010444D02*
X003150Y010444D01*
X000780Y009176D02*
X038980Y009176D01*
X038980Y009018D02*
X000780Y009018D01*
X000780Y008859D02*
X038980Y008859D01*
X038980Y008701D02*
X000780Y008701D01*
X000780Y008542D02*
X038980Y008542D01*
X038980Y008384D02*
X000780Y008384D01*
X000780Y008225D02*
X038980Y008225D01*
X038980Y008067D02*
X000780Y008067D01*
X000780Y007908D02*
X038980Y007908D01*
X038980Y007750D02*
X000780Y007750D01*
X000780Y007591D02*
X038980Y007591D01*
X038980Y007433D02*
X000780Y007433D01*
X005121Y006165D02*
X005479Y006165D01*
X005525Y006211D02*
X005389Y006075D01*
X005315Y005896D01*
X005315Y005704D01*
X005389Y005525D01*
X005525Y005389D01*
X005704Y005315D01*
X005896Y005315D01*
X006075Y005389D01*
X006211Y005525D01*
X006285Y005704D01*
X006285Y005896D01*
X006211Y006075D01*
X006075Y006211D01*
X005896Y006285D01*
X005704Y006285D01*
X005525Y006211D01*
X005361Y006006D02*
X005239Y006006D01*
X005285Y005848D02*
X005315Y005848D01*
X005321Y005689D02*
X005279Y005689D01*
X005213Y005531D02*
X005387Y005531D01*
X005566Y005372D02*
X005034Y005372D01*
X006034Y005372D02*
X006530Y005372D01*
X006535Y005368D02*
X006606Y005332D01*
X006682Y005308D01*
X006760Y005295D01*
X006772Y005295D01*
X006772Y005772D01*
X006828Y005772D01*
X006828Y005828D01*
X007305Y005828D01*
X007305Y005840D01*
X007292Y005918D01*
X007268Y005994D01*
X007232Y006065D01*
X007185Y006129D01*
X007129Y006185D01*
X007065Y006232D01*
X006994Y006268D01*
X006918Y006292D01*
X006840Y006305D01*
X006828Y006305D01*
X006828Y005828D01*
X006772Y005828D01*
X006772Y005772D01*
X006295Y005772D01*
X006295Y005760D01*
X006308Y005682D01*
X006332Y005606D01*
X006368Y005535D01*
X006415Y005471D01*
X006471Y005415D01*
X006535Y005368D01*
X006372Y005531D02*
X006213Y005531D01*
X006279Y005689D02*
X006306Y005689D01*
X006295Y005828D02*
X006772Y005828D01*
X006772Y006305D01*
X006760Y006305D01*
X006682Y006292D01*
X006606Y006268D01*
X006535Y006232D01*
X006471Y006185D01*
X006415Y006129D01*
X006368Y006065D01*
X006332Y005994D01*
X006308Y005918D01*
X006295Y005840D01*
X006295Y005828D01*
X006296Y005848D02*
X006285Y005848D01*
X006239Y006006D02*
X006338Y006006D01*
X006451Y006165D02*
X006121Y006165D01*
X006772Y006165D02*
X006828Y006165D01*
X006828Y006006D02*
X006772Y006006D01*
X006772Y005848D02*
X006828Y005848D01*
X006828Y005772D02*
X007305Y005772D01*
X007305Y005760D01*
X007292Y005682D01*
X007268Y005606D01*
X007232Y005535D01*
X007185Y005471D01*
X007129Y005415D01*
X007065Y005368D01*
X006994Y005332D01*
X006918Y005308D01*
X006840Y005295D01*
X006828Y005295D01*
X006828Y005772D01*
X006828Y005689D02*
X006772Y005689D01*
X006772Y005531D02*
X006828Y005531D01*
X006828Y005372D02*
X006772Y005372D01*
X007070Y005372D02*
X007566Y005372D01*
X007525Y005389D02*
X007704Y005315D01*
X007896Y005315D01*
X008075Y005389D01*
X008211Y005525D01*
X008285Y005704D01*
X008285Y005896D01*
X008211Y006075D01*
X008075Y006211D01*
X007896Y006285D01*
X007704Y006285D01*
X007525Y006211D01*
X007389Y006075D01*
X007315Y005896D01*
X007315Y005704D01*
X007389Y005525D01*
X007525Y005389D01*
X007387Y005531D02*
X007228Y005531D01*
X007294Y005689D02*
X007321Y005689D01*
X007304Y005848D02*
X007315Y005848D01*
X007361Y006006D02*
X007262Y006006D01*
X007149Y006165D02*
X007479Y006165D01*
X008121Y006165D02*
X008315Y006165D01*
X008315Y006006D02*
X008239Y006006D01*
X008285Y005848D02*
X008315Y005848D01*
X008315Y005689D02*
X008279Y005689D01*
X008315Y005531D02*
X008213Y005531D01*
X008352Y005372D02*
X008034Y005372D01*
X009248Y005372D02*
X013530Y005372D01*
X013535Y005368D02*
X013606Y005332D01*
X013682Y005308D01*
X013760Y005295D01*
X013772Y005295D01*
X013772Y005772D01*
X013828Y005772D01*
X013828Y005828D01*
X014305Y005828D01*
X014305Y005840D01*
X014292Y005918D01*
X014268Y005994D01*
X014232Y006065D01*
X014185Y006129D01*
X014129Y006185D01*
X014065Y006232D01*
X013994Y006268D01*
X013918Y006292D01*
X013840Y006305D01*
X013828Y006305D01*
X013828Y005828D01*
X013772Y005828D01*
X013772Y005772D01*
X013295Y005772D01*
X013295Y005760D01*
X013308Y005682D01*
X013332Y005606D01*
X013368Y005535D01*
X013415Y005471D01*
X013471Y005415D01*
X013535Y005368D01*
X013372Y005531D02*
X009285Y005531D01*
X009285Y006165D02*
X011603Y006165D01*
X011909Y005848D02*
X013296Y005848D01*
X013295Y005840D02*
X013295Y005828D01*
X013772Y005828D01*
X013772Y006305D01*
X013760Y006305D01*
X013682Y006292D01*
X013606Y006268D01*
X013535Y006232D01*
X013471Y006185D01*
X013415Y006129D01*
X013368Y006065D01*
X013332Y005994D01*
X013308Y005918D01*
X013295Y005840D01*
X013306Y005689D02*
X011750Y005689D01*
X012067Y006006D02*
X013338Y006006D01*
X013451Y006165D02*
X012226Y006165D01*
X012579Y006323D02*
X019485Y006323D01*
X019515Y006165D02*
X016285Y006165D01*
X016285Y006191D02*
X016191Y006285D01*
X015409Y006285D01*
X015315Y006191D01*
X015315Y005409D01*
X015409Y005315D01*
X016191Y005315D01*
X016285Y005409D01*
X016285Y006191D01*
X016285Y006006D02*
X019687Y006006D01*
X019796Y005848D02*
X016285Y005848D01*
X016285Y005689D02*
X019806Y005689D01*
X019808Y005682D02*
X019832Y005606D01*
X019868Y005535D01*
X019915Y005471D01*
X019971Y005415D01*
X020035Y005368D01*
X020106Y005332D01*
X020182Y005308D01*
X020260Y005295D01*
X020272Y005295D01*
X020272Y005772D01*
X019795Y005772D01*
X019795Y005760D01*
X019808Y005682D01*
X019872Y005531D02*
X016285Y005531D01*
X016248Y005372D02*
X020030Y005372D01*
X020272Y005372D02*
X020328Y005372D01*
X020328Y005295D02*
X020340Y005295D01*
X020418Y005308D01*
X020494Y005332D01*
X020565Y005368D01*
X020629Y005415D01*
X020685Y005471D01*
X020732Y005535D01*
X020768Y005606D01*
X020792Y005682D01*
X020805Y005760D01*
X020805Y005772D01*
X020328Y005772D01*
X020328Y005295D01*
X020328Y005531D02*
X020272Y005531D01*
X020272Y005689D02*
X020328Y005689D01*
X020570Y005372D02*
X021066Y005372D01*
X020887Y005531D02*
X020728Y005531D01*
X020794Y005689D02*
X020821Y005689D01*
X020804Y005848D02*
X020815Y005848D01*
X020797Y006006D02*
X020762Y006006D01*
X021621Y006165D02*
X021815Y006165D01*
X021815Y006191D02*
X021909Y006285D01*
X022691Y006285D01*
X022785Y006191D01*
X022785Y005409D01*
X022691Y005315D01*
X021909Y005315D01*
X021815Y005409D01*
X021815Y006191D01*
X021815Y006006D02*
X021739Y006006D01*
X021785Y005848D02*
X021815Y005848D01*
X021815Y005689D02*
X021779Y005689D01*
X021815Y005531D02*
X021713Y005531D01*
X021852Y005372D02*
X021534Y005372D01*
X022748Y005372D02*
X026280Y005372D01*
X026285Y005368D02*
X026356Y005332D01*
X026432Y005308D01*
X026510Y005295D01*
X026522Y005295D01*
X026522Y005772D01*
X026578Y005772D01*
X026578Y005828D01*
X027055Y005828D01*
X027055Y005840D01*
X027042Y005918D01*
X027018Y005994D01*
X026982Y006065D01*
X026935Y006129D01*
X026879Y006185D01*
X026815Y006232D01*
X026744Y006268D01*
X026668Y006292D01*
X026590Y006305D01*
X026578Y006305D01*
X026578Y005828D01*
X026522Y005828D01*
X026522Y005772D01*
X026045Y005772D01*
X026045Y005760D01*
X026058Y005682D01*
X026082Y005606D01*
X026118Y005535D01*
X026165Y005471D01*
X026221Y005415D01*
X026285Y005368D01*
X026122Y005531D02*
X022785Y005531D01*
X022785Y005689D02*
X026056Y005689D01*
X026045Y005828D02*
X026522Y005828D01*
X026522Y006305D01*
X026510Y006305D01*
X026432Y006292D01*
X026356Y006268D01*
X026285Y006232D01*
X026221Y006185D01*
X026165Y006129D01*
X026118Y006065D01*
X026082Y005994D01*
X026058Y005918D01*
X026045Y005840D01*
X026045Y005828D01*
X026046Y005848D02*
X022785Y005848D01*
X022785Y006006D02*
X026088Y006006D01*
X026201Y006165D02*
X022785Y006165D01*
X021555Y006799D02*
X038596Y006799D01*
X038754Y006957D02*
X021649Y006957D01*
X021658Y007116D02*
X038913Y007116D01*
X038980Y007274D02*
X021582Y007274D01*
X021018Y007274D02*
X017332Y007274D01*
X017305Y006799D02*
X021045Y006799D01*
X019536Y006482D02*
X012658Y006482D01*
X013772Y006165D02*
X013828Y006165D01*
X013828Y006006D02*
X013772Y006006D01*
X013772Y005848D02*
X013828Y005848D01*
X013828Y005772D02*
X014305Y005772D01*
X014305Y005760D01*
X014292Y005682D01*
X014268Y005606D01*
X014232Y005535D01*
X014185Y005471D01*
X014129Y005415D01*
X014065Y005368D01*
X013994Y005332D01*
X013918Y005308D01*
X013840Y005295D01*
X013828Y005295D01*
X013828Y005772D01*
X013828Y005689D02*
X013772Y005689D01*
X013772Y005531D02*
X013828Y005531D01*
X013828Y005372D02*
X013772Y005372D01*
X014070Y005372D02*
X014566Y005372D01*
X014525Y005389D02*
X014704Y005315D01*
X014896Y005315D01*
X015075Y005389D01*
X015211Y005525D01*
X015285Y005704D01*
X015285Y005896D01*
X015211Y006075D01*
X015075Y006211D01*
X014896Y006285D01*
X014704Y006285D01*
X014525Y006211D01*
X014389Y006075D01*
X014315Y005896D01*
X014315Y005704D01*
X014389Y005525D01*
X014525Y005389D01*
X014387Y005531D02*
X014228Y005531D01*
X014294Y005689D02*
X014321Y005689D01*
X014304Y005848D02*
X014315Y005848D01*
X014361Y006006D02*
X014262Y006006D01*
X014149Y006165D02*
X014479Y006165D01*
X015121Y006165D02*
X015315Y006165D01*
X015315Y006006D02*
X015239Y006006D01*
X015285Y005848D02*
X015315Y005848D01*
X015315Y005689D02*
X015279Y005689D01*
X015315Y005531D02*
X015213Y005531D01*
X015352Y005372D02*
X015034Y005372D01*
X015903Y003470D02*
X013697Y003470D01*
X013965Y003312D02*
X015635Y003312D01*
X015477Y003153D02*
X014123Y003153D01*
X014235Y002995D02*
X015365Y002995D01*
X015276Y002836D02*
X014324Y002836D01*
X014366Y002678D02*
X015234Y002678D01*
X015200Y002519D02*
X014400Y002519D01*
X014400Y002361D02*
X015200Y002361D01*
X015212Y002202D02*
X014388Y002202D01*
X014345Y002044D02*
X015255Y002044D01*
X015319Y001885D02*
X014281Y001885D01*
X014189Y001727D02*
X015411Y001727D01*
X015556Y001568D02*
X014044Y001568D01*
X013834Y001410D02*
X015766Y001410D01*
X016934Y001410D02*
X019166Y001410D01*
X018956Y001568D02*
X017144Y001568D01*
X017289Y001727D02*
X018811Y001727D01*
X018719Y001885D02*
X017381Y001885D01*
X017445Y002044D02*
X018655Y002044D01*
X018612Y002202D02*
X017488Y002202D01*
X017500Y002361D02*
X018600Y002361D01*
X018600Y002519D02*
X017500Y002519D01*
X017466Y002678D02*
X018634Y002678D01*
X018676Y002836D02*
X017424Y002836D01*
X017335Y002995D02*
X018765Y002995D01*
X018877Y003153D02*
X017223Y003153D01*
X017065Y003312D02*
X019035Y003312D01*
X019303Y003470D02*
X016797Y003470D01*
X020197Y003470D02*
X022403Y003470D01*
X022135Y003312D02*
X020465Y003312D01*
X020623Y003153D02*
X021977Y003153D01*
X021865Y002995D02*
X020735Y002995D01*
X020824Y002836D02*
X021776Y002836D01*
X021734Y002678D02*
X020866Y002678D01*
X020900Y002519D02*
X021700Y002519D01*
X021700Y002361D02*
X020900Y002361D01*
X020888Y002202D02*
X021712Y002202D01*
X021755Y002044D02*
X020845Y002044D01*
X020781Y001885D02*
X021819Y001885D01*
X021911Y001727D02*
X020689Y001727D01*
X020544Y001568D02*
X022056Y001568D01*
X022266Y001410D02*
X020334Y001410D01*
X023434Y001410D02*
X025416Y001410D01*
X025206Y001568D02*
X023644Y001568D01*
X023789Y001727D02*
X025061Y001727D01*
X024969Y001885D02*
X023881Y001885D01*
X023945Y002044D02*
X024905Y002044D01*
X024862Y002202D02*
X023988Y002202D01*
X024000Y002361D02*
X024850Y002361D01*
X024850Y002519D02*
X024000Y002519D01*
X023966Y002678D02*
X024884Y002678D01*
X024926Y002836D02*
X023924Y002836D01*
X023835Y002995D02*
X025015Y002995D01*
X025127Y003153D02*
X023723Y003153D01*
X023565Y003312D02*
X025285Y003312D01*
X025553Y003470D02*
X023297Y003470D01*
X026447Y003470D02*
X027653Y003470D01*
X027385Y003312D02*
X026715Y003312D01*
X026873Y003153D02*
X027227Y003153D01*
X027115Y002995D02*
X026985Y002995D01*
X028547Y003470D02*
X030803Y003470D01*
X030535Y003312D02*
X028815Y003312D01*
X028973Y003153D02*
X030377Y003153D01*
X030265Y002995D02*
X029085Y002995D01*
X029174Y002836D02*
X030176Y002836D01*
X030134Y002678D02*
X029216Y002678D01*
X029250Y002519D02*
X030100Y002519D01*
X030100Y002361D02*
X029250Y002361D01*
X029238Y002202D02*
X030112Y002202D01*
X030155Y002044D02*
X029195Y002044D01*
X029131Y001885D02*
X030219Y001885D01*
X030311Y001727D02*
X029039Y001727D01*
X028894Y001568D02*
X030456Y001568D01*
X030666Y001410D02*
X028684Y001410D01*
X027516Y001410D02*
X026584Y001410D01*
X026794Y001568D02*
X027306Y001568D01*
X027161Y001727D02*
X026939Y001727D01*
X027031Y001885D02*
X027069Y001885D01*
X031834Y001410D02*
X032766Y001410D01*
X032556Y001568D02*
X032044Y001568D01*
X032189Y001727D02*
X032411Y001727D01*
X032319Y001885D02*
X032281Y001885D01*
X033934Y001410D02*
X035916Y001410D01*
X035706Y001568D02*
X034144Y001568D01*
X034289Y001727D02*
X035561Y001727D01*
X035469Y001885D02*
X034381Y001885D01*
X034445Y002044D02*
X035405Y002044D01*
X035362Y002202D02*
X034488Y002202D01*
X034500Y002361D02*
X035350Y002361D01*
X035350Y002519D02*
X034500Y002519D01*
X034466Y002678D02*
X035384Y002678D01*
X035426Y002836D02*
X034424Y002836D01*
X034335Y002995D02*
X035515Y002995D01*
X035627Y003153D02*
X034223Y003153D01*
X034065Y003312D02*
X035785Y003312D01*
X036053Y003470D02*
X033797Y003470D01*
X032903Y003470D02*
X031697Y003470D01*
X031965Y003312D02*
X032635Y003312D01*
X032477Y003153D02*
X032123Y003153D01*
X032235Y002995D02*
X032365Y002995D01*
X036947Y003470D02*
X038153Y003470D01*
X037885Y003312D02*
X037215Y003312D01*
X037373Y003153D02*
X037727Y003153D01*
X037615Y002995D02*
X037485Y002995D01*
X037531Y001885D02*
X037569Y001885D01*
X037661Y001727D02*
X037439Y001727D01*
X037294Y001568D02*
X037806Y001568D01*
X038016Y001410D02*
X037084Y001410D01*
X041685Y001885D02*
X042387Y001885D01*
X042272Y002044D02*
X041806Y002044D01*
X041856Y002202D02*
X042227Y002202D01*
X042234Y002361D02*
X041855Y002361D01*
X041789Y002519D02*
X042293Y002519D01*
X042437Y002678D02*
X041644Y002678D01*
X032352Y005372D02*
X032070Y005372D01*
X032065Y005368D02*
X032129Y005415D01*
X032185Y005471D01*
X032232Y005535D01*
X032268Y005606D01*
X032292Y005682D01*
X032305Y005760D01*
X032305Y005772D01*
X031828Y005772D01*
X031828Y005828D01*
X032305Y005828D01*
X032305Y005840D01*
X032292Y005918D01*
X032268Y005994D01*
X032232Y006065D01*
X032185Y006129D01*
X032129Y006185D01*
X032065Y006232D01*
X031994Y006268D01*
X031918Y006292D01*
X031840Y006305D01*
X031828Y006305D01*
X031828Y005828D01*
X031772Y005828D01*
X031772Y005772D01*
X031828Y005772D01*
X031828Y005295D01*
X031840Y005295D01*
X031918Y005308D01*
X031994Y005332D01*
X032065Y005368D01*
X032228Y005531D02*
X032315Y005531D01*
X032315Y005689D02*
X032294Y005689D01*
X032304Y005848D02*
X032315Y005848D01*
X032315Y006006D02*
X032262Y006006D01*
X032315Y006165D02*
X032149Y006165D01*
X031828Y006165D02*
X031772Y006165D01*
X031772Y006305D02*
X031772Y005828D01*
X031295Y005828D01*
X031295Y005840D01*
X031308Y005918D01*
X031332Y005994D01*
X031368Y006065D01*
X031415Y006129D01*
X031471Y006185D01*
X031535Y006232D01*
X031606Y006268D01*
X031682Y006292D01*
X031760Y006305D01*
X031772Y006305D01*
X031772Y006006D02*
X031828Y006006D01*
X031828Y005848D02*
X031772Y005848D01*
X031772Y005772D02*
X031295Y005772D01*
X031295Y005760D01*
X031308Y005682D01*
X031332Y005606D01*
X031368Y005535D01*
X031415Y005471D01*
X031471Y005415D01*
X031535Y005368D01*
X031606Y005332D01*
X031682Y005308D01*
X031760Y005295D01*
X031772Y005295D01*
X031772Y005772D01*
X031772Y005689D02*
X031828Y005689D01*
X031828Y005531D02*
X031772Y005531D01*
X031772Y005372D02*
X031828Y005372D01*
X031530Y005372D02*
X027998Y005372D01*
X028035Y005409D02*
X028035Y006191D01*
X027941Y006285D01*
X027159Y006285D01*
X027065Y006191D01*
X027065Y005409D01*
X027159Y005315D01*
X027941Y005315D01*
X028035Y005409D01*
X028035Y005531D02*
X031372Y005531D01*
X031306Y005689D02*
X028035Y005689D01*
X028035Y005848D02*
X031296Y005848D01*
X031338Y006006D02*
X028035Y006006D01*
X028035Y006165D02*
X031451Y006165D01*
X027065Y006165D02*
X026899Y006165D01*
X027012Y006006D02*
X027065Y006006D01*
X027054Y005848D02*
X027065Y005848D01*
X027055Y005772D02*
X026578Y005772D01*
X026578Y005295D01*
X026590Y005295D01*
X026668Y005308D01*
X026744Y005332D01*
X026815Y005368D01*
X026879Y005415D01*
X026935Y005471D01*
X026982Y005535D01*
X027018Y005606D01*
X027042Y005682D01*
X027055Y005760D01*
X027055Y005772D01*
X027044Y005689D02*
X027065Y005689D01*
X027065Y005531D02*
X026978Y005531D01*
X027102Y005372D02*
X026820Y005372D01*
X026578Y005372D02*
X026522Y005372D01*
X026522Y005531D02*
X026578Y005531D01*
X026578Y005689D02*
X026522Y005689D01*
X026522Y005848D02*
X026578Y005848D01*
X026578Y006006D02*
X026522Y006006D01*
X026522Y006165D02*
X026578Y006165D01*
X029145Y009304D02*
X029228Y009256D01*
X029316Y009220D01*
X029408Y009195D01*
X029470Y009187D01*
X029470Y009830D01*
X028827Y009830D01*
X028835Y009768D01*
X028860Y009676D01*
X028896Y009588D01*
X028944Y009505D01*
X029002Y009429D01*
X029069Y009362D01*
X029145Y009304D01*
X029105Y009335D02*
X025725Y009335D01*
X025884Y009493D02*
X028953Y009493D01*
X028870Y009652D02*
X025959Y009652D01*
X026007Y009810D02*
X028829Y009810D01*
X029470Y009810D02*
X029630Y009810D01*
X029630Y009830D02*
X029630Y009187D01*
X029692Y009195D01*
X029784Y009220D01*
X029872Y009256D01*
X029955Y009304D01*
X030031Y009362D01*
X030098Y009429D01*
X030156Y009505D01*
X030204Y009588D01*
X030240Y009676D01*
X030265Y009768D01*
X030273Y009830D01*
X029630Y009830D01*
X029630Y009969D02*
X033720Y009969D01*
X033720Y009990D02*
X033720Y009830D01*
X033077Y009830D01*
X033085Y009768D01*
X033110Y009676D01*
X033146Y009588D01*
X033194Y009505D01*
X033252Y009429D01*
X033319Y009362D01*
X033395Y009304D01*
X033478Y009256D01*
X033566Y009220D01*
X033658Y009195D01*
X033720Y009187D01*
X033720Y009830D01*
X033880Y009830D01*
X033880Y009990D01*
X033720Y009990D01*
X033720Y010633D01*
X033658Y010625D01*
X033566Y010600D01*
X033478Y010564D01*
X033395Y010516D01*
X033319Y010458D01*
X033252Y010391D01*
X033194Y010315D01*
X033146Y010232D01*
X033110Y010144D01*
X033085Y010052D01*
X033077Y009990D01*
X033720Y009990D01*
X033720Y010127D02*
X033880Y010127D01*
X033880Y009990D02*
X033880Y010633D01*
X033942Y010625D01*
X034034Y010600D01*
X034122Y010564D01*
X034205Y010516D01*
X034281Y010458D01*
X034348Y010391D01*
X034406Y010315D01*
X034454Y010232D01*
X034490Y010144D01*
X034515Y010052D01*
X034523Y009990D01*
X033880Y009990D01*
X033880Y009969D02*
X037970Y009969D01*
X037970Y009990D02*
X037970Y009830D01*
X037327Y009830D01*
X037335Y009768D01*
X037360Y009676D01*
X037396Y009588D01*
X037444Y009505D01*
X037502Y009429D01*
X037569Y009362D01*
X037645Y009304D01*
X037728Y009256D01*
X037816Y009220D01*
X037908Y009195D01*
X037970Y009187D01*
X037970Y009830D01*
X038130Y009830D01*
X038130Y009990D01*
X037970Y009990D01*
X037970Y010633D01*
X037908Y010625D01*
X037816Y010600D01*
X037728Y010564D01*
X037645Y010516D01*
X037569Y010458D01*
X037502Y010391D01*
X037444Y010315D01*
X037396Y010232D01*
X037360Y010144D01*
X037335Y010052D01*
X037327Y009990D01*
X037970Y009990D01*
X037970Y010127D02*
X038130Y010127D01*
X038130Y009990D02*
X038130Y010633D01*
X038192Y010625D01*
X038284Y010600D01*
X038372Y010564D01*
X038455Y010516D01*
X038531Y010458D01*
X038598Y010391D01*
X038656Y010315D01*
X038704Y010232D01*
X038740Y010144D01*
X038765Y010052D01*
X038773Y009990D01*
X038130Y009990D01*
X038130Y009969D02*
X038980Y009969D01*
X038980Y010127D02*
X038745Y010127D01*
X038673Y010286D02*
X038980Y010286D01*
X038980Y010444D02*
X038545Y010444D01*
X038276Y010603D02*
X038980Y010603D01*
X038980Y010761D02*
X032700Y010761D01*
X032683Y010920D02*
X038978Y010920D01*
X038819Y011078D02*
X032588Y011078D01*
X033214Y011408D02*
X033408Y011214D01*
X033662Y011109D01*
X033938Y011109D01*
X034192Y011214D01*
X034386Y011408D01*
X034491Y011662D01*
X034491Y011938D01*
X034386Y012192D01*
X034192Y012386D01*
X033938Y012491D01*
X033662Y012491D01*
X033408Y012386D01*
X033214Y012192D01*
X033109Y011938D01*
X033109Y011662D01*
X033214Y011408D01*
X033227Y011395D02*
X030123Y011395D01*
X030196Y011554D02*
X033154Y011554D01*
X033109Y011712D02*
X030241Y011712D01*
X030241Y011871D02*
X033109Y011871D01*
X033146Y012029D02*
X030204Y012029D01*
X030138Y012188D02*
X033212Y012188D01*
X033368Y012346D02*
X029982Y012346D01*
X029118Y012346D02*
X025732Y012346D01*
X025888Y012188D02*
X027440Y012188D01*
X027660Y012188D02*
X028962Y012188D01*
X028896Y012029D02*
X027887Y012029D01*
X027950Y011871D02*
X028859Y011871D01*
X028859Y011712D02*
X027947Y011712D01*
X027869Y011554D02*
X028904Y011554D01*
X028977Y011395D02*
X025873Y011395D01*
X025714Y011237D02*
X029136Y011237D01*
X029964Y011237D02*
X033386Y011237D01*
X034214Y011237D02*
X037636Y011237D01*
X037477Y011395D02*
X034373Y011395D01*
X034446Y011554D02*
X037404Y011554D01*
X037359Y011712D02*
X034491Y011712D01*
X034491Y011871D02*
X037359Y011871D01*
X037396Y012029D02*
X034454Y012029D01*
X034388Y012188D02*
X037462Y012188D01*
X037618Y012346D02*
X034232Y012346D01*
X033941Y012983D02*
X034201Y013090D01*
X034400Y013289D01*
X034507Y013549D01*
X034507Y013618D01*
X035359Y014640D01*
X038244Y014640D01*
X038313Y014571D01*
X038629Y014440D01*
X038971Y014440D01*
X039287Y014571D01*
X039356Y014640D01*
X040417Y014640D01*
X041653Y013404D01*
X041700Y013289D01*
X041899Y013090D01*
X042159Y012983D01*
X042441Y012983D01*
X042555Y013030D01*
X046295Y013030D01*
X046409Y012983D01*
X046691Y012983D01*
X046951Y013090D01*
X047150Y013289D01*
X047257Y013549D01*
X047257Y013831D01*
X047150Y014091D01*
X046951Y014290D01*
X046691Y014397D01*
X046409Y014397D01*
X046295Y014350D01*
X042573Y014350D01*
X041064Y015860D01*
X040821Y015960D01*
X039356Y015960D01*
X039287Y016029D01*
X038971Y016160D01*
X038629Y016160D01*
X038313Y016029D01*
X038244Y015960D01*
X035150Y015960D01*
X035121Y015969D01*
X035020Y015960D01*
X034919Y015960D01*
X034890Y015948D01*
X034860Y015945D01*
X034770Y015898D01*
X034676Y015860D01*
X034654Y015838D01*
X034627Y015823D01*
X034562Y015746D01*
X034490Y015674D01*
X034479Y015645D01*
X033399Y014350D01*
X029805Y014350D01*
X029691Y014397D01*
X029409Y014397D01*
X029149Y014290D01*
X028950Y014091D01*
X028900Y013970D01*
X026619Y013970D01*
X026605Y014004D01*
X026504Y014105D01*
X026372Y014160D01*
X026228Y014160D01*
X026096Y014105D01*
X025995Y014004D01*
X025976Y013959D01*
X025954Y014012D01*
X025906Y014095D01*
X025848Y014171D01*
X025781Y014238D01*
X025705Y014296D01*
X025622Y014344D01*
X025534Y014380D01*
X025442Y014405D01*
X025380Y014413D01*
X025380Y013770D01*
X025220Y013770D01*
X025220Y014413D01*
X025158Y014405D01*
X025066Y014380D01*
X024978Y014344D01*
X024895Y014296D01*
X024819Y014238D01*
X024752Y014171D01*
X024694Y014095D01*
X024646Y014012D01*
X024610Y013924D01*
X024585Y013832D01*
X024577Y013770D01*
X025220Y013770D01*
X025220Y013610D01*
X025380Y013610D01*
X025380Y012967D01*
X025442Y012975D01*
X025534Y013000D01*
X025622Y013036D01*
X025705Y013084D01*
X025781Y013142D01*
X025848Y013209D01*
X025906Y013285D01*
X025954Y013368D01*
X025990Y013456D01*
X026015Y013548D01*
X026018Y013573D01*
X026096Y013495D01*
X026228Y013440D01*
X026282Y013440D01*
X026354Y013410D01*
X028900Y013410D01*
X028950Y013289D01*
X029149Y013090D01*
X029409Y012983D01*
X029691Y012983D01*
X029805Y013030D01*
X033545Y013030D01*
X033659Y012983D01*
X033941Y012983D01*
X034249Y013139D02*
X037601Y013139D01*
X037649Y013090D02*
X037909Y012983D01*
X038191Y012983D01*
X038451Y013090D01*
X038650Y013289D01*
X038757Y013549D01*
X038757Y013831D01*
X038650Y014091D01*
X038451Y014290D01*
X038191Y014397D01*
X037909Y014397D01*
X037649Y014290D01*
X037450Y014091D01*
X037343Y013831D01*
X037343Y013549D01*
X037450Y013289D01*
X037649Y013090D01*
X037447Y013297D02*
X034403Y013297D01*
X034469Y013456D02*
X037381Y013456D01*
X037343Y013614D02*
X034507Y013614D01*
X034636Y013773D02*
X037343Y013773D01*
X037384Y013931D02*
X034768Y013931D01*
X034900Y014090D02*
X037450Y014090D01*
X037607Y014248D02*
X035032Y014248D01*
X035165Y014407D02*
X040650Y014407D01*
X040492Y014565D02*
X039273Y014565D01*
X038650Y014090D02*
X040967Y014090D01*
X040809Y014248D02*
X038493Y014248D01*
X038327Y014565D02*
X035297Y014565D01*
X034107Y015199D02*
X021396Y015199D01*
X021408Y015229D02*
X021354Y015097D01*
X021253Y014996D01*
X021121Y014942D01*
X020979Y014942D01*
X020847Y014996D01*
X020764Y015080D01*
X020086Y015080D01*
X020003Y014996D01*
X019871Y014942D01*
X019729Y014942D01*
X019597Y014996D01*
X019496Y015097D01*
X019442Y015229D01*
X019442Y015371D01*
X019496Y015503D01*
X019597Y015604D01*
X019729Y015658D01*
X019871Y015658D01*
X020003Y015604D01*
X020086Y015520D01*
X020764Y015520D01*
X020847Y015604D01*
X020979Y015658D01*
X021121Y015658D01*
X021253Y015604D01*
X021354Y015503D01*
X021408Y015371D01*
X021408Y015229D01*
X021408Y015358D02*
X034239Y015358D01*
X034371Y015516D02*
X021340Y015516D01*
X021297Y015041D02*
X033975Y015041D01*
X033843Y014882D02*
X007654Y014882D01*
X007658Y014871D02*
X007604Y015003D01*
X007503Y015104D01*
X007371Y015158D01*
X007229Y015158D01*
X007097Y015104D01*
X007014Y015020D01*
X006395Y015020D01*
X006432Y015071D01*
X006463Y015132D01*
X006484Y015198D01*
X006495Y015266D01*
X006495Y015300D01*
X006495Y015334D01*
X006484Y015402D01*
X006463Y015468D01*
X006432Y015529D01*
X006391Y015585D01*
X006342Y015634D01*
X006287Y015674D01*
X006225Y015705D01*
X006160Y015727D01*
X006092Y015737D01*
X005800Y015737D01*
X005508Y015737D01*
X005440Y015727D01*
X005375Y015705D01*
X005313Y015674D01*
X005258Y015634D01*
X005209Y015585D01*
X005168Y015529D01*
X005137Y015468D01*
X005116Y015402D01*
X005105Y015334D01*
X005105Y015300D01*
X005800Y015300D01*
X005800Y015300D01*
X005800Y015737D01*
X005800Y015300D01*
X006495Y015300D01*
X005800Y015300D01*
X005800Y015300D01*
X005800Y015300D01*
X005105Y015300D01*
X005105Y015266D01*
X005116Y015198D01*
X005137Y015132D01*
X005168Y015071D01*
X005205Y015020D01*
X004641Y015020D01*
X004466Y015195D01*
X004475Y015217D01*
X004475Y015383D01*
X004411Y015536D01*
X004294Y015654D01*
X004141Y015717D01*
X003459Y015717D01*
X003306Y015654D01*
X003189Y015536D01*
X003125Y015383D01*
X003125Y015217D01*
X003189Y015064D01*
X003306Y014946D01*
X003459Y014883D01*
X004141Y014883D01*
X004152Y014887D01*
X004330Y014709D01*
X004459Y014580D01*
X005205Y014580D01*
X005168Y014529D01*
X005137Y014468D01*
X005116Y014402D01*
X005105Y014334D01*
X005105Y014300D01*
X005800Y014300D01*
X006495Y014300D01*
X006495Y014334D01*
X006484Y014402D01*
X006463Y014468D01*
X006432Y014529D01*
X006395Y014580D01*
X007014Y014580D01*
X007097Y014496D01*
X007229Y014442D01*
X007371Y014442D01*
X007503Y014496D01*
X007604Y014597D01*
X007658Y014729D01*
X007658Y014871D01*
X007656Y014724D02*
X033710Y014724D01*
X033578Y014565D02*
X021291Y014565D01*
X021253Y014604D02*
X021121Y014658D01*
X020979Y014658D01*
X020847Y014604D01*
X020764Y014520D01*
X018836Y014520D01*
X018753Y014604D01*
X018621Y014658D01*
X018479Y014658D01*
X018347Y014604D01*
X018246Y014503D01*
X018192Y014371D01*
X018192Y014229D01*
X018246Y014097D01*
X018347Y013996D01*
X018479Y013942D01*
X018621Y013942D01*
X018753Y013996D01*
X018836Y014080D01*
X020764Y014080D01*
X020847Y013996D01*
X020979Y013942D01*
X021121Y013942D01*
X021253Y013996D01*
X021354Y014097D01*
X021408Y014229D01*
X021408Y014371D01*
X021354Y014503D01*
X021253Y014604D01*
X021393Y014407D02*
X025169Y014407D01*
X025220Y014407D02*
X025380Y014407D01*
X025431Y014407D02*
X033446Y014407D01*
X034491Y015675D02*
X016886Y015675D01*
X016878Y015695D02*
X017003Y015746D01*
X017104Y015847D01*
X017158Y015979D01*
X017158Y016080D01*
X021764Y016080D01*
X021847Y015996D01*
X021979Y015942D01*
X022121Y015942D01*
X022253Y015996D01*
X022354Y016097D01*
X022408Y016229D01*
X022408Y016371D01*
X022354Y016503D01*
X022253Y016604D01*
X022121Y016658D01*
X021979Y016658D01*
X021847Y016604D01*
X021764Y016520D01*
X016959Y016520D01*
X016847Y016408D01*
X016729Y016408D01*
X016597Y016354D01*
X016496Y016253D01*
X016442Y016121D01*
X016442Y015979D01*
X016472Y015905D01*
X016347Y015854D01*
X016264Y015770D01*
X014836Y015770D01*
X014753Y015854D01*
X014621Y015908D01*
X014479Y015908D01*
X014347Y015854D01*
X014246Y015753D01*
X014192Y015621D01*
X014192Y015479D01*
X014246Y015347D01*
X014347Y015246D01*
X014479Y015192D01*
X014621Y015192D01*
X014753Y015246D01*
X014836Y015330D01*
X016264Y015330D01*
X016347Y015246D01*
X016479Y015192D01*
X016621Y015192D01*
X016753Y015246D01*
X016854Y015347D01*
X016908Y015479D01*
X016908Y015621D01*
X016878Y015695D01*
X016908Y015516D02*
X019510Y015516D01*
X019442Y015358D02*
X016858Y015358D01*
X016638Y015199D02*
X019454Y015199D01*
X019553Y015041D02*
X007566Y015041D01*
X007034Y015041D02*
X006410Y015041D01*
X006484Y015199D02*
X014462Y015199D01*
X014638Y015199D02*
X016462Y015199D01*
X016327Y015833D02*
X014773Y015833D01*
X014327Y015833D02*
X002023Y015833D01*
X002003Y015854D02*
X001871Y015908D01*
X001729Y015908D01*
X001597Y015854D01*
X001496Y015753D01*
X001442Y015621D01*
X001442Y015479D01*
X001496Y015347D01*
X001580Y015264D01*
X001580Y014836D01*
X001496Y014753D01*
X001442Y014621D01*
X001442Y014479D01*
X001496Y014347D01*
X001597Y014246D01*
X001729Y014192D01*
X001871Y014192D01*
X002003Y014246D01*
X002104Y014347D01*
X002158Y014479D01*
X002158Y014621D01*
X002104Y014753D01*
X002020Y014836D01*
X002020Y015264D01*
X002104Y015347D01*
X002158Y015479D01*
X002158Y015621D01*
X002104Y015753D01*
X002003Y015854D01*
X002136Y015675D02*
X003356Y015675D01*
X003180Y015516D02*
X002158Y015516D01*
X002108Y015358D02*
X003125Y015358D01*
X003132Y015199D02*
X002020Y015199D01*
X002020Y015041D02*
X003212Y015041D01*
X003306Y014654D02*
X003189Y014536D01*
X003125Y014383D01*
X003125Y014217D01*
X003189Y014064D01*
X003306Y013946D01*
X003459Y013883D01*
X004141Y013883D01*
X004294Y013946D01*
X004411Y014064D01*
X004475Y014217D01*
X004475Y014383D01*
X004411Y014536D01*
X004294Y014654D01*
X004141Y014717D01*
X003459Y014717D01*
X003306Y014654D01*
X003217Y014565D02*
X002158Y014565D01*
X002128Y014407D02*
X003135Y014407D01*
X003125Y014248D02*
X002004Y014248D01*
X001596Y014248D02*
X000780Y014248D01*
X000780Y014090D02*
X003178Y014090D01*
X003342Y013931D02*
X000780Y013931D01*
X000780Y013773D02*
X024577Y013773D01*
X024612Y013931D02*
X006294Y013931D01*
X006287Y013926D02*
X006342Y013966D01*
X006391Y014015D01*
X006432Y014071D01*
X006463Y014132D01*
X006484Y014198D01*
X006495Y014266D01*
X006495Y014300D01*
X005800Y014300D01*
X005800Y014300D01*
X005800Y013863D01*
X006092Y013863D01*
X006160Y013873D01*
X006225Y013895D01*
X006287Y013926D01*
X006441Y014090D02*
X012254Y014090D01*
X012246Y014097D02*
X012347Y013996D01*
X012479Y013942D01*
X012621Y013942D01*
X012753Y013996D01*
X012836Y014080D01*
X014514Y014080D01*
X014597Y013996D01*
X014729Y013942D01*
X014871Y013942D01*
X015003Y013996D01*
X015104Y014097D01*
X015158Y014229D01*
X015158Y014371D01*
X015104Y014503D01*
X015003Y014604D01*
X014871Y014658D01*
X014729Y014658D01*
X014597Y014604D01*
X014514Y014520D01*
X012836Y014520D01*
X012753Y014604D01*
X012621Y014658D01*
X012479Y014658D01*
X012347Y014604D01*
X012246Y014503D01*
X012192Y014371D01*
X012192Y014229D01*
X012246Y014097D01*
X012192Y014248D02*
X006492Y014248D01*
X006483Y014407D02*
X012207Y014407D01*
X012309Y014565D02*
X007571Y014565D01*
X007029Y014565D02*
X006406Y014565D01*
X005800Y014300D02*
X005800Y014300D01*
X005800Y014300D01*
X005800Y013863D01*
X005508Y013863D01*
X005440Y013873D01*
X005375Y013895D01*
X005313Y013926D01*
X005258Y013966D01*
X005209Y014015D01*
X005168Y014071D01*
X005137Y014132D01*
X005116Y014198D01*
X005105Y014266D01*
X005105Y014300D01*
X005800Y014300D01*
X005800Y014248D02*
X005800Y014248D01*
X005800Y014090D02*
X005800Y014090D01*
X005800Y013931D02*
X005800Y013931D01*
X005306Y013931D02*
X004258Y013931D01*
X004422Y014090D02*
X005159Y014090D01*
X005108Y014248D02*
X004475Y014248D01*
X004465Y014407D02*
X005117Y014407D01*
X005194Y014565D02*
X004383Y014565D01*
X004315Y014724D02*
X002116Y014724D01*
X002020Y014882D02*
X004157Y014882D01*
X004468Y015199D02*
X005116Y015199D01*
X005109Y015358D02*
X004475Y015358D01*
X004420Y015516D02*
X005162Y015516D01*
X005314Y015675D02*
X004244Y015675D01*
X004621Y015041D02*
X005190Y015041D01*
X005800Y015358D02*
X005800Y015358D01*
X005800Y015516D02*
X005800Y015516D01*
X005800Y015675D02*
X005800Y015675D01*
X006286Y015675D02*
X014214Y015675D01*
X014192Y015516D02*
X006438Y015516D01*
X006491Y015358D02*
X014242Y015358D01*
X014559Y014565D02*
X012791Y014565D01*
X015041Y014565D02*
X018309Y014565D01*
X018207Y014407D02*
X015143Y014407D01*
X015158Y014248D02*
X018192Y014248D01*
X018254Y014090D02*
X015096Y014090D01*
X017089Y015833D02*
X034645Y015833D01*
X038275Y015992D02*
X022241Y015992D01*
X022375Y016150D02*
X038605Y016150D01*
X038995Y016150D02*
X048070Y016150D01*
X048070Y015992D02*
X039325Y015992D01*
X041090Y015833D02*
X048070Y015833D01*
X048070Y015675D02*
X041249Y015675D01*
X041407Y015516D02*
X048070Y015516D01*
X048070Y015358D02*
X041566Y015358D01*
X041724Y015199D02*
X048070Y015199D01*
X048070Y015041D02*
X041883Y015041D01*
X042041Y014882D02*
X048070Y014882D01*
X048070Y014724D02*
X042200Y014724D01*
X042358Y014565D02*
X048070Y014565D01*
X048070Y014407D02*
X042517Y014407D01*
X041443Y013614D02*
X038757Y013614D01*
X038757Y013773D02*
X041284Y013773D01*
X041126Y013931D02*
X038716Y013931D01*
X038719Y013456D02*
X041601Y013456D01*
X041697Y013297D02*
X038653Y013297D01*
X038499Y013139D02*
X041851Y013139D01*
X042162Y012491D02*
X041908Y012386D01*
X041714Y012192D01*
X041609Y011938D01*
X041609Y011662D01*
X041714Y011408D01*
X041908Y011214D01*
X042162Y011109D01*
X042438Y011109D01*
X042692Y011214D01*
X042886Y011408D01*
X042991Y011662D01*
X042991Y011938D01*
X042886Y012192D01*
X042692Y012386D01*
X042438Y012491D01*
X042162Y012491D01*
X041868Y012346D02*
X038482Y012346D01*
X038638Y012188D02*
X041712Y012188D01*
X041646Y012029D02*
X038774Y012029D01*
X038932Y011871D02*
X041609Y011871D01*
X041609Y011712D02*
X039091Y011712D01*
X039249Y011554D02*
X041654Y011554D01*
X041727Y011395D02*
X039408Y011395D01*
X039566Y011237D02*
X041886Y011237D01*
X042714Y011237D02*
X046136Y011237D01*
X045977Y011395D02*
X042873Y011395D01*
X042946Y011554D02*
X045904Y011554D01*
X045859Y011712D02*
X042991Y011712D01*
X042991Y011871D02*
X045859Y011871D01*
X045896Y012029D02*
X042954Y012029D01*
X042888Y012188D02*
X045962Y012188D01*
X046118Y012346D02*
X042732Y012346D01*
X038661Y011237D02*
X038464Y011237D01*
X038130Y010603D02*
X037970Y010603D01*
X037824Y010603D02*
X034026Y010603D01*
X033880Y010603D02*
X033720Y010603D01*
X033574Y010603D02*
X032651Y010603D01*
X032486Y010444D02*
X033305Y010444D01*
X033177Y010286D02*
X030173Y010286D01*
X030245Y010127D02*
X033105Y010127D01*
X033720Y010286D02*
X033880Y010286D01*
X033880Y010444D02*
X033720Y010444D01*
X034295Y010444D02*
X037555Y010444D01*
X037427Y010286D02*
X034423Y010286D01*
X034495Y010127D02*
X037355Y010127D01*
X037970Y010286D02*
X038130Y010286D01*
X038130Y010444D02*
X037970Y010444D01*
X037970Y009810D02*
X038130Y009810D01*
X038130Y009830D02*
X038130Y009187D01*
X038192Y009195D01*
X038284Y009220D01*
X038372Y009256D01*
X038455Y009304D01*
X038531Y009362D01*
X038598Y009429D01*
X038656Y009505D01*
X038704Y009588D01*
X038740Y009676D01*
X038765Y009768D01*
X038773Y009830D01*
X038130Y009830D01*
X038130Y009652D02*
X037970Y009652D01*
X037970Y009493D02*
X038130Y009493D01*
X038130Y009335D02*
X037970Y009335D01*
X037605Y009335D02*
X034245Y009335D01*
X034281Y009362D02*
X034348Y009429D01*
X034406Y009505D01*
X034454Y009588D01*
X034490Y009676D01*
X034515Y009768D01*
X034523Y009830D01*
X033880Y009830D01*
X033880Y009187D01*
X033942Y009195D01*
X034034Y009220D01*
X034122Y009256D01*
X034205Y009304D01*
X034281Y009362D01*
X034397Y009493D02*
X037453Y009493D01*
X037370Y009652D02*
X034480Y009652D01*
X034521Y009810D02*
X037329Y009810D01*
X038495Y009335D02*
X038980Y009335D01*
X038980Y009493D02*
X038647Y009493D01*
X038730Y009652D02*
X038980Y009652D01*
X038980Y009810D02*
X038771Y009810D01*
X039620Y009810D02*
X041579Y009810D01*
X041620Y009652D02*
X039620Y009652D01*
X039620Y009493D02*
X041703Y009493D01*
X041855Y009335D02*
X039620Y009335D01*
X042220Y009335D02*
X042380Y009335D01*
X042380Y009493D02*
X042220Y009493D01*
X042220Y009652D02*
X042380Y009652D01*
X042380Y009810D02*
X042220Y009810D01*
X048070Y012663D02*
X006890Y012663D01*
X006731Y012822D02*
X048070Y012822D01*
X048070Y012980D02*
X025461Y012980D01*
X025380Y012980D02*
X025220Y012980D01*
X025220Y012967D02*
X025158Y012975D01*
X025066Y013000D01*
X024978Y013036D01*
X024895Y013084D01*
X024819Y013142D01*
X024752Y013209D01*
X024694Y013285D01*
X024646Y013368D01*
X024610Y013456D01*
X024585Y013548D01*
X024577Y013610D01*
X025220Y013610D01*
X025220Y012967D01*
X025139Y012980D02*
X006573Y012980D01*
X006442Y013139D02*
X024824Y013139D01*
X024687Y013297D02*
X006475Y013297D01*
X006445Y013456D02*
X024610Y013456D01*
X025220Y013456D02*
X025380Y013456D01*
X025380Y013297D02*
X025220Y013297D01*
X025220Y013139D02*
X025380Y013139D01*
X025776Y013139D02*
X029101Y013139D01*
X028947Y013297D02*
X025913Y013297D01*
X025990Y013456D02*
X026191Y013456D01*
X025380Y013773D02*
X025220Y013773D01*
X025220Y013931D02*
X025380Y013931D01*
X025380Y014090D02*
X025220Y014090D01*
X025220Y014248D02*
X025380Y014248D01*
X025768Y014248D02*
X029107Y014248D01*
X028950Y014090D02*
X026520Y014090D01*
X026080Y014090D02*
X025909Y014090D01*
X025220Y013614D02*
X006334Y013614D01*
X005266Y013614D02*
X004628Y013614D01*
X004847Y013456D02*
X005155Y013456D01*
X005125Y013297D02*
X005006Y013297D01*
X003266Y013614D02*
X000780Y013614D01*
X000780Y013456D02*
X003155Y013456D01*
X003125Y013297D02*
X000780Y013297D01*
X000780Y013139D02*
X002181Y013139D01*
X002419Y013139D02*
X003158Y013139D01*
X001987Y012980D02*
X000780Y012980D01*
X000780Y012822D02*
X001942Y012822D01*
X001969Y012663D02*
X000780Y012663D01*
X000780Y012505D02*
X002089Y012505D01*
X005035Y012029D02*
X005223Y012029D01*
X006377Y012029D02*
X006565Y012029D01*
X007035Y012029D02*
X007565Y012029D01*
X007597Y011996D02*
X007729Y011942D01*
X007871Y011942D01*
X008003Y011996D01*
X008086Y012080D01*
X010264Y012080D01*
X010347Y011996D01*
X010479Y011942D01*
X010621Y011942D01*
X010753Y011996D01*
X010854Y012097D01*
X010908Y012229D01*
X010908Y012371D01*
X010854Y012503D01*
X010753Y012604D01*
X010621Y012658D01*
X010479Y012658D01*
X010347Y012604D01*
X010264Y012520D01*
X008086Y012520D01*
X008003Y012604D01*
X007871Y012658D01*
X007729Y012658D01*
X007597Y012604D01*
X007496Y012503D01*
X007442Y012371D01*
X007442Y012229D01*
X007496Y012097D01*
X007597Y011996D01*
X007459Y012188D02*
X007141Y012188D01*
X007158Y012346D02*
X007442Y012346D01*
X007498Y012505D02*
X007102Y012505D01*
X008035Y012029D02*
X010315Y012029D01*
X010785Y012029D02*
X012815Y012029D01*
X012709Y012188D02*
X010891Y012188D01*
X010908Y012346D02*
X012692Y012346D01*
X012748Y012505D02*
X010852Y012505D01*
X013285Y012029D02*
X014260Y012029D01*
X017327Y012029D02*
X024646Y012029D01*
X024609Y011871D02*
X017408Y011871D01*
X017401Y011712D02*
X024609Y011712D01*
X024654Y011554D02*
X021303Y011554D01*
X021398Y011395D02*
X024727Y011395D01*
X024886Y011237D02*
X021408Y011237D01*
X020797Y011554D02*
X018803Y011554D01*
X018297Y011554D02*
X017310Y011554D01*
X021346Y014090D02*
X024691Y014090D01*
X024832Y014248D02*
X021408Y014248D01*
X020809Y014565D02*
X018791Y014565D01*
X020047Y015041D02*
X020803Y015041D01*
X021859Y015992D02*
X017158Y015992D01*
X016442Y015992D02*
X000780Y015992D01*
X000780Y016150D02*
X016454Y016150D01*
X016552Y016309D02*
X002065Y016309D01*
X002153Y016467D02*
X009522Y016467D01*
X010278Y016467D02*
X016906Y016467D01*
X016687Y016626D02*
X021900Y016626D01*
X022200Y016626D02*
X023578Y016626D01*
X023641Y016563D02*
X023744Y016520D01*
X026071Y016520D01*
X026096Y016495D01*
X026228Y016440D01*
X026372Y016440D01*
X026504Y016495D01*
X026605Y016596D01*
X026660Y016728D01*
X026660Y016872D01*
X026605Y017004D01*
X026504Y017105D01*
X026372Y017160D01*
X026228Y017160D01*
X026096Y017105D01*
X026071Y017080D01*
X023916Y017080D01*
X023037Y017959D01*
X022959Y018037D01*
X022856Y018080D01*
X016026Y018080D01*
X016003Y018104D01*
X015871Y018158D01*
X015729Y018158D01*
X015597Y018104D01*
X015574Y018080D01*
X009026Y018080D01*
X009003Y018104D01*
X008871Y018158D01*
X008729Y018158D01*
X008597Y018104D01*
X008574Y018080D01*
X005026Y018080D01*
X005003Y018104D01*
X004871Y018158D01*
X004729Y018158D01*
X004597Y018104D01*
X004496Y018003D01*
X004442Y017871D01*
X004442Y017729D01*
X004496Y017597D01*
X004597Y017496D01*
X004729Y017442D01*
X004871Y017442D01*
X005003Y017496D01*
X005026Y017520D01*
X008574Y017520D01*
X008597Y017496D01*
X008729Y017442D01*
X008871Y017442D01*
X009003Y017496D01*
X009026Y017520D01*
X015574Y017520D01*
X015597Y017496D01*
X015729Y017442D01*
X015871Y017442D01*
X016003Y017496D01*
X016026Y017520D01*
X022684Y017520D01*
X023641Y016563D01*
X023420Y016784D02*
X017040Y016784D01*
X017143Y016943D02*
X023261Y016943D01*
X023103Y017101D02*
X017158Y017101D01*
X017097Y017260D02*
X022944Y017260D01*
X022786Y017418D02*
X000780Y017418D01*
X000780Y017577D02*
X001278Y017577D01*
X001001Y017735D02*
X000780Y017735D01*
X000780Y017894D02*
X000826Y017894D01*
X001720Y017894D02*
X001880Y017894D01*
X001880Y018052D02*
X001720Y018052D01*
X001720Y018211D02*
X001880Y018211D01*
X001880Y018369D02*
X001720Y018369D01*
X001720Y018528D02*
X001880Y018528D01*
X001880Y018686D02*
X001720Y018686D01*
X001880Y018845D02*
X013192Y018845D01*
X013192Y018871D02*
X013192Y018729D01*
X013246Y018597D01*
X013347Y018496D01*
X013479Y018442D01*
X013621Y018442D01*
X013753Y018496D01*
X013776Y018520D01*
X020074Y018520D01*
X020097Y018496D01*
X020229Y018442D01*
X020371Y018442D01*
X020503Y018496D01*
X020526Y018520D01*
X021074Y018520D01*
X021097Y018496D01*
X021229Y018442D01*
X021371Y018442D01*
X021503Y018496D01*
X021604Y018597D01*
X021658Y018729D01*
X021658Y018871D01*
X021604Y019003D01*
X021503Y019104D01*
X021371Y019158D01*
X021229Y019158D01*
X021097Y019104D01*
X021074Y019080D01*
X020526Y019080D01*
X020503Y019104D01*
X020371Y019158D01*
X020229Y019158D01*
X020097Y019104D01*
X020074Y019080D01*
X013776Y019080D01*
X013753Y019104D01*
X013621Y019158D01*
X013479Y019158D01*
X013347Y019104D01*
X013246Y019003D01*
X013192Y018871D01*
X013247Y019003D02*
X003116Y019003D01*
X003080Y019162D02*
X045770Y019162D01*
X045734Y019003D02*
X021603Y019003D01*
X021658Y018845D02*
X028761Y018845D01*
X028741Y018841D02*
X028663Y018816D01*
X028591Y018780D01*
X028526Y018732D01*
X028468Y018675D01*
X028421Y018609D01*
X028384Y018537D01*
X028359Y018460D01*
X028346Y018380D01*
X028346Y018368D01*
X028833Y018368D01*
X028833Y018854D01*
X028821Y018854D01*
X028741Y018841D01*
X028833Y018845D02*
X028889Y018845D01*
X028889Y018854D02*
X028889Y018368D01*
X028833Y018368D01*
X028833Y018311D01*
X028889Y018311D01*
X028889Y017825D01*
X028902Y017825D01*
X028982Y017837D01*
X029059Y017862D01*
X029131Y017899D01*
X029196Y017947D01*
X029254Y018004D01*
X029301Y018070D01*
X029338Y018142D01*
X029363Y018219D01*
X029376Y018299D01*
X029376Y018311D01*
X028889Y018311D01*
X028889Y018368D01*
X029376Y018368D01*
X029376Y018380D01*
X029363Y018460D01*
X029338Y018537D01*
X029301Y018609D01*
X029254Y018675D01*
X029196Y018732D01*
X029131Y018780D01*
X029059Y018816D01*
X028982Y018841D01*
X028902Y018854D01*
X028889Y018854D01*
X028961Y018845D02*
X033011Y018845D01*
X032991Y018841D02*
X032913Y018816D01*
X032841Y018780D01*
X032776Y018732D01*
X032718Y018675D01*
X032671Y018609D01*
X032634Y018537D01*
X032609Y018460D01*
X032596Y018380D01*
X032596Y018368D01*
X033083Y018368D01*
X033083Y018854D01*
X033071Y018854D01*
X032991Y018841D01*
X033083Y018845D02*
X033139Y018845D01*
X033139Y018854D02*
X033139Y018368D01*
X033083Y018368D01*
X033083Y018311D01*
X033139Y018311D01*
X033139Y017825D01*
X033152Y017825D01*
X033232Y017837D01*
X033309Y017862D01*
X033381Y017899D01*
X033446Y017947D01*
X033504Y018004D01*
X033551Y018070D01*
X033588Y018142D01*
X033613Y018219D01*
X033626Y018299D01*
X033626Y018311D01*
X033139Y018311D01*
X033139Y018368D01*
X033626Y018368D01*
X033626Y018380D01*
X033613Y018460D01*
X033588Y018537D01*
X033551Y018609D01*
X033504Y018675D01*
X033446Y018732D01*
X033381Y018780D01*
X033309Y018816D01*
X033232Y018841D01*
X033152Y018854D01*
X033139Y018854D01*
X033211Y018845D02*
X037261Y018845D01*
X037241Y018841D02*
X037163Y018816D01*
X037091Y018780D01*
X037026Y018732D01*
X036968Y018675D01*
X036921Y018609D01*
X036884Y018537D01*
X036859Y018460D01*
X036846Y018380D01*
X036846Y018368D01*
X037333Y018368D01*
X037333Y018854D01*
X037321Y018854D01*
X037241Y018841D01*
X037333Y018845D02*
X037389Y018845D01*
X037389Y018854D02*
X037389Y018368D01*
X037333Y018368D01*
X037333Y018311D01*
X037389Y018311D01*
X037389Y017825D01*
X037402Y017825D01*
X037482Y017837D01*
X037559Y017862D01*
X037631Y017899D01*
X037696Y017947D01*
X037754Y018004D01*
X037801Y018070D01*
X037838Y018142D01*
X037863Y018219D01*
X037876Y018299D01*
X037876Y018311D01*
X037389Y018311D01*
X037389Y018368D01*
X037876Y018368D01*
X037876Y018380D01*
X037863Y018460D01*
X037838Y018537D01*
X037801Y018609D01*
X037754Y018675D01*
X037696Y018732D01*
X037631Y018780D01*
X037559Y018816D01*
X037482Y018841D01*
X037402Y018854D01*
X037389Y018854D01*
X037461Y018845D02*
X041511Y018845D01*
X041491Y018841D02*
X041413Y018816D01*
X041341Y018780D01*
X041276Y018732D01*
X041218Y018675D01*
X041171Y018609D01*
X041134Y018537D01*
X041109Y018460D01*
X041096Y018380D01*
X041096Y018368D01*
X041583Y018368D01*
X041583Y018854D01*
X041571Y018854D01*
X041491Y018841D01*
X041583Y018845D02*
X041639Y018845D01*
X041639Y018854D02*
X041639Y018368D01*
X041583Y018368D01*
X041583Y018311D01*
X041639Y018311D01*
X041639Y017825D01*
X041652Y017825D01*
X041732Y017837D01*
X041809Y017862D01*
X041881Y017899D01*
X041946Y017947D01*
X042004Y018004D01*
X042051Y018070D01*
X042088Y018142D01*
X042113Y018219D01*
X042126Y018299D01*
X042126Y018311D01*
X041639Y018311D01*
X041639Y018368D01*
X042126Y018368D01*
X042126Y018380D01*
X042113Y018460D01*
X042088Y018537D01*
X042051Y018609D01*
X042004Y018675D01*
X041946Y018732D01*
X041881Y018780D01*
X041809Y018816D01*
X041732Y018841D01*
X041652Y018854D01*
X041639Y018854D01*
X041711Y018845D02*
X046970Y018845D01*
X046970Y018686D02*
X047130Y018686D01*
X047130Y018528D02*
X046970Y018528D01*
X046970Y018369D02*
X047130Y018369D01*
X047130Y018211D02*
X046970Y018211D01*
X046970Y018052D02*
X047130Y018052D01*
X047130Y017894D02*
X046970Y017894D01*
X046970Y017735D02*
X047130Y017735D01*
X047130Y017577D02*
X046970Y017577D01*
X046528Y017577D02*
X023419Y017577D01*
X023261Y017735D02*
X046251Y017735D01*
X046076Y017894D02*
X043205Y017894D01*
X043269Y017920D02*
X043408Y018059D01*
X043484Y018241D01*
X043484Y018438D01*
X043408Y018620D01*
X043269Y018759D01*
X043087Y018834D01*
X042891Y018834D01*
X042709Y018759D01*
X042570Y018620D01*
X042494Y018438D01*
X042494Y018241D01*
X042570Y018059D01*
X042709Y017920D01*
X042891Y017845D01*
X043087Y017845D01*
X043269Y017920D01*
X043401Y018052D02*
X045950Y018052D01*
X045857Y018211D02*
X043471Y018211D01*
X043484Y018369D02*
X045791Y018369D01*
X045748Y018528D02*
X043446Y018528D01*
X043342Y018686D02*
X045725Y018686D01*
X045826Y019320D02*
X003024Y019320D01*
X002945Y019479D02*
X045905Y019479D01*
X046016Y019637D02*
X002834Y019637D01*
X002683Y019796D02*
X046167Y019796D01*
X042636Y018686D02*
X041992Y018686D01*
X042091Y018528D02*
X042532Y018528D01*
X042494Y018369D02*
X042126Y018369D01*
X042110Y018211D02*
X042507Y018211D01*
X042577Y018052D02*
X042038Y018052D01*
X041870Y017894D02*
X042773Y017894D01*
X041639Y017894D02*
X041583Y017894D01*
X041583Y017825D02*
X041583Y018311D01*
X041096Y018311D01*
X041096Y018299D01*
X041109Y018219D01*
X041134Y018142D01*
X041171Y018070D01*
X041218Y018004D01*
X041276Y017947D01*
X041341Y017899D01*
X041413Y017862D01*
X041491Y017837D01*
X041571Y017825D01*
X041583Y017825D01*
X041583Y018052D02*
X041639Y018052D01*
X041639Y018211D02*
X041583Y018211D01*
X041583Y018369D02*
X041639Y018369D01*
X041639Y018528D02*
X041583Y018528D01*
X041583Y018686D02*
X041639Y018686D01*
X041230Y018686D02*
X039092Y018686D01*
X039158Y018620D02*
X039019Y018759D01*
X038837Y018834D01*
X038641Y018834D01*
X038459Y018759D01*
X038320Y018620D01*
X038244Y018438D01*
X038244Y018241D01*
X038320Y018059D01*
X038459Y017920D01*
X038641Y017845D01*
X038837Y017845D01*
X039019Y017920D01*
X039158Y018059D01*
X039234Y018241D01*
X039234Y018438D01*
X039158Y018620D01*
X039196Y018528D02*
X041131Y018528D01*
X041096Y018369D02*
X039234Y018369D01*
X039221Y018211D02*
X041112Y018211D01*
X041184Y018052D02*
X039151Y018052D01*
X038955Y017894D02*
X041352Y017894D01*
X038523Y017894D02*
X037620Y017894D01*
X037389Y017894D02*
X037333Y017894D01*
X037333Y017825D02*
X037333Y018311D01*
X036846Y018311D01*
X036846Y018299D01*
X036859Y018219D01*
X036884Y018142D01*
X036921Y018070D01*
X036968Y018004D01*
X037026Y017947D01*
X037091Y017899D01*
X037163Y017862D01*
X037241Y017837D01*
X037321Y017825D01*
X037333Y017825D01*
X037333Y018052D02*
X037389Y018052D01*
X037389Y018211D02*
X037333Y018211D01*
X037333Y018369D02*
X037389Y018369D01*
X037389Y018528D02*
X037333Y018528D01*
X037333Y018686D02*
X037389Y018686D01*
X037742Y018686D02*
X038386Y018686D01*
X038282Y018528D02*
X037841Y018528D01*
X037876Y018369D02*
X038244Y018369D01*
X038257Y018211D02*
X037860Y018211D01*
X037788Y018052D02*
X038327Y018052D01*
X037102Y017894D02*
X034705Y017894D01*
X034769Y017920D02*
X034908Y018059D01*
X034984Y018241D01*
X034984Y018438D01*
X034908Y018620D01*
X034769Y018759D01*
X034587Y018834D01*
X034391Y018834D01*
X034209Y018759D01*
X034070Y018620D01*
X033994Y018438D01*
X033994Y018241D01*
X034070Y018059D01*
X034209Y017920D01*
X034391Y017845D01*
X034587Y017845D01*
X034769Y017920D01*
X034901Y018052D02*
X036934Y018052D01*
X036862Y018211D02*
X034971Y018211D01*
X034984Y018369D02*
X036846Y018369D01*
X036881Y018528D02*
X034946Y018528D01*
X034842Y018686D02*
X036980Y018686D01*
X034273Y017894D02*
X033370Y017894D01*
X033139Y017894D02*
X033083Y017894D01*
X033083Y017825D02*
X033083Y018311D01*
X032596Y018311D01*
X032596Y018299D01*
X032609Y018219D01*
X032634Y018142D01*
X032671Y018070D01*
X032718Y018004D01*
X032776Y017947D01*
X032841Y017899D01*
X032913Y017862D01*
X032991Y017837D01*
X033071Y017825D01*
X033083Y017825D01*
X033083Y018052D02*
X033139Y018052D01*
X033139Y018211D02*
X033083Y018211D01*
X033083Y018369D02*
X033139Y018369D01*
X033139Y018528D02*
X033083Y018528D01*
X033083Y018686D02*
X033139Y018686D01*
X033492Y018686D02*
X034136Y018686D01*
X034032Y018528D02*
X033591Y018528D01*
X033626Y018369D02*
X033994Y018369D01*
X034007Y018211D02*
X033610Y018211D01*
X033538Y018052D02*
X034077Y018052D01*
X032852Y017894D02*
X030455Y017894D01*
X030519Y017920D02*
X030658Y018059D01*
X030734Y018241D01*
X030734Y018438D01*
X030658Y018620D01*
X030519Y018759D01*
X030337Y018834D01*
X030141Y018834D01*
X029959Y018759D01*
X029820Y018620D01*
X029744Y018438D01*
X029744Y018241D01*
X029820Y018059D01*
X029959Y017920D01*
X030141Y017845D01*
X030337Y017845D01*
X030519Y017920D01*
X030651Y018052D02*
X032684Y018052D01*
X032612Y018211D02*
X030721Y018211D01*
X030734Y018369D02*
X032596Y018369D01*
X032631Y018528D02*
X030696Y018528D01*
X030592Y018686D02*
X032730Y018686D01*
X030023Y017894D02*
X029120Y017894D01*
X028889Y017894D02*
X028833Y017894D01*
X028833Y017825D02*
X028833Y018311D01*
X028346Y018311D01*
X028346Y018299D01*
X028359Y018219D01*
X028384Y018142D01*
X028421Y018070D01*
X028468Y018004D01*
X028526Y017947D01*
X028591Y017899D01*
X028663Y017862D01*
X028741Y017837D01*
X028821Y017825D01*
X028833Y017825D01*
X028833Y018052D02*
X028889Y018052D01*
X028889Y018211D02*
X028833Y018211D01*
X028833Y018369D02*
X028889Y018369D01*
X028889Y018528D02*
X028833Y018528D01*
X028833Y018686D02*
X028889Y018686D01*
X029242Y018686D02*
X029886Y018686D01*
X029782Y018528D02*
X029341Y018528D01*
X029376Y018369D02*
X029744Y018369D01*
X029757Y018211D02*
X029360Y018211D01*
X029288Y018052D02*
X029827Y018052D01*
X028602Y017894D02*
X023102Y017894D01*
X022923Y018052D02*
X028434Y018052D01*
X028362Y018211D02*
X002993Y018211D01*
X003059Y018369D02*
X028346Y018369D01*
X028381Y018528D02*
X021534Y018528D01*
X021640Y018686D02*
X028480Y018686D01*
X026508Y017101D02*
X048070Y017101D01*
X048070Y016943D02*
X026631Y016943D01*
X026660Y016784D02*
X048070Y016784D01*
X048070Y016626D02*
X026617Y016626D01*
X026437Y016467D02*
X048070Y016467D01*
X048070Y016309D02*
X022408Y016309D01*
X022368Y016467D02*
X026163Y016467D01*
X026092Y017101D02*
X023895Y017101D01*
X023736Y017260D02*
X048070Y017260D01*
X048070Y017418D02*
X023578Y017418D01*
X016503Y017260D02*
X010097Y017260D01*
X010158Y017101D02*
X016442Y017101D01*
X013316Y018528D02*
X003102Y018528D01*
X003125Y018686D02*
X013210Y018686D01*
X004546Y018052D02*
X002900Y018052D01*
X002774Y017894D02*
X004451Y017894D01*
X004442Y017735D02*
X002599Y017735D01*
X002322Y017577D02*
X004517Y017577D01*
X001880Y017577D02*
X001720Y017577D01*
X001720Y017735D02*
X001880Y017735D01*
X001528Y016784D02*
X001040Y016784D01*
X000780Y016626D02*
X001444Y016626D01*
X001447Y016467D02*
X000780Y016467D01*
X000780Y016309D02*
X001535Y016309D01*
X001577Y015833D02*
X000780Y015833D01*
X000780Y015675D02*
X001464Y015675D01*
X001442Y015516D02*
X000780Y015516D01*
X000780Y015358D02*
X001492Y015358D01*
X001580Y015199D02*
X000780Y015199D01*
X000780Y015041D02*
X001580Y015041D01*
X001580Y014882D02*
X000780Y014882D01*
X000780Y014724D02*
X001484Y014724D01*
X001442Y014565D02*
X000780Y014565D01*
X000780Y014407D02*
X001472Y014407D01*
X010046Y009810D02*
X010304Y009810D01*
X010796Y009810D02*
X024593Y009810D01*
X024641Y009652D02*
X010896Y009652D01*
X010908Y009493D02*
X024716Y009493D01*
X024875Y009335D02*
X010841Y009335D01*
X003803Y003470D02*
X000780Y003470D01*
X000780Y003312D02*
X003535Y003312D01*
X003377Y003153D02*
X000780Y003153D01*
X000780Y002995D02*
X001213Y002995D01*
X000966Y002836D02*
X000780Y002836D01*
X000780Y002678D02*
X000800Y002678D01*
X001720Y002678D02*
X001880Y002678D01*
X001880Y002836D02*
X001720Y002836D01*
X001720Y002995D02*
X001880Y002995D01*
X002387Y002995D02*
X003265Y002995D01*
X003176Y002836D02*
X002634Y002836D01*
X002800Y002678D02*
X003134Y002678D01*
X003100Y002519D02*
X002919Y002519D01*
X003007Y002361D02*
X003100Y002361D01*
X003112Y002202D02*
X003068Y002202D01*
X003108Y002044D02*
X003155Y002044D01*
X003128Y001885D02*
X003219Y001885D01*
X003311Y001727D02*
X001880Y001727D01*
X001880Y001885D02*
X001720Y001885D01*
X001720Y002044D02*
X001880Y002044D01*
X001880Y002202D02*
X001720Y002202D01*
X001720Y002361D02*
X001880Y002361D01*
X001880Y002519D02*
X001720Y002519D01*
X003110Y001568D02*
X003456Y001568D01*
X003666Y001410D02*
X003071Y001410D01*
X026007Y009969D02*
X029470Y009969D01*
X028927Y010286D02*
X026128Y010286D01*
X025976Y010127D02*
X028855Y010127D01*
X029055Y010444D02*
X026287Y010444D01*
X029470Y009652D02*
X029630Y009652D01*
X029630Y009493D02*
X029470Y009493D01*
X029470Y009335D02*
X029630Y009335D01*
X029995Y009335D02*
X033355Y009335D01*
X033203Y009493D02*
X030147Y009493D01*
X030230Y009652D02*
X033120Y009652D01*
X033079Y009810D02*
X030271Y009810D01*
X030045Y010444D02*
X032114Y010444D01*
X033720Y009810D02*
X033880Y009810D01*
X033880Y009652D02*
X033720Y009652D01*
X033720Y009493D02*
X033880Y009493D01*
X033880Y009335D02*
X033720Y009335D01*
X046999Y013139D02*
X048070Y013139D01*
X048070Y013297D02*
X047153Y013297D01*
X047219Y013456D02*
X048070Y013456D01*
X048070Y013614D02*
X047257Y013614D01*
X047257Y013773D02*
X048070Y013773D01*
X048070Y013931D02*
X047216Y013931D01*
X047150Y014090D02*
X048070Y014090D01*
X048070Y014248D02*
X046993Y014248D01*
X047572Y017577D02*
X048070Y017577D01*
X048070Y017735D02*
X047849Y017735D01*
X048024Y017894D02*
X048070Y017894D01*
D18*
X022050Y016300D03*
X021050Y015300D03*
X019800Y015300D03*
X019050Y015300D03*
X017800Y015050D03*
X016550Y015550D03*
X016800Y016050D03*
X016800Y017050D03*
X015800Y017800D03*
X013550Y018800D03*
X009800Y017050D03*
X008800Y017800D03*
X004800Y017800D03*
X001800Y016550D03*
X000800Y017050D03*
X001800Y015550D03*
X001800Y014550D03*
X002300Y012800D03*
X002750Y012050D03*
X004450Y011650D03*
X004800Y012300D03*
X006800Y012300D03*
X007800Y012300D03*
X008550Y011300D03*
X010550Y012300D03*
X011050Y011300D03*
X013050Y012300D03*
X014800Y011800D03*
X017050Y011800D03*
X018550Y011300D03*
X019050Y010300D03*
X021050Y011300D03*
X020550Y012300D03*
X021050Y014300D03*
X018550Y014300D03*
X014800Y014300D03*
X012550Y014300D03*
X013800Y013300D03*
X013800Y015300D03*
X014550Y015550D03*
X007300Y014800D03*
X007300Y009800D03*
X009800Y009550D03*
X010550Y009550D03*
X015300Y007050D03*
X017050Y007050D03*
X021300Y007050D03*
X012300Y006550D03*
X010800Y001300D03*
X020300Y018800D03*
X021300Y018800D03*
D19*
X020300Y018800D01*
X013550Y018800D01*
X015800Y017800D02*
X008800Y017800D01*
X004800Y017800D01*
X015800Y017800D02*
X022800Y017800D01*
X023800Y016800D01*
X026300Y016800D01*
X026300Y013800D02*
X026410Y013690D01*
X029550Y013690D01*
X033800Y013690D02*
X033800Y013800D01*
D20*
X022050Y016300D02*
X017050Y016300D01*
X016800Y016050D01*
X016550Y015550D02*
X014550Y015550D01*
X014800Y014300D02*
X012550Y014300D01*
X013050Y012300D02*
X014300Y012300D01*
X014800Y011800D01*
X017050Y011800D01*
X018550Y011300D02*
X021050Y011300D01*
X021050Y014300D02*
X018550Y014300D01*
X019800Y015300D02*
X021050Y015300D01*
X016800Y017050D02*
X016550Y016800D01*
X010300Y016800D01*
X010150Y016650D01*
X009650Y016650D01*
X009500Y016800D01*
X002050Y016800D01*
X001800Y016550D01*
X000800Y017050D02*
X009800Y017050D01*
X007300Y014800D02*
X004550Y014800D01*
X004050Y015300D01*
X003800Y015300D01*
X001800Y015550D02*
X001800Y014550D01*
X002300Y012800D02*
X004300Y012800D01*
X004800Y012300D01*
X004450Y011650D02*
X003150Y011650D01*
X002750Y012050D01*
X003800Y010300D02*
X004300Y009800D01*
X007300Y009800D01*
X009800Y009550D02*
X010550Y009550D01*
X015300Y007050D02*
X017050Y007050D01*
X021300Y007050D01*
X012300Y006550D02*
X011550Y005800D01*
X008800Y005800D01*
X007800Y012300D02*
X010550Y012300D01*
D21*
X026300Y013800D03*
X026300Y016800D03*
D22*
X029550Y013690D02*
X033800Y013690D01*
X033800Y013800D02*
X035050Y015300D01*
X038800Y015300D01*
X040690Y015300D01*
X042300Y013690D01*
X046550Y013690D01*
D23*
X038800Y015300D03*
D24*
X038550Y011800D02*
X038050Y011800D01*
X038550Y011800D02*
X039300Y011050D01*
X039300Y007050D01*
X038050Y005800D01*
X039800Y001050D02*
X039550Y000800D01*
X011300Y000800D01*
X010800Y001300D01*
X025300Y009910D02*
X026190Y010800D01*
X032300Y010800D01*
X027550Y011800D02*
X025300Y011800D01*
X011050Y011300D02*
X008550Y011300D01*
X006800Y012300D02*
X006300Y012800D01*
X005050Y012800D01*
X004550Y013300D01*
X003800Y013300D01*
D25*
X027550Y011800D03*
X032300Y010800D03*
X039800Y001050D03*
D26*
X021300Y005800D02*
X020800Y006300D01*
X019800Y006300D01*
D27*
X019800Y006300D03*
M02*
