G75*
%MOIN*%
%OFA0B0*%
%FSLAX24Y24*%
%IPPOS*%
%LPD*%
%AMOC8*
5,1,8,0,0,1.08239X$1,22.5*
%
%ADD10R,0.0730X0.0730*%
%ADD11C,0.0730*%
%ADD12C,0.1420*%
%ADD13C,0.0595*%
%ADD14C,0.0749*%
%ADD15C,0.2380*%
%ADD16C,0.1143*%
%ADD17C,0.1175*%
%ADD18C,0.0476*%
%ADD19C,0.0480*%
%ADD20C,0.1480*%
%ADD21C,0.0560*%
%ADD22C,0.0390*%
D10*
X008800Y005800D03*
X015800Y005800D03*
X022300Y005800D03*
X027550Y005800D03*
X032800Y005800D03*
X038050Y005800D03*
D11*
X037050Y005800D03*
X031800Y005800D03*
X026550Y005800D03*
X021300Y005800D03*
X020300Y005800D03*
X014800Y005800D03*
X013800Y005800D03*
X007800Y005800D03*
X006800Y005800D03*
X005800Y005800D03*
X004800Y005800D03*
D12*
X004250Y002400D03*
X009350Y002400D03*
X013250Y002400D03*
X016350Y002400D03*
X019750Y002400D03*
X022850Y002400D03*
X026000Y002400D03*
X028100Y002400D03*
X031250Y002400D03*
X033350Y002400D03*
X036500Y002400D03*
X038600Y002400D03*
D13*
X006057Y010300D02*
X005543Y010300D01*
X004057Y010300D02*
X003543Y010300D01*
X003543Y012300D02*
X004057Y012300D01*
X005543Y012300D02*
X006057Y012300D01*
X006057Y013300D02*
X005543Y013300D01*
X004057Y013300D02*
X003543Y013300D01*
X003543Y014300D02*
X004057Y014300D01*
X005543Y014300D02*
X006057Y014300D01*
X006057Y015300D02*
X005543Y015300D01*
X004057Y015300D02*
X003543Y015300D01*
D14*
X028861Y018339D03*
X030239Y018339D03*
X033111Y018339D03*
X034489Y018339D03*
X037361Y018339D03*
X038739Y018339D03*
X041611Y018339D03*
X042989Y018339D03*
X042739Y002261D03*
X041361Y002261D03*
D15*
X001800Y001800D03*
X001800Y018800D03*
X047050Y018800D03*
X047050Y001800D03*
D16*
X046550Y011800D03*
X042300Y011800D03*
X038050Y011800D03*
X033800Y011800D03*
X029550Y011800D03*
X025300Y011800D03*
D17*
X025300Y009910D03*
X029550Y009910D03*
X033800Y009910D03*
X038050Y009910D03*
X042300Y009910D03*
X046550Y009910D03*
X046550Y013690D03*
X042300Y013690D03*
X038050Y013690D03*
X033800Y013690D03*
X029550Y013690D03*
X025300Y013690D03*
D18*
X021050Y014300D03*
X021050Y015300D03*
X019800Y015300D03*
X019050Y015300D03*
X017800Y015050D03*
X016550Y015550D03*
X016800Y016050D03*
X016800Y017050D03*
X015800Y017800D03*
X013550Y018800D03*
X009800Y017050D03*
X008800Y017800D03*
X004800Y017800D03*
X001800Y016550D03*
X000800Y017050D03*
X001800Y015550D03*
X001800Y014550D03*
X002300Y012800D03*
X002750Y012050D03*
X004450Y011650D03*
X004800Y012300D03*
X006800Y012300D03*
X007800Y012300D03*
X008550Y011300D03*
X010550Y012300D03*
X011050Y011300D03*
X013050Y012300D03*
X014800Y011800D03*
X017050Y011800D03*
X018550Y011300D03*
X019050Y010300D03*
X021050Y011300D03*
X020550Y012300D03*
X018550Y014300D03*
X014800Y014300D03*
X012550Y014300D03*
X013800Y013300D03*
X013800Y015300D03*
X014550Y015550D03*
X007300Y014800D03*
X007300Y009800D03*
X009800Y009550D03*
X010550Y009550D03*
X015300Y007050D03*
X017050Y007050D03*
X021300Y007050D03*
X012300Y006550D03*
X010800Y001300D03*
X022050Y016300D03*
X021300Y018800D03*
X020300Y018800D03*
D19*
X026300Y016800D03*
X026300Y013800D03*
D20*
X038800Y015300D03*
D21*
X032300Y010800D03*
X027550Y011800D03*
X039800Y001050D03*
D22*
X019800Y006300D03*
M02*
