<?xml version="1.0" encoding="UTF-8" standalone="no"?>
<!-- Created with Inkscape (http://www.inkscape.org/) -->

<svg
   xmlns:dc="http://purl.org/dc/elements/1.1/"
   xmlns:cc="http://creativecommons.org/ns#"
   xmlns:rdf="http://www.w3.org/1999/02/22-rdf-syntax-ns#"
   xmlns:svg="http://www.w3.org/2000/svg"
   xmlns="http://www.w3.org/2000/svg"
   xmlns:sodipodi="http://sodipodi.sourceforge.net/DTD/sodipodi-0.dtd"
   xmlns:inkscape="http://www.inkscape.org/namespaces/inkscape"
   width="4212.9922"
   height="2979.9211"
   id="svg2"
   version="1.1"
   inkscape:version="0.48.5 r10040"
   sodipodi:docname="New document 1">
  <defs
     id="defs4" />
  <sodipodi:namedview
     id="base"
     pagecolor="#ffffff"
     bordercolor="#666666"
     borderopacity="1.0"
     inkscape:pageopacity="0.0"
     inkscape:pageshadow="2"
     inkscape:zoom="0.26745674"
     inkscape:cx="1427.8817"
     inkscape:cy="1639.5175"
     inkscape:document-units="in"
     inkscape:current-layer="layer1"
     showgrid="false"
     inkscape:window-width="1920"
     inkscape:window-height="1003"
     inkscape:window-x="-9"
     inkscape:window-y="-9"
     inkscape:window-maximized="1" />
  <metadata
     id="metadata7">
    <rdf:RDF>
      <cc:Work
         rdf:about="">
        <dc:format>image/svg+xml</dc:format>
        <dc:type
           rdf:resource="http://purl.org/dc/dcmitype/StillImage" />
        <dc:title></dc:title>
      </cc:Work>
    </rdf:RDF>
  </metadata>
  <g
     inkscape:label="Layer 1"
     inkscape:groupmode="layer"
     id="layer1"
     transform="translate(0,1927.5591)">
    <g
       transform="translate(545.88267,-1471.4106)"
       style="font-size:144px;font-style:normal;font-variant:normal;font-weight:normal;font-stretch:normal;line-height:125%;letter-spacing:0px;word-spacing:0px;fill:none;fill-opacity:1;stroke:#000000;font-family:TPF U13;-inkscape-font-specification:TPF U13;stroke-opacity:1"
       id="flowRoot3825">
      <path
         d="m 140.6875,207.65332 28.80176,0 0,108 c 4.79876,0.3838 7.19817,2.78321 7.19824,7.19824 l -43.19824,0 c -3e-5,-4.41503 2.39938,-6.81444 7.19824,-7.19824 z m 36,0 28.80176,0 0,28.79736 -14.40088,0 c -0.67391,-9.60049 -5.4742,-14.40077 -14.40088,-14.40088 l 0,0 z m -43.19824,0 -28.80176,0 0,28.79736 14.40088,0 c 0.67088,-9.60049 5.47117,-14.40077 14.40088,-14.40088 l 0,0 z"
         style="stroke:#000000;stroke-opacity:1;fill:none"
         id="path3933" />
      <path
         d="m 269.61426,258.0498 0,14.40088 c 7.19819,0.67388 10.7973,5.47417 10.79736,14.40088 l 0,7.19824 c -6e-5,8.92971 -3.59917,13.73 -10.79736,14.40088 l 0,14.40088 18,0 c 4.22161,-0.38379 7.82073,-1.58349 10.79736,-3.59912 7.20109,-4.80175 10.80167,-13.20262 10.80176,-25.20264 l 0,-7.19824 c -9e-5,-11.99995 -4.80038,-20.39936 -14.40088,-25.19824 -4.03132,-2.01849 -8.83161,-3.21966 -14.40088,-3.60352 z m -7.20264,-50.39648 0,14.39648 c -7.19827,0.67393 -10.79739,5.47422 -10.79736,14.40088 l 0,7.20264 c -3e-5,8.92683 3.59909,13.72565 10.79736,14.39648 l 0,14.40088 -18,0 c -4.22463,-0.38373 -7.82374,-1.58344 -10.79736,-3.59912 -7.20118,-4.79877 -10.80176,-13.19817 -10.80176,-25.19824 l 0,-7.20264 c 0,-11.9999 4.80029,-20.3993 14.40088,-25.19824 4.03123,-2.01551 8.83152,-3.21522 14.40088,-3.59912 z m 7.20264,0 39.59912,0 0,28.79736 -21.59912,0 c -0.67389,-9.60049 -5.47418,-14.40077 -14.40088,-14.40088 l -3.59912,0 z m -7.20264,115.19824 -39.59912,0 0,-28.80176 21.59912,0 c 0.67381,9.60061 5.4741,14.4009 14.40088,14.40088 l 3.59912,0 z"
         style="stroke:#000000;stroke-opacity:1;fill:none"
         id="path3935" />
      <path
         d="m 434.59375,207.65332 -43.19824,0 c 0.38372,4.79894 2.78313,7.19835 7.19824,7.19824 l -14.40088,57.59912 0,50.40088 14.40088,0 28.80176,-108 c 4.41493,1.1e-4 6.81434,-2.3993 7.19824,-7.19824 z m -57.59912,64.79736 -14.40088,-57.59912 c 4.415,1.1e-4 6.81441,-2.3993 7.19824,-7.19824 l -43.19824,0 c 0.38379,4.79894 2.7832,7.19835 7.19824,7.19824 l 28.80176,108 14.40088,0 z"
         style="stroke:#000000;stroke-opacity:1;fill:none"
         id="path3937" />
      <path
         d="m 555.53125,207.65332 c 0.38379,4.79894 2.7832,7.19835 7.19824,7.19824 l 0,100.80176 c -4.79883,0.3838 -7.19824,2.78321 -7.19824,7.19824 l 36,0 0,-115.19824 z m 43.19824,0 0,14.39648 c 9.60054,0.67393 14.40082,5.47422 14.40088,14.40088 l 0,57.59912 c -6e-5,8.92971 -4.80034,13.73 -14.40088,14.40088 l 0,14.40088 21.60352,0 c 4.22161,-0.38379 7.82073,-1.58349 10.79736,-3.59912 7.20109,-4.80175 10.80167,-13.20262 10.80176,-25.20264 l 0,-57.59912 c -9e-5,-11.9999 -4.80038,-20.3993 -14.40088,-25.19824 -4.03132,-2.01551 -8.83161,-3.21522 -14.40088,-3.59912 z"
         style="stroke:#000000;stroke-opacity:1;fill:none"
         id="path3939" />
      <path
         d="m 659.3125,322.85156 c 0.38379,-4.79882 2.7832,-7.19823 7.19824,-7.19824 l 0,-100.80176 c -4.79883,-0.38368 -7.19824,-2.78309 -7.19824,-7.19824 l 43.19824,0 c -4e-5,4.41515 -2.39945,6.81456 -7.19824,7.19824 l 0,100.80176 c 4.415,10e-6 6.81441,2.39942 7.19824,7.19824 z"
         style="stroke:#000000;stroke-opacity:1;fill:none"
         id="path3941" />
      <path
         d="m 766.58301,258.0498 0,14.40088 c 7.19819,0.67388 10.7973,5.47417 10.79736,14.40088 l 0,7.19824 c -6e-5,8.92971 -3.59917,13.73 -10.79736,14.40088 l 0,14.40088 18,0 c 4.22161,-0.38379 7.82073,-1.58349 10.79736,-3.59912 7.20109,-4.80175 10.80167,-13.20262 10.80176,-25.20264 l 0,-7.19824 c -9e-5,-11.99995 -4.80038,-20.39936 -14.40088,-25.19824 -4.03132,-2.01849 -8.83161,-3.21966 -14.40088,-3.60352 z m -7.20264,-50.39648 0,14.39648 c -7.19827,0.67393 -10.79739,5.47422 -10.79736,14.40088 l 0,7.20264 c -3e-5,8.92683 3.59909,13.72565 10.79736,14.39648 l 0,14.40088 -18,0 c -4.22463,-0.38373 -7.82374,-1.58344 -10.79736,-3.59912 -7.20118,-4.79877 -10.80176,-13.19817 -10.80176,-25.19824 l 0,-7.20264 c 0,-11.9999 4.80029,-20.3993 14.40088,-25.19824 4.03123,-2.01551 8.83152,-3.21522 14.40088,-3.59912 z m 7.20264,0 39.59912,0 0,28.79736 -21.59912,0 c -0.67389,-9.60049 -5.47418,-14.40077 -14.40088,-14.40088 l -3.59912,0 z m -7.20264,115.19824 -39.59912,0 0,-28.80176 21.59912,0 c 0.67381,9.60061 5.4741,14.4009 14.40088,14.40088 l 3.59912,0 z"
         style="stroke:#000000;stroke-opacity:1;fill:none"
         id="path3943" />
      <path
         d="m 823.5625,207.65332 c 0.38379,4.79894 2.7832,7.19835 7.19824,7.19824 l 0,100.80176 c -4.79883,0.3838 -7.19824,2.78321 -7.19824,7.19824 l 43.19824,0 c -4e-5,-4.41503 -2.39945,-6.81444 -7.19824,-7.19824 l 0,-108 z m 43.19824,0 0,14.39648 c 9.60054,0.67393 14.40082,5.47422 14.40088,14.40088 l 0,7.20264 c -6e-5,8.92683 -4.80034,13.72565 -14.40088,14.39648 l 0,14.40088 14.40088,0 c 5.56927,-0.48041 10.36956,-1.96869 14.40088,-4.46484 9.6005,-6.04681 14.40079,-16.55852 14.40088,-31.53516 -9e-5,-11.9999 -4.80038,-20.3993 -14.40088,-25.19824 -4.03132,-2.01551 -8.83161,-3.21522 -14.40088,-3.59912 z"
         style="stroke:#000000;stroke-opacity:1;fill:none"
         id="path3945" />
      <path
         d="m 984.94287,207.65332 c 0.38373,4.79894 2.78461,7.19835 7.20264,7.19824 l 0,79.19824 c -7e-5,8.92971 -3.60065,13.73 -10.80176,14.40088 l 0,14.40088 18,0 c 4.22455,-0.38379 7.82515,-1.58349 10.80175,-3.59912 7.1982,-4.80175 10.7973,-13.20262 10.7974,-25.20264 l 0,-79.19824 c 4.4178,1.1e-4 6.8187,-2.3993 7.2026,-7.19824 z m -14.40088,0 c -0.38383,4.79894 -2.78324,7.19835 -7.19824,7.19824 l 0,79.19824 c -4e-5,8.92971 3.60055,13.73 10.80176,14.40088 l 0,14.40088 -18,0 c -4.22464,-0.38379 -7.82522,-1.58349 -10.80176,-3.59912 -7.20118,-4.80175 -10.80177,-13.20262 -10.80176,-25.20264 l 0,-79.19824 c -4.41504,1.1e-4 -6.81445,-2.3993 -7.19824,-7.19824 z"
         style="stroke:#000000;stroke-opacity:1;fill:none"
         id="path3947" />
      <path
         d="m 1081.4688,207.65332 28.8017,0 0,108 c 4.7988,0.3838 7.1982,2.78321 7.1983,7.19824 l -43.1983,0 c 0,-4.41503 2.3994,-6.81444 7.1983,-7.19824 z m 36,0 28.8017,0 0,28.79736 -14.4009,0 c -0.6739,-9.60049 -5.4742,-14.40077 -14.4008,-14.40088 l 0,0 z m -43.1983,0 -28.8017,0 0,28.79736 14.4008,0 c 0.6709,-9.60049 5.4712,-14.40077 14.4009,-14.40088 l 0,0 z"
         style="stroke:#000000;stroke-opacity:1;fill:none"
         id="path3949" />
      <path
         d="m 1163.5938,207.65332 c 0.3837,4.79894 2.7832,7.19835 7.1982,7.19824 l 0,100.80176 c -4.7988,0.3838 -7.1982,2.78321 -7.1982,7.19824 l 36,0 0,-115.19824 z m 43.1982,0 43.2026,0 0,28.79736 -21.5991,0 c -0.6739,-9.60049 -5.4742,-14.40077 -14.4009,-14.40088 l -7.2026,0 z m 0,50.39648 c 4.4179,7e-5 6.8188,-2.39934 7.2026,-7.19824 l 14.4009,0 0,28.80176 -14.4009,0 c -0.3838,-4.80171 -2.7847,-7.20259 -7.2026,-7.20264 l 0,0 z m 0,64.80176 43.2026,0 0,-28.80176 -21.5991,0 c -0.6739,9.60061 -5.4742,14.4009 -14.4009,14.40088 l -7.2026,0 z"
         style="stroke:#000000;stroke-opacity:1;fill:none"
         id="path3951" />
      <path
         d="m 1267.375,207.65332 c 0.3838,4.79894 2.7832,7.19835 7.1982,7.19824 l 0,100.80176 c -4.7988,0.3838 -7.1982,2.78321 -7.1982,7.19824 l 36,0 0,-115.19824 z m 43.1982,0 0,14.39648 c 9.6006,0.67393 14.4009,5.47422 14.4009,14.40088 l 0,57.59912 c 0,8.92971 -4.8003,13.73 -14.4009,14.40088 l 0,14.40088 21.6036,0 c 4.2216,-0.38379 7.8207,-1.58349 10.7973,-3.59912 7.2011,-4.80175 10.8017,-13.20262 10.8018,-25.20264 l 0,-57.59912 c -1e-4,-11.9999 -4.8004,-20.3993 -14.4009,-25.19824 -4.0313,-2.01551 -8.8316,-3.21522 -14.4009,-3.59912 z"
         style="stroke:#000000;stroke-opacity:1;fill:none"
         id="path3953" />
      <path
         d="m 1474.9375,207.65332 c 0.3838,4.79894 2.7832,7.19835 7.1982,7.19824 l 0,100.80176 c -4.7988,0.3838 -7.1982,2.78321 -7.1982,7.19824 l 43.1982,0 c 0,-4.41503 -2.3994,-6.81444 -7.1982,-7.19824 l 0,-108 z m 43.1982,0 0,14.39648 c 9.6006,0.67393 14.4009,5.47422 14.4009,14.40088 l 0,7.20264 c 0,8.92683 -4.8003,13.72565 -14.4009,14.39648 l 0,14.40088 c 9.6006,0.67388 14.4009,5.47417 14.4009,14.40088 l 0,21.59912 c 0,8.9297 2.4008,13.72998 7.2027,14.40088 l 28.7973,0 0,-7.19824 c -4.7989,-0.38378 -7.1983,-2.78466 -7.1982,-7.20264 l 0,-14.40088 c -1e-4,-11.99995 -3.6007,-20.39936 -10.8018,-25.19824 -2.9766,-2.01557 -6.5757,-3.21527 -10.7973,-3.59912 4.2216,-0.38373 7.8207,-1.58344 10.7973,-3.59912 7.2011,-4.80169 10.8017,-13.20256 10.8018,-25.20264 -1e-4,-11.9999 -4.8004,-20.3993 -14.4009,-25.19824 -4.0313,-2.01551 -8.8316,-3.21522 -14.4009,-3.59912 z"
         style="stroke:#000000;stroke-opacity:1;fill:none"
         id="path3955" />
      <path
         d="m 1585.75,322.85156 c 0.3838,-4.79882 2.7832,-7.19823 7.1982,-7.19824 l 0,-100.80176 c -4.7988,-0.38368 -7.1982,-2.78309 -7.1982,-7.19824 l 43.1982,0 c 0,4.41515 -2.3994,6.81456 -7.1982,7.19824 l 0,100.80176 c 4.415,10e-6 6.8144,2.39942 7.1982,7.19824 z"
         style="stroke:#000000;stroke-opacity:1;fill:none"
         id="path3957" />
      <path
         d="m 1685.8179,207.65332 0,14.39648 c -7.1983,0.67393 -10.7974,5.47422 -10.7974,14.40088 l 0,57.59912 c 0,8.92971 3.5991,13.73 10.7974,14.40088 l 0,14.40088 -18,0 c -4.2247,-0.38379 -7.8238,-1.58349 -10.7974,-3.59912 -7.2012,-4.80175 -10.8017,-13.20262 -10.8017,-25.20264 l 0,-57.59912 c 0,-11.9999 4.8002,-20.3993 14.4008,-25.19824 4.0313,-2.01551 8.8315,-3.21522 14.4009,-3.59912 z m 7.2026,14.39648 c 7.1982,0.67393 10.7973,5.47422 10.7974,14.40088 l 0,7.20264 28.8017,0 0,-7.20264 c -10e-5,-11.9999 -4.8003,-20.3993 -14.4008,-25.19824 -4.0314,-2.01551 -8.8317,-3.21522 -14.4009,-3.59912 l -10.7974,0 z m 0,86.40088 c 7.1982,-0.67088 10.7973,-5.47117 10.7974,-14.40088 l 0,-21.59912 28.8017,0 0,21.59912 c -10e-5,12.00002 -4.8003,20.40089 -14.4008,25.20264 -4.0314,2.01563 -8.8317,3.21533 -14.4009,3.59912 l -10.7974,0 z m 0,-50.40088 39.5991,0 0,14.40088 -39.5991,0 z"
         style="stroke:#000000;stroke-opacity:1;fill:none"
         id="path3959" />
      <path
         d="m 1750,322.85156 c 0.3838,-4.79882 2.7832,-7.19823 7.1982,-7.19824 l 0,-100.80176 C 1752.3994,214.46788 1750,212.06847 1750,207.65332 l 43.1982,0 c 0,4.41515 -2.3994,6.81456 -7.1982,7.19824 l 0,100.80176 c 4.415,10e-6 6.8144,2.39942 7.1982,7.19824 z m 64.8018,0 c 0.3837,-4.79882 2.7831,-7.19823 7.1982,-7.19824 l 0,-36 c -10e-5,-4.41792 -2.3995,-6.8188 -7.1982,-7.20264 l -21.6036,0 0,-14.40088 21.6036,0 c 4.7987,-0.38372 7.1981,-2.78313 7.1982,-7.19824 l 0,-36 c -4.7989,-0.38368 -7.1983,-2.78309 -7.1982,-7.19824 l 43.1982,0 c -10e-5,4.41515 -2.3995,6.81456 -7.1982,7.19824 l 0,100.80176 c 4.4149,10e-6 6.8143,2.39942 7.1982,7.19824 z"
         style="stroke:#000000;stroke-opacity:1;fill:none"
         id="path3961" />
      <path
         d="m 1911.1563,207.65332 28.8017,0 0,108 c 4.7988,0.3838 7.1982,2.78321 7.1983,7.19824 l -43.1983,0 c 0,-4.41503 2.3994,-6.81444 7.1983,-7.19824 z m 36,0 28.8017,0 0,28.79736 -14.4009,0 c -0.6739,-9.60049 -5.4742,-14.40077 -14.4008,-14.40088 l 0,0 z m -43.1983,0 -28.8017,0 0,28.79736 14.4008,0 c 0.6709,-9.60049 5.4712,-14.40077 14.4009,-14.40088 l 0,0 z"
         style="stroke:#000000;stroke-opacity:1;fill:none"
         id="path3963" />
      <path
         d="m 2143.8643,207.65332 0,14.39648 c 7.1981,0.67393 10.7973,5.47422 10.7973,14.40088 l 0,57.59912 c 0,8.92971 -3.5992,13.73 -10.7973,14.40088 l 0,14.40088 18,0 c 4.2216,-0.38379 7.8207,-1.58349 10.7973,-3.59912 7.2011,-4.80175 10.8017,-13.20262 10.8018,-25.20264 l 0,-57.59912 c -1e-4,-11.9999 -4.8004,-20.3993 -14.4009,-25.19824 -4.0313,-2.01551 -8.8316,-3.21522 -14.4009,-3.59912 z m -7.2027,0 0,14.39648 c -7.1983,0.67393 -10.7974,5.47422 -10.7973,14.40088 l 0,57.59912 c -1e-4,8.92971 3.599,13.73 10.7973,14.40088 l 0,14.40088 -18,0 c -4.2246,-0.38379 -7.8237,-1.58349 -10.7973,-3.59912 -7.2012,-4.80175 -10.8018,-13.20262 -10.8018,-25.20264 l 0,-57.59912 c 0,-11.9999 4.8003,-20.3993 14.4009,-25.19824 4.0312,-2.01551 8.8315,-3.21522 14.4009,-3.59912 z"
         style="stroke:#000000;stroke-opacity:1;fill:none"
         id="path3965" />
      <path
         d="m 2200.8438,207.65332 c 0.3837,4.79894 2.7832,7.19835 7.1982,7.19824 l 0,100.80176 c -4.7988,0.3838 -7.1982,2.78321 -7.1982,7.19824 l 43.1982,0 c -10e-5,-4.41503 -2.3995,-6.81444 -7.1982,-7.19824 l 0,-108 z m 43.1982,0 43.2026,0 0,28.79736 -21.5991,0 c -0.6739,-9.60049 -5.4742,-14.40077 -14.4009,-14.40088 l -7.2026,0 z m 0,50.39648 c 4.4179,7e-5 6.8188,-2.39934 7.2026,-7.19824 l 14.4009,0 0,28.80176 -14.4009,0 c -0.3838,-4.80171 -2.7847,-7.20259 -7.2026,-7.20264 l 0,0 z"
         style="stroke:#000000;stroke-opacity:1;fill:none"
         id="path3967" />
      <path
         d="m 2444.4063,322.85156 0,-108 c 4.4149,1.1e-4 6.8144,-2.3993 7.1982,-7.19824 l -43.1982,0 c 0.3837,4.79894 2.7832,7.19835 7.1982,7.19824 l 0,108 z m 43.1982,0 0,-108 c -4.4151,1.1e-4 -6.8145,-2.3993 -7.1982,-7.19824 l 43.1982,0 c -0.3839,4.79894 -2.7833,7.19835 -7.1982,7.19824 l 0,108 z m -36,-7.19824 0,-43.20264 14.4009,-28.79736 c -0.7677,1.34188 1.6332,6.1407 7.2026,14.39648 l 14.3965,21.60352 0,43.19824 c -0.1905,-1.72851 -0.7662,-3.84081 -1.7271,-6.33691 -2.3994,-5.95018 -6.6226,-13.43846 -12.6694,-22.46485 -3.4571,-5.27926 -5.858,-7.67867 -7.2026,-7.19824 z"
         style="stroke:#000000;stroke-opacity:1;fill:none"
         id="path3969" />
      <path
         d="m 2598.4741,322.85156 c 0.3838,-4.79882 2.7846,-7.19823 7.2027,-7.19824 l 0,-79.20264 c -1e-4,-8.92666 -3.6007,-13.72695 -10.8018,-14.40088 l 0,-14.39648 18,0 c 4.2245,0.3839 7.8251,1.58361 10.8018,3.59912 7.1981,4.79894 10.7972,13.19834 10.7973,25.19824 l 0,79.20264 c 4.4179,10e-6 6.8188,2.39942 7.2027,7.19824 z m -14.4009,0 c -0.3838,-4.79882 -2.7832,-7.19823 -7.1982,-7.19824 l 0,-79.20264 c 0,-8.92666 3.6005,-13.72695 10.8018,-14.40088 l 0,-14.39648 -18,0 c -4.2247,0.3839 -7.8253,1.58361 -10.8018,3.59912 -7.2012,4.79894 -10.8018,13.19834 -10.8018,25.19824 l 0,79.20264 c -4.415,10e-6 -6.8144,2.39942 -7.1982,7.19824 z m -7.1982,-72 c 0.3838,4.7989 2.7832,7.19831 7.1982,7.19824 l 3.6036,0 0,14.40088 -3.6036,0 c -4.415,5e-5 -6.8144,2.40093 -7.1982,7.20264 z m 18,7.19824 3.5991,0 c 4.4179,7e-5 6.8188,-2.39934 7.2027,-7.19824 l 0,28.80176 c -0.3839,-4.80171 -2.7848,-7.20259 -7.2027,-7.20264 l -3.5991,0 z"
         style="stroke:#000000;stroke-opacity:1;fill:none"
         id="path3971" />
      <path
         d="m 2695,214.85156 c 4.415,1.1e-4 6.8144,-2.3993 7.1982,-7.19824 l -43.1982,0 c 0.3838,4.79894 2.7832,7.19835 7.1982,7.19824 l 28.8018,72 0,28.80176 c -4.4151,10e-6 -6.8145,2.39942 -7.1982,7.19824 l 43.1982,0 c -0.3839,-4.79882 -2.7833,-7.19823 -7.1982,-7.19824 l 0,-28.80176 z m 19.8721,33.26221 L 2731,214.85156 c -4.4151,1.1e-4 -6.8145,-2.3993 -7.1982,-7.19824 l 43.1982,0 c -0.3839,4.79894 -2.7833,7.19835 -7.1982,7.19824 l -32.4009,64.80176 z"
         style="stroke:#000000;stroke-opacity:1;fill:none"
         id="path3973" />
    </g>
    <g
       transform="translate(545.88267,-1471.4106)"
       style="font-size:56px;font-style:normal;font-variant:normal;font-weight:normal;font-stretch:normal;line-height:125%;letter-spacing:0px;word-spacing:0px;fill:none;fill-opacity:1;stroke:#000000;font-family:TPF U13;-inkscape-font-specification:TPF U13;stroke-opacity:1"
       id="flowRoot3837">
      <path
         d="m 145.8125,550.625 c 0.17057,-2.13281 1.23698,-3.19922 3.19922,-3.19922 l 0,-44.80078 c -2.13281,-0.17052 -3.19922,-1.23693 -3.19922,-3.19922 l 19.19922,0 c -2e-5,1.96229 -1.06643,3.0287 -3.19922,3.19922 l 0,44.80078 c 1.96222,0 3.02863,1.06641 3.19922,3.19922 z"
         style="font-size:64px;fill:none;stroke:#000000;stroke-opacity:1"
         id="path3854" />
      <path
         d="m 172.6875,499.42578 c 0.17057,2.13286 1.23698,3.19927 3.19922,3.19922 l 0,44.80078 c -2.13281,0.17058 -3.19922,1.23698 -3.19922,3.19922 l 19.19922,0 c -2e-5,-1.96224 -1.06643,-3.02864 -3.19922,-3.19922 l 0,-48 z m 19.19922,0 19.20117,0 0,12.79883 -9.59961,0 c -0.29951,-4.26689 -2.43297,-6.40035 -6.40039,-6.40039 l -3.20117,0 z m 0,22.39844 c 1.96352,3e-5 3.03058,-1.06638 3.20117,-3.19922 l 6.40039,0 0,12.80078 -6.40039,0 c -0.17059,-2.13409 -1.23765,-3.20115 -3.20117,-3.20117 l 0,0 z"
         style="font-size:64px;fill:none;stroke:#000000;stroke-opacity:1"
         id="path3856" />
      <path
         d="m 264.9375,499.42578 c 0.17057,2.13286 1.23698,3.19927 3.19922,3.19922 l 0,44.80078 c -2.13281,0.17058 -3.19922,1.23698 -3.19922,3.19922 l 19.19922,0 c -2e-5,-1.96224 -1.06643,-3.02864 -3.19922,-3.19922 l 0,-48 z m 19.19922,0 19.20117,0 0,12.79883 -9.59961,0 c -0.29951,-4.26689 -2.43297,-6.40035 -6.40039,-6.40039 l -3.20117,0 z m 0,22.39844 c 1.96352,3e-5 3.03058,-1.06638 3.20117,-3.19922 l 6.40039,0 0,12.80078 -6.40039,0 c -0.17059,-2.13409 -1.23765,-3.20115 -3.20117,-3.20117 l 0,0 z"
         style="font-size:64px;fill:none;stroke:#000000;stroke-opacity:1"
         id="path3858" />
      <path
         d="m 331.86328,499.42578 0,6.39844 c 3.1992,0.29952 4.7988,2.43298 4.79883,6.40039 l 0,25.59961 c -3e-5,3.96876 -1.59963,6.10222 -4.79883,6.40039 l 0,6.40039 8,0 c 1.87627,-0.17057 3.47588,-0.70378 4.79883,-1.59961 3.20048,-2.13411 4.80074,-5.86783 4.80078,-11.20117 l 0,-25.59961 c -4e-5,-5.33329 -2.1335,-9.06636 -6.40039,-11.19922 -1.7917,-0.89578 -3.92516,-1.42898 -6.40039,-1.59961 z m -3.20117,0 0,6.39844 c -3.19923,0.29952 -4.79884,2.43298 -4.79883,6.40039 l 0,25.59961 c -10e-6,3.96876 1.5996,6.10222 4.79883,6.40039 l 0,6.40039 -8,0 c -1.87761,-0.17057 -3.47722,-0.70378 -4.79883,-1.59961 -3.20052,-2.13411 -4.80078,-5.86783 -4.80078,-11.20117 l 0,-25.59961 c 0,-5.33329 2.13346,-9.06636 6.40039,-11.19922 1.79166,-0.89578 3.92512,-1.42898 6.40039,-1.59961 z"
         style="font-size:64px;fill:none;stroke:#000000;stroke-opacity:1"
         id="path3860" />
      <path
         d="m 382.78711,499.42578 c 0.17055,2.13286 1.2376,3.19927 3.20117,3.19922 l 0,35.19922 c -3e-5,3.96876 -1.60029,6.10222 -4.80078,6.40039 l 0,6.40039 8,0 c 1.87757,-0.17057 3.47783,-0.70378 4.80078,-1.59961 3.19918,-2.13411 4.79879,-5.86783 4.79883,-11.20117 l 0,-35.19922 c 1.9635,5e-5 3.03055,-1.06636 3.20117,-3.19922 z m -6.40039,0 c -0.17059,2.13286 -1.237,3.19927 -3.19922,3.19922 l 0,35.19922 c -2e-5,3.96876 1.60024,6.10222 4.80078,6.40039 l 0,6.40039 -8,0 c -1.87761,-0.17057 -3.47787,-0.70378 -4.80078,-1.59961 -3.20053,-2.13411 -4.80078,-5.86783 -4.80078,-11.20117 l 0,-35.19922 c -1.96224,5e-5 -3.02865,-1.06636 -3.19922,-3.19922 z"
         style="font-size:64px;fill:none;stroke:#000000;stroke-opacity:1"
         id="path3862" />
      <path
         d="m 409.6875,550.625 c 0.17057,-2.13281 1.23698,-3.19922 3.19922,-3.19922 l 0,-44.80078 c -2.13281,-0.17052 -3.19922,-1.23693 -3.19922,-3.19922 l 16,0 0,48 c 1.96222,0 3.02863,1.06641 3.19922,3.19922 z m 19.19922,-32 6.40039,6.40039 c 1.96351,1.96226 4.09697,5.16213 6.40039,9.59961 l 0,12.80078 c -1.96227,0 -3.02867,1.06641 -3.19922,3.19922 l 19.19922,0 c -0.17062,-2.13281 -1.23703,-3.19922 -3.19922,-3.19922 l 0,-44.80078 c 2.13277,-0.17052 3.19917,-1.23693 3.19922,-3.19922 l -19.19922,0 c -3e-5,1.96229 1.06638,3.0287 3.19922,3.19922 l 0,16 -3.19922,-3.19922 c -3.11461,-3.11454 -5.24807,-7.38147 -6.40039,-12.80078 l -3.20117,0 z"
         style="font-size:64px;fill:none;stroke:#000000;stroke-opacity:1"
         id="path3864" />
      <path
         d="m 465.3125,499.42578 c 0.17057,2.13286 1.23698,3.19927 3.19922,3.19922 l 0,44.80078 c -2.13281,0.17058 -3.19922,1.23698 -3.19922,3.19922 l 16,0 0,-51.19922 z m 19.19922,0 0,6.39844 c 4.2669,0.29952 6.40036,2.43298 6.40039,6.40039 l 0,25.59961 c -3e-5,3.96876 -2.13349,6.10222 -6.40039,6.40039 l 0,6.40039 9.60156,0 c 1.87627,-0.17057 3.47588,-0.70378 4.79883,-1.59961 3.20048,-2.13411 4.80074,-5.86783 4.80078,-11.20117 l 0,-25.59961 c -4e-5,-5.33329 -2.1335,-9.06636 -6.40039,-11.19922 -1.7917,-0.89578 -3.92516,-1.42898 -6.40039,-1.59961 z"
         style="font-size:64px;fill:none;stroke:#000000;stroke-opacity:1"
         id="path3866" />
      <path
         d="m 575.16211,499.42578 0,6.39844 c -3.19923,0.29952 -4.79884,2.43298 -4.79883,6.40039 l 0,25.59961 c -10e-6,3.96876 1.5996,6.10222 4.79883,6.40039 l 0,6.40039 -8,0 c -1.87761,-0.17057 -3.47722,-0.70378 -4.79883,-1.59961 -3.20052,-2.13411 -4.80078,-5.86783 -4.80078,-11.20117 l 0,-25.59961 c 0,-5.33329 2.13346,-9.06636 6.40039,-11.19922 1.79166,-0.89578 3.92512,-1.42898 6.40039,-1.59961 z m 3.20117,6.39844 c 3.1992,0.29952 4.7988,2.43298 4.79883,6.40039 l 0,3.20117 12.80078,0 0,-3.20117 c -4e-5,-5.33329 -2.1335,-9.06636 -6.40039,-11.19922 -1.7917,-0.89578 -3.92516,-1.42898 -6.40039,-1.59961 l -4.79883,0 z m 0,38.40039 c 3.1992,-0.29817 4.7988,-2.43163 4.79883,-6.40039 l 0,-3.19922 12.80078,0 0,3.19922 c -4e-5,5.33334 -2.1335,9.06706 -6.40039,11.20117 -1.7917,0.89583 -3.92516,1.42904 -6.40039,1.59961 l -4.79883,0 z"
         style="font-size:64px;fill:none;stroke:#000000;stroke-opacity:1"
         id="path3868" />
      <path
         d="m 624.48828,499.42578 0,6.39844 c 3.1992,0.29952 4.7988,2.43298 4.79883,6.40039 l 0,25.59961 c -3e-5,3.96876 -1.59963,6.10222 -4.79883,6.40039 l 0,6.40039 8,0 c 1.87627,-0.17057 3.47588,-0.70378 4.79883,-1.59961 3.20048,-2.13411 4.80074,-5.86783 4.80078,-11.20117 l 0,-25.59961 c -4e-5,-5.33329 -2.1335,-9.06636 -6.40039,-11.19922 -1.7917,-0.89578 -3.92516,-1.42898 -6.40039,-1.59961 z m -3.20117,0 0,6.39844 c -3.19923,0.29952 -4.79884,2.43298 -4.79883,6.40039 l 0,25.59961 c -10e-6,3.96876 1.5996,6.10222 4.79883,6.40039 l 0,6.40039 -8,0 c -1.87761,-0.17057 -3.47722,-0.70378 -4.79883,-1.59961 -3.20052,-2.13411 -4.80078,-5.86783 -4.80078,-11.20117 l 0,-25.59961 c 0,-5.33329 2.13346,-9.06636 6.40039,-11.19922 1.79166,-0.89578 3.92512,-1.42898 6.40039,-1.59961 z"
         style="font-size:64px;fill:none;stroke:#000000;stroke-opacity:1"
         id="path3870" />
      <path
         d="m 649.8125,550.625 c 0.17057,-2.13281 1.23698,-3.19922 3.19922,-3.19922 l 0,-44.80078 c -2.13281,-0.17052 -3.19922,-1.23693 -3.19922,-3.19922 l 16,0 0,48 c 1.96222,0 3.02863,1.06641 3.19922,3.19922 z m 19.19922,-32 6.40039,6.40039 c 1.96351,1.96226 4.09697,5.16213 6.40039,9.59961 l 0,12.80078 c -1.96227,0 -3.02867,1.06641 -3.19922,3.19922 l 19.19922,0 c -0.17062,-2.13281 -1.23703,-3.19922 -3.19922,-3.19922 l 0,-44.80078 c 2.13277,-0.17052 3.19917,-1.23693 3.19922,-3.19922 l -19.19922,0 c -3e-5,1.96229 1.06638,3.0287 3.19922,3.19922 l 0,16 -3.19922,-3.19922 c -3.11461,-3.11454 -5.24807,-7.38147 -6.40039,-12.80078 l -3.20117,0 z"
         style="font-size:64px;fill:none;stroke:#000000;stroke-opacity:1"
         id="path3872" />
      <path
         d="m 721.4375,499.42578 12.80078,0 0,48 c 2.13278,0.17058 3.19919,1.23698 3.19922,3.19922 l -19.19922,0 c -10e-6,-1.96224 1.06639,-3.02864 3.19922,-3.19922 z m 16,0 12.80078,0 0,12.79883 -6.40039,0 c -0.29952,-4.26689 -2.43298,-6.40035 -6.40039,-6.40039 l 0,0 z m -19.19922,0 -12.80078,0 0,12.79883 6.40039,0 c 0.29817,-4.26689 2.43163,-6.40035 6.40039,-6.40039 l 0,0 z"
         style="font-size:64px;fill:none;stroke:#000000;stroke-opacity:1"
         id="path3874" />
      <path
         d="m 783.53711,550.625 c 0.17055,-2.13281 1.2376,-3.19922 3.20117,-3.19922 l 0,-35.20117 c -3e-5,-3.96741 -1.60029,-6.10087 -4.80078,-6.40039 l 0,-6.39844 8,0 c 1.87757,0.17063 3.47783,0.70383 4.80078,1.59961 3.19918,2.13286 4.79879,5.86593 4.79883,11.19922 l 0,35.20117 c 1.9635,0 3.03055,1.06641 3.20117,3.19922 z m -6.40039,0 c -0.17059,-2.13281 -1.237,-3.19922 -3.19922,-3.19922 l 0,-35.20117 c -2e-5,-3.96741 1.60024,-6.10087 4.80078,-6.40039 l 0,-6.39844 -8,0 c -1.87761,0.17063 -3.47787,0.70383 -4.80078,1.59961 -3.20053,2.13286 -4.80078,5.86593 -4.80078,11.19922 l 0,35.20117 c -1.96224,0 -3.02865,1.06641 -3.19922,3.19922 z m -3.19922,-32 c 0.17056,2.13284 1.23696,3.19925 3.19922,3.19922 l 1.60156,0 0,6.40039 -1.60156,0 c -1.96226,2e-5 -3.02866,1.06708 -3.19922,3.20117 z m 8,3.19922 1.59961,0 c 1.96351,3e-5 3.03057,-1.06638 3.20117,-3.19922 l 0,12.80078 c -0.1706,-2.13409 -1.23766,-3.20115 -3.20117,-3.20117 l -1.59961,0 z"
         style="font-size:64px;fill:none;stroke:#000000;stroke-opacity:1"
         id="path3876" />
      <path
         d="m 828.03711,499.42578 0,6.39844 c -3.19923,0.29952 -4.79884,2.43298 -4.79883,6.40039 l 0,25.59961 c -10e-6,3.96876 1.5996,6.10222 4.79883,6.40039 l 0,6.40039 -8,0 c -1.87761,-0.17057 -3.47722,-0.70378 -4.79883,-1.59961 -3.20052,-2.13411 -4.80078,-5.86783 -4.80078,-11.20117 l 0,-25.59961 c 0,-5.33329 2.13346,-9.06636 6.40039,-11.19922 1.79166,-0.89578 3.92512,-1.42898 6.40039,-1.59961 z m 3.20117,6.39844 c 3.1992,0.29952 4.7988,2.43298 4.79883,6.40039 l 0,3.20117 12.80078,0 0,-3.20117 c -4e-5,-5.33329 -2.1335,-9.06636 -6.40039,-11.19922 -1.7917,-0.89578 -3.92516,-1.42898 -6.40039,-1.59961 l -4.79883,0 z m 0,38.40039 c 3.1992,-0.29817 4.7988,-2.43163 4.79883,-6.40039 l 0,-3.19922 12.80078,0 0,3.19922 c -4e-5,5.33334 -2.1335,9.06706 -6.40039,11.20117 -1.7917,0.89583 -3.92516,1.42904 -6.40039,1.59961 l -4.79883,0 z"
         style="font-size:64px;fill:none;stroke:#000000;stroke-opacity:1"
         id="path3878" />
      <path
         d="m 872.5625,499.42578 12.80078,0 0,48 c 2.13278,0.17058 3.19919,1.23698 3.19922,3.19922 l -19.19922,0 c -10e-6,-1.96224 1.06639,-3.02864 3.19922,-3.19922 z m 16,0 12.80078,0 0,12.79883 -6.40039,0 c -0.29952,-4.26689 -2.43298,-6.40035 -6.40039,-6.40039 l 0,0 z m -19.19922,0 -12.80078,0 0,12.79883 6.40039,0 c 0.29817,-4.26689 2.43163,-6.40035 6.40039,-6.40039 l 0,0 z"
         style="font-size:64px;fill:none;stroke:#000000;stroke-opacity:1"
         id="path3880" />
      <path
         d="m 145.8125,579.42578 c 0.17057,2.13286 1.23698,3.19927 3.19922,3.19922 l 0,44.80078 c -2.13281,0.17058 -3.19922,1.23698 -3.19922,3.19922 l 19.19922,0 c -2e-5,-1.96224 -1.06643,-3.02864 -3.19922,-3.19922 l 0,-48 z m 19.19922,0 0,6.39844 c 4.2669,0.29952 6.40036,2.43298 6.40039,6.40039 l 0,3.20117 c -3e-5,3.96748 -2.13349,6.10029 -6.40039,6.39844 l 0,6.40039 6.40039,0 c 2.47523,-0.21352 4.60869,-0.87498 6.40039,-1.98438 4.26689,-2.68747 6.40035,-7.35934 6.40039,-14.01562 -4e-5,-5.33329 -2.1335,-9.06636 -6.40039,-11.19922 -1.7917,-0.89578 -3.92516,-1.42898 -6.40039,-1.59961 z"
         style="font-size:64px;fill:none;stroke:#000000;stroke-opacity:1"
         id="path3882" />
      <path
         d="m 191.9375,630.625 c 0.17057,-2.13281 1.23698,-3.19922 3.19922,-3.19922 l 0,-44.80078 c -2.13281,-0.17052 -3.19922,-1.23693 -3.19922,-3.19922 l 19.19922,0 c -2e-5,1.96229 -1.06643,3.0287 -3.19922,3.19922 l 0,44.80078 c 1.96222,0 3.02863,1.06641 3.19922,3.19922 z"
         style="font-size:64px;fill:none;stroke:#000000;stroke-opacity:1"
         id="path3884" />
      <path
         d="m 218.8125,579.42578 c 0.17057,2.13286 1.23698,3.19927 3.19922,3.19922 l 0,44.80078 c -2.13281,0.17058 -3.19922,1.23698 -3.19922,3.19922 l 16,0 0,-51.19922 z m 19.19922,0 19.20117,0 0,12.79883 -9.59961,0 c -0.29951,-4.26689 -2.43297,-6.40035 -6.40039,-6.40039 l -3.20117,0 z m 0,22.39844 c 1.96352,3e-5 3.03058,-1.06638 3.20117,-3.19922 l 6.40039,0 0,12.80078 -6.40039,0 c -0.17059,-2.13409 -1.23765,-3.20115 -3.20117,-3.20117 l 0,0 z m 0,28.80078 19.20117,0 0,-12.80078 -9.59961,0 c -0.29951,4.26693 -2.43297,6.4004 -6.40039,6.40039 l -3.20117,0 z"
         style="font-size:64px;fill:none;stroke:#000000;stroke-opacity:1"
         id="path3886" />
      <path
         d="m 264.9375,579.42578 c 0.17057,2.13286 1.23698,3.19927 3.19922,3.19922 l 0,44.80078 c -2.13281,0.17058 -3.19922,1.23698 -3.19922,3.19922 l 19.19922,0 c -2e-5,-1.96224 -1.06643,-3.02864 -3.19922,-3.19922 l 0,-48 z m 19.19922,0 0,6.39844 c 4.2669,0.29952 6.40036,2.43298 6.40039,6.40039 l 0,3.20117 c -3e-5,3.96748 -2.13349,6.10029 -6.40039,6.39844 l 0,6.40039 c 4.2669,0.2995 6.40036,2.43296 6.40039,6.40039 l 0,9.59961 c -3e-5,3.96875 1.06703,6.10221 3.20117,6.40039 l 12.79883,0 0,-3.19922 c -2.13285,-0.17057 -3.19926,-1.23762 -3.19922,-3.20117 l 0,-6.40039 c -4e-5,-5.33332 -1.6003,-9.06639 -4.80078,-11.19922 -1.32295,-0.89581 -2.92256,-1.42901 -4.79883,-1.59961 1.87627,-0.17055 3.47588,-0.70375 4.79883,-1.59961 3.20048,-2.13408 4.80074,-5.8678 4.80078,-11.20117 -4e-5,-5.33329 -2.1335,-9.06636 -6.40039,-11.19922 -1.7917,-0.89578 -3.92516,-1.42898 -6.40039,-1.59961 z"
         style="font-size:64px;fill:none;stroke:#000000;stroke-opacity:1"
         id="path3888" />
      <path
         d="m 331.78711,579.42578 0,6.39844 c -3.19923,0.29952 -4.79884,2.43298 -4.79883,6.40039 l 0,25.59961 c -10e-6,3.96876 1.5996,6.10222 4.79883,6.40039 l 0,6.40039 -8,0 c -1.87761,-0.17057 -3.47722,-0.70378 -4.79883,-1.59961 -3.20052,-2.13411 -4.80078,-5.86783 -4.80078,-11.20117 l 0,-25.59961 c 0,-5.33329 2.13346,-9.06636 6.40039,-11.19922 1.79166,-0.89578 3.92512,-1.42898 6.40039,-1.59961 z m 3.20117,6.39844 c 3.1992,0.29952 4.7988,2.43298 4.79883,6.40039 l 0,3.20117 12.80078,0 0,-3.20117 c -4e-5,-5.33329 -2.1335,-9.06636 -6.40039,-11.19922 -1.7917,-0.89578 -3.92516,-1.42898 -6.40039,-1.59961 l -4.79883,0 z m 0,38.40039 c 3.1992,-0.29817 4.7988,-2.43163 4.79883,-6.40039 l 0,-3.19922 12.80078,0 0,3.19922 c -4e-5,5.33334 -2.1335,9.06706 -6.40039,11.20117 -1.7917,0.89583 -3.92516,1.42904 -6.40039,1.59961 l -4.79883,0 z"
         style="font-size:64px;fill:none;stroke:#000000;stroke-opacity:1"
         id="path3890" />
      <path
         d="m 360.3125,579.42578 c 0.17057,2.13286 1.23698,3.19927 3.19922,3.19922 l 0,44.80078 c -2.13281,0.17058 -3.19922,1.23698 -3.19922,3.19922 l 16,0 0,-51.19922 z m 19.19922,0 19.20117,0 0,12.79883 -9.59961,0 c -0.29951,-4.26689 -2.43297,-6.40035 -6.40039,-6.40039 l -3.20117,0 z m 0,22.39844 c 1.96352,3e-5 3.03058,-1.06638 3.20117,-3.19922 l 6.40039,0 0,12.80078 -6.40039,0 c -0.17059,-2.13409 -1.23765,-3.20115 -3.20117,-3.20117 l 0,0 z m 0,28.80078 19.20117,0 0,-12.80078 -9.59961,0 c -0.29951,4.26693 -2.43297,6.4004 -6.40039,6.40039 l -3.20117,0 z"
         style="font-size:64px;fill:none;stroke:#000000;stroke-opacity:1"
         id="path3892" />
      <path
         d="m 452.5625,630.625 c 0.17057,-2.13281 1.23698,-3.19922 3.19922,-3.19922 l 0,-44.80078 c -2.13281,-0.17052 -3.19922,-1.23693 -3.19922,-3.19922 l 16,0 0,48 c 1.96222,0 3.02863,1.06641 3.19922,3.19922 z m 19.19922,-32 6.40039,6.40039 c 1.96351,1.96226 4.09697,5.16213 6.40039,9.59961 l 0,12.80078 c -1.96227,0 -3.02867,1.06641 -3.19922,3.19922 l 19.19922,0 c -0.17062,-2.13281 -1.23703,-3.19922 -3.19922,-3.19922 l 0,-44.80078 c 2.13277,-0.17052 3.19917,-1.23693 3.19922,-3.19922 l -19.19922,0 c -3e-5,1.96229 1.06638,3.0287 3.19922,3.19922 l 0,16 -3.19922,-3.19922 c -3.11461,-3.11454 -5.24807,-7.38147 -6.40039,-12.80078 l -3.20117,0 z"
         style="font-size:64px;fill:none;stroke:#000000;stroke-opacity:1"
         id="path3894" />
      <path
         d="m 508.1875,630.625 c 0.17057,-2.13281 1.23698,-3.19922 3.19922,-3.19922 l 0,-44.80078 c -2.13281,-0.17052 -3.19922,-1.23693 -3.19922,-3.19922 l 19.19922,0 c -2e-5,1.96229 -1.06643,3.0287 -3.19922,3.19922 l 0,44.80078 c 1.96222,0 3.02863,1.06641 3.19922,3.19922 z"
         style="font-size:64px;fill:none;stroke:#000000;stroke-opacity:1"
         id="path3896" />
      <path
         d="m 552.66211,579.42578 0,6.39844 c -3.19923,0.29952 -4.79884,2.43298 -4.79883,6.40039 l 0,25.59961 c -10e-6,3.96876 1.5996,6.10222 4.79883,6.40039 l 0,6.40039 -8,0 c -1.87761,-0.17057 -3.47722,-0.70378 -4.79883,-1.59961 -3.20052,-2.13411 -4.80078,-5.86783 -4.80078,-11.20117 l 0,-25.59961 c 0,-5.33329 2.13346,-9.06636 6.40039,-11.19922 1.79166,-0.89578 3.92512,-1.42898 6.40039,-1.59961 z m 3.20117,6.39844 c 3.1992,0.29952 4.7988,2.43298 4.79883,6.40039 l 0,3.20117 12.80078,0 0,-3.20117 c -4e-5,-5.33329 -2.1335,-9.06636 -6.40039,-11.19922 -1.7917,-0.89578 -3.92516,-1.42898 -6.40039,-1.59961 l -4.79883,0 z m 0,38.40039 c 3.1992,-0.29817 4.7988,-2.43163 4.79883,-6.40039 l 0,-3.19922 12.80078,0 0,3.19922 c -4e-5,5.33334 -2.1335,9.06706 -6.40039,11.20117 -1.7917,0.89583 -3.92516,1.42904 -6.40039,1.59961 l -4.79883,0 z"
         style="font-size:64px;fill:none;stroke:#000000;stroke-opacity:1"
         id="path3898" />
      <path
         d="m 581.1875,630.625 c 0.17057,-2.13281 1.23698,-3.19922 3.19922,-3.19922 l 0,-44.80078 c -2.13281,-0.17052 -3.19922,-1.23693 -3.19922,-3.19922 l 19.19922,0 c -2e-5,1.96229 -1.06643,3.0287 -3.19922,3.19922 l 0,44.80078 c 1.96222,0 3.02863,1.06641 3.19922,3.19922 z m 28.80078,0 c 0.17055,-2.13281 1.23695,-3.19922 3.19922,-3.19922 l 0,-16 c -3e-5,-1.96352 -1.06644,-3.03058 -3.19922,-3.20117 l -9.60156,0 0,-6.40039 9.60156,0 c 2.13278,-0.17055 3.19919,-1.23695 3.19922,-3.19922 l 0,-16 c -2.13284,-0.17052 -3.19925,-1.23693 -3.19922,-3.19922 l 19.19922,0 c -5e-5,1.96229 -1.06645,3.0287 -3.19922,3.19922 l 0,44.80078 c 1.96219,0 3.0286,1.06641 3.19922,3.19922 z"
         style="font-size:64px;fill:none;stroke:#000000;stroke-opacity:1"
         id="path3900" />
      <path
         d="m 657.61328,579.42578 0,6.39844 c 3.1992,0.29952 4.7988,2.43298 4.79883,6.40039 l 0,25.59961 c -3e-5,3.96876 -1.59963,6.10222 -4.79883,6.40039 l 0,6.40039 8,0 c 1.87627,-0.17057 3.47588,-0.70378 4.79883,-1.59961 3.20048,-2.13411 4.80074,-5.86783 4.80078,-11.20117 l 0,-25.59961 c -4e-5,-5.33329 -2.1335,-9.06636 -6.40039,-11.19922 -1.7917,-0.89578 -3.92516,-1.42898 -6.40039,-1.59961 z m -3.20117,0 0,6.39844 c -3.19923,0.29952 -4.79884,2.43298 -4.79883,6.40039 l 0,25.59961 c -10e-6,3.96876 1.5996,6.10222 4.79883,6.40039 l 0,6.40039 -8,0 c -1.87761,-0.17057 -3.47722,-0.70378 -4.79883,-1.59961 -3.20052,-2.13411 -4.80078,-5.86783 -4.80078,-11.20117 l 0,-25.59961 c 0,-5.33329 2.13346,-9.06636 6.40039,-11.19922 1.79166,-0.89578 3.92512,-1.42898 6.40039,-1.59961 z"
         style="font-size:64px;fill:none;stroke:#000000;stroke-opacity:1"
         id="path3902" />
      <path
         d="m 682.9375,630.625 c 0.17057,-2.13281 1.23698,-3.19922 3.19922,-3.19922 l 0,-44.80078 c -2.13281,-0.17052 -3.19922,-1.23693 -3.19922,-3.19922 l 19.19922,0 c -2e-5,1.96229 -1.06643,3.0287 -3.19922,3.19922 l 0,48 z m 19.19922,0 19.20117,0 0,-12.80078 -9.59961,0 c -0.29951,4.26693 -2.43297,6.4004 -6.40039,6.40039 l -3.20117,0 z"
         style="font-size:64px;fill:none;stroke:#000000;stroke-opacity:1"
         id="path3904" />
      <path
         d="m 749.86328,601.82422 0,6.40039 c 3.1992,0.2995 4.7988,2.43296 4.79883,6.40039 l 0,3.19922 c -3e-5,3.96876 -1.59963,6.10222 -4.79883,6.40039 l 0,6.40039 8,0 c 1.87627,-0.17057 3.47588,-0.70378 4.79883,-1.59961 3.20048,-2.13411 4.80074,-5.86783 4.80078,-11.20117 l 0,-3.19922 c -4e-5,-5.33331 -2.1335,-9.06638 -6.40039,-11.19922 -1.7917,-0.89711 -3.92516,-1.43096 -6.40039,-1.60156 z m -3.20117,-22.39844 0,6.39844 c -3.19923,0.29952 -4.79884,2.43298 -4.79883,6.40039 l 0,3.20117 c -10e-6,3.96748 1.5996,6.10029 4.79883,6.39844 l 0,6.40039 -8,0 c -1.87761,-0.17055 -3.47722,-0.70375 -4.79883,-1.59961 -3.20052,-2.13279 -4.80078,-5.86586 -4.80078,-11.19922 l 0,-3.20117 c 0,-5.33329 2.13346,-9.06636 6.40039,-11.19922 1.79166,-0.89578 3.92512,-1.42898 6.40039,-1.59961 z m 3.20117,0 17.59961,0 0,12.79883 -9.59961,0 c -0.29951,-4.26689 -2.43297,-6.40035 -6.40039,-6.40039 l -1.59961,0 z m -3.20117,51.19922 -17.59961,0 0,-12.80078 9.59961,0 c 0.29947,4.26693 2.43293,6.4004 6.40039,6.40039 l 1.59961,0 z"
         style="font-size:64px;fill:none;stroke:#000000;stroke-opacity:1"
         id="path3906" />
      <path
         d="m 165.01172,659.42578 0,9.59961 c -4.26564,0.29822 -6.39845,2.43168 -6.39844,6.40039 l 0,19.19922 c -1e-5,3.96746 2.1328,6.10092 6.39844,6.40039 l 0,9.59961 -9.59961,0 c -1.87761,-0.17057 -3.47722,-0.70378 -4.79883,-1.59961 -3.20052,-2.13411 -4.80078,-5.86783 -4.80078,-11.20117 l 0,-25.59961 c 0,-5.33329 2.13346,-9.06636 6.40039,-11.19922 1.79166,-0.89578 3.92512,-1.42898 6.40039,-1.59961 z m 0,41.59961 12.80078,0 0,9.59961 -12.80078,0 z m 0,-41.59961 12.80078,0 0,9.59961 -12.80078,0 z"
         style="font-size:64px;fill:none;stroke:#000000;stroke-opacity:1"
         id="path3908" />
      <path
         d="m 206.23828,710.625 0,-6.40039 c 3.1992,-0.29817 4.7988,-2.43163 4.79883,-6.40039 l 0,-3.19922 c -3e-5,-3.96743 -1.59963,-6.10089 -4.79883,-6.40039 l 0,-6.40039 c 3.1992,-0.29815 4.7988,-2.43096 4.79883,-6.39844 l 0,-3.20117 c -3e-5,-3.96741 -1.59963,-6.10087 -4.79883,-6.40039 l 0,-6.39844 8,0 c 1.87627,0.17063 3.47588,0.70383 4.79883,1.59961 3.20048,2.13286 4.80074,5.86593 4.80078,11.19922 l 0,12.80078 0,12.79883 c -4e-5,5.33334 -2.1335,9.06706 -6.40039,11.20117 -1.7917,0.89583 -3.92516,1.42904 -6.40039,1.59961 z m -3.20117,0 -16,0 0,-12.80078 9.59961,0 c 0.29947,4.26693 2.43293,6.4004 6.40039,6.40039 l 0,0 z m 0,-22.40039 0,-6.40039 c -3.19923,-0.29815 -4.79884,-2.43096 -4.79883,-6.39844 l 0,-3.20117 c -1e-5,-3.96741 1.5996,-6.10087 4.79883,-6.40039 l 0,-6.39844 -8,0 c -1.87761,0.17063 -3.47722,0.70383 -4.79883,1.59961 -3.20052,2.13286 -4.80078,5.86593 -4.80078,11.19922 l 0,3.20117 c 0,5.33336 2.13346,9.06643 6.40039,11.19922 1.79166,0.89586 3.92512,1.42906 6.40039,1.59961 z"
         style="font-size:64px;fill:none;stroke:#000000;stroke-opacity:1"
         id="path3910" />
      <path
         d="m 249.16211,681.82422 0,6.40039 c -3.19923,0.2995 -4.79884,2.43296 -4.79883,6.40039 l 0,3.19922 c -1e-5,3.96876 1.5996,6.10222 4.79883,6.40039 l 0,6.40039 -17.59961,0 0,-12.80078 0,-16 z m 3.20117,-22.39844 0,6.39844 c 3.1992,0.29952 4.7988,2.43298 4.79883,6.40039 l 0,3.20117 c -3e-5,3.96748 -1.59963,6.10029 -4.79883,6.39844 l 0,6.40039 8,0 c 1.87627,-0.17055 3.47588,-0.70375 4.79883,-1.59961 3.20048,-2.13279 4.80074,-5.86586 4.80078,-11.19922 l 0,-3.20117 c -4e-5,-5.33329 -2.1335,-9.06636 -6.40039,-11.19922 -1.7917,-0.89578 -3.92516,-1.42898 -6.40039,-1.59961 z m -3.20117,0 -17.59961,0 0,12.79883 9.59961,0 c 0.29947,-4.26689 2.43293,-6.40035 6.40039,-6.40039 l 1.59961,0 z m 3.20117,51.19922 17.59961,0 0,-12.80078 -9.59961,0 c -0.29951,4.26693 -2.43297,6.4004 -6.40039,6.40039 l -1.59961,0 z"
         style="font-size:64px;fill:none;stroke:#000000;stroke-opacity:1"
         id="path3912" />
      <path
         d="m 295.28711,688.22461 0,-6.40039 -4.79883,0 0,-16 4.79883,0 0,-6.39844 -17.59961,0 0,12.79883 0,16 z m 3.20117,22.40039 0,-6.40039 c 3.1992,-0.29817 4.7988,-2.43163 4.79883,-6.40039 l 0,-3.19922 c -3e-5,-3.96743 -1.59963,-6.10089 -4.79883,-6.40039 l 0,-6.40039 8,0 c 1.87627,0.1706 3.47588,0.70445 4.79883,1.60156 3.20048,2.13284 4.80074,5.86591 4.80078,11.19922 l 0,3.19922 c -4e-5,5.33334 -2.1335,9.06706 -6.40039,11.20117 -1.7917,0.89583 -3.92516,1.42904 -6.40039,1.59961 z m -3.20117,0 -17.59961,0 0,-12.80078 9.59961,0 c 0.29947,4.26693 2.43293,6.4004 6.40039,6.40039 l 1.59961,0 z m 3.20117,-51.19922 16,0 0,12.79883 -9.60156,0 c -0.29821,-4.26689 -2.43102,-6.40035 -6.39844,-6.40039 l 0,0 z"
         style="font-size:64px;fill:none;stroke:#000000;stroke-opacity:1"
         id="path3914" />
      <path
         d="m 336.61328,659.42578 0,9.59961 c 4.26561,0.29822 6.39842,2.43168 6.39844,6.40039 l 0,19.19922 c -2e-5,3.96746 -2.13283,6.10092 -6.39844,6.40039 l 0,9.59961 9.59961,0 c 1.87758,-0.17057 3.47719,-0.70378 4.79883,-1.59961 3.20049,-2.13411 4.80075,-5.86783 4.80078,-11.20117 l 0,-25.59961 c -3e-5,-5.33329 -2.13349,-9.06636 -6.40039,-11.19922 -1.79169,-0.89578 -3.92515,-1.42898 -6.40039,-1.59961 z m 0,41.59961 -12.80078,0 0,9.59961 12.80078,0 z m 0,-41.59961 -12.80078,0 0,9.59961 12.80078,0 z"
         style="font-size:64px;fill:none;stroke:#000000;stroke-opacity:1"
         id="path3916" />
      <path
         d="m 427.16211,681.82422 0,6.40039 c -3.19923,0.2995 -4.79884,2.43296 -4.79883,6.40039 l 0,3.19922 c -10e-6,3.96876 1.5996,6.10222 4.79883,6.40039 l 0,6.40039 -17.59961,0 0,-12.80078 0,-16 z m 3.20117,-22.39844 0,6.39844 c 3.1992,0.29952 4.7988,2.43298 4.79883,6.40039 l 0,3.20117 c -3e-5,3.96748 -1.59963,6.10029 -4.79883,6.39844 l 0,6.40039 8,0 c 1.87627,-0.17055 3.47588,-0.70375 4.79883,-1.59961 3.20048,-2.13279 4.80074,-5.86586 4.80078,-11.19922 l 0,-3.20117 c -4e-5,-5.33329 -2.1335,-9.06636 -6.40039,-11.19922 -1.7917,-0.89578 -3.92516,-1.42898 -6.40039,-1.59961 z m -3.20117,0 -17.59961,0 0,12.79883 9.59961,0 c 0.29947,-4.26689 2.43293,-6.40035 6.40039,-6.40039 l 1.59961,0 z m 3.20117,51.19922 17.59961,0 0,-12.80078 -9.59961,0 c -0.29951,4.26693 -2.43297,6.4004 -6.40039,6.40039 l -1.59961,0 z"
         style="font-size:64px;fill:none;stroke:#000000;stroke-opacity:1"
         id="path3918" />
      <path
         d="m 455.6875,710.625 c 0.17057,-2.13281 1.23698,-3.19922 3.19922,-3.19922 l 0,-41.60156 c -2.13281,-0.17053 -3.19922,-1.23693 -3.19922,-3.19922 l 16,-3.19922 0,48 c 1.96222,0 3.02863,1.06641 3.19922,3.19922 z"
         style="font-size:64px;fill:none;stroke:#000000;stroke-opacity:1"
         id="path3920" />
      <path
         d="m 500.16211,659.42578 0,6.39844 c -3.19923,0.29952 -4.79884,2.43298 -4.79883,6.40039 l 0,3.20117 c -10e-6,3.96748 1.5996,6.10029 4.79883,6.39844 l 0,6.40039 c -3.19923,0.2995 -4.79884,2.43296 -4.79883,6.40039 l 0,3.19922 c -10e-6,3.96876 1.5996,6.10222 4.79883,6.40039 l 0,6.40039 -8,0 c -1.87761,-0.17057 -3.47722,-0.70378 -4.79883,-1.59961 -3.20052,-2.13411 -4.80078,-5.86783 -4.80078,-11.20117 l 0,-12.79883 0,-12.80078 c 0,-5.33329 2.13346,-9.06636 6.40039,-11.19922 1.79166,-0.89578 3.92512,-1.42898 6.40039,-1.59961 z m 3.20117,0 16,0 0,12.79883 -9.60156,0 c -0.29821,-4.26689 -2.43102,-6.40035 -6.39844,-6.40039 l 0,0 z m 0,22.39844 0,6.40039 c 3.1992,0.2995 4.7988,2.43296 4.79883,6.40039 l 0,3.19922 c -3e-5,3.96876 -1.59963,6.10222 -4.79883,6.40039 l 0,6.40039 8,0 c 1.87627,-0.17057 3.47588,-0.70378 4.79883,-1.59961 3.20048,-2.13411 4.80074,-5.86783 4.80078,-11.20117 l 0,-3.19922 c -4e-5,-5.33331 -2.1335,-9.06638 -6.40039,-11.19922 -1.7917,-0.89711 -3.92516,-1.43096 -6.40039,-1.60156 z"
         style="font-size:64px;fill:none;stroke:#000000;stroke-opacity:1"
         id="path3922" />
      <path
         d="m 574.8125,710.625 c 0.17057,-2.13281 1.23698,-3.19922 3.19922,-3.19922 l 0,-41.60156 c -2.13281,-0.17053 -3.19922,-1.23693 -3.19922,-3.19922 l 16,-3.19922 0,48 c 1.96222,0 3.02863,1.06641 3.19922,3.19922 z"
         style="font-size:64px;fill:none;stroke:#000000;stroke-opacity:1"
         id="path3924" />
      <path
         d="m 640.08789,659.42578 0,6.39844 -16,35.20117 0,9.59961 -12.80078,0 0,-9.59961 16,-35.20117 0,-6.39844 z m -16,0 -22.40039,0 0,12.79883 9.59961,0 c 0.29947,-4.26689 2.43293,-6.40035 6.40039,-6.40039 l 6.40039,0 z"
         style="font-size:64px;fill:none;stroke:#000000;stroke-opacity:1"
         id="path3926" />
      <path
         d="m 668.61328,710.625 0,-6.40039 c 3.1992,-0.29817 4.7988,-2.43163 4.79883,-6.40039 l 0,-3.19922 c -3e-5,-3.96743 -1.59963,-6.10089 -4.79883,-6.40039 l 0,-6.40039 c 3.1992,-0.29815 4.7988,-2.43096 4.79883,-6.39844 l 0,-3.20117 c -3e-5,-3.96741 -1.59963,-6.10087 -4.79883,-6.40039 l 0,-6.39844 8,0 c 1.87627,0.17063 3.47588,0.70383 4.79883,1.59961 3.20048,2.13286 4.80074,5.86593 4.80078,11.19922 l 0,12.80078 0,12.79883 c -4e-5,5.33334 -2.1335,9.06706 -6.40039,11.20117 -1.7917,0.89583 -3.92516,1.42904 -6.40039,1.59961 z m -3.20117,0 -16,0 0,-12.80078 9.59961,0 c 0.29947,4.26693 2.43293,6.4004 6.40039,6.40039 l 0,0 z m 0,-22.40039 0,-6.40039 c -3.19923,-0.29815 -4.79884,-2.43096 -4.79883,-6.39844 l 0,-3.20117 c -10e-6,-3.96741 1.5996,-6.10087 4.79883,-6.40039 l 0,-6.39844 -8,0 c -1.87761,0.17063 -3.47722,0.70383 -4.79883,1.59961 -3.20052,2.13286 -4.80078,5.86593 -4.80078,11.19922 l 0,3.20117 c 0,5.33336 2.13346,9.06643 6.40039,11.19922 1.79166,0.89586 3.92512,1.42906 6.40039,1.59961 z"
         style="font-size:64px;fill:none;stroke:#000000;stroke-opacity:1"
         id="path3928" />
      <path
         d="m 711.53711,688.22461 0,-6.40039 -4.79883,0 0,-16 4.79883,0 0,-6.39844 -17.59961,0 0,12.79883 0,16 z m 3.20117,22.40039 0,-6.40039 c 3.1992,-0.29817 4.7988,-2.43163 4.79883,-6.40039 l 0,-3.19922 c -3e-5,-3.96743 -1.59963,-6.10089 -4.79883,-6.40039 l 0,-6.40039 8,0 c 1.87627,0.1706 3.47588,0.70445 4.79883,1.60156 3.20048,2.13284 4.80074,5.86591 4.80078,11.19922 l 0,3.19922 c -4e-5,5.33334 -2.1335,9.06706 -6.40039,11.20117 -1.7917,0.89583 -3.92516,1.42904 -6.40039,1.59961 z m -3.20117,0 -17.59961,0 0,-12.80078 9.59961,0 c 0.29947,4.26693 2.43293,6.4004 6.40039,6.40039 l 1.59961,0 z m 3.20117,-51.19922 16,0 0,12.79883 -9.60156,0 c -0.29821,-4.26689 -2.43102,-6.40035 -6.39844,-6.40039 l 0,0 z"
         style="font-size:64px;fill:none;stroke:#000000;stroke-opacity:1"
         id="path3930" />
    </g>
    <rect
       style="fill:none;stroke:#000000;stroke-width:1;stroke-opacity:1;stroke-miterlimit:4;stroke-dasharray:none"
       id="rect3851"
       width="3529.4543"
       height="1200.1056"
       x="201.94601"
       y="-1549.8838" />
  </g>
</svg>
