<?xml version="1.0" encoding="UTF-8" standalone="no"?>
<!-- Created with Inkscape (http://www.inkscape.org/) -->

<svg
   xmlns:dc="http://purl.org/dc/elements/1.1/"
   xmlns:cc="http://creativecommons.org/ns#"
   xmlns:rdf="http://www.w3.org/1999/02/22-rdf-syntax-ns#"
   xmlns:svg="http://www.w3.org/2000/svg"
   xmlns="http://www.w3.org/2000/svg"
   xmlns:sodipodi="http://sodipodi.sourceforge.net/DTD/sodipodi-0.dtd"
   xmlns:inkscape="http://www.inkscape.org/namespaces/inkscape"
   width="297mm"
   height="210mm"
   id="svg3975"
   version="1.1"
   inkscape:version="0.48.5 r10040"
   sodipodi:docname="New document 3">
  <defs
     id="defs3977" />
  <sodipodi:namedview
     inkscape:document-units="mm"
     pagecolor="#ffffff"
     bordercolor="#666666"
     borderopacity="1.0"
     inkscape:pageopacity="0.0"
     inkscape:pageshadow="2"
     inkscape:zoom="0.43415836"
     inkscape:cx="71.949775"
     inkscape:cy="748.52912"
     inkscape:current-layer="layer1"
     id="namedview3979"
     showgrid="false"
     inkscape:window-width="1920"
     inkscape:window-height="1003"
     inkscape:window-x="-9"
     inkscape:window-y="-9"
     inkscape:window-maximized="1" />
  <metadata
     id="metadata3981">
    <rdf:RDF>
      <cc:Work
         rdf:about="">
        <dc:format>image/svg+xml</dc:format>
        <dc:type
           rdf:resource="http://purl.org/dc/dcmitype/StillImage" />
        <dc:title></dc:title>
      </cc:Work>
    </rdf:RDF>
  </metadata>
  <g
     inkscape:label="Layer 1"
     inkscape:groupmode="layer"
     id="layer1">
    <g
       style="font-size:64px;font-style:normal;font-variant:normal;font-weight:normal;font-stretch:normal;line-height:125%;letter-spacing:0px;word-spacing:0px;fill:none;fill-opacity:1;stroke:#000000;font-family:TPF U13;-inkscape-font-specification:TPF U13;stroke-opacity:1"
       id="flowRoot3984">
      <path
         d="m 66.375,85.748535 14.400879,0 0,54.000005 c 2.399379,0.19189 3.599085,1.3916 3.599121,3.59912 l -21.599121,0 c -1.4e-5,-2.20752 1.199691,-3.40723 3.599121,-3.59912 z m 18,0 14.400879,0 0,14.398685 -7.20044,0 C 91.238483,95.346972 88.838338,92.946828 84.375,92.946777 l 0,0 z m -21.599121,0 -14.400879,0 0,14.398685 7.200439,0 c 0.335442,-4.800248 2.735586,-7.200392 7.20044,-7.200443 l 0,0 z"
         style="font-size:72px;stroke:#000000;stroke-opacity:1;fill:none"
         id="path4618" />
      <path
         d="m 130.83838,110.94678 0,7.20044 c 3.59909,0.33694 5.39865,2.73708 5.39868,7.20044 l 0,3.59912 c -3e-5,4.46485 -1.79959,6.865 -5.39868,7.20044 l 0,7.20044 9,0 c 2.1108,-0.1919 3.91036,-0.79175 5.39868,-1.79956 3.60055,-2.40088 5.40084,-6.60131 5.40088,-12.60132 l 0,-3.59912 c -4e-5,-5.99998 -2.40019,-10.19968 -7.20044,-12.59912 -2.01566,-1.00925 -4.4158,-1.60984 -7.20044,-1.80176 z m -3.60132,-25.198245 0,7.198242 c -3.59914,0.336964 -5.3987,2.737109 -5.39868,7.200443 l 0,3.60132 c -2e-5,4.46341 1.79954,6.86282 5.39868,7.19824 l 0,7.20044 -9,0 c -2.11231,-0.19187 -3.91187,-0.79173 -5.39868,-1.79956 -3.60059,-2.39939 -5.40088,-6.59909 -5.40088,-12.59912 l 0,-3.60132 c 0,-5.999954 2.40014,-10.199657 7.20044,-12.599124 2.01562,-1.007756 4.41576,-1.607609 7.20044,-1.799561 z m 3.60132,0 19.79956,0 0,14.398685 -10.79956,0 c -0.33695,-4.800248 -2.73709,-7.200392 -7.20044,-7.200443 l -1.79956,0 z m -3.60132,57.599125 -19.79956,0 0,-14.40088 10.79956,0 c 0.3369,4.8003 2.73705,7.20044 7.20044,7.20044 l 1.79956,0 z"
         style="font-size:72px;stroke:#000000;stroke-opacity:1;fill:none"
         id="path4620" />
      <path
         d="m 213.32812,85.748535 -21.59912,0 c 0.19187,2.399469 1.39157,3.599175 3.59912,3.599121 l -7.20043,28.799564 0,25.20044 7.20043,0 14.40088,-54.000004 c 2.20747,5.4e-5 3.40718,-1.199652 3.59912,-3.599121 z m -28.79956,32.398685 -7.20044,-28.799564 c 2.2075,5.4e-5 3.40721,-1.199652 3.59913,-3.599121 l -21.59913,0 c 0.1919,2.399469 1.39161,3.599175 3.59913,3.599121 l 14.40087,54.000004 7.20044,0 z"
         style="font-size:72px;stroke:#000000;stroke-opacity:1;fill:none"
         id="path4622" />
      <path
         d="m 273.79687,85.748535 c 0.1919,2.399469 1.39161,3.599175 3.59913,3.599121 l 0,50.400884 c -2.39942,0.19189 -3.59913,1.3916 -3.59913,3.59912 l 18,0 0,-57.599125 z m 21.59913,0 21.60131,0 0,14.398685 -10.79956,0 c -0.33694,-4.800248 -2.73709,-7.200392 -7.20044,-7.200443 l -3.60131,0 z m 0,25.198245 c 2.20896,3e-5 3.40939,-1.19968 3.60131,-3.59912 l 7.20044,0 0,14.40088 -7.20044,0 c -0.19192,-2.40086 -1.39235,-3.6013 -3.60131,-3.60132 l 0,0 z m 0,32.40088 21.60131,0 0,-14.40088 -10.79956,0 c -0.33694,4.8003 -2.73709,7.20044 -7.20044,7.20044 l -3.60131,0 z"
         style="font-size:72px;stroke:#000000;stroke-opacity:1;fill:none"
         id="path4624" />
      <path
         d="m 352.6875,118.14722 c 3.60056,0.33694 5.40085,2.73708 5.40088,7.20044 l 0,10.79956 c -3e-5,4.46484 1.19967,6.86499 3.59912,7.20044 l 14.40088,0 0,-3.59912 c -2.40093,-0.1919 -3.60137,-1.39233 -3.60132,-3.60132 l 0,-7.20044 c -5e-5,-5.99998 -1.79961,-10.19969 -5.39868,-12.59912 -1.48832,-1.00779 -3.28861,-1.60764 -5.40088,-1.79956 l -9,0 z m 23.40088,-32.398685 c -0.19195,2.399469 -1.39238,3.599175 -3.60132,3.599121 l 0,10.799564 c -5e-5,6.00003 -1.79961,10.20047 -5.39868,12.60132 -1.48832,1.00784 -3.28861,1.60769 -5.40088,1.79956 l -9,0 0,-3.60132 c 3.60056,-0.33542 5.40085,-2.73483 5.40088,-7.19824 l 0,-14.400884 c -2.20902,5.4e-5 -3.40945,-1.199652 -3.60132,-3.599121 z m -27,32.398685 c -3.60061,0.33694 -5.4009,2.73708 -5.40088,7.20044 l 0,10.79956 c -2e-5,4.46484 -1.19972,6.86499 -3.59912,7.20044 l -14.40088,0 0,-3.59912 c 2.39941,-0.1919 3.59912,-1.39233 3.59912,-3.60132 l 0,-7.20044 c 0,-5.99998 1.80029,-10.19969 5.40088,-12.59912 1.48827,-1.00779 3.28856,-1.60764 5.40088,-1.79956 l 9,0 z M 325.6875,85.748535 c 0.19189,2.399469 1.3916,3.599175 3.59912,3.599121 l 0,10.799564 c 0,6.00003 1.80029,10.20047 5.40088,12.60132 1.48827,1.00784 3.28856,1.60769 5.40088,1.79956 l 9,0 0,-3.60132 c -3.60061,-0.33542 -5.4009,-2.73483 -5.40088,-7.19824 l 0,-14.400884 c 2.2075,5.4e-5 3.40721,-1.199652 3.59912,-3.599121 z"
         style="font-size:72px;stroke:#000000;stroke-opacity:1;fill:none"
         id="path4626" />
      <path
         d="m 384.75,85.748535 c 0.19189,2.399469 1.3916,3.599175 3.59912,3.599121 l 0,50.400884 c -2.39941,0.19189 -3.59912,1.3916 -3.59912,3.59912 l 21.59912,0 c -2e-5,-2.20752 -1.19973,-3.40723 -3.59912,-3.59912 l 0,-54.000005 z m 21.59912,0 0,7.198242 c 4.80027,0.336964 7.20041,2.737109 7.20044,7.200443 l 0,3.60132 c -3e-5,4.46341 -2.40017,6.86282 -7.20044,7.19824 l 0,7.20044 7.20044,0 c 2.78464,-0.24021 5.18478,-0.98435 7.20044,-2.23243 4.80025,-3.0234 7.2004,-8.27926 7.20044,-15.76757 -4e-5,-5.999954 -2.40019,-10.199657 -7.20044,-12.599124 -2.01566,-1.007756 -4.4158,-1.607609 -7.20044,-1.799561 z"
         style="font-size:72px;stroke:#000000;stroke-opacity:1;fill:none"
         id="path4628" />
      <path
         d="m 436.64062,85.748535 c 0.1919,2.399469 1.39161,3.599175 3.59913,3.599121 l 0,50.400884 c -2.39942,0.19189 -3.59913,1.3916 -3.59913,3.59912 l 18,0 0,-57.599125 z m 21.59913,0 21.60131,0 0,14.398685 -10.79956,0 c -0.33694,-4.800248 -2.73709,-7.200392 -7.20044,-7.200443 l -3.60131,0 z m 0,25.198245 c 2.20896,3e-5 3.40939,-1.19968 3.60131,-3.59912 l 7.20044,0 0,14.40088 -7.20044,0 c -0.19192,-2.40086 -1.39235,-3.6013 -3.60131,-3.60132 l 0,0 z m 0,32.40088 21.60131,0 0,-14.40088 -10.79956,0 c -0.33694,4.8003 -2.73709,7.20044 -7.20044,7.20044 l -3.60131,0 z"
         style="font-size:72px;stroke:#000000;stroke-opacity:1;fill:none"
         id="path4630" />
      <path
         d="m 488.53125,85.748535 c 0.19189,2.399469 1.3916,3.599175 3.59912,3.599121 l 0,50.400884 c -2.39941,0.19189 -3.59912,1.3916 -3.59912,3.59912 l 21.59912,0 c -2e-5,-2.20752 -1.19973,-3.40723 -3.59912,-3.59912 l 0,-54.000005 z m 21.59912,0 0,7.198242 c 4.80027,0.336964 7.20041,2.737109 7.20044,7.200443 l 0,3.60132 c -3e-5,4.46341 -2.40017,6.86282 -7.20044,7.19824 l 0,7.20044 c 4.80027,0.33694 7.20041,2.73708 7.20044,7.20044 l 0,10.79956 c -3e-5,4.46484 1.20041,6.86499 3.60132,7.20044 l 14.39868,0 0,-3.59912 c -2.39946,-0.1919 -3.59916,-1.39233 -3.59912,-3.60132 l 0,-7.20044 c -4e-5,-5.99998 -1.80033,-10.19969 -5.40088,-12.59912 -1.48832,-1.00779 -3.28788,-1.60764 -5.39868,-1.79956 2.1108,-0.19187 3.91036,-0.79172 5.39868,-1.79956 3.60055,-2.40085 5.40084,-6.60129 5.40088,-12.60132 -4e-5,-5.999954 -2.40019,-10.199657 -7.20044,-12.599124 -2.01566,-1.007756 -4.4158,-1.607609 -7.20044,-1.799561 z"
         style="font-size:72px;stroke:#000000;stroke-opacity:1;fill:none"
         id="path4632" />
      <path
         d="m 543.9375,143.34766 c 0.19189,-2.39942 1.3916,-3.59912 3.59912,-3.59912 l 0,-50.400884 c -2.39941,-0.19184 -3.59912,-1.391546 -3.59912,-3.599121 l 21.59912,0 c -2e-5,2.207575 -1.19973,3.407281 -3.59912,3.599121 l 0,50.400884 c 2.2075,0 3.40721,1.1997 3.59912,3.59912 z"
         style="font-size:72px;stroke:#000000;stroke-opacity:1;fill:none"
         id="path4634" />
      <path
         d="m 574.17187,85.748535 c 0.1919,2.399469 1.39161,3.599175 3.59913,3.599121 l 0,50.400884 c -2.39942,0.19189 -3.59913,1.3916 -3.59913,3.59912 l 18,0 0,-57.599125 z m 21.59913,0 21.60131,0 0,14.398685 -10.79956,0 c -0.33694,-4.800248 -2.73709,-7.200392 -7.20044,-7.200443 l -3.60131,0 z m 0,25.198245 c 2.20896,3e-5 3.40939,-1.19968 3.60131,-3.59912 l 7.20044,0 0,14.40088 -7.20044,0 c -0.19192,-2.40086 -1.39235,-3.6013 -3.60131,-3.60132 l 0,0 z m 0,32.40088 21.60131,0 0,-14.40088 -10.79956,0 c -0.33694,4.8003 -2.73709,7.20044 -7.20044,7.20044 l -3.60131,0 z"
         style="font-size:72px;stroke:#000000;stroke-opacity:1;fill:none"
         id="path4636" />
      <path
         d="m 626.0625,143.34766 c 0.19189,-2.39942 1.3916,-3.59912 3.59912,-3.59912 l 0,-50.400884 c -2.39941,-0.19184 -3.59912,-1.391546 -3.59912,-3.599121 l 18,0 0,54.000005 c 2.2075,0 3.40721,1.1997 3.59912,3.59912 z m 21.59912,-36 7.20044,7.20044 c 2.20895,2.20754 4.6091,5.80739 7.20044,10.79956 l 0,14.40088 c -2.20755,0 -3.40726,1.1997 -3.59912,3.59912 l 21.59912,0 c -0.19195,-2.39942 -1.39165,-3.59912 -3.59912,-3.59912 l 0,-50.400884 c 2.39936,-0.19184 3.59907,-1.391546 3.59912,-3.599121 l -21.59912,0 c -3e-5,2.207575 1.19967,3.407281 3.59912,3.599121 l 0,18.000004 -3.59912,-3.59912 c -3.50394,-3.50387 -5.90408,-8.304156 -7.20044,-14.400884 l -3.60132,0 z"
         style="font-size:72px;stroke:#000000;stroke-opacity:1;fill:none"
         id="path4638" />
      <path
         d="m 708.44019,85.748535 0,7.198242 c -3.59914,0.336964 -5.3987,2.737109 -5.39869,7.200443 l 0,28.79956 c -1e-5,4.46485 1.79955,6.865 5.39869,7.20044 l 0,7.20044 -9,0 c -2.11232,-0.1919 -3.91188,-0.79175 -5.39869,-1.79956 -3.60058,-2.40088 -5.40088,-6.60131 -5.40088,-12.60132 l 0,-28.79956 c 0,-5.999954 2.40015,-10.199657 7.20044,-12.599124 2.01562,-1.007756 4.41576,-1.607609 7.20044,-1.799561 z m 3.60131,7.198242 c 3.5991,0.336964 5.39866,2.737109 5.39869,7.200443 l 0,3.60132 14.40087,0 0,-3.60132 c -4e-5,-5.999954 -2.40018,-10.199657 -7.20044,-12.599124 -2.01565,-1.007756 -4.4158,-1.607609 -7.20043,-1.799561 l -5.39869,0 z m 0,43.200443 c 3.5991,-0.33544 5.39866,-2.73559 5.39869,-7.20044 l 0,-3.59912 14.40087,0 0,3.59912 c -4e-5,6.00001 -2.40018,10.20044 -7.20044,12.60132 -2.01565,1.00781 -4.4158,1.60766 -7.20043,1.79956 l -5.39869,0 z"
         style="font-size:72px;stroke:#000000;stroke-opacity:1;fill:none"
         id="path4640" />
      <path
         d="m 740.53125,143.34766 c 0.19189,-2.39942 1.3916,-3.59912 3.59912,-3.59912 l 0,-50.400884 c -2.39941,-0.19184 -3.59912,-1.391546 -3.59912,-3.599121 l 21.59912,0 c -2e-5,2.207575 -1.19973,3.407281 -3.59912,3.599121 l 0,50.400884 c 2.2075,0 3.40721,1.1997 3.59912,3.59912 z"
         style="font-size:72px;stroke:#000000;stroke-opacity:1;fill:none"
         id="path4642" />
      <path
         d="m 770.76562,143.34766 c 0.1919,-2.39942 1.39161,-3.59912 3.59913,-3.59912 l 0,-50.400884 c -2.39942,-0.19184 -3.59913,-1.391546 -3.59913,-3.599121 l 18,0 0,54.000005 c 2.2075,0 3.40721,1.1997 3.59913,3.59912 z m 21.59913,-36 7.20044,7.20044 c 2.20895,2.20754 4.60909,5.80739 7.20043,10.79956 l 0,14.40088 c -2.20755,0 -3.40725,1.1997 -3.59912,3.59912 l 21.59912,0 c -0.19194,-2.39942 -1.39165,-3.59912 -3.59912,-3.59912 l 0,-50.400884 c 2.39937,-0.19184 3.59907,-1.391546 3.59912,-3.599121 l -21.59912,0 c -3e-5,2.207575 1.19968,3.407281 3.59912,3.599121 l 0,18.000004 -3.59912,-3.59912 c -3.50393,-3.50387 -5.90408,-8.304156 -7.20044,-14.400884 l -3.60131,0 z"
         style="font-size:72px;stroke:#000000;stroke-opacity:1;fill:none"
         id="path4644" />
      <path
         d="m 853.14331,85.748535 0,7.198242 c -3.59914,0.336964 -5.3987,2.737109 -5.39868,7.200443 l 0,28.79956 c -2e-5,4.46485 1.79954,6.865 5.39868,7.20044 l 0,7.20044 -9,0 c -2.11231,-0.1919 -3.91187,-0.79175 -5.39868,-1.79956 -3.60059,-2.40088 -5.40088,-6.60131 -5.40088,-12.60132 l 0,-28.79956 c 0,-5.999954 2.40014,-10.199657 7.20044,-12.599124 2.01562,-1.007756 4.41576,-1.607609 7.20044,-1.799561 z m 3.60132,7.198242 c 3.59909,0.336964 5.39865,2.737109 5.39868,7.200443 l 0,3.60132 14.40088,0 0,-3.60132 c -4e-5,-5.999954 -2.40019,-10.199657 -7.20044,-12.599124 -2.01566,-1.007756 -4.4158,-1.607609 -7.20044,-1.799561 l -5.39868,0 z m 0,43.200443 c 3.59909,-0.33544 5.39865,-2.73559 5.39868,-7.20044 l 0,-10.79956 14.40088,0 0,10.79956 c -4e-5,6.00001 -2.40019,10.20044 -7.20044,12.60132 -2.01566,1.00781 -4.4158,1.60766 -7.20044,1.79956 l -5.39868,0 z m 0,-25.20044 19.79956,0 0,7.20044 -19.79956,0 z"
         style="font-size:72px;stroke:#000000;stroke-opacity:1;fill:none"
         id="path4646" />
      <path
         d="m 77.174561,233.34766 c 0.191865,-2.39942 1.392303,-3.59912 3.601318,-3.59912 l 0,-39.60132 c -3.2e-5,-4.46333 -1.800324,-6.86348 -5.400879,-7.20044 l 0,-7.19824 9,0 c 2.112267,0.19195 3.912558,0.7918 5.400879,1.79956 3.599076,2.39946 5.398635,6.59917 5.398682,12.59912 l 0,39.60132 c 2.208935,0 3.409373,1.1997 3.601318,3.59912 z m -7.20044,0 c -0.191916,-2.39942 -1.391622,-3.59912 -3.599121,-3.59912 l 0,-39.60132 c -1.8e-5,-4.46333 1.800273,-6.86348 5.400879,-7.20044 l 0,-7.19824 -9,0 c -2.112317,0.19195 -3.912608,0.7918 -5.400879,1.79956 -3.600591,2.39946 -5.400883,6.59917 -5.400879,12.59912 l 0,39.60132 c -2.207521,0 -3.407227,1.1997 -3.599121,3.59912 z m -3.599121,-36 c 0.191876,2.39944 1.391582,3.59915 3.599121,3.59912 l 1.801758,0 0,7.20044 -1.801758,0 c -2.207539,2e-5 -3.407245,1.20046 -3.599121,3.60132 z m 9,3.59912 1.799561,0 c 2.208953,3e-5 3.409391,-1.19968 3.601318,-3.59912 l 0,14.40088 c -0.191927,-2.40086 -1.392365,-3.6013 -3.601318,-3.60132 l -1.799561,0 z"
         style="font-size:72px;stroke:#000000;stroke-opacity:1;fill:none"
         id="path4648" />
      <path
         d="m 182.729,200.94678 0,7.20044 c 3.5991,0.33694 5.39866,2.73708 5.39869,7.20044 l 0,3.59912 c -3e-5,4.46485 -1.79959,6.865 -5.39869,7.20044 l 0,7.20044 9,0 c 2.11081,-0.1919 3.91037,-0.79175 5.39869,-1.79956 3.60054,-2.40088 5.40083,-6.60131 5.40087,-12.60132 l 0,-3.59912 c -4e-5,-5.99998 -2.40018,-10.19968 -7.20044,-12.59912 -2.01565,-1.00925 -4.4158,-1.60984 -7.20043,-1.80176 z m -3.60131,-25.19824 0,7.19824 c -3.59914,0.33696 -5.3987,2.73711 -5.39869,7.20044 l 0,3.60132 c -1e-5,4.46341 1.79955,6.86282 5.39869,7.19824 l 0,7.20044 -9,0 c -2.11232,-0.19187 -3.91188,-0.79173 -5.39869,-1.79956 -3.60058,-2.39939 -5.40088,-6.59909 -5.40088,-12.59912 l 0,-3.60132 c 0,-5.99995 2.40015,-10.19966 7.20044,-12.59912 2.01562,-1.00776 4.41576,-1.60761 7.20044,-1.79956 z m 3.60131,0 19.79956,0 0,14.39868 -10.79956,0 c -0.33694,-4.80025 -2.73709,-7.20039 -7.20044,-7.20044 l -1.79956,0 z m -3.60131,57.59912 -19.79957,0 0,-14.40088 10.79957,0 c 0.3369,4.8003 2.73704,7.20044 7.20043,7.20044 l 1.79957,0 z"
         style="font-size:72px;stroke:#000000;stroke-opacity:1;fill:none"
         id="path4650" />
      <path
         d="m 211.21875,233.34766 c 0.19189,-2.39942 1.3916,-3.59912 3.59912,-3.59912 l 0,-50.40088 c -2.39941,-0.19184 -3.59912,-1.39155 -3.59912,-3.59912 l 21.59912,0 c -2e-5,2.20757 -1.19973,3.40728 -3.59912,3.59912 l 0,50.40088 c 2.2075,0 3.40721,1.1997 3.59912,3.59912 z"
         style="font-size:72px;stroke:#000000;stroke-opacity:1;fill:none"
         id="path4652" />
      <path
         d="m 261.25269,175.74854 0,7.19824 c -3.59914,0.33696 -5.3987,2.73711 -5.39869,7.20044 l 0,28.79956 c -1e-5,4.46485 1.79955,6.865 5.39869,7.20044 l 0,7.20044 -9,0 c -2.11232,-0.1919 -3.91188,-0.79175 -5.39869,-1.79956 -3.60058,-2.40088 -5.40088,-6.60131 -5.40088,-12.60132 l 0,-28.79956 c 0,-5.99995 2.40015,-10.19966 7.20044,-12.59912 2.01562,-1.00776 4.41576,-1.60761 7.20044,-1.79956 z m 3.60131,7.19824 c 3.5991,0.33696 5.39866,2.73711 5.39869,7.20044 l 0,3.60132 14.40087,0 0,-3.60132 c -4e-5,-5.99995 -2.40018,-10.19966 -7.20044,-12.59912 -2.01565,-1.00776 -4.4158,-1.60761 -7.20043,-1.79956 l -5.39869,0 z m 0,43.20044 c 3.5991,-0.33544 5.39866,-2.73559 5.39869,-7.20044 l 0,-10.79956 14.40087,0 0,10.79956 c -4e-5,6.00001 -2.40018,10.20044 -7.20044,12.60132 -2.01565,1.00781 -4.4158,1.60766 -7.20043,1.79956 l -5.39869,0 z m 0,-25.20044 19.79956,0 0,7.20044 -19.79956,0 z"
         style="font-size:72px;stroke:#000000;stroke-opacity:1;fill:none"
         id="path4654" />
      <path
         d="m 293.34375,233.34766 c 0.19189,-2.39942 1.3916,-3.59912 3.59912,-3.59912 l 0,-50.40088 c -2.39941,-0.19184 -3.59912,-1.39155 -3.59912,-3.59912 l 18,0 0,54 c 2.2075,0 3.40721,1.1997 3.59912,3.59912 z m 21.59912,-36 7.20044,7.20044 c 2.20895,2.20754 4.6091,5.80739 7.20044,10.79956 l 0,14.40088 c -2.20755,0 -3.40726,1.1997 -3.59912,3.59912 l 21.59912,0 c -0.19195,-2.39942 -1.39165,-3.59912 -3.59912,-3.59912 l 0,-50.40088 c 2.39936,-0.19184 3.59907,-1.39155 3.59912,-3.59912 l -21.59912,0 c -3e-5,2.20757 1.19967,3.40728 3.59912,3.59912 l 0,18 -3.59912,-3.59912 c -3.50394,-3.50387 -5.90408,-8.30416 -7.20044,-14.40088 l -3.60132,0 z"
         style="font-size:72px;stroke:#000000;stroke-opacity:1;fill:none"
         id="path4656" />
      <path
         d="m 355.92187,233.34766 c 0.1919,-2.39942 1.39161,-3.59912 3.59913,-3.59912 l 0,-50.40088 c -2.39942,-0.19184 -3.59913,-1.39155 -3.59913,-3.59912 l 21.59913,0 c -3e-5,2.20757 -1.19973,3.40728 -3.59913,3.59912 l 0,50.40088 c 2.2075,0 3.40721,1.1997 3.59913,3.59912 z"
         style="font-size:72px;stroke:#000000;stroke-opacity:1;fill:none"
         id="path4658" />
      <path
         d="m 386.15625,175.74854 c 0.19189,2.39946 1.3916,3.59917 3.59912,3.59912 l 0,50.40088 c -2.39941,0.19189 -3.59912,1.3916 -3.59912,3.59912 l 21.59912,0 c -2e-5,-2.20752 -1.19973,-3.40723 -3.59912,-3.59912 l 0,-54 z m 21.59912,0 21.60132,0 0,14.39868 -10.79956,0 c -0.33695,-4.80025 -2.73709,-7.20039 -7.20044,-7.20044 l -3.60132,0 z m 0,25.19824 c 2.20896,3e-5 3.4094,-1.19968 3.60132,-3.59912 l 7.20044,0 0,14.40088 -7.20044,0 c -0.19192,-2.40086 -1.39236,-3.6013 -3.60132,-3.60132 l 0,0 z"
         style="font-size:72px;stroke:#000000;stroke-opacity:1;fill:none"
         id="path4660" />
      <path
         d="m 438.04687,233.34766 c 0.1919,-2.39942 1.39161,-3.59912 3.59913,-3.59912 l 0,-50.40088 c -2.39942,-0.19184 -3.59913,-1.39155 -3.59913,-3.59912 l 21.59913,0 c -3e-5,2.20757 -1.19973,3.40728 -3.59913,3.59912 l 0,50.40088 c 2.2075,0 3.40721,1.1997 3.59913,3.59912 z"
         style="font-size:72px;stroke:#000000;stroke-opacity:1;fill:none"
         id="path4662" />
      <path
         d="m 488.08081,175.74854 0,7.19824 c -3.59914,0.33696 -5.3987,2.73711 -5.39868,7.20044 l 0,28.79956 c -2e-5,4.46485 1.79954,6.865 5.39868,7.20044 l 0,7.20044 -9,0 c -2.11231,-0.1919 -3.91187,-0.79175 -5.39868,-1.79956 -3.60059,-2.40088 -5.40088,-6.60131 -5.40088,-12.60132 l 0,-28.79956 c 0,-5.99995 2.40014,-10.19966 7.20044,-12.59912 2.01562,-1.00776 4.41576,-1.60761 7.20044,-1.79956 z m 3.60132,7.19824 c 3.59909,0.33696 5.39865,2.73711 5.39868,7.20044 l 0,3.60132 14.40088,0 0,-3.60132 c -4e-5,-5.99995 -2.40019,-10.19966 -7.20044,-12.59912 -2.01566,-1.00776 -4.4158,-1.60761 -7.20044,-1.79956 l -5.39868,0 z m 0,43.20044 c 3.59909,-0.33544 5.39865,-2.73559 5.39868,-7.20044 l 0,-3.59912 14.40088,0 0,3.59912 c -4e-5,6.00001 -2.40019,10.20044 -7.20044,12.60132 -2.01566,1.00781 -4.4158,1.60766 -7.20044,1.79956 l -5.39868,0 z"
         style="font-size:72px;stroke:#000000;stroke-opacity:1;fill:none"
         id="path4664" />
      <path
         d="m 548.97144,233.34766 c 0.19186,-2.39942 1.3923,-3.59912 3.60131,-3.59912 l 0,-39.60132 c -3e-5,-4.46333 -1.80032,-6.86348 -5.40088,-7.20044 l 0,-7.19824 9,0 c 2.11227,0.19195 3.91256,0.7918 5.40088,1.79956 3.59908,2.39946 5.39864,6.59917 5.39869,12.59912 l 0,39.60132 c 2.20893,0 3.40937,1.1997 3.60131,3.59912 z m -7.20044,0 c -0.19192,-2.39942 -1.39163,-3.59912 -3.59913,-3.59912 l 0,-39.60132 c -10e-6,-4.46333 1.80028,-6.86348 5.40088,-7.20044 l 0,-7.19824 -9,0 c -2.11231,0.19195 -3.9126,0.7918 -5.40088,1.79956 -3.60059,2.39946 -5.40088,6.59917 -5.40087,12.59912 l 0,39.60132 c -2.20752,0 -3.40723,1.1997 -3.59913,3.59912 z m -3.59913,-36 c 0.19188,2.39944 1.39159,3.59915 3.59913,3.59912 l 1.80175,0 0,7.20044 -1.80175,0 c -2.20754,2e-5 -3.40725,1.20046 -3.59913,3.60132 z m 9,3.59912 1.79957,0 c 2.20895,3e-5 3.40939,-1.19968 3.60131,-3.59912 l 0,14.40088 c -0.19192,-2.40086 -1.39236,-3.6013 -3.60131,-3.60132 l -1.79957,0 z"
         style="font-size:72px;stroke:#000000;stroke-opacity:1;fill:none"
         id="path4666" />
      <path
         d="m 579.23437,233.34766 c 0.1919,-2.39942 1.39161,-3.59912 3.59913,-3.59912 l 0,-50.40088 c -2.39942,-0.19184 -3.59913,-1.39155 -3.59913,-3.59912 l 18,0 0,54 c 2.2075,0 3.40721,1.1997 3.59913,3.59912 z m 21.59913,-36 7.20044,7.20044 c 2.20895,2.20754 4.60909,5.80739 7.20043,10.79956 l 0,14.40088 c -2.20755,0 -3.40725,1.1997 -3.59912,3.59912 l 21.59912,0 c -0.19194,-2.39942 -1.39165,-3.59912 -3.59912,-3.59912 l 0,-50.40088 c 2.39937,-0.19184 3.59907,-1.39155 3.59912,-3.59912 l -21.59912,0 c -3e-5,2.20757 1.19968,3.40728 3.59912,3.59912 l 0,18 -3.59912,-3.59912 c -3.50393,-3.50387 -5.90408,-8.30416 -7.20044,-14.40088 l -3.60131,0 z"
         style="font-size:72px;stroke:#000000;stroke-opacity:1;fill:none"
         id="path4668" />
      <path
         d="m 659.8125,175.74854 14.40088,0 0,54 c 2.39938,0.19189 3.59908,1.3916 3.59912,3.59912 l -21.59912,0 c -2e-5,-2.20752 1.19969,-3.40723 3.59912,-3.59912 z m 18,0 14.40088,0 0,14.39868 -7.20044,0 c -0.33696,-4.80025 -2.7371,-7.20039 -7.20044,-7.20044 l 0,0 z m -21.59912,0 -14.40088,0 0,14.39868 7.20044,0 c 0.33544,-4.80025 2.73559,-7.20039 7.20044,-7.20044 l 0,0 z"
         style="font-size:72px;stroke:#000000;stroke-opacity:1;fill:none"
         id="path4670" />
      <path
         d="m 48.375,323.34766 c 0.191894,-2.39942 1.3916,-3.59912 3.599121,-3.59912 l 0,-50.40088 C 49.574706,269.15582 48.375,267.95611 48.375,265.74854 l 21.599121,0 c -2.2e-5,2.20757 -1.199727,3.40728 -3.599121,3.59912 l 0,54 z m 21.599121,0 21.601318,0 0,-14.40088 -10.79956,0 c -0.336946,4.8003 -2.73709,7.20044 -7.20044,7.20044 l -3.601318,0 z"
         style="font-size:72px;stroke:#000000;stroke-opacity:1;fill:none"
         id="path4672" />
      <path
         d="m 129.06519,323.34766 c 0.19186,-2.39942 1.3923,-3.59912 3.60131,-3.59912 l 0,-39.60132 c -3e-5,-4.46333 -1.80032,-6.86348 -5.40087,-7.20044 l 0,-7.19824 8.99999,0 c 2.11227,0.19195 3.91256,0.7918 5.40088,1.79956 3.59908,2.39946 5.39864,6.59917 5.39869,12.59912 l 0,39.60132 c 2.20893,0 3.40937,1.1997 3.60131,3.59912 z m -7.20044,0 c -0.19192,-2.39942 -1.39163,-3.59912 -3.59912,-3.59912 l 0,-39.60132 c -2e-5,-4.46333 1.80027,-6.86348 5.40087,-7.20044 l 0,-7.19824 -9,0 c -2.11231,0.19195 -3.9126,0.7918 -5.40087,1.79956 -3.6006,2.39946 -5.40089,6.59917 -5.40088,12.59912 l 0,39.60132 c -2.20752,0 -3.40723,1.1997 -3.59912,3.59912 z m -3.59912,-36 c 0.19187,2.39944 1.39158,3.59915 3.59912,3.59912 l 1.80175,0 0,7.20044 -1.80175,0 c -2.20754,2e-5 -3.40725,1.20046 -3.59912,3.60132 z m 9,3.59912 1.79956,0 c 2.20895,3e-5 3.40939,-1.19968 3.60131,-3.59912 l 0,14.40088 c -0.19192,-2.40086 -1.39236,-3.6013 -3.60131,-3.60132 l -1.79956,0 z"
         style="font-size:72px;stroke:#000000;stroke-opacity:1;fill:none"
         id="path4674" />
      <path
         d="m 179.12769,265.74854 0,7.19824 c -3.59914,0.33696 -5.3987,2.73711 -5.39869,7.20044 l 0,28.79956 c -1e-5,4.46485 1.79955,6.865 5.39869,7.20044 l 0,7.20044 -9,0 c -2.11232,-0.1919 -3.91188,-0.79175 -5.39869,-1.79956 -3.60058,-2.40088 -5.40088,-6.60131 -5.40088,-12.60132 l 0,-28.79956 c 0,-5.99995 2.40015,-10.19966 7.20044,-12.59912 2.01562,-1.00776 4.41576,-1.60761 7.20044,-1.79956 z m 3.60131,7.19824 c 3.5991,0.33696 5.39866,2.73711 5.39869,7.20044 l 0,3.60132 14.40087,0 0,-3.60132 c -4e-5,-5.99995 -2.40018,-10.19966 -7.20044,-12.59912 -2.01565,-1.00776 -4.4158,-1.60761 -7.20043,-1.79956 l -5.39869,0 z m 0,43.20044 c 3.5991,-0.33544 5.39866,-2.73559 5.39869,-7.20044 l 0,-3.59912 14.40087,0 0,3.59912 c -4e-5,6.00001 -2.40018,10.20044 -7.20044,12.60132 -2.01565,1.00781 -4.4158,1.60766 -7.20043,1.79956 l -5.39869,0 z"
         style="font-size:72px;stroke:#000000;stroke-opacity:1;fill:none"
         id="path4676" />
      <path
         d="m 211.21875,265.74854 c 0.19189,2.39946 1.3916,3.59917 3.59912,3.59912 l 0,50.40088 c -2.39941,0.19189 -3.59912,1.3916 -3.59912,3.59912 l 21.59912,0 c -2e-5,-2.20752 -1.19973,-3.40723 -3.59912,-3.59912 l 0,-50.40088 c 2.2075,5e-5 3.40721,-1.19966 3.59912,-3.59912 z m 21.59912,32.39868 c 4.80027,0.33694 7.20041,2.73708 7.20044,7.20044 l 0,10.79956 c -3e-5,4.46484 1.20041,6.86499 3.60132,7.20044 l 14.39868,0 0,-3.59912 c -2.39946,-0.1919 -3.59916,-1.39233 -3.59912,-3.60132 l 0,-7.20044 c -4e-5,-5.99998 -1.80033,-10.19969 -5.40088,-12.59912 -1.48832,-1.00779 -3.28788,-1.60764 -5.39868,-1.79956 l -10.80176,0 z m 25.20044,-32.39868 c -0.19194,2.39946 -1.39165,3.59917 -3.59912,3.59912 l 0,10.79956 c -4e-5,6.00003 -1.80033,10.20047 -5.40088,12.60132 -1.48832,1.00784 -3.28788,1.60769 -5.39868,1.79956 l -10.80176,0 0,-3.60132 c 4.80027,-0.33542 7.20041,-2.73483 7.20044,-7.19824 l 0,-14.40088 c -2.20755,5e-5 -3.40725,-1.19966 -3.59912,-3.59912 z"
         style="font-size:72px;stroke:#000000;stroke-opacity:1;fill:none"
         id="path4678" />
      <path
         d="m 341.9165,265.74854 0,7.19824 c 3.5991,0.33696 5.39866,2.73711 5.39869,7.20044 l 0,28.79956 c -3e-5,4.46485 -1.79959,6.865 -5.39869,7.20044 l 0,7.20044 9,0 c 2.11081,-0.1919 3.91037,-0.79175 5.39869,-1.79956 3.60054,-2.40088 5.40083,-6.60131 5.40087,-12.60132 l 0,-28.79956 c -4e-5,-5.99995 -2.40018,-10.19966 -7.20044,-12.59912 -2.01565,-1.00776 -4.4158,-1.60761 -7.20043,-1.79956 z m -3.60131,0 0,7.19824 c -3.59914,0.33696 -5.3987,2.73711 -5.39869,7.20044 l 0,28.79956 c -10e-6,4.46485 1.79955,6.865 5.39869,7.20044 l 0,7.20044 -9,0 c -2.11232,-0.1919 -3.91188,-0.79175 -5.39869,-1.79956 -3.60058,-2.40088 -5.40088,-6.60131 -5.40088,-12.60132 l 0,-28.79956 c 0,-5.99995 2.40015,-10.19966 7.20044,-12.59912 2.01562,-1.00776 4.41576,-1.60761 7.20044,-1.79956 z"
         style="font-size:72px;stroke:#000000;stroke-opacity:1;fill:none"
         id="path4680" />
      <path
         d="m 370.40625,265.74854 c 0.19189,2.39946 1.3916,3.59917 3.59912,3.59912 l 0,50.40088 c -2.39941,0.19189 -3.59912,1.3916 -3.59912,3.59912 l 21.59912,0 c -2e-5,-2.20752 -1.19973,-3.40723 -3.59912,-3.59912 l 0,-54 z m 21.59912,0 21.60132,0 0,14.39868 -10.79956,0 c -0.33695,-4.80025 -2.73709,-7.20039 -7.20044,-7.20044 l -3.60132,0 z m 0,25.19824 c 2.20896,3e-5 3.4094,-1.19968 3.60132,-3.59912 l 7.20044,0 0,14.40088 -7.20044,0 c -0.19192,-2.40086 -1.39236,-3.6013 -3.60132,-3.60132 l 0,0 z"
         style="font-size:72px;stroke:#000000;stroke-opacity:1;fill:none"
         id="path4682" />
      <path
         d="m 493.98706,265.74854 0,7.19824 c -3.59914,0.33696 -5.3987,2.73711 -5.39868,7.20044 l 0,28.79956 c -2e-5,4.46485 1.79954,6.865 5.39868,7.20044 l 0,7.20044 -9,0 c -2.11231,-0.1919 -3.91187,-0.79175 -5.39868,-1.79956 -3.60059,-2.40088 -5.40088,-6.60131 -5.40088,-12.60132 l 0,-28.79956 c 0,-5.99995 2.40014,-10.19966 7.20044,-12.59912 2.01562,-1.00776 4.41576,-1.60761 7.20044,-1.79956 z m 3.60132,7.19824 c 3.59909,0.33696 5.39865,2.73711 5.39868,7.20044 l 0,3.60132 14.40088,0 0,-3.60132 c -4e-5,-5.99995 -2.40019,-10.19966 -7.20044,-12.59912 -2.01566,-1.00776 -4.4158,-1.60761 -7.20044,-1.79956 l -5.39868,0 z m 0,43.20044 c 3.59909,-0.33544 5.39865,-2.73559 5.39868,-7.20044 l 0,-10.79956 14.40088,0 0,10.79956 c -4e-5,6.00001 -2.40019,10.20044 -7.20044,12.60132 -2.01566,1.00781 -4.4158,1.60766 -7.20044,1.79956 l -5.39868,0 z m 0,-25.20044 19.79956,0 0,7.20044 -19.79956,0 z"
         style="font-size:72px;stroke:#000000;stroke-opacity:1;fill:none"
         id="path4684" />
      <path
         d="m 526.07812,265.74854 c 0.1919,2.39946 1.39161,3.59917 3.59913,3.59912 l 0,50.40088 c -2.39942,0.19189 -3.59913,1.3916 -3.59913,3.59912 l 21.59913,0 c -3e-5,-2.20752 -1.19973,-3.40723 -3.59913,-3.59912 l 0,-54 z m 21.59913,0 0,7.19824 c 4.80026,0.33696 7.20041,2.73711 7.20044,7.20044 l 0,3.60132 c -3e-5,4.46341 -2.40018,6.86282 -7.20044,7.19824 l 0,7.20044 c 4.80026,0.33694 7.20041,2.73708 7.20044,7.20044 l 0,10.79956 c -3e-5,4.46484 1.2004,6.86499 3.60131,7.20044 l 14.39869,0 0,-3.59912 c -2.39946,-0.1919 -3.59917,-1.39233 -3.59913,-3.60132 l 0,-7.20044 c -4e-5,-5.99998 -1.80033,-10.19969 -5.40087,-12.59912 -1.48832,-1.00779 -3.28788,-1.60764 -5.39869,-1.79956 2.11081,-0.19187 3.91037,-0.79172 5.39869,-1.79956 3.60054,-2.40085 5.40083,-6.60129 5.40087,-12.60132 -4e-5,-5.99995 -2.40018,-10.19966 -7.20044,-12.59912 -2.01565,-1.00776 -4.4158,-1.60761 -7.20043,-1.79956 z"
         style="font-size:72px;stroke:#000000;stroke-opacity:1;fill:none"
         id="path4686" />
      <path
         d="m 610.28394,323.34766 c 0.19186,-2.39942 1.3923,-3.59912 3.60131,-3.59912 l 0,-39.60132 c -3e-5,-4.46333 -1.80032,-6.86348 -5.40088,-7.20044 l 0,-7.19824 9,0 c 2.11227,0.19195 3.91256,0.7918 5.40088,1.79956 3.59908,2.39946 5.39864,6.59917 5.39869,12.59912 l 0,39.60132 c 2.20893,0 3.40937,1.1997 3.60131,3.59912 z m -7.20044,0 c -0.19192,-2.39942 -1.39163,-3.59912 -3.59913,-3.59912 l 0,-39.60132 c -10e-6,-4.46333 1.80028,-6.86348 5.40088,-7.20044 l 0,-7.19824 -9,0 c -2.11231,0.19195 -3.9126,0.7918 -5.40088,1.79956 -3.60059,2.39946 -5.40088,6.59917 -5.40087,12.59912 l 0,39.60132 c -2.20752,0 -3.40723,1.1997 -3.59913,3.59912 z m -3.59913,-36 c 0.19188,2.39944 1.39159,3.59915 3.59913,3.59912 l 1.80175,0 0,7.20044 -1.80175,0 c -2.20754,2e-5 -3.40725,1.20046 -3.59913,3.60132 z m 9,3.59912 1.79957,0 c 2.20895,3e-5 3.40939,-1.19968 3.60131,-3.59912 l 0,14.40088 c -0.19192,-2.40086 -1.39236,-3.6013 -3.60131,-3.60132 l -1.79957,0 z"
         style="font-size:72px;stroke:#000000;stroke-opacity:1;fill:none"
         id="path4688" />
      <path
         d="m 694.54687,265.74854 -21.59912,0 c 0.19187,2.39946 1.39157,3.59917 3.59912,3.59912 l -7.20043,28.79956 0,25.20044 7.20043,0 14.40088,-54 c 2.20747,5e-5 3.40718,-1.19966 3.59912,-3.59912 z m -28.79956,32.39868 -7.20044,-28.79956 c 2.2075,5e-5 3.40721,-1.19966 3.59913,-3.59912 l -21.59913,0 c 0.1919,2.39946 1.39161,3.59917 3.59913,3.59912 l 14.40087,54 7.20044,0 z"
         style="font-size:72px;stroke:#000000;stroke-opacity:1;fill:none"
         id="path4690" />
      <path
         d="m 703.125,323.34766 c 0.19189,-2.39942 1.3916,-3.59912 3.59912,-3.59912 l 0,-50.40088 c -2.39941,-0.19184 -3.59912,-1.39155 -3.59912,-3.59912 l 21.59912,0 c -2e-5,2.20757 -1.19973,3.40728 -3.59912,3.59912 l 0,50.40088 c 2.2075,0 3.40721,1.1997 3.59912,3.59912 z"
         style="font-size:72px;stroke:#000000;stroke-opacity:1;fill:none"
         id="path4692" />
      <path
         d="m 751.35937,265.74854 14.40088,0 0,54 c 2.39938,0.19189 3.59909,1.3916 3.59912,3.59912 l -21.59912,0 c -1e-5,-2.20752 1.1997,-3.40723 3.59912,-3.59912 z m 18,0 14.40088,0 0,14.39868 -7.20044,0 c -0.33695,-4.80025 -2.7371,-7.20039 -7.20044,-7.20044 l 0,0 z m -21.59912,0 -14.40088,0 0,14.39868 7.20044,0 c 0.33545,-4.80025 2.73559,-7.20039 7.20044,-7.20044 l 0,0 z"
         style="font-size:72px;stroke:#000000;stroke-opacity:1;fill:none"
         id="path4694" />
      <path
         d="m 821.22144,323.34766 c 0.19186,-2.39942 1.3923,-3.59912 3.60131,-3.59912 l 0,-39.60132 c -3e-5,-4.46333 -1.80032,-6.86348 -5.40088,-7.20044 l 0,-7.19824 9,0 c 2.11227,0.19195 3.91256,0.7918 5.40088,1.79956 3.59908,2.39946 5.39864,6.59917 5.39869,12.59912 l 0,39.60132 c 2.20893,0 3.40937,1.1997 3.60131,3.59912 z m -7.20044,0 c -0.19192,-2.39942 -1.39163,-3.59912 -3.59913,-3.59912 l 0,-39.60132 c -10e-6,-4.46333 1.80028,-6.86348 5.40088,-7.20044 l 0,-7.19824 -9,0 c -2.11231,0.19195 -3.9126,0.7918 -5.40088,1.79956 -3.60059,2.39946 -5.40088,6.59917 -5.40087,12.59912 l 0,39.60132 c -2.20752,0 -3.40723,1.1997 -3.59913,3.59912 z m -3.59913,-36 c 0.19188,2.39944 1.39159,3.59915 3.59913,3.59912 l 1.80175,0 0,7.20044 -1.80175,0 c -2.20754,2e-5 -3.40725,1.20046 -3.59913,3.60132 z m 9,3.59912 1.79957,0 c 2.20895,3e-5 3.40939,-1.19968 3.60131,-3.59912 l 0,14.40088 c -0.19192,-2.40086 -1.39236,-3.6013 -3.60131,-3.60132 l -1.79957,0 z"
         style="font-size:72px;stroke:#000000;stroke-opacity:1;fill:none"
         id="path4696" />
      <path
         d="m 874.88525,290.94678 0,7.20044 c 3.5991,0.33694 5.39866,2.73708 5.39869,7.20044 l 0,3.59912 c -3e-5,4.46485 -1.79959,6.865 -5.39869,7.20044 l 0,7.20044 9,0 c 2.11081,-0.1919 3.91037,-0.79175 5.39869,-1.79956 3.60054,-2.40088 5.40083,-6.60131 5.40087,-12.60132 l 0,-3.59912 c -4e-5,-5.99998 -2.40018,-10.19968 -7.20044,-12.59912 -2.01565,-1.00925 -4.4158,-1.60984 -7.20043,-1.80176 z m -3.60131,-25.19824 0,7.19824 c -3.59914,0.33696 -5.3987,2.73711 -5.39869,7.20044 l 0,3.60132 c -1e-5,4.46341 1.79955,6.86282 5.39869,7.19824 l 0,7.20044 -9,0 c -2.11232,-0.19187 -3.91188,-0.79173 -5.39869,-1.79956 -3.60058,-2.39939 -5.40088,-6.59909 -5.40088,-12.59912 l 0,-3.60132 c 0,-5.99995 2.40015,-10.19966 7.20044,-12.59912 2.01562,-1.00776 4.41576,-1.60761 7.20044,-1.79956 z m 3.60131,0 19.79956,0 0,14.39868 -10.79956,0 c -0.33694,-4.80025 -2.73709,-7.20039 -7.20044,-7.20044 l -1.79956,0 z m -3.60131,57.59912 -19.79957,0 0,-14.40088 10.79957,0 c 0.3369,4.8003 2.73704,7.20044 7.20043,7.20044 l 1.79957,0 z"
         style="font-size:72px;stroke:#000000;stroke-opacity:1;fill:none"
         id="path4698" />
    </g>
    <flowRoot
       xml:space="preserve"
       id="flowRoot3992"
       style="fill:black;stroke:none;stroke-opacity:1;stroke-width:1px;stroke-linejoin:miter;stroke-linecap:butt;fill-opacity:1;font-family:TPF U13;font-style:normal;font-weight:normal;font-size:48px;line-height:125%;letter-spacing:0px;word-spacing:0px;-inkscape-font-specification:TPF U13;font-stretch:normal;font-variant:normal"><flowRegion
         id="flowRegion3994"><rect
           id="rect3996"
           width="879.86328"
           height="221.11748"
           x="59.885983"
           y="389.38519"
           style="font-size:48px" /></flowRegion><flowPara
         id="flowPara3998"></flowPara></flowRoot>    <g
       transform="translate(-27.639684,133.59181)"
       style="font-size:36px;font-style:normal;font-variant:normal;font-weight:normal;font-stretch:normal;line-height:125%;letter-spacing:0px;word-spacing:0px;fill:none;fill-opacity:1;stroke:#000000;font-family:TPF U13;-inkscape-font-specification:TPF U13;stroke-opacity:1"
       id="flowRoot4000">
      <path
         d="m 69.09375,418.39258 c 0.09595,-1.19971 0.6958,-1.79956 1.799561,-1.79956 l 0,-25.20044 c -1.199708,-0.0959 -1.799561,-0.69577 -1.799561,-1.79956 l 10.799561,0 c -1.1e-5,1.10379 -0.599864,1.70364 -1.799561,1.79956 l 0,25.20044 c 1.10375,0 1.703603,0.59985 1.799561,1.79956 z"
         style="stroke:#000000;stroke-opacity:1;fill:none"
         id="path4527" />
      <path
         d="m 84.210937,389.59302 c 0.09595,1.19973 0.695801,1.79959 1.799561,1.79956 l 0,25.20044 c -1.199708,0.0959 -1.799561,0.6958 -1.799561,1.79956 l 10.799561,0 c -1.1e-5,-1.10376 -0.599864,-1.70361 -1.799561,-1.79956 l 0,-27 z m 10.799561,0 10.800662,0 0,7.19934 -5.39978,0 c -0.16848,-2.40012 -1.368548,-3.6002 -3.600223,-3.60022 l -1.800659,0 z m 0,12.59912 c 1.10448,1e-5 1.704699,-0.59984 1.800659,-1.79956 l 3.600223,0 0,7.20044 -3.600223,0 c -0.09596,-1.20043 -0.696179,-1.80065 -1.800659,-1.80066 l 0,0 z"
         style="stroke:#000000;stroke-opacity:1;fill:none"
         id="path4529" />
      <path
         d="m 136.10156,389.59302 c 0.0959,1.19973 0.6958,1.79959 1.79956,1.79956 l 0,25.20044 c -1.1997,0.0959 -1.79956,0.6958 -1.79956,1.79956 l 10.79956,0 c -1e-5,-1.10376 -0.59986,-1.70361 -1.79956,-1.79956 l 0,-27 z m 10.79956,0 10.80066,0 0,7.19934 -5.39978,0 c -0.16847,-2.40012 -1.36854,-3.6002 -3.60022,-3.60022 l -1.80066,0 z m 0,12.59912 c 1.10448,1e-5 1.7047,-0.59984 1.80066,-1.79956 l 3.60022,0 0,7.20044 -3.60022,0 c -0.096,-1.20043 -0.69618,-1.80065 -1.80066,-1.80066 l 0,0 z"
         style="stroke:#000000;stroke-opacity:1;fill:none"
         id="path4531" />
      <path
         d="m 173.74731,389.59302 0,3.59912 c 1.79955,0.16848 2.69933,1.36855 2.69935,3.60022 l 0,14.39978 c -2e-5,2.23243 -0.8998,3.4325 -2.69935,3.60022 l 0,3.60022 4.5,0 c 1.05541,-0.096 1.95519,-0.39588 2.69935,-0.89978 1.80027,-1.20044 2.70041,-3.30066 2.70043,-6.30066 l 0,-14.39978 c -2e-5,-2.99998 -1.20009,-5.09983 -3.60022,-6.29956 -1.00782,-0.50388 -2.2079,-0.80381 -3.60021,-0.89978 z m -1.80065,0 0,3.59912 c -1.79957,0.16848 -2.69935,1.36855 -2.69935,3.60022 l 0,14.39978 c 0,2.23243 0.89978,3.4325 2.69935,3.60022 l 0,3.60022 -4.5,0 c -1.05616,-0.096 -1.95594,-0.39588 -2.69935,-0.89978 -1.80029,-1.20044 -2.70044,-3.30066 -2.70044,-6.30066 l 0,-14.39978 c 0,-2.99998 1.20008,-5.09983 3.60022,-6.29956 1.00781,-0.50388 2.20788,-0.80381 3.60022,-0.89978 z"
         style="stroke:#000000;stroke-opacity:1;fill:none"
         id="path4533" />
      <path
         d="m 202.39197,389.59302 c 0.0959,1.19973 0.69615,1.79959 1.80066,1.79956 l 0,19.79956 c -2e-5,2.23243 -0.90016,3.4325 -2.70044,3.60022 l 0,3.60022 4.5,0 c 1.05613,-0.096 1.95628,-0.39588 2.70044,-0.89978 1.79953,-1.20044 2.69931,-3.30066 2.69934,-6.30066 l 0,-19.79956 c 1.10447,3e-5 1.70468,-0.59983 1.80066,-1.79956 z m -3.60022,0 c -0.096,1.19973 -0.69581,1.79959 -1.79956,1.79956 l 0,19.79956 c -1e-5,2.23243 0.90013,3.4325 2.70044,3.60022 l 0,3.60022 -4.5,0 c -1.05616,-0.096 -1.95631,-0.39588 -2.70044,-0.89978 -1.8003,-1.20044 -2.70044,-3.30066 -2.70044,-6.30066 l 0,-19.79956 c -1.10376,3e-5 -1.70362,-0.59983 -1.79956,-1.79956 z"
         style="stroke:#000000;stroke-opacity:1;fill:none"
         id="path4535" />
      <path
         d="m 217.52344,418.39258 c 0.0959,-1.19971 0.6958,-1.79956 1.79956,-1.79956 l 0,-25.20044 c -1.19971,-0.0959 -1.79956,-0.69577 -1.79956,-1.79956 l 9,0 0,27 c 1.10375,0 1.7036,0.59985 1.79956,1.79956 z m 10.79956,-18 3.60022,3.60022 c 1.10447,1.10377 2.30455,2.9037 3.60022,5.39978 l 0,7.20044 c -1.10378,0 -1.70363,0.59985 -1.79956,1.79956 l 10.79956,0 c -0.096,-1.19971 -0.69583,-1.79956 -1.79956,-1.79956 l 0,-25.20044 c 1.19968,-0.0959 1.79953,-0.69577 1.79956,-1.79956 l -10.79956,0 c -2e-5,1.10379 0.59983,1.70364 1.79956,1.79956 l 0,9 -1.79956,-1.79956 c -1.75197,-1.75193 -2.95204,-4.15208 -3.60022,-7.20044 l -1.80066,0 z"
         style="stroke:#000000;stroke-opacity:1;fill:none"
         id="path4537" />
      <path
         d="m 248.8125,389.59302 c 0.0959,1.19973 0.6958,1.79959 1.79956,1.79956 l 0,25.20044 c -1.19971,0.0959 -1.79956,0.6958 -1.79956,1.79956 l 9,0 0,-28.79956 z m 10.79956,0 0,3.59912 c 2.40013,0.16848 3.60021,1.36855 3.60022,3.60022 l 0,14.39978 c -1e-5,2.23243 -1.20009,3.4325 -3.60022,3.60022 l 0,3.60022 5.40088,0 c 1.0554,-0.096 1.95518,-0.39588 2.69934,-0.89978 1.80027,-1.20044 2.70042,-3.30066 2.70044,-6.30066 l 0,-14.39978 c -2e-5,-2.99998 -1.20009,-5.09983 -3.60022,-6.29956 -1.00783,-0.50388 -2.2079,-0.80381 -3.60022,-0.89978 z"
         style="stroke:#000000;stroke-opacity:1;fill:none"
         id="path4539" />
      <path
         d="m 300.70312,389.59302 c 0.0959,1.19973 0.69581,1.79959 1.79957,1.79956 l 0,25.20044 c -1.19971,0.0959 -1.79957,0.6958 -1.79957,1.79956 l 10.79957,0 c -2e-5,-1.10376 -0.59987,-1.70361 -1.79957,-1.79956 l 0,-27 z m 10.79957,0 0,3.59912 c 2.40013,0.16848 3.6002,1.36855 3.60022,3.60022 l 0,1.80066 c -2e-5,2.2317 -1.20009,3.43141 -3.60022,3.59912 l 0,3.60022 3.60022,0 c 1.39231,-0.12011 2.59239,-0.49218 3.60021,-1.11621 2.40013,-1.51171 3.6002,-4.13963 3.60022,-7.88379 -2e-5,-2.99998 -1.20009,-5.09983 -3.60022,-6.29956 -1.00782,-0.50388 -2.2079,-0.80381 -3.60021,-0.89978 z"
         style="stroke:#000000;stroke-opacity:1;fill:none"
         id="path4541" />
      <path
         d="m 326.64844,418.39258 c 0.0959,-1.19971 0.6958,-1.79956 1.79956,-1.79956 l 0,-25.20044 c -1.19971,-0.0959 -1.79956,-0.69577 -1.79956,-1.79956 l 10.79956,0 c -10e-6,1.10379 -0.59987,1.70364 -1.79956,1.79956 l 0,27 z m 10.79956,0 10.80066,0 0,-7.20044 -5.39978,0 c -0.16848,2.40015 -1.36855,3.60022 -3.60022,3.60022 l -1.80066,0 z"
         style="stroke:#000000;stroke-opacity:1;fill:none"
         id="path4543" />
      <path
         d="m 352.59375,389.59302 c 0.096,1.19973 0.6958,1.79959 1.79956,1.79956 l 0,25.20044 c -1.19971,0.0959 -1.79956,0.6958 -1.79956,1.79956 l 9,0 0,-28.79956 z m 10.79956,0 10.80066,0 0,7.19934 -5.39978,0 c -0.16847,-2.40012 -1.36855,-3.6002 -3.60022,-3.60022 l -1.80066,0 z m 0,12.59912 c 1.10448,1e-5 1.7047,-0.59984 1.80066,-1.79956 l 3.60022,0 0,7.20044 -3.60022,0 c -0.096,-1.20043 -0.69618,-1.80065 -1.80066,-1.80066 l 0,0 z m 0,16.20044 10.80066,0 0,-7.20044 -5.39978,0 c -0.16847,2.40015 -1.36855,3.60022 -3.60022,3.60022 l -1.80066,0 z"
         style="stroke:#000000;stroke-opacity:1;fill:none"
         id="path4545" />
      <path
         d="m 392.93884,418.39258 c 0.0959,-1.19971 0.69615,-1.79956 1.80066,-1.79956 l 0,-19.80066 c -1e-5,-2.23167 -0.90016,-3.43174 -2.70044,-3.60022 l 0,-3.59912 4.5,0 c 1.05614,0.096 1.95628,0.3959 2.70044,0.89978 1.79954,1.19973 2.69932,3.29958 2.69934,6.29956 l 0,19.80066 c 1.10447,0 1.70469,0.59985 1.80066,1.79956 z m -3.60022,0 c -0.096,-1.19971 -0.69581,-1.79956 -1.79956,-1.79956 l 0,-19.80066 c -1e-5,-2.23167 0.90014,-3.43174 2.70044,-3.60022 l 0,-3.59912 -4.5,0 c -1.05616,0.096 -1.9563,0.3959 -2.70044,0.89978 -1.80029,1.19973 -2.70044,3.29958 -2.70044,6.29956 l 0,19.80066 c -1.10376,0 -1.70361,0.59985 -1.79956,1.79956 z m -1.79956,-18 c 0.0959,1.19972 0.69579,1.79957 1.79956,1.79956 l 0.90088,0 0,3.60022 -0.90088,0 c -1.10377,1e-5 -1.70362,0.60023 -1.79956,1.80066 z m 4.5,1.79956 0.89978,0 c 1.10448,1e-5 1.7047,-0.59984 1.80066,-1.79956 l 0,7.20044 c -0.096,-1.20043 -0.69618,-1.80065 -1.80066,-1.80066 l -0.89978,0 z"
         style="stroke:#000000;stroke-opacity:1;fill:none"
         id="path4547" />
      <path
         d="m 419.77075,402.19214 0,3.60022 c 1.79955,0.16847 2.69933,1.36854 2.69934,3.60022 l 0,1.79956 c -1e-5,2.23243 -0.89979,3.4325 -2.69934,3.60022 l 0,3.60022 4.5,0 c 1.0554,-0.096 1.95518,-0.39588 2.69934,-0.89978 1.80028,-1.20044 2.70042,-3.30066 2.70044,-6.30066 l 0,-1.79956 c -2e-5,-2.99999 -1.20009,-5.09984 -3.60022,-6.29956 -1.00783,-0.50463 -2.2079,-0.80492 -3.60022,-0.90088 z m -1.80066,-12.59912 0,3.59912 c -1.79957,0.16848 -2.69935,1.36855 -2.69934,3.60022 l 0,1.80066 c -1e-5,2.2317 0.89977,3.43141 2.69934,3.59912 l 0,3.60022 -4.5,0 c -1.05615,-0.0959 -1.95593,-0.39586 -2.69934,-0.89978 -1.80029,-1.19969 -2.70044,-3.29955 -2.70044,-6.29956 l 0,-1.80066 c 0,-2.99998 1.20007,-5.09983 3.60022,-6.29956 1.00781,-0.50388 2.20788,-0.80381 3.60022,-0.89978 z m 1.80066,0 9.89978,0 0,7.19934 -5.39978,0 c -0.16847,-2.40012 -1.36854,-3.6002 -3.60022,-3.60022 l -0.89978,0 z m -1.80066,28.79956 -9.89978,0 0,-7.20044 5.39978,0 c 0.16845,2.40015 1.36853,3.60022 3.60022,3.60022 l 0.89978,0 z"
         style="stroke:#000000;stroke-opacity:1;fill:none"
         id="path4549" />
      <path
         d="m 434.01562,389.59302 c 0.0959,1.19973 0.69581,1.79959 1.79957,1.79956 l 0,25.20044 c -1.19971,0.0959 -1.79957,0.6958 -1.79957,1.79956 l 9,0 0,-28.79956 z m 10.79957,0 10.80065,0 0,7.19934 -5.39978,0 c -0.16847,-2.40012 -1.36854,-3.6002 -3.60022,-3.60022 l -1.80065,0 z m 0,12.59912 c 1.10448,1e-5 1.70469,-0.59984 1.80065,-1.79956 l 3.60022,0 0,7.20044 -3.60022,0 c -0.096,-1.20043 -0.69617,-1.80065 -1.80065,-1.80066 l 0,0 z m 0,16.20044 10.80065,0 0,-7.20044 -5.39978,0 c -0.16847,2.40015 -1.36854,3.60022 -3.60022,3.60022 l -1.80065,0 z"
         style="stroke:#000000;stroke-opacity:1;fill:none"
         id="path4551" />
      <path
         d="m 495.80603,389.59302 0,3.59912 c -1.79957,0.16848 -2.69935,1.36855 -2.69934,3.60022 l 0,14.39978 c -1e-5,2.23243 0.89977,3.4325 2.69934,3.60022 l 0,3.60022 -4.5,0 c -1.05616,-0.096 -1.95594,-0.39588 -2.69934,-0.89978 -1.80029,-1.20044 -2.70044,-3.30066 -2.70044,-6.30066 l 0,-14.39978 c 0,-2.99998 1.20007,-5.09983 3.60022,-6.29956 1.00781,-0.50388 2.20788,-0.80381 3.60022,-0.89978 z m 1.80066,3.59912 c 1.79955,0.16848 2.69933,1.36855 2.69934,3.60022 l 0,1.80066 7.20044,0 0,-1.80066 c -2e-5,-2.99998 -1.20009,-5.09983 -3.60022,-6.29956 -1.00783,-0.50388 -2.2079,-0.80381 -3.60022,-0.89978 l -2.69934,0 z m 0,21.60022 c 1.79955,-0.16772 2.69933,-1.36779 2.69934,-3.60022 l 0,-1.79956 7.20044,0 0,1.79956 c -2e-5,3 -1.20009,5.10022 -3.60022,6.30066 -1.00783,0.5039 -2.2079,0.80383 -3.60022,0.89978 l -2.69934,0 z"
         style="stroke:#000000;stroke-opacity:1;fill:none"
         id="path4553" />
      <path
         d="m 523.552,389.59302 0,3.59912 c 1.79955,0.16848 2.69933,1.36855 2.69934,3.60022 l 0,14.39978 c -10e-6,2.23243 -0.89979,3.4325 -2.69934,3.60022 l 0,3.60022 4.5,0 c 1.0554,-0.096 1.95518,-0.39588 2.69934,-0.89978 1.80028,-1.20044 2.70042,-3.30066 2.70044,-6.30066 l 0,-14.39978 c -2e-5,-2.99998 -1.20009,-5.09983 -3.60022,-6.29956 -1.00783,-0.50388 -2.2079,-0.80381 -3.60022,-0.89978 z m -1.80066,0 0,3.59912 c -1.79957,0.16848 -2.69935,1.36855 -2.69934,3.60022 l 0,14.39978 c -10e-6,2.23243 0.89977,3.4325 2.69934,3.60022 l 0,3.60022 -4.5,0 c -1.05615,-0.096 -1.95593,-0.39588 -2.69934,-0.89978 -1.80029,-1.20044 -2.70044,-3.30066 -2.70044,-6.30066 l 0,-14.39978 c 0,-2.99998 1.20007,-5.09983 3.60022,-6.29956 1.00781,-0.50388 2.20788,-0.80381 3.60022,-0.89978 z"
         style="stroke:#000000;stroke-opacity:1;fill:none"
         id="path4555" />
      <path
         d="m 537.79687,418.39258 c 0.096,-1.19971 0.69581,-1.79956 1.79957,-1.79956 l 0,-25.20044 c -1.19971,-0.0959 -1.79957,-0.69577 -1.79957,-1.79956 l 9,0 0,27 c 1.10375,0 1.70361,0.59985 1.79957,1.79956 z m 10.79957,-18 3.60022,3.60022 c 1.10447,1.10377 2.30454,2.9037 3.60021,5.39978 l 0,7.20044 c -1.10377,0 -1.70362,0.59985 -1.79956,1.79956 l 10.79956,0 c -0.096,-1.19971 -0.69582,-1.79956 -1.79956,-1.79956 l 0,-25.20044 c 1.19969,-0.0959 1.79954,-0.69577 1.79956,-1.79956 l -10.79956,0 c -10e-6,1.10379 0.59984,1.70364 1.79956,1.79956 l 0,9 -1.79956,-1.79956 c -1.75196,-1.75193 -2.95204,-4.15208 -3.60022,-7.20044 l -1.80065,0 z"
         style="stroke:#000000;stroke-opacity:1;fill:none"
         id="path4557" />
      <path
         d="m 578.08594,389.59302 7.20044,0 0,27 c 1.19969,0.0959 1.79954,0.6958 1.79956,1.79956 l -10.79956,0 c -10e-6,-1.10376 0.59984,-1.70361 1.79956,-1.79956 z m 9,0 7.20044,0 0,7.19934 -3.60022,0 c -0.16848,-2.40012 -1.36855,-3.6002 -3.60022,-3.60022 l 0,0 z m -10.79956,0 -7.20044,0 0,7.19934 3.60022,0 c 0.16772,-2.40012 1.36779,-3.6002 3.60022,-3.60022 l 0,0 z"
         style="stroke:#000000;stroke-opacity:1;fill:none"
         id="path4559" />
      <path
         d="m 613.01697,418.39258 c 0.0959,-1.19971 0.69615,-1.79956 1.80066,-1.79956 l 0,-19.80066 c -2e-5,-2.23167 -0.90016,-3.43174 -2.70044,-3.60022 l 0,-3.59912 4.5,0 c 1.05613,0.096 1.95628,0.3959 2.70044,0.89978 1.79953,1.19973 2.69931,3.29958 2.69934,6.29956 l 0,19.80066 c 1.10447,0 1.70468,0.59985 1.80066,1.79956 z m -3.60022,0 c -0.096,-1.19971 -0.69581,-1.79956 -1.79956,-1.79956 l 0,-19.80066 c -1e-5,-2.23167 0.90013,-3.43174 2.70044,-3.60022 l 0,-3.59912 -4.5,0 c -1.05616,0.096 -1.95631,0.3959 -2.70044,0.89978 -1.8003,1.19973 -2.70044,3.29958 -2.70044,6.29956 l 0,19.80066 c -1.10376,0 -1.70362,0.59985 -1.79956,1.79956 z m -1.79956,-18 c 0.0959,1.19972 0.69579,1.79957 1.79956,1.79956 l 0.90088,0 0,3.60022 -0.90088,0 c -1.10377,1e-5 -1.70362,0.60023 -1.79956,1.80066 z m 4.5,1.79956 0.89978,0 c 1.10447,1e-5 1.70469,-0.59984 1.80066,-1.79956 l 0,7.20044 c -0.096,-1.20043 -0.69619,-1.80065 -1.80066,-1.80066 l -0.89978,0 z"
         style="stroke:#000000;stroke-opacity:1;fill:none"
         id="path4561" />
      <path
         d="m 638.04822,389.59302 0,3.59912 c -1.79957,0.16848 -2.69935,1.36855 -2.69934,3.60022 l 0,14.39978 c -10e-6,2.23243 0.89977,3.4325 2.69934,3.60022 l 0,3.60022 -4.5,0 c -1.05616,-0.096 -1.95594,-0.39588 -2.69934,-0.89978 -1.8003,-1.20044 -2.70044,-3.30066 -2.70044,-6.30066 l 0,-14.39978 c 0,-2.99998 1.20007,-5.09983 3.60022,-6.29956 1.00781,-0.50388 2.20788,-0.80381 3.60022,-0.89978 z m 1.80066,3.59912 c 1.79954,0.16848 2.69932,1.36855 2.69934,3.60022 l 0,1.80066 7.20044,0 0,-1.80066 c -2e-5,-2.99998 -1.2001,-5.09983 -3.60022,-6.29956 -1.00783,-0.50388 -2.2079,-0.80381 -3.60022,-0.89978 l -2.69934,0 z m 0,21.60022 c 1.79954,-0.16772 2.69932,-1.36779 2.69934,-3.60022 l 0,-1.79956 7.20044,0 0,1.79956 c -2e-5,3 -1.2001,5.10022 -3.60022,6.30066 -1.00783,0.5039 -2.2079,0.80383 -3.60022,0.89978 l -2.69934,0 z"
         style="stroke:#000000;stroke-opacity:1;fill:none"
         id="path4563" />
      <path
         d="m 663.09375,389.59302 7.20044,0 0,27 c 1.19969,0.0959 1.79954,0.6958 1.79956,1.79956 l -10.79956,0 c -10e-6,-1.10376 0.59985,-1.70361 1.79956,-1.79956 z m 9,0 7.20044,0 0,7.19934 -3.60022,0 c -0.16848,-2.40012 -1.36855,-3.6002 -3.60022,-3.60022 l 0,0 z m -10.79956,0 -7.20044,0 0,7.19934 3.60022,0 c 0.16772,-2.40012 1.36779,-3.6002 3.60022,-3.60022 l 0,0 z"
         style="stroke:#000000;stroke-opacity:1;fill:none"
         id="path4565" />
      <path
         d="m 69.09375,434.59302 c 0.09595,1.19973 0.6958,1.79959 1.799561,1.79956 l 0,25.20044 c -1.199708,0.0959 -1.799561,0.6958 -1.799561,1.79956 l 10.799561,0 c -1.1e-5,-1.10376 -0.599864,-1.70361 -1.799561,-1.79956 l 0,-27 z m 10.799561,0 0,3.59912 c 2.400133,0.16848 3.600205,1.36855 3.600219,3.60022 l 0,1.80066 c -1.4e-5,2.2317 -1.200086,3.43141 -3.600219,3.59912 l 0,3.60022 3.600219,0 c 1.392318,-0.12011 2.592391,-0.49218 3.60022,-1.11621 2.400126,-1.51171 3.600198,-4.13963 3.60022,-7.88379 -2.2e-5,-2.99998 -1.200094,-5.09983 -3.60022,-6.29956 -1.007829,-0.50388 -2.207902,-0.80381 -3.60022,-0.89978 z"
         style="stroke:#000000;stroke-opacity:1;fill:none"
         id="path4567" />
      <path
         d="m 95.039062,463.39258 c 0.09595,-1.19971 0.695801,-1.79956 1.799561,-1.79956 l 0,-25.20044 c -1.199708,-0.0959 -1.799561,-0.69577 -1.799561,-1.79956 l 10.799558,0 c -1e-5,1.10379 -0.59986,1.70364 -1.79956,1.79956 l 0,25.20044 c 1.10375,0 1.70361,0.59985 1.79956,1.79956 z"
         style="stroke:#000000;stroke-opacity:1;fill:none"
         id="path4569" />
      <path
         d="m 110.15625,434.59302 c 0.096,1.19973 0.6958,1.79959 1.79956,1.79956 l 0,25.20044 c -1.19971,0.0959 -1.79956,0.6958 -1.79956,1.79956 l 9,0 0,-28.79956 z m 10.79956,0 10.80066,0 0,7.19934 -5.39978,0 c -0.16847,-2.40012 -1.36855,-3.6002 -3.60022,-3.60022 l -1.80066,0 z m 0,12.59912 c 1.10448,1e-5 1.7047,-0.59984 1.80066,-1.79956 l 3.60022,0 0,7.20044 -3.60022,0 c -0.096,-1.20043 -0.69618,-1.80065 -1.80066,-1.80066 l 0,0 z m 0,16.20044 10.80066,0 0,-7.20044 -5.39978,0 c -0.16847,2.40015 -1.36855,3.60022 -3.60022,3.60022 l -1.80066,0 z"
         style="stroke:#000000;stroke-opacity:1;fill:none"
         id="path4571" />
      <path
         d="m 136.10156,434.59302 c 0.0959,1.19973 0.6958,1.79959 1.79956,1.79956 l 0,25.20044 c -1.1997,0.0959 -1.79956,0.6958 -1.79956,1.79956 l 10.79956,0 c -1e-5,-1.10376 -0.59986,-1.70361 -1.79956,-1.79956 l 0,-27 z m 10.79956,0 0,3.59912 c 2.40014,0.16848 3.60021,1.36855 3.60022,3.60022 l 0,1.80066 c -1e-5,2.2317 -1.20008,3.43141 -3.60022,3.59912 l 0,3.60022 c 2.40014,0.16847 3.60021,1.36854 3.60022,3.60022 l 0,5.39978 c -1e-5,2.23242 0.60021,3.43249 1.80066,3.60022 l 7.19934,0 0,-1.79956 c -1.19973,-0.096 -1.79958,-0.69617 -1.79956,-1.80066 l 0,-3.60022 c -2e-5,-2.99999 -0.90016,-5.09984 -2.70044,-6.29956 -0.74416,-0.50389 -1.64394,-0.80382 -2.69934,-0.89978 1.0554,-0.0959 1.95518,-0.39586 2.69934,-0.89978 1.80028,-1.20043 2.70042,-3.30064 2.70044,-6.30066 -2e-5,-2.99998 -1.20009,-5.09983 -3.60022,-6.29956 -1.00783,-0.50388 -2.2079,-0.80381 -3.60022,-0.89978 z"
         style="stroke:#000000;stroke-opacity:1;fill:none"
         id="path4573" />
      <path
         d="m 173.70447,434.59302 0,3.59912 c -1.79957,0.16848 -2.69935,1.36855 -2.69934,3.60022 l 0,14.39978 c -1e-5,2.23243 0.89977,3.4325 2.69934,3.60022 l 0,3.60022 -4.5,0 c -1.05616,-0.096 -1.95594,-0.39588 -2.69934,-0.89978 -1.8003,-1.20044 -2.70044,-3.30066 -2.70044,-6.30066 l 0,-14.39978 c 0,-2.99998 1.20007,-5.09983 3.60022,-6.29956 1.00781,-0.50388 2.20788,-0.80381 3.60022,-0.89978 z m 1.80066,3.59912 c 1.79954,0.16848 2.69932,1.36855 2.69934,3.60022 l 0,1.80066 7.20044,0 0,-1.80066 c -2e-5,-2.99998 -1.2001,-5.09983 -3.60022,-6.29956 -1.00783,-0.50388 -2.2079,-0.80381 -3.60022,-0.89978 l -2.69934,0 z m 0,21.60022 c 1.79954,-0.16772 2.69932,-1.36779 2.69934,-3.60022 l 0,-1.79956 7.20044,0 0,1.79956 c -2e-5,3 -1.2001,5.10022 -3.60022,6.30066 -1.00783,0.5039 -2.2079,0.80383 -3.60022,0.89978 l -2.69934,0 z"
         style="stroke:#000000;stroke-opacity:1;fill:none"
         id="path4575" />
      <path
         d="m 189.75,434.59302 c 0.0959,1.19973 0.6958,1.79959 1.79956,1.79956 l 0,25.20044 c -1.19971,0.0959 -1.79956,0.6958 -1.79956,1.79956 l 9,0 0,-28.79956 z m 10.79956,0 10.80066,0 0,7.19934 -5.39978,0 c -0.16847,-2.40012 -1.36855,-3.6002 -3.60022,-3.60022 l -1.80066,0 z m 0,12.59912 c 1.10448,1e-5 1.7047,-0.59984 1.80066,-1.79956 l 3.60022,0 0,7.20044 -3.60022,0 c -0.096,-1.20043 -0.69618,-1.80065 -1.80066,-1.80066 l 0,0 z m 0,16.20044 10.80066,0 0,-7.20044 -5.39978,0 c -0.16847,2.40015 -1.36855,3.60022 -3.60022,3.60022 l -1.80066,0 z"
         style="stroke:#000000;stroke-opacity:1;fill:none"
         id="path4577" />
      <path
         d="m 241.64062,463.39258 c 0.0959,-1.19971 0.69581,-1.79956 1.79957,-1.79956 l 0,-25.20044 c -1.19971,-0.0959 -1.79957,-0.69577 -1.79957,-1.79956 l 9,0 0,27 c 1.10375,0 1.70361,0.59985 1.79957,1.79956 z m 10.79957,-18 3.60022,3.60022 c 1.10447,1.10377 2.30454,2.9037 3.60021,5.39978 l 0,7.20044 c -1.10377,0 -1.70362,0.59985 -1.79956,1.79956 l 10.79956,0 c -0.096,-1.19971 -0.69582,-1.79956 -1.79956,-1.79956 l 0,-25.20044 c 1.19969,-0.0959 1.79954,-0.69577 1.79956,-1.79956 l -10.79956,0 c -1e-5,1.10379 0.59984,1.70364 1.79956,1.79956 l 0,9 -1.79956,-1.79956 c -1.75196,-1.75193 -2.95204,-4.15208 -3.60022,-7.20044 l -1.80065,0 z"
         style="stroke:#000000;stroke-opacity:1;fill:none"
         id="path4579" />
      <path
         d="m 272.92969,463.39258 c 0.0959,-1.19971 0.6958,-1.79956 1.79956,-1.79956 l 0,-25.20044 c -1.19971,-0.0959 -1.79956,-0.69577 -1.79956,-1.79956 l 10.79956,0 c -10e-6,1.10379 -0.59987,1.70364 -1.79956,1.79956 l 0,25.20044 c 1.10375,0 1.7036,0.59985 1.79956,1.79956 z"
         style="stroke:#000000;stroke-opacity:1;fill:none"
         id="path4581" />
      <path
         d="m 297.94666,434.59302 0,3.59912 c -1.79957,0.16848 -2.69935,1.36855 -2.69935,3.60022 l 0,14.39978 c 0,2.23243 0.89978,3.4325 2.69935,3.60022 l 0,3.60022 -4.5,0 c -1.05616,-0.096 -1.95594,-0.39588 -2.69935,-0.89978 -1.80029,-1.20044 -2.70044,-3.30066 -2.70044,-6.30066 l 0,-14.39978 c 0,-2.99998 1.20008,-5.09983 3.60022,-6.29956 1.00781,-0.50388 2.20788,-0.80381 3.60022,-0.89978 z m 1.80065,3.59912 c 1.79955,0.16848 2.69933,1.36855 2.69935,3.60022 l 0,1.80066 7.20043,0 0,-1.80066 c -2e-5,-2.99998 -1.20009,-5.09983 -3.60022,-6.29956 -1.00782,-0.50388 -2.2079,-0.80381 -3.60021,-0.89978 l -2.69935,0 z m 0,21.60022 c 1.79955,-0.16772 2.69933,-1.36779 2.69935,-3.60022 l 0,-1.79956 7.20043,0 0,1.79956 c -2e-5,3 -1.20009,5.10022 -3.60022,6.30066 -1.00782,0.5039 -2.2079,0.80383 -3.60021,0.89978 l -2.69935,0 z"
         style="stroke:#000000;stroke-opacity:1;fill:none"
         id="path4583" />
      <path
         d="m 313.99219,463.39258 c 0.0959,-1.19971 0.6958,-1.79956 1.79956,-1.79956 l 0,-25.20044 c -1.19971,-0.0959 -1.79956,-0.69577 -1.79956,-1.79956 l 10.79956,0 c -10e-6,1.10379 -0.59987,1.70364 -1.79956,1.79956 l 0,25.20044 c 1.10375,0 1.7036,0.59985 1.79956,1.79956 z m 16.20044,0 c 0.0959,-1.19971 0.69578,-1.79956 1.79956,-1.79956 l 0,-9 c -2e-5,-1.10448 -0.59987,-1.7047 -1.79956,-1.80066 l -5.40088,0 0,-3.60022 5.40088,0 c 1.19969,-0.0959 1.79954,-0.69579 1.79956,-1.79956 l 0,-9 c -1.19973,-0.0959 -1.79958,-0.69577 -1.79956,-1.79956 l 10.79956,0 c -3e-5,1.10379 -0.59988,1.70364 -1.79956,1.79956 l 0,25.20044 c 1.10373,0 1.70358,0.59985 1.79956,1.79956 z"
         style="stroke:#000000;stroke-opacity:1;fill:none"
         id="path4585" />
      <path
         d="m 356.98169,434.59302 0,3.59912 c 1.79955,0.16848 2.69933,1.36855 2.69934,3.60022 l 0,14.39978 c -1e-5,2.23243 -0.89979,3.4325 -2.69934,3.60022 l 0,3.60022 4.5,0 c 1.0554,-0.096 1.95518,-0.39588 2.69934,-0.89978 1.80027,-1.20044 2.70042,-3.30066 2.70044,-6.30066 l 0,-14.39978 c -2e-5,-2.99998 -1.20009,-5.09983 -3.60022,-6.29956 -1.00783,-0.50388 -2.2079,-0.80381 -3.60022,-0.89978 z m -1.80066,0 0,3.59912 c -1.79957,0.16848 -2.69935,1.36855 -2.69934,3.60022 l 0,14.39978 c -1e-5,2.23243 0.89977,3.4325 2.69934,3.60022 l 0,3.60022 -4.5,0 c -1.05616,-0.096 -1.95594,-0.39588 -2.69934,-0.89978 -1.80029,-1.20044 -2.70044,-3.30066 -2.70044,-6.30066 l 0,-14.39978 c 0,-2.99998 1.20007,-5.09983 3.60022,-6.29956 1.00781,-0.50388 2.20788,-0.80381 3.60022,-0.89978 z"
         style="stroke:#000000;stroke-opacity:1;fill:none"
         id="path4587" />
      <path
         d="m 371.22656,463.39258 c 0.096,-1.19971 0.6958,-1.79956 1.79956,-1.79956 l 0,-25.20044 c -1.1997,-0.0959 -1.79956,-0.69577 -1.79956,-1.79956 l 10.79956,0 c -10e-6,1.10379 -0.59986,1.70364 -1.79956,1.79956 l 0,27 z m 10.79956,0 10.80066,0 0,-7.20044 -5.39978,0 c -0.16847,2.40015 -1.36854,3.60022 -3.60022,3.60022 l -1.80066,0 z"
         style="stroke:#000000;stroke-opacity:1;fill:none"
         id="path4589" />
      <path
         d="m 408.87231,447.19214 0,3.60022 c 1.79955,0.16847 2.69933,1.36854 2.69935,3.60022 l 0,1.79956 c -2e-5,2.23243 -0.8998,3.4325 -2.69935,3.60022 l 0,3.60022 4.5,0 c 1.05541,-0.096 1.95519,-0.39588 2.69935,-0.89978 1.80027,-1.20044 2.70041,-3.30066 2.70043,-6.30066 l 0,-1.79956 c -2e-5,-2.99999 -1.20009,-5.09984 -3.60022,-6.29956 -1.00782,-0.50463 -2.2079,-0.80492 -3.60021,-0.90088 z m -1.80065,-12.59912 0,3.59912 c -1.79957,0.16848 -2.69935,1.36855 -2.69935,3.60022 l 0,1.80066 c 0,2.2317 0.89978,3.43141 2.69935,3.59912 l 0,3.60022 -4.5,0 c -1.05616,-0.0959 -1.95594,-0.39586 -2.69935,-0.89978 -1.80029,-1.19969 -2.70044,-3.29955 -2.70044,-6.29956 l 0,-1.80066 c 0,-2.99998 1.20008,-5.09983 3.60022,-6.29956 1.00781,-0.50388 2.20788,-0.80381 3.60022,-0.89978 z m 1.80065,0 9.89978,0 0,7.19934 -5.39978,0 c -0.16847,-2.40012 -1.36854,-3.6002 -3.60022,-3.60022 l -0.89978,0 z m -1.80065,28.79956 -9.89979,0 0,-7.20044 5.39979,0 c 0.16845,2.40015 1.36852,3.60022 3.60021,3.60022 l 0.89979,0 z"
         style="stroke:#000000;stroke-opacity:1;fill:none"
         id="path4591" />
      <path
         d="m 79.893311,479.59302 0,5.39978 c -2.399423,0.16775 -3.599129,1.36782 -3.599122,3.60022 l 0,10.79956 c -7e-6,2.23169 1.199699,3.43177 3.599122,3.60022 l 0,5.39978 -5.399781,0 c -1.056156,-0.096 -1.955936,-0.39588 -2.699341,-0.89978 -1.800293,-1.20044 -2.700439,-3.30066 -2.700439,-6.30066 l 0,-14.39978 c 0,-2.99998 1.200072,-5.09983 3.60022,-6.29956 1.007808,-0.50388 2.20788,-0.80381 3.600219,-0.89978 z m 0,23.39978 7.200439,0 0,5.39978 -7.200439,0 z m 0,-23.39978 7.200439,0 0,5.39978 -7.200439,0 z"
         style="stroke:#000000;stroke-opacity:1;fill:none"
         id="path4593" />
      <path
         d="m 103.08325,508.39258 0,-3.60022 c 1.79955,-0.16772 2.69933,-1.36779 2.69934,-3.60022 l 0,-1.79956 c -1e-5,-2.23168 -0.89979,-3.43175 -2.69934,-3.60022 l 0,-3.60022 c 1.79955,-0.16771 2.69933,-1.36742 2.69934,-3.59912 l 0,-1.80066 c -1e-5,-2.23167 -0.89979,-3.43174 -2.69934,-3.60022 l 0,-3.59912 4.5,0 c 1.0554,0.096 1.95518,0.3959 2.69934,0.89978 1.80028,1.19973 2.70042,3.29958 2.70044,6.29956 l 0,7.20044 0,7.19934 c -2e-5,3 -1.20009,5.10022 -3.60022,6.30066 -1.00783,0.5039 -2.2079,0.80383 -3.60022,0.89978 z m -1.80066,0 -8.999997,0 0,-7.20044 5.39978,0 c 0.168451,2.40015 1.368523,3.60022 3.600217,3.60022 l 0,0 z m 0,-12.60022 0,-3.60022 c -1.799566,-0.16771 -2.699345,-1.36742 -2.699338,-3.59912 l 0,-1.80066 c -7e-6,-2.23167 0.899772,-3.43174 2.699338,-3.60022 l 0,-3.59912 -4.499997,0 c -1.056157,0.096 -1.955936,0.3959 -2.699341,0.89978 -1.800294,1.19973 -2.70044,3.29958 -2.70044,6.29956 l 0,1.80066 c 0,3.00001 1.200073,5.09987 3.60022,6.29956 1.007808,0.50392 2.20788,0.80384 3.60022,0.89978 z"
         style="stroke:#000000;stroke-opacity:1;fill:none"
         id="path4595" />
      <path
         d="m 127.22791,492.19214 0,3.60022 c -1.79957,0.16847 -2.69935,1.36854 -2.69935,3.60022 l 0,1.79956 c 0,2.23243 0.89978,3.4325 2.69935,3.60022 l 0,3.60022 -9.89978,0 0,-7.20044 0,-9 z m 1.80065,-12.59912 0,3.59912 c 1.79955,0.16848 2.69933,1.36855 2.69935,3.60022 l 0,1.80066 c -2e-5,2.2317 -0.8998,3.43141 -2.69935,3.59912 l 0,3.60022 4.5,0 c 1.05541,-0.0959 1.95519,-0.39586 2.69935,-0.89978 1.80027,-1.19969 2.70041,-3.29955 2.70043,-6.29956 l 0,-1.80066 c -2e-5,-2.99998 -1.20009,-5.09983 -3.60022,-6.29956 -1.00782,-0.50388 -2.2079,-0.80381 -3.60021,-0.89978 z m -1.80065,0 -9.89978,0 0,7.19934 5.39978,0 c 0.16845,-2.40012 1.36852,-3.6002 3.60022,-3.60022 l 0.89978,0 z m 1.80065,28.79956 9.89978,0 0,-7.20044 -5.39978,0 c -0.16847,2.40015 -1.36854,3.60022 -3.60022,3.60022 l -0.89978,0 z"
         style="stroke:#000000;stroke-opacity:1;fill:none"
         id="path4597" />
      <path
         d="m 153.17322,495.79236 0,-3.60022 -2.69934,0 0,-9 2.69934,0 0,-3.59912 -9.89978,0 0,7.19934 0,9 z m 1.80066,12.60022 0,-3.60022 c 1.79954,-0.16772 2.69932,-1.36779 2.69934,-3.60022 l 0,-1.79956 c -2e-5,-2.23168 -0.8998,-3.43175 -2.69934,-3.60022 l 0,-3.60022 4.5,0 c 1.0554,0.096 1.95518,0.39625 2.69934,0.90088 1.80027,1.19972 2.70042,3.29957 2.70044,6.29956 l 0,1.79956 c -2e-5,3 -1.2001,5.10022 -3.60022,6.30066 -1.00783,0.5039 -2.2079,0.80383 -3.60022,0.89978 z m -1.80066,0 -9.89978,0 0,-7.20044 5.39978,0 c 0.16845,2.40015 1.36852,3.60022 3.60022,3.60022 l 0.89978,0 z m 1.80066,-28.79956 9,0 0,7.19934 -5.40088,0 c -0.16774,-2.40012 -1.36745,-3.6002 -3.59912,-3.60022 l 0,0 z"
         style="stroke:#000000;stroke-opacity:1;fill:none"
         id="path4599" />
      <path
         d="m 176.41919,479.59302 0,5.39978 c 2.3994,0.16775 3.59911,1.36782 3.59912,3.60022 l 0,10.79956 c -1e-5,2.23169 -1.19972,3.43177 -3.59912,3.60022 l 0,5.39978 5.39978,0 c 1.05614,-0.096 1.95592,-0.39588 2.69934,-0.89978 1.80028,-1.20044 2.70042,-3.30066 2.70044,-6.30066 l 0,-14.39978 c -2e-5,-2.99998 -1.20009,-5.09983 -3.60022,-6.29956 -1.00783,-0.50388 -2.2079,-0.80381 -3.60022,-0.89978 z m 0,23.39978 -7.20044,0 0,5.39978 7.20044,0 z m 0,-23.39978 -7.20044,0 0,5.39978 7.20044,0 z"
         style="stroke:#000000;stroke-opacity:1;fill:none"
         id="path4601" />
      <path
         d="m 227.35291,492.19214 0,3.60022 c -1.79957,0.16847 -2.69935,1.36854 -2.69935,3.60022 l 0,1.79956 c 0,2.23243 0.89978,3.4325 2.69935,3.60022 l 0,3.60022 -9.89979,0 0,-7.20044 0,-9 z m 1.80065,-12.59912 0,3.59912 c 1.79955,0.16848 2.69933,1.36855 2.69935,3.60022 l 0,1.80066 c -2e-5,2.2317 -0.8998,3.43141 -2.69935,3.59912 l 0,3.60022 4.5,0 c 1.05541,-0.0959 1.95519,-0.39586 2.69935,-0.89978 1.80027,-1.19969 2.70041,-3.29955 2.70043,-6.29956 l 0,-1.80066 c -2e-5,-2.99998 -1.20009,-5.09983 -3.60022,-6.29956 -1.00782,-0.50388 -2.2079,-0.80381 -3.60021,-0.89978 z m -1.80065,0 -9.89979,0 0,7.19934 5.39979,0 c 0.16845,-2.40012 1.36852,-3.6002 3.60021,-3.60022 l 0.89979,0 z m 1.80065,28.79956 9.89978,0 0,-7.20044 -5.39978,0 c -0.16847,2.40015 -1.36854,3.60022 -3.60022,3.60022 l -0.89978,0 z"
         style="stroke:#000000;stroke-opacity:1;fill:none"
         id="path4603" />
      <path
         d="m 243.39844,508.39258 c 0.0959,-1.19971 0.6958,-1.79956 1.79956,-1.79956 l 0,-23.40088 c -1.19971,-0.0959 -1.79956,-0.69578 -1.79956,-1.79956 l 9,-1.79956 0,27 c 1.10375,0 1.7036,0.59985 1.79956,1.79956 z"
         style="stroke:#000000;stroke-opacity:1;fill:none"
         id="path4605" />
      <path
         d="m 268.41541,479.59302 0,3.59912 c -1.79957,0.16848 -2.69935,1.36855 -2.69935,3.60022 l 0,1.80066 c 0,2.2317 0.89978,3.43141 2.69935,3.59912 l 0,3.60022 c -1.79957,0.16847 -2.69935,1.36854 -2.69935,3.60022 l 0,1.79956 c 0,2.23243 0.89978,3.4325 2.69935,3.60022 l 0,3.60022 -4.5,0 c -1.05616,-0.096 -1.95594,-0.39588 -2.69935,-0.89978 -1.80029,-1.20044 -2.70044,-3.30066 -2.70044,-6.30066 l 0,-7.19934 0,-7.20044 c 0,-2.99998 1.20008,-5.09983 3.60022,-6.29956 1.00781,-0.50388 2.20788,-0.80381 3.60022,-0.89978 z m 1.80065,0 9,0 0,7.19934 -5.40087,0 c -0.16774,-2.40012 -1.36745,-3.6002 -3.59913,-3.60022 l 0,0 z m 0,12.59912 0,3.60022 c 1.79955,0.16847 2.69933,1.36854 2.69935,3.60022 l 0,1.79956 c -2e-5,2.23243 -0.8998,3.4325 -2.69935,3.60022 l 0,3.60022 4.5,0 c 1.05541,-0.096 1.95519,-0.39588 2.69935,-0.89978 1.80027,-1.20044 2.70041,-3.30066 2.70043,-6.30066 l 0,-1.79956 c -2e-5,-2.99999 -1.20009,-5.09984 -3.60022,-6.29956 -1.00782,-0.50463 -2.2079,-0.80492 -3.60021,-0.90088 z"
         style="stroke:#000000;stroke-opacity:1;fill:none"
         id="path4607" />
      <path
         d="m 310.40625,508.39258 c 0.096,-1.19971 0.6958,-1.79956 1.79956,-1.79956 l 0,-23.40088 c -1.19971,-0.0959 -1.79956,-0.69578 -1.79956,-1.79956 l 9,-1.79956 0,27 c 1.10375,0 1.7036,0.59985 1.79956,1.79956 z"
         style="stroke:#000000;stroke-opacity:1;fill:none"
         id="path4609" />
      <path
         d="m 347.12366,479.59302 0,3.59912 -9,19.80066 0,5.39978 -7.20044,0 0,-5.39978 9,-19.80066 0,-3.59912 z m -9,0 -12.60022,0 0,7.19934 5.39978,0 c 0.16845,-2.40012 1.36852,-3.6002 3.60022,-3.60022 l 3.60022,0 z"
         style="stroke:#000000;stroke-opacity:1;fill:none"
         id="path4611" />
      <path
         d="m 363.16919,508.39258 0,-3.60022 c 1.79955,-0.16772 2.69933,-1.36779 2.69934,-3.60022 l 0,-1.79956 c -1e-5,-2.23168 -0.89979,-3.43175 -2.69934,-3.60022 l 0,-3.60022 c 1.79955,-0.16771 2.69933,-1.36742 2.69934,-3.59912 l 0,-1.80066 c -1e-5,-2.23167 -0.89979,-3.43174 -2.69934,-3.60022 l 0,-3.59912 4.5,0 c 1.0554,0.096 1.95518,0.3959 2.69934,0.89978 1.80027,1.19973 2.70042,3.29958 2.70044,6.29956 l 0,7.20044 0,7.19934 c -2e-5,3 -1.20009,5.10022 -3.60022,6.30066 -1.00783,0.5039 -2.2079,0.80383 -3.60022,0.89978 z m -1.80066,0 -9,0 0,-7.20044 5.39978,0 c 0.16845,2.40015 1.36852,3.60022 3.60022,3.60022 l 0,0 z m 0,-12.60022 0,-3.60022 c -1.79957,-0.16771 -2.69935,-1.36742 -2.69934,-3.59912 l 0,-1.80066 c -1e-5,-2.23167 0.89977,-3.43174 2.69934,-3.60022 l 0,-3.59912 -4.5,0 c -1.05616,0.096 -1.95594,0.3959 -2.69934,0.89978 -1.80029,1.19973 -2.70044,3.29958 -2.70044,6.29956 l 0,1.80066 c 0,3.00001 1.20007,5.09987 3.60022,6.29956 1.00781,0.50392 2.20788,0.80384 3.60022,0.89978 z"
         style="stroke:#000000;stroke-opacity:1;fill:none"
         id="path4613" />
      <path
         d="m 387.31384,495.79236 0,-3.60022 -2.69934,0 0,-9 2.69934,0 0,-3.59912 -9.89978,0 0,7.19934 0,9 z m 1.80066,12.60022 0,-3.60022 c 1.79955,-0.16772 2.69933,-1.36779 2.69934,-3.60022 l 0,-1.79956 c -1e-5,-2.23168 -0.89979,-3.43175 -2.69934,-3.60022 l 0,-3.60022 4.5,0 c 1.0554,0.096 1.95518,0.39625 2.69934,0.90088 1.80028,1.19972 2.70042,3.29957 2.70044,6.29956 l 0,1.79956 c -2e-5,3 -1.20009,5.10022 -3.60022,6.30066 -1.00783,0.5039 -2.2079,0.80383 -3.60022,0.89978 z m -1.80066,0 -9.89978,0 0,-7.20044 5.39978,0 c 0.16845,2.40015 1.36853,3.60022 3.60022,3.60022 l 0.89978,0 z m 1.80066,-28.79956 9,0 0,7.19934 -5.40088,0 c -0.16774,-2.40012 -1.36744,-3.6002 -3.59912,-3.60022 l 0,0 z"
         style="stroke:#000000;stroke-opacity:1;fill:none"
         id="path4615" />
    </g>
    <rect
       style="fill:none;stroke:#000000;stroke-width:1;stroke-miterlimit:4;stroke-opacity:1;stroke-dasharray:none"
       id="rect4016"
       width="1183.8998"
       height="718.63177"
       x="-66.795906"
       y="4.7329278" />
  </g>
</svg>
